  0
SECTION
  2
HEADER
  9
$ACADVER
  1
AC1009
  9
$DWGCODEPAGE
  3
ansi_1252
  9
$INSBASE
 10
0.0
 20
0.0
 30
0.0
  9
$EXTMIN
 10
-22.77424144609425
 20
-1.963783085861846
 30
0.0
  9
$EXTMAX
 10
22.77424144609426
 20
1.963783085861846
 30
0.0
  9
$LIMMIN
 10
0.0
 20
0.0
  9
$LIMMAX
 10
12.0
 20
9.0
  9
$ORTHOMODE
 70
     0
  9
$REGENMODE
 70
     1
  9
$FILLMODE
 70
     1
  9
$QTEXTMODE
 70
     0
  9
$MIRRTEXT
 70
     1
  9
$DRAGMODE
 70
     2
  9
$LTSCALE
 40
1.0
  9
$OSMODE
 70
    37
  9
$ATTMODE
 70
     1
  9
$TEXTSIZE
 40
0.2
  9
$TRACEWID
 40
0.05
  9
$TEXTSTYLE
  7
STANDARD
  9
$CLAYER
  8
0
  9
$CELTYPE
  6
BYLAYER
  9
$CECOLOR
 62
   256
  9
$DIMSCALE
 40
1.0
  9
$DIMASZ
 40
0.18
  9
$DIMEXO
 40
0.0625
  9
$DIMDLI
 40
0.38
  9
$DIMRND
 40
0.0
  9
$DIMDLE
 40
0.0
  9
$DIMEXE
 40
0.18
  9
$DIMTP
 40
0.0
  9
$DIMTM
 40
0.0
  9
$DIMTXT
 40
0.18
  9
$DIMCEN
 40
0.09
  9
$DIMTSZ
 40
0.0
  9
$DIMTOL
 70
     0
  9
$DIMLIM
 70
     0
  9
$DIMTIH
 70
     1
  9
$DIMTOH
 70
     1
  9
$DIMSE1
 70
     0
  9
$DIMSE2
 70
     0
  9
$DIMTAD
 70
     0
  9
$DIMZIN
 70
     0
  9
$DIMBLK
  1

  9
$DIMASO
 70
     1
  9
$DIMSHO
 70
     1
  9
$DIMPOST
  1

  9
$DIMAPOST
  1

  9
$DIMALT
 70
     0
  9
$DIMALTD
 70
     2
  9
$DIMALTF
 40
25.4
  9
$DIMLFAC
 40
1.0
  9
$DIMTOFL
 70
     0
  9
$DIMTVP
 40
0.0
  9
$DIMTIX
 70
     0
  9
$DIMSOXD
 70
     0
  9
$DIMSAH
 70
     0
  9
$DIMBLK1
  1

  9
$DIMBLK2
  1

  9
$DIMSTYLE
  2
STANDARD
  9
$DIMCLRD
 70
     0
  9
$DIMCLRE
 70
     0
  9
$DIMCLRT
 70
     0
  9
$DIMTFAC
 40
1.0
  9
$DIMGAP
 40
0.09
  9
$LUNITS
 70
     2
  9
$LUPREC
 70
     4
  9
$SKETCHINC
 40
0.1
  9
$FILLETRAD
 40
0.5
  9
$AUNITS
 70
     0
  9
$AUPREC
 70
     0
  9
$MENU
  1
.
  9
$ELEVATION
 40
0.0
  9
$PELEVATION
 40
0.0
  9
$THICKNESS
 40
0.0
  9
$LIMCHECK
 70
     0
  9
$CHAMFERA
 40
0.0
  9
$CHAMFERB
 40
0.0
  9
$SKPOLY
 70
     0
  9
$TDCREATE
 40
2454910.5
  9
$TDUPDATE
 40
2459061.894989433
  9
$TDINDWG
 40
0.0000000116
  9
$TDUSRTIMER
 40
0.0000000116
  9
$USRTIMER
 70
     1
  9
$ANGBASE
 50
0.0
  9
$ANGDIR
 70
     0
  9
$PDMODE
 70
     0
  9
$PDSIZE
 40
0.0
  9
$PLINEWID
 40
0.0
  9
$COORDS
 70
     1
  9
$SPLFRAME
 70
     0
  9
$SPLINETYPE
 70
     6
  9
$SPLINESEGS
 70
     8
  9
$ATTDIA
 70
     0
  9
$ATTREQ
 70
     1
  9
$HANDLING
 70
     1
  9
$HANDSEED
  5
33A
  9
$SURFTAB1
 70
     6
  9
$SURFTAB2
 70
     6
  9
$SURFTYPE
 70
     6
  9
$SURFU
 70
     6
  9
$SURFV
 70
     6
  9
$UCSNAME
  2

  9
$UCSORG
 10
0.0
 20
0.0
 30
0.0
  9
$UCSXDIR
 10
1.0
 20
0.0
 30
0.0
  9
$UCSYDIR
 10
0.0
 20
1.0
 30
0.0
  9
$PUCSNAME
  2

  9
$PUCSORG
 10
0.0
 20
0.0
 30
0.0
  9
$PUCSXDIR
 10
1.0
 20
0.0
 30
0.0
  9
$PUCSYDIR
 10
0.0
 20
1.0
 30
0.0
  9
$USERI1
 70
     0
  9
$USERI2
 70
     0
  9
$USERI3
 70
     0
  9
$USERI4
 70
     0
  9
$USERI5
 70
     0
  9
$USERR1
 40
0.0
  9
$USERR2
 40
0.0
  9
$USERR3
 40
0.0
  9
$USERR4
 40
0.0
  9
$USERR5
 40
0.0
  9
$WORLDVIEW
 70
     1
  9
$SHADEDGE
 70
     3
  9
$SHADEDIF
 70
    70
  9
$TILEMODE
 70
     1
  9
$MAXACTVP
 70
    64
  9
$PLIMCHECK
 70
     0
  9
$PEXTMIN
 10
1.000000000000000E+20
 20
1.000000000000000E+20
 30
1.000000000000000E+20
  9
$PEXTMAX
 10
-1.000000000000000E+20
 20
-1.000000000000000E+20
 30
-1.000000000000000E+20
  9
$PLIMMIN
 10
0.0
 20
0.0
  9
$PLIMMAX
 10
12.0
 20
9.0
  9
$UNITMODE
 70
     0
  9
$VISRETAIN
 70
     1
  9
$PLINEGEN
 70
     0
  9
$PSLTSCALE
 70
     1
  0
ENDSEC
  0
SECTION
  2
TABLES
  0
TABLE
  2
VPORT
 70
     1
  0
VPORT
  2
*ACTIVE
 70
     0
 10
0.0
 20
0.0
 11
1.0
 21
1.0
 12
10.42990654205607
 22
4.5
 13
0.0
 23
0.0
 14
0.5
 24
0.5
 15
0.5
 25
0.5
 16
0.0
 26
0.0
 36
1.0
 17
0.0
 27
0.0
 37
0.0
 40
9.0
 41
1.972972972850329
 42
50.0
 43
0.0
 44
0.0
 50
0.0
 51
0.0
 71
     0
 72
   100
 73
     1
 74
     3
 75
     0
 76
     0
 77
     0
 78
     0
  0
ENDTAB
  0
TABLE
  2
LTYPE
 70
     2
  0
LTYPE
  2
CONTINUOUS
 70
     0
  3
Solid line
 72
    65
 73
     0
 40
0.0
  0
LTYPE
  2
CONTINUOUS2
 70
     0
  3
Solid Line
 72
    65
 73
     0
 40
0.0
  0
ENDTAB
  0
TABLE
  2
LAYER
 70
     2
  0
LAYER
  2
0
 70
     0
 62
     7
  6
CONTINUOUS
  0
LAYER
  2
HASH
 70
     0
 62
    18
  6
CONTINUOUS
  0
ENDTAB
  0
TABLE
  2
STYLE
 70
     1
  0
STYLE
  2
STANDARD
 70
     0
 40
0.0
 41
1.0
 50
0.0
 71
     0
 42
0.2
  3
txt
  4

  0
ENDTAB
  0
TABLE
  2
VIEW
 70
     0
  0
ENDTAB
  0
TABLE
  2
UCS
 70
     0
  0
ENDTAB
  0
TABLE
  2
APPID
 70
     1
  0
APPID
  2
ACAD
 70
     0
  0
ENDTAB
  0
TABLE
  2
DIMSTYLE
 70
     1
  0
DIMSTYLE
  2
STANDARD
 70
     0
  3

  4

  5

  6

  7

 40
1.0
 41
0.18
 42
0.0625
 43
0.38
 44
0.18
 45
0.0
 46
0.0
 47
0.0
 48
0.0
140
0.18
141
0.09
142
0.0
143
25.4
144
1.0
145
0.0
146
1.0
147
0.09
 71
     0
 72
     0
 73
     1
 74
     1
 75
     0
 76
     0
 77
     0
 78
     0
170
     0
171
     2
172
     0
173
     0
174
     0
175
     0
176
     0
177
     0
178
     0
  0
ENDTAB
  0
ENDSEC
  0
SECTION
  2
BLOCKS
  0
BLOCK
  8
0
  2
$MODEL_SPACE
 70
     0
 10
0.0
 20
0.0
 30
0.0
  3
$MODEL_SPACE
  1

  0
ENDBLK
  5
21
  8
0
  0
BLOCK
 67
     1
  8
0
  2
$PAPER_SPACE
 70
     0
 10
0.0
 20
0.0
 30
0.0
  3
$PAPER_SPACE
  1

  0
ENDBLK
  5
1D
 67
     1
  8
0
  0
ENDSEC
  0
SECTION
  2
ENTITIES
  0
POLYLINE
  5
70
  8
HASH
 66
     1
 10
0.0
 20
0.0
 30
0.0
 70
     1
  0
VERTEX
  5
89
  8
HASH
 10
-19.89418979987088
 20
-1.750355067785668
 30
0.0
  0
VERTEX
  5
8A
  8
HASH
 10
-20.00308868624919
 20
-1.800377259522272
 30
0.0
  0
VERTEX
  5
8B
  8
HASH
 10
-20.11881052291801
 20
-1.843729825693996
 30
0.0
  0
VERTEX
  5
8C
  8
HASH
 10
-20.24135530987733
 20
-1.880412766300839
 30
0.0
  0
VERTEX
  5
8D
  8
HASH
 10
-20.37072304712717
 20
-1.910426081342802
 30
0.0
  0
VERTEX
  5
8E
  8
HASH
 10
-20.50691373466752
 20
-1.933769770819884
 30
0.0
  0
VERTEX
  5
8F
  8
HASH
 10
-20.64992737249838
 20
-1.950443834732085
 30
0.0
  0
VERTEX
  5
90
  8
HASH
 10
-20.95642349903163
 20
-1.963783085861846
 30
0.0
  0
VERTEX
  5
91
  8
HASH
 10
-21.15737471755971
 20
-1.95567604099419
 30
0.0
  0
VERTEX
  5
92
  8
HASH
 10
-21.34809151065203
 20
-1.93135490639122
 30
0.0
  0
VERTEX
  5
93
  8
HASH
 10
-21.52857387830858
 20
-1.890819682052937
 30
0.0
  0
VERTEX
  5
94
  8
HASH
 10
-21.69882182052937
 20
-1.834070367979342
 30
0.0
  0
VERTEX
  5
95
  8
HASH
 10
-21.8588353373144
 20
-1.761106964170432
 30
0.0
  0
VERTEX
  5
96
  8
HASH
 10
-22.00861442866365
 20
-1.67192947062621
 30
0.0
  0
VERTEX
  5
97
  8
HASH
 10
-22.14815909457715
 20
-1.566537887346675
 30
0.0
  0
VERTEX
  5
98
  8
HASH
 10
-22.27746933505487
 20
-1.444932214331827
 30
0.0
  0
VERTEX
  5
99
  8
HASH
 10
-22.39390029857972
 20
-1.310025621368625
 30
0.0
  0
VERTEX
  5
9A
  8
HASH
 10
-22.4948071336346
 20
-1.164731278244028
 30
0.0
  0
VERTEX
  5
9B
  8
HASH
 10
-22.5801898402195
 20
-1.009049184958038
 30
0.0
  0
VERTEX
  5
9C
  8
HASH
 10
-22.65004841833441
 20
-0.8429793415106522
 30
0.0
  0
VERTEX
  5
9D
  8
HASH
 10
-22.70438286797934
 20
-0.6665217479018725
 30
0.0
  0
VERTEX
  5
9E
  8
HASH
 10
-22.74319318915429
 20
-0.4796764041316982
 30
0.0
  0
VERTEX
  5
9F
  8
HASH
 10
-22.76647938185926
 20
-0.2824433102001294
 30
0.0
  0
VERTEX
  5
A0
  8
HASH
 10
-22.77424144609425
 20
-0.0748224661071661
 30
0.0
  0
VERTEX
  5
A1
  8
HASH
 10
-22.7656360958683
 20
0.1423045109748224
 30
0.0
  0
VERTEX
  5
A2
  8
HASH
 10
-22.73982004519045
 20
0.3496570367979341
 30
0.0
  0
VERTEX
  5
A3
  8
HASH
 10
-22.69679329406068
 20
0.5472351113621692
 30
0.0
  0
VERTEX
  5
A4
  8
HASH
 10
-22.63655584247902
 20
0.7350387346675273
 30
0.0
  0
VERTEX
  5
A5
  8
HASH
 10
-22.55910769044544
 20
0.9130679067140091
 30
0.0
  0
VERTEX
  5
A6
  8
HASH
 10
-22.46444883795997
 20
1.081322627501614
 30
0.0
  0
VERTEX
  5
A7
  8
HASH
 10
-22.35257928502259
 20
1.239802897030342
 30
0.0
  0
VERTEX
  5
A8
  8
HASH
 10
-22.22349903163331
 20
1.388508715300194
 30
0.0
  0
VERTEX
  5
A9
  8
HASH
 10
-22.08084954002582
 20
1.523338645900581
 30
0.0
  0
VERTEX
  5
AA
  8
HASH
 10
-21.92827227243382
 20
1.640191252420917
 30
0.0
  0
VERTEX
  5
AB
  8
HASH
 10
-21.76576722885732
 20
1.739066534861201
 30
0.0
  0
VERTEX
  5
AC
  8
HASH
 10
-21.59333440929632
 20
1.819964493221433
 30
0.0
  0
VERTEX
  5
AD
  8
HASH
 10
-21.4109738137508
 20
1.882885127501614
 30
0.0
  0
VERTEX
  5
AE
  8
HASH
 10
-21.21868544222078
 20
1.927828437701743
 30
0.0
  0
VERTEX
  5
AF
  8
HASH
 10
-21.01646929470626
 20
1.95479442382182
 30
0.0
  0
VERTEX
  5
B0
  8
HASH
 10
-20.80432537120723
 20
1.963783085861846
 30
0.0
  0
VERTEX
  5
B1
  8
HASH
 10
-20.54229341510652
 20
1.954276952872821
 30
0.0
  0
VERTEX
  5
B2
  8
HASH
 10
-20.30326016785022
 20
1.925758553905745
 30
0.0
  0
VERTEX
  5
B3
  8
HASH
 10
-20.08722562943834
 20
1.878227888960619
 30
0.0
  0
VERTEX
  5
B4
  8
HASH
 10
-19.89418979987088
 20
1.811684958037443
 30
0.0
  0
VERTEX
  5
B5
  8
HASH
 10
-19.89418979987088
 20
1.215558424790187
 30
0.0
  0
VERTEX
  5
B6
  8
HASH
 10
-19.99611241123305
 20
1.268455455132343
 30
0.0
  0
VERTEX
  5
B7
  8
HASH
 10
-20.10071820529373
 20
1.314299548095545
 30
0.0
  0
VERTEX
  5
B8
  8
HASH
 10
-20.20800718205293
 20
1.353090703679793
 30
0.0
  0
VERTEX
  5
B9
  8
HASH
 10
-20.31797934151065
 20
1.384828921885087
 30
0.0
  0
VERTEX
  5
BA
  8
HASH
 10
-20.54597320852162
 20
1.427146546158812
 30
0.0
  0
VERTEX
  5
BB
  8
HASH
 10
-20.78469980632666
 20
1.44125242091672
 30
0.0
  0
VERTEX
  5
BC
  8
HASH
 10
-20.93603131052291
 20
1.434870279212395
 30
0.0
  0
VERTEX
  5
BD
  8
HASH
 10
-21.0796965784377
 20
1.415723854099419
 30
0.0
  0
VERTEX
  5
BE
  8
HASH
 10
-21.21569561007101
 20
1.383813145577792
 30
0.0
  0
VERTEX
  5
BF
  8
HASH
 10
-21.34402840542285
 20
1.339138153647514
 30
0.0
  0
VERTEX
  5
C0
  8
HASH
 10
-21.46469496449322
 20
1.281698878308586
 30
0.0
  0
VERTEX
  5
C1
  8
HASH
 10
-21.57769528728212
 20
1.211495319561007
 30
0.0
  0
VERTEX
  5
C2
  8
HASH
 10
-21.68302937378954
 20
1.128527477404777
 30
0.0
  0
VERTEX
  5
C3
  8
HASH
 10
-21.78069722401549
 20
1.032795351839896
 30
0.0
  0
VERTEX
  5
C4
  8
HASH
 10
-21.86866728534538
 20
0.9267521384764361
 30
0.0
  0
VERTEX
  5
C5
  8
HASH
 10
-21.94490800516461
 20
0.8128510329244671
 30
0.0
  0
VERTEX
  5
C6
  8
HASH
 10
-22.0094193834732
 20
0.6910920351839895
 30
0.0
  0
VERTEX
  5
C7
  8
HASH
 10
-22.06220142027114
 20
0.5614751452550031
 30
0.0
  0
VERTEX
  5
C8
  8
HASH
 10
-22.10325411555842
 20
0.4240003631375079
 30
0.0
  0
VERTEX
  5
C9
  8
HASH
 10
-22.13257746933505
 20
0.2786676888315041
 30
0.0
  0
VERTEX
  5
CA
  8
HASH
 10
-22.15017148160103
 20
0.1254771223369915
 30
0.0
  0
VERTEX
  5
CB
  8
HASH
 10
-22.15603615235635
 20
-0.0355713363460297
 30
0.0
  0
VERTEX
  5
CC
  8
HASH
 10
-22.1505356278244
 20
-0.1894326985151711
 30
0.0
  0
VERTEX
  5
CD
  8
HASH
 10
-22.13403405422853
 20
-0.3357811491284701
 30
0.0
  0
VERTEX
  5
CE
  8
HASH
 10
-22.10653143156875
 20
-0.4746166881859265
 30
0.0
  0
VERTEX
  5
CF
  8
HASH
 10
-22.06802775984506
 20
-0.6059393156875404
 30
0.0
  0
VERTEX
  5
D0
  8
HASH
 10
-22.01852303905745
 20
-0.729749031633312
 30
0.0
  0
VERTEX
  5
D1
  8
HASH
 10
-21.95801726920593
 20
-0.8460458360232409
 30
0.0
  0
VERTEX
  5
D2
  8
HASH
 10
-21.8865104502905
 20
-0.9548297288573274
 30
0.0
  0
VERTEX
  5
D3
  8
HASH
 10
-21.80400258231116
 20
-1.056100710135571
 30
0.0
  0
VERTEX
  5
D4
  8
HASH
 10
-21.71225689961265
 20
-1.147520577792124
 30
0.0
  0
VERTEX
  5
D5
  8
HASH
 10
-21.6130366365397
 20
-1.226751129761136
 30
0.0
  0
VERTEX
  5
D6
  8
HASH
 10
-21.50634179309231
 20
-1.293792366042608
 30
0.0
  0
VERTEX
  5
D7
  8
HASH
 10
-21.39217236927049
 20
-1.34864428663654
 30
0.0
  0
VERTEX
  5
D8
  8
HASH
 10
-21.27052836507424
 20
-1.391306891542931
 30
0.0
  0
VERTEX
  5
D9
  8
HASH
 10
-21.14140978050355
 20
-1.421780180761782
 30
0.0
  0
VERTEX
  5
DA
  8
HASH
 10
-21.00481661555842
 20
-1.440064154293092
 30
0.0
  0
VERTEX
  5
DB
  8
HASH
 10
-20.86074887023886
 20
-1.446158812136862
 30
0.0
  0
VERTEX
  5
DC
  8
HASH
 10
-20.72543979987088
 20
-1.442210700451904
 30
0.0
  0
VERTEX
  5
DD
  8
HASH
 10
-20.5942704970949
 20
-1.43036636539703
 30
0.0
  0
VERTEX
  5
DE
  8
HASH
 10
-20.4672409619109
 20
-1.41062580697224
 30
0.0
  0
VERTEX
  5
DF
  8
HASH
 10
-20.34435119431891
 20
-1.382989025177534
 30
0.0
  0
VERTEX
  5
E0
  8
HASH
 10
-20.22560119431891
 20
-1.347456020012912
 30
0.0
  0
VERTEX
  5
E1
  8
HASH
 10
-20.1109909619109
 20
-1.304026791478373
 30
0.0
  0
VERTEX
  5
E2
  8
HASH
 10
-20.00052049709489
 20
-1.252701339573919
 30
0.0
  0
VERTEX
  5
E3
  8
HASH
 10
-19.89418979987088
 20
-1.193479664299548
 30
0.0
  0
SEQEND
  5
328
  8
HASH
  0
POLYLINE
  5
71
  8
HASH
 66
     1
 10
0.0
 20
0.0
 30
0.0
 70
     1
  0
VERTEX
  5
E4
  8
HASH
 10
-16.07947062621046
 20
-1.9
 30
0.0
  0
VERTEX
  5
E5
  8
HASH
 10
-16.7271142672692
 20
-1.9
 30
0.0
  0
VERTEX
  5
E6
  8
HASH
 10
-17.0828276307295
 20
-0.9113621691413815
 30
0.0
  0
VERTEX
  5
E7
  8
HASH
 10
-18.60380890897353
 20
-0.9113621691413815
 30
0.0
  0
VERTEX
  5
E8
  8
HASH
 10
-18.94234990316333
 20
-1.9
 30
0.0
  0
VERTEX
  5
E9
  8
HASH
 10
-19.58999354422208
 20
-1.9
 30
0.0
  0
VERTEX
  5
EA
  8
HASH
 10
-18.15732730794061
 20
1.899999999999999
 30
0.0
  0
VERTEX
  5
EB
  8
HASH
 10
-17.50232408005164
 20
1.899999999999999
 30
0.0
  0
SEQEND
  5
329
  8
HASH
  0
POLYLINE
  5
72
  8
HASH
 66
     1
 10
0.0
 20
0.0
 30
0.0
 70
     1
  0
VERTEX
  5
EC
  8
HASH
 10
-17.24719173660426
 20
-0.4231762427372501
 30
0.0
  0
VERTEX
  5
ED
  8
HASH
 10
-17.7770819883796
 20
1.075726275016139
 30
0.0
  0
VERTEX
  5
EE
  8
HASH
 10
-17.80652033570045
 20
1.187959974176888
 30
0.0
  0
VERTEX
  5
EF
  8
HASH
 10
-17.8359586830213
 20
1.362750161394448
 30
0.0
  0
VERTEX
  5
F0
  8
HASH
 10
-17.8531310522918
 20
1.362750161394448
 30
0.0
  0
VERTEX
  5
F1
  8
HASH
 10
-17.87950290510006
 20
1.207585539057456
 30
0.0
  0
VERTEX
  5
F2
  8
HASH
 10
-17.91446094254357
 20
1.080632666236281
 30
0.0
  0
VERTEX
  5
F3
  8
HASH
 10
-18.44189799870884
 20
-0.4231762427372501
 30
0.0
  0
SEQEND
  5
32A
  8
HASH
  0
POLYLINE
  5
73
  8
HASH
 66
     1
 10
0.0
 20
0.0
 30
0.0
 70
     1
  0
VERTEX
  5
F4
  8
HASH
 10
-12.36287927695287
 20
-1.9
 30
0.0
  0
VERTEX
  5
F5
  8
HASH
 10
-13.0203357004519
 20
-1.9
 30
0.0
  0
VERTEX
  5
F6
  8
HASH
 10
-14.83815364751452
 20
0.9015493867010975
 30
0.0
  0
VERTEX
  5
F7
  8
HASH
 10
-14.92524209167204
 20
1.045674628792769
 30
0.0
  0
VERTEX
  5
F8
  8
HASH
 10
-14.98534538411878
 20
1.168947708198838
 30
0.0
  0
VERTEX
  5
F9
  8
HASH
 10
-15.00006455777921
 20
1.168947708198838
 30
0.0
  0
VERTEX
  5
FA
  8
HASH
 10
-14.98350548741123
 20
0.9567462879276951
 30
0.0
  0
VERTEX
  5
FB
  8
HASH
 10
-14.97798579728857
 20
0.6145255003227885
 30
0.0
  0
VERTEX
  5
FC
  8
HASH
 10
-14.97798579728857
 20
-1.9
 30
0.0
  0
VERTEX
  5
FD
  8
HASH
 10
-15.54958037443512
 20
-1.9
 30
0.0
  0
VERTEX
  5
FE
  8
HASH
 10
-15.54958037443512
 20
1.899999999999999
 30
0.0
  0
VERTEX
  5
FF
  8
HASH
 10
-14.85287282117495
 20
1.899999999999999
 30
0.0
  0
VERTEX
  5
100
  8
HASH
 10
-13.08902517753389
 20
-0.8475790832795354
 30
0.0
  0
VERTEX
  5
101
  8
HASH
 10
-12.92220787604906
 20
-1.119883795997418
 30
0.0
  0
VERTEX
  5
102
  8
HASH
 10
-12.90994189799871
 20
-1.119883795997418
 30
0.0
  0
VERTEX
  5
103
  8
HASH
 10
-12.93018076178179
 20
-0.8954163976759199
 30
0.0
  0
VERTEX
  5
104
  8
HASH
 10
-12.93692704970949
 20
-0.5752743705616528
 30
0.0
  0
VERTEX
  5
105
  8
HASH
 10
-12.93692704970949
 20
1.899999999999999
 30
0.0
  0
VERTEX
  5
106
  8
HASH
 10
-12.36287927695287
 20
1.899999999999999
 30
0.0
  0
SEQEND
  5
32B
  8
HASH
  0
POLYLINE
  5
74
  8
HASH
 66
     1
 10
0.0
 20
0.0
 30
0.0
 70
     1
  0
VERTEX
  5
107
  8
HASH
 10
-11.65635894125242
 20
-0.0478373143963848
 30
0.0
  0
VERTEX
  5
108
  8
HASH
 10
-11.64848188347321
 20
0.1718578518398965
 30
0.0
  0
VERTEX
  5
109
  8
HASH
 10
-11.62485071013557
 20
0.3807819561007099
 30
0.0
  0
VERTEX
  5
10A
  8
HASH
 10
-11.58546542123951
 20
0.5789349983860553
 30
0.0
  0
VERTEX
  5
10B
  8
HASH
 10
-11.53032601678502
 20
0.7663169786959326
 30
0.0
  0
VERTEX
  5
10C
  8
HASH
 10
-11.45943249677211
 20
0.9429278970303421
 30
0.0
  0
VERTEX
  5
10D
  8
HASH
 10
-11.37278486120077
 20
1.108767753389283
 30
0.0
  0
VERTEX
  5
10E
  8
HASH
 10
-11.27038311007101
 20
1.263836547772756
 30
0.0
  0
VERTEX
  5
10F
  8
HASH
 10
-11.15222724338282
 20
1.408134280180761
 30
0.0
  0
VERTEX
  5
110
  8
HASH
 10
-11.02069379438347
 20
1.538364469012266
 30
0.0
  0
VERTEX
  5
111
  8
HASH
 10
-10.87815929632021
 20
1.651230632666236
 30
0.0
  0
VERTEX
  5
112
  8
HASH
 10
-10.72462374919303
 20
1.746732771142672
 30
0.0
  0
VERTEX
  5
113
  8
HASH
 10
-10.56008715300193
 20
1.824870884441575
 30
0.0
  0
VERTEX
  5
114
  8
HASH
 10
-10.38454950774693
 20
1.885644972562943
 30
0.0
  0
VERTEX
  5
115
  8
HASH
 10
-10.19801081342802
 20
1.929055035506778
 30
0.0
  0
VERTEX
  5
116
  8
HASH
 10
-10.00047107004519
 20
1.955101073273079
 30
0.0
  0
VERTEX
  5
117
  8
HASH
 10
-9.791930277598448
 20
1.963783085861846
 30
0.0
  0
VERTEX
  5
118
  8
HASH
 10
-9.596326258876692
 20
1.955350225952227
 30
0.0
  0
VERTEX
  5
119
  8
HASH
 10
-9.410611684958035
 20
1.93005164622337
 30
0.0
  0
VERTEX
  5
11A
  8
HASH
 10
-9.234786555842476
 20
1.887887346675274
 30
0.0
  0
VERTEX
  5
11B
  8
HASH
 10
-9.068850871530017
 20
1.82885732730794
 30
0.0
  0
VERTEX
  5
11C
  8
HASH
 10
-8.912804632020656
 20
1.752961588121368
 30
0.0
  0
VERTEX
  5
11D
  8
HASH
 10
-8.766647837314395
 20
1.660200129115558
 30
0.0
  0
VERTEX
  5
11E
  8
HASH
 10
-8.63038048741123
 20
1.550572950290509
 30
0.0
  0
VERTEX
  5
11F
  8
HASH
 10
-8.504002582311166
 20
1.424080051646223
 30
0.0
  0
VERTEX
  5
120
  8
HASH
 10
-8.390158973531307
 20
1.284401226597805
 30
0.0
  0
VERTEX
  5
121
  8
HASH
 10
-8.291494512588764
 20
1.135216268560361
 30
0.0
  0
VERTEX
  5
122
  8
HASH
 10
-8.208009199483534
 20
0.9765251775338925
 30
0.0
  0
VERTEX
  5
123
  8
HASH
 10
-8.139703034215621
 20
0.8083279535183986
 30
0.0
  0
VERTEX
  5
124
  8
HASH
 10
-8.08657601678502
 20
0.6306245965138796
 30
0.0
  0
VERTEX
  5
125
  8
HASH
 10
-8.048628147191735
 20
0.4434151065203354
 30
0.0
  0
VERTEX
  5
126
  8
HASH
 10
-8.025859425435764
 20
0.2466994835377661
 30
0.0
  0
VERTEX
  5
127
  8
HASH
 10
-8.018269851517106
 20
0.0404777275661716
 30
0.0
  0
VERTEX
  5
128
  8
HASH
 10
-8.026012750161392
 20
-0.1780483376371854
 30
0.0
  0
VERTEX
  5
129
  8
HASH
 10
-8.049241446094252
 20
-0.3859183344092964
 30
0.0
  0
VERTEX
  5
12A
  8
HASH
 10
-8.087955939315684
 20
-0.5831322627501614
 30
0.0
  0
VERTEX
  5
12B
  8
HASH
 10
-8.14215622982569
 20
-0.7696901226597805
 30
0.0
  0
VERTEX
  5
12C
  8
HASH
 10
-8.21184231762427
 20
-0.9455919141381537
 30
0.0
  0
VERTEX
  5
12D
  8
HASH
 10
-8.297014202711425
 20
-1.110837637185281
 30
0.0
  0
VERTEX
  5
12E
  8
HASH
 10
-8.397671885087151
 20
-1.265427291801162
 30
0.0
  0
VERTEX
  5
12F
  8
HASH
 10
-8.513815364751451
 20
-1.409360877985797
 30
0.0
  0
VERTEX
  5
130
  8
HASH
 10
-8.643144770819884
 20
-1.539303582956746
 30
0.0
  0
VERTEX
  5
131
  8
HASH
 10
-8.783360232408004
 20
-1.651920593931569
 30
0.0
  0
VERTEX
  5
132
  8
HASH
 10
-8.934461749515815
 20
-1.747211910910265
 30
0.0
  0
VERTEX
  5
133
  8
HASH
 10
-9.096449322143318
 20
-1.825177533892834
 30
0.0
  0
VERTEX
  5
134
  8
HASH
 10
-9.269322950290508
 20
-1.885817462879277
 30
0.0
  0
VERTEX
  5
135
  8
HASH
 10
-9.45308263395739
 20
-1.929131697869593
 30
0.0
  0
VERTEX
  5
136
  8
HASH
 10
-9.647728373143961
 20
-1.955120238863783
 30
0.0
  0
VERTEX
  5
137
  8
HASH
 10
-9.853260167850223
 20
-1.963783085861846
 30
0.0
  0
VERTEX
  5
138
  8
HASH
 10
-10.04964997579083
 20
-1.955426888315042
 30
0.0
  0
VERTEX
  5
139
  8
HASH
 10
-10.236495319561
 20
-1.930358295674629
 30
0.0
  0
VERTEX
  5
13A
  8
HASH
 10
-10.41379619916075
 20
-1.888577307940607
 30
0.0
  0
VERTEX
  5
13B
  8
HASH
 10
-10.58155261459006
 20
-1.830083925112976
 30
0.0
  0
VERTEX
  5
13C
  8
HASH
 10
-10.73976456584893
 20
-1.754878147191737
 30
0.0
  0
VERTEX
  5
13D
  8
HASH
 10
-10.88843205293738
 20
-1.662959974176888
 30
0.0
  0
VERTEX
  5
13E
  8
HASH
 10
-11.02755507585539
 20
-1.554329406068431
 30
0.0
  0
VERTEX
  5
13F
  8
HASH
 10
-11.15713363460297
 20
-1.428986442866365
 30
0.0
  0
VERTEX
  5
140
  8
HASH
 10
-11.27413956584893
 20
-1.29041922207876
 30
0.0
  0
VERTEX
  5
141
  8
HASH
 10
-11.3755447062621
 20
-1.142115881213686
 30
0.0
  0
VERTEX
  5
142
  8
HASH
 10
-11.46134905584248
 20
-0.9840764202711426
 30
0.0
  0
VERTEX
  5
143
  8
HASH
 10
-11.53155261459006
 20
-0.8163008392511297
 30
0.0
  0
VERTEX
  5
144
  8
HASH
 10
-11.58615538250484
 20
-0.6387891381536475
 30
0.0
  0
VERTEX
  5
145
  8
HASH
 10
-11.62515735958683
 20
-0.4515413169786959
 30
0.0
  0
VERTEX
  5
146
  8
HASH
 10
-11.64855854583602
 20
-0.254557375726275
 30
0.0
  0
SEQEND
  5
32C
  8
HASH
  0
POLYLINE
  5
75
  8
HASH
 66
     1
 10
0.0
 20
0.0
 30
0.0
 70
     1
  0
VERTEX
  5
147
  8
HASH
 10
-11.03815364751452
 20
-0.0061329890251778
 30
0.0
  0
VERTEX
  5
148
  8
HASH
 10
-11.03313226275016
 20
-0.1596685361523565
 30
0.0
  0
VERTEX
  5
149
  8
HASH
 10
-11.01806810845707
 20
-0.3062661394448032
 30
0.0
  0
VERTEX
  5
14A
  8
HASH
 10
-10.99296118463525
 20
-0.4459257989025178
 30
0.0
  0
VERTEX
  5
14B
  8
HASH
 10
-10.9578114912847
 20
-0.5786475145255003
 30
0.0
  0
VERTEX
  5
14C
  8
HASH
 10
-10.91261902840542
 20
-0.7044312863137508
 30
0.0
  0
VERTEX
  5
14D
  8
HASH
 10
-10.85738379599742
 20
-0.8232771142672692
 30
0.0
  0
VERTEX
  5
14E
  8
HASH
 10
-10.79210579406068
 20
-0.9351849983860556
 30
0.0
  0
VERTEX
  5
14F
  8
HASH
 10
-10.71678502259522
 20
-1.04015493867011
 30
0.0
  0
VERTEX
  5
150
  8
HASH
 10
-10.63291639767592
 20
-1.13531209651388
 30
0.0
  0
VERTEX
  5
151
  8
HASH
 10
-10.54199483537766
 20
-1.217781633311814
 30
0.0
  0
VERTEX
  5
152
  8
HASH
 10
-10.44402033570045
 20
-1.287563549063912
 30
0.0
  0
VERTEX
  5
153
  8
HASH
 10
-10.33899289864429
 20
-1.344657843770174
 30
0.0
  0
VERTEX
  5
154
  8
HASH
 10
-10.22691252420917
 20
-1.3890645174306
 30
0.0
  0
VERTEX
  5
155
  8
HASH
 10
-10.10777921239509
 20
-1.420783570045191
 30
0.0
  0
VERTEX
  5
156
  8
HASH
 10
-9.981592963202063
 20
-1.439815001613944
 30
0.0
  0
VERTEX
  5
157
  8
HASH
 10
-9.848353776630082
 20
-1.446158812136862
 30
0.0
  0
VERTEX
  5
158
  8
HASH
 10
-9.708828276307294
 20
-1.440121651065204
 30
0.0
  0
VERTEX
  5
159
  8
HASH
 10
-9.577275661717234
 20
-1.422010167850226
 30
0.0
  0
VERTEX
  5
15A
  8
HASH
 10
-9.453695932859908
 20
-1.39182436249193
 30
0.0
  0
VERTEX
  5
15B
  8
HASH
 10
-9.33808908973531
 20
-1.349564234990316
 30
0.0
  0
VERTEX
  5
15C
  8
HASH
 10
-9.230455132343444
 20
-1.295229785345384
 30
0.0
  0
VERTEX
  5
15D
  8
HASH
 10
-9.130794060684309
 20
-1.228821013557134
 30
0.0
  0
VERTEX
  5
15E
  8
HASH
 10
-9.039105874757906
 20
-1.150337919625565
 30
0.0
  0
VERTEX
  5
15F
  8
HASH
 10
-8.955390574564234
 20
-1.059780503550678
 30
0.0
  0
VERTEX
  5
160
  8
HASH
 10
-8.880644770819883
 20
-0.9589503308586186
 30
0.0
  0
VERTEX
  5
161
  8
HASH
 10
-8.815865074241444
 20
-0.8496489670755327
 30
0.0
  0
VERTEX
  5
162
  8
HASH
 10
-8.761051484828918
 20
-0.7318764122014204
 30
0.0
  0
VERTEX
  5
163
  8
HASH
 10
-8.716204002582309
 20
-0.6056326662362816
 30
0.0
  0
VERTEX
  5
164
  8
HASH
 10
-8.681322627501613
 20
-0.4709177291801163
 30
0.0
  0
VERTEX
  5
165
  8
HASH
 10
-8.65640735958683
 20
-0.3277316010329245
 30
0.0
  0
VERTEX
  5
166
  8
HASH
 10
-8.64145819883796
 20
-0.1760742817947063
 30
0.0
  0
VERTEX
  5
167
  8
HASH
 10
-8.636475145255002
 20
-0.0159457714654616
 30
0.0
  0
VERTEX
  5
168
  8
HASH
 10
-8.641285708521625
 20
0.1477283731439638
 30
0.0
  0
VERTEX
  5
169
  8
HASH
 10
-8.655717398321496
 20
0.3026630083925112
 30
0.0
  0
VERTEX
  5
16A
  8
HASH
 10
-8.679770214654614
 20
0.4488581342801806
 30
0.0
  0
VERTEX
  5
16B
  8
HASH
 10
-8.713444157520978
 20
0.586313750806972
 30
0.0
  0
VERTEX
  5
16C
  8
HASH
 10
-8.75673922692059
 20
0.7150298579728854
 30
0.0
  0
VERTEX
  5
16D
  8
HASH
 10
-8.809655422853453
 20
0.8350064557779209
 30
0.0
  0
VERTEX
  5
16E
  8
HASH
 10
-8.872192745319559
 20
0.9462435442220785
 30
0.0
  0
VERTEX
  5
16F
  8
HASH
 10
-8.944351194318914
 20
1.048741123305358
 30
0.0
  0
VERTEX
  5
170
  8
HASH
 10
-9.025402477404777
 20
1.140735958683021
 30
0.0
  0
VERTEX
  5
171
  8
HASH
 10
-9.114618302130406
 20
1.220464816010329
 30
0.0
  0
VERTEX
  5
172
  8
HASH
 10
-9.211998668495802
 20
1.287927695287282
 30
0.0
  0
VERTEX
  5
173
  8
HASH
 10
-9.317543576500967
 20
1.34312459651388
 30
0.0
  0
VERTEX
  5
174
  8
HASH
 10
-9.4312530261459
 20
1.386055519690122
 30
0.0
  0
VERTEX
  5
175
  8
HASH
 10
-9.5531270174306
 20
1.41672046481601
 30
0.0
  0
VERTEX
  5
176
  8
HASH
 10
-9.683165550355067
 20
1.435119431891543
 30
0.0
  0
VERTEX
  5
177
  8
HASH
 10
-9.821368624919302
 20
1.44125242091672
 30
0.0
  0
VERTEX
  5
178
  8
HASH
 10
-9.956486039380245
 20
1.434889444803098
 30
0.0
  0
VERTEX
  5
179
  8
HASH
 10
-10.08462717882505
 20
1.415800516462233
 30
0.0
  0
VERTEX
  5
17A
  8
HASH
 10
-10.20579204325371
 20
1.383985635894125
 30
0.0
  0
VERTEX
  5
17B
  8
HASH
 10
-10.31998063266624
 20
1.339444803098773
 30
0.0
  0
VERTEX
  5
17C
  8
HASH
 10
-10.42719294706262
 20
1.282178018076178
 30
0.0
  0
VERTEX
  5
17D
  8
HASH
 10
-10.52742898644287
 20
1.212185280826339
 30
0.0
  0
VERTEX
  5
17E
  8
HASH
 10
-10.62068875080697
 20
1.129466591349257
 30
0.0
  0
VERTEX
  5
17F
  8
HASH
 10
-10.70697224015494
 20
1.034021949644932
 30
0.0
  0
VERTEX
  5
180
  8
HASH
 10
-10.78459288250484
 20
0.928687863137508
 30
0.0
  0
VERTEX
  5
181
  8
HASH
 10
-10.85186410587476
 20
0.8163008392511296
 30
0.0
  0
VERTEX
  5
182
  8
HASH
 10
-10.90878591026468
 20
0.6968608779857972
 30
0.0
  0
VERTEX
  5
183
  8
HASH
 10
-10.95535829567463
 20
0.5703679793415105
 30
0.0
  0
VERTEX
  5
184
  8
HASH
 10
-10.99158126210458
 20
0.4368221433182697
 30
0.0
  0
VERTEX
  5
185
  8
HASH
 10
-11.01745480955455
 20
0.2962233699160747
 30
0.0
  0
VERTEX
  5
186
  8
HASH
 10
-11.03297893802453
 20
0.1485716591349255
 30
0.0
  0
SEQEND
  5
32D
  8
HASH
  0
POLYLINE
  5
76
  8
HASH
 66
     1
 10
0.0
 20
0.0
 30
0.0
 70
     1
  0
VERTEX
  5
187
  8
HASH
 10
-6.72298256939961
 20
-0.5090380890897355
 30
0.0
  0
VERTEX
  5
188
  8
HASH
 10
-6.72298256939961
 20
-1.9
 30
0.0
  0
VERTEX
  5
189
  8
HASH
 10
-7.311749515816654
 20
-1.9
 30
0.0
  0
VERTEX
  5
18A
  8
HASH
 10
-7.311749515816654
 20
1.899999999999999
 30
0.0
  0
VERTEX
  5
18B
  8
HASH
 10
-6.163653970303419
 20
1.899999999999999
 30
0.0
  0
VERTEX
  5
18C
  8
HASH
 10
-6.007071094254355
 20
1.895342761459005
 30
0.0
  0
VERTEX
  5
18D
  8
HASH
 10
-5.859917688831501
 20
1.881371045836023
 30
0.0
  0
VERTEX
  5
18E
  8
HASH
 10
-5.722193754034858
 20
1.858084853131052
 30
0.0
  0
VERTEX
  5
18F
  8
HASH
 10
-5.593899289864426
 20
1.825484183344093
 30
0.0
  0
VERTEX
  5
190
  8
HASH
 10
-5.475034296320205
 20
1.783569036475145
 30
0.0
  0
VERTEX
  5
191
  8
HASH
 10
-5.365598773402192
 20
1.732339412524209
 30
0.0
  0
VERTEX
  5
192
  8
HASH
 10
-5.265592721110392
 20
1.671795311491284
 30
0.0
  0
VERTEX
  5
193
  8
HASH
 10
-5.175016139444801
 20
1.601936733376371
 30
0.0
  0
VERTEX
  5
194
  8
HASH
 10
-5.094520658489345
 20
1.523223652356359
 30
0.0
  0
VERTEX
  5
195
  8
HASH
 10
-5.024757908327951
 20
1.436116042608134
 30
0.0
  0
VERTEX
  5
196
  8
HASH
 10
-4.965727888960616
 20
1.340613904131698
 30
0.0
  0
VERTEX
  5
197
  8
HASH
 10
-4.917430600387344
 20
1.236717236927049
 30
0.0
  0
VERTEX
  5
198
  8
HASH
 10
-4.879866042608131
 20
1.12442604099419
 30
0.0
  0
VERTEX
  5
199
  8
HASH
 10
-4.853034215622979
 20
1.003740316333118
 30
0.0
  0
VERTEX
  5
19A
  8
HASH
 10
-4.836935119431888
 20
0.8746600629438345
 30
0.0
  0
VERTEX
  5
19B
  8
HASH
 10
-4.831568754034858
 20
0.7371852808263393
 30
0.0
  0
VERTEX
  5
19C
  8
HASH
 10
-4.837970061329887
 20
0.5977939396384762
 30
0.0
  0
VERTEX
  5
19D
  8
HASH
 10
-4.857173983214975
 20
0.4654172046481599
 30
0.0
  0
VERTEX
  5
19E
  8
HASH
 10
-4.88918051969012
 20
0.3400550758553904
 30
0.0
  0
VERTEX
  5
19F
  8
HASH
 10
-4.933989670755324
 20
0.2217075532601677
 30
0.0
  0
VERTEX
  5
1A0
  8
HASH
 10
-4.991601436410585
 20
0.1103746368624918
 30
0.0
  0
VERTEX
  5
1A1
  8
HASH
 10
-5.062015816655904
 20
0.0060563266623627
 30
0.0
  0
VERTEX
  5
1A2
  8
HASH
 10
-5.145232811491282
 20
-0.0912473773402196
 30
0.0
  0
VERTEX
  5
1A3
  8
HASH
 10
-5.241252420916718
 20
-0.1815364751452551
 30
0.0
  0
VERTEX
  5
1A4
  8
HASH
 10
-5.346701500968363
 20
-0.2625877582311169
 30
0.0
  0
VERTEX
  5
1A5
  8
HASH
 10
-5.458206907682374
 20
-0.3321780180761783
 30
0.0
  0
VERTEX
  5
1A6
  8
HASH
 10
-5.575768641058746
 20
-0.3903072546804391
 30
0.0
  0
VERTEX
  5
1A7
  8
HASH
 10
-5.699386701097481
 20
-0.4369754680438994
 30
0.0
  0
VERTEX
  5
1A8
  8
HASH
 10
-5.829061087798578
 20
-0.4721826581665591
 30
0.0
  0
VERTEX
  5
1A9
  8
HASH
 10
-5.964791801162038
 20
-0.4959288250484184
 30
0.0
  0
VERTEX
  5
1AA
  8
HASH
 10
-6.106578841187861
 20
-0.5082139686894771
 30
0.0
  0
VERTEX
  5
1AB
  8
HASH
 10
-6.254422207876047
 20
-0.5090380890897355
 30
0.0
  0
SEQEND
  5
32E
  8
HASH
  0
POLYLINE
  5
77
  8
HASH
 66
     1
 10
0.0
 20
0.0
 30
0.0
 70
     1
  0
VERTEX
  5
1AC
  8
HASH
 10
-6.72298256939961
 20
1.406907682375726
 30
0.0
  0
VERTEX
  5
1AD
  8
HASH
 10
-6.72298256939961
 20
-0.0183989670755327
 30
0.0
  0
VERTEX
  5
1AE
  8
HASH
 10
-6.301032924467396
 20
-0.0183989670755327
 30
0.0
  0
VERTEX
  5
1AF
  8
HASH
 10
-6.101519125242089
 20
-0.0069762750161395
 30
0.0
  0
VERTEX
  5
1B0
  8
HASH
 10
-5.92860716591349
 20
0.02729180116204
 30
0.0
  0
VERTEX
  5
1B1
  8
HASH
 10
-5.852126876210455
 20
0.0529928582956746
 30
0.0
  0
VERTEX
  5
1B2
  8
HASH
 10
-5.782297046481599
 20
0.0844052614590058
 30
0.0
  0
VERTEX
  5
1B3
  8
HASH
 10
-5.719117676726918
 20
0.1215290106520336
 30
0.0
  0
VERTEX
  5
1B4
  8
HASH
 10
-5.662588766946414
 20
0.1643641058747579
 30
0.0
  0
VERTEX
  5
1B5
  8
HASH
 10
-5.612710317140088
 20
0.2129105471271788
 30
0.0
  0
VERTEX
  5
1B6
  8
HASH
 10
-5.569482327307938
 20
0.2671683344092963
 30
0.0
  0
VERTEX
  5
1B7
  8
HASH
 10
-5.532904797449965
 20
0.3271374677211104
 30
0.0
  0
VERTEX
  5
1B8
  8
HASH
 10
-5.50297772756617
 20
0.3928179470626211
 30
0.0
  0
VERTEX
  5
1B9
  8
HASH
 10
-5.479701117656552
 20
0.4642097724338283
 30
0.0
  0
VERTEX
  5
1BA
  8
HASH
 10
-5.463074967721108
 20
0.5413129438347322
 30
0.0
  0
VERTEX
  5
1BB
  8
HASH
 10
-5.449774047772754
 20
0.7126533247256295
 30
0.0
  0
VERTEX
  5
1BC
  8
HASH
 10
-5.462538331181404
 20
0.8753691897998709
 30
0.0
  0
VERTEX
  5
1BD
  8
HASH
 10
-5.478493685442219
 20
0.9485913290832795
 30
0.0
  0
VERTEX
  5
1BE
  8
HASH
 10
-5.500831181407357
 20
1.016389606197547
 30
0.0
  0
VERTEX
  5
1BF
  8
HASH
 10
-5.529550819076821
 20
1.078764021142673
 30
0.0
  0
VERTEX
  5
1C0
  8
HASH
 10
-5.564652598450611
 20
1.135714573918657
 30
0.0
  0
VERTEX
  5
1C1
  8
HASH
 10
-5.606136519528726
 20
1.1872412645255
 30
0.0
  0
VERTEX
  5
1C2
  8
HASH
 10
-5.654002582311167
 20
1.233344092963202
 30
0.0
  0
VERTEX
  5
1C3
  8
HASH
 10
-5.708250786797932
 20
1.274023059231763
 30
0.0
  0
VERTEX
  5
1C4
  8
HASH
 10
-5.768881132989023
 20
1.309278163331181
 30
0.0
  0
VERTEX
  5
1C5
  8
HASH
 10
-5.909288250484181
 20
1.363516785022595
 30
0.0
  0
VERTEX
  5
1C6
  8
HASH
 10
-6.07522393479664
 20
1.396059958037443
 30
0.0
  0
VERTEX
  5
1C7
  8
HASH
 10
-6.266688185926402
 20
1.406907682375726
 30
0.0
  0
SEQEND
  5
32F
  8
HASH
  0
POLYLINE
  5
78
  8
HASH
 66
     1
 10
0.0
 20
0.0
 30
0.0
 70
     1
  0
VERTEX
  5
1C8
  8
HASH
 10
-1.561459005810199
 20
1.899999999999999
 30
0.0
  0
VERTEX
  5
1C9
  8
HASH
 10
-2.807682375726273
 20
-0.5139444803098774
 30
0.0
  0
VERTEX
  5
1CA
  8
HASH
 10
-2.807682375726273
 20
-1.9
 30
0.0
  0
VERTEX
  5
1CB
  8
HASH
 10
-3.398902517753388
 20
-1.9
 30
0.0
  0
VERTEX
  5
1CC
  8
HASH
 10
-3.398902517753388
 20
-0.5262104583602325
 30
0.0
  0
VERTEX
  5
1CD
  8
HASH
 10
-4.615687540348611
 20
1.899999999999999
 30
0.0
  0
VERTEX
  5
1CE
  8
HASH
 10
-3.941058747579082
 20
1.899999999999999
 30
0.0
  0
VERTEX
  5
1CF
  8
HASH
 10
-3.175661717236926
 20
0.2882504841833442
 30
0.0
  0
VERTEX
  5
1D0
  8
HASH
 10
-3.084893479664298
 20
0.0282117495158165
 30
0.0
  0
VERTEX
  5
1D1
  8
HASH
 10
-3.077533892834085
 20
0.0282117495158165
 30
0.0
  0
VERTEX
  5
1D2
  8
HASH
 10
-3.038896061975467
 20
0.1557779212395092
 30
0.0
  0
VERTEX
  5
1D3
  8
HASH
 10
-2.981859264041316
 20
0.2833440929632021
 30
0.0
  0
VERTEX
  5
1D4
  8
HASH
 10
-2.187023886378307
 20
1.899999999999999
 30
0.0
  0
SEQEND
  5
330
  8
HASH
  0
POLYLINE
  5
79
  8
HASH
 66
     1
 10
0.0
 20
0.0
 30
0.0
 70
     1
  0
VERTEX
  5
1D5
  8
HASH
 10
1.375016139444806
 20
-0.4869593285990963
 30
0.0
  0
VERTEX
  5
1D6
  8
HASH
 10
1.370186410587479
 20
-0.6580122256294385
 30
0.0
  0
VERTEX
  5
1D7
  8
HASH
 10
1.355697224015497
 20
-0.8191373466752745
 30
0.0
  0
VERTEX
  5
1D8
  8
HASH
 10
1.33154857972886
 20
-0.9703346917366044
 30
0.0
  0
VERTEX
  5
1D9
  8
HASH
 10
1.297740477727569
 20
-1.111604260813428
 30
0.0
  0
VERTEX
  5
1DA
  8
HASH
 10
1.254272918011623
 20
-1.242946053905746
 30
0.0
  0
VERTEX
  5
1DB
  8
HASH
 10
1.201145900581023
 20
-1.364360071013557
 30
0.0
  0
VERTEX
  5
1DC
  8
HASH
 10
1.138359425435768
 20
-1.475846312136863
 30
0.0
  0
VERTEX
  5
1DD
  8
HASH
 10
1.065913492575858
 20
-1.577404777275662
 30
0.0
  0
VERTEX
  5
1DE
  8
HASH
 10
0.9849197062621073
 20
-1.667962193350549
 30
0.0
  0
VERTEX
  5
1DF
  8
HASH
 10
0.8964896707553289
 20
-1.746445287282117
 30
0.0
  0
VERTEX
  5
1E0
  8
HASH
 10
0.8006233860555225
 20
-1.812854059070368
 30
0.0
  0
VERTEX
  5
1E1
  8
HASH
 10
0.6973208521626885
 20
-1.8671885087153
 30
0.0
  0
VERTEX
  5
1E2
  8
HASH
 10
0.5865820690768266
 20
-1.909448636216914
 30
0.0
  0
VERTEX
  5
1E3
  8
HASH
 10
0.468407036797937
 20
-1.93963444157521
 30
0.0
  0
VERTEX
  5
1E4
  8
HASH
 10
0.3427957553260197
 20
-1.957745924790187
 30
0.0
  0
VERTEX
  5
1E5
  8
HASH
 10
0.2097482246610746
 20
-1.963783085861846
 30
0.0
  0
VERTEX
  5
1E6
  8
HASH
 10
0.0889283408650771
 20
-1.959030019367334
 30
0.0
  0
VERTEX
  5
1E7
  8
HASH
 10
-0.0233053582956717
 20
-1.944770819883796
 30
0.0
  0
VERTEX
  5
1E8
  8
HASH
 10
-0.126952872821172
 20
-1.921005487411233
 30
0.0
  0
VERTEX
  5
1E9
  8
HASH
 10
-0.2220142027114238
 20
-1.887734021949645
 30
0.0
  0
VERTEX
  5
1EA
  8
HASH
 10
-0.2220142027114238
 20
-1.321045836023241
 30
0.0
  0
VERTEX
  5
1EB
  8
HASH
 10
-0.1326258876694613
 20
-1.37578276307295
 30
0.0
  0
VERTEX
  5
1EC
  8
HASH
 10
-0.0337314396384735
 20
-1.414880568108457
 30
0.0
  0
VERTEX
  5
1ED
  8
HASH
 10
0.0746691413815394
 20
-1.438339251129761
 30
0.0
  0
VERTEX
  5
1EE
  8
HASH
 10
0.1925758553905774
 20
-1.446158812136862
 30
0.0
  0
VERTEX
  5
1EF
  8
HASH
 10
0.2644659861200803
 20
-1.442373607972886
 30
0.0
  0
VERTEX
  5
1F0
  8
HASH
 10
0.3317180438992928
 20
-1.431017995480955
 30
0.0
  0
VERTEX
  5
1F1
  8
HASH
 10
0.3943320287282146
 20
-1.412091974661072
 30
0.0
  0
VERTEX
  5
1F2
  8
HASH
 10
0.452307940606846
 20
-1.385595545513234
 30
0.0
  0
VERTEX
  5
1F3
  8
HASH
 10
0.505645779535187
 20
-1.351528708037443
 30
0.0
  0
VERTEX
  5
1F4
  8
HASH
 10
0.5543455455132372
 20
-1.309891462233699
 30
0.0
  0
VERTEX
  5
1F5
  8
HASH
 10
0.5984072385409971
 20
-1.260683808102001
 30
0.0
  0
VERTEX
  5
1F6
  8
HASH
 10
0.6378308586184664
 20
-1.20390574564235
 30
0.0
  0
VERTEX
  5
1F7
  8
HASH
 10
0.7027638799225335
 20
-1.067638395739187
 30
0.0
  0
VERTEX
  5
1F8
  8
HASH
 10
0.7491446094254387
 20
-0.9010894125242094
 30
0.0
  0
VERTEX
  5
1F9
  8
HASH
 10
0.7769730471271817
 20
-0.7042587959974179
 30
0.0
  0
VERTEX
  5
1FA
  8
HASH
 10
0.7862491930277627
 20
-0.4771465461588122
 30
0.0
  0
VERTEX
  5
1FB
  8
HASH
 10
0.7862491930277627
 20
1.899999999999999
 30
0.0
  0
VERTEX
  5
1FC
  8
HASH
 10
1.375016139444806
 20
1.899999999999999
 30
0.0
  0
SEQEND
  5
331
  8
HASH
  0
POLYLINE
  5
7A
  8
HASH
 66
     1
 10
0.0
 20
0.0
 30
0.0
 70
     1
  0
VERTEX
  5
1FD
  8
HASH
 10
4.397353131052292
 20
-1.9
 30
0.0
  0
VERTEX
  5
1FE
  8
HASH
 10
2.292511297611362
 20
-1.9
 30
0.0
  0
VERTEX
  5
1FF
  8
HASH
 10
2.292511297611362
 20
1.899999999999999
 30
0.0
  0
VERTEX
  5
200
  8
HASH
 10
4.311491284699806
 20
1.899999999999999
 30
0.0
  0
VERTEX
  5
201
  8
HASH
 10
4.311491284699806
 20
1.394641704325371
 30
0.0
  0
VERTEX
  5
202
  8
HASH
 10
2.881278244028405
 20
1.394641704325371
 30
0.0
  0
VERTEX
  5
203
  8
HASH
 10
2.881278244028405
 20
0.2759845061329891
 30
0.0
  0
VERTEX
  5
204
  8
HASH
 10
4.208457069076823
 20
0.2759845061329891
 30
0.0
  0
VERTEX
  5
205
  8
HASH
 10
4.208457069076823
 20
-0.2269205939315688
 30
0.0
  0
VERTEX
  5
206
  8
HASH
 10
2.881278244028405
 20
-0.2269205939315688
 30
0.0
  0
VERTEX
  5
207
  8
HASH
 10
2.881278244028405
 20
-1.394641704325371
 30
0.0
  0
VERTEX
  5
208
  8
HASH
 10
4.397353131052292
 20
-1.394641704325371
 30
0.0
  0
SEQEND
  5
332
  8
HASH
  0
POLYLINE
  5
7B
  8
HASH
 66
     1
 10
0.0
 20
0.0
 30
0.0
 70
     1
  0
VERTEX
  5
209
  8
HASH
 10
7.483473208521621
 20
1.394641704325371
 30
0.0
  0
VERTEX
  5
20A
  8
HASH
 10
6.391801162040021
 20
1.394641704325371
 30
0.0
  0
VERTEX
  5
20B
  8
HASH
 10
6.391801162040021
 20
-1.9
 30
0.0
  0
VERTEX
  5
20C
  8
HASH
 10
5.800581020012906
 20
-1.9
 30
0.0
  0
VERTEX
  5
20D
  8
HASH
 10
5.800581020012906
 20
1.394641704325371
 30
0.0
  0
VERTEX
  5
20E
  8
HASH
 10
4.711362169141376
 20
1.394641704325371
 30
0.0
  0
VERTEX
  5
20F
  8
HASH
 10
4.711362169141376
 20
1.899999999999999
 30
0.0
  0
VERTEX
  5
210
  8
HASH
 10
7.483473208521621
 20
1.899999999999999
 30
0.0
  0
SEQEND
  5
333
  8
HASH
  0
POLYLINE
  5
7C
  8
HASH
 66
     1
 10
0.0
 20
0.0
 30
0.0
 70
     1
  0
VERTEX
  5
211
  8
HASH
 10
10.44448030987734
 20
1.394641704325371
 30
0.0
  0
VERTEX
  5
212
  8
HASH
 10
9.352808263395735
 20
1.394641704325371
 30
0.0
  0
VERTEX
  5
213
  8
HASH
 10
9.352808263395735
 20
-1.9
 30
0.0
  0
VERTEX
  5
214
  8
HASH
 10
8.761588121368622
 20
-1.9
 30
0.0
  0
VERTEX
  5
215
  8
HASH
 10
8.761588121368622
 20
1.394641704325371
 30
0.0
  0
VERTEX
  5
216
  8
HASH
 10
7.672369270497091
 20
1.394641704325371
 30
0.0
  0
VERTEX
  5
217
  8
HASH
 10
7.672369270497091
 20
1.899999999999999
 30
0.0
  0
VERTEX
  5
218
  8
HASH
 10
10.44448030987734
 20
1.899999999999999
 30
0.0
  0
SEQEND
  5
334
  8
HASH
  0
POLYLINE
  5
7D
  8
HASH
 66
     1
 10
0.0
 20
0.0
 30
0.0
 70
     1
  0
VERTEX
  5
219
  8
HASH
 10
11.59748224661072
 20
1.419173660426081
 30
0.0
  0
VERTEX
  5
21A
  8
HASH
 10
11.59748224661072
 20
1.41672046481601
 30
0.0
  0
VERTEX
  5
21B
  8
HASH
 10
11.59748224661072
 20
-1.41672046481601
 30
0.0
  0
VERTEX
  5
21C
  8
HASH
 10
11.59748224661072
 20
-1.419173660426081
 30
0.0
  0
VERTEX
  5
21D
  8
HASH
 10
11.59748224661072
 20
-1.9
 30
0.0
  0
VERTEX
  5
21E
  8
HASH
 10
11.00871530019367
 20
-1.9
 30
0.0
  0
VERTEX
  5
21F
  8
HASH
 10
11.00871530019367
 20
-1.419173660426081
 30
0.0
  0
VERTEX
  5
220
  8
HASH
 10
11.00871530019367
 20
-1.41672046481601
 30
0.0
  0
VERTEX
  5
221
  8
HASH
 10
11.00871530019367
 20
1.41672046481601
 30
0.0
  0
VERTEX
  5
222
  8
HASH
 10
11.00871530019367
 20
1.419173660426081
 30
0.0
  0
VERTEX
  5
223
  8
HASH
 10
11.00871530019367
 20
1.899999999999999
 30
0.0
  0
VERTEX
  5
224
  8
HASH
 10
11.59748224661072
 20
1.899999999999999
 30
0.0
  0
SEQEND
  5
335
  8
HASH
  0
POLYLINE
  5
7E
  8
HASH
 66
     1
 10
0.0
 20
0.0
 30
0.0
 70
     1
  0
VERTEX
  5
225
  8
HASH
 10
12.37514525500322
 20
-1.112524209167205
 30
0.0
  0
VERTEX
  5
226
  8
HASH
 10
12.48672732408005
 20
-1.195894528728212
 30
0.0
  0
VERTEX
  5
227
  8
HASH
 10
12.6031391220142
 20
-1.268148805681085
 30
0.0
  0
VERTEX
  5
228
  8
HASH
 10
12.72438064880568
 20
-1.329287040025823
 30
0.0
  0
VERTEX
  5
229
  8
HASH
 10
12.85045190445448
 20
-1.379309231762427
 30
0.0
  0
VERTEX
  5
22A
  8
HASH
 10
12.98135288896062
 20
-1.418215380890897
 30
0.0
  0
VERTEX
  5
22B
  8
HASH
 10
13.11708360232408
 20
-1.446005487411233
 30
0.0
  0
VERTEX
  5
22C
  8
HASH
 10
13.25764404454486
 20
-1.462679551323435
 30
0.0
  0
VERTEX
  5
22D
  8
HASH
 10
13.40303421562298
 20
-1.468237572627502
 30
0.0
  0
VERTEX
  5
22E
  8
HASH
 10
13.58012427372498
 20
-1.460149693350549
 30
0.0
  0
VERTEX
  5
22F
  8
HASH
 10
13.73360232408005
 20
-1.43588605551969
 30
0.0
  0
VERTEX
  5
230
  8
HASH
 10
13.86346836668818
 20
-1.395446659134926
 30
0.0
  0
VERTEX
  5
231
  8
HASH
 10
13.96972240154938
 20
-1.338831504196256
 30
0.0
  0
VERTEX
  5
232
  8
HASH
 10
14.05236442866365
 20
-1.26604059070368
 30
0.0
  0
VERTEX
  5
233
  8
HASH
 10
14.11139444803098
 20
-1.177073918657198
 30
0.0
  0
VERTEX
  5
234
  8
HASH
 10
14.14681245965138
 20
-1.071931488056811
 30
0.0
  0
VERTEX
  5
235
  8
HASH
 10
14.15861846352485
 20
-0.9506132989025178
 30
0.0
  0
VERTEX
  5
236
  8
HASH
 10
14.15340542285345
 20
-0.8776307295029051
 30
0.0
  0
VERTEX
  5
237
  8
HASH
 10
14.13776630083925
 20
-0.8083279535183989
 30
0.0
  0
VERTEX
  5
238
  8
HASH
 10
14.11170109748224
 20
-0.7427049709489995
 30
0.0
  0
VERTEX
  5
239
  8
HASH
 10
14.07520981278244
 20
-0.6807617817947065
 30
0.0
  0
VERTEX
  5
23A
  8
HASH
 10
14.02990235635894
 20
-0.6225750484183346
 30
0.0
  0
VERTEX
  5
23B
  8
HASH
 10
13.97738863783086
 20
-0.5682214331826987
 30
0.0
  0
VERTEX
  5
23C
  8
HASH
 10
13.85074241446094
 20
-0.4710135571336347
 30
0.0
  0
VERTEX
  5
23D
  8
HASH
 10
13.64068754034861
 20
-0.3541801162040026
 30
0.0
  0
VERTEX
  5
23E
  8
HASH
 10
13.29264041316978
 20
-0.1827630729502905
 30
0.0
  0
VERTEX
  5
23F
  8
HASH
 10
13.05560038734667
 20
-0.0596433182698516
 30
0.0
  0
VERTEX
  5
240
  8
HASH
 10
12.85719819238218
 20
0.0643963847643641
 30
0.0
  0
VERTEX
  5
241
  8
HASH
 10
12.6974338282763
 20
0.1893560361523564
 30
0.0
  0
VERTEX
  5
242
  8
HASH
 10
12.57630729502905
 20
0.3152356358941253
 30
0.0
  0
VERTEX
  5
243
  8
HASH
 10
12.48722562943834
 20
0.4470948999354419
 30
0.0
  0
VERTEX
  5
244
  8
HASH
 10
12.42359586830213
 20
0.5899935442220783
 30
0.0
  0
VERTEX
  5
245
  8
HASH
 10
12.38541801162039
 20
0.7439315687540342
 30
0.0
  0
VERTEX
  5
246
  8
HASH
 10
12.37269205939315
 20
0.9089089735313101
 30
0.0
  0
VERTEX
  5
247
  8
HASH
 10
12.37874838605551
 20
1.028310603615235
 30
0.0
  0
VERTEX
  5
248
  8
HASH
 10
12.3969173660426
 20
1.141195932859909
 30
0.0
  0
VERTEX
  5
249
  8
HASH
 10
12.42719899935442
 20
1.247564961265332
 30
0.0
  0
VERTEX
  5
24A
  8
HASH
 10
12.46959328599096
 20
1.347417688831504
 30
0.0
  0
VERTEX
  5
24B
  8
HASH
 10
12.52410022595222
 20
1.440754115558424
 30
0.0
  0
VERTEX
  5
24C
  8
HASH
 10
12.59071981923822
 20
1.527574241446094
 30
0.0
  0
VERTEX
  5
24D
  8
HASH
 10
12.66945206584893
 20
1.607878066494512
 30
0.0
  0
VERTEX
  5
24E
  8
HASH
 10
12.76029696578437
 20
1.681665590703679
 30
0.0
  0
VERTEX
  5
24F
  8
HASH
 10
12.86057133634603
 20
1.747786878631375
 30
0.0
  0
VERTEX
  5
250
  8
HASH
 10
12.96759199483537
 20
1.805091994835377
 30
0.0
  0
VERTEX
  5
251
  8
HASH
 10
13.08135894125242
 20
1.853580939315687
 30
0.0
  0
VERTEX
  5
252
  8
HASH
 10
13.20187217559716
 20
1.893253712072304
 30
0.0
  0
VERTEX
  5
253
  8
HASH
 10
13.32913169786959
 20
1.924110313105229
 30
0.0
  0
VERTEX
  5
254
  8
HASH
 10
13.46313750806972
 20
1.946150742414461
 30
0.0
  0
VERTEX
  5
255
  8
HASH
 10
13.60388960619754
 20
1.959375
 30
0.0
  0
VERTEX
  5
256
  8
HASH
 10
13.75138799225306
 20
1.963783085861846
 30
0.0
  0
VERTEX
  5
257
  8
HASH
 10
14.01970626210458
 20
1.955043576500968
 30
0.0
  0
VERTEX
  5
258
  8
HASH
 10
14.25306649451259
 20
1.928825048418334
 30
0.0
  0
VERTEX
  5
259
  8
HASH
 10
14.45146868947708
 20
1.885127501613944
 30
0.0
  0
VERTEX
  5
25A
  8
HASH
 10
14.61491284699806
 20
1.823950936087798
 30
0.0
  0
VERTEX
  5
25B
  8
HASH
 10
14.61491284699806
 20
1.220464816010329
 30
0.0
  0
VERTEX
  5
25C
  8
HASH
 10
14.5244895900581
 20
1.277386620400258
 30
0.0
  0
VERTEX
  5
25D
  8
HASH
 10
14.42862330535829
 20
1.32671885087153
 30
0.0
  0
VERTEX
  5
25E
  8
HASH
 10
14.32731399289864
 20
1.368461507424144
 30
0.0
  0
VERTEX
  5
25F
  8
HASH
 10
14.22056165267914
 20
1.402614590058102
 30
0.0
  0
VERTEX
  5
260
  8
HASH
 10
14.1083662846998
 20
1.429178098773402
 30
0.0
  0
VERTEX
  5
261
  8
HASH
 10
13.99072788896062
 20
1.448152033570045
 30
0.0
  0
VERTEX
  5
262
  8
HASH
 10
13.86764646546159
 20
1.459536394448031
 30
0.0
  0
VERTEX
  5
263
  8
HASH
 10
13.73912201420271
 20
1.463331181407359
 30
0.0
  0
VERTEX
  5
264
  8
HASH
 10
13.5792043253712
 20
1.45489832149774
 30
0.0
  0
VERTEX
  5
265
  8
HASH
 10
13.43553905745642
 20
1.429599741768883
 30
0.0
  0
VERTEX
  5
266
  8
HASH
 10
13.30812621045836
 20
1.387435442220788
 30
0.0
  0
VERTEX
  5
267
  8
HASH
 10
13.19696578437701
 20
1.328405422853454
 30
0.0
  0
VERTEX
  5
268
  8
HASH
 10
13.1068108457069
 20
1.254656229825694
 30
0.0
  0
VERTEX
  5
269
  8
HASH
 10
13.04241446094254
 20
1.16833440929632
 30
0.0
  0
VERTEX
  5
26A
  8
HASH
 10
13.00377663008392
 20
1.069439961265332
 30
0.0
  0
VERTEX
  5
26B
  8
HASH
 10
12.99089735313105
 20
0.9579728857327305
 30
0.0
  0
VERTEX
  5
26C
  8
HASH
 10
13.00032682375726
 20
0.8560119431891541
 30
0.0
  0
VERTEX
  5
26D
  8
HASH
 10
13.02861523563589
 20
0.7635571336346028
 30
0.0
  0
VERTEX
  5
26E
  8
HASH
 10
13.07576258876694
 20
0.6806084570690768
 30
0.0
  0
VERTEX
  5
26F
  8
HASH
 10
13.14176888315042
 20
0.607165913492576
 30
0.0
  0
VERTEX
  5
270
  8
HASH
 10
13.23813347320852
 20
0.5326500968366689
 30
0.0
  0
VERTEX
  5
271
  8
HASH
 10
13.37635571336346
 20
0.4464816010329244
 30
0.0
  0
VERTEX
  5
272
  8
HASH
 10
13.55643560361523
 20
0.3486604260813427
 30
0.0
  0
VERTEX
  5
273
  8
HASH
 10
13.77837314396384
 20
0.2391865719819237
 30
0.0
  0
VERTEX
  5
274
  8
HASH
 10
14.03979180116204
 20
0.1066373466752742
 30
0.0
  0
VERTEX
  5
275
  8
HASH
 10
14.25735958683021
 20
-0.0260652033570047
 30
0.0
  0
VERTEX
  5
276
  8
HASH
 10
14.43107650096836
 20
-0.1589210781149129
 30
0.0
  0
VERTEX
  5
277
  8
HASH
 10
14.50149088121368
 20
-0.2254065122659781
 30
0.0
  0
VERTEX
  5
278
  8
HASH
 10
14.5609425435765
 20
-0.2919302775984507
 30
0.0
  0
VERTEX
  5
279
  8
HASH
 10
14.65539057456423
 20
-0.42999919302776
 30
0.0
  0
VERTEX
  5
27A
  8
HASH
 10
14.72285345384118
 20
-0.5780342156229826
 30
0.0
  0
VERTEX
  5
27B
  8
HASH
 10
14.76333118140736
 20
-0.7360353453841189
 30
0.0
  0
VERTEX
  5
27C
  8
HASH
 10
14.77682375726275
 20
-0.9040025823111685
 30
0.0
  0
VERTEX
  5
27D
  8
HASH
 10
14.77099741768883
 20
-1.029000564880568
 30
0.0
  0
VERTEX
  5
27E
  8
HASH
 10
14.75351839896707
 20
-1.14640897353131
 30
0.0
  0
VERTEX
  5
27F
  8
HASH
 10
14.72438670109748
 20
-1.256227808263396
 30
0.0
  0
VERTEX
  5
280
  8
HASH
 10
14.68360232408005
 20
-1.358457069076824
 30
0.0
  0
VERTEX
  5
281
  8
HASH
 10
14.63116526791478
 20
-1.453096755971595
 30
0.0
  0
VERTEX
  5
282
  8
HASH
 10
14.56707553260167
 20
-1.540146868947708
 30
0.0
  0
VERTEX
  5
283
  8
HASH
 10
14.49133311814073
 20
-1.619607408005165
 30
0.0
  0
VERTEX
  5
284
  8
HASH
 10
14.40393802453195
 20
-1.691478373143964
 30
0.0
  0
VERTEX
  5
285
  8
HASH
 10
14.30623184312459
 20
-1.755299790187217
 30
0.0
  0
VERTEX
  5
286
  8
HASH
 10
14.19955616526791
 20
-1.810611684958038
 30
0.0
  0
VERTEX
  5
287
  8
HASH
 10
14.08391099096191
 20
-1.857414057456424
 30
0.0
  0
VERTEX
  5
288
  8
HASH
 10
13.95929632020658
 20
-1.895706907682376
 30
0.0
  0
VERTEX
  5
289
  8
HASH
 10
13.82571215300193
 20
-1.925490235635894
 30
0.0
  0
VERTEX
  5
28A
  8
HASH
 10
13.68315848934796
 20
-1.946764041316979
 30
0.0
  0
VERTEX
  5
28B
  8
HASH
 10
13.53163532924467
 20
-1.959528324725629
 30
0.0
  0
VERTEX
  5
28C
  8
HASH
 10
13.37114267269206
 20
-1.963783085861846
 30
0.0
  0
VERTEX
  5
28D
  8
HASH
 10
13.11478373143963
 20
-1.94906391220142
 30
0.0
  0
VERTEX
  5
28E
  8
HASH
 10
12.83143963847643
 20
-1.904906391220142
 30
0.0
  0
VERTEX
  5
28F
  8
HASH
 10
12.69160748870238
 20
-1.873014848289219
 30
0.0
  0
VERTEX
  5
290
  8
HASH
 10
12.56894770819883
 20
-1.836216914138153
 30
0.0
  0
VERTEX
  5
291
  8
HASH
 10
12.46346029696578
 20
-1.794512588766946
 30
0.0
  0
VERTEX
  5
292
  8
HASH
 10
12.37514525500322
 20
-1.747901872175597
 30
0.0
  0
SEQEND
  5
336
  8
HASH
  0
POLYLINE
  5
7F
  8
HASH
 66
     1
 10
0.0
 20
0.0
 30
0.0
 70
     1
  0
VERTEX
  5
293
  8
HASH
 10
15.24293092317624
 20
-0.0478373143963848
 30
0.0
  0
VERTEX
  5
294
  8
HASH
 10
15.25080798095546
 20
0.1718578518398965
 30
0.0
  0
VERTEX
  5
295
  8
HASH
 10
15.27443915429309
 20
0.3807819561007099
 30
0.0
  0
VERTEX
  5
296
  8
HASH
 10
15.31382444318916
 20
0.5789349983860553
 30
0.0
  0
VERTEX
  5
297
  8
HASH
 10
15.36896384764364
 20
0.7663169786959326
 30
0.0
  0
VERTEX
  5
298
  8
HASH
 10
15.43985736765655
 20
0.9429278970303421
 30
0.0
  0
VERTEX
  5
299
  8
HASH
 10
15.52650500322789
 20
1.108767753389283
 30
0.0
  0
VERTEX
  5
29A
  8
HASH
 10
15.62890675435765
 20
1.263836547772756
 30
0.0
  0
VERTEX
  5
29B
  8
HASH
 10
15.74706262104584
 20
1.408134280180761
 30
0.0
  0
VERTEX
  5
29C
  8
HASH
 10
15.87859607004519
 20
1.538364469012266
 30
0.0
  0
VERTEX
  5
29D
  8
HASH
 10
16.02113056810846
 20
1.651230632666236
 30
0.0
  0
VERTEX
  5
29E
  8
HASH
 10
16.17466611523564
 20
1.746732771142672
 30
0.0
  0
VERTEX
  5
29F
  8
HASH
 10
16.33920271142673
 20
1.824870884441575
 30
0.0
  0
VERTEX
  5
2A0
  8
HASH
 10
16.51474035668173
 20
1.885644972562943
 30
0.0
  0
VERTEX
  5
2A1
  8
HASH
 10
16.70127905100064
 20
1.929055035506778
 30
0.0
  0
VERTEX
  5
2A2
  8
HASH
 10
16.89881879438347
 20
1.955101073273079
 30
0.0
  0
VERTEX
  5
2A3
  8
HASH
 10
17.10735958683021
 20
1.963783085861846
 30
0.0
  0
VERTEX
  5
2A4
  8
HASH
 10
17.30296360555197
 20
1.955350225952227
 30
0.0
  0
VERTEX
  5
2A5
  8
HASH
 10
17.48867817947063
 20
1.93005164622337
 30
0.0
  0
VERTEX
  5
2A6
  8
HASH
 10
17.66450330858619
 20
1.887887346675274
 30
0.0
  0
VERTEX
  5
2A7
  8
HASH
 10
17.83043899289865
 20
1.82885732730794
 30
0.0
  0
VERTEX
  5
2A8
  8
HASH
 10
17.986485232408
 20
1.752961588121368
 30
0.0
  0
VERTEX
  5
2A9
  8
HASH
 10
18.13264202711427
 20
1.660200129115558
 30
0.0
  0
VERTEX
  5
2AA
  8
HASH
 10
18.26890937701743
 20
1.550572950290509
 30
0.0
  0
VERTEX
  5
2AB
  8
HASH
 10
18.3952872821175
 20
1.424080051646223
 30
0.0
  0
VERTEX
  5
2AC
  8
HASH
 10
18.50913089089735
 20
1.284401226597805
 30
0.0
  0
VERTEX
  5
2AD
  8
HASH
 10
18.6077953518399
 20
1.135216268560361
 30
0.0
  0
VERTEX
  5
2AE
  8
HASH
 10
18.69128066494513
 20
0.9765251775338925
 30
0.0
  0
VERTEX
  5
2AF
  8
HASH
 10
18.75958683021304
 20
0.8083279535183986
 30
0.0
  0
VERTEX
  5
2B0
  8
HASH
 10
18.81271384764364
 20
0.6306245965138796
 30
0.0
  0
VERTEX
  5
2B1
  8
HASH
 10
18.85066171723693
 20
0.4434151065203354
 30
0.0
  0
VERTEX
  5
2B2
  8
HASH
 10
18.8734304389929
 20
0.2466994835377661
 30
0.0
  0
VERTEX
  5
2B3
  8
HASH
 10
18.88102001291156
 20
0.0404777275661716
 30
0.0
  0
VERTEX
  5
2B4
  8
HASH
 10
18.87327711426727
 20
-0.1780483376371854
 30
0.0
  0
VERTEX
  5
2B5
  8
HASH
 10
18.85004841833441
 20
-0.3859183344092964
 30
0.0
  0
VERTEX
  5
2B6
  8
HASH
 10
18.81133392511298
 20
-0.5831322627501614
 30
0.0
  0
VERTEX
  5
2B7
  8
HASH
 10
18.75713363460297
 20
-0.7696901226597805
 30
0.0
  0
VERTEX
  5
2B8
  8
HASH
 10
18.68744754680439
 20
-0.9455919141381537
 30
0.0
  0
VERTEX
  5
2B9
  8
HASH
 10
18.60227566171724
 20
-1.110837637185281
 30
0.0
  0
VERTEX
  5
2BA
  8
HASH
 10
18.50161797934151
 20
-1.265427291801162
 30
0.0
  0
VERTEX
  5
2BB
  8
HASH
 10
18.38547449967721
 20
-1.409360877985797
 30
0.0
  0
VERTEX
  5
2BC
  8
HASH
 10
18.25614509360878
 20
-1.539303582956746
 30
0.0
  0
VERTEX
  5
2BD
  8
HASH
 10
18.11592963202066
 20
-1.651920593931569
 30
0.0
  0
VERTEX
  5
2BE
  8
HASH
 10
17.96482811491285
 20
-1.747211910910265
 30
0.0
  0
VERTEX
  5
2BF
  8
HASH
 10
17.80284054228535
 20
-1.825177533892834
 30
0.0
  0
VERTEX
  5
2C0
  8
HASH
 10
17.62996691413815
 20
-1.885817462879277
 30
0.0
  0
VERTEX
  5
2C1
  8
HASH
 10
17.44620723047127
 20
-1.929131697869593
 30
0.0
  0
VERTEX
  5
2C2
  8
HASH
 10
17.2515614912847
 20
-1.955120238863783
 30
0.0
  0
VERTEX
  5
2C3
  8
HASH
 10
17.04602969657844
 20
-1.963783085861846
 30
0.0
  0
VERTEX
  5
2C4
  8
HASH
 10
16.84963988863784
 20
-1.955426888315042
 30
0.0
  0
VERTEX
  5
2C5
  8
HASH
 10
16.66279454486766
 20
-1.930358295674629
 30
0.0
  0
VERTEX
  5
2C6
  8
HASH
 10
16.48549366526792
 20
-1.888577307940607
 30
0.0
  0
VERTEX
  5
2C7
  8
HASH
 10
16.31773724983861
 20
-1.830083925112976
 30
0.0
  0
VERTEX
  5
2C8
  8
HASH
 10
16.15952529857973
 20
-1.754878147191737
 30
0.0
  0
VERTEX
  5
2C9
  8
HASH
 10
16.01085781149129
 20
-1.662959974176888
 30
0.0
  0
VERTEX
  5
2CA
  8
HASH
 10
15.87173478857328
 20
-1.554329406068431
 30
0.0
  0
VERTEX
  5
2CB
  8
HASH
 10
15.7421562298257
 20
-1.428986442866365
 30
0.0
  0
VERTEX
  5
2CC
  8
HASH
 10
15.62515029857973
 20
-1.29041922207876
 30
0.0
  0
VERTEX
  5
2CD
  8
HASH
 10
15.52374515816656
 20
-1.142115881213686
 30
0.0
  0
VERTEX
  5
2CE
  8
HASH
 10
15.43794080858619
 20
-0.9840764202711426
 30
0.0
  0
VERTEX
  5
2CF
  8
HASH
 10
15.36773724983861
 20
-0.8163008392511297
 30
0.0
  0
VERTEX
  5
2D0
  8
HASH
 10
15.31313448192382
 20
-0.6387891381536475
 30
0.0
  0
VERTEX
  5
2D1
  8
HASH
 10
15.27413250484183
 20
-0.4515413169786959
 30
0.0
  0
VERTEX
  5
2D2
  8
HASH
 10
15.25073131859264
 20
-0.254557375726275
 30
0.0
  0
SEQEND
  5
337
  8
HASH
  0
POLYLINE
  5
80
  8
HASH
 66
     1
 10
0.0
 20
0.0
 30
0.0
 70
     1
  0
VERTEX
  5
2D3
  8
HASH
 10
15.86113621691414
 20
-0.0061329890251778
 30
0.0
  0
VERTEX
  5
2D4
  8
HASH
 10
15.86615760167851
 20
-0.1596685361523565
 30
0.0
  0
VERTEX
  5
2D5
  8
HASH
 10
15.8812217559716
 20
-0.3062661394448032
 30
0.0
  0
VERTEX
  5
2D6
  8
HASH
 10
15.90632867979342
 20
-0.4459257989025178
 30
0.0
  0
VERTEX
  5
2D7
  8
HASH
 10
15.94147837314397
 20
-0.5786475145255003
 30
0.0
  0
VERTEX
  5
2D8
  8
HASH
 10
15.98667083602324
 20
-0.7044312863137508
 30
0.0
  0
VERTEX
  5
2D9
  8
HASH
 10
16.04190606843125
 20
-0.8232771142672692
 30
0.0
  0
VERTEX
  5
2DA
  8
HASH
 10
16.10718407036798
 20
-0.9351849983860556
 30
0.0
  0
VERTEX
  5
2DB
  8
HASH
 10
16.18250484183344
 20
-1.04015493867011
 30
0.0
  0
VERTEX
  5
2DC
  8
HASH
 10
16.26637346675275
 20
-1.13531209651388
 30
0.0
  0
VERTEX
  5
2DD
  8
HASH
 10
16.357295029051
 20
-1.217781633311814
 30
0.0
  0
VERTEX
  5
2DE
  8
HASH
 10
16.45526952872821
 20
-1.287563549063912
 30
0.0
  0
VERTEX
  5
2DF
  8
HASH
 10
16.56029696578438
 20
-1.344657843770174
 30
0.0
  0
VERTEX
  5
2E0
  8
HASH
 10
16.6723773402195
 20
-1.3890645174306
 30
0.0
  0
VERTEX
  5
2E1
  8
HASH
 10
16.79151065203357
 20
-1.420783570045191
 30
0.0
  0
VERTEX
  5
2E2
  8
HASH
 10
16.9176969012266
 20
-1.439815001613944
 30
0.0
  0
VERTEX
  5
2E3
  8
HASH
 10
17.05093608779858
 20
-1.446158812136862
 30
0.0
  0
VERTEX
  5
2E4
  8
HASH
 10
17.19046158812137
 20
-1.440121651065204
 30
0.0
  0
VERTEX
  5
2E5
  8
HASH
 10
17.32201420271143
 20
-1.422010167850226
 30
0.0
  0
VERTEX
  5
2E6
  8
HASH
 10
17.44559393156875
 20
-1.39182436249193
 30
0.0
  0
VERTEX
  5
2E7
  8
HASH
 10
17.56120077469335
 20
-1.349564234990316
 30
0.0
  0
VERTEX
  5
2E8
  8
HASH
 10
17.66883473208522
 20
-1.295229785345384
 30
0.0
  0
VERTEX
  5
2E9
  8
HASH
 10
17.76849580374435
 20
-1.228821013557134
 30
0.0
  0
VERTEX
  5
2EA
  8
HASH
 10
17.86018398967076
 20
-1.150337919625565
 30
0.0
  0
VERTEX
  5
2EB
  8
HASH
 10
17.94389928986443
 20
-1.059780503550678
 30
0.0
  0
VERTEX
  5
2EC
  8
HASH
 10
18.01864509360878
 20
-0.9589503308586186
 30
0.0
  0
VERTEX
  5
2ED
  8
HASH
 10
18.08342479018722
 20
-0.8496489670755327
 30
0.0
  0
VERTEX
  5
2EE
  8
HASH
 10
18.13823837959974
 20
-0.7318764122014204
 30
0.0
  0
VERTEX
  5
2EF
  8
HASH
 10
18.18308586184635
 20
-0.6056326662362816
 30
0.0
  0
VERTEX
  5
2F0
  8
HASH
 10
18.21796723692705
 20
-0.4709177291801163
 30
0.0
  0
VERTEX
  5
2F1
  8
HASH
 10
18.24288250484183
 20
-0.3277316010329245
 30
0.0
  0
VERTEX
  5
2F2
  8
HASH
 10
18.2578316655907
 20
-0.1760742817947063
 30
0.0
  0
VERTEX
  5
2F3
  8
HASH
 10
18.26281471917366
 20
-0.0159457714654616
 30
0.0
  0
VERTEX
  5
2F4
  8
HASH
 10
18.25800415590704
 20
0.1477283731439638
 30
0.0
  0
VERTEX
  5
2F5
  8
HASH
 10
18.24357246610717
 20
0.3026630083925112
 30
0.0
  0
VERTEX
  5
2F6
  8
HASH
 10
18.21951964977405
 20
0.4488581342801806
 30
0.0
  0
VERTEX
  5
2F7
  8
HASH
 10
18.18584570690768
 20
0.586313750806972
 30
0.0
  0
VERTEX
  5
2F8
  8
HASH
 10
18.14255063750807
 20
0.7150298579728854
 30
0.0
  0
VERTEX
  5
2F9
  8
HASH
 10
18.08963444157521
 20
0.8350064557779209
 30
0.0
  0
VERTEX
  5
2FA
  8
HASH
 10
18.02709711910911
 20
0.9462435442220785
 30
0.0
  0
VERTEX
  5
2FB
  8
HASH
 10
17.95493867010975
 20
1.048741123305358
 30
0.0
  0
VERTEX
  5
2FC
  8
HASH
 10
17.87388738702389
 20
1.140735958683021
 30
0.0
  0
VERTEX
  5
2FD
  8
HASH
 10
17.78467156229826
 20
1.220464816010329
 30
0.0
  0
VERTEX
  5
2FE
  8
HASH
 10
17.68729119593286
 20
1.287927695287282
 30
0.0
  0
VERTEX
  5
2FF
  8
HASH
 10
17.5817462879277
 20
1.34312459651388
 30
0.0
  0
VERTEX
  5
300
  8
HASH
 10
17.46803683828277
 20
1.386055519690122
 30
0.0
  0
VERTEX
  5
301
  8
HASH
 10
17.34616284699806
 20
1.41672046481601
 30
0.0
  0
VERTEX
  5
302
  8
HASH
 10
17.2161243140736
 20
1.435119431891543
 30
0.0
  0
VERTEX
  5
303
  8
HASH
 10
17.07792123950936
 20
1.44125242091672
 30
0.0
  0
VERTEX
  5
304
  8
HASH
 10
16.94280382504842
 20
1.434889444803098
 30
0.0
  0
VERTEX
  5
305
  8
HASH
 10
16.81466268560362
 20
1.415800516462233
 30
0.0
  0
VERTEX
  5
306
  8
HASH
 10
16.69349782117495
 20
1.383985635894125
 30
0.0
  0
VERTEX
  5
307
  8
HASH
 10
16.57930923176243
 20
1.339444803098773
 30
0.0
  0
VERTEX
  5
308
  8
HASH
 10
16.47209691736604
 20
1.282178018076178
 30
0.0
  0
VERTEX
  5
309
  8
HASH
 10
16.3718608779858
 20
1.212185280826339
 30
0.0
  0
VERTEX
  5
30A
  8
HASH
 10
16.2786011136217
 20
1.129466591349257
 30
0.0
  0
VERTEX
  5
30B
  8
HASH
 10
16.19231762427373
 20
1.034021949644932
 30
0.0
  0
VERTEX
  5
30C
  8
HASH
 10
16.11469698192382
 20
0.928687863137508
 30
0.0
  0
VERTEX
  5
30D
  8
HASH
 10
16.04742575855391
 20
0.8163008392511296
 30
0.0
  0
VERTEX
  5
30E
  8
HASH
 10
15.99050395416398
 20
0.6968608779857972
 30
0.0
  0
VERTEX
  5
30F
  8
HASH
 10
15.94393156875404
 20
0.5703679793415105
 30
0.0
  0
VERTEX
  5
310
  8
HASH
 10
15.90770860232408
 20
0.4368221433182697
 30
0.0
  0
VERTEX
  5
311
  8
HASH
 10
15.88183505487411
 20
0.2962233699160747
 30
0.0
  0
VERTEX
  5
312
  8
HASH
 10
15.86631092640413
 20
0.1485716591349255
 30
0.0
  0
SEQEND
  5
338
  8
HASH
  0
POLYLINE
  5
81
  8
HASH
 66
     1
 10
0.0
 20
0.0
 30
0.0
 70
     1
  0
VERTEX
  5
313
  8
HASH
 10
22.77424144609426
 20
-1.9
 30
0.0
  0
VERTEX
  5
314
  8
HASH
 10
22.11678502259523
 20
-1.9
 30
0.0
  0
VERTEX
  5
315
  8
HASH
 10
20.29896707553261
 20
0.9015493867010975
 30
0.0
  0
VERTEX
  5
316
  8
HASH
 10
20.21187863137509
 20
1.045674628792769
 30
0.0
  0
VERTEX
  5
317
  8
HASH
 10
20.15177533892835
 20
1.168947708198838
 30
0.0
  0
VERTEX
  5
318
  8
HASH
 10
20.13705616526792
 20
1.168947708198838
 30
0.0
  0
VERTEX
  5
319
  8
HASH
 10
20.1536152356359
 20
0.9567462879276951
 30
0.0
  0
VERTEX
  5
31A
  8
HASH
 10
20.15913492575856
 20
0.6145255003227885
 30
0.0
  0
VERTEX
  5
31B
  8
HASH
 10
20.15913492575856
 20
-1.9
 30
0.0
  0
VERTEX
  5
31C
  8
HASH
 10
19.58754034861201
 20
-1.9
 30
0.0
  0
VERTEX
  5
31D
  8
HASH
 10
19.58754034861201
 20
1.899999999999999
 30
0.0
  0
VERTEX
  5
31E
  8
HASH
 10
20.28424790187218
 20
1.899999999999999
 30
0.0
  0
VERTEX
  5
31F
  8
HASH
 10
22.04809554551324
 20
-0.8475790832795354
 30
0.0
  0
VERTEX
  5
320
  8
HASH
 10
22.21491284699806
 20
-1.119883795997418
 30
0.0
  0
VERTEX
  5
321
  8
HASH
 10
22.22717882504842
 20
-1.119883795997418
 30
0.0
  0
VERTEX
  5
322
  8
HASH
 10
22.20693996126533
 20
-0.8954163976759199
 30
0.0
  0
VERTEX
  5
323
  8
HASH
 10
22.20019367333764
 20
-0.5752743705616528
 30
0.0
  0
VERTEX
  5
324
  8
HASH
 10
22.20019367333764
 20
1.899999999999999
 30
0.0
  0
VERTEX
  5
325
  8
HASH
 10
22.77424144609426
 20
1.899999999999999
 30
0.0
  0
SEQEND
  5
339
  8
HASH
  0
ENDSEC
  0
EOF
