  0
SECTION
  2
HEADER
  9
$ACADVER
  1
AC1009
  9
$DWGCODEPAGE
  3
ansi_1252
  9
$INSBASE
 10
0.0
 20
0.0
 30
0.0
  9
$EXTMIN
 10
-24.73665082935735
 20
-93.3090693183306
 30
0.0
  9
$EXTMAX
 10
23.34048182682757
 20
-87.32600902735278
 30
0.0
  9
$LIMMIN
 10
0.0
 20
0.0
  9
$LIMMAX
 10
12.0
 20
9.0
  9
$ORTHOMODE
 70
     0
  9
$REGENMODE
 70
     1
  9
$FILLMODE
 70
     1
  9
$QTEXTMODE
 70
     0
  9
$MIRRTEXT
 70
     1
  9
$DRAGMODE
 70
     2
  9
$LTSCALE
 40
1.0
  9
$OSMODE
 70
    37
  9
$ATTMODE
 70
     1
  9
$TEXTSIZE
 40
0.2
  9
$TRACEWID
 40
0.05
  9
$TEXTSTYLE
  7
STANDARD
  9
$CLAYER
  8
0
  9
$CELTYPE
  6
BYLAYER
  9
$CECOLOR
 62
   256
  9
$DIMSCALE
 40
1.0
  9
$DIMASZ
 40
0.18
  9
$DIMEXO
 40
0.0625
  9
$DIMDLI
 40
0.38
  9
$DIMRND
 40
0.0
  9
$DIMDLE
 40
0.0
  9
$DIMEXE
 40
0.18
  9
$DIMTP
 40
0.0
  9
$DIMTM
 40
0.0
  9
$DIMTXT
 40
0.18
  9
$DIMCEN
 40
0.09
  9
$DIMTSZ
 40
0.0
  9
$DIMTOL
 70
     0
  9
$DIMLIM
 70
     0
  9
$DIMTIH
 70
     1
  9
$DIMTOH
 70
     1
  9
$DIMSE1
 70
     0
  9
$DIMSE2
 70
     0
  9
$DIMTAD
 70
     0
  9
$DIMZIN
 70
     0
  9
$DIMBLK
  1

  9
$DIMASO
 70
     1
  9
$DIMSHO
 70
     1
  9
$DIMPOST
  1

  9
$DIMAPOST
  1

  9
$DIMALT
 70
     0
  9
$DIMALTD
 70
     2
  9
$DIMALTF
 40
25.4
  9
$DIMLFAC
 40
1.0
  9
$DIMTOFL
 70
     0
  9
$DIMTVP
 40
0.0
  9
$DIMTIX
 70
     0
  9
$DIMSOXD
 70
     0
  9
$DIMSAH
 70
     0
  9
$DIMBLK1
  1

  9
$DIMBLK2
  1

  9
$DIMSTYLE
  2
STANDARD
  9
$DIMCLRD
 70
     0
  9
$DIMCLRE
 70
     0
  9
$DIMCLRT
 70
     0
  9
$DIMTFAC
 40
1.0
  9
$DIMGAP
 40
0.09
  9
$LUNITS
 70
     2
  9
$LUPREC
 70
     4
  9
$SKETCHINC
 40
0.1
  9
$FILLETRAD
 40
0.5
  9
$AUNITS
 70
     0
  9
$AUPREC
 70
     0
  9
$MENU
  1
.
  9
$ELEVATION
 40
0.0
  9
$PELEVATION
 40
0.0
  9
$THICKNESS
 40
0.0
  9
$LIMCHECK
 70
     0
  9
$CHAMFERA
 40
0.0
  9
$CHAMFERB
 40
0.0
  9
$SKPOLY
 70
     0
  9
$TDCREATE
 40
2454910.5
  9
$TDUPDATE
 40
2459062.462437002
  9
$TDINDWG
 40
0.0000000116
  9
$TDUSRTIMER
 40
0.0000000116
  9
$USRTIMER
 70
     1
  9
$ANGBASE
 50
0.0
  9
$ANGDIR
 70
     0
  9
$PDMODE
 70
     0
  9
$PDSIZE
 40
0.0
  9
$PLINEWID
 40
0.0
  9
$COORDS
 70
     1
  9
$SPLFRAME
 70
     0
  9
$SPLINETYPE
 70
     6
  9
$SPLINESEGS
 70
     8
  9
$ATTDIA
 70
     0
  9
$ATTREQ
 70
     1
  9
$HANDLING
 70
     1
  9
$HANDSEED
  5
37F
  9
$SURFTAB1
 70
     6
  9
$SURFTAB2
 70
     6
  9
$SURFTYPE
 70
     6
  9
$SURFU
 70
     6
  9
$SURFV
 70
     6
  9
$UCSNAME
  2

  9
$UCSORG
 10
0.0
 20
0.0
 30
0.0
  9
$UCSXDIR
 10
1.0
 20
0.0
 30
0.0
  9
$UCSYDIR
 10
0.0
 20
1.0
 30
0.0
  9
$PUCSNAME
  2

  9
$PUCSORG
 10
0.0
 20
0.0
 30
0.0
  9
$PUCSXDIR
 10
1.0
 20
0.0
 30
0.0
  9
$PUCSYDIR
 10
0.0
 20
1.0
 30
0.0
  9
$USERI1
 70
     0
  9
$USERI2
 70
     0
  9
$USERI3
 70
     0
  9
$USERI4
 70
     0
  9
$USERI5
 70
     0
  9
$USERR1
 40
0.0
  9
$USERR2
 40
0.0
  9
$USERR3
 40
0.0
  9
$USERR4
 40
0.0
  9
$USERR5
 40
0.0
  9
$WORLDVIEW
 70
     1
  9
$SHADEDGE
 70
     3
  9
$SHADEDIF
 70
    70
  9
$TILEMODE
 70
     1
  9
$MAXACTVP
 70
    64
  9
$PLIMCHECK
 70
     0
  9
$PEXTMIN
 10
1.000000000000000E+20
 20
1.000000000000000E+20
 30
1.000000000000000E+20
  9
$PEXTMAX
 10
-1.000000000000000E+20
 20
-1.000000000000000E+20
 30
-1.000000000000000E+20
  9
$PLIMMIN
 10
0.0
 20
0.0
  9
$PLIMMAX
 10
12.0
 20
9.0
  9
$UNITMODE
 70
     0
  9
$VISRETAIN
 70
     1
  9
$PLINEGEN
 70
     0
  9
$PSLTSCALE
 70
     1
  0
ENDSEC
  0
SECTION
  2
TABLES
  0
TABLE
  2
VPORT
 70
     1
  0
VPORT
  2
*ACTIVE
 70
     0
 10
0.0
 20
0.0
 11
1.0
 21
1.0
 12
10.42990654205607
 22
4.5
 13
0.0
 23
0.0
 14
0.5
 24
0.5
 15
0.5
 25
0.5
 16
0.0
 26
0.0
 36
1.0
 17
0.0
 27
0.0
 37
0.0
 40
9.0
 41
1.972972972850329
 42
50.0
 43
0.0
 44
0.0
 50
0.0
 51
0.0
 71
     0
 72
   100
 73
     1
 74
     3
 75
     0
 76
     0
 77
     0
 78
     0
  0
ENDTAB
  0
TABLE
  2
LTYPE
 70
     2
  0
LTYPE
  2
CONTINUOUS
 70
     0
  3
Solid line
 72
    65
 73
     0
 40
0.0
  0
LTYPE
  2
CONTINUOUS2
 70
     0
  3
Solid Line
 72
    65
 73
     0
 40
0.0
  0
ENDTAB
  0
TABLE
  2
LAYER
 70
     2
  0
LAYER
  2
0
 70
     0
 62
     7
  6
CONTINUOUS
  0
LAYER
  2
HASH
 70
     0
 62
    18
  6
CONTINUOUS
  0
ENDTAB
  0
TABLE
  2
STYLE
 70
     1
  0
STYLE
  2
STANDARD
 70
     0
 40
0.0
 41
1.0
 50
0.0
 71
     0
 42
0.2
  3
txt
  4

  0
ENDTAB
  0
TABLE
  2
VIEW
 70
     0
  0
ENDTAB
  0
TABLE
  2
UCS
 70
     0
  0
ENDTAB
  0
TABLE
  2
APPID
 70
     1
  0
APPID
  2
ACAD
 70
     0
  0
ENDTAB
  0
TABLE
  2
DIMSTYLE
 70
     1
  0
DIMSTYLE
  2
STANDARD
 70
     0
  3

  4

  5

  6

  7

 40
1.0
 41
0.18
 42
0.0625
 43
0.38
 44
0.18
 45
0.0
 46
0.0
 47
0.0
 48
0.0
140
0.18
141
0.09
142
0.0
143
25.4
144
1.0
145
0.0
146
1.0
147
0.09
 71
     0
 72
     0
 73
     1
 74
     1
 75
     0
 76
     0
 77
     0
 78
     0
170
     0
171
     2
172
     0
173
     0
174
     0
175
     0
176
     0
177
     0
178
     0
  0
ENDTAB
  0
ENDSEC
  0
SECTION
  2
BLOCKS
  0
BLOCK
  8
0
  2
$MODEL_SPACE
 70
     0
 10
0.0
 20
0.0
 30
0.0
  3
$MODEL_SPACE
  1

  0
ENDBLK
  5
21
  8
0
  0
BLOCK
 67
     1
  8
0
  2
$PAPER_SPACE
 70
     0
 10
0.0
 20
0.0
 30
0.0
  3
$PAPER_SPACE
  1

  0
ENDBLK
  5
1D
 67
     1
  8
0
  0
ENDSEC
  0
SECTION
  2
ENTITIES
  0
POLYLINE
  5
70
  8
HASH
 66
     1
 10
0.0
 20
0.0
 30
0.0
 70
     1
  0
VERTEX
  5
89
  8
HASH
 10
-22.23776064562117
 20
-91.08070474060979
 30
0.0
  0
VERTEX
  5
8A
  8
HASH
 10
-21.51333490548754
 20
-91.43960947790642
 30
0.0
  0
VERTEX
  5
8B
  8
HASH
 10
-21.55843403624989
 20
-91.66863926090141
 30
0.0
  0
VERTEX
  5
8C
  8
HASH
 10
-21.61043508907906
 20
-91.88244763762715
 30
0.0
  0
VERTEX
  5
8D
  8
HASH
 10
-21.66933806397505
 20
-92.0810346080836
 30
0.0
  0
VERTEX
  5
8E
  8
HASH
 10
-21.73514296093786
 20
-92.26440017227078
 30
0.0
  0
VERTEX
  5
8F
  8
HASH
 10
-21.8078497799675
 20
-92.43254433018869
 30
0.0
  0
VERTEX
  5
90
  8
HASH
 10
-21.88745852106396
 20
-92.58546708183731
 30
0.0
  0
VERTEX
  5
91
  8
HASH
 10
-21.97396918422724
 20
-92.72316842721665
 30
0.0
  0
VERTEX
  5
92
  8
HASH
 10
-22.06738176945733
 20
-92.84564836632671
 30
0.0
  0
VERTEX
  5
93
  8
HASH
 10
-22.16749907898092
 20
-92.95333827505368
 30
0.0
  0
VERTEX
  5
94
  8
HASH
 10
-22.27412391502465
 20
-93.04666952928372
 30
0.0
  0
VERTEX
  5
95
  8
HASH
 10
-22.38725627758852
 20
-93.12564212901684
 30
0.0
  0
VERTEX
  5
96
  8
HASH
 10
-22.50689616667255
 20
-93.19025607425301
 30
0.0
  0
VERTEX
  5
97
  8
HASH
 10
-22.63304358227672
 20
-93.24051136499227
 30
0.0
  0
VERTEX
  5
98
  8
HASH
 10
-22.76569852440104
 20
-93.27640800123459
 30
0.0
  0
VERTEX
  5
99
  8
HASH
 10
-22.9048609930455
 20
-93.29794598298
 30
0.0
  0
VERTEX
  5
9A
  8
HASH
 10
-23.05053098821011
 20
-93.30512531022845
 30
0.0
  0
VERTEX
  5
9B
  8
HASH
 10
-23.23069087393149
 20
-93.2928310974725
 30
0.0
  0
VERTEX
  5
9C
  8
HASH
 10
-23.40264733228202
 20
-93.25594845920463
 30
0.0
  0
VERTEX
  5
9D
  8
HASH
 10
-23.5664003632617
 20
-93.19447739542487
 30
0.0
  0
VERTEX
  5
9E
  8
HASH
 10
-23.72194996687053
 20
-93.10841790613318
 30
0.0
  0
VERTEX
  5
9F
  8
HASH
 10
-23.86929614310851
 20
-92.9977699913296
 30
0.0
  0
VERTEX
  5
A0
  8
HASH
 10
-24.00843889197564
 20
-92.8625336510141
 30
0.0
  0
VERTEX
  5
A1
  8
HASH
 10
-24.13937821347192
 20
-92.7027088851867
 30
0.0
  0
VERTEX
  5
A2
  8
HASH
 10
-24.26211410759734
 20
-92.51829569384738
 30
0.0
  0
VERTEX
  5
A3
  8
HASH
 10
-24.37333365175984
 20
-92.31256020870576
 30
0.0
  0
VERTEX
  5
A4
  8
HASH
 10
-24.46972392336735
 20
-92.08876856147144
 30
0.0
  0
VERTEX
  5
A5
  8
HASH
 10
-24.55128492241985
 20
-91.84692075214441
 30
0.0
  0
VERTEX
  5
A6
  8
HASH
 10
-24.61801664891735
 20
-91.58701678072468
 30
0.0
  0
VERTEX
  5
A7
  8
HASH
 10
-24.66991910285984
 20
-91.30905664721224
 30
0.0
  0
VERTEX
  5
A8
  8
HASH
 10
-24.70699228424735
 20
-91.0130403516071
 30
0.0
  0
VERTEX
  5
A9
  8
HASH
 10
-24.72923619307985
 20
-90.69896789390926
 30
0.0
  0
VERTEX
  5
AA
  8
HASH
 10
-24.73665082935735
 20
-90.3668392741187
 30
0.0
  0
VERTEX
  5
AB
  8
HASH
 10
-24.72919675352518
 20
-90.01603824096948
 30
0.0
  0
VERTEX
  5
AC
  8
HASH
 10
-24.70683452602868
 20
-89.68538862421724
 30
0.0
  0
VERTEX
  5
AD
  8
HASH
 10
-24.66956414686784
 20
-89.37489042386198
 30
0.0
  0
VERTEX
  5
AE
  8
HASH
 10
-24.61738561604266
 20
-89.0845436399037
 30
0.0
  0
VERTEX
  5
AF
  8
HASH
 10
-24.55029893355316
 20
-88.81434827234239
 30
0.0
  0
VERTEX
  5
B0
  8
HASH
 10
-24.46830409939931
 20
-88.56430432117804
 30
0.0
  0
VERTEX
  5
B1
  8
HASH
 10
-24.37140111358114
 20
-88.3344117864107
 30
0.0
  0
VERTEX
  5
B2
  8
HASH
 10
-24.25958997609862
 20
-88.12467066804032
 30
0.0
  0
VERTEX
  5
B3
  8
HASH
 10
-24.1356314557785
 20
-87.93748434600418
 30
0.0
  0
VERTEX
  5
B4
  8
HASH
 10
-24.00228632144751
 20
-87.77525620023953
 30
0.0
  0
VERTEX
  5
B5
  8
HASH
 10
-23.85955457310563
 20
-87.63798623074635
 30
0.0
  0
VERTEX
  5
B6
  8
HASH
 10
-23.70743621075287
 20
-87.52567443752466
 30
0.0
  0
VERTEX
  5
B7
  8
HASH
 10
-23.54593123438924
 20
-87.43832082057446
 30
0.0
  0
VERTEX
  5
B8
  8
HASH
 10
-23.37503964401473
 20
-87.37592537989575
 30
0.0
  0
VERTEX
  5
B9
  8
HASH
 10
-23.19476143962935
 20
-87.33848811548853
 30
0.0
  0
VERTEX
  5
BA
  8
HASH
 10
-23.00509662123308
 20
-87.32600902735278
 30
0.0
  0
VERTEX
  5
BB
  8
HASH
 10
-22.83933217296536
 20
-87.3358074224816
 30
0.0
  0
VERTEX
  5
BC
  8
HASH
 10
-22.68153451474048
 20
-87.36520260786801
 30
0.0
  0
VERTEX
  5
BD
  8
HASH
 10
-22.53170364655844
 20
-87.41419458351204
 30
0.0
  0
VERTEX
  5
BE
  8
HASH
 10
-22.38983956841925
 20
-87.48278334941368
 30
0.0
  0
VERTEX
  5
BF
  8
HASH
 10
-22.25594228032291
 20
-87.57096890557294
 30
0.0
  0
VERTEX
  5
C0
  8
HASH
 10
-22.13001178226941
 20
-87.67875125198978
 30
0.0
  0
VERTEX
  5
C1
  8
HASH
 10
-22.01204807425876
 20
-87.80613038866426
 30
0.0
  0
VERTEX
  5
C2
  8
HASH
 10
-21.90205115629095
 20
-87.95310631559634
 30
0.0
  0
VERTEX
  5
C3
  8
HASH
 10
-21.84091984655625
 20
-88.05084376637801
 30
0.0
  0
VERTEX
  5
C4
  8
HASH
 10
-21.78373249228829
 20
-88.15868773792147
 30
0.0
  0
VERTEX
  5
C5
  8
HASH
 10
-21.73048909348709
 20
-88.27663823022671
 30
0.0
  0
VERTEX
  5
C6
  8
HASH
 10
-21.68118965015265
 20
-88.40469524329374
 30
0.0
  0
VERTEX
  5
C7
  8
HASH
 10
-21.59442262988403
 20
-88.69112883171316
 30
0.0
  0
VERTEX
  5
C8
  8
HASH
 10
-21.52343143148244
 20
-89.01798850317974
 30
0.0
  0
VERTEX
  5
C9
  8
HASH
 10
-22.2630019606084
 20
-89.29406907033099
 30
0.0
  0
VERTEX
  5
CA
  8
HASH
 10
-22.30472900944667
 20
-89.0810926328143
 30
0.0
  0
VERTEX
  5
CB
  8
HASH
 10
-22.36428273699467
 20
-88.89178024391057
 30
0.0
  0
VERTEX
  5
CC
  8
HASH
 10
-22.44166314325242
 20
-88.72613190361983
 30
0.0
  0
VERTEX
  5
CD
  8
HASH
 10
-22.53687022821989
 20
-88.58414761194206
 30
0.0
  0
VERTEX
  5
CE
  8
HASH
 10
-22.59033054457176
 20
-88.52313873661174
 30
0.0
  0
VERTEX
  5
CF
  8
HASH
 10
-22.64659106930502
 20
-88.47026437799215
 30
0.0
  0
VERTEX
  5
D0
  8
HASH
 10
-22.70565180241969
 20
-88.42552453608327
 30
0.0
  0
VERTEX
  5
D1
  8
HASH
 10
-22.76751274391574
 20
-88.38891921088509
 30
0.0
  0
VERTEX
  5
D2
  8
HASH
 10
-22.8321738937932
 20
-88.36044840239762
 30
0.0
  0
VERTEX
  5
D3
  8
HASH
 10
-22.89963525205204
 20
-88.34011211062085
 30
0.0
  0
VERTEX
  5
D4
  8
HASH
 10
-22.96989681869229
 20
-88.3279103355548
 30
0.0
  0
VERTEX
  5
D5
  8
HASH
 10
-23.04295859371393
 20
-88.32384307719944
 30
0.0
  0
VERTEX
  5
D6
  8
HASH
 10
-23.14339141967486
 20
-88.3310532170112
 30
0.0
  0
VERTEX
  5
D7
  8
HASH
 10
-23.23897318041167
 20
-88.35268363644649
 30
0.0
  0
VERTEX
  5
D8
  8
HASH
 10
-23.32970387592438
 20
-88.38873433550529
 30
0.0
  0
VERTEX
  5
D9
  8
HASH
 10
-23.41558350621298
 20
-88.43920531418763
 30
0.0
  0
VERTEX
  5
DA
  8
HASH
 10
-23.49661207127747
 20
-88.5040965724935
 30
0.0
  0
VERTEX
  5
DB
  8
HASH
 10
-23.57278957111784
 20
-88.5834081104229
 30
0.0
  0
VERTEX
  5
DC
  8
HASH
 10
-23.64411600573412
 20
-88.6771399279758
 30
0.0
  0
VERTEX
  5
DD
  8
HASH
 10
-23.71059137512628
 20
-88.78529202515224
 30
0.0
  0
VERTEX
  5
DE
  8
HASH
 10
-23.77063809710763
 20
-88.90958990549692
 30
0.0
  0
VERTEX
  5
DF
  8
HASH
 10
-23.82267858949146
 20
-89.05175907255449
 30
0.0
  0
VERTEX
  5
E0
  8
HASH
 10
-23.86671285227779
 20
-89.21179952632498
 30
0.0
  0
VERTEX
  5
E1
  8
HASH
 10
-23.9027408854666
 20
-89.38971126680838
 30
0.0
  0
VERTEX
  5
E2
  8
HASH
 10
-23.9307626890579
 20
-89.58549429400469
 30
0.0
  0
VERTEX
  5
E3
  8
HASH
 10
-23.95077826305168
 20
-89.79914860791393
 30
0.0
  0
VERTEX
  5
E4
  8
HASH
 10
-23.96278760744795
 20
-90.0306742085361
 30
0.0
  0
VERTEX
  5
E5
  8
HASH
 10
-23.96679072224671
 20
-90.28007109587116
 30
0.0
  0
VERTEX
  5
E6
  8
HASH
 10
-23.96284676677995
 20
-90.54431963871593
 30
0.0
  0
VERTEX
  5
E7
  8
HASH
 10
-23.95101490037968
 20
-90.7888481410499
 30
0.0
  0
VERTEX
  5
E8
  8
HASH
 10
-23.93129512304591
 20
-91.01365660287306
 30
0.0
  0
VERTEX
  5
E9
  8
HASH
 10
-23.90368743477862
 20
-91.21874502418541
 30
0.0
  0
VERTEX
  5
EA
  8
HASH
 10
-23.86819183557782
 20
-91.40411340498696
 30
0.0
  0
VERTEX
  5
EB
  8
HASH
 10
-23.82480832544351
 20
-91.56976174527772
 30
0.0
  0
VERTEX
  5
EC
  8
HASH
 10
-23.77353690437569
 20
-91.71569004505767
 30
0.0
  0
VERTEX
  5
ED
  8
HASH
 10
-23.71437757237436
 20
-91.84189830432682
 30
0.0
  0
VERTEX
  5
EE
  8
HASH
 10
-23.64890791162622
 20
-91.9509747784022
 30
0.0
  0
VERTEX
  5
EF
  8
HASH
 10
-23.57870550431798
 20
-92.04550772260086
 30
0.0
  0
VERTEX
  5
F0
  8
HASH
 10
-23.50377035044963
 20
-92.12549713692282
 30
0.0
  0
VERTEX
  5
F1
  8
HASH
 10
-23.42410245002117
 20
-92.19094302136804
 30
0.0
  0
VERTEX
  5
F2
  8
HASH
 10
-23.33970180303261
 20
-92.24184537593656
 30
0.0
  0
VERTEX
  5
F3
  8
HASH
 10
-23.25056840948394
 20
-92.27820420062835
 30
0.0
  0
VERTEX
  5
F4
  8
HASH
 10
-23.15670226937516
 20
-92.30001949544342
 30
0.0
  0
VERTEX
  5
F5
  8
HASH
 10
-23.05810338270627
 20
-92.30729126038177
 30
0.0
  0
VERTEX
  5
F6
  8
HASH
 10
-22.98494300879797
 20
-92.30266937588705
 30
0.0
  0
VERTEX
  5
F7
  8
HASH
 10
-22.91438564549771
 20
-92.28880372240289
 30
0.0
  0
VERTEX
  5
F8
  8
HASH
 10
-22.84643129280552
 20
-92.2656942999293
 30
0.0
  0
VERTEX
  5
F9
  8
HASH
 10
-22.78107995072138
 20
-92.23334110846626
 30
0.0
  0
VERTEX
  5
FA
  8
HASH
 10
-22.7183316192453
 20
-92.1917441480138
 30
0.0
  0
VERTEX
  5
FB
  8
HASH
 10
-22.65818629837728
 20
-92.14090341857188
 30
0.0
  0
VERTEX
  5
FC
  8
HASH
 10
-22.60064398811732
 20
-92.08081892014052
 30
0.0
  0
VERTEX
  5
FD
  8
HASH
 10
-22.54570468846542
 20
-92.01149065271973
 30
0.0
  0
VERTEX
  5
FE
  8
HASH
 10
-22.49395999274159
 20
-91.93224073991695
 30
0.0
  0
VERTEX
  5
FF
  8
HASH
 10
-22.44600149426584
 20
-91.84239130533959
 30
0.0
  0
VERTEX
  5
100
  8
HASH
 10
-22.36144308905861
 20
-91.63089387086121
 30
0.0
  0
VERTEX
  5
101
  8
HASH
 10
-22.29202947284372
 20
-91.3769983492846
 30
0.0
  0
SEQEND
  5
36D
  8
HASH
  0
POLYLINE
  5
71
  8
HASH
 66
     1
 10
0.0
 20
0.0
 30
0.0
 70
     1
  0
VERTEX
  5
102
  8
HASH
 10
-17.53530366349944
 20
-93.20652510767442
 30
0.0
  0
VERTEX
  5
103
  8
HASH
 10
-18.34807400608838
 20
-93.20652510767442
 30
0.0
  0
VERTEX
  5
104
  8
HASH
 10
-18.67116283792498
 20
-91.8931704096549
 30
0.0
  0
VERTEX
  5
105
  8
HASH
 10
-20.1503038961769
 20
-91.8931704096549
 30
0.0
  0
VERTEX
  5
106
  8
HASH
 10
-20.45572380752244
 20
-93.20652510767442
 30
0.0
  0
VERTEX
  5
107
  8
HASH
 10
-21.24830109812159
 20
-93.20652510767442
 30
0.0
  0
VERTEX
  5
108
  8
HASH
 10
-19.80702201235052
 20
-87.4246092299068
 30
0.0
  0
VERTEX
  5
109
  8
HASH
 10
-19.01696885325009
 20
-87.4246092299068
 30
0.0
  0
SEQEND
  5
36E
  8
HASH
  0
POLYLINE
  5
72
  8
HASH
 66
     1
 10
0.0
 20
0.0
 30
0.0
 70
     1
  0
VERTEX
  5
10A
  8
HASH
 10
-18.9109553303037
 20
-90.9190004084212
 30
0.0
  0
VERTEX
  5
10B
  8
HASH
 10
-19.42082989304583
 20
-88.77346000084577
 30
0.0
  0
VERTEX
  5
10C
  8
HASH
 10
-19.92060792979307
 20
-90.9190004084212
 30
0.0
  0
SEQEND
  5
36F
  8
HASH
  0
POLYLINE
  5
73
  8
HASH
 66
     1
 10
0.0
 20
0.0
 30
0.0
 70
     1
  0
VERTEX
  5
10D
  8
HASH
 10
-17.13144262370369
 20
-93.20652510767442
 30
0.0
  0
VERTEX
  5
10E
  8
HASH
 10
-17.13144262370369
 20
-87.4246092299068
 30
0.0
  0
VERTEX
  5
10F
  8
HASH
 10
-16.40449275207135
 20
-87.4246092299068
 30
0.0
  0
VERTEX
  5
110
  8
HASH
 10
-14.8900138528373
 20
-91.28579316192216
 30
0.0
  0
VERTEX
  5
111
  8
HASH
 10
-14.8900138528373
 20
-87.4246092299068
 30
0.0
  0
VERTEX
  5
112
  8
HASH
 10
-14.19587769068836
 20
-87.4246092299068
 30
0.0
  0
VERTEX
  5
113
  8
HASH
 10
-14.19587769068836
 20
-93.20652510767442
 30
0.0
  0
VERTEX
  5
114
  8
HASH
 10
-14.94554474580922
 20
-93.20652510767442
 30
0.0
  0
VERTEX
  5
115
  8
HASH
 10
-16.43730646155475
 20
-89.43605336200878
 30
0.0
  0
VERTEX
  5
116
  8
HASH
 10
-16.43730646155475
 20
-93.20652510767442
 30
0.0
  0
SEQEND
  5
370
  8
HASH
  0
POLYLINE
  5
74
  8
HASH
 66
     1
 10
0.0
 20
0.0
 30
0.0
 70
     1
  0
VERTEX
  5
117
  8
HASH
 10
-13.55727242151134
 20
-90.35106324171007
 30
0.0
  0
VERTEX
  5
118
  8
HASH
 10
-13.54670262086043
 20
-89.92708237072779
 30
0.0
  0
VERTEX
  5
119
  8
HASH
 10
-13.51499321890772
 20
-89.53859757266494
 30
0.0
  0
VERTEX
  5
11A
  8
HASH
 10
-13.4621442156532
 20
-89.18560884752156
 30
0.0
  0
VERTEX
  5
11B
  8
HASH
 10
-13.38815561109687
 20
-88.86811619529763
 30
0.0
  0
VERTEX
  5
11C
  8
HASH
 10
-13.31929414864732
 20
-88.6529212532235
 30
0.0
  0
VERTEX
  5
11D
  8
HASH
 10
-13.23891633623484
 20
-88.44906533444305
 30
0.0
  0
VERTEX
  5
11E
  8
HASH
 10
-13.14702217385945
 20
-88.25654843895634
 30
0.0
  0
VERTEX
  5
11F
  8
HASH
 10
-13.04361166152112
 20
-88.07537056676333
 30
0.0
  0
VERTEX
  5
120
  8
HASH
 10
-12.93183996359327
 20
-87.91120122951088
 30
0.0
  0
VERTEX
  5
121
  8
HASH
 10
-12.81486224444931
 20
-87.76970993884586
 30
0.0
  0
VERTEX
  5
122
  8
HASH
 10
-12.69267850408923
 20
-87.65089669476828
 30
0.0
  0
VERTEX
  5
123
  8
HASH
 10
-12.56528874251303
 20
-87.55476149727811
 30
0.0
  0
VERTEX
  5
124
  8
HASH
 10
-12.47718077738572
 20
-87.50114763713935
 30
0.0
  0
VERTEX
  5
125
  8
HASH
 10
-12.38575988966633
 20
-87.45468229168578
 30
0.0
  0
VERTEX
  5
126
  8
HASH
 10
-12.29102607935487
 20
-87.41536546091737
 30
0.0
  0
VERTEX
  5
127
  8
HASH
 10
-12.19297934645133
 20
-87.38319714483411
 30
0.0
  0
VERTEX
  5
128
  8
HASH
 10
-12.09161969095572
 20
-87.35817734343604
 30
0.0
  0
VERTEX
  5
129
  8
HASH
 10
-11.98694711286803
 20
-87.34030605672312
 30
0.0
  0
VERTEX
  5
12A
  8
HASH
 10
-11.76766318891643
 20
-87.32600902735278
 30
0.0
  0
VERTEX
  5
12B
  8
HASH
 10
-11.56831595984929
 20
-87.33839567779863
 30
0.0
  0
VERTEX
  5
12C
  8
HASH
 10
-11.37918357544103
 20
-87.37555562913617
 30
0.0
  0
VERTEX
  5
12D
  8
HASH
 10
-11.20026603569168
 20
-87.43748888136541
 30
0.0
  0
VERTEX
  5
12E
  8
HASH
 10
-11.03156334060122
 20
-87.52419543448636
 30
0.0
  0
VERTEX
  5
12F
  8
HASH
 10
-10.87307549016965
 20
-87.63567528849899
 30
0.0
  0
VERTEX
  5
130
  8
HASH
 10
-10.72480248439699
 20
-87.77192844340333
 30
0.0
  0
VERTEX
  5
131
  8
HASH
 10
-10.58674432328322
 20
-87.93295489919936
 30
0.0
  0
VERTEX
  5
132
  8
HASH
 10
-10.45890100682834
 20
-88.11875465588709
 30
0.0
  0
VERTEX
  5
133
  8
HASH
 10
-10.34383610608575
 20
-88.32661620789628
 30
0.0
  0
VERTEX
  5
134
  8
HASH
 10
-10.24411319210884
 20
-88.55382804965669
 30
0.0
  0
VERTEX
  5
135
  8
HASH
 10
-10.15973226489762
 20
-88.80039018116834
 30
0.0
  0
VERTEX
  5
136
  8
HASH
 10
-10.09069332445206
 20
-89.06630260243121
 30
0.0
  0
VERTEX
  5
137
  8
HASH
 10
-10.03699637077219
 20
-89.3515653134453
 30
0.0
  0
VERTEX
  5
138
  8
HASH
 10
-9.998641403857993
 20
-89.65617831421062
 30
0.0
  0
VERTEX
  5
139
  8
HASH
 10
-9.975628423709477
 20
-89.98014160472717
 30
0.0
  0
VERTEX
  5
13A
  8
HASH
 10
-9.967957430326639
 20
-90.32345518499494
 30
0.0
  0
VERTEX
  5
13B
  8
HASH
 10
-9.975569264377475
 20
-90.66396482200258
 30
0.0
  0
VERTEX
  5
13C
  8
HASH
 10
-9.998404766529989
 20
-90.98543229489198
 30
0.0
  0
VERTEX
  5
13D
  8
HASH
 10
-10.03646393678418
 20
-91.28785760366313
 30
0.0
  0
VERTEX
  5
13E
  8
HASH
 10
-10.08974677514004
 20
-91.57124074831603
 30
0.0
  0
VERTEX
  5
13F
  8
HASH
 10
-10.15825328159758
 20
-91.8355817288507
 30
0.0
  0
VERTEX
  5
140
  8
HASH
 10
-10.2419834561568
 20
-92.08088054526712
 30
0.0
  0
VERTEX
  5
141
  8
HASH
 10
-10.34093729881769
 20
-92.30713719756528
 30
0.0
  0
VERTEX
  5
142
  8
HASH
 10
-10.45511480958026
 20
-92.51435168574521
 30
0.0
  0
VERTEX
  5
143
  8
HASH
 10
-10.58203129650044
 20
-92.69968925398346
 30
0.0
  0
VERTEX
  5
144
  8
HASH
 10
-10.7192020676342
 20
-92.86031514645663
 30
0.0
  0
VERTEX
  5
145
  8
HASH
 10
-10.86662712298151
 20
-92.9962293631647
 30
0.0
  0
VERTEX
  5
146
  8
HASH
 10
-11.02430646254239
 20
-93.10743190410764
 30
0.0
  0
VERTEX
  5
147
  8
HASH
 10
-11.19224008631683
 20
-93.1939227692855
 30
0.0
  0
VERTEX
  5
148
  8
HASH
 10
-11.37042799430484
 20
-93.25570195869825
 30
0.0
  0
VERTEX
  5
149
  8
HASH
 10
-11.55887018650641
 20
-93.29276947234591
 30
0.0
  0
VERTEX
  5
14A
  8
HASH
 10
-11.75756666292154
 20
-93.30512531022845
 30
0.0
  0
VERTEX
  5
14B
  8
HASH
 10
-11.95862951261673
 20
-93.2928310974725
 30
0.0
  0
VERTEX
  5
14C
  8
HASH
 10
-12.14912256166101
 20
-93.25594845920463
 30
0.0
  0
VERTEX
  5
14D
  8
HASH
 10
-12.32904581005439
 20
-93.19447739542487
 30
0.0
  0
VERTEX
  5
14E
  8
HASH
 10
-12.49839925779686
 20
-93.10841790613318
 30
0.0
  0
VERTEX
  5
14F
  8
HASH
 10
-12.65718290488844
 20
-92.9977699913296
 30
0.0
  0
VERTEX
  5
150
  8
HASH
 10
-12.8053967513291
 20
-92.8625336510141
 30
0.0
  0
VERTEX
  5
151
  8
HASH
 10
-12.94304079711886
 20
-92.7027088851867
 30
0.0
  0
VERTEX
  5
152
  8
HASH
 10
-13.07011504225772
 20
-92.51829569384738
 30
0.0
  0
VERTEX
  5
153
  8
HASH
 10
-13.18429255302029
 20
-92.31231370819938
 30
0.0
  0
VERTEX
  5
154
  8
HASH
 10
-13.28324639568118
 20
-92.08778255944591
 30
0.0
  0
VERTEX
  5
155
  8
HASH
 10
-13.36697657024039
 20
-91.84470224758697
 30
0.0
  0
VERTEX
  5
156
  8
HASH
 10
-13.43548307669793
 20
-91.58307277262253
 30
0.0
  0
VERTEX
  5
157
  8
HASH
 10
-13.4887659150538
 20
-91.30289413455263
 30
0.0
  0
VERTEX
  5
158
  8
HASH
 10
-13.52682508530799
 20
-91.00416633337724
 30
0.0
  0
VERTEX
  5
159
  8
HASH
 10
-13.5496605874605
 20
-90.68688936909639
 30
0.0
  0
SEQEND
  5
371
  8
HASH
  0
POLYLINE
  5
75
  8
HASH
 66
     1
 10
0.0
 20
0.0
 30
0.0
 70
     1
  0
VERTEX
  5
15A
  8
HASH
 10
-12.78741231440069
 20
-90.31162316068846
 30
0.0
  0
VERTEX
  5
15B
  8
HASH
 10
-12.78287676561393
 20
-90.5497118372931
 30
0.0
  0
VERTEX
  5
15C
  8
HASH
 10
-12.76927011925362
 20
-90.77294885838806
 30
0.0
  0
VERTEX
  5
15D
  8
HASH
 10
-12.74659237531978
 20
-90.98133422397332
 30
0.0
  0
VERTEX
  5
15E
  8
HASH
 10
-12.7148435338124
 20
-91.17486793404888
 30
0.0
  0
VERTEX
  5
15F
  8
HASH
 10
-12.67402359473148
 20
-91.35354998861474
 30
0.0
  0
VERTEX
  5
160
  8
HASH
 10
-12.62413255807702
 20
-91.5173803876709
 30
0.0
  0
VERTEX
  5
161
  8
HASH
 10
-12.56517042384903
 20
-91.66635913121736
 30
0.0
  0
VERTEX
  5
162
  8
HASH
 10
-12.4971371920475
 20
-91.80048621925413
 30
0.0
  0
VERTEX
  5
163
  8
HASH
 10
-12.42212315906981
 20
-91.91926865076842
 30
0.0
  0
VERTEX
  5
164
  8
HASH
 10
-12.34221862131335
 20
-92.02221342474746
 30
0.0
  0
VERTEX
  5
165
  8
HASH
 10
-12.25742357877811
 20
-92.10932054119127
 30
0.0
  0
VERTEX
  5
166
  8
HASH
 10
-12.1677380314641
 20
-92.18059000009985
 30
0.0
  0
VERTEX
  5
167
  8
HASH
 10
-12.0731619793713
 20
-92.23602180147319
 30
0.0
  0
VERTEX
  5
168
  8
HASH
 10
-11.97369542249973
 20
-92.2756159453113
 30
0.0
  0
VERTEX
  5
169
  8
HASH
 10
-11.86933836084938
 20
-92.29937243161416
 30
0.0
  0
VERTEX
  5
16A
  8
HASH
 10
-11.76009079442026
 20
-92.30729126038177
 30
0.0
  0
VERTEX
  5
16B
  8
HASH
 10
-11.65090238732314
 20
-92.29943405674075
 30
0.0
  0
VERTEX
  5
16C
  8
HASH
 10
-11.5467228036688
 20
-92.27586244581768
 30
0.0
  0
VERTEX
  5
16D
  8
HASH
 10
-11.44755204345723
 20
-92.23657642761256
 30
0.0
  0
VERTEX
  5
16E
  8
HASH
 10
-11.35339010668845
 20
-92.1815760021254
 30
0.0
  0
VERTEX
  5
16F
  8
HASH
 10
-11.26423699336245
 20
-92.11086116935618
 30
0.0
  0
VERTEX
  5
170
  8
HASH
 10
-11.18009270347922
 20
-92.02443192930494
 30
0.0
  0
VERTEX
  5
171
  8
HASH
 10
-11.10095723703878
 20
-91.92228828197163
 30
0.0
  0
VERTEX
  5
172
  8
HASH
 10
-11.02683059404111
 20
-91.80443022735629
 30
0.0
  0
VERTEX
  5
173
  8
HASH
 10
-10.9596847522196
 20
-91.67085776545889
 30
0.0
  0
VERTEX
  5
174
  8
HASH
 10
-10.90149168930763
 20
-91.52157089627946
 30
0.0
  0
VERTEX
  5
175
  8
HASH
 10
-10.85225140530519
 20
-91.35656961981795
 30
0.0
  0
VERTEX
  5
176
  8
HASH
 10
-10.81196390021228
 20
-91.17585393607442
 30
0.0
  0
VERTEX
  5
177
  8
HASH
 10
-10.78062917402891
 20
-90.97942384504883
 30
0.0
  0
VERTEX
  5
178
  8
HASH
 10
-10.75824722675507
 20
-90.7672793467412
 30
0.0
  0
VERTEX
  5
179
  8
HASH
 10
-10.74481805839077
 20
-90.53942044115152
 30
0.0
  0
VERTEX
  5
17A
  8
HASH
 10
-10.740341668936
 20
-90.2958471282798
 30
0.0
  0
VERTEX
  5
17B
  8
HASH
 10
-10.74469973972677
 20
-90.055262634048
 30
0.0
  0
VERTEX
  5
17C
  8
HASH
 10
-10.75777395209906
 20
-89.83045417222485
 30
0.0
  0
VERTEX
  5
17D
  8
HASH
 10
-10.77956430605288
 20
-89.62142174281033
 30
0.0
  0
VERTEX
  5
17E
  8
HASH
 10
-10.81007080158824
 20
-89.42816534580444
 30
0.0
  0
VERTEX
  5
17F
  8
HASH
 10
-10.84929343870512
 20
-89.2506849812072
 30
0.0
  0
VERTEX
  5
180
  8
HASH
 10
-10.89723221740353
 20
-89.08898064901862
 30
0.0
  0
VERTEX
  5
181
  8
HASH
 10
-10.95388713768347
 20
-88.94305234923868
 30
0.0
  0
VERTEX
  5
182
  8
HASH
 10
-11.01925819954494
 20
-88.81290008186738
 30
0.0
  0
VERTEX
  5
183
  8
HASH
 10
-11.09184669991057
 20
-88.69827734639833
 30
0.0
  0
VERTEX
  5
184
  8
HASH
 10
-11.170153935703
 20
-88.59893764232515
 30
0.0
  0
VERTEX
  5
185
  8
HASH
 10
-11.25417990692223
 20
-88.51488096964786
 30
0.0
  0
VERTEX
  5
186
  8
HASH
 10
-11.34392461356824
 20
-88.44610732836642
 30
0.0
  0
VERTEX
  5
187
  8
HASH
 10
-11.43938805564105
 20
-88.39261671848087
 30
0.0
  0
VERTEX
  5
188
  8
HASH
 10
-11.54057023314066
 20
-88.35440913999119
 30
0.0
  0
VERTEX
  5
189
  8
HASH
 10
-11.64747114606706
 20
-88.33148459289738
 30
0.0
  0
VERTEX
  5
18A
  8
HASH
 10
-11.76009079442026
 20
-88.32384307719944
 30
0.0
  0
VERTEX
  5
18B
  8
HASH
 10
-11.87276960210546
 20
-88.33157703058727
 30
0.0
  0
VERTEX
  5
18C
  8
HASH
 10
-11.97984799302787
 20
-88.35477889075077
 30
0.0
  0
VERTEX
  5
18D
  8
HASH
 10
-12.08132596718749
 20
-88.39344865768993
 30
0.0
  0
VERTEX
  5
18E
  8
HASH
 10
-12.17720352458431
 20
-88.44758633140474
 30
0.0
  0
VERTEX
  5
18F
  8
HASH
 10
-12.26748066521834
 20
-88.51719191189522
 30
0.0
  0
VERTEX
  5
190
  8
HASH
 10
-12.35215738908957
 20
-88.60226539916135
 30
0.0
  0
VERTEX
  5
191
  8
HASH
 10
-12.43123369619802
 20
-88.70280679320317
 30
0.0
  0
VERTEX
  5
192
  8
HASH
 10
-12.50470958654367
 20
-88.81881609402062
 30
0.0
  0
VERTEX
  5
193
  8
HASH
 10
-12.57096803838516
 20
-88.95041655186694
 30
0.0
  0
VERTEX
  5
194
  8
HASH
 10
-12.62839202998112
 20
-89.09773141699529
 30
0.0
  0
VERTEX
  5
195
  8
HASH
 10
-12.67698156133154
 20
-89.26076068940571
 30
0.0
  0
VERTEX
  5
196
  8
HASH
 10
-12.71673663243644
 20
-89.43950436909816
 30
0.0
  0
VERTEX
  5
197
  8
HASH
 10
-12.7476572432958
 20
-89.63396245607267
 30
0.0
  0
VERTEX
  5
198
  8
HASH
 10
-12.76974339390963
 20
-89.8441349503292
 30
0.0
  0
VERTEX
  5
199
  8
HASH
 10
-12.78299508427793
 20
-90.0700218518678
 30
0.0
  0
SEQEND
  5
372
  8
HASH
  0
POLYLINE
  5
76
  8
HASH
 66
     1
 10
0.0
 20
0.0
 30
0.0
 70
     1
  0
VERTEX
  5
19A
  8
HASH
 10
-9.38488305412153
 20
-93.20652510767442
 30
0.0
  0
VERTEX
  5
19B
  8
HASH
 10
-9.38488305412153
 20
-87.4246092299068
 30
0.0
  0
VERTEX
  5
19C
  8
HASH
 10
-8.185920592227909
 20
-87.4246092299068
 30
0.0
  0
VERTEX
  5
19D
  8
HASH
 10
-7.874821385010247
 20
-87.43003224104729
 30
0.0
  0
VERTEX
  5
19E
  8
HASH
 10
-7.623039268012587
 20
-87.4463012744687
 30
0.0
  0
VERTEX
  5
19F
  8
HASH
 10
-7.430574241234925
 20
-87.47341633017105
 30
0.0
  0
VERTEX
  5
1A0
  8
HASH
 10
-7.297426304677265
 20
-87.51137740815435
 30
0.0
  0
VERTEX
  5
1A1
  8
HASH
 10
-7.219533184208848
 20
-87.5486914223084
 30
0.0
  0
VERTEX
  5
1A2
  8
HASH
 10
-7.144874107223169
 20
-87.59555733108482
 30
0.0
  0
VERTEX
  5
1A3
  8
HASH
 10
-7.07344907372023
 20
-87.6519751344837
 30
0.0
  0
VERTEX
  5
1A4
  8
HASH
 10
-7.00525808370003
 20
-87.717944832505
 30
0.0
  0
VERTEX
  5
1A5
  8
HASH
 10
-6.940301137162569
 20
-87.79346642514872
 30
0.0
  0
VERTEX
  5
1A6
  8
HASH
 10
-6.878578234107849
 20
-87.87853991241485
 30
0.0
  0
VERTEX
  5
1A7
  8
HASH
 10
-6.820089374535867
 20
-87.97316529430344
 30
0.0
  0
VERTEX
  5
1A8
  8
HASH
 10
-6.764834558446625
 20
-88.07734257081441
 30
0.0
  0
VERTEX
  5
1A9
  8
HASH
 10
-6.714549126245494
 20
-88.19027061530205
 30
0.0
  0
VERTEX
  5
1AA
  8
HASH
 10
-6.670968418337847
 20
-88.31114830112062
 30
0.0
  0
VERTEX
  5
1AB
  8
HASH
 10
-6.634092434723685
 20
-88.4399756282701
 30
0.0
  0
VERTEX
  5
1AC
  8
HASH
 10
-6.603921175403007
 20
-88.57675259675051
 30
0.0
  0
VERTEX
  5
1AD
  8
HASH
 10
-6.580454640375812
 20
-88.72147920656184
 30
0.0
  0
VERTEX
  5
1AE
  8
HASH
 10
-6.563692829642102
 20
-88.87415545770406
 30
0.0
  0
VERTEX
  5
1AF
  8
HASH
 10
-6.550283381055134
 20
-89.20335688398129
 30
0.0
  0
VERTEX
  5
1B0
  8
HASH
 10
-6.558013533769975
 20
-89.45897790910257
 30
0.0
  0
VERTEX
  5
1B1
  8
HASH
 10
-6.581203991914496
 20
-89.69339989067475
 30
0.0
  0
VERTEX
  5
1B2
  8
HASH
 10
-6.619854755488699
 20
-89.90662282869782
 30
0.0
  0
VERTEX
  5
1B3
  8
HASH
 10
-6.673965824492582
 20
-90.09864672317177
 30
0.0
  0
VERTEX
  5
1B4
  8
HASH
 10
-6.739987639006066
 20
-90.27033432586894
 30
0.0
  0
VERTEX
  5
1B5
  8
HASH
 10
-6.814370639109072
 20
-90.42254838856172
 30
0.0
  0
VERTEX
  5
1B6
  8
HASH
 10
-6.897114824801599
 20
-90.55528891125006
 30
0.0
  0
VERTEX
  5
1B7
  8
HASH
 10
-6.988220196083647
 20
-90.668555893934
 30
0.0
  0
VERTEX
  5
1B8
  8
HASH
 10
-7.083900555707132
 20
-90.76333533863905
 30
0.0
  0
VERTEX
  5
1B9
  8
HASH
 10
-7.180369706423967
 20
-90.84061324739076
 30
0.0
  0
VERTEX
  5
1BA
  8
HASH
 10
-7.277627648234153
 20
-90.90038962018912
 30
0.0
  0
VERTEX
  5
1BB
  8
HASH
 10
-7.375674381137691
 20
-90.94266445703417
 30
0.0
  0
VERTEX
  5
1BC
  8
HASH
 10
-7.524440381343702
 20
-90.97890003147276
 30
0.0
  0
VERTEX
  5
1BD
  8
HASH
 10
-7.703180443097055
 20
-91.0047825846432
 30
0.0
  0
VERTEX
  5
1BE
  8
HASH
 10
-7.911894566397747
 20
-91.02031211654545
 30
0.0
  0
VERTEX
  5
1BF
  8
HASH
 10
-8.15058275124578
 20
-91.02548862717954
 30
0.0
  0
VERTEX
  5
1C0
  8
HASH
 10
-8.637740130499399
 20
-91.02548862717954
 30
0.0
  0
VERTEX
  5
1C1
  8
HASH
 10
-8.637740130499399
 20
-93.20652510767442
 30
0.0
  0
SEQEND
  5
373
  8
HASH
  0
POLYLINE
  5
77
  8
HASH
 66
     1
 10
0.0
 20
0.0
 30
0.0
 70
     1
  0
VERTEX
  5
1C2
  8
HASH
 10
-8.637740130499399
 20
-88.40272323924266
 30
0.0
  0
VERTEX
  5
1C3
  8
HASH
 10
-8.637740130499399
 20
-90.04343060974152
 30
0.0
  0
VERTEX
  5
1C4
  8
HASH
 10
-8.228830827706206
 20
-90.04343060974152
 30
0.0
  0
VERTEX
  5
1C5
  8
HASH
 10
-8.026269274933652
 20
-90.03776109809466
 30
0.0
  0
VERTEX
  5
1C6
  8
HASH
 10
-7.860307628892587
 20
-90.0207525631541
 30
0.0
  0
VERTEX
  5
1C7
  8
HASH
 10
-7.730945889583012
 20
-89.99240500491982
 30
0.0
  0
VERTEX
  5
1C8
  8
HASH
 10
-7.638184057004927
 20
-89.95271842339183
 30
0.0
  0
VERTEX
  5
1C9
  8
HASH
 10
-7.567745012368676
 20
-89.90095331705096
 30
0.0
  0
VERTEX
  5
1CA
  8
HASH
 10
-7.505351636884606
 20
-89.83637018437808
 30
0.0
  0
VERTEX
  5
1CB
  8
HASH
 10
-7.451003930552718
 20
-89.75896902537319
 30
0.0
  0
VERTEX
  5
1CC
  8
HASH
 10
-7.40470189337301
 20
-89.66874984003626
 30
0.0
  0
VERTEX
  5
1CD
  8
HASH
 10
-7.367707591094845
 20
-89.56817763343116
 30
0.0
  0
VERTEX
  5
1CE
  8
HASH
 10
-7.341283089467584
 20
-89.45971741062174
 30
0.0
  0
VERTEX
  5
1CF
  8
HASH
 10
-7.325428388491228
 20
-89.343369171608
 30
0.0
  0
VERTEX
  5
1D0
  8
HASH
 10
-7.320143488165776
 20
-89.21913291638994
 30
0.0
  0
VERTEX
  5
1D1
  8
HASH
 10
-7.327558124443276
 20
-89.06827460648229
 30
0.0
  0
VERTEX
  5
1D2
  8
HASH
 10
-7.349802033275775
 20
-88.9312203249322
 30
0.0
  0
VERTEX
  5
1D3
  8
HASH
 10
-7.386875214663276
 20
-88.80797007173967
 30
0.0
  0
VERTEX
  5
1D4
  8
HASH
 10
-7.438777668605777
 20
-88.69852384690472
 30
0.0
  0
VERTEX
  5
1D5
  8
HASH
 10
-7.502038714292533
 20
-88.60559315599755
 30
0.0
  0
VERTEX
  5
1D6
  8
HASH
 10
-7.573187670912799
 20
-88.53188950458842
 30
0.0
  0
VERTEX
  5
1D7
  8
HASH
 10
-7.652224538466576
 20
-88.47741289267734
 30
0.0
  0
VERTEX
  5
1D8
  8
HASH
 10
-7.739149316953863
 20
-88.44216332026427
 30
0.0
  0
VERTEX
  5
1D9
  8
HASH
 10
-7.822918931067747
 20
-88.42490828481732
 30
0.0
  0
VERTEX
  5
1DA
  8
HASH
 10
-7.940448803977056
 20
-88.41258325949806
 30
0.0
  0
VERTEX
  5
1DB
  8
HASH
 10
-8.276789326181952
 20
-88.40272323924266
 30
0.0
  0
SEQEND
  5
374
  8
HASH
  0
POLYLINE
  5
78
  8
HASH
 66
     1
 10
0.0
 20
0.0
 30
0.0
 70
     1
  0
VERTEX
  5
1DC
  8
HASH
 10
-4.965128799856831
 20
-93.20652510767442
 30
0.0
  0
VERTEX
  5
1DD
  8
HASH
 10
-4.965128799856831
 20
-90.77307210864126
 30
0.0
  0
VERTEX
  5
1DE
  8
HASH
 10
-6.320587414671305
 20
-87.4246092299068
 30
0.0
  0
VERTEX
  5
1DF
  8
HASH
 10
-5.444713784614279
 20
-87.4246092299068
 30
0.0
  0
VERTEX
  5
1E0
  8
HASH
 10
-4.573888417554701
 20
-89.71213392916002
 30
0.0
  0
VERTEX
  5
1E1
  8
HASH
 10
-3.720731970986186
 20
-87.4246092299068
 30
0.0
  0
VERTEX
  5
1E2
  8
HASH
 10
-2.860003129921501
 20
-87.4246092299068
 30
0.0
  0
VERTEX
  5
1E3
  8
HASH
 10
-4.220510007733423
 20
-90.78096012484558
 30
0.0
  0
VERTEX
  5
1E4
  8
HASH
 10
-4.220510007733423
 20
-93.20652510767442
 30
0.0
  0
SEQEND
  5
375
  8
HASH
  0
POLYLINE
  5
79
  8
HASH
 66
     1
 10
0.0
 20
0.0
 30
0.0
 70
     1
  0
VERTEX
  5
1E5
  8
HASH
 10
0.1891477205363919
 20
-87.4246092299068
 30
0.0
  0
VERTEX
  5
1E6
  8
HASH
 10
0.9337665126597995
 20
-87.4246092299068
 30
0.0
  0
VERTEX
  5
1E7
  8
HASH
 10
0.9337665126597995
 20
-91.08464874871196
 30
0.0
  0
VERTEX
  5
1E8
  8
HASH
 10
0.9287182496623527
 20
-91.42284744347224
 30
0.0
  0
VERTEX
  5
1E9
  8
HASH
 10
0.9135734606700123
 20
-91.71963405315984
 30
0.0
  0
VERTEX
  5
1EA
  8
HASH
 10
0.8883321456827783
 20
-91.97500857777473
 30
0.0
  0
VERTEX
  5
1EB
  8
HASH
 10
0.8529943047006506
 20
-92.18897101731696
 30
0.0
  0
VERTEX
  5
1EC
  8
HASH
 10
0.7876824021711821
 20
-92.4289392602828
 30
0.0
  0
VERTEX
  5
1ED
  8
HASH
 10
0.7002843490278838
 20
-92.64401095210374
 30
0.0
  0
VERTEX
  5
1EE
  8
HASH
 10
0.6483030159760484
 20
-92.7422105913349
 30
0.0
  0
VERTEX
  5
1EF
  8
HASH
 10
0.5908001452707556
 20
-92.83418609277982
 30
0.0
  0
VERTEX
  5
1F0
  8
HASH
 10
0.5277757369120052
 20
-92.91993745643852
 30
0.0
  0
VERTEX
  5
1F1
  8
HASH
 10
0.4592297908997973
 20
-92.99946468231099
 30
0.0
  0
VERTEX
  5
1F2
  8
HASH
 10
0.3850834281247969
 20
-93.07110389197913
 30
0.0
  0
VERTEX
  5
1F3
  8
HASH
 10
0.3052577694776689
 20
-93.13319120702488
 30
0.0
  0
VERTEX
  5
1F4
  8
HASH
 10
0.2197528149584133
 20
-93.18572662744818
 30
0.0
  0
VERTEX
  5
1F5
  8
HASH
 10
0.1285685645670299
 20
-93.22871015324908
 30
0.0
  0
VERTEX
  5
1F6
  8
HASH
 10
0.0317050183035188
 20
-93.26214178442756
 30
0.0
  0
VERTEX
  5
1F7
  8
HASH
 10
-0.07083782383212
 20
-93.28602152098361
 30
0.0
  0
VERTEX
  5
1F8
  8
HASH
 10
-0.1790599618398865
 20
-93.30034936291723
 30
0.0
  0
VERTEX
  5
1F9
  8
HASH
 10
-0.2929613957197806
 20
-93.30512531022845
 30
0.0
  0
VERTEX
  5
1FA
  8
HASH
 10
-0.4259515740587706
 20
-93.297637857347
 30
0.0
  0
VERTEX
  5
1FB
  8
HASH
 10
-0.5510538414642498
 20
-93.27517549870265
 30
0.0
  0
VERTEX
  5
1FC
  8
HASH
 10
-0.6682681979362185
 20
-93.23773823429543
 30
0.0
  0
VERTEX
  5
1FD
  8
HASH
 10
-0.7775946434746766
 20
-93.18532606412532
 30
0.0
  0
VERTEX
  5
1FE
  8
HASH
 10
-0.8790331780796239
 20
-93.11793898819231
 30
0.0
  0
VERTEX
  5
1FF
  8
HASH
 10
-0.9725838017510604
 20
-93.0355770064964
 30
0.0
  0
VERTEX
  5
200
  8
HASH
 10
-1.058246514488986
 20
-92.9382401190376
 30
0.0
  0
VERTEX
  5
201
  8
HASH
 10
-1.136021316293402
 20
-92.82592832581591
 30
0.0
  0
VERTEX
  5
202
  8
HASH
 10
-1.205277174289625
 20
-92.6991346278441
 30
0.0
  0
VERTEX
  5
203
  8
HASH
 10
-1.265383055602977
 20
-92.55835202613494
 30
0.0
  0
VERTEX
  5
204
  8
HASH
 10
-1.316338960233456
 20
-92.40358052068842
 30
0.0
  0
VERTEX
  5
205
  8
HASH
 10
-1.358144888181062
 20
-92.23482011150458
 30
0.0
  0
VERTEX
  5
206
  8
HASH
 10
-1.390800839445796
 20
-92.05207079858334
 30
0.0
  0
VERTEX
  5
207
  8
HASH
 10
-1.414306814027658
 20
-91.85533258192478
 30
0.0
  0
VERTEX
  5
208
  8
HASH
 10
-1.428662811926648
 20
-91.64460546152887
 30
0.0
  0
VERTEX
  5
209
  8
HASH
 10
-1.433868833142765
 20
-91.41988943739561
 30
0.0
  0
VERTEX
  5
20A
  8
HASH
 10
-0.7296361449989317
 20
-91.29368117812648
 30
0.0
  0
VERTEX
  5
20B
  8
HASH
 10
-0.7190663443480274
 20
-91.52391265109011
 30
0.0
  0
VERTEX
  5
20C
  8
HASH
 10
-0.6999775998889315
 20
-91.71766204910875
 30
0.0
  0
VERTEX
  5
20D
  8
HASH
 10
-0.6723699116216442
 20
-91.87492937218242
 30
0.0
  0
VERTEX
  5
20E
  8
HASH
 10
-0.6362432795461652
 20
-91.99571462031108
 30
0.0
  0
VERTEX
  5
20F
  8
HASH
 10
-0.6039817238281064
 20
-92.06874039532764
 30
0.0
  0
VERTEX
  5
210
  8
HASH
 10
-0.5677762126432925
 20
-92.132029400342
 30
0.0
  0
VERTEX
  5
211
  8
HASH
 10
-0.5276267459917232
 20
-92.18558163535415
 30
0.0
  0
VERTEX
  5
212
  8
HASH
 10
-0.4835333238733985
 20
-92.2293971003641
 30
0.0
  0
VERTEX
  5
213
  8
HASH
 10
-0.4354959462883184
 20
-92.26347579537182
 30
0.0
  0
VERTEX
  5
214
  8
HASH
 10
-0.3835146132364832
 20
-92.28781772037735
 30
0.0
  0
VERTEX
  5
215
  8
HASH
 10
-0.3275893247178925
 20
-92.30242287538067
 30
0.0
  0
VERTEX
  5
216
  8
HASH
 10
-0.2677200807325464
 20
-92.30729126038177
 30
0.0
  0
VERTEX
  5
217
  8
HASH
 10
-0.1519255482286097
 20
-92.29336398177102
 30
0.0
  0
VERTEX
  5
218
  8
HASH
 10
-0.1008907644887957
 20
-92.27595488350758
 30
0.0
  0
VERTEX
  5
219
  8
HASH
 10
-0.0544309690904178
 20
-92.25158214593876
 30
0.0
  0
VERTEX
  5
21A
  8
HASH
 10
-0.0125461620334761
 20
-92.22024576906456
 30
0.0
  0
VERTEX
  5
21B
  8
HASH
 10
0.0247636566820295
 20
-92.18194575288499
 30
0.0
  0
VERTEX
  5
21C
  8
HASH
 10
0.0574984870560988
 20
-92.13668209740003
 30
0.0
  0
VERTEX
  5
21D
  8
HASH
 10
0.0856583290887319
 20
-92.0844548026097
 30
0.0
  0
VERTEX
  5
21E
  8
HASH
 10
0.1099136552092773
 20
-92.02125823528523
 30
0.0
  0
VERTEX
  5
21F
  8
HASH
 10
0.1309349378470833
 20
-91.94308676219788
 30
0.0
  0
VERTEX
  5
220
  8
HASH
 10
0.163275372674477
 20
-91.74181909873448
 30
0.0
  0
VERTEX
  5
221
  8
HASH
 10
0.1826796335709132
 20
-91.48065181221952
 30
0.0
  0
VERTEX
  5
222
  8
HASH
 10
0.1891477205363919
 20
-91.15958490265301
 30
0.0
  0
SEQEND
  5
376
  8
HASH
  0
POLYLINE
  5
7A
  8
HASH
 66
     1
 10
0.0
 20
0.0
 30
0.0
 70
     1
  0
VERTEX
  5
223
  8
HASH
 10
1.728867934757668
 20
-93.20652510767442
 30
0.0
  0
VERTEX
  5
224
  8
HASH
 10
1.728867934757668
 20
-87.4246092299068
 30
0.0
  0
VERTEX
  5
225
  8
HASH
 10
4.472598873870021
 20
-87.4246092299068
 30
0.0
  0
VERTEX
  5
226
  8
HASH
 10
4.472598873870021
 20
-88.40272323924266
 30
0.0
  0
VERTEX
  5
227
  8
HASH
 10
2.476010858379799
 20
-88.40272323924266
 30
0.0
  0
VERTEX
  5
228
  8
HASH
 10
2.476010858379799
 20
-89.6845258724449
 30
0.0
  0
VERTEX
  5
229
  8
HASH
 10
4.333771641440234
 20
-89.6845258724449
 30
0.0
  0
VERTEX
  5
22A
  8
HASH
 10
4.333771641440234
 20
-90.6586958736786
 30
0.0
  0
VERTEX
  5
22B
  8
HASH
 10
2.476010858379799
 20
-90.6586958736786
 30
0.0
  0
VERTEX
  5
22C
  8
HASH
 10
2.476010858379799
 20
-92.23235510644072
 30
0.0
  0
VERTEX
  5
22D
  8
HASH
 10
4.543274555834277
 20
-92.23235510644072
 30
0.0
  0
VERTEX
  5
22E
  8
HASH
 10
4.543274555834277
 20
-93.20652510767442
 30
0.0
  0
SEQEND
  5
377
  8
HASH
  0
POLYLINE
  5
7B
  8
HASH
 66
     1
 10
0.0
 20
0.0
 30
0.0
 70
     1
  0
VERTEX
  5
22F
  8
HASH
 10
6.009794956592583
 20
-93.20652510767442
 30
0.0
  0
VERTEX
  5
230
  8
HASH
 10
6.009794956592583
 20
-88.40272323924266
 30
0.0
  0
VERTEX
  5
231
  8
HASH
 10
4.911797754647897
 20
-88.40272323924266
 30
0.0
  0
VERTEX
  5
232
  8
HASH
 10
4.911797754647897
 20
-87.4246092299068
 30
0.0
  0
VERTEX
  5
233
  8
HASH
 10
7.852410950660677
 20
-87.4246092299068
 30
0.0
  0
VERTEX
  5
234
  8
HASH
 10
7.852410950660677
 20
-88.40272323924266
 30
0.0
  0
VERTEX
  5
235
  8
HASH
 10
6.756937880214714
 20
-88.40272323924266
 30
0.0
  0
VERTEX
  5
236
  8
HASH
 10
6.756937880214714
 20
-93.20652510767442
 30
0.0
  0
SEQEND
  5
378
  8
HASH
  0
POLYLINE
  5
7C
  8
HASH
 66
     1
 10
0.0
 20
0.0
 30
0.0
 70
     1
  0
VERTEX
  5
237
  8
HASH
 10
9.16748346149558
 20
-93.20652510767442
 30
0.0
  0
VERTEX
  5
238
  8
HASH
 10
9.16748346149558
 20
-88.40272323924266
 30
0.0
  0
VERTEX
  5
239
  8
HASH
 10
8.069486259550894
 20
-88.40272323924266
 30
0.0
  0
VERTEX
  5
23A
  8
HASH
 10
8.069486259550894
 20
-87.4246092299068
 30
0.0
  0
VERTEX
  5
23B
  8
HASH
 10
11.01009945556367
 20
-87.4246092299068
 30
0.0
  0
VERTEX
  5
23C
  8
HASH
 10
11.01009945556367
 20
-88.40272323924266
 30
0.0
  0
VERTEX
  5
23D
  8
HASH
 10
9.914626385117712
 20
-88.40272323924266
 30
0.0
  0
VERTEX
  5
23E
  8
HASH
 10
9.914626385117712
 20
-93.20652510767442
 30
0.0
  0
SEQEND
  5
379
  8
HASH
  0
POLYLINE
  5
7D
  8
HASH
 66
     1
 10
0.0
 20
0.0
 30
0.0
 70
     1
  0
VERTEX
  5
23F
  8
HASH
 10
11.46949138833134
 20
-93.20652510767442
 30
0.0
  0
VERTEX
  5
240
  8
HASH
 10
11.46949138833134
 20
-87.4246092299068
 30
0.0
  0
VERTEX
  5
241
  8
HASH
 10
12.21663431195347
 20
-87.4246092299068
 30
0.0
  0
VERTEX
  5
242
  8
HASH
 10
12.21663431195347
 20
-93.20652510767442
 30
0.0
  0
SEQEND
  5
37A
  8
HASH
  0
POLYLINE
  5
7E
  8
HASH
 66
     1
 10
0.0
 20
0.0
 30
0.0
 70
     1
  0
VERTEX
  5
243
  8
HASH
 10
12.73912953218922
 20
-91.32523324294375
 30
0.0
  0
VERTEX
  5
244
  8
HASH
 10
13.46607940382156
 20
-91.21480101608326
 30
0.0
  0
VERTEX
  5
245
  8
HASH
 10
13.50733317800382
 20
-91.48176106449827
 30
0.0
  0
VERTEX
  5
246
  8
HASH
 10
13.56546708158379
 20
-91.71076003492998
 30
0.0
  0
VERTEX
  5
247
  8
HASH
 10
13.64048111456148
 20
-91.90179792737838
 30
0.0
  0
VERTEX
  5
248
  8
HASH
 10
13.68431817957447
 20
-91.98308146935884
 30
0.0
  0
VERTEX
  5
249
  8
HASH
 10
13.73237527693688
 20
-92.05487474184349
 30
0.0
  0
VERTEX
  5
24A
  8
HASH
 10
13.78473128575806
 20
-92.11773237097168
 30
0.0
  0
VERTEX
  5
24B
  8
HASH
 10
13.84146508514733
 20
-92.17220898288275
 30
0.0
  0
VERTEX
  5
24C
  8
HASH
 10
13.90257667510471
 20
-92.21830457757676
 30
0.0
  0
VERTEX
  5
24D
  8
HASH
 10
13.96806605563018
 20
-92.25601915505368
 30
0.0
  0
VERTEX
  5
24E
  8
HASH
 10
14.03793322672375
 20
-92.28535271531351
 30
0.0
  0
VERTEX
  5
24F
  8
HASH
 10
14.11217818838542
 20
-92.30630525835623
 30
0.0
  0
VERTEX
  5
250
  8
HASH
 10
14.19080094061519
 20
-92.31887678418188
 30
0.0
  0
VERTEX
  5
251
  8
HASH
 10
14.27380148341305
 20
-92.32306729279043
 30
0.0
  0
VERTEX
  5
252
  8
HASH
 10
14.36125869588835
 20
-92.31933897263134
 30
0.0
  0
VERTEX
  5
253
  8
HASH
 10
14.44315493115553
 20
-92.30815401215412
 30
0.0
  0
VERTEX
  5
254
  8
HASH
 10
14.51949018921458
 20
-92.28951241135874
 30
0.0
  0
VERTEX
  5
255
  8
HASH
 10
14.5902644700655
 20
-92.26341417024524
 30
0.0
  0
VERTEX
  5
256
  8
HASH
 10
14.6554777737083
 20
-92.22985928881357
 30
0.0
  0
VERTEX
  5
257
  8
HASH
 10
14.71513010014298
 20
-92.18884776706375
 30
0.0
  0
VERTEX
  5
258
  8
HASH
 10
14.76922144936952
 20
-92.14037960499579
 30
0.0
  0
VERTEX
  5
259
  8
HASH
 10
14.81775182138795
 20
-92.0844548026097
 30
0.0
  0
VERTEX
  5
25A
  8
HASH
 10
14.89781411736308
 20
-91.96009529713845
 30
0.0
  0
VERTEX
  5
25B
  8
HASH
 10
14.95500147163104
 20
-91.82562927090541
 30
0.0
  0
VERTEX
  5
25C
  8
HASH
 10
14.98931388419181
 20
-91.68105672391056
 30
0.0
  0
VERTEX
  5
25D
  8
HASH
 10
15.0007513550454
 20
-91.52637765615395
 30
0.0
  0
VERTEX
  5
25E
  8
HASH
 10
14.99593972937596
 20
-91.42765420334676
 30
0.0
  0
VERTEX
  5
25F
  8
HASH
 10
14.98150485236763
 20
-91.33657226623748
 30
0.0
  0
VERTEX
  5
260
  8
HASH
 10
14.95744672402042
 20
-91.25313184482614
 30
0.0
  0
VERTEX
  5
261
  8
HASH
 10
14.92376534433433
 20
-91.17733293911273
 30
0.0
  0
VERTEX
  5
262
  8
HASH
 10
14.87809434002931
 20
-91.10769654605895
 30
0.0
  0
VERTEX
  5
263
  8
HASH
 10
14.81806733782529
 20
-91.04274366262649
 30
0.0
  0
VERTEX
  5
264
  8
HASH
 10
14.74368433772228
 20
-90.98247428881535
 30
0.0
  0
VERTEX
  5
265
  8
HASH
 10
14.65494533972029
 20
-90.92688842462553
 30
0.0
  0
VERTEX
  5
266
  8
HASH
 10
14.43976312945412
 20
-90.8282882220715
 30
0.0
  0
VERTEX
  5
267
  8
HASH
 10
14.05672617452284
 20
-90.67447190608723
 30
0.0
  0
VERTEX
  5
268
  8
HASH
 10
13.91214076711159
 20
-90.61463390816226
 30
0.0
  0
VERTEX
  5
269
  8
HASH
 10
13.77875619322592
 20
-90.55146815340109
 30
0.0
  0
VERTEX
  5
26A
  8
HASH
 10
13.65657245286584
 20
-90.48497464180372
 30
0.0
  0
VERTEX
  5
26B
  8
HASH
 10
13.54558954603135
 20
-90.41515337337017
 30
0.0
  0
VERTEX
  5
26C
  8
HASH
 10
13.44580747272244
 20
-90.3420043481004
 30
0.0
  0
VERTEX
  5
26D
  8
HASH
 10
13.35722623293911
 20
-90.26552756599445
 30
0.0
  0
VERTEX
  5
26E
  8
HASH
 10
13.27984582668137
 20
-90.18572302705229
 30
0.0
  0
VERTEX
  5
26F
  8
HASH
 10
13.21366625394922
 20
-90.10259073127393
 30
0.0
  0
VERTEX
  5
270
  8
HASH
 10
13.13380115574742
 20
-89.98001835447398
 30
0.0
  0
VERTEX
  5
271
  8
HASH
 10
13.06458473730587
 20
-89.8509137142548
 30
0.0
  0
VERTEX
  5
272
  8
HASH
 10
13.00601699862455
 20
-89.71527681061644
 30
0.0
  0
VERTEX
  5
273
  8
HASH
 10
12.95809793970347
 20
-89.57310764355887
 30
0.0
  0
VERTEX
  5
274
  8
HASH
 10
12.92082756054264
 20
-89.4244062130821
 30
0.0
  0
VERTEX
  5
275
  8
HASH
 10
12.89420586114204
 20
-89.2691725191861
 30
0.0
  0
VERTEX
  5
276
  8
HASH
 10
12.87823284150168
 20
-89.10740656187092
 30
0.0
  0
VERTEX
  5
277
  8
HASH
 10
12.87290850162156
 20
-88.93910834113652
 30
0.0
  0
VERTEX
  5
278
  8
HASH
 10
12.88292614850712
 20
-88.7218181447581
 30
0.0
  0
VERTEX
  5
279
  8
HASH
 10
12.91297908916379
 20
-88.51167646306484
 30
0.0
  0
VERTEX
  5
27A
  8
HASH
 10
12.96306732359158
 20
-88.30868329605677
 30
0.0
  0
VERTEX
  5
27B
  8
HASH
 10
13.03319085179049
 20
-88.11283864373385
 30
0.0
  0
VERTEX
  5
27C
  8
HASH
 10
13.12216648712049
 20
-87.93203052230042
 30
0.0
  0
VERTEX
  5
27D
  8
HASH
 10
13.22881104294156
 20
-87.77414694796082
 30
0.0
  0
VERTEX
  5
27E
  8
HASH
 10
13.35312451925369
 20
-87.63918792071499
 30
0.0
  0
VERTEX
  5
27F
  8
HASH
 10
13.49510691605688
 20
-87.52715344056298
 30
0.0
  0
VERTEX
  5
280
  8
HASH
 10
13.65373280492978
 20
-87.43915275978352
 30
0.0
  0
VERTEX
  5
281
  8
HASH
 10
13.82797675745103
 20
-87.37629513065534
 30
0.0
  0
VERTEX
  5
282
  8
HASH
 10
14.01783877362063
 20
-87.33858055317842
 30
0.0
  0
VERTEX
  5
283
  8
HASH
 10
14.22331885343858
 20
-87.32600902735278
 30
0.0
  0
VERTEX
  5
284
  8
HASH
 10
14.39210042763838
 20
-87.33346566767094
 30
0.0
  0
VERTEX
  5
285
  8
HASH
 10
14.55011500341393
 20
-87.35583558862537
 30
0.0
  0
VERTEX
  5
286
  8
HASH
 10
14.69736258076524
 20
-87.3931187902161
 30
0.0
  0
VERTEX
  5
287
  8
HASH
 10
14.83384315969231
 20
-87.44531527244314
 30
0.0
  0
VERTEX
  5
288
  8
HASH
 10
14.95955674019514
 20
-87.51242503530648
 30
0.0
  0
VERTEX
  5
289
  8
HASH
 10
15.07450332227372
 20
-87.59444807880611
 30
0.0
  0
VERTEX
  5
28A
  8
HASH
 10
15.17868290592807
 20
-87.69138440294203
 30
0.0
  0
VERTEX
  5
28B
  8
HASH
 10
15.27209549115817
 20
-87.80323400771424
 30
0.0
  0
VERTEX
  5
28C
  8
HASH
 10
15.35489883618269
 20
-87.9275318880589
 30
0.0
  0
VERTEX
  5
28D
  8
HASH
 10
15.42725069922032
 20
-88.06181303891215
 30
0.0
  0
VERTEX
  5
28E
  8
HASH
 10
15.48915108027104
 20
-88.206077460274
 30
0.0
  0
VERTEX
  5
28F
  8
HASH
 10
15.54059997933487
 20
-88.36032515214444
 30
0.0
  0
VERTEX
  5
290
  8
HASH
 10
15.58159739641179
 20
-88.52455611452348
 30
0.0
  0
VERTEX
  5
291
  8
HASH
 10
15.61214333150181
 20
-88.69877034741111
 30
0.0
  0
VERTEX
  5
292
  8
HASH
 10
15.63223778460493
 20
-88.88296785080733
 30
0.0
  0
VERTEX
  5
293
  8
HASH
 10
15.64188075572114
 20
-89.07714862471215
 30
0.0
  0
VERTEX
  5
294
  8
HASH
 10
14.89473783209901
 20
-89.12842073004023
 30
0.0
  0
VERTEX
  5
295
  8
HASH
 10
14.86389610034899
 20
-88.92123705442361
 30
0.0
  0
VERTEX
  5
296
  8
HASH
 10
14.81932940357465
 20
-88.74535894311788
 30
0.0
  0
VERTEX
  5
297
  8
HASH
 10
14.76103774177601
 20
-88.60078639612304
 30
0.0
  0
VERTEX
  5
298
  8
HASH
 10
14.68902111495306
 20
-88.48751941343912
 30
0.0
  0
VERTEX
  5
299
  8
HASH
 10
14.64711658811878
 20
-88.4417627569414
 30
0.0
  0
VERTEX
  5
29A
  8
HASH
 10
14.60028211695106
 20
-88.40210698797671
 30
0.0
  0
VERTEX
  5
29B
  8
HASH
 10
14.5485177014499
 20
-88.36855210654504
 30
0.0
  0
VERTEX
  5
29C
  8
HASH
 10
14.49182334161529
 20
-88.3410981126464
 30
0.0
  0
VERTEX
  5
29D
  8
HASH
 10
14.36364478894574
 20
-88.30449278744823
 30
0.0
  0
VERTEX
  5
29E
  8
HASH
 10
14.21574645894241
 20
-88.29229101238217
 30
0.0
  0
VERTEX
  5
29F
  8
HASH
 10
14.06177443752028
 20
-88.30535553922059
 30
0.0
  0
VERTEX
  5
2A0
  8
HASH
 10
13.92547133658922
 20
-88.3445491197358
 30
0.0
  0
VERTEX
  5
2A1
  8
HASH
 10
13.86394563130784
 20
-88.37394430512221
 30
0.0
  0
VERTEX
  5
2A2
  8
HASH
 10
13.80683715614922
 20
-88.40987175392783
 30
0.0
  0
VERTEX
  5
2A3
  8
HASH
 10
13.75414591111337
 20
-88.45233146615264
 30
0.0
  0
VERTEX
  5
2A4
  8
HASH
 10
13.70587189620028
 20
-88.50132344179669
 30
0.0
  0
VERTEX
  5
2A5
  8
HASH
 10
13.65396944225778
 20
-88.57404109118028
 30
0.0
  0
VERTEX
  5
2A6
  8
HASH
 10
13.61689626087028
 20
-88.65809776385757
 30
0.0
  0
VERTEX
  5
2A7
  8
HASH
 10
13.59465235203778
 20
-88.75349345982858
 30
0.0
  0
VERTEX
  5
2A8
  8
HASH
 10
13.58723771576028
 20
-88.86022817909331
 30
0.0
  0
VERTEX
  5
2A9
  8
HASH
 10
13.59417907738177
 20
-88.95907488215371
 30
0.0
  0
VERTEX
  5
2AA
  8
HASH
 10
13.61500316224624
 20
-89.05052657002256
 30
0.0
  0
VERTEX
  5
2AB
  8
HASH
 10
13.64970997035369
 20
-89.13458324269985
 30
0.0
  0
VERTEX
  5
2AC
  8
HASH
 10
13.69829950170411
 20
-89.2112449001856
 30
0.0
  0
VERTEX
  5
2AD
  8
HASH
 10
13.73994767143305
 20
-89.25783349589237
 30
0.0
  0
VERTEX
  5
2AE
  8
HASH
 10
13.7942164986556
 20
-89.30491509261192
 30
0.0
  0
VERTEX
  5
2AF
  8
HASH
 10
13.94061612558156
 20
-89.40055728908933
 30
0.0
  0
VERTEX
  5
2B0
  8
HASH
 10
14.13749838248199
 20
-89.49817148961782
 30
0.0
  0
VERTEX
  5
2B1
  8
HASH
 10
14.38486326935688
 20
-89.59775769419736
 30
0.0
  0
VERTEX
  5
2B2
  8
HASH
 10
14.63972167161861
 20
-89.6991926525748
 30
0.0
  0
VERTEX
  5
2B3
  8
HASH
 10
14.85908447467954
 20
-89.80235311449695
 30
0.0
  0
VERTEX
  5
2B4
  8
HASH
 10
15.04295167853968
 20
-89.90723907996379
 30
0.0
  0
VERTEX
  5
2B5
  8
HASH
 10
15.19132328319902
 20
-90.01385054897531
 30
0.0
  0
VERTEX
  5
2B6
  8
HASH
 10
15.31484796841779
 20
-90.1311847900146
 30
0.0
  0
VERTEX
  5
2B7
  8
HASH
 10
15.42417441395625
 20
-90.26823907156466
 30
0.0
  0
VERTEX
  5
2B8
  8
HASH
 10
15.51930261981439
 20
-90.42501339362556
 30
0.0
  0
VERTEX
  5
2B9
  8
HASH
 10
15.60023258599221
 20
-90.60150775619726
 30
0.0
  0
VERTEX
  5
2BA
  8
HASH
 10
15.66483457653766
 20
-90.7988314115585
 30
0.0
  0
VERTEX
  5
2BB
  8
HASH
 10
15.7109788554987
 20
-91.01809361198801
 30
0.0
  0
VERTEX
  5
2BC
  8
HASH
 10
15.73866542287532
 20
-91.25929435748577
 30
0.0
  0
VERTEX
  5
2BD
  8
HASH
 10
15.74789427866753
 20
-91.52243364805179
 30
0.0
  0
VERTEX
  5
2BE
  8
HASH
 10
15.73685120336061
 20
-91.76696215038575
 30
0.0
  0
VERTEX
  5
2BF
  8
HASH
 10
15.70372197743987
 20
-92.00360263651538
 30
0.0
  0
VERTEX
  5
2C0
  8
HASH
 10
15.64850660090529
 20
-92.2323551064407
 30
0.0
  0
VERTEX
  5
2C1
  8
HASH
 10
15.57120507375689
 20
-92.45321956016173
 30
0.0
  0
VERTEX
  5
2C2
  8
HASH
 10
15.4737104946187
 20
-92.6562127271698
 30
0.0
  0
VERTEX
  5
2C3
  8
HASH
 10
15.41810072253745
 20
-92.74726385171579
 30
0.0
  0
VERTEX
  5
2C4
  8
HASH
 10
15.35791596211476
 20
-92.83135133695637
 30
0.0
  0
VERTEX
  5
2C5
  8
HASH
 10
15.29315621335064
 20
-92.90847518289159
 30
0.0
  0
VERTEX
  5
2C6
  8
HASH
 10
15.22382147624508
 20
-92.97863538952143
 30
0.0
  0
VERTEX
  5
2C7
  8
HASH
 10
15.14991175079808
 20
-93.0418319568459
 30
0.0
  0
VERTEX
  5
2C8
  8
HASH
 10
15.07142703700965
 20
-93.098064884865
 30
0.0
  0
VERTEX
  5
2C9
  8
HASH
 10
14.98817013710645
 20
-93.14751904895851
 30
0.0
  0
VERTEX
  5
2CA
  8
HASH
 10
14.89994385331513
 20
-93.19037932450621
 30
0.0
  0
VERTEX
  5
2CB
  8
HASH
 10
14.8067481856357
 20
-93.22664571150813
 30
0.0
  0
VERTEX
  5
2CC
  8
HASH
 10
14.70858313406816
 20
-93.2563182099642
 30
0.0
  0
VERTEX
  5
2CD
  8
HASH
 10
14.49734487926875
 20
-93.295881541239
 30
0.0
  0
VERTEX
  5
2CE
  8
HASH
 10
14.26622908891688
 20
-93.3090693183306
 30
0.0
  0
VERTEX
  5
2CF
  8
HASH
 10
14.09588965230772
 20
-93.30115048956299
 30
0.0
  0
VERTEX
  5
2D0
  8
HASH
 10
13.93572562080278
 20
-93.27739400326013
 30
0.0
  0
VERTEX
  5
2D1
  8
HASH
 10
13.78573699440208
 20
-93.23779985942201
 30
0.0
  0
VERTEX
  5
2D2
  8
HASH
 10
13.6459237731056
 20
-93.18236805804868
 30
0.0
  0
VERTEX
  5
2D3
  8
HASH
 10
13.51628595691336
 20
-93.11109859914009
 30
0.0
  0
VERTEX
  5
2D4
  8
HASH
 10
13.39682354582534
 20
-93.02399148269629
 30
0.0
  0
VERTEX
  5
2D5
  8
HASH
 10
13.28753653984155
 20
-92.92104670871724
 30
0.0
  0
VERTEX
  5
2D6
  8
HASH
 10
13.18842493896198
 20
-92.80226427720295
 30
0.0
  0
VERTEX
  5
2D7
  8
HASH
 10
13.09913378719464
 20
-92.66832206454598
 30
0.0
  0
VERTEX
  5
2D8
  8
HASH
 10
13.01930812854751
 20
-92.51989794713887
 30
0.0
  0
VERTEX
  5
2D9
  8
HASH
 10
12.9489479630206
 20
-92.35699192498167
 30
0.0
  0
VERTEX
  5
2DA
  8
HASH
 10
12.8880532906139
 20
-92.17960399807433
 30
0.0
  0
VERTEX
  5
2DB
  8
HASH
 10
12.83662411132741
 20
-91.98773416641687
 30
0.0
  0
VERTEX
  5
2DC
  8
HASH
 10
12.79466042516113
 20
-91.78138243000927
 30
0.0
  0
VERTEX
  5
2DD
  8
HASH
 10
12.76216223211507
 20
-91.56054878885158
 30
0.0
  0
SEQEND
  5
37B
  8
HASH
  0
POLYLINE
  5
7F
  8
HASH
 66
     1
 10
0.0
 20
0.0
 30
0.0
 70
     1
  0
VERTEX
  5
2DE
  8
HASH
 10
16.22495513192626
 20
-90.35106324171007
 30
0.0
  0
VERTEX
  5
2DF
  8
HASH
 10
16.23552493257716
 20
-89.92708237072779
 30
0.0
  0
VERTEX
  5
2E0
  8
HASH
 10
16.26723433452987
 20
-89.53859757266494
 30
0.0
  0
VERTEX
  5
2E1
  8
HASH
 10
16.3200833377844
 20
-89.18560884752156
 30
0.0
  0
VERTEX
  5
2E2
  8
HASH
 10
16.39407194234073
 20
-88.86811619529763
 30
0.0
  0
VERTEX
  5
2E3
  8
HASH
 10
16.46293340479028
 20
-88.6529212532235
 30
0.0
  0
VERTEX
  5
2E4
  8
HASH
 10
16.54331121720275
 20
-88.44906533444305
 30
0.0
  0
VERTEX
  5
2E5
  8
HASH
 10
16.63520537957815
 20
-88.25654843895634
 30
0.0
  0
VERTEX
  5
2E6
  8
HASH
 10
16.73861589191647
 20
-88.07537056676333
 30
0.0
  0
VERTEX
  5
2E7
  8
HASH
 10
16.85038758984432
 20
-87.91120122951088
 30
0.0
  0
VERTEX
  5
2E8
  8
HASH
 10
16.96736530898828
 20
-87.76970993884586
 30
0.0
  0
VERTEX
  5
2E9
  8
HASH
 10
17.08954904934836
 20
-87.65089669476828
 30
0.0
  0
VERTEX
  5
2EA
  8
HASH
 10
17.21693881092456
 20
-87.55476149727811
 30
0.0
  0
VERTEX
  5
2EB
  8
HASH
 10
17.30504677605188
 20
-87.50114763713935
 30
0.0
  0
VERTEX
  5
2EC
  8
HASH
 10
17.39646766377127
 20
-87.45468229168578
 30
0.0
  0
VERTEX
  5
2ED
  8
HASH
 10
17.49120147408273
 20
-87.41536546091737
 30
0.0
  0
VERTEX
  5
2EE
  8
HASH
 10
17.58924820698627
 20
-87.38319714483411
 30
0.0
  0
VERTEX
  5
2EF
  8
HASH
 10
17.69060786248188
 20
-87.35817734343604
 30
0.0
  0
VERTEX
  5
2F0
  8
HASH
 10
17.79528044056957
 20
-87.34030605672312
 30
0.0
  0
VERTEX
  5
2F1
  8
HASH
 10
18.01456436452116
 20
-87.32600902735278
 30
0.0
  0
VERTEX
  5
2F2
  8
HASH
 10
18.21391159358831
 20
-87.33839567779863
 30
0.0
  0
VERTEX
  5
2F3
  8
HASH
 10
18.40304397799656
 20
-87.37555562913617
 30
0.0
  0
VERTEX
  5
2F4
  8
HASH
 10
18.58196151774592
 20
-87.43748888136541
 30
0.0
  0
VERTEX
  5
2F5
  8
HASH
 10
18.75066421283638
 20
-87.52419543448636
 30
0.0
  0
VERTEX
  5
2F6
  8
HASH
 10
18.90915206326794
 20
-87.63567528849899
 30
0.0
  0
VERTEX
  5
2F7
  8
HASH
 10
19.0574250690406
 20
-87.77192844340333
 30
0.0
  0
VERTEX
  5
2F8
  8
HASH
 10
19.19548323015438
 20
-87.93295489919936
 30
0.0
  0
VERTEX
  5
2F9
  8
HASH
 10
19.32332654660925
 20
-88.11875465588709
 30
0.0
  0
VERTEX
  5
2FA
  8
HASH
 10
19.43839144735184
 20
-88.32661620789628
 30
0.0
  0
VERTEX
  5
2FB
  8
HASH
 10
19.53811436132875
 20
-88.55382804965669
 30
0.0
  0
VERTEX
  5
2FC
  8
HASH
 10
19.62249528853998
 20
-88.80039018116834
 30
0.0
  0
VERTEX
  5
2FD
  8
HASH
 10
19.69153422898553
 20
-89.06630260243121
 30
0.0
  0
VERTEX
  5
2FE
  8
HASH
 10
19.74523118266541
 20
-89.3515653134453
 30
0.0
  0
VERTEX
  5
2FF
  8
HASH
 10
19.78358614957961
 20
-89.65617831421062
 30
0.0
  0
VERTEX
  5
300
  8
HASH
 10
19.80659912972812
 20
-89.98014160472717
 30
0.0
  0
VERTEX
  5
301
  8
HASH
 10
19.81427012311096
 20
-90.32345518499494
 30
0.0
  0
VERTEX
  5
302
  8
HASH
 10
19.80665828906012
 20
-90.66396482200258
 30
0.0
  0
VERTEX
  5
303
  8
HASH
 10
19.78382278690761
 20
-90.98543229489198
 30
0.0
  0
VERTEX
  5
304
  8
HASH
 10
19.74576361665342
 20
-91.28785760366313
 30
0.0
  0
VERTEX
  5
305
  8
HASH
 10
19.69248077829755
 20
-91.57124074831603
 30
0.0
  0
VERTEX
  5
306
  8
HASH
 10
19.62397427184002
 20
-91.8355817288507
 30
0.0
  0
VERTEX
  5
307
  8
HASH
 10
19.5402440972808
 20
-92.08088054526712
 30
0.0
  0
VERTEX
  5
308
  8
HASH
 10
19.44129025461991
 20
-92.30713719756528
 30
0.0
  0
VERTEX
  5
309
  8
HASH
 10
19.32711274385734
 20
-92.51435168574521
 30
0.0
  0
VERTEX
  5
30A
  8
HASH
 10
19.20019625693715
 20
-92.69968925398346
 30
0.0
  0
VERTEX
  5
30B
  8
HASH
 10
19.0630254858034
 20
-92.86031514645663
 30
0.0
  0
VERTEX
  5
30C
  8
HASH
 10
18.91560043045608
 20
-92.9962293631647
 30
0.0
  0
VERTEX
  5
30D
  8
HASH
 10
18.75792109089521
 20
-93.10743190410764
 30
0.0
  0
VERTEX
  5
30E
  8
HASH
 10
18.58998746712077
 20
-93.1939227692855
 30
0.0
  0
VERTEX
  5
30F
  8
HASH
 10
18.41179955913276
 20
-93.25570195869825
 30
0.0
  0
VERTEX
  5
310
  8
HASH
 10
18.22335736693119
 20
-93.29276947234591
 30
0.0
  0
VERTEX
  5
311
  8
HASH
 10
18.02466089051606
 20
-93.30512531022845
 30
0.0
  0
VERTEX
  5
312
  8
HASH
 10
17.82359804082087
 20
-93.2928310974725
 30
0.0
  0
VERTEX
  5
313
  8
HASH
 10
17.63310499177658
 20
-93.25594845920463
 30
0.0
  0
VERTEX
  5
314
  8
HASH
 10
17.4531817433832
 20
-93.19447739542487
 30
0.0
  0
VERTEX
  5
315
  8
HASH
 10
17.28382829564073
 20
-93.10841790613318
 30
0.0
  0
VERTEX
  5
316
  8
HASH
 10
17.12504464854916
 20
-92.9977699913296
 30
0.0
  0
VERTEX
  5
317
  8
HASH
 10
16.9768308021085
 20
-92.8625336510141
 30
0.0
  0
VERTEX
  5
318
  8
HASH
 10
16.83918675631874
 20
-92.7027088851867
 30
0.0
  0
VERTEX
  5
319
  8
HASH
 10
16.71211251117988
 20
-92.51829569384738
 30
0.0
  0
VERTEX
  5
31A
  8
HASH
 10
16.59793500041731
 20
-92.31231370819938
 30
0.0
  0
VERTEX
  5
31B
  8
HASH
 10
16.49898115775642
 20
-92.08778255944591
 30
0.0
  0
VERTEX
  5
31C
  8
HASH
 10
16.4152509831972
 20
-91.84470224758697
 30
0.0
  0
VERTEX
  5
31D
  8
HASH
 10
16.34674447673967
 20
-91.58307277262253
 30
0.0
  0
VERTEX
  5
31E
  8
HASH
 10
16.2934616383838
 20
-91.30289413455263
 30
0.0
  0
VERTEX
  5
31F
  8
HASH
 10
16.25540246812961
 20
-91.00416633337724
 30
0.0
  0
VERTEX
  5
320
  8
HASH
 10
16.23256696597709
 20
-90.68688936909639
 30
0.0
  0
SEQEND
  5
37C
  8
HASH
  0
POLYLINE
  5
80
  8
HASH
 66
     1
 10
0.0
 20
0.0
 30
0.0
 70
     1
  0
VERTEX
  5
321
  8
HASH
 10
16.9948152390369
 20
-90.31162316068846
 30
0.0
  0
VERTEX
  5
322
  8
HASH
 10
16.99935078782367
 20
-90.5497118372931
 30
0.0
  0
VERTEX
  5
323
  8
HASH
 10
17.01295743418397
 20
-90.77294885838806
 30
0.0
  0
VERTEX
  5
324
  8
HASH
 10
17.03563517811781
 20
-90.98133422397332
 30
0.0
  0
VERTEX
  5
325
  8
HASH
 10
17.0673840196252
 20
-91.17486793404888
 30
0.0
  0
VERTEX
  5
326
  8
HASH
 10
17.10820395870611
 20
-91.35354998861474
 30
0.0
  0
VERTEX
  5
327
  8
HASH
 10
17.15809499536057
 20
-91.5173803876709
 30
0.0
  0
VERTEX
  5
328
  8
HASH
 10
17.21705712958856
 20
-91.66635913121736
 30
0.0
  0
VERTEX
  5
329
  8
HASH
 10
17.28509036139009
 20
-91.80048621925413
 30
0.0
  0
VERTEX
  5
32A
  8
HASH
 10
17.36010439436778
 20
-91.91926865076842
 30
0.0
  0
VERTEX
  5
32B
  8
HASH
 10
17.44000893212424
 20
-92.02221342474746
 30
0.0
  0
VERTEX
  5
32C
  8
HASH
 10
17.52480397465948
 20
-92.10932054119127
 30
0.0
  0
VERTEX
  5
32D
  8
HASH
 10
17.6144895219735
 20
-92.18059000009985
 30
0.0
  0
VERTEX
  5
32E
  8
HASH
 10
17.70906557406629
 20
-92.23602180147319
 30
0.0
  0
VERTEX
  5
32F
  8
HASH
 10
17.80853213093786
 20
-92.2756159453113
 30
0.0
  0
VERTEX
  5
330
  8
HASH
 10
17.91288919258821
 20
-92.29937243161416
 30
0.0
  0
VERTEX
  5
331
  8
HASH
 10
18.02213675901733
 20
-92.30729126038177
 30
0.0
  0
VERTEX
  5
332
  8
HASH
 10
18.13132516611445
 20
-92.29943405674075
 30
0.0
  0
VERTEX
  5
333
  8
HASH
 10
18.23550474976879
 20
-92.27586244581768
 30
0.0
  0
VERTEX
  5
334
  8
HASH
 10
18.33467550998036
 20
-92.23657642761256
 30
0.0
  0
VERTEX
  5
335
  8
HASH
 10
18.42883744674914
 20
-92.1815760021254
 30
0.0
  0
VERTEX
  5
336
  8
HASH
 10
18.51799056007514
 20
-92.11086116935618
 30
0.0
  0
VERTEX
  5
337
  8
HASH
 10
18.60213484995837
 20
-92.02443192930494
 30
0.0
  0
VERTEX
  5
338
  8
HASH
 10
18.68127031639882
 20
-91.92228828197163
 30
0.0
  0
VERTEX
  5
339
  8
HASH
 10
18.75539695939649
 20
-91.80443022735629
 30
0.0
  0
VERTEX
  5
33A
  8
HASH
 10
18.822542801218
 20
-91.67085776545889
 30
0.0
  0
VERTEX
  5
33B
  8
HASH
 10
18.88073586412997
 20
-91.52157089627946
 30
0.0
  0
VERTEX
  5
33C
  8
HASH
 10
18.92997614813241
 20
-91.35656961981795
 30
0.0
  0
VERTEX
  5
33D
  8
HASH
 10
18.97026365322532
 20
-91.17585393607442
 30
0.0
  0
VERTEX
  5
33E
  8
HASH
 10
19.00159837940869
 20
-90.97942384504883
 30
0.0
  0
VERTEX
  5
33F
  8
HASH
 10
19.02398032668252
 20
-90.7672793467412
 30
0.0
  0
VERTEX
  5
340
  8
HASH
 10
19.03740949504682
 20
-90.53942044115152
 30
0.0
  0
VERTEX
  5
341
  8
HASH
 10
19.04188588450159
 20
-90.2958471282798
 30
0.0
  0
VERTEX
  5
342
  8
HASH
 10
19.03752781371083
 20
-90.055262634048
 30
0.0
  0
VERTEX
  5
343
  8
HASH
 10
19.02445360133854
 20
-89.83045417222485
 30
0.0
  0
VERTEX
  5
344
  8
HASH
 10
19.00266324738471
 20
-89.62142174281033
 30
0.0
  0
VERTEX
  5
345
  8
HASH
 10
18.97215675184936
 20
-89.42816534580444
 30
0.0
  0
VERTEX
  5
346
  8
HASH
 10
18.93293411473247
 20
-89.2506849812072
 30
0.0
  0
VERTEX
  5
347
  8
HASH
 10
18.88499533603406
 20
-89.08898064901862
 30
0.0
  0
VERTEX
  5
348
  8
HASH
 10
18.82834041575412
 20
-88.94305234923868
 30
0.0
  0
VERTEX
  5
349
  8
HASH
 10
18.76296935389265
 20
-88.81290008186738
 30
0.0
  0
VERTEX
  5
34A
  8
HASH
 10
18.69038085352702
 20
-88.69827734639833
 30
0.0
  0
VERTEX
  5
34B
  8
HASH
 10
18.61207361773459
 20
-88.59893764232515
 30
0.0
  0
VERTEX
  5
34C
  8
HASH
 10
18.52804764651537
 20
-88.51488096964786
 30
0.0
  0
VERTEX
  5
34D
  8
HASH
 10
18.43830293986935
 20
-88.44610732836642
 30
0.0
  0
VERTEX
  5
34E
  8
HASH
 10
18.34283949779654
 20
-88.39261671848087
 30
0.0
  0
VERTEX
  5
34F
  8
HASH
 10
18.24165732029693
 20
-88.35440913999119
 30
0.0
  0
VERTEX
  5
350
  8
HASH
 10
18.13475640737053
 20
-88.33148459289738
 30
0.0
  0
VERTEX
  5
351
  8
HASH
 10
18.02213675901733
 20
-88.32384307719944
 30
0.0
  0
VERTEX
  5
352
  8
HASH
 10
17.90945795133213
 20
-88.33157703058727
 30
0.0
  0
VERTEX
  5
353
  8
HASH
 10
17.80237956040972
 20
-88.35477889075077
 30
0.0
  0
VERTEX
  5
354
  8
HASH
 10
17.7009015862501
 20
-88.39344865768993
 30
0.0
  0
VERTEX
  5
355
  8
HASH
 10
17.60502402885329
 20
-88.44758633140474
 30
0.0
  0
VERTEX
  5
356
  8
HASH
 10
17.51474688821926
 20
-88.51719191189522
 30
0.0
  0
VERTEX
  5
357
  8
HASH
 10
17.43007016434802
 20
-88.60226539916135
 30
0.0
  0
VERTEX
  5
358
  8
HASH
 10
17.35099385723958
 20
-88.70280679320317
 30
0.0
  0
VERTEX
  5
359
  8
HASH
 10
17.27751796689392
 20
-88.81881609402062
 30
0.0
  0
VERTEX
  5
35A
  8
HASH
 10
17.21125951505243
 20
-88.95041655186694
 30
0.0
  0
VERTEX
  5
35B
  8
HASH
 10
17.15383552345648
 20
-89.09773141699529
 30
0.0
  0
VERTEX
  5
35C
  8
HASH
 10
17.10524599210605
 20
-89.26076068940571
 30
0.0
  0
VERTEX
  5
35D
  8
HASH
 10
17.06549092100116
 20
-89.43950436909816
 30
0.0
  0
VERTEX
  5
35E
  8
HASH
 10
17.0345703101418
 20
-89.63396245607267
 30
0.0
  0
VERTEX
  5
35F
  8
HASH
 10
17.01248415952796
 20
-89.8441349503292
 30
0.0
  0
VERTEX
  5
360
  8
HASH
 10
16.99923246915967
 20
-90.0700218518678
 30
0.0
  0
SEQEND
  5
37D
  8
HASH
  0
POLYLINE
  5
81
  8
HASH
 66
     1
 10
0.0
 20
0.0
 30
0.0
 70
     1
  0
VERTEX
  5
361
  8
HASH
 10
20.40491689381223
 20
-93.20652510767442
 30
0.0
  0
VERTEX
  5
362
  8
HASH
 10
20.40491689381223
 20
-87.4246092299068
 30
0.0
  0
VERTEX
  5
363
  8
HASH
 10
21.13186676544458
 20
-87.4246092299068
 30
0.0
  0
VERTEX
  5
364
  8
HASH
 10
22.64634566467863
 20
-91.28579316192216
 30
0.0
  0
VERTEX
  5
365
  8
HASH
 10
22.64634566467863
 20
-87.4246092299068
 30
0.0
  0
VERTEX
  5
366
  8
HASH
 10
23.34048182682757
 20
-87.4246092299068
 30
0.0
  0
VERTEX
  5
367
  8
HASH
 10
23.34048182682757
 20
-93.20652510767442
 30
0.0
  0
VERTEX
  5
368
  8
HASH
 10
22.59081477170671
 20
-93.20652510767442
 30
0.0
  0
VERTEX
  5
369
  8
HASH
 10
21.09905305596117
 20
-89.43605336200878
 30
0.0
  0
VERTEX
  5
36A
  8
HASH
 10
21.09905305596117
 20
-93.20652510767442
 30
0.0
  0
SEQEND
  5
37E
  8
HASH
  0
ENDSEC
  0
EOF
