  0
SECTION
  2
HEADER
  9
$ACADVER
  1
AC1009
  9
$DWGCODEPAGE
  3
ansi_1252
  9
$INSBASE
 10
0.0
 20
0.0
 30
0.0
  9
$EXTMIN
 10
-81.69906109001624
 20
-79.09546021910833
 30
0.0
  9
$EXTMAX
 10
-61.71657870387062
 20
-65.36521876178344
 30
0.0
  9
$LIMMIN
 10
0.0
 20
0.0
  9
$LIMMAX
 10
12.0
 20
9.0
  9
$ORTHOMODE
 70
     0
  9
$REGENMODE
 70
     1
  9
$FILLMODE
 70
     1
  9
$QTEXTMODE
 70
     0
  9
$MIRRTEXT
 70
     1
  9
$DRAGMODE
 70
     2
  9
$LTSCALE
 40
1.0
  9
$OSMODE
 70
    37
  9
$ATTMODE
 70
     1
  9
$TEXTSIZE
 40
0.2
  9
$TRACEWID
 40
0.05
  9
$TEXTSTYLE
  7
STANDARD
  9
$CLAYER
  8
0
  9
$CELTYPE
  6
BYLAYER
  9
$CECOLOR
 62
   256
  9
$DIMSCALE
 40
1.0
  9
$DIMASZ
 40
0.18
  9
$DIMEXO
 40
0.0625
  9
$DIMDLI
 40
0.38
  9
$DIMRND
 40
0.0
  9
$DIMDLE
 40
0.0
  9
$DIMEXE
 40
0.18
  9
$DIMTP
 40
0.0
  9
$DIMTM
 40
0.0
  9
$DIMTXT
 40
0.18
  9
$DIMCEN
 40
0.09
  9
$DIMTSZ
 40
0.0
  9
$DIMTOL
 70
     0
  9
$DIMLIM
 70
     0
  9
$DIMTIH
 70
     1
  9
$DIMTOH
 70
     1
  9
$DIMSE1
 70
     0
  9
$DIMSE2
 70
     0
  9
$DIMTAD
 70
     0
  9
$DIMZIN
 70
     0
  9
$DIMBLK
  1

  9
$DIMASO
 70
     1
  9
$DIMSHO
 70
     1
  9
$DIMPOST
  1

  9
$DIMAPOST
  1

  9
$DIMALT
 70
     0
  9
$DIMALTD
 70
     2
  9
$DIMALTF
 40
25.4
  9
$DIMLFAC
 40
1.0
  9
$DIMTOFL
 70
     0
  9
$DIMTVP
 40
0.0
  9
$DIMTIX
 70
     0
  9
$DIMSOXD
 70
     0
  9
$DIMSAH
 70
     0
  9
$DIMBLK1
  1

  9
$DIMBLK2
  1

  9
$DIMSTYLE
  2
STANDARD
  9
$DIMCLRD
 70
     0
  9
$DIMCLRE
 70
     0
  9
$DIMCLRT
 70
     0
  9
$DIMTFAC
 40
1.0
  9
$DIMGAP
 40
0.09
  9
$LUNITS
 70
     2
  9
$LUPREC
 70
     4
  9
$SKETCHINC
 40
0.1
  9
$FILLETRAD
 40
0.5
  9
$AUNITS
 70
     0
  9
$AUPREC
 70
     0
  9
$MENU
  1
.
  9
$ELEVATION
 40
0.0
  9
$PELEVATION
 40
0.0
  9
$THICKNESS
 40
0.0
  9
$LIMCHECK
 70
     0
  9
$CHAMFERA
 40
0.0
  9
$CHAMFERB
 40
0.0
  9
$SKPOLY
 70
     0
  9
$TDCREATE
 40
2454910.5
  9
$TDUPDATE
 40
2459062.861402025
  9
$TDINDWG
 40
0.0000000116
  9
$TDUSRTIMER
 40
0.0000000116
  9
$USRTIMER
 70
     1
  9
$ANGBASE
 50
0.0
  9
$ANGDIR
 70
     0
  9
$PDMODE
 70
     0
  9
$PDSIZE
 40
0.0
  9
$PLINEWID
 40
0.0
  9
$COORDS
 70
     1
  9
$SPLFRAME
 70
     0
  9
$SPLINETYPE
 70
     6
  9
$SPLINESEGS
 70
     8
  9
$ATTDIA
 70
     0
  9
$ATTREQ
 70
     1
  9
$HANDLING
 70
     1
  9
$HANDSEED
  5
3F9
  9
$SURFTAB1
 70
     6
  9
$SURFTAB2
 70
     6
  9
$SURFTYPE
 70
     6
  9
$SURFU
 70
     6
  9
$SURFV
 70
     6
  9
$UCSNAME
  2

  9
$UCSORG
 10
0.0
 20
0.0
 30
0.0
  9
$UCSXDIR
 10
1.0
 20
0.0
 30
0.0
  9
$UCSYDIR
 10
0.0
 20
1.0
 30
0.0
  9
$PUCSNAME
  2

  9
$PUCSORG
 10
0.0
 20
0.0
 30
0.0
  9
$PUCSXDIR
 10
1.0
 20
0.0
 30
0.0
  9
$PUCSYDIR
 10
0.0
 20
1.0
 30
0.0
  9
$USERI1
 70
     0
  9
$USERI2
 70
     0
  9
$USERI3
 70
     0
  9
$USERI4
 70
     0
  9
$USERI5
 70
     0
  9
$USERR1
 40
0.0
  9
$USERR2
 40
0.0
  9
$USERR3
 40
0.0
  9
$USERR4
 40
0.0
  9
$USERR5
 40
0.0
  9
$WORLDVIEW
 70
     1
  9
$SHADEDGE
 70
     3
  9
$SHADEDIF
 70
    70
  9
$TILEMODE
 70
     1
  9
$MAXACTVP
 70
    64
  9
$PLIMCHECK
 70
     0
  9
$PEXTMIN
 10
1.000000000000000E+20
 20
1.000000000000000E+20
 30
1.000000000000000E+20
  9
$PEXTMAX
 10
-1.000000000000000E+20
 20
-1.000000000000000E+20
 30
-1.000000000000000E+20
  9
$PLIMMIN
 10
0.0
 20
0.0
  9
$PLIMMAX
 10
12.0
 20
9.0
  9
$UNITMODE
 70
     0
  9
$VISRETAIN
 70
     1
  9
$PLINEGEN
 70
     0
  9
$PSLTSCALE
 70
     1
  0
ENDSEC
  0
SECTION
  2
TABLES
  0
TABLE
  2
VPORT
 70
     1
  0
VPORT
  2
*ACTIVE
 70
     0
 10
0.0
 20
0.0
 11
1.0
 21
1.0
 12
10.42990654205607
 22
4.5
 13
0.0
 23
0.0
 14
0.5
 24
0.5
 15
0.5
 25
0.5
 16
0.0
 26
0.0
 36
1.0
 17
0.0
 27
0.0
 37
0.0
 40
9.0
 41
1.972972972850329
 42
50.0
 43
0.0
 44
0.0
 50
0.0
 51
0.0
 71
     0
 72
   100
 73
     1
 74
     3
 75
     0
 76
     0
 77
     0
 78
     0
  0
ENDTAB
  0
TABLE
  2
LTYPE
 70
     2
  0
LTYPE
  2
CONTINUOUS
 70
     0
  3
Solid line
 72
    65
 73
     0
 40
0.0
  0
LTYPE
  2
CONTINUOUS2
 70
     0
  3
Solid Line
 72
    65
 73
     0
 40
0.0
  0
ENDTAB
  0
TABLE
  2
LAYER
 70
     2
  0
LAYER
  2
0
 70
     0
 62
     7
  6
CONTINUOUS
  0
LAYER
  2
HASH
 70
     0
 62
    18
  6
CONTINUOUS
  0
ENDTAB
  0
TABLE
  2
STYLE
 70
     1
  0
STYLE
  2
STANDARD
 70
     0
 40
0.0
 41
1.0
 50
0.0
 71
     0
 42
0.2
  3
txt
  4

  0
ENDTAB
  0
TABLE
  2
VIEW
 70
     0
  0
ENDTAB
  0
TABLE
  2
UCS
 70
     0
  0
ENDTAB
  0
TABLE
  2
APPID
 70
     1
  0
APPID
  2
ACAD
 70
     0
  0
ENDTAB
  0
TABLE
  2
DIMSTYLE
 70
     1
  0
DIMSTYLE
  2
STANDARD
 70
     0
  3

  4

  5

  6

  7

 40
1.0
 41
0.18
 42
0.0625
 43
0.38
 44
0.18
 45
0.0
 46
0.0
 47
0.0
 48
0.0
140
0.18
141
0.09
142
0.0
143
25.4
144
1.0
145
0.0
146
1.0
147
0.09
 71
     0
 72
     0
 73
     1
 74
     1
 75
     0
 76
     0
 77
     0
 78
     0
170
     0
171
     2
172
     0
173
     0
174
     0
175
     0
176
     0
177
     0
178
     0
  0
ENDTAB
  0
ENDSEC
  0
SECTION
  2
BLOCKS
  0
BLOCK
  8
0
  2
$MODEL_SPACE
 70
     0
 10
0.0
 20
0.0
 30
0.0
  3
$MODEL_SPACE
  1

  0
ENDBLK
  5
21
  8
0
  0
BLOCK
 67
     1
  8
0
  2
$PAPER_SPACE
 70
     0
 10
0.0
 20
0.0
 30
0.0
  3
$PAPER_SPACE
  1

  0
ENDBLK
  5
1D
 67
     1
  8
0
  0
ENDSEC
  0
SECTION
  2
ENTITIES
  0
POLYLINE
  5
70
  8
HASH
 66
     1
 10
0.0
 20
0.0
 30
0.0
 70
     1
  0
VERTEX
  5
96
  8
HASH
 10
-79.10846710652366
 20
-68.79777912611466
 30
0.0
  0
VERTEX
  5
97
  8
HASH
 10
-79.10846710652366
 20
-65.36521876178344
 30
0.0
  0
VERTEX
  5
98
  8
HASH
 10
-77.11132124832761
 20
-65.36521876178344
 30
0.0
  0
VERTEX
  5
99
  8
HASH
 10
-77.11132124832761
 20
-65.94589745916007
 30
0.0
  0
VERTEX
  5
9A
  8
HASH
 10
-78.56462610005998
 20
-65.94589745916007
 30
0.0
  0
VERTEX
  5
9B
  8
HASH
 10
-78.56462610005998
 20
-66.7068675262867
 30
0.0
  0
VERTEX
  5
9C
  8
HASH
 10
-77.2123727866908
 20
-66.7068675262867
 30
0.0
  0
VERTEX
  5
9D
  8
HASH
 10
-77.2123727866908
 20
-67.28520477730295
 30
0.0
  0
VERTEX
  5
9E
  8
HASH
 10
-78.56462610005998
 20
-67.28520477730295
 30
0.0
  0
VERTEX
  5
9F
  8
HASH
 10
-78.56462610005998
 20
-68.21944187509843
 30
0.0
  0
VERTEX
  5
A0
  8
HASH
 10
-77.05987682879727
 20
-68.21944187509843
 30
0.0
  0
VERTEX
  5
A1
  8
HASH
 10
-77.05987682879727
 20
-68.79777912611466
 30
0.0
  0
SEQEND
  5
3DA
  8
HASH
  0
POLYLINE
  5
71
  8
HASH
 66
     1
 10
0.0
 20
0.0
 30
0.0
 70
     1
  0
VERTEX
  5
A2
  8
HASH
 10
-76.87247215765099
 20
-68.79777912611466
 30
0.0
  0
VERTEX
  5
A3
  8
HASH
 10
-75.95198450819724
 20
-67.00657266041658
 30
0.0
  0
VERTEX
  5
A4
  8
HASH
 10
-76.7861190248679
 20
-65.36521876178344
 30
0.0
  0
VERTEX
  5
A5
  8
HASH
 10
-76.1504129835286
 20
-65.36521876178344
 30
0.0
  0
VERTEX
  5
A6
  8
HASH
 10
-75.61024657845992
 20
-66.46803999752696
 30
0.0
  0
VERTEX
  5
A7
  8
HASH
 10
-75.08110397757633
 20
-65.36521876178344
 30
0.0
  0
VERTEX
  5
A8
  8
HASH
 10
-74.45090983832955
 20
-65.36521876178344
 30
0.0
  0
VERTEX
  5
A9
  8
HASH
 10
-75.28871895639524
 20
-67.03232857038087
 30
0.0
  0
VERTEX
  5
AA
  8
HASH
 10
-74.3682313069415
 20
-68.79777912611466
 30
0.0
  0
VERTEX
  5
AB
  8
HASH
 10
-75.02414765595344
 20
-68.79777912611466
 30
0.0
  0
VERTEX
  5
AC
  8
HASH
 10
-75.621270382645
 20
-67.6106658213971
 30
0.0
  0
VERTEX
  5
AD
  8
HASH
 10
-76.22023041003406
 20
-68.79777912611466
 30
0.0
  0
SEQEND
  5
3DB
  8
HASH
  0
POLYLINE
  5
72
  8
HASH
 66
     1
 10
0.0
 20
0.0
 30
0.0
 70
     1
  0
VERTEX
  5
AE
  8
HASH
 10
-73.48265237074048
 20
-68.79777912611466
 30
0.0
  0
VERTEX
  5
AF
  8
HASH
 10
-73.48265237074048
 20
-65.94589745916007
 30
0.0
  0
VERTEX
  5
B0
  8
HASH
 10
-74.28187817415841
 20
-65.94589745916007
 30
0.0
  0
VERTEX
  5
B1
  8
HASH
 10
-74.28187817415841
 20
-65.36521876178344
 30
0.0
  0
VERTEX
  5
B2
  8
HASH
 10
-72.14142286155638
 20
-65.36521876178344
 30
0.0
  0
VERTEX
  5
B3
  8
HASH
 10
-72.14142286155638
 20
-65.94589745916007
 30
0.0
  0
VERTEX
  5
B4
  8
HASH
 10
-72.93881136427679
 20
-65.94589745916007
 30
0.0
  0
VERTEX
  5
B5
  8
HASH
 10
-72.93881136427679
 20
-68.79777912611466
 30
0.0
  0
SEQEND
  5
3DC
  8
HASH
  0
POLYLINE
  5
73
  8
HASH
 66
     1
 10
0.0
 20
0.0
 30
0.0
 70
     1
  0
VERTEX
  5
B6
  8
HASH
 10
-71.79049842833149
 20
-68.79777912611466
 30
0.0
  0
VERTEX
  5
B7
  8
HASH
 10
-71.79049842833149
 20
-65.36521876178344
 30
0.0
  0
VERTEX
  5
B8
  8
HASH
 10
-69.79335257013544
 20
-65.36521876178344
 30
0.0
  0
VERTEX
  5
B9
  8
HASH
 10
-69.79335257013544
 20
-65.94589745916007
 30
0.0
  0
VERTEX
  5
BA
  8
HASH
 10
-71.24665742186781
 20
-65.94589745916007
 30
0.0
  0
VERTEX
  5
BB
  8
HASH
 10
-71.24665742186781
 20
-66.7068675262867
 30
0.0
  0
VERTEX
  5
BC
  8
HASH
 10
-69.89440410849863
 20
-66.7068675262867
 30
0.0
  0
VERTEX
  5
BD
  8
HASH
 10
-69.89440410849863
 20
-67.28520477730295
 30
0.0
  0
VERTEX
  5
BE
  8
HASH
 10
-71.24665742186781
 20
-67.28520477730295
 30
0.0
  0
VERTEX
  5
BF
  8
HASH
 10
-71.24665742186781
 20
-68.21944187509843
 30
0.0
  0
VERTEX
  5
C0
  8
HASH
 10
-69.7419081506051
 20
-68.21944187509843
 30
0.0
  0
VERTEX
  5
C1
  8
HASH
 10
-69.7419081506051
 20
-68.79777912611466
 30
0.0
  0
SEQEND
  5
3DD
  8
HASH
  0
POLYLINE
  5
74
  8
HASH
 66
     1
 10
0.0
 20
0.0
 30
0.0
 70
     1
  0
VERTEX
  5
C2
  8
HASH
 10
-69.27523377343692
 20
-68.79777912611466
 30
0.0
  0
VERTEX
  5
C3
  8
HASH
 10
-69.27523377343692
 20
-65.36521876178344
 30
0.0
  0
VERTEX
  5
C4
  8
HASH
 10
-68.74609117255334
 20
-65.36521876178344
 30
0.0
  0
VERTEX
  5
C5
  8
HASH
 10
-67.64371075404586
 20
-67.6574947486049
 30
0.0
  0
VERTEX
  5
C6
  8
HASH
 10
-67.64371075404586
 20
-65.36521876178344
 30
0.0
  0
VERTEX
  5
C7
  8
HASH
 10
-67.13845306222993
 20
-65.36521876178344
 30
0.0
  0
VERTEX
  5
C8
  8
HASH
 10
-67.13845306222993
 20
-68.79777912611466
 30
0.0
  0
VERTEX
  5
C9
  8
HASH
 10
-67.68413136939112
 20
-68.79777912611466
 30
0.0
  0
VERTEX
  5
CA
  8
HASH
 10
-68.769976081621
 20
-66.55935640558216
 30
0.0
  0
VERTEX
  5
CB
  8
HASH
 10
-68.769976081621
 20
-68.79777912611466
 30
0.0
  0
SEQEND
  5
3DE
  8
HASH
  0
POLYLINE
  5
75
  8
HASH
 66
     1
 10
0.0
 20
0.0
 30
0.0
 70
     1
  0
VERTEX
  5
CC
  8
HASH
 10
-66.56521524460604
 20
-65.36521876178344
 30
0.0
  0
VERTEX
  5
CD
  8
HASH
 10
-65.57123556725179
 20
-65.36521876178344
 30
0.0
  0
VERTEX
  5
CE
  8
HASH
 10
-65.41311287597213
 20
-65.36931629291414
 30
0.0
  0
VERTEX
  5
CF
  8
HASH
 10
-65.27497082977791
 20
-65.38160888630617
 30
0.0
  0
VERTEX
  5
D0
  8
HASH
 10
-65.15680942866913
 20
-65.4020965419596
 30
0.0
  0
VERTEX
  5
D1
  8
HASH
 10
-65.05862867264581
 20
-65.43077925987436
 30
0.0
  0
VERTEX
  5
D2
  8
HASH
 10
-64.94437153551925
 20
-65.48390082417569
 30
0.0
  0
VERTEX
  5
D3
  8
HASH
 10
-64.8386119141187
 20
-65.55429055538491
 30
0.0
  0
VERTEX
  5
D4
  8
HASH
 10
-64.74134980844413
 20
-65.64194845350201
 30
0.0
  0
VERTEX
  5
D5
  8
HASH
 10
-64.65258521849556
 20
-65.74687451852695
 30
0.0
  0
VERTEX
  5
D6
  8
HASH
 10
-64.57312196332813
 20
-65.86680047429817
 30
0.0
  0
VERTEX
  5
D7
  8
HASH
 10
-64.50376386199704
 20
-65.99945804465399
 30
0.0
  0
VERTEX
  5
D8
  8
HASH
 10
-64.44451091450226
 20
-66.14484722959443
 30
0.0
  0
VERTEX
  5
D9
  8
HASH
 10
-64.39536312084381
 20
-66.3029680291195
 30
0.0
  0
VERTEX
  5
DA
  8
HASH
 10
-64.35677980619604
 20
-66.4770399319747
 30
0.0
  0
VERTEX
  5
DB
  8
HASH
 10
-64.32922029573336
 20
-66.67028242690562
 30
0.0
  0
VERTEX
  5
DC
  8
HASH
 10
-64.31268458945576
 20
-66.88269551391221
 30
0.0
  0
VERTEX
  5
DD
  8
HASH
 10
-64.30717268736322
 20
-67.1142791929945
 30
0.0
  0
VERTEX
  5
DE
  8
HASH
 10
-64.31234009557497
 20
-67.31886306873355
 30
0.0
  0
VERTEX
  5
DF
  8
HASH
 10
-64.32784232021022
 20
-67.50881290472016
 30
0.0
  0
VERTEX
  5
E0
  8
HASH
 10
-64.35367936126899
 20
-67.68412870095433
 30
0.0
  0
VERTEX
  5
E1
  8
HASH
 10
-64.38985121875128
 20
-67.84481045743607
 30
0.0
  0
VERTEX
  5
E2
  8
HASH
 10
-64.44577405873181
 20
-68.02319940201826
 30
0.0
  0
VERTEX
  5
E3
  8
HASH
 10
-64.51249104031024
 20
-68.18373481810247
 30
0.0
  0
VERTEX
  5
E4
  8
HASH
 10
-64.59000216348655
 20
-68.32641670568873
 30
0.0
  0
VERTEX
  5
E5
  8
HASH
 10
-64.67830742826074
 20
-68.451245064777
 30
0.0
  0
VERTEX
  5
E6
  8
HASH
 10
-64.75524439496908
 20
-68.53422007017332
 30
0.0
  0
VERTEX
  5
E7
  8
HASH
 10
-64.84458314138561
 20
-68.60753660933301
 30
0.0
  0
VERTEX
  5
E8
  8
HASH
 10
-64.94632366751037
 20
-68.6711946822561
 30
0.0
  0
VERTEX
  5
E9
  8
HASH
 10
-65.06046597334333
 20
-68.72519428894259
 30
0.0
  0
VERTEX
  5
EA
  8
HASH
 10
-65.15807257289867
 20
-68.75695015520537
 30
0.0
  0
VERTEX
  5
EB
  8
HASH
 10
-65.2708369032085
 20
-68.77963291682164
 30
0.0
  0
VERTEX
  5
EC
  8
HASH
 10
-65.39875896427282
 20
-68.79324257379142
 30
0.0
  0
VERTEX
  5
ED
  8
HASH
 10
-65.5418387560916
 20
-68.79777912611466
 30
0.0
  0
VERTEX
  5
EE
  8
HASH
 10
-66.56521524460604
 20
-68.79777912611466
 30
0.0
  0
SEQEND
  5
3DF
  8
HASH
  0
POLYLINE
  5
76
  8
HASH
 66
     1
 10
0.0
 20
0.0
 30
0.0
 70
     1
  0
VERTEX
  5
EF
  8
HASH
 10
-66.02137423814236
 20
-65.94589745916007
 30
0.0
  0
VERTEX
  5
F0
  8
HASH
 10
-66.02137423814236
 20
-68.21944187509843
 30
0.0
  0
VERTEX
  5
F1
  8
HASH
 10
-65.61533078399209
 20
-68.21944187509843
 30
0.0
  0
VERTEX
  5
F2
  8
HASH
 10
-65.41919893453263
 20
-68.21124681283706
 30
0.0
  0
VERTEX
  5
F3
  8
HASH
 10
-65.28645395913736
 20
-68.18666162605297
 30
0.0
  0
VERTEX
  5
F4
  8
HASH
 10
-65.22312450071999
 20
-68.16193009887134
 30
0.0
  0
VERTEX
  5
F5
  8
HASH
 10
-65.16542177568874
 20
-68.12988155181351
 30
0.0
  0
VERTEX
  5
F6
  8
HASH
 10
-65.11334578404362
 20
-68.09051598487946
 30
0.0
  0
VERTEX
  5
F7
  8
HASH
 10
-65.06689652578463
 20
-68.0438333980692
 30
0.0
  0
VERTEX
  5
F8
  8
HASH
 10
-65.02527018185661
 20
-67.98537040925822
 30
0.0
  0
VERTEX
  5
F9
  8
HASH
 10
-64.98766293320439
 20
-67.91066363632204
 30
0.0
  0
VERTEX
  5
FA
  8
HASH
 10
-64.954074779828
 20
-67.81971307926067
 30
0.0
  0
VERTEX
  5
FB
  8
HASH
 10
-64.9245057217274
 20
-67.71251873807407
 30
0.0
  0
VERTEX
  5
FC
  8
HASH
 10
-64.90039115007255
 20
-67.58673916640188
 30
0.0
  0
VERTEX
  5
FD
  8
HASH
 10
-64.88316645603336
 20
-67.44003291788371
 30
0.0
  0
VERTEX
  5
FE
  8
HASH
 10
-64.87283163960986
 20
-67.27239999251955
 30
0.0
  0
VERTEX
  5
FF
  8
HASH
 10
-64.86938670080202
 20
-67.08384039030943
 30
0.0
  0
VERTEX
  5
100
  8
HASH
 10
-64.87283163960986
 20
-66.89637834108075
 30
0.0
  0
VERTEX
  5
101
  8
HASH
 10
-64.88316645603336
 20
-66.7320380746609
 30
0.0
  0
VERTEX
  5
102
  8
HASH
 10
-64.90039115007255
 20
-66.59081959104991
 30
0.0
  0
VERTEX
  5
103
  8
HASH
 10
-64.9245057217274
 20
-66.47272289024774
 30
0.0
  0
VERTEX
  5
104
  8
HASH
 10
-64.95482118323636
 20
-66.37204069675099
 30
0.0
  0
VERTEX
  5
105
  8
HASH
 10
-64.99064854683786
 20
-66.28306573505618
 30
0.0
  0
VERTEX
  5
106
  8
HASH
 10
-65.03198781253187
 20
-66.20579800516332
 30
0.0
  0
VERTEX
  5
107
  8
HASH
 10
-65.07883898031845
 20
-66.14023750707241
 30
0.0
  0
VERTEX
  5
108
  8
HASH
 10
-65.13177620666553
 20
-66.08535985800077
 30
0.0
  0
VERTEX
  5
109
  8
HASH
 10
-65.1913736480411
 20
-66.04014067516576
 30
0.0
  0
VERTEX
  5
10A
  8
HASH
 10
-65.25763130444514
 20
-66.00457995856733
 30
0.0
  0
VERTEX
  5
10B
  8
HASH
 10
-65.33054917587766
 20
-65.97867770820552
 30
0.0
  0
VERTEX
  5
10C
  8
HASH
 10
-65.40117042143831
 20
-65.96433634924814
 30
0.0
  0
VERTEX
  5
10D
  8
HASH
 10
-65.49912151487443
 20
-65.95409252142143
 30
0.0
  0
VERTEX
  5
10E
  8
HASH
 10
-65.7770132453732
 20
-65.94589745916007
 30
0.0
  0
SEQEND
  5
3E0
  8
HASH
  0
POLYLINE
  5
77
  8
HASH
 66
     1
 10
0.0
 20
0.0
 30
0.0
 70
     1
  0
VERTEX
  5
10F
  8
HASH
 10
-62.88877654888358
 20
-72.68458008436147
 30
0.0
  0
VERTEX
  5
110
  8
HASH
 10
-62.88877654888358
 20
-72.10624283334522
 30
0.0
  0
VERTEX
  5
111
  8
HASH
 10
-61.71657870387062
 20
-72.10624283334522
 30
0.0
  0
VERTEX
  5
112
  8
HASH
 10
-61.71657870387062
 20
-73.47364750781279
 30
0.0
  0
VERTEX
  5
113
  8
HASH
 10
-61.8116015993201
 20
-73.57586627548355
 30
0.0
  0
VERTEX
  5
114
  8
HASH
 10
-61.92580132079986
 20
-73.67179240606075
 30
0.0
  0
VERTEX
  5
115
  8
HASH
 10
-62.0591778683099
 20
-73.76142589954442
 30
0.0
  0
VERTEX
  5
116
  8
HASH
 10
-62.21173124185024
 20
-73.84476675593454
 30
0.0
  0
VERTEX
  5
117
  8
HASH
 10
-62.37438976922689
 20
-73.91493697654747
 30
0.0
  0
VERTEX
  5
118
  8
HASH
 10
-62.53808177824589
 20
-73.96505856269957
 30
0.0
  0
VERTEX
  5
119
  8
HASH
 10
-62.70280726890724
 20
-73.99513151439082
 30
0.0
  0
VERTEX
  5
11A
  8
HASH
 10
-62.86856624121094
 20
-74.00515583162124
 30
0.0
  0
VERTEX
  5
11B
  8
HASH
 10
-63.0730807751028
 20
-73.99103398326014
 30
0.0
  0
VERTEX
  5
11C
  8
HASH
 10
-63.17025675730717
 20
-73.97338167280876
 30
0.0
  0
VERTEX
  5
11D
  8
HASH
 10
-63.2640452163505
 20
-73.94866843817684
 30
0.0
  0
VERTEX
  5
11E
  8
HASH
 10
-63.3544461522328
 20
-73.91689427936436
 30
0.0
  0
VERTEX
  5
11F
  8
HASH
 10
-63.44145956495405
 20
-73.87805919637134
 30
0.0
  0
VERTEX
  5
120
  8
HASH
 10
-63.52508545451427
 20
-73.83216318919776
 30
0.0
  0
VERTEX
  5
121
  8
HASH
 10
-63.60532382091345
 20
-73.77920625784363
 30
0.0
  0
VERTEX
  5
122
  8
HASH
 10
-63.68142826074321
 20
-73.71968230115058
 30
0.0
  0
VERTEX
  5
123
  8
HASH
 10
-63.75265237059522
 20
-73.6540852179603
 30
0.0
  0
VERTEX
  5
124
  8
HASH
 10
-63.81899615046946
 20
-73.58241500827275
 30
0.0
  0
VERTEX
  5
125
  8
HASH
 10
-63.88045960036594
 20
-73.50467167208795
 30
0.0
  0
VERTEX
  5
126
  8
HASH
 10
-63.98874551022558
 20
-73.33096562022654
 30
0.0
  0
VERTEX
  5
127
  8
HASH
 10
-64.07751010017415
 20
-73.13296706237608
 30
0.0
  0
VERTEX
  5
128
  8
HASH
 10
-64.14663853891807
 20
-72.9182125290091
 30
0.0
  0
VERTEX
  5
129
  8
HASH
 10
-64.1960159951637
 20
-72.69423855059807
 30
0.0
  0
VERTEX
  5
12A
  8
HASH
 10
-64.2256424689111
 20
-72.46104512714302
 30
0.0
  0
VERTEX
  5
12B
  8
HASH
 10
-64.23551796016022
 20
-72.21863225864394
 30
0.0
  0
VERTEX
  5
12C
  8
HASH
 10
-64.22449415597514
 20
-71.95800001065305
 30
0.0
  0
VERTEX
  5
12D
  8
HASH
 10
-64.19142274341992
 20
-71.71229448320966
 30
0.0
  0
VERTEX
  5
12E
  8
HASH
 10
-64.13630372249455
 20
-71.48151567631376
 30
0.0
  0
VERTEX
  5
12F
  8
HASH
 10
-64.05913709319903
 20
-71.26566358996534
 30
0.0
  0
VERTEX
  5
130
  8
HASH
 10
-63.96072667458851
 20
-71.0694211168852
 30
0.0
  0
VERTEX
  5
131
  8
HASH
 10
-63.90385647643582
 20
-70.98040957009101
 30
0.0
  0
VERTEX
  5
132
  8
HASH
 10
-63.84187628571817
 20
-70.89747114979407
 30
0.0
  0
VERTEX
  5
133
  8
HASH
 10
-63.77478610243557
 20
-70.82060585599442
 30
0.0
  0
VERTEX
  5
134
  8
HASH
 10
-63.702585926588
 20
-70.749813688692
 30
0.0
  0
VERTEX
  5
135
  8
HASH
 10
-63.62527575817549
 20
-70.68509464788686
 30
0.0
  0
VERTEX
  5
136
  8
HASH
 10
-63.54285559719802
 20
-70.62644873357897
 30
0.0
  0
VERTEX
  5
137
  8
HASH
 10
-63.40540253876537
 20
-70.55166879044404
 30
0.0
  0
VERTEX
  5
138
  8
HASH
 10
-63.25210276181667
 20
-70.49825454534765
 30
0.0
  0
VERTEX
  5
139
  8
HASH
 10
-63.08295626635193
 20
-70.46620599828982
 30
0.0
  0
VERTEX
  5
13A
  8
HASH
 10
-62.89796305237115
 20
-70.45552314927053
 30
0.0
  0
VERTEX
  5
13B
  8
HASH
 10
-62.77599786466206
 20
-70.45971214314967
 30
0.0
  0
VERTEX
  5
13C
  8
HASH
 10
-62.66089384674524
 20
-70.47227912478706
 30
0.0
  0
VERTEX
  5
13D
  8
HASH
 10
-62.55265099862069
 20
-70.49322409418274
 30
0.0
  0
VERTEX
  5
13E
  8
HASH
 10
-62.45126932028843
 20
-70.52254705133667
 30
0.0
  0
VERTEX
  5
13F
  8
HASH
 10
-62.35674881174843
 20
-70.56024799624889
 30
0.0
  0
VERTEX
  5
140
  8
HASH
 10
-62.2690894730007
 20
-70.60632692891936
 30
0.0
  0
VERTEX
  5
141
  8
HASH
 10
-62.18829130404525
 20
-70.66078384934812
 30
0.0
  0
VERTEX
  5
142
  8
HASH
 10
-62.11435430488208
 20
-70.72361875753514
 30
0.0
  0
VERTEX
  5
143
  8
HASH
 10
-62.04699139727719
 20
-70.79384385579714
 30
0.0
  0
VERTEX
  5
144
  8
HASH
 10
-61.9859155029966
 20
-70.87047134645083
 30
0.0
  0
VERTEX
  5
145
  8
HASH
 10
-61.93112662204031
 20
-70.9535012294962
 30
0.0
  0
VERTEX
  5
146
  8
HASH
 10
-61.88262475440832
 20
-71.04293350493327
 30
0.0
  0
VERTEX
  5
147
  8
HASH
 10
-61.84040990010062
 20
-71.13876817276204
 30
0.0
  0
VERTEX
  5
148
  8
HASH
 10
-61.80448205911725
 20
-71.24100523298249
 30
0.0
  0
VERTEX
  5
149
  8
HASH
 10
-61.77484123145815
 20
-71.34964468559463
 30
0.0
  0
VERTEX
  5
14A
  8
HASH
 10
-61.75148741712336
 20
-71.46468653059847
 30
0.0
  0
VERTEX
  5
14B
  8
HASH
 10
-62.29165382219203
 20
-71.5934660804199
 30
0.0
  0
VERTEX
  5
14C
  8
HASH
 10
-62.32639028850438
 20
-71.47368646504621
 30
0.0
  0
VERTEX
  5
14D
  8
HASH
 10
-62.37364336581852
 20
-71.36722382584725
 30
0.0
  0
VERTEX
  5
14E
  8
HASH
 10
-62.43341305413448
 20
-71.27407816282299
 30
0.0
  0
VERTEX
  5
14F
  8
HASH
 10
-62.50569935345223
 20
-71.19424947597346
 30
0.0
  0
VERTEX
  5
150
  8
HASH
 10
-62.58912428824866
 20
-71.13022555205656
 30
0.0
  0
VERTEX
  5
151
  8
HASH
 10
-62.68230988300061
 20
-71.08449417783021
 30
0.0
  0
VERTEX
  5
152
  8
HASH
 10
-62.78525613770811
 20
-71.05705535329439
 30
0.0
  0
VERTEX
  5
153
  8
HASH
 10
-62.89796305237115
 20
-71.04790907844911
 30
0.0
  0
VERTEX
  5
154
  8
HASH
 10
-62.98478986424031
 20
-71.05240904567299
 30
0.0
  0
VERTEX
  5
155
  8
HASH
 10
-63.06705213218909
 20
-71.06590894734461
 30
0.0
  0
VERTEX
  5
156
  8
HASH
 10
-63.14474985621749
 20
-71.08840878346399
 30
0.0
  0
VERTEX
  5
157
  8
HASH
 10
-63.2178830363255
 20
-71.1199085540311
 30
0.0
  0
VERTEX
  5
158
  8
HASH
 10
-63.28645167251314
 20
-71.16040825904597
 30
0.0
  0
VERTEX
  5
159
  8
HASH
 10
-63.35045576478039
 20
-71.20990789850856
 30
0.0
  0
VERTEX
  5
15A
  8
HASH
 10
-63.40989531312725
 20
-71.26840747241894
 30
0.0
  0
VERTEX
  5
15B
  8
HASH
 10
-63.46477031755374
 20
-71.33590698077704
 30
0.0
  0
VERTEX
  5
15C
  8
HASH
 10
-63.51407600424089
 20
-71.41226008318536
 30
0.0
  0
VERTEX
  5
15D
  8
HASH
 10
-63.55680759936975
 20
-71.49732043924638
 30
0.0
  0
VERTEX
  5
15E
  8
HASH
 10
-63.59296510294033
 20
-71.5910880489601
 30
0.0
  0
VERTEX
  5
15F
  8
HASH
 10
-63.62254851495263
 20
-71.69356291232654
 30
0.0
  0
VERTEX
  5
160
  8
HASH
 10
-63.64555783540663
 20
-71.80474502934567
 30
0.0
  0
VERTEX
  5
161
  8
HASH
 10
-63.66199306430235
 20
-71.9246344000175
 30
0.0
  0
VERTEX
  5
162
  8
HASH
 10
-63.67514124741892
 20
-72.19053490231926
 30
0.0
  0
VERTEX
  5
163
  8
HASH
 10
-63.66182081736195
 20
-72.47699623047318
 30
0.0
  0
VERTEX
  5
164
  8
HASH
 10
-63.64517027979074
 20
-72.60590382814243
 30
0.0
  0
VERTEX
  5
165
  8
HASH
 10
-63.62185952719106
 20
-72.72526271487324
 30
0.0
  0
VERTEX
  5
166
  8
HASH
 10
-63.59188855956289
 20
-72.83507289066557
 30
0.0
  0
VERTEX
  5
167
  8
HASH
 10
-63.55525737690623
 20
-72.93533435551944
 30
0.0
  0
VERTEX
  5
168
  8
HASH
 10
-63.51196597922109
 20
-73.02604710943486
 30
0.0
  0
VERTEX
  5
169
  8
HASH
 10
-63.46201436650747
 20
-73.10721115241181
 30
0.0
  0
VERTEX
  5
16A
  8
HASH
 10
-63.40666568299491
 20
-73.17882648445028
 30
0.0
  0
VERTEX
  5
16B
  8
HASH
 10
-63.34718307291294
 20
-73.2408931055503
 30
0.0
  0
VERTEX
  5
16C
  8
HASH
 10
-63.28356653626157
 20
-73.29341101571185
 30
0.0
  0
VERTEX
  5
16D
  8
HASH
 10
-63.2158160730408
 20
-73.33638021493493
 30
0.0
  0
VERTEX
  5
16E
  8
HASH
 10
-63.14393168325063
 20
-73.36980070321957
 30
0.0
  0
VERTEX
  5
16F
  8
HASH
 10
-63.06791336689105
 20
-73.39367248056573
 30
0.0
  0
VERTEX
  5
170
  8
HASH
 10
-62.98776112396207
 20
-73.40799554697341
 30
0.0
  0
VERTEX
  5
171
  8
HASH
 10
-62.90347495446368
 20
-73.41276990244265
 30
0.0
  0
VERTEX
  5
172
  8
HASH
 10
-62.81798305638255
 20
-73.407428477933
 30
0.0
  0
VERTEX
  5
173
  8
HASH
 10
-62.73237632700783
 20
-73.3914042044041
 30
0.0
  0
VERTEX
  5
174
  8
HASH
 10
-62.64665476633951
 20
-73.3646970818559
 30
0.0
  0
VERTEX
  5
175
  8
HASH
 10
-62.5608183743776
 20
-73.32730711028843
 30
0.0
  0
VERTEX
  5
176
  8
HASH
 10
-62.40120287628121
 20
-73.2327712134877
 30
0.0
  0
VERTEX
  5
177
  8
HASH
 10
-62.26593161242685
 20
-73.12008910739395
 30
0.0
  0
VERTEX
  5
178
  8
HASH
 10
-62.26593161242685
 20
-72.68458008436147
 30
0.0
  0
SEQEND
  5
3E1
  8
HASH
  0
POLYLINE
  5
78
  8
HASH
 66
     1
 10
0.0
 20
0.0
 30
0.0
 70
     1
  0
VERTEX
  5
179
  8
HASH
 10
-66.85367145411549
 20
-73.94661967261149
 30
0.0
  0
VERTEX
  5
17A
  8
HASH
 10
-66.85367145411549
 20
-70.51405930828027
 30
0.0
  0
VERTEX
  5
17B
  8
HASH
 10
-66.3245288532319
 20
-70.51405930828027
 30
0.0
  0
VERTEX
  5
17C
  8
HASH
 10
-65.22214843472442
 20
-72.80633529510173
 30
0.0
  0
VERTEX
  5
17D
  8
HASH
 10
-65.22214843472442
 20
-70.51405930828027
 30
0.0
  0
VERTEX
  5
17E
  8
HASH
 10
-64.71689074290849
 20
-70.51405930828027
 30
0.0
  0
VERTEX
  5
17F
  8
HASH
 10
-64.71689074290849
 20
-73.94661967261149
 30
0.0
  0
VERTEX
  5
180
  8
HASH
 10
-65.26256905006969
 20
-73.94661967261149
 30
0.0
  0
VERTEX
  5
181
  8
HASH
 10
-66.34841376229956
 20
-71.70819695207899
 30
0.0
  0
VERTEX
  5
182
  8
HASH
 10
-66.34841376229956
 20
-73.94661967261149
 30
0.0
  0
SEQEND
  5
3E2
  8
HASH
  0
POLYLINE
  5
79
  8
HASH
 66
     1
 10
0.0
 20
0.0
 30
0.0
 70
     1
  0
VERTEX
  5
183
  8
HASH
 10
-67.92114315937025
 20
-73.94661967261149
 30
0.0
  0
VERTEX
  5
184
  8
HASH
 10
-67.92114315937025
 20
-70.51405930828027
 30
0.0
  0
VERTEX
  5
185
  8
HASH
 10
-67.37730215290657
 20
-70.51405930828027
 30
0.0
  0
VERTEX
  5
186
  8
HASH
 10
-67.37730215290657
 20
-73.94661967261149
 30
0.0
  0
SEQEND
  5
3E3
  8
HASH
  0
POLYLINE
  5
7A
  8
HASH
 66
     1
 10
0.0
 20
0.0
 30
0.0
 70
     1
  0
VERTEX
  5
187
  8
HASH
 10
-70.0799714789474
 20
-71.0947380056569
 30
0.0
  0
VERTEX
  5
188
  8
HASH
 10
-70.0799714789474
 20
-73.36828242159525
 30
0.0
  0
VERTEX
  5
189
  8
HASH
 10
-69.67392802479714
 20
-73.36828242159525
 30
0.0
  0
VERTEX
  5
18A
  8
HASH
 10
-69.47779617533769
 20
-73.36008735933389
 30
0.0
  0
VERTEX
  5
18B
  8
HASH
 10
-69.3450511999424
 20
-73.3355021725498
 30
0.0
  0
VERTEX
  5
18C
  8
HASH
 10
-69.28172174152502
 20
-73.31077064536818
 30
0.0
  0
VERTEX
  5
18D
  8
HASH
 10
-69.22401901649377
 20
-73.27872209831034
 30
0.0
  0
VERTEX
  5
18E
  8
HASH
 10
-69.17194302484864
 20
-73.23935653137627
 30
0.0
  0
VERTEX
  5
18F
  8
HASH
 10
-69.12549376658967
 20
-73.19267394456602
 30
0.0
  0
VERTEX
  5
190
  8
HASH
 10
-69.08386742266165
 20
-73.13421095575507
 30
0.0
  0
VERTEX
  5
191
  8
HASH
 10
-69.04626017400943
 20
-73.05950418281887
 30
0.0
  0
VERTEX
  5
192
  8
HASH
 10
-69.01267202063303
 20
-72.96855362575748
 30
0.0
  0
VERTEX
  5
193
  8
HASH
 10
-68.98310296253244
 20
-72.8613592845709
 30
0.0
  0
VERTEX
  5
194
  8
HASH
 10
-68.95898839087761
 20
-72.7355797128987
 30
0.0
  0
VERTEX
  5
195
  8
HASH
 10
-68.94176369683842
 20
-72.58887346438054
 30
0.0
  0
VERTEX
  5
196
  8
HASH
 10
-68.93142888041491
 20
-72.4212405390164
 30
0.0
  0
VERTEX
  5
197
  8
HASH
 10
-68.92798394160707
 20
-72.23268093680628
 30
0.0
  0
VERTEX
  5
198
  8
HASH
 10
-68.93142888041491
 20
-72.04521888757759
 30
0.0
  0
VERTEX
  5
199
  8
HASH
 10
-68.94176369683842
 20
-71.88087862115773
 30
0.0
  0
VERTEX
  5
19A
  8
HASH
 10
-68.95898839087761
 20
-71.73966013754672
 30
0.0
  0
VERTEX
  5
19B
  8
HASH
 10
-68.98310296253244
 20
-71.62156343674457
 30
0.0
  0
VERTEX
  5
19C
  8
HASH
 10
-69.01341842404139
 20
-71.5208812432478
 30
0.0
  0
VERTEX
  5
19D
  8
HASH
 10
-69.04924578764289
 20
-71.431906281553
 30
0.0
  0
VERTEX
  5
19E
  8
HASH
 10
-69.09058505333692
 20
-71.35463855166013
 30
0.0
  0
VERTEX
  5
19F
  8
HASH
 10
-69.1374362211235
 20
-71.28907805356924
 30
0.0
  0
VERTEX
  5
1A0
  8
HASH
 10
-69.19037344747056
 20
-71.23420040449761
 30
0.0
  0
VERTEX
  5
1A1
  8
HASH
 10
-69.24997088884612
 20
-71.18898122166259
 30
0.0
  0
VERTEX
  5
1A2
  8
HASH
 10
-69.31622854525017
 20
-71.15342050506416
 30
0.0
  0
VERTEX
  5
1A3
  8
HASH
 10
-69.3891464166827
 20
-71.12751825470235
 30
0.0
  0
VERTEX
  5
1A4
  8
HASH
 10
-69.45976766224334
 20
-71.11317689574497
 30
0.0
  0
VERTEX
  5
1A5
  8
HASH
 10
-69.55771875567947
 20
-71.10293306791826
 30
0.0
  0
VERTEX
  5
1A6
  8
HASH
 10
-69.83561048617824
 20
-71.0947380056569
 30
0.0
  0
SEQEND
  5
3E4
  8
HASH
  0
POLYLINE
  5
7B
  8
HASH
 66
     1
 10
0.0
 20
0.0
 30
0.0
 70
     1
  0
VERTEX
  5
1A7
  8
HASH
 10
-70.62381248541108
 20
-70.51405930828027
 30
0.0
  0
VERTEX
  5
1A8
  8
HASH
 10
-69.62983280805683
 20
-70.51405930828027
 30
0.0
  0
VERTEX
  5
1A9
  8
HASH
 10
-69.47171011677716
 20
-70.51815683941095
 30
0.0
  0
VERTEX
  5
1AA
  8
HASH
 10
-69.33356807058294
 20
-70.530449432803
 30
0.0
  0
VERTEX
  5
1AB
  8
HASH
 10
-69.21540666947418
 20
-70.55093708845641
 30
0.0
  0
VERTEX
  5
1AC
  8
HASH
 10
-69.11722591345085
 20
-70.57961980637117
 30
0.0
  0
VERTEX
  5
1AD
  8
HASH
 10
-69.0029687763243
 20
-70.63274137067253
 30
0.0
  0
VERTEX
  5
1AE
  8
HASH
 10
-68.89720915492373
 20
-70.70313110188172
 30
0.0
  0
VERTEX
  5
1AF
  8
HASH
 10
-68.79994704924917
 20
-70.79078899999882
 30
0.0
  0
VERTEX
  5
1B0
  8
HASH
 10
-68.7111824593006
 20
-70.89571506502378
 30
0.0
  0
VERTEX
  5
1B1
  8
HASH
 10
-68.63171920413319
 20
-71.01564102079499
 30
0.0
  0
VERTEX
  5
1B2
  8
HASH
 10
-68.5623611028021
 20
-71.1482985911508
 30
0.0
  0
VERTEX
  5
1B3
  8
HASH
 10
-68.50310815530732
 20
-71.29368777609126
 30
0.0
  0
VERTEX
  5
1B4
  8
HASH
 10
-68.45396036164885
 20
-71.45180857561633
 30
0.0
  0
VERTEX
  5
1B5
  8
HASH
 10
-68.41537704700109
 20
-71.62588047847154
 30
0.0
  0
VERTEX
  5
1B6
  8
HASH
 10
-68.3878175365384
 20
-71.81912297340244
 30
0.0
  0
VERTEX
  5
1B7
  8
HASH
 10
-68.3712818302608
 20
-72.03153606040904
 30
0.0
  0
VERTEX
  5
1B8
  8
HASH
 10
-68.36576992816826
 20
-72.26311973949133
 30
0.0
  0
VERTEX
  5
1B9
  8
HASH
 10
-68.37093733638002
 20
-72.46770361523038
 30
0.0
  0
VERTEX
  5
1BA
  8
HASH
 10
-68.38643956101528
 20
-72.65765345121699
 30
0.0
  0
VERTEX
  5
1BB
  8
HASH
 10
-68.41227660207404
 20
-72.83296924745116
 30
0.0
  0
VERTEX
  5
1BC
  8
HASH
 10
-68.44844845955632
 20
-72.99365100393291
 30
0.0
  0
VERTEX
  5
1BD
  8
HASH
 10
-68.50437129953686
 20
-73.1720399485151
 30
0.0
  0
VERTEX
  5
1BE
  8
HASH
 10
-68.57108828111527
 20
-73.33257536459931
 30
0.0
  0
VERTEX
  5
1BF
  8
HASH
 10
-68.64859940429159
 20
-73.47525725218557
 30
0.0
  0
VERTEX
  5
1C0
  8
HASH
 10
-68.73690466906578
 20
-73.60008561127383
 30
0.0
  0
VERTEX
  5
1C1
  8
HASH
 10
-68.81384163577411
 20
-73.68306061667013
 30
0.0
  0
VERTEX
  5
1C2
  8
HASH
 10
-68.90318038219065
 20
-73.75637715582982
 30
0.0
  0
VERTEX
  5
1C3
  8
HASH
 10
-69.0049209083154
 20
-73.82003522875293
 30
0.0
  0
VERTEX
  5
1C4
  8
HASH
 10
-69.11906321414837
 20
-73.87403483543942
 30
0.0
  0
VERTEX
  5
1C5
  8
HASH
 10
-69.21666981370373
 20
-73.9057907017022
 30
0.0
  0
VERTEX
  5
1C6
  8
HASH
 10
-69.32943414401356
 20
-73.92847346331847
 30
0.0
  0
VERTEX
  5
1C7
  8
HASH
 10
-69.45735620507786
 20
-73.94208312028823
 30
0.0
  0
VERTEX
  5
1C8
  8
HASH
 10
-69.60043599689664
 20
-73.94661967261149
 30
0.0
  0
VERTEX
  5
1C9
  8
HASH
 10
-70.62381248541108
 20
-73.94661967261149
 30
0.0
  0
SEQEND
  5
3E5
  8
HASH
  0
POLYLINE
  5
7C
  8
HASH
 66
     1
 10
0.0
 20
0.0
 30
0.0
 70
     1
  0
VERTEX
  5
1CA
  8
HASH
 10
-72.79366460917332
 20
-71.96575605172185
 30
0.0
  0
VERTEX
  5
1CB
  8
HASH
 10
-72.39129575641809
 20
-71.96575605172185
 30
0.0
  0
VERTEX
  5
1CC
  8
HASH
 10
-72.07344273574843
 20
-71.9552195431001
 30
0.0
  0
VERTEX
  5
1CD
  8
HASH
 10
-71.96963524633897
 20
-71.9420489073229
 30
0.0
  0
VERTEX
  5
1CE
  8
HASH
 10
-71.90257377087977
 20
-71.92361001723484
 30
0.0
  0
VERTEX
  5
1CF
  8
HASH
 10
-71.85652642214836
 20
-71.8987321496557
 30
0.0
  0
VERTEX
  5
1D0
  8
HASH
 10
-71.81576131292232
 20
-71.86624458140528
 30
0.0
  0
VERTEX
  5
1D1
  8
HASH
 10
-71.7802784432016
 20
-71.82614731248361
 30
0.0
  0
VERTEX
  5
1D2
  8
HASH
 10
-71.75007781298623
 20
-71.77844034289068
 30
0.0
  0
VERTEX
  5
1D3
  8
HASH
 10
-71.72596324133139
 20
-71.72370903421657
 30
0.0
  0
VERTEX
  5
1D4
  8
HASH
 10
-71.7087385472922
 20
-71.66253874805139
 30
0.0
  0
VERTEX
  5
1D5
  8
HASH
 10
-71.69495879206086
 20
-71.52088124324781
 30
0.0
  0
VERTEX
  5
1D6
  8
HASH
 10
-71.69949462815785
 20
-71.43841842924283
 30
0.0
  0
VERTEX
  5
1D7
  8
HASH
 10
-71.7131021364488
 20
-71.36429701789675
 30
0.0
  0
VERTEX
  5
1D8
  8
HASH
 10
-71.73578131693371
 20
-71.29851700920955
 30
0.0
  0
VERTEX
  5
1D9
  8
HASH
 10
-71.7675321696126
 20
-71.24107840318125
 30
0.0
  0
VERTEX
  5
1DA
  8
HASH
 10
-71.8075508754303
 20
-71.19271290179947
 30
0.0
  0
VERTEX
  5
1DB
  8
HASH
 10
-71.85503361533164
 20
-71.1541522070518
 30
0.0
  0
VERTEX
  5
1DC
  8
HASH
 10
-71.90998038931662
 20
-71.12539631893826
 30
0.0
  0
VERTEX
  5
1DD
  8
HASH
 10
-71.97239119738524
 20
-71.10644523745884
 30
0.0
  0
VERTEX
  5
1DE
  8
HASH
 10
-72.10467684760613
 20
-71.09766481360738
 30
0.0
  0
VERTEX
  5
1DF
  8
HASH
 10
-72.36924814804793
 20
-71.0947380056569
 30
0.0
  0
VERTEX
  5
1E0
  8
HASH
 10
-72.79366460917332
 20
-71.0947380056569
 30
0.0
  0
SEQEND
  5
3E6
  8
HASH
  0
POLYLINE
  5
7D
  8
HASH
 66
     1
 10
0.0
 20
0.0
 30
0.0
 70
     1
  0
VERTEX
  5
1E1
  8
HASH
 10
-73.337505615637
 20
-73.94661967261149
 30
0.0
  0
VERTEX
  5
1E2
  8
HASH
 10
-73.337505615637
 20
-70.51405930828027
 30
0.0
  0
VERTEX
  5
1E3
  8
HASH
 10
-72.19286728108673
 20
-70.51405930828027
 30
0.0
  0
VERTEX
  5
1E4
  8
HASH
 10
-71.99174027035593
 20
-70.51983975398247
 30
0.0
  0
VERTEX
  5
1E5
  8
HASH
 10
-71.8201249020789
 20
-70.53718109108911
 30
0.0
  0
VERTEX
  5
1E6
  8
HASH
 10
-71.67802117625567
 20
-70.56608331960018
 30
0.0
  0
VERTEX
  5
1E7
  8
HASH
 10
-71.56542909288623
 20
-70.60654643951565
 30
0.0
  0
VERTEX
  5
1E8
  8
HASH
 10
-71.47247316072148
 20
-70.6617899395811
 30
0.0
  0
VERTEX
  5
1E9
  8
HASH
 10
-71.38927788851223
 20
-70.73503330854203
 30
0.0
  0
VERTEX
  5
1EA
  8
HASH
 10
-71.31584327625853
 20
-70.82627654639847
 30
0.0
  0
VERTEX
  5
1EB
  8
HASH
 10
-71.25216932396035
 20
-70.93551965315041
 30
0.0
  0
VERTEX
  5
1EC
  8
HASH
 10
-71.20072490443
 20
-71.05800656587829
 30
0.0
  0
VERTEX
  5
1ED
  8
HASH
 10
-71.16397889047977
 20
-71.18898122166257
 30
0.0
  0
VERTEX
  5
1EE
  8
HASH
 10
-71.14193128210961
 20
-71.3284436205033
 30
0.0
  0
VERTEX
  5
1EF
  8
HASH
 10
-71.13458207931956
 20
-71.4763937624004
 30
0.0
  0
VERTEX
  5
1F0
  8
HASH
 10
-71.14572071479823
 20
-71.66114851427488
 30
0.0
  0
VERTEX
  5
1F1
  8
HASH
 10
-71.17913662123424
 20
-71.82907412043409
 30
0.0
  0
VERTEX
  5
1F2
  8
HASH
 10
-71.23482979862757
 20
-71.98017058087798
 30
0.0
  0
VERTEX
  5
1F3
  8
HASH
 10
-71.31280024697827
 20
-72.11443789560659
 30
0.0
  0
VERTEX
  5
1F4
  8
HASH
 10
-71.36011073993922
 20
-72.17445575114127
 30
0.0
  0
VERTEX
  5
1F5
  8
HASH
 10
-71.4129331349927
 20
-72.22865657587435
 30
0.0
  0
VERTEX
  5
1F6
  8
HASH
 10
-71.47126743213872
 20
-72.27704036980585
 30
0.0
  0
VERTEX
  5
1F7
  8
HASH
 10
-71.53511363137727
 20
-72.31960713293574
 30
0.0
  0
VERTEX
  5
1F8
  8
HASH
 10
-71.60447173270836
 20
-72.35635686526405
 30
0.0
  0
VERTEX
  5
1F9
  8
HASH
 10
-71.67934173613202
 20
-72.38728956679077
 30
0.0
  0
VERTEX
  5
1FA
  8
HASH
 10
-71.84561744925688
 20
-72.43170387743939
 30
0.0
  0
VERTEX
  5
1FB
  8
HASH
 10
-71.68462397563735
 20
-72.56926385111228
 30
0.0
  0
VERTEX
  5
1FC
  8
HASH
 10
-71.61566778383384
 20
-72.64287307106704
 30
0.0
  0
VERTEX
  5
1FD
  8
HASH
 10
-71.55440528870115
 20
-72.71970177976732
 30
0.0
  0
VERTEX
  5
1FE
  8
HASH
 10
-71.49199448063251
 20
-72.81335963418292
 30
0.0
  0
VERTEX
  5
1FF
  8
HASH
 10
-71.41959335002116
 20
-72.93745629128355
 30
0.0
  0
VERTEX
  5
200
  8
HASH
 10
-71.2448201211703
 20
-73.27696601354005
 30
0.0
  0
VERTEX
  5
201
  8
HASH
 10
-70.91594329631558
 20
-73.94661967261149
 30
0.0
  0
VERTEX
  5
202
  8
HASH
 10
-71.56634774323499
 20
-73.94661967261149
 30
0.0
  0
VERTEX
  5
203
  8
HASH
 10
-71.95953009250265
 20
-73.1996982836472
 30
0.0
  0
VERTEX
  5
204
  8
HASH
 10
-72.13591095946384
 20
-72.87335919716787
 30
0.0
  0
VERTEX
  5
205
  8
HASH
 10
-72.24614900131459
 20
-72.69511659298323
 30
0.0
  0
VERTEX
  5
206
  8
HASH
 10
-72.325612256482
 20
-72.60731235446862
 30
0.0
  0
VERTEX
  5
207
  8
HASH
 10
-72.40966876339321
 20
-72.55228836499946
 30
0.0
  0
VERTEX
  5
208
  8
HASH
 10
-72.45916105093245
 20
-72.53538604908539
 30
0.0
  0
VERTEX
  5
209
  8
HASH
 10
-72.52128478076709
 20
-72.52331296628962
 30
0.0
  0
VERTEX
  5
20A
  8
HASH
 10
-72.68342656732257
 20
-72.51365450005302
 30
0.0
  0
VERTEX
  5
20B
  8
HASH
 10
-72.79366460917332
 20
-72.51365450005302
 30
0.0
  0
VERTEX
  5
20C
  8
HASH
 10
-72.79366460917332
 20
-73.94661967261149
 30
0.0
  0
SEQEND
  5
3E7
  8
HASH
  0
POLYLINE
  5
7E
  8
HASH
 66
     1
 10
0.0
 20
0.0
 30
0.0
 70
     1
  0
VERTEX
  5
20D
  8
HASH
 10
-74.62912800598828
 20
-72.5885807835855
 30
0.0
  0
VERTEX
  5
20E
  8
HASH
 10
-75.0002627468858
 20
-71.31483396353353
 30
0.0
  0
VERTEX
  5
20F
  8
HASH
 10
-75.36404828499326
 20
-72.5885807835855
 30
0.0
  0
SEQEND
  5
3E8
  8
HASH
  0
POLYLINE
  5
7F
  8
HASH
 66
     1
 10
0.0
 20
0.0
 30
0.0
 70
     1
  0
VERTEX
  5
210
  8
HASH
 10
-73.62779912584398
 20
-73.94661967261149
 30
0.0
  0
VERTEX
  5
211
  8
HASH
 10
-74.219409950443
 20
-73.94661967261149
 30
0.0
  0
VERTEX
  5
212
  8
HASH
 10
-74.4545844397246
 20
-73.16691803460174
 30
0.0
  0
VERTEX
  5
213
  8
HASH
 10
-75.5312426484669
 20
-73.16691803460174
 30
0.0
  0
VERTEX
  5
214
  8
HASH
 10
-75.7535560328659
 20
-73.94661967261149
 30
0.0
  0
VERTEX
  5
215
  8
HASH
 10
-76.33046845188483
 20
-73.94661967261149
 30
0.0
  0
VERTEX
  5
216
  8
HASH
 10
-75.2813697536052
 20
-70.51405930828027
 30
0.0
  0
VERTEX
  5
217
  8
HASH
 10
-74.7062946352838
 20
-70.51405930828027
 30
0.0
  0
SEQEND
  5
3E9
  8
HASH
  0
POLYLINE
  5
80
  8
HASH
 66
     1
 10
0.0
 20
0.0
 30
0.0
 70
     1
  0
VERTEX
  5
218
  8
HASH
 10
-78.53339198820227
 20
-72.2279980440855
 30
0.0
  0
VERTEX
  5
219
  8
HASH
 10
-78.52018638943889
 20
-72.50187409805233
 30
0.0
  0
VERTEX
  5
21A
  8
HASH
 10
-78.50367939098469
 20
-72.62558661160946
 30
0.0
  0
VERTEX
  5
21B
  8
HASH
 10
-78.48056959314879
 20
-72.74048211621577
 30
0.0
  0
VERTEX
  5
21C
  8
HASH
 10
-78.45085699593119
 20
-72.84656061187124
 30
0.0
  0
VERTEX
  5
21D
  8
HASH
 10
-78.41454159933193
 20
-72.94382209857586
 30
0.0
  0
VERTEX
  5
21E
  8
HASH
 10
-78.37162340335097
 20
-73.03226657632965
 30
0.0
  0
VERTEX
  5
21F
  8
HASH
 10
-78.32210240798833
 20
-73.11189404513259
 30
0.0
  0
VERTEX
  5
220
  8
HASH
 10
-78.26750012788415
 20
-73.18241182418963
 30
0.0
  0
VERTEX
  5
221
  8
HASH
 10
-78.20933807767851
 20
-73.24352723270573
 30
0.0
  0
VERTEX
  5
222
  8
HASH
 10
-78.14761625737145
 20
-73.2952402706809
 30
0.0
  0
VERTEX
  5
223
  8
HASH
 10
-78.08233466696296
 20
-73.33755093811513
 30
0.0
  0
VERTEX
  5
224
  8
HASH
 10
-78.01349330645306
 20
-73.37045923500843
 30
0.0
  0
VERTEX
  5
225
  8
HASH
 10
-77.94109217584169
 20
-73.39396516136077
 30
0.0
  0
VERTEX
  5
226
  8
HASH
 10
-77.8651312751289
 20
-73.40806871717218
 30
0.0
  0
VERTEX
  5
227
  8
HASH
 10
-77.78561060431468
 20
-73.41276990244265
 30
0.0
  0
VERTEX
  5
228
  8
HASH
 10
-77.70613299523558
 20
-73.40810530227157
 30
0.0
  0
VERTEX
  5
229
  8
HASH
 10
-77.63030127972809
 20
-73.3941115017583
 30
0.0
  0
VERTEX
  5
22A
  8
HASH
 10
-77.55811545779221
 20
-73.37078850090286
 30
0.0
  0
VERTEX
  5
22B
  8
HASH
 10
-77.48957552942798
 20
-73.33813629970524
 30
0.0
  0
VERTEX
  5
22C
  8
HASH
 10
-77.42468149463537
 20
-73.29615489816544
 30
0.0
  0
VERTEX
  5
22D
  8
HASH
 10
-77.3634333534144
 20
-73.24484429628347
 30
0.0
  0
VERTEX
  5
22E
  8
HASH
 10
-77.30583110576504
 20
-73.18420449405932
 30
0.0
  0
VERTEX
  5
22F
  8
HASH
 10
-77.25187475168731
 20
-73.11423549149298
 30
0.0
  0
VERTEX
  5
230
  8
HASH
 10
-77.20299968235113
 20
-73.03493728858447
 30
0.0
  0
VERTEX
  5
231
  8
HASH
 10
-77.16064128892646
 20
-72.94630988533379
 30
0.0
  0
VERTEX
  5
232
  8
HASH
 10
-77.12479957141326
 20
-72.84835328174091
 30
0.0
  0
VERTEX
  5
233
  8
HASH
 10
-77.09547452981157
 20
-72.74106747780587
 30
0.0
  0
VERTEX
  5
234
  8
HASH
 10
-77.07266616412136
 20
-72.62445247352866
 30
0.0
  0
VERTEX
  5
235
  8
HASH
 10
-77.05637447434263
 20
-72.49850826890926
 30
0.0
  0
VERTEX
  5
236
  8
HASH
 10
-77.04334112251965
 20
-72.21863225864394
 30
0.0
  0
VERTEX
  5
237
  8
HASH
 10
-77.05602998046184
 20
-71.94234158811796
 30
0.0
  0
VERTEX
  5
238
  8
HASH
 10
-77.0718910528896
 20
-71.81824493101732
 30
0.0
  0
VERTEX
  5
239
  8
HASH
 10
-77.09409655428844
 20
-71.70351405935821
 30
0.0
  0
VERTEX
  5
23A
  8
HASH
 10
-77.12264648465838
 20
-71.5981489731407
 30
0.0
  0
VERTEX
  5
23B
  8
HASH
 10
-77.15754084399941
 20
-71.50214967236471
 30
0.0
  0
VERTEX
  5
23C
  8
HASH
 10
-77.19877963231154
 20
-71.4155161570303
 30
0.0
  0
VERTEX
  5
23D
  8
HASH
 10
-77.24636284959477
 20
-71.33824842713743
 30
0.0
  0
VERTEX
  5
23E
  8
HASH
 10
-77.29919959855995
 20
-71.27020014228862
 30
0.0
  0
VERTEX
  5
23F
  8
HASH
 10
-77.35619898191794
 20
-71.2112249620863
 30
0.0
  0
VERTEX
  5
240
  8
HASH
 10
-77.41736099966872
 20
-71.1613228865305
 30
0.0
  0
VERTEX
  5
241
  8
HASH
 10
-77.48268565181232
 20
-71.1204939156212
 30
0.0
  0
VERTEX
  5
242
  8
HASH
 10
-77.55217293834869
 20
-71.0887380493584
 30
0.0
  0
VERTEX
  5
243
  8
HASH
 10
-77.62582285927789
 20
-71.06605528774213
 30
0.0
  0
VERTEX
  5
244
  8
HASH
 10
-77.70363541459989
 20
-71.05244563077235
 30
0.0
  0
VERTEX
  5
245
  8
HASH
 10
-77.78561060431468
 20
-71.04790907844911
 30
0.0
  0
VERTEX
  5
246
  8
HASH
 10
-77.8676288557646
 20
-71.05250050842143
 30
0.0
  0
VERTEX
  5
247
  8
HASH
 10
-77.94557059629187
 20
-71.06627479833841
 30
0.0
  0
VERTEX
  5
248
  8
HASH
 10
-78.01943582589655
 20
-71.08923194820005
 30
0.0
  0
VERTEX
  5
249
  8
HASH
 10
-78.08922454457863
 20
-71.12137195800634
 30
0.0
  0
VERTEX
  5
24A
  8
HASH
 10
-78.1549367523381
 20
-71.16269482775729
 30
0.0
  0
VERTEX
  5
24B
  8
HASH
 10
-78.21657244917495
 20
-71.21320055745286
 30
0.0
  0
VERTEX
  5
24C
  8
HASH
 10
-78.27413163508922
 20
-71.27288914709311
 30
0.0
  0
VERTEX
  5
24D
  8
HASH
 10
-78.32761431008086
 20
-71.341760596678
 30
0.0
  0
VERTEX
  5
24E
  8
HASH
 10
-78.37584345339056
 20
-71.41988807640631
 30
0.0
  0
VERTEX
  5
24F
  8
HASH
 10
-78.41764204425897
 20
-71.5073447564768
 30
0.0
  0
VERTEX
  5
250
  8
HASH
 10
-78.45301008268609
 20
-71.60413063688947
 30
0.0
  0
VERTEX
  5
251
  8
HASH
 10
-78.48194756867191
 20
-71.71024571764431
 30
0.0
  0
VERTEX
  5
252
  8
HASH
 10
-78.50445450221645
 20
-71.82568999874132
 30
0.0
  0
VERTEX
  5
253
  8
HASH
 10
-78.52053088331968
 20
-71.95046348018053
 30
0.0
  0
SEQEND
  5
3EA
  8
HASH
  0
POLYLINE
  5
81
  8
HASH
 66
     1
 10
0.0
 20
0.0
 30
0.0
 70
     1
  0
VERTEX
  5
254
  8
HASH
 10
-79.09376870094357
 20
-72.25141250768938
 30
0.0
  0
VERTEX
  5
255
  8
HASH
 10
-79.08607500427273
 20
-71.99970702394748
 30
0.0
  0
VERTEX
  5
256
  8
HASH
 10
-79.06299391426023
 20
-71.7690745574491
 30
0.0
  0
VERTEX
  5
257
  8
HASH
 10
-79.02452543090605
 20
-71.55951510819423
 30
0.0
  0
VERTEX
  5
258
  8
HASH
 10
-78.97066955421023
 20
-71.37102867618287
 30
0.0
  0
VERTEX
  5
259
  8
HASH
 10
-78.92054569455624
 20
-71.2432735091441
 30
0.0
  0
VERTEX
  5
25A
  8
HASH
 10
-78.86203915046981
 20
-71.12225000039147
 30
0.0
  0
VERTEX
  5
25B
  8
HASH
 10
-78.79514992195101
 20
-71.00795814992495
 30
0.0
  0
VERTEX
  5
25C
  8
HASH
 10
-78.71987800899979
 20
-70.90039795774456
 30
0.0
  0
VERTEX
  5
25D
  8
HASH
 10
-78.63852003748806
 20
-70.80293525299334
 30
0.0
  0
VERTEX
  5
25E
  8
HASH
 10
-78.55337263328772
 20
-70.71893586481434
 30
0.0
  0
VERTEX
  5
25F
  8
HASH
 10
-78.46443579639876
 20
-70.64839979320762
 30
0.0
  0
VERTEX
  5
260
  8
HASH
 10
-78.37170952682116
 20
-70.59132703817312
 30
0.0
  0
VERTEX
  5
261
  8
HASH
 10
-78.24103151471058
 20
-70.53191283677823
 30
0.0
  0
VERTEX
  5
262
  8
HASH
 10
-78.10070767393808
 20
-70.48947412149617
 30
0.0
  0
VERTEX
  5
263
  8
HASH
 10
-77.95073800450362
 20
-70.46401089232694
 30
0.0
  0
VERTEX
  5
264
  8
HASH
 10
-77.79112250640722
 20
-70.45552314927053
 30
0.0
  0
VERTEX
  5
265
  8
HASH
 10
-77.64601881303884
 20
-70.46287675424614
 30
0.0
  0
VERTEX
  5
266
  8
HASH
 10
-77.50835044593069
 20
-70.48493756917293
 30
0.0
  0
VERTEX
  5
267
  8
HASH
 10
-77.3781174050828
 20
-70.52170559405091
 30
0.0
  0
VERTEX
  5
268
  8
HASH
 10
-77.25531969049516
 20
-70.57318082888011
 30
0.0
  0
VERTEX
  5
269
  8
HASH
 10
-77.13995730216776
 20
-70.6393632736605
 30
0.0
  0
VERTEX
  5
26A
  8
HASH
 10
-77.0320302401006
 20
-70.72025292839209
 30
0.0
  0
VERTEX
  5
26B
  8
HASH
 10
-76.93153850429368
 20
-70.81584979307488
 30
0.0
  0
VERTEX
  5
26C
  8
HASH
 10
-76.83848209474701
 20
-70.92615386770885
 30
0.0
  0
VERTEX
  5
26D
  8
HASH
 10
-76.75472701998152
 20
-71.04955540792125
 30
0.0
  0
VERTEX
  5
26E
  8
HASH
 10
-76.68213928851807
 20
-71.18444466933931
 30
0.0
  0
VERTEX
  5
26F
  8
HASH
 10
-76.62071890035669
 20
-71.33082165196305
 30
0.0
  0
VERTEX
  5
270
  8
HASH
 10
-76.57046585549737
 20
-71.48868635579245
 30
0.0
  0
VERTEX
  5
271
  8
HASH
 10
-76.53138015394013
 20
-71.65803878082752
 30
0.0
  0
VERTEX
  5
272
  8
HASH
 10
-76.50346179568497
 20
-71.83887892706824
 30
0.0
  0
VERTEX
  5
273
  8
HASH
 10
-76.48671078073187
 20
-72.03120679451462
 30
0.0
  0
VERTEX
  5
274
  8
HASH
 10
-76.48112710908083
 20
-72.23502238316665
 30
0.0
  0
VERTEX
  5
275
  8
HASH
 10
-76.48666771899677
 20
-72.43717334979686
 30
0.0
  0
VERTEX
  5
276
  8
HASH
 10
-76.50328954874456
 20
-72.62801952071831
 30
0.0
  0
VERTEX
  5
277
  8
HASH
 10
-76.53099259832425
 20
-72.80756089593099
 30
0.0
  0
VERTEX
  5
278
  8
HASH
 10
-76.56977686773581
 20
-72.97579747543493
 30
0.0
  0
VERTEX
  5
279
  8
HASH
 10
-76.61964235697923
 20
-73.1327292592301
 30
0.0
  0
VERTEX
  5
27A
  8
HASH
 10
-76.68058906605452
 20
-73.27835624731654
 30
0.0
  0
VERTEX
  5
27B
  8
HASH
 10
-76.7526169949617
 20
-73.41267843969419
 30
0.0
  0
VERTEX
  5
27C
  8
HASH
 10
-76.83572614370074
 20
-73.5356958363631
 30
0.0
  0
VERTEX
  5
27D
  8
HASH
 10
-76.92810791939755
 20
-73.64572552275172
 30
0.0
  0
VERTEX
  5
27E
  8
HASH
 10
-77.02795372917798
 20
-73.74108458428853
 30
0.0
  0
VERTEX
  5
27F
  8
HASH
 10
-77.13526357304207
 20
-73.82177302097352
 30
0.0
  0
VERTEX
  5
280
  8
HASH
 10
-77.2500374509898
 20
-73.8877908328067
 30
0.0
  0
VERTEX
  5
281
  8
HASH
 10
-77.37227536302117
 20
-73.93913801978806
 30
0.0
  0
VERTEX
  5
282
  8
HASH
 10
-77.5019773091362
 20
-73.9758145819176
 30
0.0
  0
VERTEX
  5
283
  8
HASH
 10
-77.63914328933487
 20
-73.99782051919533
 30
0.0
  0
VERTEX
  5
284
  8
HASH
 10
-77.78377330361718
 20
-74.00515583162124
 30
0.0
  0
VERTEX
  5
285
  8
HASH
 10
-77.93012578730341
 20
-73.99785710429471
 30
0.0
  0
VERTEX
  5
286
  8
HASH
 10
-78.0687845743188
 20
-73.97596092231514
 30
0.0
  0
VERTEX
  5
287
  8
HASH
 10
-78.19974966466336
 20
-73.9394672856825
 30
0.0
  0
VERTEX
  5
288
  8
HASH
 10
-78.32302105833708
 20
-73.88837619439681
 30
0.0
  0
VERTEX
  5
289
  8
HASH
 10
-78.43859875533997
 20
-73.82268764845807
 30
0.0
  0
VERTEX
  5
28A
  8
HASH
 10
-78.54648275567203
 20
-73.74240164786627
 30
0.0
  0
VERTEX
  5
28B
  8
HASH
 10
-78.64667305933327
 20
-73.6475181926214
 30
0.0
  0
VERTEX
  5
28C
  8
HASH
 10
-78.73916966632366
 20
-73.5380372827235
 30
0.0
  0
VERTEX
  5
28D
  8
HASH
 10
-78.8222788150627
 20
-73.41575158804221
 30
0.0
  0
VERTEX
  5
28E
  8
HASH
 10
-78.89430674396988
 20
-73.2824537784472
 30
0.0
  0
VERTEX
  5
28F
  8
HASH
 10
-78.95525345304517
 20
-73.13814385393852
 30
0.0
  0
VERTEX
  5
290
  8
HASH
 10
-79.00511894228859
 20
-72.9828218145161
 30
0.0
  0
VERTEX
  5
291
  8
HASH
 10
-79.04390321170015
 20
-72.81648766017999
 30
0.0
  0
VERTEX
  5
292
  8
HASH
 10
-79.07160626127984
 20
-72.63914139093015
 30
0.0
  0
VERTEX
  5
293
  8
HASH
 10
-79.08822809102763
 20
-72.45078300676661
 30
0.0
  0
SEQEND
  5
3EB
  8
HASH
  0
POLYLINE
  5
82
  8
HASH
 66
     1
 10
0.0
 20
0.0
 30
0.0
 70
     1
  0
VERTEX
  5
294
  8
HASH
 10
-81.15522008355255
 20
-72.45043544832251
 30
0.0
  0
VERTEX
  5
295
  8
HASH
 10
-81.15522008355255
 20
-73.36828242159525
 30
0.0
  0
VERTEX
  5
296
  8
HASH
 10
-80.65179969243414
 20
-73.36828242159525
 30
0.0
  0
VERTEX
  5
297
  8
HASH
 10
-80.41157262623437
 20
-73.36301416728438
 30
0.0
  0
VERTEX
  5
298
  8
HASH
 10
-80.2788276508391
 20
-73.34720940435174
 30
0.0
  0
VERTEX
  5
299
  8
HASH
 10
-80.22101009451424
 20
-73.32811198247481
 30
0.0
  0
VERTEX
  5
29A
  8
HASH
 10
-80.16881927157553
 20
-73.29891707316871
 30
0.0
  0
VERTEX
  5
29B
  8
HASH
 10
-80.12225518202295
 20
-73.25962467643342
 30
0.0
  0
VERTEX
  5
29C
  8
HASH
 10
-80.08131782585652
 20
-73.21023479226895
 30
0.0
  0
VERTEX
  5
29D
  8
HASH
 10
-80.0479593350673
 20
-73.15118644186788
 30
0.0
  0
VERTEX
  5
29E
  8
HASH
 10
-80.02413184164644
 20
-73.08291864642277
 30
0.0
  0
VERTEX
  5
29F
  8
HASH
 10
-80.00983534559393
 20
-73.00543140593362
 30
0.0
  0
VERTEX
  5
2A0
  8
HASH
 10
-80.00506984690975
 20
-72.91872472040043
 30
0.0
  0
VERTEX
  5
2A1
  8
HASH
 10
-80.00874444830477
 20
-72.84438379845805
 30
0.0
  0
VERTEX
  5
2A2
  8
HASH
 10
-80.01976825248985
 20
-72.77589649241666
 30
0.0
  0
VERTEX
  5
2A3
  8
HASH
 10
-80.03814125946496
 20
-72.71326280227623
 30
0.0
  0
VERTEX
  5
2A4
  8
HASH
 10
-80.06386346923014
 20
-72.65648272803679
 30
0.0
  0
VERTEX
  5
2A5
  8
HASH
 10
-80.09653297225779
 20
-72.60628797168596
 30
0.0
  0
VERTEX
  5
2A6
  8
HASH
 10
-80.13574785902033
 20
-72.56341023521131
 30
0.0
  0
VERTEX
  5
2A7
  8
HASH
 10
-80.18150812951774
 20
-72.52784951861288
 30
0.0
  0
VERTEX
  5
2A8
  8
HASH
 10
-80.23381378375005
 20
-72.49960582189068
 30
0.0
  0
VERTEX
  5
2A9
  8
HASH
 10
-80.30564075789343
 20
-72.47809378345463
 30
0.0
  0
VERTEX
  5
2AA
  8
HASH
 10
-80.40996498812406
 20
-72.46272804171456
 30
0.0
  0
VERTEX
  5
2AB
  8
HASH
 10
-80.71610521684707
 20
-72.45043544832251
 30
0.0
  0
SEQEND
  5
3EC
  8
HASH
  0
POLYLINE
  5
83
  8
HASH
 66
     1
 10
0.0
 20
0.0
 30
0.0
 70
     1
  0
VERTEX
  5
2AC
  8
HASH
 10
-81.15522008355255
 20
-71.08537222021535
 30
0.0
  0
VERTEX
  5
2AD
  8
HASH
 10
-81.15522008355255
 20
-71.87912253638743
 30
0.0
  0
VERTEX
  5
2AE
  8
HASH
 10
-80.79878374823514
 20
-71.87912253638743
 30
0.0
  0
VERTEX
  5
2AF
  8
HASH
 10
-80.54110232540901
 20
-71.87619572843695
 30
0.0
  0
VERTEX
  5
2B0
  8
HASH
 10
-80.40376409826995
 20
-71.86741530458548
 30
0.0
  0
VERTEX
  5
2B1
  8
HASH
 10
-80.3376786888063
 20
-71.85183005224914
 30
0.0
  0
VERTEX
  5
2B2
  8
HASH
 10
-80.27905731342629
 20
-71.82614731248361
 30
0.0
  0
VERTEX
  5
2B3
  8
HASH
 10
-80.22789997212993
 20
-71.7903670852889
 30
0.0
  0
VERTEX
  5
2B4
  8
HASH
 10
-80.18420666491721
 20
-71.74448937066502
 30
0.0
  0
VERTEX
  5
2B5
  8
HASH
 10
-80.14924053601769
 20
-71.68953855139463
 30
0.0
  0
VERTEX
  5
2B6
  8
HASH
 10
-80.12426472966088
 20
-71.62653901026039
 30
0.0
  0
VERTEX
  5
2B7
  8
HASH
 10
-80.10927924584679
 20
-71.55549074726233
 30
0.0
  0
VERTEX
  5
2B8
  8
HASH
 10
-80.10428408457543
 20
-71.4763937624004
 30
0.0
  0
VERTEX
  5
2B9
  8
HASH
 10
-80.10859025808523
 20
-71.40051626628403
 30
0.0
  0
VERTEX
  5
2BA
  8
HASH
 10
-80.12150877861461
 20
-71.3321021304414
 30
0.0
  0
VERTEX
  5
2BB
  8
HASH
 10
-80.14303964616357
 20
-71.2711513548725
 30
0.0
  0
VERTEX
  5
2BC
  8
HASH
 10
-80.17318286073214
 20
-71.21766393957736
 30
0.0
  0
VERTEX
  5
2BD
  8
HASH
 10
-80.21182359102669
 20
-71.17281060773615
 30
0.0
  0
VERTEX
  5
2BE
  8
HASH
 10
-80.25884700575365
 20
-71.13776208252906
 30
0.0
  0
VERTEX
  5
2BF
  8
HASH
 10
-80.314253104913
 20
-71.11251836395611
 30
0.0
  0
VERTEX
  5
2C0
  8
HASH
 10
-80.37804188850478
 20
-71.09707945201728
 30
0.0
  0
VERTEX
  5
2C1
  8
HASH
 10
-80.53467177296773
 20
-71.08829902816584
 30
0.0
  0
VERTEX
  5
2C2
  8
HASH
 10
-80.84287896497543
 20
-71.08537222021535
 30
0.0
  0
SEQEND
  5
3ED
  8
HASH
  0
POLYLINE
  5
84
  8
HASH
 66
     1
 10
0.0
 20
0.0
 30
0.0
 70
     1
  0
VERTEX
  5
2C3
  8
HASH
 10
-81.69906109001624
 20
-70.51405930828027
 30
0.0
  0
VERTEX
  5
2C4
  8
HASH
 10
-80.62240288127394
 20
-70.51405930828027
 30
0.0
  0
VERTEX
  5
2C5
  8
HASH
 10
-80.34336283783924
 20
-70.52254705133669
 30
0.0
  0
VERTEX
  5
2C6
  8
HASH
 10
-80.14562335026945
 20
-70.54801028050592
 30
0.0
  0
VERTEX
  5
2C7
  8
HASH
 10
-80.06914570873549
 20
-70.56959548914077
 30
0.0
  0
VERTEX
  5
2C8
  8
HASH
 10
-79.99680199377093
 20
-70.60040014281964
 30
0.0
  0
VERTEX
  5
2C9
  8
HASH
 10
-79.9285922053758
 20
-70.64042424154255
 30
0.0
  0
VERTEX
  5
2CA
  8
HASH
 10
-79.86451634355004
 20
-70.6896677853095
 30
0.0
  0
VERTEX
  5
2CB
  8
HASH
 10
-79.80509114911487
 20
-70.74798443372295
 30
0.0
  0
VERTEX
  5
2CC
  8
HASH
 10
-79.75083336289146
 20
-70.81522784638538
 30
0.0
  0
VERTEX
  5
2CD
  8
HASH
 10
-79.7017429848798
 20
-70.8913980232968
 30
0.0
  0
VERTEX
  5
2CE
  8
HASH
 10
-79.65782001507989
 20
-70.97649496445722
 30
0.0
  0
VERTEX
  5
2CF
  8
HASH
 10
-79.62164815759762
 20
-71.06876258509632
 30
0.0
  0
VERTEX
  5
2D0
  8
HASH
 10
-79.59581111653884
 20
-71.16644480044383
 30
0.0
  0
VERTEX
  5
2D1
  8
HASH
 10
-79.58030889190357
 20
-71.26954161049974
 30
0.0
  0
VERTEX
  5
2D2
  8
HASH
 10
-79.57514148369182
 20
-71.37805301526404
 30
0.0
  0
VERTEX
  5
2D3
  8
HASH
 10
-79.58151462048632
 20
-71.4961497160662
 30
0.0
  0
VERTEX
  5
2D4
  8
HASH
 10
-79.6006340308698
 20
-71.60927084335253
 30
0.0
  0
VERTEX
  5
2D5
  8
HASH
 10
-79.63249971484228
 20
-71.71741639712303
 30
0.0
  0
VERTEX
  5
2D6
  8
HASH
 10
-79.67711167240377
 20
-71.8205863773777
 30
0.0
  0
VERTEX
  5
2D7
  8
HASH
 10
-79.73263260285673
 20
-71.91497593378091
 30
0.0
  0
VERTEX
  5
2D8
  8
HASH
 10
-79.79722520550365
 20
-71.996780215997
 30
0.0
  0
VERTEX
  5
2D9
  8
HASH
 10
-79.87088948034453
 20
-72.06599922402603
 30
0.0
  0
VERTEX
  5
2DA
  8
HASH
 10
-79.9536254273794
 20
-72.12263295786795
 30
0.0
  0
VERTEX
  5
2DB
  8
HASH
 10
-79.83764582084893
 20
-72.1763398837594
 30
0.0
  0
VERTEX
  5
2DC
  8
HASH
 10
-79.73590529472418
 20
-72.24614425337852
 30
0.0
  0
VERTEX
  5
2DD
  8
HASH
 10
-79.64840384900515
 20
-72.33204606672531
 30
0.0
  0
VERTEX
  5
2DE
  8
HASH
 10
-79.57514148369182
 20
-72.43404532379978
 30
0.0
  0
VERTEX
  5
2DF
  8
HASH
 10
-79.51726651172018
 20
-72.54892253585639
 30
0.0
  0
VERTEX
  5
2E0
  8
HASH
 10
-79.47592724602615
 20
-72.67345821414962
 30
0.0
  0
VERTEX
  5
2E1
  8
HASH
 10
-79.45112368660973
 20
-72.80765235867945
 30
0.0
  0
VERTEX
  5
2E2
  8
HASH
 10
-79.44285583347093
 20
-72.95150496944589
 30
0.0
  0
VERTEX
  5
2E3
  8
HASH
 10
-79.44819548862309
 20
-73.067772415279
 30
0.0
  0
VERTEX
  5
2E4
  8
HASH
 10
-79.46421445407952
 20
-73.18243011673931
 30
0.0
  0
VERTEX
  5
2E5
  8
HASH
 10
-79.49091272984026
 20
-73.29547807382687
 30
0.0
  0
VERTEX
  5
2E6
  8
HASH
 10
-79.52829031590527
 20
-73.40691628654167
 30
0.0
  0
VERTEX
  5
2E7
  8
HASH
 10
-79.57491182110465
 20
-73.51198869196416
 30
0.0
  0
VERTEX
  5
2E8
  8
HASH
 10
-79.62934185426845
 20
-73.6059392271748
 30
0.0
  0
VERTEX
  5
2E9
  8
HASH
 10
-79.69158041539669
 20
-73.68876789217359
 30
0.0
  0
VERTEX
  5
2EA
  8
HASH
 10
-79.76162750448934
 20
-73.7604746869605
 30
0.0
  0
VERTEX
  5
2EB
  8
HASH
 10
-79.83988503107402
 20
-73.82025473934921
 30
0.0
  0
VERTEX
  5
2EC
  8
HASH
 10
-79.92675490467828
 20
-73.8673031771533
 30
0.0
  0
VERTEX
  5
2ED
  8
HASH
 10
-80.02223712530213
 20
-73.90162000037276
 30
0.0
  0
VERTEX
  5
2EE
  8
HASH
 10
-80.12633169294557
 20
-73.92320520900759
 30
0.0
  0
VERTEX
  5
2EF
  8
HASH
 10
-80.35829090600652
 20
-73.93842461035013
 30
0.0
  0
VERTEX
  5
2F0
  8
HASH
 10
-80.78224804195752
 20
-73.94661967261149
 30
0.0
  0
VERTEX
  5
2F1
  8
HASH
 10
-81.69906109001624
 20
-73.94661967261149
 30
0.0
  0
SEQEND
  5
3EE
  8
HASH
  0
POLYLINE
  5
85
  8
HASH
 66
     1
 10
0.0
 20
0.0
 30
0.0
 70
     1
  0
VERTEX
  5
2F2
  8
HASH
 10
-79.39233006428934
 20
-79.09546021910833
 30
0.0
  0
VERTEX
  5
2F3
  8
HASH
 10
-79.39233006428934
 20
-75.69099721110179
 30
0.0
  0
VERTEX
  5
2F4
  8
HASH
 10
-78.84848905782566
 20
-75.69099721110179
 30
0.0
  0
VERTEX
  5
2F5
  8
HASH
 10
-78.84848905782566
 20
-78.5171229680921
 30
0.0
  0
VERTEX
  5
2F6
  8
HASH
 10
-77.49623574445648
 20
-78.5171229680921
 30
0.0
  0
VERTEX
  5
2F7
  8
HASH
 10
-77.49623574445648
 20
-79.09546021910833
 30
0.0
  0
SEQEND
  5
3EF
  8
HASH
  0
POLYLINE
  5
86
  8
HASH
 66
     1
 10
0.0
 20
0.0
 30
0.0
 70
     1
  0
VERTEX
  5
2F8
  8
HASH
 10
-74.67965377516984
 20
-79.09546021910833
 30
0.0
  0
VERTEX
  5
2F9
  8
HASH
 10
-75.27126459976886
 20
-79.09546021910833
 30
0.0
  0
VERTEX
  5
2FA
  8
HASH
 10
-75.50643908905046
 20
-78.31575858109858
 30
0.0
  0
VERTEX
  5
2FB
  8
HASH
 10
-76.58309729779276
 20
-78.31575858109858
 30
0.0
  0
VERTEX
  5
2FC
  8
HASH
 10
-76.80541068219176
 20
-79.09546021910833
 30
0.0
  0
VERTEX
  5
2FD
  8
HASH
 10
-77.38232310121069
 20
-79.09546021910833
 30
0.0
  0
VERTEX
  5
2FE
  8
HASH
 10
-76.33322440293107
 20
-75.66289985477711
 30
0.0
  0
VERTEX
  5
2FF
  8
HASH
 10
-75.75814928460966
 20
-75.66289985477711
 30
0.0
  0
SEQEND
  5
3F0
  8
HASH
  0
POLYLINE
  5
87
  8
HASH
 66
     1
 10
0.0
 20
0.0
 30
0.0
 70
     1
  0
VERTEX
  5
300
  8
HASH
 10
-75.68098265531414
 20
-77.73742133008234
 30
0.0
  0
VERTEX
  5
301
  8
HASH
 10
-76.05211739621166
 20
-76.46367451003037
 30
0.0
  0
VERTEX
  5
302
  8
HASH
 10
-76.41590293431912
 20
-77.73742133008234
 30
0.0
  0
SEQEND
  5
3F1
  8
HASH
  0
POLYLINE
  5
88
  8
HASH
 66
     1
 10
0.0
 20
0.0
 30
0.0
 70
     1
  0
VERTEX
  5
303
  8
HASH
 10
-74.3930348663579
 20
-75.66289985477711
 30
0.0
  0
VERTEX
  5
304
  8
HASH
 10
-73.39905518900365
 20
-75.66289985477711
 30
0.0
  0
VERTEX
  5
305
  8
HASH
 10
-73.24093249772397
 20
-75.66699738590779
 30
0.0
  0
VERTEX
  5
306
  8
HASH
 10
-73.10279045152976
 20
-75.67928997929984
 30
0.0
  0
VERTEX
  5
307
  8
HASH
 10
-72.98462905042099
 20
-75.69977763495325
 30
0.0
  0
VERTEX
  5
308
  8
HASH
 10
-72.88644829439767
 20
-75.72846035286801
 30
0.0
  0
VERTEX
  5
309
  8
HASH
 10
-72.77219115727111
 20
-75.78158191716938
 30
0.0
  0
VERTEX
  5
30A
  8
HASH
 10
-72.66643153587054
 20
-75.85197164837857
 30
0.0
  0
VERTEX
  5
30B
  8
HASH
 10
-72.56916943019598
 20
-75.93962954649567
 30
0.0
  0
VERTEX
  5
30C
  8
HASH
 10
-72.48040484024742
 20
-76.04455561152062
 30
0.0
  0
VERTEX
  5
30D
  8
HASH
 10
-72.40094158508
 20
-76.16448156729183
 30
0.0
  0
VERTEX
  5
30E
  8
HASH
 10
-72.33158348374891
 20
-76.29713913764765
 30
0.0
  0
VERTEX
  5
30F
  8
HASH
 10
-72.27233053625413
 20
-76.4425283225881
 30
0.0
  0
VERTEX
  5
310
  8
HASH
 10
-72.22318274259567
 20
-76.60064912211317
 30
0.0
  0
VERTEX
  5
311
  8
HASH
 10
-72.1845994279479
 20
-76.77472102496839
 30
0.0
  0
VERTEX
  5
312
  8
HASH
 10
-72.15703991748522
 20
-76.96796351989929
 30
0.0
  0
VERTEX
  5
313
  8
HASH
 10
-72.14050421120761
 20
-77.18037660690588
 30
0.0
  0
VERTEX
  5
314
  8
HASH
 10
-72.13499230911508
 20
-77.41196028598817
 30
0.0
  0
VERTEX
  5
315
  8
HASH
 10
-72.14015971732684
 20
-77.61654416172722
 30
0.0
  0
VERTEX
  5
316
  8
HASH
 10
-72.1556619419621
 20
-77.80649399771383
 30
0.0
  0
VERTEX
  5
317
  8
HASH
 10
-72.18149898302086
 20
-77.981809793948
 30
0.0
  0
VERTEX
  5
318
  8
HASH
 10
-72.21767084050313
 20
-78.14249155042975
 30
0.0
  0
VERTEX
  5
319
  8
HASH
 10
-72.27359368048367
 20
-78.32088049501195
 30
0.0
  0
VERTEX
  5
31A
  8
HASH
 10
-72.34031066206208
 20
-78.48141591109615
 30
0.0
  0
VERTEX
  5
31B
  8
HASH
 10
-72.4178217852384
 20
-78.62409779868241
 30
0.0
  0
VERTEX
  5
31C
  8
HASH
 10
-72.5061270500126
 20
-78.74892615777067
 30
0.0
  0
VERTEX
  5
31D
  8
HASH
 10
-72.58306401672093
 20
-78.83190116316698
 30
0.0
  0
VERTEX
  5
31E
  8
HASH
 10
-72.67240276313747
 20
-78.90521770232667
 30
0.0
  0
VERTEX
  5
31F
  8
HASH
 10
-72.77414328926221
 20
-78.96887577524977
 30
0.0
  0
VERTEX
  5
320
  8
HASH
 10
-72.88828559509518
 20
-79.02287538193626
 30
0.0
  0
VERTEX
  5
321
  8
HASH
 10
-72.98589219465055
 20
-79.05463124819904
 30
0.0
  0
VERTEX
  5
322
  8
HASH
 10
-73.09865652496038
 20
-79.07731400981531
 30
0.0
  0
VERTEX
  5
323
  8
HASH
 10
-73.22657858602467
 20
-79.09092366678507
 30
0.0
  0
VERTEX
  5
324
  8
HASH
 10
-73.36965837784345
 20
-79.09546021910833
 30
0.0
  0
VERTEX
  5
325
  8
HASH
 10
-74.3930348663579
 20
-79.09546021910833
 30
0.0
  0
SEQEND
  5
3F2
  8
HASH
  0
POLYLINE
  5
89
  8
HASH
 66
     1
 10
0.0
 20
0.0
 30
0.0
 70
     1
  0
VERTEX
  5
326
  8
HASH
 10
-73.84919385989421
 20
-76.24357855215374
 30
0.0
  0
VERTEX
  5
327
  8
HASH
 10
-73.84919385989421
 20
-78.5171229680921
 30
0.0
  0
VERTEX
  5
328
  8
HASH
 10
-73.44315040574395
 20
-78.5171229680921
 30
0.0
  0
VERTEX
  5
329
  8
HASH
 10
-73.2470185562845
 20
-78.50892790583073
 30
0.0
  0
VERTEX
  5
32A
  8
HASH
 10
-73.11427358088922
 20
-78.48434271904664
 30
0.0
  0
VERTEX
  5
32B
  8
HASH
 10
-73.05094412247183
 20
-78.45961119186502
 30
0.0
  0
VERTEX
  5
32C
  8
HASH
 10
-72.99324139744058
 20
-78.42756264480718
 30
0.0
  0
VERTEX
  5
32D
  8
HASH
 10
-72.94116540579546
 20
-78.38819707787312
 30
0.0
  0
VERTEX
  5
32E
  8
HASH
 10
-72.89471614753649
 20
-78.34151449106287
 30
0.0
  0
VERTEX
  5
32F
  8
HASH
 10
-72.85308980360847
 20
-78.28305150225191
 30
0.0
  0
VERTEX
  5
330
  8
HASH
 10
-72.81548255495625
 20
-78.20834472931571
 30
0.0
  0
VERTEX
  5
331
  8
HASH
 10
-72.78189440157985
 20
-78.11739417225432
 30
0.0
  0
VERTEX
  5
332
  8
HASH
 10
-72.75232534347926
 20
-78.01019983106774
 30
0.0
  0
VERTEX
  5
333
  8
HASH
 10
-72.72821077182442
 20
-77.88442025939554
 30
0.0
  0
VERTEX
  5
334
  8
HASH
 10
-72.71098607778524
 20
-77.73771401087738
 30
0.0
  0
VERTEX
  5
335
  8
HASH
 10
-72.70065126136173
 20
-77.57008108551324
 30
0.0
  0
VERTEX
  5
336
  8
HASH
 10
-72.69720632255388
 20
-77.38152148330312
 30
0.0
  0
VERTEX
  5
337
  8
HASH
 10
-72.70065126136173
 20
-77.19405943407443
 30
0.0
  0
VERTEX
  5
338
  8
HASH
 10
-72.71098607778524
 20
-77.02971916765458
 30
0.0
  0
VERTEX
  5
339
  8
HASH
 10
-72.72821077182442
 20
-76.88850068404356
 30
0.0
  0
VERTEX
  5
33A
  8
HASH
 10
-72.75232534347926
 20
-76.77040398324141
 30
0.0
  0
VERTEX
  5
33B
  8
HASH
 10
-72.7826408049882
 20
-76.66972178974464
 30
0.0
  0
VERTEX
  5
33C
  8
HASH
 10
-72.8184681685897
 20
-76.58074682804984
 30
0.0
  0
VERTEX
  5
33D
  8
HASH
 10
-72.85980743428374
 20
-76.50347909815697
 30
0.0
  0
VERTEX
  5
33E
  8
HASH
 10
-72.90665860207031
 20
-76.43791860006608
 30
0.0
  0
VERTEX
  5
33F
  8
HASH
 10
-72.95959582841738
 20
-76.38304095099446
 30
0.0
  0
VERTEX
  5
340
  8
HASH
 10
-73.01919326979294
 20
-76.33782176815943
 30
0.0
  0
VERTEX
  5
341
  8
HASH
 10
-73.08545092619698
 20
-76.302261051561
 30
0.0
  0
VERTEX
  5
342
  8
HASH
 10
-73.15836879762952
 20
-76.2763588011992
 30
0.0
  0
VERTEX
  5
343
  8
HASH
 10
-73.22899004319015
 20
-76.26201744224181
 30
0.0
  0
VERTEX
  5
344
  8
HASH
 10
-73.32694113662629
 20
-76.2517736144151
 30
0.0
  0
VERTEX
  5
345
  8
HASH
 10
-73.60483286712505
 20
-76.24357855215374
 30
0.0
  0
SEQEND
  5
3F3
  8
HASH
  0
POLYLINE
  5
8A
  8
HASH
 66
     1
 10
0.0
 20
0.0
 30
0.0
 70
     1
  0
VERTEX
  5
346
  8
HASH
 10
-71.67566713473697
 20
-75.66289985477711
 30
0.0
  0
VERTEX
  5
347
  8
HASH
 10
-70.68168745738272
 20
-75.66289985477711
 30
0.0
  0
VERTEX
  5
348
  8
HASH
 10
-70.52356476610305
 20
-75.66699738590779
 30
0.0
  0
VERTEX
  5
349
  8
HASH
 10
-70.38542271990883
 20
-75.67928997929984
 30
0.0
  0
VERTEX
  5
34A
  8
HASH
 10
-70.26726131880007
 20
-75.69977763495325
 30
0.0
  0
VERTEX
  5
34B
  8
HASH
 10
-70.16908056277674
 20
-75.72846035286801
 30
0.0
  0
VERTEX
  5
34C
  8
HASH
 10
-70.05482342565018
 20
-75.78158191716938
 30
0.0
  0
VERTEX
  5
34D
  8
HASH
 10
-69.94906380424962
 20
-75.85197164837857
 30
0.0
  0
VERTEX
  5
34E
  8
HASH
 10
-69.85180169857506
 20
-75.93962954649567
 30
0.0
  0
VERTEX
  5
34F
  8
HASH
 10
-69.76303710862649
 20
-76.04455561152062
 30
0.0
  0
VERTEX
  5
350
  8
HASH
 10
-69.68357385345908
 20
-76.16448156729183
 30
0.0
  0
VERTEX
  5
351
  8
HASH
 10
-69.61421575212799
 20
-76.29713913764765
 30
0.0
  0
VERTEX
  5
352
  8
HASH
 10
-69.5549628046332
 20
-76.4425283225881
 30
0.0
  0
VERTEX
  5
353
  8
HASH
 10
-69.50581501097474
 20
-76.60064912211317
 30
0.0
  0
VERTEX
  5
354
  8
HASH
 10
-69.46723169632698
 20
-76.77472102496839
 30
0.0
  0
VERTEX
  5
355
  8
HASH
 10
-69.4396721858643
 20
-76.96796351989929
 30
0.0
  0
VERTEX
  5
356
  8
HASH
 10
-69.42313647958669
 20
-77.18037660690588
 30
0.0
  0
VERTEX
  5
357
  8
HASH
 10
-69.41762457749415
 20
-77.41196028598817
 30
0.0
  0
VERTEX
  5
358
  8
HASH
 10
-69.42279198570591
 20
-77.61654416172722
 30
0.0
  0
VERTEX
  5
359
  8
HASH
 10
-69.43829421034117
 20
-77.80649399771383
 30
0.0
  0
VERTEX
  5
35A
  8
HASH
 10
-69.46413125139993
 20
-77.981809793948
 30
0.0
  0
VERTEX
  5
35B
  8
HASH
 10
-69.5003031088822
 20
-78.14249155042975
 30
0.0
  0
VERTEX
  5
35C
  8
HASH
 10
-69.55622594886275
 20
-78.32088049501195
 30
0.0
  0
VERTEX
  5
35D
  8
HASH
 10
-69.62294293044116
 20
-78.48141591109615
 30
0.0
  0
VERTEX
  5
35E
  8
HASH
 10
-69.70045405361748
 20
-78.62409779868241
 30
0.0
  0
VERTEX
  5
35F
  8
HASH
 10
-69.78875931839167
 20
-78.74892615777067
 30
0.0
  0
VERTEX
  5
360
  8
HASH
 10
-69.8656962851
 20
-78.83190116316698
 30
0.0
  0
VERTEX
  5
361
  8
HASH
 10
-69.95503503151654
 20
-78.90521770232667
 30
0.0
  0
VERTEX
  5
362
  8
HASH
 10
-70.05677555764129
 20
-78.96887577524977
 30
0.0
  0
VERTEX
  5
363
  8
HASH
 10
-70.17091786347426
 20
-79.02287538193626
 30
0.0
  0
VERTEX
  5
364
  8
HASH
 10
-70.26852446302962
 20
-79.05463124819904
 30
0.0
  0
VERTEX
  5
365
  8
HASH
 10
-70.38128879333945
 20
-79.07731400981531
 30
0.0
  0
VERTEX
  5
366
  8
HASH
 10
-70.50921085440375
 20
-79.09092366678507
 30
0.0
  0
VERTEX
  5
367
  8
HASH
 10
-70.65229064622253
 20
-79.09546021910833
 30
0.0
  0
VERTEX
  5
368
  8
HASH
 10
-71.67566713473697
 20
-79.09546021910833
 30
0.0
  0
SEQEND
  5
3F4
  8
HASH
  0
POLYLINE
  5
8B
  8
HASH
 66
     1
 10
0.0
 20
0.0
 30
0.0
 70
     1
  0
VERTEX
  5
369
  8
HASH
 10
-71.13182612827329
 20
-76.24357855215374
 30
0.0
  0
VERTEX
  5
36A
  8
HASH
 10
-71.13182612827329
 20
-78.5171229680921
 30
0.0
  0
VERTEX
  5
36B
  8
HASH
 10
-70.72578267412302
 20
-78.5171229680921
 30
0.0
  0
VERTEX
  5
36C
  8
HASH
 10
-70.52965082466358
 20
-78.50892790583073
 30
0.0
  0
VERTEX
  5
36D
  8
HASH
 10
-70.3969058492683
 20
-78.48434271904664
 30
0.0
  0
VERTEX
  5
36E
  8
HASH
 10
-70.33357639085091
 20
-78.45961119186502
 30
0.0
  0
VERTEX
  5
36F
  8
HASH
 10
-70.27587366581966
 20
-78.42756264480718
 30
0.0
  0
VERTEX
  5
370
  8
HASH
 10
-70.22379767417453
 20
-78.38819707787312
 30
0.0
  0
VERTEX
  5
371
  8
HASH
 10
-70.17734841591556
 20
-78.34151449106287
 30
0.0
  0
VERTEX
  5
372
  8
HASH
 10
-70.13572207198754
 20
-78.28305150225191
 30
0.0
  0
VERTEX
  5
373
  8
HASH
 10
-70.09811482333532
 20
-78.20834472931571
 30
0.0
  0
VERTEX
  5
374
  8
HASH
 10
-70.06452666995892
 20
-78.11739417225432
 30
0.0
  0
VERTEX
  5
375
  8
HASH
 10
-70.03495761185833
 20
-78.01019983106774
 30
0.0
  0
VERTEX
  5
376
  8
HASH
 10
-70.0108430402035
 20
-77.88442025939554
 30
0.0
  0
VERTEX
  5
377
  8
HASH
 10
-69.99361834616431
 20
-77.73771401087738
 30
0.0
  0
VERTEX
  5
378
  8
HASH
 10
-69.9832835297408
 20
-77.57008108551324
 30
0.0
  0
VERTEX
  5
379
  8
HASH
 10
-69.97983859093296
 20
-77.38152148330312
 30
0.0
  0
VERTEX
  5
37A
  8
HASH
 10
-69.9832835297408
 20
-77.19405943407443
 30
0.0
  0
VERTEX
  5
37B
  8
HASH
 10
-69.99361834616431
 20
-77.02971916765458
 30
0.0
  0
VERTEX
  5
37C
  8
HASH
 10
-70.0108430402035
 20
-76.88850068404356
 30
0.0
  0
VERTEX
  5
37D
  8
HASH
 10
-70.03495761185833
 20
-76.77040398324141
 30
0.0
  0
VERTEX
  5
37E
  8
HASH
 10
-70.06527307336728
 20
-76.66972178974464
 30
0.0
  0
VERTEX
  5
37F
  8
HASH
 10
-70.10110043696878
 20
-76.58074682804984
 30
0.0
  0
VERTEX
  5
380
  8
HASH
 10
-70.14243970266281
 20
-76.50347909815697
 30
0.0
  0
VERTEX
  5
381
  8
HASH
 10
-70.18929087044938
 20
-76.43791860006608
 30
0.0
  0
VERTEX
  5
382
  8
HASH
 10
-70.24222809679645
 20
-76.38304095099446
 30
0.0
  0
VERTEX
  5
383
  8
HASH
 10
-70.30182553817201
 20
-76.33782176815943
 30
0.0
  0
VERTEX
  5
384
  8
HASH
 10
-70.36808319457606
 20
-76.302261051561
 30
0.0
  0
VERTEX
  5
385
  8
HASH
 10
-70.4410010660086
 20
-76.2763588011992
 30
0.0
  0
VERTEX
  5
386
  8
HASH
 10
-70.51162231156923
 20
-76.26201744224181
 30
0.0
  0
VERTEX
  5
387
  8
HASH
 10
-70.60957340500536
 20
-76.2517736144151
 30
0.0
  0
VERTEX
  5
388
  8
HASH
 10
-70.88746513550413
 20
-76.24357855215374
 30
0.0
  0
SEQEND
  5
3F5
  8
HASH
  0
POLYLINE
  5
8C
  8
HASH
 66
     1
 10
0.0
 20
0.0
 30
0.0
 70
     1
  0
VERTEX
  5
389
  8
HASH
 10
-68.95646210241851
 20
-79.09546021910833
 30
0.0
  0
VERTEX
  5
38A
  8
HASH
 10
-68.95646210241851
 20
-75.66289985477711
 30
0.0
  0
VERTEX
  5
38B
  8
HASH
 10
-66.95931624422246
 20
-75.66289985477711
 30
0.0
  0
VERTEX
  5
38C
  8
HASH
 10
-66.95931624422246
 20
-76.24357855215374
 30
0.0
  0
VERTEX
  5
38D
  8
HASH
 10
-68.41262109595483
 20
-76.24357855215374
 30
0.0
  0
VERTEX
  5
38E
  8
HASH
 10
-68.41262109595483
 20
-77.00454861928037
 30
0.0
  0
VERTEX
  5
38F
  8
HASH
 10
-67.06036778258566
 20
-77.00454861928037
 30
0.0
  0
VERTEX
  5
390
  8
HASH
 10
-67.06036778258566
 20
-77.58288587029662
 30
0.0
  0
VERTEX
  5
391
  8
HASH
 10
-68.41262109595483
 20
-77.58288587029662
 30
0.0
  0
VERTEX
  5
392
  8
HASH
 10
-68.41262109595483
 20
-78.5171229680921
 30
0.0
  0
VERTEX
  5
393
  8
HASH
 10
-66.90787182469212
 20
-78.5171229680921
 30
0.0
  0
VERTEX
  5
394
  8
HASH
 10
-66.90787182469212
 20
-79.09546021910833
 30
0.0
  0
SEQEND
  5
3F6
  8
HASH
  0
POLYLINE
  5
8D
  8
HASH
 66
     1
 10
0.0
 20
0.0
 30
0.0
 70
     1
  0
VERTEX
  5
395
  8
HASH
 10
-66.44487204891897
 20
-79.09546021910833
 30
0.0
  0
VERTEX
  5
396
  8
HASH
 10
-66.44487204891897
 20
-75.66289985477711
 30
0.0
  0
VERTEX
  5
397
  8
HASH
 10
-65.3002337143687
 20
-75.66289985477711
 30
0.0
  0
VERTEX
  5
398
  8
HASH
 10
-65.09910670363789
 20
-75.66868030047931
 30
0.0
  0
VERTEX
  5
399
  8
HASH
 10
-64.92749133536086
 20
-75.68602163758595
 30
0.0
  0
VERTEX
  5
39A
  8
HASH
 10
-64.78538760953765
 20
-75.71492386609702
 30
0.0
  0
VERTEX
  5
39B
  8
HASH
 10
-64.6727955261682
 20
-75.7553869860125
 30
0.0
  0
VERTEX
  5
39C
  8
HASH
 10
-64.57983959400343
 20
-75.81063048607794
 30
0.0
  0
VERTEX
  5
39D
  8
HASH
 10
-64.49664432179418
 20
-75.88387385503887
 30
0.0
  0
VERTEX
  5
39E
  8
HASH
 10
-64.42320970954049
 20
-75.97511709289532
 30
0.0
  0
VERTEX
  5
39F
  8
HASH
 10
-64.35953575724231
 20
-76.08436019964725
 30
0.0
  0
VERTEX
  5
3A0
  8
HASH
 10
-64.30809133771197
 20
-76.20684711237513
 30
0.0
  0
VERTEX
  5
3A1
  8
HASH
 10
-64.27134532376172
 20
-76.33782176815942
 30
0.0
  0
VERTEX
  5
3A2
  8
HASH
 10
-64.24929771539158
 20
-76.47728416700014
 30
0.0
  0
VERTEX
  5
3A3
  8
HASH
 10
-64.24194851260152
 20
-76.62523430889725
 30
0.0
  0
VERTEX
  5
3A4
  8
HASH
 10
-64.2530871480802
 20
-76.80998906077173
 30
0.0
  0
VERTEX
  5
3A5
  8
HASH
 10
-64.2865030545162
 20
-76.97791466693093
 30
0.0
  0
VERTEX
  5
3A6
  8
HASH
 10
-64.34219623190955
 20
-77.12901112737482
 30
0.0
  0
VERTEX
  5
3A7
  8
HASH
 10
-64.42016668026024
 20
-77.26327844210343
 30
0.0
  0
VERTEX
  5
3A8
  8
HASH
 10
-64.46747717322117
 20
-77.32329629763811
 30
0.0
  0
VERTEX
  5
3A9
  8
HASH
 10
-64.52029956827468
 20
-77.3774971223712
 30
0.0
  0
VERTEX
  5
3AA
  8
HASH
 10
-64.5786338654207
 20
-77.42588091630269
 30
0.0
  0
VERTEX
  5
3AB
  8
HASH
 10
-64.64248006465925
 20
-77.46844767943259
 30
0.0
  0
VERTEX
  5
3AC
  8
HASH
 10
-64.71183816599033
 20
-77.50519741176089
 30
0.0
  0
VERTEX
  5
3AD
  8
HASH
 10
-64.78670816941397
 20
-77.53613011328761
 30
0.0
  0
VERTEX
  5
3AE
  8
HASH
 10
-64.95298388253885
 20
-77.58054442393623
 30
0.0
  0
VERTEX
  5
3AF
  8
HASH
 10
-64.7919904089193
 20
-77.71810439760912
 30
0.0
  0
VERTEX
  5
3B0
  8
HASH
 10
-64.72303421711581
 20
-77.79171361756389
 30
0.0
  0
VERTEX
  5
3B1
  8
HASH
 10
-64.66177172198311
 20
-77.86854232626416
 30
0.0
  0
VERTEX
  5
3B2
  8
HASH
 10
-64.5993609139145
 20
-77.96220018067976
 30
0.0
  0
VERTEX
  5
3B3
  8
HASH
 10
-64.52695978330314
 20
-78.0862968377804
 30
0.0
  0
VERTEX
  5
3B4
  8
HASH
 10
-64.35218655445227
 20
-78.42580656003689
 30
0.0
  0
VERTEX
  5
3B5
  8
HASH
 10
-64.02330972959754
 20
-79.09546021910833
 30
0.0
  0
VERTEX
  5
3B6
  8
HASH
 10
-64.67371417651695
 20
-79.09546021910833
 30
0.0
  0
VERTEX
  5
3B7
  8
HASH
 10
-65.06689652578461
 20
-78.34853883014404
 30
0.0
  0
VERTEX
  5
3B8
  8
HASH
 10
-65.24327739274582
 20
-78.02219974366471
 30
0.0
  0
VERTEX
  5
3B9
  8
HASH
 10
-65.35351543459656
 20
-77.84395713948007
 30
0.0
  0
VERTEX
  5
3BA
  8
HASH
 10
-65.43297868976398
 20
-77.75615290096546
 30
0.0
  0
VERTEX
  5
3BB
  8
HASH
 10
-65.51703519667518
 20
-77.7011289114963
 30
0.0
  0
VERTEX
  5
3BC
  8
HASH
 10
-65.56652748421442
 20
-77.68422659558223
 30
0.0
  0
VERTEX
  5
3BD
  8
HASH
 10
-65.62865121404906
 20
-77.67215351278647
 30
0.0
  0
VERTEX
  5
3BE
  8
HASH
 10
-65.79079300060454
 20
-77.66249504654986
 30
0.0
  0
VERTEX
  5
3BF
  8
HASH
 10
-65.90103104245529
 20
-77.66249504654986
 30
0.0
  0
VERTEX
  5
3C0
  8
HASH
 10
-65.90103104245529
 20
-79.09546021910833
 30
0.0
  0
SEQEND
  5
3F7
  8
HASH
  0
POLYLINE
  5
8E
  8
HASH
 66
     1
 10
0.0
 20
0.0
 30
0.0
 70
     1
  0
VERTEX
  5
3C1
  8
HASH
 10
-65.90103104245529
 20
-77.1145965982187
 30
0.0
  0
VERTEX
  5
3C2
  8
HASH
 10
-65.49866218970006
 20
-77.1145965982187
 30
0.0
  0
VERTEX
  5
3C3
  8
HASH
 10
-65.18080916903038
 20
-77.10406008959694
 30
0.0
  0
VERTEX
  5
3C4
  8
HASH
 10
-65.07700167962093
 20
-77.09088945381974
 30
0.0
  0
VERTEX
  5
3C5
  8
HASH
 10
-65.00994020416174
 20
-77.07245056373168
 30
0.0
  0
VERTEX
  5
3C6
  8
HASH
 10
-64.96389285543032
 20
-77.04757269615254
 30
0.0
  0
VERTEX
  5
3C7
  8
HASH
 10
-64.92312774620427
 20
-77.01508512790213
 30
0.0
  0
VERTEX
  5
3C8
  8
HASH
 10
-64.88764487648356
 20
-76.97498785898046
 30
0.0
  0
VERTEX
  5
3C9
  8
HASH
 10
-64.8574442462682
 20
-76.92728088938752
 30
0.0
  0
VERTEX
  5
3CA
  8
HASH
 10
-64.83332967461337
 20
-76.87254958071341
 30
0.0
  0
VERTEX
  5
3CB
  8
HASH
 10
-64.81610498057418
 20
-76.81137929454823
 30
0.0
  0
VERTEX
  5
3CC
  8
HASH
 10
-64.80232522534283
 20
-76.66972178974466
 30
0.0
  0
VERTEX
  5
3CD
  8
HASH
 10
-64.8068610614398
 20
-76.58725897573967
 30
0.0
  0
VERTEX
  5
3CE
  8
HASH
 10
-64.82046856973076
 20
-76.51313756439359
 30
0.0
  0
VERTEX
  5
3CF
  8
HASH
 10
-64.84314775021568
 20
-76.44735755570639
 30
0.0
  0
VERTEX
  5
3D0
  8
HASH
 10
-64.87489860289456
 20
-76.38991894967809
 30
0.0
  0
VERTEX
  5
3D1
  8
HASH
 10
-64.91491730871225
 20
-76.34155344829631
 30
0.0
  0
VERTEX
  5
3D2
  8
HASH
 10
-64.96240004861359
 20
-76.30299275354864
 30
0.0
  0
VERTEX
  5
3D3
  8
HASH
 10
-65.01734682259857
 20
-76.2742368654351
 30
0.0
  0
VERTEX
  5
3D4
  8
HASH
 10
-65.0797576306672
 20
-76.25528578395569
 30
0.0
  0
VERTEX
  5
3D5
  8
HASH
 10
-65.2120432808881
 20
-76.24650536010422
 30
0.0
  0
VERTEX
  5
3D6
  8
HASH
 10
-65.4766145813299
 20
-76.24357855215374
 30
0.0
  0
VERTEX
  5
3D7
  8
HASH
 10
-65.90103104245529
 20
-76.24357855215374
 30
0.0
  0
SEQEND
  5
3F8
  8
HASH
  0
ENDSEC
  0
EOF
