  0
SECTION
  2
HEADER
  9
$ACADVER
  1
AC1009
  9
$DWGCODEPAGE
  3
ansi_1252
  9
$INSBASE
 10
0.0
 20
0.0
 30
0.0
  9
$EXTMIN
 10
-16.50360181970952
 20
-165.9009871078112
 30
0.0
  9
$EXTMAX
 10
16.86731572352239
 20
56.30905296579083
 30
0.0
  9
$LIMMIN
 10
0.0
 20
0.0
  9
$LIMMAX
 10
12.0
 20
9.0
  9
$ORTHOMODE
 70
     0
  9
$REGENMODE
 70
     1
  9
$FILLMODE
 70
     1
  9
$QTEXTMODE
 70
     0
  9
$MIRRTEXT
 70
     1
  9
$DRAGMODE
 70
     2
  9
$LTSCALE
 40
1.0
  9
$OSMODE
 70
    37
  9
$ATTMODE
 70
     1
  9
$TEXTSIZE
 40
0.2
  9
$TRACEWID
 40
0.05
  9
$TEXTSTYLE
  7
STANDARD
  9
$CLAYER
  8
0
  9
$CELTYPE
  6
BYLAYER
  9
$CECOLOR
 62
   256
  9
$DIMSCALE
 40
1.0
  9
$DIMASZ
 40
0.18
  9
$DIMEXO
 40
0.0625
  9
$DIMDLI
 40
0.38
  9
$DIMRND
 40
0.0
  9
$DIMDLE
 40
0.0
  9
$DIMEXE
 40
0.18
  9
$DIMTP
 40
0.0
  9
$DIMTM
 40
0.0
  9
$DIMTXT
 40
0.18
  9
$DIMCEN
 40
0.09
  9
$DIMTSZ
 40
0.0
  9
$DIMTOL
 70
     0
  9
$DIMLIM
 70
     0
  9
$DIMTIH
 70
     1
  9
$DIMTOH
 70
     1
  9
$DIMSE1
 70
     0
  9
$DIMSE2
 70
     0
  9
$DIMTAD
 70
     0
  9
$DIMZIN
 70
     0
  9
$DIMBLK
  1

  9
$DIMASO
 70
     1
  9
$DIMSHO
 70
     1
  9
$DIMPOST
  1

  9
$DIMAPOST
  1

  9
$DIMALT
 70
     0
  9
$DIMALTD
 70
     2
  9
$DIMALTF
 40
25.4
  9
$DIMLFAC
 40
1.0
  9
$DIMTOFL
 70
     0
  9
$DIMTVP
 40
0.0
  9
$DIMTIX
 70
     0
  9
$DIMSOXD
 70
     0
  9
$DIMSAH
 70
     0
  9
$DIMBLK1
  1

  9
$DIMBLK2
  1

  9
$DIMSTYLE
  2
STANDARD
  9
$DIMCLRD
 70
     0
  9
$DIMCLRE
 70
     0
  9
$DIMCLRT
 70
     0
  9
$DIMTFAC
 40
1.0
  9
$DIMGAP
 40
0.09
  9
$LUNITS
 70
     2
  9
$LUPREC
 70
     4
  9
$SKETCHINC
 40
0.1
  9
$FILLETRAD
 40
0.5
  9
$AUNITS
 70
     0
  9
$AUPREC
 70
     0
  9
$MENU
  1
.
  9
$ELEVATION
 40
0.0
  9
$PELEVATION
 40
0.0
  9
$THICKNESS
 40
0.0
  9
$LIMCHECK
 70
     0
  9
$CHAMFERA
 40
0.0
  9
$CHAMFERB
 40
0.0
  9
$SKPOLY
 70
     0
  9
$TDCREATE
 40
2454910.5
  9
$TDUPDATE
 40
2459220.441913819
  9
$TDINDWG
 40
0.0000000116
  9
$TDUSRTIMER
 40
0.0000000116
  9
$USRTIMER
 70
     1
  9
$ANGBASE
 50
0.0
  9
$ANGDIR
 70
     0
  9
$PDMODE
 70
     0
  9
$PDSIZE
 40
0.0
  9
$PLINEWID
 40
0.0
  9
$COORDS
 70
     1
  9
$SPLFRAME
 70
     0
  9
$SPLINETYPE
 70
     6
  9
$SPLINESEGS
 70
     8
  9
$ATTDIA
 70
     0
  9
$ATTREQ
 70
     1
  9
$HANDLING
 70
     1
  9
$HANDSEED
  5
1AC
  9
$SURFTAB1
 70
     6
  9
$SURFTAB2
 70
     6
  9
$SURFTYPE
 70
     6
  9
$SURFU
 70
     6
  9
$SURFV
 70
     6
  9
$UCSNAME
  2

  9
$UCSORG
 10
0.0
 20
0.0
 30
0.0
  9
$UCSXDIR
 10
1.0
 20
0.0
 30
0.0
  9
$UCSYDIR
 10
0.0
 20
1.0
 30
0.0
  9
$PUCSNAME
  2

  9
$PUCSORG
 10
0.0
 20
0.0
 30
0.0
  9
$PUCSXDIR
 10
1.0
 20
0.0
 30
0.0
  9
$PUCSYDIR
 10
0.0
 20
1.0
 30
0.0
  9
$USERI1
 70
     0
  9
$USERI2
 70
     0
  9
$USERI3
 70
     0
  9
$USERI4
 70
     0
  9
$USERI5
 70
     0
  9
$USERR1
 40
0.0
  9
$USERR2
 40
0.0
  9
$USERR3
 40
0.0
  9
$USERR4
 40
0.0
  9
$USERR5
 40
0.0
  9
$WORLDVIEW
 70
     1
  9
$SHADEDGE
 70
     3
  9
$SHADEDIF
 70
    70
  9
$TILEMODE
 70
     1
  9
$MAXACTVP
 70
    64
  9
$PLIMCHECK
 70
     0
  9
$PEXTMIN
 10
1.000000000000000E+20
 20
1.000000000000000E+20
 30
1.000000000000000E+20
  9
$PEXTMAX
 10
-1.000000000000000E+20
 20
-1.000000000000000E+20
 30
-1.000000000000000E+20
  9
$PLIMMIN
 10
0.0
 20
0.0
  9
$PLIMMAX
 10
12.0
 20
9.0
  9
$UNITMODE
 70
     0
  9
$VISRETAIN
 70
     1
  9
$PLINEGEN
 70
     0
  9
$PSLTSCALE
 70
     1
  0
ENDSEC
  0
SECTION
  2
TABLES
  0
TABLE
  2
VPORT
 70
     1
  0
VPORT
  2
*ACTIVE
 70
     0
 10
0.0
 20
0.0
 11
1.0
 21
1.0
 12
10.42990654205607
 22
4.5
 13
0.0
 23
0.0
 14
0.5
 24
0.5
 15
0.5
 25
0.5
 16
0.0
 26
0.0
 36
1.0
 17
0.0
 27
0.0
 37
0.0
 40
9.0
 41
1.972972972850329
 42
50.0
 43
0.0
 44
0.0
 50
0.0
 51
0.0
 71
     0
 72
   100
 73
     1
 74
     3
 75
     0
 76
     0
 77
     0
 78
     0
  0
ENDTAB
  0
TABLE
  2
LTYPE
 70
     2
  0
LTYPE
  2
CONTINUOUS
 70
     0
  3
Solid line
 72
    65
 73
     0
 40
0.0
  0
LTYPE
  2
CONTINUOUS2
 70
     0
  3
Solid Line
 72
    65
 73
     0
 40
0.0
  0
ENDTAB
  0
TABLE
  2
LAYER
 70
     2
  0
LAYER
  2
0
 70
     0
 62
     7
  6
CONTINUOUS
  0
LAYER
  2
FRONT_ENGRAVE
 70
     0
 62
    18
  6
CONTINUOUS
  0
ENDTAB
  0
TABLE
  2
STYLE
 70
     1
  0
STYLE
  2
STANDARD
 70
     0
 40
0.0
 41
1.0
 50
0.0
 71
     0
 42
0.2
  3
txt
  4

  0
ENDTAB
  0
TABLE
  2
VIEW
 70
     0
  0
ENDTAB
  0
TABLE
  2
UCS
 70
     0
  0
ENDTAB
  0
TABLE
  2
APPID
 70
     1
  0
APPID
  2
ACAD
 70
     0
  0
ENDTAB
  0
TABLE
  2
DIMSTYLE
 70
     1
  0
DIMSTYLE
  2
STANDARD
 70
     0
  3

  4

  5

  6

  7

 40
1.0
 41
0.18
 42
0.0625
 43
0.38
 44
0.18
 45
0.0
 46
0.0
 47
0.0
 48
0.0
140
0.18
141
0.09
142
0.0
143
25.4
144
1.0
145
0.0
146
1.0
147
0.09
 71
     0
 72
     0
 73
     1
 74
     1
 75
     0
 76
     0
 77
     0
 78
     0
170
     0
171
     2
172
     0
173
     0
174
     0
175
     0
176
     0
177
     0
178
     0
  0
ENDTAB
  0
ENDSEC
  0
SECTION
  2
BLOCKS
  0
BLOCK
  8
0
  2
$MODEL_SPACE
 70
     0
 10
0.0
 20
0.0
 30
0.0
  3
$MODEL_SPACE
  1

  0
ENDBLK
  5
21
  8
0
  0
BLOCK
 67
     1
  8
0
  2
$PAPER_SPACE
 70
     0
 10
0.0
 20
0.0
 30
0.0
  3
$PAPER_SPACE
  1

  0
ENDBLK
  5
1D
 67
     1
  8
0
  0
ENDSEC
  0
SECTION
  2
ENTITIES
  0
POLYLINE
  5
70
  8
FRONT_ENGRAVE
 66
     1
 10
0.0
 20
0.0
 30
0.0
 70
     1
  0
VERTEX
  5
99
  8
FRONT_ENGRAVE
 10
-16.50360181970951
 20
-3.544735358451213
 30
0.0
  0
VERTEX
  5
9A
  8
FRONT_ENGRAVE
 10
-16.50360181970951
 20
-14.38981647667681
 30
0.0
  0
VERTEX
  5
9B
  8
FRONT_ENGRAVE
 10
-14.50161376903677
 20
-15.86003376226785
 30
0.0
  0
VERTEX
  5
9C
  8
FRONT_ENGRAVE
 10
-14.50161376903677
 20
-4.878925336451225
 30
0.0
  0
VERTEX
  5
9D
  8
FRONT_ENGRAVE
 10
-14.50161376903677
 20
-3.056405566909781
 30
0.0
  0
VERTEX
  5
9E
  8
FRONT_ENGRAVE
 10
-16.50360181970951
 20
-1.586176989934287
 30
0.0
  0
SEQEND
  5
18A
  8
FRONT_ENGRAVE
  0
POLYLINE
  5
71
  8
FRONT_ENGRAVE
 66
     1
 10
0.0
 20
0.0
 30
0.0
 70
     1
  0
VERTEX
  5
9F
  8
FRONT_ENGRAVE
 10
-14.50161376903677
 20
-0.4957228350987677
 30
0.0
  0
VERTEX
  5
A0
  8
FRONT_ENGRAVE
 10
-14.50161376903677
 20
12.30780373779996
 30
0.0
  0
VERTEX
  5
A1
  8
FRONT_ENGRAVE
 10
-16.5036018197095
 20
13.77814522861914
 30
0.0
  0
VERTEX
  5
A2
  8
FRONT_ENGRAVE
 10
-16.50360181970951
 20
0.974483159107919
 30
0.0
  0
SEQEND
  5
18B
  8
FRONT_ENGRAVE
  0
POLYLINE
  5
72
  8
FRONT_ENGRAVE
 66
     1
 10
0.0
 20
0.0
 30
0.0
 70
     1
  0
VERTEX
  5
A3
  8
FRONT_ENGRAVE
 10
-16.50360181970951
 20
-16.95048791710338
 30
0.0
  0
VERTEX
  5
A4
  8
FRONT_ENGRAVE
 10
-16.50360181970951
 20
-29.7541274038459
 30
0.0
  0
VERTEX
  5
A5
  8
FRONT_ENGRAVE
 10
-14.50161376903677
 20
-31.22434468943694
 30
0.0
  0
VERTEX
  5
A6
  8
FRONT_ENGRAVE
 10
-14.50161376903677
 20
-18.42070520269449
 30
0.0
  0
SEQEND
  5
18C
  8
FRONT_ENGRAVE
  0
POLYLINE
  5
73
  8
FRONT_ENGRAVE
 66
     1
 10
0.0
 20
0.0
 30
0.0
 70
     1
  0
VERTEX
  5
A7
  8
FRONT_ENGRAVE
 10
-16.50360181970951
 20
-32.3147649701194
 30
0.0
  0
VERTEX
  5
A8
  8
FRONT_ENGRAVE
 10
-16.50360181970951
 20
-45.11840445686185
 30
0.0
  0
VERTEX
  5
A9
  8
FRONT_ENGRAVE
 10
-14.50161376903677
 20
-46.5886104510686
 30
0.0
  0
VERTEX
  5
AA
  8
FRONT_ENGRAVE
 10
-14.50161376903677
 20
-33.78498225571045
 30
0.0
  0
SEQEND
  5
18D
  8
FRONT_ENGRAVE
  0
POLYLINE
  5
74
  8
FRONT_ENGRAVE
 66
     1
 10
0.0
 20
0.0
 30
0.0
 70
     1
  0
VERTEX
  5
AB
  8
FRONT_ENGRAVE
 10
-16.50360181970951
 20
-47.67907589728849
 30
0.0
  0
VERTEX
  5
AC
  8
FRONT_ENGRAVE
 10
-16.50360181970951
 20
-60.4826024701872
 30
0.0
  0
VERTEX
  5
AD
  8
FRONT_ENGRAVE
 10
-14.50161376903677
 20
-61.95281975577825
 30
0.0
  0
VERTEX
  5
AE
  8
FRONT_ENGRAVE
 10
-14.50161376903677
 20
-49.14929318287954
 30
0.0
  0
SEQEND
  5
18E
  8
FRONT_ENGRAVE
  0
POLYLINE
  5
75
  8
FRONT_ENGRAVE
 66
     1
 10
0.0
 20
0.0
 30
0.0
 70
     1
  0
VERTEX
  5
AF
  8
FRONT_ENGRAVE
 10
-16.50360181970951
 20
-63.0433755330732
 30
0.0
  0
VERTEX
  5
B0
  8
FRONT_ENGRAVE
 10
-16.50360181970951
 20
-75.8469133973563
 30
0.0
  0
VERTEX
  5
B1
  8
FRONT_ENGRAVE
 10
-14.50161376903677
 20
-77.31724359679109
 30
0.0
  0
VERTEX
  5
B2
  8
FRONT_ENGRAVE
 10
-14.50161376903677
 20
-64.51359281866425
 30
0.0
  0
SEQEND
  5
18F
  8
FRONT_ENGRAVE
  0
POLYLINE
  5
76
  8
FRONT_ENGRAVE
 66
     1
 10
0.0
 20
0.0
 30
0.0
 70
     1
  0
VERTEX
  5
B3
  8
FRONT_ENGRAVE
 10
-16.50360181970951
 20
-78.40768646024226
 30
0.0
  0
VERTEX
  5
B4
  8
FRONT_ENGRAVE
 10
-16.50360181970951
 20
-91.21121303314101
 30
0.0
  0
VERTEX
  5
B5
  8
FRONT_ENGRAVE
 10
-14.50161376903677
 20
-92.68144161011647
 30
0.0
  0
VERTEX
  5
B6
  8
FRONT_ENGRAVE
 10
-14.50161376903677
 20
-79.87790374583336
 30
0.0
  0
SEQEND
  5
190
  8
FRONT_ENGRAVE
  0
POLYLINE
  5
77
  8
FRONT_ENGRAVE
 66
     1
 10
0.0
 20
0.0
 30
0.0
 70
     1
  0
VERTEX
  5
B7
  8
FRONT_ENGRAVE
 10
-16.50360181970951
 20
-93.77196351325834
 30
0.0
  0
VERTEX
  5
B8
  8
FRONT_ENGRAVE
 10
-16.50360181970951
 20
-106.5755973543086
 30
0.0
  0
VERTEX
  5
B9
  8
FRONT_ENGRAVE
 10
-14.50161376903677
 20
-108.0458146398997
 30
0.0
  0
VERTEX
  5
BA
  8
FRONT_ENGRAVE
 10
-14.50161376903677
 20
-95.24216950746502
 30
0.0
  0
SEQEND
  5
191
  8
FRONT_ENGRAVE
  0
POLYLINE
  5
78
  8
FRONT_ENGRAVE
 66
     1
 10
0.0
 20
0.0
 30
0.0
 70
     1
  0
VERTEX
  5
BB
  8
FRONT_ENGRAVE
 10
-16.50360181970951
 20
-109.1362687947353
 30
0.0
  0
VERTEX
  5
BC
  8
FRONT_ENGRAVE
 10
-16.50360181970952
 20
-121.939795367634
 30
0.0
  0
VERTEX
  5
BD
  8
FRONT_ENGRAVE
 10
-14.50161376903678
 20
-123.4101255670688
 30
0.0
  0
VERTEX
  5
BE
  8
FRONT_ENGRAVE
 10
-14.50161376903677
 20
-110.6064860803263
 30
0.0
  0
SEQEND
  5
192
  8
FRONT_ENGRAVE
  0
POLYLINE
  5
79
  8
FRONT_ENGRAVE
 66
     1
 10
0.0
 20
0.0
 30
0.0
 70
     1
  0
VERTEX
  5
BF
  8
FRONT_ENGRAVE
 10
-16.50360181970952
 20
-155.9451671513496
 30
0.0
  0
VERTEX
  5
C0
  8
FRONT_ENGRAVE
 10
-16.50360181970952
 20
-165.9009871078112
 30
0.0
  0
VERTEX
  5
C1
  8
FRONT_ENGRAVE
 10
-2.285181367167745
 20
-165.9009871078112
 30
0.0
  0
VERTEX
  5
C2
  8
FRONT_ENGRAVE
 10
-5.141483119893969
 20
-163.9009853700047
 30
0.0
  0
VERTEX
  5
C3
  8
FRONT_ENGRAVE
 10
-14.50161376903678
 20
-163.9009853700047
 30
0.0
  0
VERTEX
  5
C4
  8
FRONT_ENGRAVE
 10
-14.50161376903678
 20
-157.3469711216865
 30
0.0
  0
SEQEND
  5
193
  8
FRONT_ENGRAVE
  0
POLYLINE
  5
7A
  8
FRONT_ENGRAVE
 66
     1
 10
0.0
 20
0.0
 30
0.0
 70
     1
  0
VERTEX
  5
C5
  8
FRONT_ENGRAVE
 10
5.139494754894457
 20
-165.9009871078112
 30
0.0
  0
VERTEX
  5
C6
  8
FRONT_ENGRAVE
 10
16.86731572352239
 20
-165.9009871078112
 30
0.0
  0
VERTEX
  5
C7
  8
FRONT_ENGRAVE
 10
16.86731572352239
 20
-161.9050746830879
 30
0.0
  0
VERTEX
  5
C8
  8
FRONT_ENGRAVE
 10
14.86731398571589
 20
-160.5046864316773
 30
0.0
  0
VERTEX
  5
C9
  8
FRONT_ENGRAVE
 10
14.86731398571589
 20
-163.9009853700047
 30
0.0
  0
VERTEX
  5
CA
  8
FRONT_ENGRAVE
 10
2.283316810287261
 20
-163.9009853700047
 30
0.0
  0
SEQEND
  5
194
  8
FRONT_ENGRAVE
  0
POLYLINE
  5
7B
  8
FRONT_ENGRAVE
 66
     1
 10
0.0
 20
0.0
 30
0.0
 70
     1
  0
VERTEX
  5
CB
  8
FRONT_ENGRAVE
 10
16.86731572352239
 20
-128.1906888217285
 30
0.0
  0
VERTEX
  5
CC
  8
FRONT_ENGRAVE
 10
16.86731572352239
 20
-115.387167894522
 30
0.0
  0
VERTEX
  5
CD
  8
FRONT_ENGRAVE
 10
14.86731398571589
 20
-113.9183168664405
 30
0.0
  0
VERTEX
  5
CE
  8
FRONT_ENGRAVE
 10
14.86731398571589
 20
-126.7219563531831
 30
0.0
  0
SEQEND
  5
195
  8
FRONT_ENGRAVE
  0
POLYLINE
  5
7C
  8
FRONT_ENGRAVE
 66
     1
 10
0.0
 20
0.0
 30
0.0
 70
     1
  0
VERTEX
  5
CF
  8
FRONT_ENGRAVE
 10
16.86731572352239
 20
-97.46201051046839
 30
0.0
  0
VERTEX
  5
D0
  8
FRONT_ENGRAVE
 10
16.86731572352239
 20
-84.65848393756967
 30
0.0
  0
VERTEX
  5
D1
  8
FRONT_ENGRAVE
 10
14.86731398571589
 20
-83.18970065779445
 30
0.0
  0
VERTEX
  5
D2
  8
FRONT_ENGRAVE
 10
14.86731398571589
 20
-95.99323852207762
 30
0.0
  0
SEQEND
  5
196
  8
FRONT_ENGRAVE
  0
POLYLINE
  5
7D
  8
FRONT_ENGRAVE
 66
     1
 10
0.0
 20
0.0
 30
0.0
 70
     1
  0
VERTEX
  5
D3
  8
FRONT_ENGRAVE
 10
16.86731572352239
 20
-82.097812497143
 30
0.0
  0
VERTEX
  5
D4
  8
FRONT_ENGRAVE
 10
16.86731572352239
 20
-69.29417301040048
 30
0.0
  0
VERTEX
  5
D5
  8
FRONT_ENGRAVE
 10
14.86731398571589
 20
-67.82543489616286
 30
0.0
  0
VERTEX
  5
D6
  8
FRONT_ENGRAVE
 10
14.86731398571589
 20
-80.62895017767717
 30
0.0
  0
SEQEND
  5
197
  8
FRONT_ENGRAVE
  0
POLYLINE
  5
7E
  8
FRONT_ENGRAVE
 66
     1
 10
0.0
 20
0.0
 30
0.0
 70
     1
  0
VERTEX
  5
D7
  8
FRONT_ENGRAVE
 10
16.86731572352239
 20
-66.73349027858949
 30
0.0
  0
VERTEX
  5
D8
  8
FRONT_ENGRAVE
 10
16.86731572352239
 20
-53.92985079184704
 30
0.0
  0
VERTEX
  5
D9
  8
FRONT_ENGRAVE
 10
14.86731398571589
 20
-52.46112396899376
 30
0.0
  0
VERTEX
  5
DA
  8
FRONT_ENGRAVE
 10
14.86731398571589
 20
-65.26476345573624
 30
0.0
  0
SEQEND
  5
198
  8
FRONT_ENGRAVE
  0
POLYLINE
  5
7F
  8
FRONT_ENGRAVE
 66
     1
 10
0.0
 20
0.0
 30
0.0
 70
     1
  0
VERTEX
  5
DB
  8
FRONT_ENGRAVE
 10
16.86731572352239
 20
-51.36919064280482
 30
0.0
  0
VERTEX
  5
DC
  8
FRONT_ENGRAVE
 10
16.86731572352239
 20
-38.5655511560623
 30
0.0
  0
VERTEX
  5
DD
  8
FRONT_ENGRAVE
 10
14.86731398571589
 20
-37.09681304182466
 30
0.0
  0
VERTEX
  5
DE
  8
FRONT_ENGRAVE
 10
14.86731398571589
 20
-49.90044123718276
 30
0.0
  0
SEQEND
  5
199
  8
FRONT_ENGRAVE
  0
POLYLINE
  5
80
  8
FRONT_ENGRAVE
 66
     1
 10
0.0
 20
0.0
 30
0.0
 70
     1
  0
VERTEX
  5
DF
  8
FRONT_ENGRAVE
 10
16.86731572352239
 20
-36.00491358978886
 30
0.0
  0
VERTEX
  5
E0
  8
FRONT_ENGRAVE
 10
16.86731572352239
 20
-23.20127410304634
 30
0.0
  0
VERTEX
  5
E1
  8
FRONT_ENGRAVE
 10
14.86731398571589
 20
-21.73250211465557
 30
0.0
  0
VERTEX
  5
E2
  8
FRONT_ENGRAVE
 10
14.86731398571589
 20
-34.53614160139803
 30
0.0
  0
SEQEND
  5
19A
  8
FRONT_ENGRAVE
  0
POLYLINE
  5
81
  8
FRONT_ENGRAVE
 66
     1
 10
0.0
 20
0.0
 30
0.0
 70
     1
  0
VERTEX
  5
E3
  8
FRONT_ENGRAVE
 10
16.86731572352239
 20
-20.64061395400413
 30
0.0
  0
VERTEX
  5
E4
  8
FRONT_ENGRAVE
 10
16.86731572352239
 20
-7.83708738110542
 30
0.0
  0
VERTEX
  5
E5
  8
FRONT_ENGRAVE
 10
14.86731398571589
 20
-6.368236353023953
 30
0.0
  0
VERTEX
  5
E6
  8
FRONT_ENGRAVE
 10
14.86731398571589
 20
-19.17183067422894
 30
0.0
  0
SEQEND
  5
19B
  8
FRONT_ENGRAVE
  0
POLYLINE
  5
82
  8
FRONT_ENGRAVE
 66
     1
 10
0.0
 20
0.0
 30
0.0
 70
     1
  0
VERTEX
  5
E7
  8
FRONT_ENGRAVE
 10
16.86731572352239
 20
-5.27631431821942
 30
0.0
  0
VERTEX
  5
E8
  8
FRONT_ENGRAVE
 10
16.86731572352239
 20
-3.54473535845122
 30
0.0
  0
VERTEX
  5
E9
  8
FRONT_ENGRAVE
 10
16.86731572352239
 20
7.527212254679306
 30
0.0
  0
VERTEX
  5
EA
  8
FRONT_ENGRAVE
 10
14.86731398571589
 20
8.99595036891693
 30
0.0
  0
VERTEX
  5
EB
  8
FRONT_ENGRAVE
 10
14.86731398571589
 20
-3.807576203981732
 30
0.0
  0
SEQEND
  5
19C
  8
FRONT_ENGRAVE
  0
POLYLINE
  5
83
  8
FRONT_ENGRAVE
 66
     1
 10
0.0
 20
0.0
 30
0.0
 70
     1
  0
VERTEX
  5
EC
  8
FRONT_ENGRAVE
 10
16.86731572352239
 20
10.80554936092108
 30
0.0
  0
VERTEX
  5
ED
  8
FRONT_ENGRAVE
 10
16.86731572352239
 20
23.01326674780256
 30
0.0
  0
VERTEX
  5
EE
  8
FRONT_ENGRAVE
 10
14.86731398571589
 20
24.41365499921312
 30
0.0
  0
VERTEX
  5
EF
  8
FRONT_ENGRAVE
 10
14.86731398571589
 20
12.2059160804849
 30
0.0
  0
SEQEND
  5
19D
  8
FRONT_ENGRAVE
  0
POLYLINE
  5
84
  8
FRONT_ENGRAVE
 66
     1
 10
0.0
 20
0.0
 30
0.0
 70
     1
  0
VERTEX
  5
F0
  8
FRONT_ENGRAVE
 10
16.86731572352239
 20
25.4548059188095
 30
0.0
  0
VERTEX
  5
F1
  8
FRONT_ENGRAVE
 10
16.86731572352239
 20
37.66263096492492
 30
0.0
  0
VERTEX
  5
F2
  8
FRONT_ENGRAVE
 10
14.86731398571589
 20
39.06306228002911
 30
0.0
  0
VERTEX
  5
F3
  8
FRONT_ENGRAVE
 10
14.86731398571589
 20
26.85523723391368
 30
0.0
  0
SEQEND
  5
19E
  8
FRONT_ENGRAVE
  0
POLYLINE
  5
85
  8
FRONT_ENGRAVE
 66
     1
 10
0.0
 20
0.0
 30
0.0
 70
     1
  0
VERTEX
  5
F4
  8
FRONT_ENGRAVE
 10
16.86731572352239
 20
40.10412707223828
 30
0.0
  0
VERTEX
  5
F5
  8
FRONT_ENGRAVE
 10
16.86731572352239
 20
47.77960602867275
 30
0.0
  0
VERTEX
  5
F6
  8
FRONT_ENGRAVE
 10
5.307621502484579
 20
56.30905296579083
 30
0.0
  0
VERTEX
  5
F7
  8
FRONT_ENGRAVE
 10
4.969785661996934
 20
56.07468146589619
 30
0.0
  0
VERTEX
  5
F8
  8
FRONT_ENGRAVE
 10
4.633880196782318
 20
55.82940274894038
 30
0.0
  0
VERTEX
  5
F9
  8
FRONT_ENGRAVE
 10
4.299930670651992
 20
55.57434131192202
 30
0.0
  0
VERTEX
  5
FA
  8
FRONT_ENGRAVE
 10
3.967962647417221
 20
55.31062165183974
 30
0.0
  0
VERTEX
  5
FB
  8
FRONT_ENGRAVE
 10
3.310073364879389
 20
54.76170565047789
 30
0.0
  0
VERTEX
  5
FC
  8
FRONT_ENGRAVE
 10
2.660416859658923
 20
54.19165072084383
 30
0.0
  0
VERTEX
  5
FD
  8
FRONT_ENGRAVE
 10
1.386620223130485
 20
53.02410798071503
 30
0.0
  0
VERTEX
  5
FE
  8
FRONT_ENGRAVE
 10
0.1482088217527036
 20
51.87996123936527
 30
0.0
  0
VERTEX
  5
FF
  8
FRONT_ENGRAVE
 10
2.070200678645605
 20
50.5340700921756
 30
0.0
  0
VERTEX
  5
100
  8
FRONT_ENGRAVE
 10
2.901165532011819
 20
51.28064333633529
 30
0.0
  0
VERTEX
  5
101
  8
FRONT_ENGRAVE
 10
3.748556324779026
 20
52.04150546663631
 30
0.0
  0
VERTEX
  5
102
  8
FRONT_ENGRAVE
 10
4.178253902185988
 20
52.43770747259646
 30
0.0
  0
VERTEX
  5
103
  8
FRONT_ENGRAVE
 10
4.611868908940785
 20
52.8499768302999
 30
0.0
  0
VERTEX
  5
104
  8
FRONT_ENGRAVE
 10
5.04933832654261
 20
53.28247858314931
 30
0.0
  0
VERTEX
  5
105
  8
FRONT_ENGRAVE
 10
5.490599136490658
 20
53.73937777454732
 30
0.0
  0
VERTEX
  5
106
  8
FRONT_ENGRAVE
 10
14.86731398571589
 20
46.73856276831033
 30
0.0
  0
VERTEX
  5
107
  8
FRONT_ENGRAVE
 10
14.86731398571589
 20
41.50453685549566
 30
0.0
  0
SEQEND
  5
19F
  8
FRONT_ENGRAVE
  0
POLYLINE
  5
86
  8
FRONT_ENGRAVE
 66
     1
 10
0.0
 20
0.0
 30
0.0
 70
     1
  0
VERTEX
  5
108
  8
FRONT_ENGRAVE
 10
-1.612615647278503
 20
49.86499645903893
 30
0.0
  0
VERTEX
  5
109
  8
FRONT_ENGRAVE
 10
-2.054948502605193
 20
49.4111963251
 30
0.0
  0
VERTEX
  5
10A
  8
FRONT_ENGRAVE
 10
-2.491348367173475
 20
48.95204419666501
 30
0.0
  0
VERTEX
  5
10B
  8
FRONT_ENGRAVE
 10
-2.921723533396644
 20
48.48772613773562
 30
0.0
  0
VERTEX
  5
10C
  8
FRONT_ENGRAVE
 10
-3.345982293687991
 20
48.01842821231351
 30
0.0
  0
VERTEX
  5
10D
  8
FRONT_ENGRAVE
 10
-3.764032940460812
 20
47.54433648440035
 30
0.0
  0
VERTEX
  5
10E
  8
FRONT_ENGRAVE
 10
-4.1757837661284
 20
47.06563701799782
 30
0.0
  0
VERTEX
  5
10F
  8
FRONT_ENGRAVE
 10
-4.581143063104046
 20
46.58251587710757
 30
0.0
  0
VERTEX
  5
110
  8
FRONT_ENGRAVE
 10
-4.980019123801047
 20
46.09515912573129
 30
0.0
  0
VERTEX
  5
111
  8
FRONT_ENGRAVE
 10
-5.372320240632695
 20
45.60375282787064
 30
0.0
  0
VERTEX
  5
112
  8
FRONT_ENGRAVE
 10
-5.757954706012283
 20
45.1084830475273
 30
0.0
  0
VERTEX
  5
113
  8
FRONT_ENGRAVE
 10
-6.136830812353105
 20
44.60953584870295
 30
0.0
  0
VERTEX
  5
114
  8
FRONT_ENGRAVE
 10
-6.508856852068453
 20
44.10709729539924
 30
0.0
  0
VERTEX
  5
115
  8
FRONT_ENGRAVE
 10
-6.873941117571623
 20
43.60135345161786
 30
0.0
  0
VERTEX
  5
116
  8
FRONT_ENGRAVE
 10
-7.231991901275908
 20
43.09249038136048
 30
0.0
  0
VERTEX
  5
117
  8
FRONT_ENGRAVE
 10
-7.5829174955946
 20
42.58069414862875
 30
0.0
  0
VERTEX
  5
118
  8
FRONT_ENGRAVE
 10
-7.926626192940994
 20
42.06615081742436
 30
0.0
  0
VERTEX
  5
119
  8
FRONT_ENGRAVE
 10
-5.966507868851743
 20
40.73113076114407
 30
0.0
  0
VERTEX
  5
11A
  8
FRONT_ENGRAVE
 10
-5.623976756195566
 20
41.24616872262376
 30
0.0
  0
VERTEX
  5
11B
  8
FRONT_ENGRAVE
 10
-5.274215509327182
 20
41.75849391863927
 30
0.0
  0
VERTEX
  5
11C
  8
FRONT_ENGRAVE
 10
-4.917315645909973
 20
42.26791962523686
 30
0.0
  0
VERTEX
  5
11D
  8
FRONT_ENGRAVE
 10
-4.553368683607321
 20
42.77425911846283
 30
0.0
  0
VERTEX
  5
11E
  8
FRONT_ENGRAVE
 10
-4.182466140082608
 20
43.27732567436345
 30
0.0
  0
VERTEX
  5
11F
  8
FRONT_ENGRAVE
 10
-3.804699532999215
 20
43.77693256898502
 30
0.0
  0
VERTEX
  5
120
  8
FRONT_ENGRAVE
 10
-3.420160380020526
 20
44.2728930783738
 30
0.0
  0
VERTEX
  5
121
  8
FRONT_ENGRAVE
 10
-3.028940198809922
 20
44.7650204785761
 30
0.0
  0
VERTEX
  5
122
  8
FRONT_ENGRAVE
 10
-2.631130507030785
 20
45.25312804563818
 30
0.0
  0
VERTEX
  5
123
  8
FRONT_ENGRAVE
 10
-2.226822822346498
 20
45.73702905560634
 30
0.0
  0
VERTEX
  5
124
  8
FRONT_ENGRAVE
 10
-1.816108662420442
 20
46.21653678452685
 30
0.0
  0
VERTEX
  5
125
  8
FRONT_ENGRAVE
 10
-1.399079544916
 20
46.691464508446
 30
0.0
  0
VERTEX
  5
126
  8
FRONT_ENGRAVE
 10
-0.9758269874965534
 20
47.16162550341006
 30
0.0
  0
VERTEX
  5
127
  8
FRONT_ENGRAVE
 10
-0.5464425078254846
 20
47.62683304546533
 30
0.0
  0
VERTEX
  5
128
  8
FRONT_ENGRAVE
 10
-0.1110176235661759
 20
48.08690041065809
 30
0.0
  0
VERTEX
  5
129
  8
FRONT_ENGRAVE
 10
0.3303561476179908
 20
48.54164087503462
 30
0.0
  0
SEQEND
  5
1A0
  8
FRONT_ENGRAVE
  0
POLYLINE
  5
87
  8
FRONT_ENGRAVE
 66
     1
 10
0.0
 20
0.0
 30
0.0
 70
     1
  0
VERTEX
  5
12A
  8
FRONT_ENGRAVE
 10
-9.6784248276877
 20
39.8741375564165
 30
0.0
  0
VERTEX
  5
12B
  8
FRONT_ENGRAVE
 10
-10.02942289556527
 20
39.31421580089833
 30
0.0
  0
VERTEX
  5
12C
  8
FRONT_ENGRAVE
 10
-10.37143198085234
 20
38.7520296355809
 30
0.0
  0
VERTEX
  5
12D
  8
FRONT_ENGRAVE
 10
-10.70432999170723
 20
38.18781338997336
 30
0.0
  0
VERTEX
  5
12E
  8
FRONT_ENGRAVE
 10
-11.02799483628826
 20
37.62180139358483
 30
0.0
  0
VERTEX
  5
12F
  8
FRONT_ENGRAVE
 10
-11.34230442275377
 20
37.05422797592448
 30
0.0
  0
VERTEX
  5
130
  8
FRONT_ENGRAVE
 10
-11.64713665926209
 20
36.48532746650146
 30
0.0
  0
VERTEX
  5
131
  8
FRONT_ENGRAVE
 10
-11.94236945397154
 20
35.91533419482491
 30
0.0
  0
VERTEX
  5
132
  8
FRONT_ENGRAVE
 10
-12.22788071504044
 20
35.34448249040398
 30
0.0
  0
VERTEX
  5
133
  8
FRONT_ENGRAVE
 10
-12.50354835062712
 20
34.77300668274782
 30
0.0
  0
VERTEX
  5
134
  8
FRONT_ENGRAVE
 10
-12.76925026888992
 20
34.20114110136558
 30
0.0
  0
VERTEX
  5
135
  8
FRONT_ENGRAVE
 10
-13.02486437798716
 20
33.6291200757664
 30
0.0
  0
VERTEX
  5
136
  8
FRONT_ENGRAVE
 10
-13.27026858607716
 20
33.05717793545944
 30
0.0
  0
VERTEX
  5
137
  8
FRONT_ENGRAVE
 10
-13.50534080131826
 20
32.48554900995383
 30
0.0
  0
VERTEX
  5
138
  8
FRONT_ENGRAVE
 10
-13.72995893186877
 20
31.91446762875874
 30
0.0
  0
VERTEX
  5
139
  8
FRONT_ENGRAVE
 10
-13.94400088588703
 20
31.3441681213833
 30
0.0
  0
VERTEX
  5
13A
  8
FRONT_ENGRAVE
 10
-14.14734457153136
 20
30.77488481733667
 30
0.0
  0
VERTEX
  5
13B
  8
FRONT_ENGRAVE
 10
-12.19544724952063
 20
29.37708172228655
 30
0.0
  0
VERTEX
  5
13C
  8
FRONT_ENGRAVE
 10
-11.99374958171812
 20
29.94695559758014
 30
0.0
  0
VERTEX
  5
13D
  8
FRONT_ENGRAVE
 10
-11.78129530934781
 20
30.51789240358216
 30
0.0
  0
VERTEX
  5
13E
  8
FRONT_ENGRAVE
 10
-11.55820774231313
 20
31.08965671969778
 30
0.0
  0
VERTEX
  5
13F
  8
FRONT_ENGRAVE
 10
-11.32461019051749
 20
31.66201312533216
 30
0.0
  0
VERTEX
  5
140
  8
FRONT_ENGRAVE
 10
-11.08062596386433
 20
32.23472619989049
 30
0.0
  0
VERTEX
  5
141
  8
FRONT_ENGRAVE
 10
-10.82637837225706
 20
32.80756052277791
 30
0.0
  0
VERTEX
  5
142
  8
FRONT_ENGRAVE
 10
-10.56199072559911
 20
33.38028067339961
 30
0.0
  0
VERTEX
  5
143
  8
FRONT_ENGRAVE
 10
-10.2875863337939
 20
33.95265123116076
 30
0.0
  0
VERTEX
  5
144
  8
FRONT_ENGRAVE
 10
-10.00328850674486
 20
34.52443677546654
 30
0.0
  0
VERTEX
  5
145
  8
FRONT_ENGRAVE
 10
-9.709220554355413
 20
35.0954018857221
 30
0.0
  0
VERTEX
  5
146
  8
FRONT_ENGRAVE
 10
-9.40550578652898
 20
35.66531114133262
 30
0.0
  0
VERTEX
  5
147
  8
FRONT_ENGRAVE
 10
-9.092267513168988
 20
36.23392912170328
 30
0.0
  0
VERTEX
  5
148
  8
FRONT_ENGRAVE
 10
-8.76962904417886
 20
36.80102040623923
 30
0.0
  0
VERTEX
  5
149
  8
FRONT_ENGRAVE
 10
-8.437713689462019
 20
37.36634957434566
 30
0.0
  0
VERTEX
  5
14A
  8
FRONT_ENGRAVE
 10
-8.09664475892189
 20
37.92968120542773
 30
0.0
  0
VERTEX
  5
14B
  8
FRONT_ENGRAVE
 10
-7.746545562461897
 20
38.49077987889061
 30
0.0
  0
SEQEND
  5
1A1
  8
FRONT_ENGRAVE
  0
POLYLINE
  5
88
  8
FRONT_ENGRAVE
 66
     1
 10
0.0
 20
0.0
 30
0.0
 70
     1
  0
VERTEX
  5
14C
  8
FRONT_ENGRAVE
 10
16.86731572352239
 20
10.80554936092108
 30
0.0
  0
VERTEX
  5
14D
  8
FRONT_ENGRAVE
 10
16.86731572352239
 20
23.01326674780256
 30
0.0
  0
VERTEX
  5
14E
  8
FRONT_ENGRAVE
 10
14.86731398571589
 20
24.41365499921312
 30
0.0
  0
VERTEX
  5
14F
  8
FRONT_ENGRAVE
 10
14.86731398571589
 20
12.2059160804849
 30
0.0
  0
SEQEND
  5
1A2
  8
FRONT_ENGRAVE
  0
POLYLINE
  5
89
  8
FRONT_ENGRAVE
 66
     1
 10
0.0
 20
0.0
 30
0.0
 70
     1
  0
VERTEX
  5
150
  8
FRONT_ENGRAVE
 10
16.86731572352239
 20
25.4548059188095
 30
0.0
  0
VERTEX
  5
151
  8
FRONT_ENGRAVE
 10
16.86731572352239
 20
37.66263096492492
 30
0.0
  0
VERTEX
  5
152
  8
FRONT_ENGRAVE
 10
14.86731398571589
 20
39.06306228002911
 30
0.0
  0
VERTEX
  5
153
  8
FRONT_ENGRAVE
 10
14.86731398571589
 20
26.85523723391368
 30
0.0
  0
SEQEND
  5
1A3
  8
FRONT_ENGRAVE
  0
POLYLINE
  5
8A
  8
FRONT_ENGRAVE
 66
     1
 10
0.0
 20
0.0
 30
0.0
 70
     1
  0
VERTEX
  5
154
  8
FRONT_ENGRAVE
 10
16.86731572352239
 20
10.80554936092108
 30
0.0
  0
VERTEX
  5
155
  8
FRONT_ENGRAVE
 10
16.86731572352239
 20
23.01326674780256
 30
0.0
  0
VERTEX
  5
156
  8
FRONT_ENGRAVE
 10
14.86731398571589
 20
24.41365499921312
 30
0.0
  0
VERTEX
  5
157
  8
FRONT_ENGRAVE
 10
14.86731398571589
 20
12.2059160804849
 30
0.0
  0
SEQEND
  5
1A4
  8
FRONT_ENGRAVE
  0
POLYLINE
  5
8B
  8
FRONT_ENGRAVE
 66
     1
 10
0.0
 20
0.0
 30
0.0
 70
     1
  0
VERTEX
  5
158
  8
FRONT_ENGRAVE
 10
16.86731572352239
 20
25.4548059188095
 30
0.0
  0
VERTEX
  5
159
  8
FRONT_ENGRAVE
 10
16.86731572352239
 20
37.66263096492492
 30
0.0
  0
VERTEX
  5
15A
  8
FRONT_ENGRAVE
 10
14.86731398571589
 20
39.06306228002911
 30
0.0
  0
VERTEX
  5
15B
  8
FRONT_ENGRAVE
 10
14.86731398571589
 20
26.85523723391368
 30
0.0
  0
SEQEND
  5
1A5
  8
FRONT_ENGRAVE
  0
POLYLINE
  5
8C
  8
FRONT_ENGRAVE
 66
     1
 10
0.0
 20
0.0
 30
0.0
 70
     1
  0
VERTEX
  5
15C
  8
FRONT_ENGRAVE
 10
-15.37263622202887
 20
28.28114072376827
 30
0.0
  0
VERTEX
  5
15D
  8
FRONT_ENGRAVE
 10
-15.5815977906361
 20
27.46867673126533
 30
0.0
  0
VERTEX
  5
15E
  8
FRONT_ENGRAVE
 10
-15.76681065743248
 20
26.661504778872
 30
0.0
  0
VERTEX
  5
15F
  8
FRONT_ENGRAVE
 10
-15.92791172482981
 20
25.86033667916397
 30
0.0
  0
VERTEX
  5
160
  8
FRONT_ENGRAVE
 10
-16.06453789523987
 20
25.06588424471689
 30
0.0
  0
VERTEX
  5
161
  8
FRONT_ENGRAVE
 10
-16.17632607107442
 20
24.27885928810642
 30
0.0
  0
VERTEX
  5
162
  8
FRONT_ENGRAVE
 10
-16.26291315474525
 20
23.49997362190822
 30
0.0
  0
VERTEX
  5
163
  8
FRONT_ENGRAVE
 10
-16.32393604866413
 20
22.72993905869795
 30
0.0
  0
VERTEX
  5
164
  8
FRONT_ENGRAVE
 10
-16.35903165524286
 20
21.96946741105127
 30
0.0
  0
VERTEX
  5
165
  8
FRONT_ENGRAVE
 10
-16.36093722368361
 20
21.96946741105127
 30
0.0
  0
VERTEX
  5
166
  8
FRONT_ENGRAVE
 10
-16.36093722368361
 20
21.90226651722533
 30
0.0
  0
VERTEX
  5
167
  8
FRONT_ENGRAVE
 10
-16.36093722368361
 20
16.76543536081256
 30
0.0
  0
VERTEX
  5
168
  8
FRONT_ENGRAVE
 10
-14.35894917301087
 20
15.36366907120755
 30
0.0
  0
VERTEX
  5
169
  8
FRONT_ENGRAVE
 10
-14.35894917301087
 20
20.63012194528524
 30
0.0
  0
VERTEX
  5
16A
  8
FRONT_ENGRAVE
 10
-14.35894917301087
 20
20.89082954619671
 30
0.0
  0
VERTEX
  5
16B
  8
FRONT_ENGRAVE
 10
-14.35060019941874
 20
20.89082954619671
 30
0.0
  0
VERTEX
  5
16C
  8
FRONT_ENGRAVE
 10
-14.31144529301339
 20
21.61639777581901
 30
0.0
  0
VERTEX
  5
16D
  8
FRONT_ENGRAVE
 10
-14.24886087760409
 20
22.35048555163221
 30
0.0
  0
VERTEX
  5
16E
  8
FRONT_ENGRAVE
 10
-14.16317144485064
 20
23.09248022530816
 30
0.0
  0
VERTEX
  5
16F
  8
FRONT_ENGRAVE
 10
-14.05470148641282
 20
23.84176914851871
 30
0.0
  0
VERTEX
  5
170
  8
FRONT_ENGRAVE
 10
-13.92377549395045
 20
24.59773967293574
 30
0.0
  0
VERTEX
  5
171
  8
FRONT_ENGRAVE
 10
-13.77071795912333
 20
25.35977915023108
 30
0.0
  0
VERTEX
  5
172
  8
FRONT_ENGRAVE
 10
-13.59585337359125
 20
26.12727493207661
 30
0.0
  0
VERTEX
  5
173
  8
FRONT_ENGRAVE
 10
-13.39950622901401
 20
26.89961437014416
 30
0.0
  0
SEQEND
  5
1A6
  8
FRONT_ENGRAVE
  0
POLYLINE
  5
8D
  8
FRONT_ENGRAVE
 66
     1
 10
0.0
 20
0.0
 30
0.0
 70
     1
  0
VERTEX
  5
174
  8
FRONT_ENGRAVE
 10
-16.50360181970952
 20
-124.9135487287445
 30
0.0
  0
VERTEX
  5
175
  8
FRONT_ENGRAVE
 10
-16.50360181970952
 20
-137.7171825697948
 30
0.0
  0
VERTEX
  5
176
  8
FRONT_ENGRAVE
 10
-14.50161376903678
 20
-139.1873998553859
 30
0.0
  0
VERTEX
  5
177
  8
FRONT_ENGRAVE
 10
-14.50161376903678
 20
-126.3837547229512
 30
0.0
  0
SEQEND
  5
1A7
  8
FRONT_ENGRAVE
  0
POLYLINE
  5
8E
  8
FRONT_ENGRAVE
 66
     1
 10
0.0
 20
0.0
 30
0.0
 70
     1
  0
VERTEX
  5
178
  8
FRONT_ENGRAVE
 10
-16.50360181970952
 20
-140.2778540102214
 30
0.0
  0
VERTEX
  5
179
  8
FRONT_ENGRAVE
 10
-16.50360181970952
 20
-153.0813805831202
 30
0.0
  0
VERTEX
  5
17A
  8
FRONT_ENGRAVE
 10
-14.50161376903678
 20
-154.5517107825549
 30
0.0
  0
VERTEX
  5
17B
  8
FRONT_ENGRAVE
 10
-14.50161376903678
 20
-141.7480712958125
 30
0.0
  0
SEQEND
  5
1A8
  8
FRONT_ENGRAVE
  0
POLYLINE
  5
8F
  8
FRONT_ENGRAVE
 66
     1
 10
0.0
 20
0.0
 30
0.0
 70
     1
  0
VERTEX
  5
17C
  8
FRONT_ENGRAVE
 10
16.86731572352239
 20
-159.3322740372147
 30
0.0
  0
VERTEX
  5
17D
  8
FRONT_ENGRAVE
 10
16.86731572352239
 20
-146.5287531100081
 30
0.0
  0
VERTEX
  5
17E
  8
FRONT_ENGRAVE
 10
14.86731398571589
 20
-145.0599020819267
 30
0.0
  0
VERTEX
  5
17F
  8
FRONT_ENGRAVE
 10
14.86731398571589
 20
-157.8635415686692
 30
0.0
  0
SEQEND
  5
1A9
  8
FRONT_ENGRAVE
  0
POLYLINE
  5
90
  8
FRONT_ENGRAVE
 66
     1
 10
0.0
 20
0.0
 30
0.0
 70
     1
  0
VERTEX
  5
180
  8
FRONT_ENGRAVE
 10
16.86731572352239
 20
-143.9678897160471
 30
0.0
  0
VERTEX
  5
181
  8
FRONT_ENGRAVE
 10
16.86731572352239
 20
-131.1643349146875
 30
0.0
  0
VERTEX
  5
182
  8
FRONT_ENGRAVE
 10
14.86731398571589
 20
-129.6955855090654
 30
0.0
  0
VERTEX
  5
183
  8
FRONT_ENGRAVE
 10
14.86731398571589
 20
-142.4991233733485
 30
0.0
  0
SEQEND
  5
1AA
  8
FRONT_ENGRAVE
  0
POLYLINE
  5
91
  8
FRONT_ENGRAVE
 66
     1
 10
0.0
 20
0.0
 30
0.0
 70
     1
  0
VERTEX
  5
184
  8
FRONT_ENGRAVE
 10
16.86731572352239
 20
-112.826304500561
 30
0.0
  0
VERTEX
  5
185
  8
FRONT_ENGRAVE
 10
16.86731572352239
 20
-100.0227496992013
 30
0.0
  0
VERTEX
  5
186
  8
FRONT_ENGRAVE
 10
14.86731398571589
 20
-98.55400029357925
 30
0.0
  0
VERTEX
  5
187
  8
FRONT_ENGRAVE
 10
14.86731398571589
 20
-111.3575381578624
 30
0.0
  0
SEQEND
  5
1AB
  8
FRONT_ENGRAVE
  0
ENDSEC
  0
EOF
