  0
SECTION
  2
HEADER
  9
$ACADVER
  1
AC1009
  9
$DWGCODEPAGE
  3
ansi_1252
  9
$INSBASE
 10
0.0
 20
0.0
 30
0.0
  9
$EXTMIN
 10
-100.7751857849414
 20
-6.629294416639548
 30
0.0
  9
$EXTMAX
 10
-88.97512364639212
 20
39.66956438893713
 30
0.0
  9
$LIMMIN
 10
0.0
 20
0.0
  9
$LIMMAX
 10
12.0
 20
9.0
  9
$ORTHOMODE
 70
     0
  9
$REGENMODE
 70
     1
  9
$FILLMODE
 70
     1
  9
$QTEXTMODE
 70
     0
  9
$MIRRTEXT
 70
     1
  9
$DRAGMODE
 70
     2
  9
$LTSCALE
 40
1.0
  9
$OSMODE
 70
    37
  9
$ATTMODE
 70
     1
  9
$TEXTSIZE
 40
0.2
  9
$TRACEWID
 40
0.05
  9
$TEXTSTYLE
  7
STANDARD
  9
$CLAYER
  8
0
  9
$CELTYPE
  6
BYLAYER
  9
$CECOLOR
 62
   256
  9
$DIMSCALE
 40
1.0
  9
$DIMASZ
 40
0.18
  9
$DIMEXO
 40
0.0625
  9
$DIMDLI
 40
0.38
  9
$DIMRND
 40
0.0
  9
$DIMDLE
 40
0.0
  9
$DIMEXE
 40
0.18
  9
$DIMTP
 40
0.0
  9
$DIMTM
 40
0.0
  9
$DIMTXT
 40
0.18
  9
$DIMCEN
 40
0.09
  9
$DIMTSZ
 40
0.0
  9
$DIMTOL
 70
     0
  9
$DIMLIM
 70
     0
  9
$DIMTIH
 70
     1
  9
$DIMTOH
 70
     1
  9
$DIMSE1
 70
     0
  9
$DIMSE2
 70
     0
  9
$DIMTAD
 70
     0
  9
$DIMZIN
 70
     0
  9
$DIMBLK
  1

  9
$DIMASO
 70
     1
  9
$DIMSHO
 70
     1
  9
$DIMPOST
  1

  9
$DIMAPOST
  1

  9
$DIMALT
 70
     0
  9
$DIMALTD
 70
     2
  9
$DIMALTF
 40
25.4
  9
$DIMLFAC
 40
1.0
  9
$DIMTOFL
 70
     0
  9
$DIMTVP
 40
0.0
  9
$DIMTIX
 70
     0
  9
$DIMSOXD
 70
     0
  9
$DIMSAH
 70
     0
  9
$DIMBLK1
  1

  9
$DIMBLK2
  1

  9
$DIMSTYLE
  2
STANDARD
  9
$DIMCLRD
 70
     0
  9
$DIMCLRE
 70
     0
  9
$DIMCLRT
 70
     0
  9
$DIMTFAC
 40
1.0
  9
$DIMGAP
 40
0.09
  9
$LUNITS
 70
     2
  9
$LUPREC
 70
     4
  9
$SKETCHINC
 40
0.1
  9
$FILLETRAD
 40
0.5
  9
$AUNITS
 70
     0
  9
$AUPREC
 70
     0
  9
$MENU
  1
.
  9
$ELEVATION
 40
0.0
  9
$PELEVATION
 40
0.0
  9
$THICKNESS
 40
0.0
  9
$LIMCHECK
 70
     0
  9
$CHAMFERA
 40
0.0
  9
$CHAMFERB
 40
0.0
  9
$SKPOLY
 70
     0
  9
$TDCREATE
 40
2454910.5
  9
$TDUPDATE
 40
2458848.689972604
  9
$TDINDWG
 40
0.0000000116
  9
$TDUSRTIMER
 40
0.0000000116
  9
$USRTIMER
 70
     1
  9
$ANGBASE
 50
0.0
  9
$ANGDIR
 70
     0
  9
$PDMODE
 70
     0
  9
$PDSIZE
 40
0.0
  9
$PLINEWID
 40
0.0
  9
$COORDS
 70
     1
  9
$SPLFRAME
 70
     0
  9
$SPLINETYPE
 70
     6
  9
$SPLINESEGS
 70
     8
  9
$ATTDIA
 70
     0
  9
$ATTREQ
 70
     1
  9
$HANDLING
 70
     1
  9
$HANDSEED
  5
14F
  9
$SURFTAB1
 70
     6
  9
$SURFTAB2
 70
     6
  9
$SURFTYPE
 70
     6
  9
$SURFU
 70
     6
  9
$SURFV
 70
     6
  9
$UCSNAME
  2

  9
$UCSORG
 10
0.0
 20
0.0
 30
0.0
  9
$UCSXDIR
 10
1.0
 20
0.0
 30
0.0
  9
$UCSYDIR
 10
0.0
 20
1.0
 30
0.0
  9
$PUCSNAME
  2

  9
$PUCSORG
 10
0.0
 20
0.0
 30
0.0
  9
$PUCSXDIR
 10
1.0
 20
0.0
 30
0.0
  9
$PUCSYDIR
 10
0.0
 20
1.0
 30
0.0
  9
$USERI1
 70
     0
  9
$USERI2
 70
     0
  9
$USERI3
 70
     0
  9
$USERI4
 70
     0
  9
$USERI5
 70
     0
  9
$USERR1
 40
0.0
  9
$USERR2
 40
0.0
  9
$USERR3
 40
0.0
  9
$USERR4
 40
0.0
  9
$USERR5
 40
0.0
  9
$WORLDVIEW
 70
     1
  9
$SHADEDGE
 70
     3
  9
$SHADEDIF
 70
    70
  9
$TILEMODE
 70
     1
  9
$MAXACTVP
 70
    64
  9
$PLIMCHECK
 70
     0
  9
$PEXTMIN
 10
1.000000000000000E+20
 20
1.000000000000000E+20
 30
1.000000000000000E+20
  9
$PEXTMAX
 10
-1.000000000000000E+20
 20
-1.000000000000000E+20
 30
-1.000000000000000E+20
  9
$PLIMMIN
 10
0.0
 20
0.0
  9
$PLIMMAX
 10
12.0
 20
9.0
  9
$UNITMODE
 70
     0
  9
$VISRETAIN
 70
     1
  9
$PLINEGEN
 70
     0
  9
$PSLTSCALE
 70
     1
  0
ENDSEC
  0
SECTION
  2
TABLES
  0
TABLE
  2
VPORT
 70
     1
  0
VPORT
  2
*ACTIVE
 70
     0
 10
0.0
 20
0.0
 11
1.0
 21
1.0
 12
10.42990654205607
 22
4.5
 13
0.0
 23
0.0
 14
0.5
 24
0.5
 15
0.5
 25
0.5
 16
0.0
 26
0.0
 36
1.0
 17
0.0
 27
0.0
 37
0.0
 40
9.0
 41
1.972972972850329
 42
50.0
 43
0.0
 44
0.0
 50
0.0
 51
0.0
 71
     0
 72
   100
 73
     1
 74
     3
 75
     0
 76
     0
 77
     0
 78
     0
  0
ENDTAB
  0
TABLE
  2
LTYPE
 70
     2
  0
LTYPE
  2
CONTINUOUS
 70
     0
  3
Solid line
 72
    65
 73
     0
 40
0.0
  0
LTYPE
  2
CONTINUOUS2
 70
     0
  3
Solid Line
 72
    65
 73
     0
 40
0.0
  0
ENDTAB
  0
TABLE
  2
LAYER
 70
     3
  0
LAYER
  2
0
 70
     0
 62
     7
  6
CONTINUOUS
  0
LAYER
  2
01FACE
 70
     0
 62
    18
  6
CONTINUOUS
  0
LAYER
  2
BUTTONS
 70
     0
 62
    18
  6
CONTINUOUS
  0
ENDTAB
  0
TABLE
  2
STYLE
 70
     1
  0
STYLE
  2
STANDARD
 70
     0
 40
0.0
 41
1.0
 50
0.0
 71
     0
 42
0.2
  3
txt
  4

  0
ENDTAB
  0
TABLE
  2
VIEW
 70
     0
  0
ENDTAB
  0
TABLE
  2
UCS
 70
     0
  0
ENDTAB
  0
TABLE
  2
APPID
 70
     1
  0
APPID
  2
ACAD
 70
     0
  0
ENDTAB
  0
TABLE
  2
DIMSTYLE
 70
     1
  0
DIMSTYLE
  2
STANDARD
 70
     0
  3

  4

  5

  6

  7

 40
1.0
 41
0.18
 42
0.0625
 43
0.38
 44
0.18
 45
0.0
 46
0.0
 47
0.0
 48
0.0
140
0.18
141
0.09
142
0.0
143
25.4
144
1.0
145
0.0
146
1.0
147
0.09
 71
     0
 72
     0
 73
     1
 74
     1
 75
     0
 76
     0
 77
     0
 78
     0
170
     0
171
     2
172
     0
173
     0
174
     0
175
     0
176
     0
177
     0
178
     0
  0
ENDTAB
  0
ENDSEC
  0
SECTION
  2
BLOCKS
  0
BLOCK
  8
0
  2
$MODEL_SPACE
 70
     0
 10
0.0
 20
0.0
 30
0.0
  3
$MODEL_SPACE
  1

  0
ENDBLK
  5
21
  8
0
  0
BLOCK
 67
     1
  8
0
  2
$PAPER_SPACE
 70
     0
 10
0.0
 20
0.0
 30
0.0
  3
$PAPER_SPACE
  1

  0
ENDBLK
  5
1D
 67
     1
  8
0
  0
ENDSEC
  0
SECTION
  2
ENTITIES
  0
POLYLINE
  5
70
  8
01FACE
 66
     1
 10
0.0
 20
0.0
 30
0.0
 70
     1
  0
VERTEX
  5
86
  8
01FACE
 10
-100.7751857849414
 20
-6.629294416639548
 30
0.0
  0
VERTEX
  5
87
  8
01FACE
 10
-88.97512364639212
 20
-6.629294416639548
 30
0.0
  0
VERTEX
  5
88
  8
01FACE
 10
-88.97512364639212
 20
5.170705583360453
 30
0.0
  0
VERTEX
  5
89
  8
01FACE
 10
-100.7751857849414
 20
5.170705583360453
 30
0.0
  0
SEQEND
  5
141
  8
01FACE
  0
POLYLINE
  5
71
  8
01FACE
 66
     1
 10
0.0
 20
0.0
 30
0.0
 70
     1
  0
VERTEX
  5
8A
  8
01FACE
 10
-100.7751857849414
 20
7.415889583360389
 30
0.0
  0
VERTEX
  5
8B
  8
01FACE
 10
-88.97512364639212
 20
7.415889583360389
 30
0.0
  0
VERTEX
  5
8C
  8
01FACE
 10
-88.97512364639212
 20
19.21588958336039
 30
0.0
  0
VERTEX
  5
8D
  8
01FACE
 10
-100.7751857849414
 20
19.21588958336039
 30
0.0
  0
SEQEND
  5
142
  8
01FACE
  0
POLYLINE
  5
72
  8
01FACE
 66
     1
 10
0.0
 20
0.0
 30
0.0
 70
     1
  0
VERTEX
  5
8E
  8
01FACE
 10
-99.35145255798793
 20
20.76956438893713
 30
0.0
  0
VERTEX
  5
8F
  8
01FACE
 10
-90.80145255798793
 20
20.76956438893713
 30
0.0
  0
VERTEX
  5
90
  8
01FACE
 10
-90.80145255798793
 20
39.66956438893713
 30
0.0
  0
VERTEX
  5
91
  8
01FACE
 10
-99.35145255798793
 20
39.66956438893713
 30
0.0
  0
SEQEND
  5
143
  8
01FACE
  0
POLYLINE
  5
74
  8
BUTTONS
 66
     1
 10
0.0
 20
0.0
 30
0.0
 70
     1
  0
VERTEX
  5
92
  8
BUTTONS
 10
-95.0193853528654
 20
1.337960000000106
 30
0.0
  0
VERTEX
  5
93
  8
BUTTONS
 10
-94.41328619710646
 20
1.337960000000106
 30
0.0
  0
VERTEX
  5
94
  8
BUTTONS
 10
-90.37737887758226
 20
-3.278174484751613
 30
0.0
  0
VERTEX
  5
95
  8
BUTTONS
 10
-91.26157058716
 20
-3.278174484751613
 30
0.0
  0
VERTEX
  5
96
  8
BUTTONS
 10
-94.45606966692473
 20
0.4379776795385051
 30
0.0
  0
VERTEX
  5
97
  8
BUTTONS
 10
-94.54787586257645
 20
0.5501029603576034
 30
0.0
  0
VERTEX
  5
98
  8
BUTTONS
 10
-94.62363825704632
 20
0.6599931857450918
 30
0.0
  0
VERTEX
  5
99
  8
BUTTONS
 10
-94.68335685033433
 20
0.7676483557009703
 30
0.0
  0
VERTEX
  5
9A
  8
BUTTONS
 10
-94.7270316424405
 20
0.8730684702252389
 30
0.0
  0
VERTEX
  5
9B
  8
BUTTONS
 10
-94.76268453395572
 20
0.8730684702252389
 30
0.0
  0
VERTEX
  5
9C
  8
BUTTONS
 10
-94.80903329292553
 20
0.7849700352959474
 30
0.0
  0
VERTEX
  5
9D
  8
BUTTONS
 10
-94.87677378680448
 20
0.681598721583988
 30
0.0
  0
VERTEX
  5
9E
  8
BUTTONS
 10
-95.07642997928977
 20
0.4290374578120654
 30
0.0
  0
VERTEX
  5
9F
  8
BUTTONS
 10
-98.4563240949337
 20
-3.278174484751613
 30
0.0
  0
VERTEX
  5
A0
  8
BUTTONS
 10
-99.30486291299623
 20
-3.278174484751613
 30
0.0
  0
SEQEND
  5
144
  8
BUTTONS
  0
POLYLINE
  5
75
  8
BUTTONS
 66
     1
 10
0.0
 20
0.0
 30
0.0
 70
     1
  0
VERTEX
  5
A1
  8
BUTTONS
 10
-94.10313046249806
 20
33.97937072093547
 30
0.0
  0
VERTEX
  5
A2
  8
BUTTONS
 10
-94.10313046249806
 20
36.84537060853033
 30
0.0
  0
VERTEX
  5
A3
  8
BUTTONS
 10
-92.77641517772378
 20
36.84537060853033
 30
0.0
  0
VERTEX
  5
A4
  8
BUTTONS
 10
-94.84702886547339
 20
38.99464694166663
 30
0.0
  0
VERTEX
  5
A5
  8
BUTTONS
 10
-96.78659441570449
 20
36.84537060853033
 30
0.0
  0
VERTEX
  5
A6
  8
BUTTONS
 10
-95.45994682646341
 20
36.84537060853033
 30
0.0
  0
VERTEX
  5
A7
  8
BUTTONS
 10
-95.45994682646341
 20
33.97937072093547
 30
0.0
  0
SEQEND
  5
145
  8
BUTTONS
  0
POLYLINE
  5
76
  8
BUTTONS
 66
     1
 10
0.0
 20
0.0
 30
0.0
 70
     1
  0
VERTEX
  5
A8
  8
BUTTONS
 10
-94.10313046249806
 20
26.72483759400835
 30
0.0
  0
VERTEX
  5
A9
  8
BUTTONS
 10
-94.10313046249806
 20
23.85872819658829
 30
0.0
  0
VERTEX
  5
AA
  8
BUTTONS
 10
-92.77641517772378
 20
23.85872819658829
 30
0.0
  0
VERTEX
  5
AB
  8
BUTTONS
 10
-94.84702886547339
 20
21.70947011508952
 30
0.0
  0
VERTEX
  5
AC
  8
BUTTONS
 10
-96.78659441570449
 20
23.85872819658829
 30
0.0
  0
VERTEX
  5
AD
  8
BUTTONS
 10
-95.45994682646341
 20
23.85872819658829
 30
0.0
  0
VERTEX
  5
AE
  8
BUTTONS
 10
-95.45994682646341
 20
26.72483759400835
 30
0.0
  0
SEQEND
  5
146
  8
BUTTONS
  0
POLYLINE
  5
77
  8
BUTTONS
 66
     1
 10
0.0
 20
0.0
 30
0.0
 70
     1
  0
VERTEX
  5
AF
  8
BUTTONS
 10
-98.68114147406885
 20
28.54315698367787
 30
0.0
  0
VERTEX
  5
B0
  8
BUTTONS
 10
-91.28522663337066
 20
28.54315698367787
 30
0.0
  0
VERTEX
  5
B1
  8
BUTTONS
 10
-91.28522663337066
 20
28.9669052523851
 30
0.0
  0
VERTEX
  5
B2
  8
BUTTONS
 10
-98.68114147406885
 20
28.9669052523851
 30
0.0
  0
SEQEND
  5
147
  8
BUTTONS
  0
POLYLINE
  5
78
  8
BUTTONS
 66
     1
 10
0.0
 20
0.0
 30
0.0
 70
     1
  0
VERTEX
  5
B3
  8
BUTTONS
 10
-96.40067158601906
 20
11.655
 30
0.0
  0
VERTEX
  5
B4
  8
BUTTONS
 10
-97.01865536869133
 20
11.655
 30
0.0
  0
VERTEX
  5
B5
  8
BUTTONS
 10
-97.57286146560739
 20
12.65210781149128
 30
0.0
  0
VERTEX
  5
B6
  8
BUTTONS
 10
-97.65237739493921
 20
12.78693592640413
 30
0.0
  0
VERTEX
  5
B7
  8
BUTTONS
 10
-97.72818212272921
 20
12.89843124596514
 30
0.0
  0
VERTEX
  5
B8
  8
BUTTONS
 10
-97.80027564897733
 20
12.9865937701743
 30
0.0
  0
VERTEX
  5
B9
  8
BUTTONS
 10
-97.86865797368361
 20
13.05142349903163
 30
0.0
  0
VERTEX
  5
BA
  8
BUTTONS
 10
-97.93759010602571
 20
13.09794141381536
 30
0.0
  0
VERTEX
  5
BB
  8
BUTTONS
 10
-98.01133305518134
 20
13.13116849580374
 30
0.0
  0
VERTEX
  5
BC
  8
BUTTONS
 10
-98.08988682115046
 20
13.15110474499677
 30
0.0
  0
VERTEX
  5
BD
  8
BUTTONS
 10
-98.17325140393311
 20
13.15775016139445
 30
0.0
  0
VERTEX
  5
BE
  8
BUTTONS
 10
-98.4591513745644
 20
13.15775016139445
 30
0.0
  0
VERTEX
  5
BF
  8
BUTTONS
 10
-98.4591513745644
 20
11.655
 30
0.0
  0
VERTEX
  5
C0
  8
BUTTONS
 10
-98.98696670496065
 20
11.655
 30
0.0
  0
VERTEX
  5
C1
  8
BUTTONS
 10
-98.98696670496065
 20
15.315
 30
0.0
  0
VERTEX
  5
C2
  8
BUTTONS
 10
-97.90274604710503
 20
15.315
 30
0.0
  0
VERTEX
  5
C3
  8
BUTTONS
 10
-97.77400515287783
 20
15.3109942906714
 30
0.0
  0
VERTEX
  5
C4
  8
BUTTONS
 10
-97.65278975066607
 20
15.2989771626856
 30
0.0
  0
VERTEX
  5
C5
  8
BUTTONS
 10
-97.53909984046973
 20
15.27894861604261
 30
0.0
  0
VERTEX
  5
C6
  8
BUTTONS
 10
-97.43293542228879
 20
15.25090865074241
 30
0.0
  0
VERTEX
  5
C7
  8
BUTTONS
 10
-97.33429649612326
 20
15.21485726678502
 30
0.0
  0
VERTEX
  5
C8
  8
BUTTONS
 10
-97.24318306197316
 20
15.17079446417043
 30
0.0
  0
VERTEX
  5
C9
  8
BUTTONS
 10
-97.15959511983846
 20
15.11872024289864
 30
0.0
  0
VERTEX
  5
CA
  8
BUTTONS
 10
-97.0835326697192
 20
15.05863460296966
 30
0.0
  0
VERTEX
  5
CB
  8
BUTTONS
 10
-97.01575169711461
 20
14.99120208602324
 30
0.0
  0
VERTEX
  5
CC
  8
BUTTONS
 10
-96.95700818752397
 20
14.91708723369916
 30
0.0
  0
VERTEX
  5
CD
  8
BUTTONS
 10
-96.90730214094725
 20
14.83629004599742
 30
0.0
  0
VERTEX
  5
CE
  8
BUTTONS
 10
-96.8666335573845
 20
14.74881052291801
 30
0.0
  0
VERTEX
  5
CF
  8
BUTTONS
 10
-96.83500243683568
 20
14.65464866446094
 30
0.0
  0
VERTEX
  5
D0
  8
BUTTONS
 10
-96.81240877930082
 20
14.55380447062621
 30
0.0
  0
VERTEX
  5
D1
  8
BUTTONS
 10
-96.79885258477991
 20
14.44627794141381
 30
0.0
  0
VERTEX
  5
D2
  8
BUTTONS
 10
-96.79433385327293
 20
14.33206907682376
 30
0.0
  0
VERTEX
  5
D3
  8
BUTTONS
 10
-96.80684197698805
 20
14.15441494512589
 30
0.0
  0
VERTEX
  5
D4
  8
BUTTONS
 10
-96.8443663481334
 20
13.99005164622337
 30
0.0
  0
VERTEX
  5
D5
  8
BUTTONS
 10
-96.90690696670902
 20
13.8389791801162
 30
0.0
  0
VERTEX
  5
D6
  8
BUTTONS
 10
-96.99446383271484
 20
13.70119754680439
 30
0.0
  0
VERTEX
  5
D7
  8
BUTTONS
 10
-97.10442535988074
 20
13.57995561652679
 30
0.0
  0
VERTEX
  5
D8
  8
BUTTONS
 10
-97.23417996193646
 20
13.47850225952227
 30
0.0
  0
VERTEX
  5
D9
  8
BUTTONS
 10
-97.38372763888208
 20
13.39683747579083
 30
0.0
  0
VERTEX
  5
DA
  8
BUTTONS
 10
-97.55306839071753
 20
13.33496126533247
 30
0.0
  0
VERTEX
  5
DB
  8
BUTTONS
 10
-97.55306839071753
 20
13.32551000645578
 30
0.0
  0
VERTEX
  5
DC
  8
BUTTONS
 10
-97.49502932216029
 20
13.29789460942544
 30
0.0
  0
VERTEX
  5
DD
  8
BUTTONS
 10
-97.43527210474107
 20
13.25757908327953
 30
0.0
  0
VERTEX
  5
DE
  8
BUTTONS
 10
-97.3737967384599
 20
13.20456342801808
 30
0.0
  0
VERTEX
  5
DF
  8
BUTTONS
 10
-97.31060322331675
 20
13.13884764364106
 30
0.0
  0
VERTEX
  5
E0
  8
BUTTONS
 10
-97.17906174644455
 20
12.96931568754035
 30
0.0
  0
VERTEX
  5
E1
  8
BUTTONS
 10
-97.0406476741245
 20
12.7489832149774
 30
0.0
  0
SEQEND
  5
148
  8
BUTTONS
  0
POLYLINE
  5
79
  8
BUTTONS
 66
     1
 10
0.0
 20
0.0
 30
0.0
 70
     1
  0
VERTEX
  5
E2
  8
BUTTONS
 10
-98.4591513745644
 20
14.84716268560361
 30
0.0
  0
VERTEX
  5
E3
  8
BUTTONS
 10
-98.4591513745644
 20
13.62795029051001
 30
0.0
  0
VERTEX
  5
E4
  8
BUTTONS
 10
-97.99071526883775
 20
13.62795029051001
 30
0.0
  0
VERTEX
  5
E5
  8
BUTTONS
 10
-97.85182011483633
 20
13.63932133634603
 30
0.0
  0
VERTEX
  5
E6
  8
BUTTONS
 10
-97.72763231509337
 20
13.6734344738541
 30
0.0
  0
VERTEX
  5
E7
  8
BUTTONS
 10
-97.61815186960884
 20
13.73028970303421
 30
0.0
  0
VERTEX
  5
E8
  8
BUTTONS
 10
-97.52337877838274
 20
13.80988702388638
 30
0.0
  0
VERTEX
  5
E9
  8
BUTTONS
 10
-97.44688679104796
 20
13.9070577792124
 30
0.0
  0
VERTEX
  5
EA
  8
BUTTONS
 10
-97.39224965723741
 20
14.01663331181407
 30
0.0
  0
VERTEX
  5
EB
  8
BUTTONS
 10
-97.35946737695109
 20
14.13861362169141
 30
0.0
  0
VERTEX
  5
EC
  8
BUTTONS
 10
-97.34853995018898
 20
14.27299870884442
 30
0.0
  0
VERTEX
  5
ED
  8
BUTTONS
 10
-97.35843648763391
 20
14.40756839089735
 30
0.0
  0
VERTEX
  5
EE
  8
BUTTONS
 10
-97.38812609996869
 20
14.52419544867656
 30
0.0
  0
VERTEX
  5
EF
  8
BUTTONS
 10
-97.43760878719334
 20
14.62287988218205
 30
0.0
  0
VERTEX
  5
F0
  8
BUTTONS
 10
-97.50688454930784
 20
14.70362169141381
 30
0.0
  0
VERTEX
  5
F1
  8
BUTTONS
 10
-97.5959533863122
 20
14.76642087637185
 30
0.0
  0
VERTEX
  5
F2
  8
BUTTONS
 10
-97.70481529820643
 20
14.81127743705616
 30
0.0
  0
VERTEX
  5
F3
  8
BUTTONS
 10
-97.83347028499053
 20
14.83819137346675
 30
0.0
  0
VERTEX
  5
F4
  8
BUTTONS
 10
-97.98191834666447
 20
14.84716268560361
 30
0.0
  0
SEQEND
  5
149
  8
BUTTONS
  0
POLYLINE
  5
7A
  8
BUTTONS
 66
     1
 10
0.0
 20
0.0
 30
0.0
 70
     1
  0
VERTEX
  5
F5
  8
BUTTONS
 10
-93.83856800305396
 20
14.82826016785022
 30
0.0
  0
VERTEX
  5
F6
  8
BUTTONS
 10
-94.81722559483033
 20
14.82826016785022
 30
0.0
  0
VERTEX
  5
F7
  8
BUTTONS
 10
-94.81722559483033
 20
11.655
 30
0.0
  0
VERTEX
  5
F8
  8
BUTTONS
 10
-95.3472401557699
 20
11.655
 30
0.0
  0
VERTEX
  5
F9
  8
BUTTONS
 10
-95.3472401557699
 20
14.82826016785022
 30
0.0
  0
VERTEX
  5
FA
  8
BUTTONS
 10
-96.32369851700294
 20
14.82826016785022
 30
0.0
  0
VERTEX
  5
FB
  8
BUTTONS
 10
-96.32369851700294
 20
15.315
 30
0.0
  0
VERTEX
  5
FC
  8
BUTTONS
 10
-93.83856800305396
 20
15.315
 30
0.0
  0
SEQEND
  5
14A
  8
BUTTONS
  0
POLYLINE
  5
7B
  8
BUTTONS
 66
     1
 10
0.0
 20
0.0
 30
0.0
 70
     1
  0
VERTEX
  5
FD
  8
BUTTONS
 10
-90.47374527177794
 20
11.655
 30
0.0
  0
VERTEX
  5
FE
  8
BUTTONS
 10
-91.06313905738708
 20
11.655
 30
0.0
  0
VERTEX
  5
FF
  8
BUTTONS
 10
-92.69276888998547
 20
14.35333440929632
 30
0.0
  0
VERTEX
  5
100
  8
BUTTONS
 10
-92.77084157427325
 20
14.49214977404777
 30
0.0
  0
VERTEX
  5
101
  8
BUTTONS
 10
-92.82472272258454
 20
14.61088121368625
 30
0.0
  0
VERTEX
  5
102
  8
BUTTONS
 10
-92.83791810584444
 20
14.61088121368625
 30
0.0
  0
VERTEX
  5
103
  8
BUTTONS
 10
-92.82307329967705
 20
14.40649774047773
 30
0.0
  0
VERTEX
  5
104
  8
BUTTONS
 10
-92.81812503095458
 20
14.076885087153
 30
0.0
  0
VERTEX
  5
105
  8
BUTTONS
 10
-92.81812503095458
 20
11.655
 30
0.0
  0
VERTEX
  5
106
  8
BUTTONS
 10
-93.3305457475476
 20
11.655
 30
0.0
  0
VERTEX
  5
107
  8
BUTTONS
 10
-93.3305457475476
 20
15.315
 30
0.0
  0
VERTEX
  5
108
  8
BUTTONS
 10
-92.70596427324539
 20
15.315
 30
0.0
  0
VERTEX
  5
109
  8
BUTTONS
 10
-91.12471751259997
 20
12.6686475145255
 30
0.0
  0
VERTEX
  5
10A
  8
BUTTONS
 10
-90.97516983565437
 20
12.40637508069722
 30
0.0
  0
VERTEX
  5
10B
  8
BUTTONS
 10
-90.96417368293778
 20
12.40637508069722
 30
0.0
  0
VERTEX
  5
10C
  8
BUTTONS
 10
-90.98231733492015
 20
12.62257262750161
 30
0.0
  0
VERTEX
  5
10D
  8
BUTTONS
 10
-90.98836521891428
 20
12.93091994835378
 30
0.0
  0
VERTEX
  5
10E
  8
BUTTONS
 10
-90.98836521891428
 20
15.315
 30
0.0
  0
VERTEX
  5
10F
  8
BUTTONS
 10
-90.47374527177794
 20
15.315
 30
0.0
  0
SEQEND
  5
14B
  8
BUTTONS
  0
POLYLINE
  5
7C
  8
BUTTONS
 66
     1
 10
0.0
 20
0.0
 30
0.0
 70
     1
  0
VERTEX
  5
110
  8
BUTTONS
 10
-95.8245871285102
 20
29.99983386570907
 30
0.0
  0
VERTEX
  5
111
  8
BUTTONS
 10
-96.23740055652827
 20
29.99983386570907
 30
0.0
  0
VERTEX
  5
112
  8
BUTTONS
 10
-97.37879887802602
 20
31.75891198062192
 30
0.0
  0
VERTEX
  5
113
  8
BUTTONS
 10
-97.43348125375229
 20
31.84940746157737
 30
0.0
  0
VERTEX
  5
114
  8
BUTTONS
 10
-97.47121979474649
 20
31.92680997933076
 30
0.0
  0
VERTEX
  5
115
  8
BUTTONS
 10
-97.48046188641852
 20
31.92680997933076
 30
0.0
  0
VERTEX
  5
116
  8
BUTTONS
 10
-97.47006453328748
 20
31.79356982439209
 30
0.0
  0
VERTEX
  5
117
  8
BUTTONS
 10
-97.46659874891046
 20
31.57869119301701
 30
0.0
  0
VERTEX
  5
118
  8
BUTTONS
 10
-97.46659874891046
 20
29.99983386570907
 30
0.0
  0
VERTEX
  5
119
  8
BUTTONS
 10
-97.82549997550827
 20
29.99983386570907
 30
0.0
  0
VERTEX
  5
11A
  8
BUTTONS
 10
-97.82549997550827
 20
32.38583386570907
 30
0.0
  0
VERTEX
  5
11B
  8
BUTTONS
 10
-97.38804096969807
 20
32.38583386570907
 30
0.0
  0
VERTEX
  5
11C
  8
BUTTONS
 10
-96.2805303176645
 20
30.6606434202604
 30
0.0
  0
VERTEX
  5
11D
  8
BUTTONS
 10
-96.17578661204797
 20
30.48966472432754
 30
0.0
  0
VERTEX
  5
11E
  8
BUTTONS
 10
-96.16808486898793
 20
30.48966472432754
 30
0.0
  0
VERTEX
  5
11F
  8
BUTTONS
 10
-96.180792745037
 20
30.63060662232624
 30
0.0
  0
VERTEX
  5
120
  8
BUTTONS
 10
-96.18502870372002
 20
30.83162211619326
 30
0.0
  0
VERTEX
  5
121
  8
BUTTONS
 10
-96.18502870372002
 20
32.38583386570907
 30
0.0
  0
VERTEX
  5
122
  8
BUTTONS
 10
-95.8245871285102
 20
32.38583386570907
 30
0.0
  0
SEQEND
  5
14C
  8
BUTTONS
  0
POLYLINE
  5
7D
  8
BUTTONS
 66
     1
 10
0.0
 20
0.0
 30
0.0
 70
     1
  0
VERTEX
  5
123
  8
BUTTONS
 10
-93.4740151465864
 20
29.99983386570907
 30
0.0
  0
VERTEX
  5
124
  8
BUTTONS
 10
-93.91917589545663
 20
29.99983386570907
 30
0.0
  0
VERTEX
  5
125
  8
BUTTONS
 10
-94.41978919435915
 20
30.86550978565743
 30
0.0
  0
VERTEX
  5
126
  8
BUTTONS
 10
-94.44520494645727
 20
30.9194219870777
 30
0.0
  0
VERTEX
  5
127
  8
BUTTONS
 10
-94.47216104716742
 20
30.99797976629009
 30
0.0
  0
VERTEX
  5
128
  8
BUTTONS
 10
-94.47986279022746
 20
30.99797976629009
 30
0.0
  0
VERTEX
  5
129
  8
BUTTONS
 10
-94.53531534025973
 20
30.86242908843341
 30
0.0
  0
VERTEX
  5
12A
  8
BUTTONS
 10
-95.0467110794463
 20
29.99983386570907
 30
0.0
  0
VERTEX
  5
12B
  8
BUTTONS
 10
-95.49495252554055
 20
29.99983386570907
 30
0.0
  0
VERTEX
  5
12C
  8
BUTTONS
 10
-94.70937473341661
 20
31.19668473723909
 30
0.0
  0
VERTEX
  5
12D
  8
BUTTONS
 10
-95.43025788383623
 20
32.38583386570907
 30
0.0
  0
VERTEX
  5
12E
  8
BUTTONS
 10
-94.97739539190596
 20
32.38583386570907
 30
0.0
  0
VERTEX
  5
12F
  8
BUTTONS
 10
-94.54301708331977
 20
31.58947363330106
 30
0.0
  0
VERTEX
  5
130
  8
BUTTONS
 10
-94.49911714787754
 20
31.50090358811062
 30
0.0
  0
VERTEX
  5
131
  8
BUTTONS
 10
-94.46291895549537
 20
31.41079319430817
 30
0.0
  0
VERTEX
  5
132
  8
BUTTONS
 10
-94.45675756104734
 20
31.41079319430817
 30
0.0
  0
VERTEX
  5
133
  8
BUTTONS
 10
-94.3689576901629
 20
31.5971753763611
 30
0.0
  0
VERTEX
  5
134
  8
BUTTONS
 10
-93.90685310656058
 20
32.38583386570907
 30
0.0
  0
VERTEX
  5
135
  8
BUTTONS
 10
-93.48787828409446
 20
32.38583386570907
 30
0.0
  0
VERTEX
  5
136
  8
BUTTONS
 10
-94.22570526924618
 20
31.20284613168712
 30
0.0
  0
SEQEND
  5
14D
  8
BUTTONS
  0
POLYLINE
  5
7E
  8
BUTTONS
 66
     1
 10
0.0
 20
0.0
 30
0.0
 70
     1
  0
VERTEX
  5
137
  8
BUTTONS
 10
-91.63483890384914
 20
32.06852205163548
 30
0.0
  0
VERTEX
  5
138
  8
BUTTONS
 10
-92.32029403619259
 20
32.06852205163548
 30
0.0
  0
VERTEX
  5
139
  8
BUTTONS
 10
-92.32029403619259
 20
29.99983386570907
 30
0.0
  0
VERTEX
  5
13A
  8
BUTTONS
 10
-92.69151805168646
 20
29.99983386570907
 30
0.0
  0
VERTEX
  5
13B
  8
BUTTONS
 10
-92.69151805168646
 20
32.06852205163548
 30
0.0
  0
VERTEX
  5
13C
  8
BUTTONS
 10
-93.3754328354179
 20
32.06852205163548
 30
0.0
  0
VERTEX
  5
13D
  8
BUTTONS
 10
-93.3754328354179
 20
32.38583386570907
 30
0.0
  0
VERTEX
  5
13E
  8
BUTTONS
 10
-91.63483890384914
 20
32.38583386570907
 30
0.0
  0
SEQEND
  5
14E
  8
BUTTONS
  0
ENDSEC
  0
EOF
