  0
SECTION
  2
HEADER
  9
$ACADVER
  1
AC1009
  9
$DWGCODEPAGE
  3
ansi_1252
  9
$INSBASE
 10
0.0
 20
0.0
 30
0.0
  9
$EXTMIN
 10
-83.03110675758548
 20
-11.23463807575474
 30
0.0
  9
$EXTMAX
 10
83.03110675758545
 20
11.23463807575474
 30
0.0
  9
$LIMMIN
 10
0.0
 20
0.0
  9
$LIMMAX
 10
12.0
 20
9.0
  9
$ORTHOMODE
 70
     0
  9
$REGENMODE
 70
     1
  9
$FILLMODE
 70
     1
  9
$QTEXTMODE
 70
     0
  9
$MIRRTEXT
 70
     1
  9
$DRAGMODE
 70
     2
  9
$LTSCALE
 40
1.0
  9
$OSMODE
 70
    37
  9
$ATTMODE
 70
     1
  9
$TEXTSIZE
 40
0.2
  9
$TRACEWID
 40
0.05
  9
$TEXTSTYLE
  7
STANDARD
  9
$CLAYER
  8
0
  9
$CELTYPE
  6
BYLAYER
  9
$CECOLOR
 62
   256
  9
$DIMSCALE
 40
1.0
  9
$DIMASZ
 40
0.18
  9
$DIMEXO
 40
0.0625
  9
$DIMDLI
 40
0.38
  9
$DIMRND
 40
0.0
  9
$DIMDLE
 40
0.0
  9
$DIMEXE
 40
0.18
  9
$DIMTP
 40
0.0
  9
$DIMTM
 40
0.0
  9
$DIMTXT
 40
0.18
  9
$DIMCEN
 40
0.09
  9
$DIMTSZ
 40
0.0
  9
$DIMTOL
 70
     0
  9
$DIMLIM
 70
     0
  9
$DIMTIH
 70
     1
  9
$DIMTOH
 70
     1
  9
$DIMSE1
 70
     0
  9
$DIMSE2
 70
     0
  9
$DIMTAD
 70
     0
  9
$DIMZIN
 70
     0
  9
$DIMBLK
  1

  9
$DIMASO
 70
     1
  9
$DIMSHO
 70
     1
  9
$DIMPOST
  1

  9
$DIMAPOST
  1

  9
$DIMALT
 70
     0
  9
$DIMALTD
 70
     2
  9
$DIMALTF
 40
25.4
  9
$DIMLFAC
 40
1.0
  9
$DIMTOFL
 70
     0
  9
$DIMTVP
 40
0.0
  9
$DIMTIX
 70
     0
  9
$DIMSOXD
 70
     0
  9
$DIMSAH
 70
     0
  9
$DIMBLK1
  1

  9
$DIMBLK2
  1

  9
$DIMSTYLE
  2
STANDARD
  9
$DIMCLRD
 70
     0
  9
$DIMCLRE
 70
     0
  9
$DIMCLRT
 70
     0
  9
$DIMTFAC
 40
1.0
  9
$DIMGAP
 40
0.09
  9
$LUNITS
 70
     2
  9
$LUPREC
 70
     4
  9
$SKETCHINC
 40
0.1
  9
$FILLETRAD
 40
0.5
  9
$AUNITS
 70
     0
  9
$AUPREC
 70
     0
  9
$MENU
  1
.
  9
$ELEVATION
 40
0.0
  9
$PELEVATION
 40
0.0
  9
$THICKNESS
 40
0.0
  9
$LIMCHECK
 70
     0
  9
$CHAMFERA
 40
0.0
  9
$CHAMFERB
 40
0.0
  9
$SKPOLY
 70
     0
  9
$TDCREATE
 40
2454910.5
  9
$TDUPDATE
 40
2457734.672365625
  9
$TDINDWG
 40
0.0000000116
  9
$TDUSRTIMER
 40
0.0000000116
  9
$USRTIMER
 70
     1
  9
$ANGBASE
 50
0.0
  9
$ANGDIR
 70
     0
  9
$PDMODE
 70
     0
  9
$PDSIZE
 40
0.0
  9
$PLINEWID
 40
0.0
  9
$COORDS
 70
     1
  9
$SPLFRAME
 70
     0
  9
$SPLINETYPE
 70
     6
  9
$SPLINESEGS
 70
     8
  9
$ATTDIA
 70
     0
  9
$ATTREQ
 70
     1
  9
$HANDLING
 70
     1
  9
$HANDSEED
  5
19B
  9
$SURFTAB1
 70
     6
  9
$SURFTAB2
 70
     6
  9
$SURFTYPE
 70
     6
  9
$SURFU
 70
     6
  9
$SURFV
 70
     6
  9
$UCSNAME
  2

  9
$UCSORG
 10
0.0
 20
0.0
 30
0.0
  9
$UCSXDIR
 10
1.0
 20
0.0
 30
0.0
  9
$UCSYDIR
 10
0.0
 20
1.0
 30
0.0
  9
$PUCSNAME
  2

  9
$PUCSORG
 10
0.0
 20
0.0
 30
0.0
  9
$PUCSXDIR
 10
1.0
 20
0.0
 30
0.0
  9
$PUCSYDIR
 10
0.0
 20
1.0
 30
0.0
  9
$USERI1
 70
     0
  9
$USERI2
 70
     0
  9
$USERI3
 70
     0
  9
$USERI4
 70
     0
  9
$USERI5
 70
     0
  9
$USERR1
 40
0.0
  9
$USERR2
 40
0.0
  9
$USERR3
 40
0.0
  9
$USERR4
 40
0.0
  9
$USERR5
 40
0.0
  9
$WORLDVIEW
 70
     1
  9
$SHADEDGE
 70
     3
  9
$SHADEDIF
 70
    70
  9
$TILEMODE
 70
     1
  9
$MAXACTVP
 70
    64
  9
$PLIMCHECK
 70
     0
  9
$PEXTMIN
 10
1.000000000000000E+20
 20
1.000000000000000E+20
 30
1.000000000000000E+20
  9
$PEXTMAX
 10
-1.000000000000000E+20
 20
-1.000000000000000E+20
 30
-1.000000000000000E+20
  9
$PLIMMIN
 10
0.0
 20
0.0
  9
$PLIMMAX
 10
12.0
 20
9.0
  9
$UNITMODE
 70
     0
  9
$VISRETAIN
 70
     1
  9
$PLINEGEN
 70
     0
  9
$PSLTSCALE
 70
     1
  0
ENDSEC
  0
SECTION
  2
TABLES
  0
TABLE
  2
VPORT
 70
     1
  0
VPORT
  2
*ACTIVE
 70
     0
 10
0.0
 20
0.0
 11
1.0
 21
1.0
 12
10.42990654205607
 22
4.5
 13
0.0
 23
0.0
 14
0.5
 24
0.5
 15
0.5
 25
0.5
 16
0.0
 26
0.0
 36
1.0
 17
0.0
 27
0.0
 37
0.0
 40
9.0
 41
1.972972972850329
 42
50.0
 43
0.0
 44
0.0
 50
0.0
 51
0.0
 71
     0
 72
   100
 73
     1
 74
     3
 75
     0
 76
     0
 77
     0
 78
     0
  0
ENDTAB
  0
TABLE
  2
LTYPE
 70
     2
  0
LTYPE
  2
CONTINUOUS
 70
     0
  3
Solid line
 72
    65
 73
     0
 40
0.0
  0
LTYPE
  2
CONTINUOUS2
 70
     0
  3
Solid Line
 72
    65
 73
     0
 40
0.0
  0
ENDTAB
  0
TABLE
  2
LAYER
 70
     3
  0
LAYER
  2
0
 70
     0
 62
     7
  6
CONTINUOUS
  0
LAYER
  2
LAYER_1
 70
     0
 62
    18
  6
CONTINUOUS
  0
LAYER
  2
3BACKPLATE
 70
     0
 62
    18
  6
CONTINUOUS
  0
ENDTAB
  0
TABLE
  2
STYLE
 70
     1
  0
STYLE
  2
STANDARD
 70
     0
 40
0.0
 41
1.0
 50
0.0
 71
     0
 42
0.2
  3
txt
  4

  0
ENDTAB
  0
TABLE
  2
VIEW
 70
     0
  0
ENDTAB
  0
TABLE
  2
UCS
 70
     0
  0
ENDTAB
  0
TABLE
  2
APPID
 70
     1
  0
APPID
  2
ACAD
 70
     0
  0
ENDTAB
  0
TABLE
  2
DIMSTYLE
 70
     1
  0
DIMSTYLE
  2
STANDARD
 70
     0
  3

  4

  5

  6

  7

 40
1.0
 41
0.18
 42
0.0625
 43
0.38
 44
0.18
 45
0.0
 46
0.0
 47
0.0
 48
0.0
140
0.18
141
0.09
142
0.0
143
25.4
144
1.0
145
0.0
146
1.0
147
0.09
 71
     0
 72
     0
 73
     1
 74
     1
 75
     0
 76
     0
 77
     0
 78
     0
170
     0
171
     2
172
     0
173
     0
174
     0
175
     0
176
     0
177
     0
178
     0
  0
ENDTAB
  0
ENDSEC
  0
SECTION
  2
BLOCKS
  0
BLOCK
  8
0
  2
$MODEL_SPACE
 70
     0
 10
0.0
 20
0.0
 30
0.0
  3
$MODEL_SPACE
  1

  0
ENDBLK
  5
21
  8
0
  0
BLOCK
 67
     1
  8
0
  2
$PAPER_SPACE
 70
     0
 10
0.0
 20
0.0
 30
0.0
  3
$PAPER_SPACE
  1

  0
ENDBLK
  5
1D
 67
     1
  8
0
  0
ENDSEC
  0
SECTION
  2
ENTITIES
  0
POLYLINE
  5
70
  8
LAYER_1
 66
     1
 10
0.0
 20
0.0
 30
0.0
 70
     1
  0
VERTEX
  5
9A
  8
LAYER_1
 10
0.0
 20
-8.28364569591871
 30
0.0
 42
0.4142135623730951
  0
VERTEX
  5
9B
  8
LAYER_1
 10
-0.4999999999980105
 20
-8.783645695916709
 30
0.0
 42
0.4142135623730951
  0
VERTEX
  5
9C
  8
LAYER_1
 10
0.0
 20
-9.283645695914707
 30
0.0
 42
0.4142135623730951
  0
VERTEX
  5
9D
  8
LAYER_1
 10
0.4999999999980105
 20
-8.783645695916709
 30
0.0
 42
0.4142135623730951
  0
SEQEND
  5
179
  8
LAYER_1
  0
POLYLINE
  5
71
  8
LAYER_1
 66
     1
 10
0.0
 20
0.0
 30
0.0
 70
     1
  0
VERTEX
  5
9E
  8
LAYER_1
 10
-10.07235885917891
 20
-8.28364569591871
 30
0.0
 42
0.4142135623730951
  0
VERTEX
  5
9F
  8
LAYER_1
 10
-10.57235885917692
 20
-8.783645695916709
 30
0.0
 42
0.4142135623730951
  0
VERTEX
  5
A0
  8
LAYER_1
 10
-10.07235885917891
 20
-9.283645695914707
 30
0.0
 42
0.4142135623730951
  0
VERTEX
  5
A1
  8
LAYER_1
 10
-9.572358859180897
 20
-8.783645695916709
 30
0.0
 42
0.4142135623730951
  0
SEQEND
  5
17A
  8
LAYER_1
  0
POLYLINE
  5
72
  8
LAYER_1
 66
     1
 10
0.0
 20
0.0
 30
0.0
 70
     1
  0
VERTEX
  5
A2
  8
LAYER_1
 10
-20.14471771835781
 20
-8.28364569591871
 30
0.0
 42
0.4142135623730951
  0
VERTEX
  5
A3
  8
LAYER_1
 10
-20.64471771835582
 20
-8.783645695916709
 30
0.0
 42
0.4142135623730951
  0
VERTEX
  5
A4
  8
LAYER_1
 10
-20.14471771835781
 20
-9.283645695914707
 30
0.0
 42
0.4142135623730951
  0
VERTEX
  5
A5
  8
LAYER_1
 10
-19.6447177183598
 20
-8.783645695916709
 30
0.0
 42
0.4142135623730951
  0
SEQEND
  5
17B
  8
LAYER_1
  0
POLYLINE
  5
73
  8
LAYER_1
 66
     1
 10
0.0
 20
0.0
 30
0.0
 70
     1
  0
VERTEX
  5
A6
  8
LAYER_1
 10
-30.21707657753672
 20
-8.28364569591871
 30
0.0
 42
0.4142135623730951
  0
VERTEX
  5
A7
  8
LAYER_1
 10
-30.71707657753473
 20
-8.783645695916709
 30
0.0
 42
0.4142135623730951
  0
VERTEX
  5
A8
  8
LAYER_1
 10
-30.21707657753672
 20
-9.283645695914707
 30
0.0
 42
0.4142135623730951
  0
VERTEX
  5
A9
  8
LAYER_1
 10
-29.71707657753871
 20
-8.783645695916709
 30
0.0
 42
0.4142135623730951
  0
SEQEND
  5
17C
  8
LAYER_1
  0
POLYLINE
  5
74
  8
LAYER_1
 66
     1
 10
0.0
 20
0.0
 30
0.0
 70
     1
  0
VERTEX
  5
AA
  8
LAYER_1
 10
-40.28943543671563
 20
-8.28364569591871
 30
0.0
 42
0.4142135623730951
  0
VERTEX
  5
AB
  8
LAYER_1
 10
-40.78943543671364
 20
-8.783645695916709
 30
0.0
 42
0.4142135623730951
  0
VERTEX
  5
AC
  8
LAYER_1
 10
-40.28943543671563
 20
-9.283645695914707
 30
0.0
 42
0.4142135623730951
  0
VERTEX
  5
AD
  8
LAYER_1
 10
-39.78943543671762
 20
-8.783645695916709
 30
0.0
 42
0.4142135623730951
  0
SEQEND
  5
17D
  8
LAYER_1
  0
POLYLINE
  5
75
  8
LAYER_1
 66
     1
 10
0.0
 20
0.0
 30
0.0
 70
     1
  0
VERTEX
  5
AE
  8
LAYER_1
 10
-50.36179429589453
 20
-8.28364569591871
 30
0.0
 42
0.4142135623730951
  0
VERTEX
  5
AF
  8
LAYER_1
 10
-50.86179429589254
 20
-8.783645695916709
 30
0.0
 42
0.4142135623730951
  0
VERTEX
  5
B0
  8
LAYER_1
 10
-50.36179429589453
 20
-9.283645695914707
 30
0.0
 42
0.4142135623730951
  0
VERTEX
  5
B1
  8
LAYER_1
 10
-49.86179429589652
 20
-8.783645695916709
 30
0.0
 42
0.4142135623730951
  0
SEQEND
  5
17E
  8
LAYER_1
  0
POLYLINE
  5
76
  8
LAYER_1
 66
     1
 10
0.0
 20
0.0
 30
0.0
 70
     1
  0
VERTEX
  5
B2
  8
LAYER_1
 10
-60.43415315507344
 20
-8.28364569591871
 30
0.0
 42
0.4142135623730951
  0
VERTEX
  5
B3
  8
LAYER_1
 10
-60.93415315507145
 20
-8.783645695916709
 30
0.0
 42
0.4142135623730951
  0
VERTEX
  5
B4
  8
LAYER_1
 10
-60.43415315507344
 20
-9.283645695914707
 30
0.0
 42
0.4142135623730951
  0
VERTEX
  5
B5
  8
LAYER_1
 10
-59.93415315507543
 20
-8.783645695916709
 30
0.0
 42
0.4142135623730951
  0
SEQEND
  5
17F
  8
LAYER_1
  0
POLYLINE
  5
77
  8
LAYER_1
 66
     1
 10
0.0
 20
0.0
 30
0.0
 70
     1
  0
VERTEX
  5
B6
  8
LAYER_1
 10
-70.50651201425235
 20
-8.28364569591871
 30
0.0
 42
0.4142135623730951
  0
VERTEX
  5
B7
  8
LAYER_1
 10
-71.00651201425036
 20
-8.783645695916709
 30
0.0
 42
0.4142135623730951
  0
VERTEX
  5
B8
  8
LAYER_1
 10
-70.50651201425235
 20
-9.283645695914707
 30
0.0
 42
0.4142135623730951
  0
VERTEX
  5
B9
  8
LAYER_1
 10
-70.00651201425434
 20
-8.783645695916709
 30
0.0
 42
0.4142135623730951
  0
SEQEND
  5
180
  8
LAYER_1
  0
POLYLINE
  5
78
  8
LAYER_1
 66
     1
 10
0.0
 20
0.0
 30
0.0
 70
     1
  0
VERTEX
  5
BA
  8
LAYER_1
 10
-80.57887087343126
 20
-8.28364569591871
 30
0.0
 42
0.4142135623730951
  0
VERTEX
  5
BB
  8
LAYER_1
 10
-81.07887087342927
 20
-8.783645695916709
 30
0.0
 42
0.4142135623730951
  0
VERTEX
  5
BC
  8
LAYER_1
 10
-80.57887087343126
 20
-9.283645695914707
 30
0.0
 42
0.4142135623730951
  0
VERTEX
  5
BD
  8
LAYER_1
 10
-80.07887087343325
 20
-8.783645695916709
 30
0.0
 42
0.4142135623730951
  0
SEQEND
  5
181
  8
LAYER_1
  0
POLYLINE
  5
79
  8
LAYER_1
 66
     1
 10
0.0
 20
0.0
 30
0.0
 70
     1
  0
VERTEX
  5
BE
  8
LAYER_1
 10
10.07235885917891
 20
-8.28364569591871
 30
0.0
 42
0.4142135623730951
  0
VERTEX
  5
BF
  8
LAYER_1
 10
9.572358859180897
 20
-8.783645695916709
 30
0.0
 42
0.4142135623730951
  0
VERTEX
  5
C0
  8
LAYER_1
 10
10.07235885917891
 20
-9.283645695914707
 30
0.0
 42
0.4142135623730951
  0
VERTEX
  5
C1
  8
LAYER_1
 10
10.57235885917692
 20
-8.783645695916709
 30
0.0
 42
0.4142135623730951
  0
SEQEND
  5
182
  8
LAYER_1
  0
POLYLINE
  5
7A
  8
LAYER_1
 66
     1
 10
0.0
 20
0.0
 30
0.0
 70
     1
  0
VERTEX
  5
C2
  8
LAYER_1
 10
20.14471771835781
 20
-8.28364569591871
 30
0.0
 42
0.4142135623730951
  0
VERTEX
  5
C3
  8
LAYER_1
 10
19.6447177183598
 20
-8.783645695916709
 30
0.0
 42
0.4142135623730951
  0
VERTEX
  5
C4
  8
LAYER_1
 10
20.14471771835781
 20
-9.283645695914707
 30
0.0
 42
0.4142135623730951
  0
VERTEX
  5
C5
  8
LAYER_1
 10
20.64471771835582
 20
-8.783645695916709
 30
0.0
 42
0.4142135623730951
  0
SEQEND
  5
183
  8
LAYER_1
  0
POLYLINE
  5
7B
  8
LAYER_1
 66
     1
 10
0.0
 20
0.0
 30
0.0
 70
     1
  0
VERTEX
  5
C6
  8
LAYER_1
 10
30.21707657753672
 20
-8.28364569591871
 30
0.0
 42
0.4142135623730951
  0
VERTEX
  5
C7
  8
LAYER_1
 10
29.71707657753871
 20
-8.783645695916709
 30
0.0
 42
0.4142135623730951
  0
VERTEX
  5
C8
  8
LAYER_1
 10
30.21707657753672
 20
-9.283645695914707
 30
0.0
 42
0.4142135623730951
  0
VERTEX
  5
C9
  8
LAYER_1
 10
30.71707657753473
 20
-8.783645695916709
 30
0.0
 42
0.4142135623730951
  0
SEQEND
  5
184
  8
LAYER_1
  0
POLYLINE
  5
7C
  8
LAYER_1
 66
     1
 10
0.0
 20
0.0
 30
0.0
 70
     1
  0
VERTEX
  5
CA
  8
LAYER_1
 10
40.28943543671563
 20
-8.28364569591871
 30
0.0
 42
0.4142135623730951
  0
VERTEX
  5
CB
  8
LAYER_1
 10
39.78943543671762
 20
-8.783645695916709
 30
0.0
 42
0.4142135623730951
  0
VERTEX
  5
CC
  8
LAYER_1
 10
40.28943543671563
 20
-9.283645695914707
 30
0.0
 42
0.4142135623730951
  0
VERTEX
  5
CD
  8
LAYER_1
 10
40.78943543671364
 20
-8.783645695916709
 30
0.0
 42
0.4142135623730951
  0
SEQEND
  5
185
  8
LAYER_1
  0
POLYLINE
  5
7D
  8
LAYER_1
 66
     1
 10
0.0
 20
0.0
 30
0.0
 70
     1
  0
VERTEX
  5
CE
  8
LAYER_1
 10
50.36179429589453
 20
-8.28364569591871
 30
0.0
 42
0.4142135623730951
  0
VERTEX
  5
CF
  8
LAYER_1
 10
49.86179429589652
 20
-8.783645695916709
 30
0.0
 42
0.4142135623730951
  0
VERTEX
  5
D0
  8
LAYER_1
 10
50.36179429589453
 20
-9.283645695914707
 30
0.0
 42
0.4142135623730951
  0
VERTEX
  5
D1
  8
LAYER_1
 10
50.86179429589254
 20
-8.783645695916709
 30
0.0
 42
0.4142135623730951
  0
SEQEND
  5
186
  8
LAYER_1
  0
POLYLINE
  5
7E
  8
LAYER_1
 66
     1
 10
0.0
 20
0.0
 30
0.0
 70
     1
  0
VERTEX
  5
D2
  8
LAYER_1
 10
60.43415315507344
 20
-8.28364569591871
 30
0.0
 42
0.4142135623730951
  0
VERTEX
  5
D3
  8
LAYER_1
 10
59.93415315507543
 20
-8.783645695916709
 30
0.0
 42
0.4142135623730951
  0
VERTEX
  5
D4
  8
LAYER_1
 10
60.43415315507344
 20
-9.283645695914707
 30
0.0
 42
0.4142135623730951
  0
VERTEX
  5
D5
  8
LAYER_1
 10
60.93415315507145
 20
-8.783645695916709
 30
0.0
 42
0.4142135623730951
  0
SEQEND
  5
187
  8
LAYER_1
  0
POLYLINE
  5
7F
  8
LAYER_1
 66
     1
 10
0.0
 20
0.0
 30
0.0
 70
     1
  0
VERTEX
  5
D6
  8
LAYER_1
 10
70.50651201425235
 20
-8.28364569591871
 30
0.0
 42
0.4142135623730951
  0
VERTEX
  5
D7
  8
LAYER_1
 10
70.00651201425434
 20
-8.783645695916709
 30
0.0
 42
0.4142135623730951
  0
VERTEX
  5
D8
  8
LAYER_1
 10
70.50651201425235
 20
-9.283645695914707
 30
0.0
 42
0.4142135623730951
  0
VERTEX
  5
D9
  8
LAYER_1
 10
71.00651201425036
 20
-8.783645695916709
 30
0.0
 42
0.4142135623730951
  0
SEQEND
  5
188
  8
LAYER_1
  0
POLYLINE
  5
80
  8
LAYER_1
 66
     1
 10
0.0
 20
0.0
 30
0.0
 70
     1
  0
VERTEX
  5
DA
  8
LAYER_1
 10
80.57887087343126
 20
-8.28364569591871
 30
0.0
 42
0.4142135623730951
  0
VERTEX
  5
DB
  8
LAYER_1
 10
80.07887087343325
 20
-8.783645695916709
 30
0.0
 42
0.4142135623730951
  0
VERTEX
  5
DC
  8
LAYER_1
 10
80.57887087343126
 20
-9.283645695914707
 30
0.0
 42
0.4142135623730951
  0
VERTEX
  5
DD
  8
LAYER_1
 10
81.07887087342927
 20
-8.783645695916709
 30
0.0
 42
0.4142135623730951
  0
SEQEND
  5
189
  8
LAYER_1
  0
POLYLINE
  5
82
  8
3BACKPLATE
 66
     1
 10
0.0
 20
0.0
 30
0.0
 70
     1
  0
VERTEX
  5
DE
  8
3BACKPLATE
 10
2.266696309444342
 20
2.385305612453147
 30
0.0
  0
VERTEX
  5
DF
  8
3BACKPLATE
 10
0.3511124518970519
 20
11.23463807575474
 30
0.0
  0
VERTEX
  5
E0
  8
3BACKPLATE
 10
-0.3511124518970803
 20
11.23463807575474
 30
0.0
  0
VERTEX
  5
E1
  8
3BACKPLATE
 10
-2.266696309444342
 20
2.385305612453147
 30
0.0
  0
VERTEX
  5
E2
  8
3BACKPLATE
 10
-2.410564327829917
 20
-8.357038384164452
 30
0.0
 42
0.043692730011106
  0
VERTEX
  5
E3
  8
3BACKPLATE
 10
-2.45223588415422
 20
-8.782402191600495
 30
0.0
 42
0.4142135623730951
  0
VERTEX
  5
E4
  8
3BACKPLATE
 10
-0.0000000000000284
 20
-11.23463807575474
 30
0.0
 42
0.4142135623730951
  0
VERTEX
  5
E5
  8
3BACKPLATE
 10
2.452235884154192
 20
-8.782402191600495
 30
0.0
 42
0.0433860686784907
  0
VERTEX
  5
E6
  8
3BACKPLATE
 10
2.410604994688128
 20
-8.360074899160137
 30
0.0
  0
SEQEND
  5
18A
  8
3BACKPLATE
  0
POLYLINE
  5
83
  8
3BACKPLATE
 66
     1
 10
0.0
 20
0.0
 30
0.0
 70
     1
  0
VERTEX
  5
E7
  8
3BACKPLATE
 10
-7.805662549734565
 20
2.385305612453147
 30
0.0
  0
VERTEX
  5
E8
  8
3BACKPLATE
 10
-9.721246407281855
 20
11.23463807575474
 30
0.0
  0
VERTEX
  5
E9
  8
3BACKPLATE
 10
-10.42347131107599
 20
11.23463807575474
 30
0.0
  0
VERTEX
  5
EA
  8
3BACKPLATE
 10
-12.33905516862325
 20
2.385305612453147
 30
0.0
  0
VERTEX
  5
EB
  8
3BACKPLATE
 10
-12.48292318700882
 20
-8.357038384164452
 30
0.0
 42
0.043692730011106
  0
VERTEX
  5
EC
  8
3BACKPLATE
 10
-12.52459474333313
 20
-8.782402191600495
 30
0.0
 42
0.4142135623730951
  0
VERTEX
  5
ED
  8
3BACKPLATE
 10
-10.07235885917894
 20
-11.23463807575474
 30
0.0
 42
0.4142135623730951
  0
VERTEX
  5
EE
  8
3BACKPLATE
 10
-7.620122975024715
 20
-8.782402191600495
 30
0.0
 42
0.0433860686784907
  0
VERTEX
  5
EF
  8
3BACKPLATE
 10
-7.661753864490779
 20
-8.360074899160137
 30
0.0
  0
SEQEND
  5
18B
  8
3BACKPLATE
  0
POLYLINE
  5
84
  8
3BACKPLATE
 66
     1
 10
0.0
 20
0.0
 30
0.0
 70
     1
  0
VERTEX
  5
F0
  8
3BACKPLATE
 10
-17.87802140891347
 20
2.385305612453147
 30
0.0
  0
VERTEX
  5
F1
  8
3BACKPLATE
 10
-19.79360526646076
 20
11.23463807575474
 30
0.0
  0
VERTEX
  5
F2
  8
3BACKPLATE
 10
-20.49583017025489
 20
11.23463807575474
 30
0.0
  0
VERTEX
  5
F3
  8
3BACKPLATE
 10
-22.41141402780216
 20
2.385305612453147
 30
0.0
  0
VERTEX
  5
F4
  8
3BACKPLATE
 10
-22.55528204618773
 20
-8.357038384164452
 30
0.0
 42
0.043692730011106
  0
VERTEX
  5
F5
  8
3BACKPLATE
 10
-22.59695360251203
 20
-8.782402191600495
 30
0.0
 42
0.4142135623730951
  0
VERTEX
  5
F6
  8
3BACKPLATE
 10
-20.14471771835784
 20
-11.23463807575474
 30
0.0
 42
0.4142135623730951
  0
VERTEX
  5
F7
  8
3BACKPLATE
 10
-17.69248183420362
 20
-8.782402191600495
 30
0.0
 42
0.0433860686784907
  0
VERTEX
  5
F8
  8
3BACKPLATE
 10
-17.73411272366969
 20
-8.360074899160137
 30
0.0
  0
SEQEND
  5
18C
  8
3BACKPLATE
  0
POLYLINE
  5
85
  8
3BACKPLATE
 66
     1
 10
0.0
 20
0.0
 30
0.0
 70
     1
  0
VERTEX
  5
F9
  8
3BACKPLATE
 10
-27.95038026809238
 20
2.385305612453147
 30
0.0
  0
VERTEX
  5
FA
  8
3BACKPLATE
 10
-29.86596412563967
 20
11.23463807575474
 30
0.0
  0
VERTEX
  5
FB
  8
3BACKPLATE
 10
-30.5681890294338
 20
11.23463807575474
 30
0.0
  0
VERTEX
  5
FC
  8
3BACKPLATE
 10
-32.48377288698106
 20
2.385305612453147
 30
0.0
  0
VERTEX
  5
FD
  8
3BACKPLATE
 10
-32.62764090536664
 20
-8.357038384164452
 30
0.0
 42
0.043692730011106
  0
VERTEX
  5
FE
  8
3BACKPLATE
 10
-32.66931246169094
 20
-8.782402191600495
 30
0.0
 42
0.4142135623730951
  0
VERTEX
  5
FF
  8
3BACKPLATE
 10
-30.21707657753675
 20
-11.23463807575474
 30
0.0
 42
0.4142135623730951
  0
VERTEX
  5
100
  8
3BACKPLATE
 10
-27.76484069338253
 20
-8.782402191600495
 30
0.0
 42
0.0433860686784907
  0
VERTEX
  5
101
  8
3BACKPLATE
 10
-27.80647158284859
 20
-8.360074899160137
 30
0.0
  0
SEQEND
  5
18D
  8
3BACKPLATE
  0
POLYLINE
  5
86
  8
3BACKPLATE
 66
     1
 10
0.0
 20
0.0
 30
0.0
 70
     1
  0
VERTEX
  5
102
  8
3BACKPLATE
 10
-38.02273912727129
 20
2.385305612453147
 30
0.0
  0
VERTEX
  5
103
  8
3BACKPLATE
 10
-39.93832298481858
 20
11.23463807575474
 30
0.0
  0
VERTEX
  5
104
  8
3BACKPLATE
 10
-40.64054788861271
 20
11.23463807575474
 30
0.0
  0
VERTEX
  5
105
  8
3BACKPLATE
 10
-42.55613174615997
 20
2.385305612453147
 30
0.0
  0
VERTEX
  5
106
  8
3BACKPLATE
 10
-42.69999976454555
 20
-8.357038384164452
 30
0.0
 42
0.043692730011106
  0
VERTEX
  5
107
  8
3BACKPLATE
 10
-42.74167132086985
 20
-8.782402191600495
 30
0.0
 42
0.4142135623730951
  0
VERTEX
  5
108
  8
3BACKPLATE
 10
-40.28943543671566
 20
-11.23463807575474
 30
0.0
 42
0.4142135623730951
  0
VERTEX
  5
109
  8
3BACKPLATE
 10
-37.83719955256144
 20
-8.782402191600495
 30
0.0
 42
0.0433860686784907
  0
VERTEX
  5
10A
  8
3BACKPLATE
 10
-37.8788304420275
 20
-8.360074899160137
 30
0.0
  0
SEQEND
  5
18E
  8
3BACKPLATE
  0
POLYLINE
  5
87
  8
3BACKPLATE
 66
     1
 10
0.0
 20
0.0
 30
0.0
 70
     1
  0
VERTEX
  5
10B
  8
3BACKPLATE
 10
-48.09509798645019
 20
2.385305612453147
 30
0.0
  0
VERTEX
  5
10C
  8
3BACKPLATE
 10
-50.01068184399748
 20
11.23463807575474
 30
0.0
  0
VERTEX
  5
10D
  8
3BACKPLATE
 10
-50.71290674779161
 20
11.23463807575474
 30
0.0
  0
VERTEX
  5
10E
  8
3BACKPLATE
 10
-52.62849060533888
 20
2.385305612453147
 30
0.0
  0
VERTEX
  5
10F
  8
3BACKPLATE
 10
-52.77235862372445
 20
-8.357038384164452
 30
0.0
 42
0.043692730011106
  0
VERTEX
  5
110
  8
3BACKPLATE
 10
-52.81403018004875
 20
-8.782402191600495
 30
0.0
 42
0.4142135623730951
  0
VERTEX
  5
111
  8
3BACKPLATE
 10
-50.36179429589456
 20
-11.23463807575474
 30
0.0
 42
0.4142135623730951
  0
VERTEX
  5
112
  8
3BACKPLATE
 10
-47.90955841174034
 20
-8.782402191600495
 30
0.0
 42
0.0433860686784907
  0
VERTEX
  5
113
  8
3BACKPLATE
 10
-47.9511893012064
 20
-8.360074899160137
 30
0.0
  0
SEQEND
  5
18F
  8
3BACKPLATE
  0
POLYLINE
  5
88
  8
3BACKPLATE
 66
     1
 10
0.0
 20
0.0
 30
0.0
 70
     1
  0
VERTEX
  5
114
  8
3BACKPLATE
 10
-58.1674568456291
 20
2.385305612453147
 30
0.0
  0
VERTEX
  5
115
  8
3BACKPLATE
 10
-60.08304070317639
 20
11.23463807575474
 30
0.0
  0
VERTEX
  5
116
  8
3BACKPLATE
 10
-60.78526560697052
 20
11.23463807575474
 30
0.0
  0
VERTEX
  5
117
  8
3BACKPLATE
 10
-62.70084946451778
 20
2.385305612453147
 30
0.0
  0
VERTEX
  5
118
  8
3BACKPLATE
 10
-62.84471748290336
 20
-8.357038384164452
 30
0.0
 42
0.043692730011106
  0
VERTEX
  5
119
  8
3BACKPLATE
 10
-62.88638903922766
 20
-8.782402191600495
 30
0.0
 42
0.4142135623730951
  0
VERTEX
  5
11A
  8
3BACKPLATE
 10
-60.43415315507347
 20
-11.23463807575474
 30
0.0
 42
0.4142135623730951
  0
VERTEX
  5
11B
  8
3BACKPLATE
 10
-57.98191727091925
 20
-8.782402191600495
 30
0.0
 42
0.0433860686784907
  0
VERTEX
  5
11C
  8
3BACKPLATE
 10
-58.02354816038531
 20
-8.360074899160137
 30
0.0
  0
SEQEND
  5
190
  8
3BACKPLATE
  0
POLYLINE
  5
89
  8
3BACKPLATE
 66
     1
 10
0.0
 20
0.0
 30
0.0
 70
     1
  0
VERTEX
  5
11D
  8
3BACKPLATE
 10
-68.23981570480801
 20
2.385305612453147
 30
0.0
  0
VERTEX
  5
11E
  8
3BACKPLATE
 10
-70.1553995623553
 20
11.23463807575474
 30
0.0
  0
VERTEX
  5
11F
  8
3BACKPLATE
 10
-70.85762446614943
 20
11.23463807575474
 30
0.0
  0
VERTEX
  5
120
  8
3BACKPLATE
 10
-72.7732083236967
 20
2.385305612453147
 30
0.0
  0
VERTEX
  5
121
  8
3BACKPLATE
 10
-72.91707634208227
 20
-8.357038384164452
 30
0.0
 42
0.043692730011106
  0
VERTEX
  5
122
  8
3BACKPLATE
 10
-72.95874789840657
 20
-8.782402191600495
 30
0.0
 42
0.4142135623730951
  0
VERTEX
  5
123
  8
3BACKPLATE
 10
-70.50651201425238
 20
-11.23463807575474
 30
0.0
 42
0.4142135623730951
  0
VERTEX
  5
124
  8
3BACKPLATE
 10
-68.05427613009816
 20
-8.782402191600495
 30
0.0
 42
0.0433860686784907
  0
VERTEX
  5
125
  8
3BACKPLATE
 10
-68.09590701956422
 20
-8.360074899160137
 30
0.0
  0
SEQEND
  5
191
  8
3BACKPLATE
  0
POLYLINE
  5
8A
  8
3BACKPLATE
 66
     1
 10
0.0
 20
0.0
 30
0.0
 70
     1
  0
VERTEX
  5
126
  8
3BACKPLATE
 10
-78.31217456398691
 20
2.385305612453147
 30
0.0
  0
VERTEX
  5
127
  8
3BACKPLATE
 10
-80.2277584215342
 20
11.23463807575474
 30
0.0
  0
VERTEX
  5
128
  8
3BACKPLATE
 10
-80.92998332532834
 20
11.23463807575474
 30
0.0
  0
VERTEX
  5
129
  8
3BACKPLATE
 10
-82.8455671828756
 20
2.385305612453147
 30
0.0
  0
VERTEX
  5
12A
  8
3BACKPLATE
 10
-82.98943520126117
 20
-8.357038384164452
 30
0.0
 42
0.043692730011106
  0
VERTEX
  5
12B
  8
3BACKPLATE
 10
-83.03110675758548
 20
-8.782402191600495
 30
0.0
 42
0.4142135623730951
  0
VERTEX
  5
12C
  8
3BACKPLATE
 10
-80.57887087343128
 20
-11.23463807575474
 30
0.0
 42
0.4142135623730951
  0
VERTEX
  5
12D
  8
3BACKPLATE
 10
-78.12663498927706
 20
-8.782402191600495
 30
0.0
 42
0.0433860686784907
  0
VERTEX
  5
12E
  8
3BACKPLATE
 10
-78.16826587874313
 20
-8.360074899160137
 30
0.0
  0
SEQEND
  5
192
  8
3BACKPLATE
  0
POLYLINE
  5
8B
  8
3BACKPLATE
 66
     1
 10
0.0
 20
0.0
 30
0.0
 70
     1
  0
VERTEX
  5
12F
  8
3BACKPLATE
 10
12.33905516862325
 20
2.385305612453147
 30
0.0
  0
VERTEX
  5
130
  8
3BACKPLATE
 10
10.42347131107596
 20
11.23463807575474
 30
0.0
  0
VERTEX
  5
131
  8
3BACKPLATE
 10
9.721246407281827
 20
11.23463807575474
 30
0.0
  0
VERTEX
  5
132
  8
3BACKPLATE
 10
7.805662549734565
 20
2.385305612453147
 30
0.0
  0
VERTEX
  5
133
  8
3BACKPLATE
 10
7.66179453134899
 20
-8.357038384164452
 30
0.0
 42
0.043692730011106
  0
VERTEX
  5
134
  8
3BACKPLATE
 10
7.620122975024687
 20
-8.782402191600495
 30
0.0
 42
0.4142135623730951
  0
VERTEX
  5
135
  8
3BACKPLATE
 10
10.07235885917888
 20
-11.23463807575474
 30
0.0
 42
0.4142135623730951
  0
VERTEX
  5
136
  8
3BACKPLATE
 10
12.5245947433331
 20
-8.782402191600495
 30
0.0
 42
0.0433860686784907
  0
VERTEX
  5
137
  8
3BACKPLATE
 10
12.48296385386704
 20
-8.360074899160137
 30
0.0
  0
SEQEND
  5
193
  8
3BACKPLATE
  0
POLYLINE
  5
8C
  8
3BACKPLATE
 66
     1
 10
0.0
 20
0.0
 30
0.0
 70
     1
  0
VERTEX
  5
138
  8
3BACKPLATE
 10
22.41141402780216
 20
2.385305612453147
 30
0.0
  0
VERTEX
  5
139
  8
3BACKPLATE
 10
20.49583017025487
 20
11.23463807575474
 30
0.0
  0
VERTEX
  5
13A
  8
3BACKPLATE
 10
19.79360526646073
 20
11.23463807575474
 30
0.0
  0
VERTEX
  5
13B
  8
3BACKPLATE
 10
17.87802140891347
 20
2.385305612453147
 30
0.0
  0
VERTEX
  5
13C
  8
3BACKPLATE
 10
17.7341533905279
 20
-8.357038384164452
 30
0.0
 42
0.043692730011106
  0
VERTEX
  5
13D
  8
3BACKPLATE
 10
17.69248183420359
 20
-8.782402191600495
 30
0.0
 42
0.4142135623730951
  0
VERTEX
  5
13E
  8
3BACKPLATE
 10
20.14471771835779
 20
-11.23463807575474
 30
0.0
 42
0.4142135623730951
  0
VERTEX
  5
13F
  8
3BACKPLATE
 10
22.59695360251201
 20
-8.782402191600495
 30
0.0
 42
0.0433860686784907
  0
VERTEX
  5
140
  8
3BACKPLATE
 10
22.55532271304594
 20
-8.360074899160137
 30
0.0
  0
SEQEND
  5
194
  8
3BACKPLATE
  0
POLYLINE
  5
8D
  8
3BACKPLATE
 66
     1
 10
0.0
 20
0.0
 30
0.0
 70
     1
  0
VERTEX
  5
141
  8
3BACKPLATE
 10
32.48377288698106
 20
2.385305612453147
 30
0.0
  0
VERTEX
  5
142
  8
3BACKPLATE
 10
30.56818902943377
 20
11.23463807575474
 30
0.0
  0
VERTEX
  5
143
  8
3BACKPLATE
 10
29.86596412563964
 20
11.23463807575474
 30
0.0
  0
VERTEX
  5
144
  8
3BACKPLATE
 10
27.95038026809238
 20
2.385305612453147
 30
0.0
  0
VERTEX
  5
145
  8
3BACKPLATE
 10
27.8065122497068
 20
-8.357038384164452
 30
0.0
 42
0.043692730011106
  0
VERTEX
  5
146
  8
3BACKPLATE
 10
27.7648406933825
 20
-8.782402191600495
 30
0.0
 42
0.4142135623730951
  0
VERTEX
  5
147
  8
3BACKPLATE
 10
30.21707657753669
 20
-11.23463807575474
 30
0.0
 42
0.4142135623730951
  0
VERTEX
  5
148
  8
3BACKPLATE
 10
32.66931246169091
 20
-8.782402191600495
 30
0.0
 42
0.0433860686784907
  0
VERTEX
  5
149
  8
3BACKPLATE
 10
32.62768157222485
 20
-8.360074899160137
 30
0.0
  0
SEQEND
  5
195
  8
3BACKPLATE
  0
POLYLINE
  5
8E
  8
3BACKPLATE
 66
     1
 10
0.0
 20
0.0
 30
0.0
 70
     1
  0
VERTEX
  5
14A
  8
3BACKPLATE
 10
42.55613174615997
 20
2.385305612453147
 30
0.0
  0
VERTEX
  5
14B
  8
3BACKPLATE
 10
40.64054788861268
 20
11.23463807575474
 30
0.0
  0
VERTEX
  5
14C
  8
3BACKPLATE
 10
39.93832298481855
 20
11.23463807575474
 30
0.0
  0
VERTEX
  5
14D
  8
3BACKPLATE
 10
38.02273912727129
 20
2.385305612453147
 30
0.0
  0
VERTEX
  5
14E
  8
3BACKPLATE
 10
37.87887110888571
 20
-8.357038384164452
 30
0.0
 42
0.043692730011106
  0
VERTEX
  5
14F
  8
3BACKPLATE
 10
37.83719955256141
 20
-8.782402191600495
 30
0.0
 42
0.4142135623730951
  0
VERTEX
  5
150
  8
3BACKPLATE
 10
40.2894354367156
 20
-11.23463807575474
 30
0.0
 42
0.4142135623730951
  0
VERTEX
  5
151
  8
3BACKPLATE
 10
42.74167132086982
 20
-8.782402191600495
 30
0.0
 42
0.0433860686784907
  0
VERTEX
  5
152
  8
3BACKPLATE
 10
42.70004043140376
 20
-8.360074899160137
 30
0.0
  0
SEQEND
  5
196
  8
3BACKPLATE
  0
POLYLINE
  5
8F
  8
3BACKPLATE
 66
     1
 10
0.0
 20
0.0
 30
0.0
 70
     1
  0
VERTEX
  5
153
  8
3BACKPLATE
 10
52.62849060533888
 20
2.385305612453147
 30
0.0
  0
VERTEX
  5
154
  8
3BACKPLATE
 10
50.71290674779159
 20
11.23463807575474
 30
0.0
  0
VERTEX
  5
155
  8
3BACKPLATE
 10
50.01068184399745
 20
11.23463807575474
 30
0.0
  0
VERTEX
  5
156
  8
3BACKPLATE
 10
48.09509798645019
 20
2.385305612453147
 30
0.0
  0
VERTEX
  5
157
  8
3BACKPLATE
 10
47.95122996806462
 20
-8.357038384164452
 30
0.0
 42
0.043692730011106
  0
VERTEX
  5
158
  8
3BACKPLATE
 10
47.90955841174031
 20
-8.782402191600495
 30
0.0
 42
0.4142135623730951
  0
VERTEX
  5
159
  8
3BACKPLATE
 10
50.36179429589451
 20
-11.23463807575474
 30
0.0
 42
0.4142135623730951
  0
VERTEX
  5
15A
  8
3BACKPLATE
 10
52.81403018004873
 20
-8.782402191600495
 30
0.0
 42
0.0433860686784907
  0
VERTEX
  5
15B
  8
3BACKPLATE
 10
52.77239929058266
 20
-8.360074899160137
 30
0.0
  0
SEQEND
  5
197
  8
3BACKPLATE
  0
POLYLINE
  5
90
  8
3BACKPLATE
 66
     1
 10
0.0
 20
0.0
 30
0.0
 70
     1
  0
VERTEX
  5
15C
  8
3BACKPLATE
 10
62.70084946451778
 20
2.385305612453147
 30
0.0
  0
VERTEX
  5
15D
  8
3BACKPLATE
 10
60.78526560697049
 20
11.23463807575474
 30
0.0
  0
VERTEX
  5
15E
  8
3BACKPLATE
 10
60.08304070317636
 20
11.23463807575474
 30
0.0
  0
VERTEX
  5
15F
  8
3BACKPLATE
 10
58.1674568456291
 20
2.385305612453147
 30
0.0
  0
VERTEX
  5
160
  8
3BACKPLATE
 10
58.02358882724352
 20
-8.357038384164452
 30
0.0
 42
0.043692730011106
  0
VERTEX
  5
161
  8
3BACKPLATE
 10
57.98191727091922
 20
-8.782402191600495
 30
0.0
 42
0.4142135623730951
  0
VERTEX
  5
162
  8
3BACKPLATE
 10
60.43415315507341
 20
-11.23463807575474
 30
0.0
 42
0.4142135623730951
  0
VERTEX
  5
163
  8
3BACKPLATE
 10
62.88638903922763
 20
-8.782402191600495
 30
0.0
 42
0.0433860686784907
  0
VERTEX
  5
164
  8
3BACKPLATE
 10
62.84475814976157
 20
-8.360074899160137
 30
0.0
  0
SEQEND
  5
198
  8
3BACKPLATE
  0
POLYLINE
  5
91
  8
3BACKPLATE
 66
     1
 10
0.0
 20
0.0
 30
0.0
 70
     1
  0
VERTEX
  5
165
  8
3BACKPLATE
 10
72.7732083236967
 20
2.385305612453147
 30
0.0
  0
VERTEX
  5
166
  8
3BACKPLATE
 10
70.8576244661494
 20
11.23463807575474
 30
0.0
  0
VERTEX
  5
167
  8
3BACKPLATE
 10
70.15539956235527
 20
11.23463807575474
 30
0.0
  0
VERTEX
  5
168
  8
3BACKPLATE
 10
68.23981570480801
 20
2.385305612453147
 30
0.0
  0
VERTEX
  5
169
  8
3BACKPLATE
 10
68.09594768642243
 20
-8.357038384164452
 30
0.0
 42
0.043692730011106
  0
VERTEX
  5
16A
  8
3BACKPLATE
 10
68.05427613009813
 20
-8.782402191600495
 30
0.0
 42
0.4142135623730951
  0
VERTEX
  5
16B
  8
3BACKPLATE
 10
70.50651201425232
 20
-11.23463807575474
 30
0.0
 42
0.4142135623730951
  0
VERTEX
  5
16C
  8
3BACKPLATE
 10
72.95874789840654
 20
-8.782402191600495
 30
0.0
 42
0.0433860686784907
  0
VERTEX
  5
16D
  8
3BACKPLATE
 10
72.91711700894048
 20
-8.360074899160137
 30
0.0
  0
SEQEND
  5
199
  8
3BACKPLATE
  0
POLYLINE
  5
92
  8
3BACKPLATE
 66
     1
 10
0.0
 20
0.0
 30
0.0
 70
     1
  0
VERTEX
  5
16E
  8
3BACKPLATE
 10
82.8455671828756
 20
2.385305612453147
 30
0.0
  0
VERTEX
  5
16F
  8
3BACKPLATE
 10
80.92998332532831
 20
11.23463807575474
 30
0.0
  0
VERTEX
  5
170
  8
3BACKPLATE
 10
80.22775842153418
 20
11.23463807575474
 30
0.0
  0
VERTEX
  5
171
  8
3BACKPLATE
 10
78.31217456398691
 20
2.385305612453147
 30
0.0
  0
VERTEX
  5
172
  8
3BACKPLATE
 10
78.16830654560134
 20
-8.357038384164452
 30
0.0
 42
0.043692730011106
  0
VERTEX
  5
173
  8
3BACKPLATE
 10
78.12663498927704
 20
-8.782402191600495
 30
0.0
 42
0.4142135623730951
  0
VERTEX
  5
174
  8
3BACKPLATE
 10
80.57887087343123
 20
-11.23463807575474
 30
0.0
 42
0.4142135623730951
  0
VERTEX
  5
175
  8
3BACKPLATE
 10
83.03110675758545
 20
-8.782402191600495
 30
0.0
 42
0.0433860686784907
  0
VERTEX
  5
176
  8
3BACKPLATE
 10
82.98947586811938
 20
-8.360074899160137
 30
0.0
  0
SEQEND
  5
19A
  8
3BACKPLATE
  0
ENDSEC
  0
EOF
