  0
SECTION
  2
HEADER
  9
$ACADVER
  1
AC1009
  9
$DWGCODEPAGE
  3
ansi_1252
  9
$INSBASE
 10
0.0
 20
0.0
 30
0.0
  9
$EXTMIN
 10
-2.451999999999998
 20
-16.51
 30
0.0
  9
$EXTMAX
 10
2.451999999999998
 20
16.51
 30
0.0
  9
$LIMMIN
 10
0.0
 20
0.0
  9
$LIMMAX
 10
12.0
 20
9.0
  9
$ORTHOMODE
 70
     0
  9
$REGENMODE
 70
     1
  9
$FILLMODE
 70
     1
  9
$QTEXTMODE
 70
     0
  9
$MIRRTEXT
 70
     1
  9
$DRAGMODE
 70
     2
  9
$LTSCALE
 40
1.0
  9
$OSMODE
 70
    37
  9
$ATTMODE
 70
     1
  9
$TEXTSIZE
 40
0.2
  9
$TRACEWID
 40
0.05
  9
$TEXTSTYLE
  7
STANDARD
  9
$CLAYER
  8
0
  9
$CELTYPE
  6
BYLAYER
  9
$CECOLOR
 62
   256
  9
$DIMSCALE
 40
1.0
  9
$DIMASZ
 40
0.18
  9
$DIMEXO
 40
0.0625
  9
$DIMDLI
 40
0.38
  9
$DIMRND
 40
0.0
  9
$DIMDLE
 40
0.0
  9
$DIMEXE
 40
0.18
  9
$DIMTP
 40
0.0
  9
$DIMTM
 40
0.0
  9
$DIMTXT
 40
0.18
  9
$DIMCEN
 40
0.09
  9
$DIMTSZ
 40
0.0
  9
$DIMTOL
 70
     0
  9
$DIMLIM
 70
     0
  9
$DIMTIH
 70
     1
  9
$DIMTOH
 70
     1
  9
$DIMSE1
 70
     0
  9
$DIMSE2
 70
     0
  9
$DIMTAD
 70
     0
  9
$DIMZIN
 70
     0
  9
$DIMBLK
  1

  9
$DIMASO
 70
     1
  9
$DIMSHO
 70
     1
  9
$DIMPOST
  1

  9
$DIMAPOST
  1

  9
$DIMALT
 70
     0
  9
$DIMALTD
 70
     2
  9
$DIMALTF
 40
25.4
  9
$DIMLFAC
 40
1.0
  9
$DIMTOFL
 70
     0
  9
$DIMTVP
 40
0.0
  9
$DIMTIX
 70
     0
  9
$DIMSOXD
 70
     0
  9
$DIMSAH
 70
     0
  9
$DIMBLK1
  1

  9
$DIMBLK2
  1

  9
$DIMSTYLE
  2
STANDARD
  9
$DIMCLRD
 70
     0
  9
$DIMCLRE
 70
     0
  9
$DIMCLRT
 70
     0
  9
$DIMTFAC
 40
1.0
  9
$DIMGAP
 40
0.09
  9
$LUNITS
 70
     2
  9
$LUPREC
 70
     4
  9
$SKETCHINC
 40
0.1
  9
$FILLETRAD
 40
0.5
  9
$AUNITS
 70
     0
  9
$AUPREC
 70
     0
  9
$MENU
  1
.
  9
$ELEVATION
 40
0.0
  9
$PELEVATION
 40
0.0
  9
$THICKNESS
 40
0.0
  9
$LIMCHECK
 70
     0
  9
$CHAMFERA
 40
0.0
  9
$CHAMFERB
 40
0.0
  9
$SKPOLY
 70
     0
  9
$TDCREATE
 40
2454910.5
  9
$TDUPDATE
 40
2457744.8639111
  9
$TDINDWG
 40
0.0000000116
  9
$TDUSRTIMER
 40
0.0000000116
  9
$USRTIMER
 70
     1
  9
$ANGBASE
 50
0.0
  9
$ANGDIR
 70
     0
  9
$PDMODE
 70
     0
  9
$PDSIZE
 40
0.0
  9
$PLINEWID
 40
0.0
  9
$COORDS
 70
     1
  9
$SPLFRAME
 70
     0
  9
$SPLINETYPE
 70
     6
  9
$SPLINESEGS
 70
     8
  9
$ATTDIA
 70
     0
  9
$ATTREQ
 70
     1
  9
$HANDLING
 70
     1
  9
$HANDSEED
  5
B5
  9
$SURFTAB1
 70
     6
  9
$SURFTAB2
 70
     6
  9
$SURFTYPE
 70
     6
  9
$SURFU
 70
     6
  9
$SURFV
 70
     6
  9
$UCSNAME
  2

  9
$UCSORG
 10
0.0
 20
0.0
 30
0.0
  9
$UCSXDIR
 10
1.0
 20
0.0
 30
0.0
  9
$UCSYDIR
 10
0.0
 20
1.0
 30
0.0
  9
$PUCSNAME
  2

  9
$PUCSORG
 10
0.0
 20
0.0
 30
0.0
  9
$PUCSXDIR
 10
1.0
 20
0.0
 30
0.0
  9
$PUCSYDIR
 10
0.0
 20
1.0
 30
0.0
  9
$USERI1
 70
     0
  9
$USERI2
 70
     0
  9
$USERI3
 70
     0
  9
$USERI4
 70
     0
  9
$USERI5
 70
     0
  9
$USERR1
 40
0.0
  9
$USERR2
 40
0.0
  9
$USERR3
 40
0.0
  9
$USERR4
 40
0.0
  9
$USERR5
 40
0.0
  9
$WORLDVIEW
 70
     1
  9
$SHADEDGE
 70
     3
  9
$SHADEDIF
 70
    70
  9
$TILEMODE
 70
     1
  9
$MAXACTVP
 70
    64
  9
$PLIMCHECK
 70
     0
  9
$PEXTMIN
 10
1.000000000000000E+20
 20
1.000000000000000E+20
 30
1.000000000000000E+20
  9
$PEXTMAX
 10
-1.000000000000000E+20
 20
-1.000000000000000E+20
 30
-1.000000000000000E+20
  9
$PLIMMIN
 10
0.0
 20
0.0
  9
$PLIMMAX
 10
12.0
 20
9.0
  9
$UNITMODE
 70
     0
  9
$VISRETAIN
 70
     1
  9
$PLINEGEN
 70
     0
  9
$PSLTSCALE
 70
     1
  0
ENDSEC
  0
SECTION
  2
TABLES
  0
TABLE
  2
VPORT
 70
     1
  0
VPORT
  2
*ACTIVE
 70
     0
 10
0.0
 20
0.0
 11
1.0
 21
1.0
 12
10.42990654205607
 22
4.5
 13
0.0
 23
0.0
 14
0.5
 24
0.5
 15
0.5
 25
0.5
 16
0.0
 26
0.0
 36
1.0
 17
0.0
 27
0.0
 37
0.0
 40
9.0
 41
1.972972972850329
 42
50.0
 43
0.0
 44
0.0
 50
0.0
 51
0.0
 71
     0
 72
   100
 73
     1
 74
     3
 75
     0
 76
     0
 77
     0
 78
     0
  0
ENDTAB
  0
TABLE
  2
LTYPE
 70
     2
  0
LTYPE
  2
CONTINUOUS
 70
     0
  3
Solid line
 72
    65
 73
     0
 40
0.0
  0
LTYPE
  2
CONTINUOUS2
 70
     0
  3
Solid Line
 72
    65
 73
     0
 40
0.0
  0
ENDTAB
  0
TABLE
  2
LAYER
 70
     3
  0
LAYER
  2
0
 70
     0
 62
     7
  6
CONTINUOUS
  0
LAYER
  2
LAYER_1
 70
     0
 62
    18
  6
CONTINUOUS
  0
LAYER
  2
3BACKPLATE
 70
     0
 62
    18
  6
CONTINUOUS
  0
ENDTAB
  0
TABLE
  2
STYLE
 70
     1
  0
STYLE
  2
STANDARD
 70
     0
 40
0.0
 41
1.0
 50
0.0
 71
     0
 42
0.2
  3
txt
  4

  0
ENDTAB
  0
TABLE
  2
VIEW
 70
     0
  0
ENDTAB
  0
TABLE
  2
UCS
 70
     0
  0
ENDTAB
  0
TABLE
  2
APPID
 70
     1
  0
APPID
  2
ACAD
 70
     0
  0
ENDTAB
  0
TABLE
  2
DIMSTYLE
 70
     1
  0
DIMSTYLE
  2
STANDARD
 70
     0
  3

  4

  5

  6

  7

 40
1.0
 41
0.18
 42
0.0625
 43
0.38
 44
0.18
 45
0.0
 46
0.0
 47
0.0
 48
0.0
140
0.18
141
0.09
142
0.0
143
25.4
144
1.0
145
0.0
146
1.0
147
0.09
 71
     0
 72
     0
 73
     1
 74
     1
 75
     0
 76
     0
 77
     0
 78
     0
170
     0
171
     2
172
     0
173
     0
174
     0
175
     0
176
     0
177
     0
178
     0
  0
ENDTAB
  0
ENDSEC
  0
SECTION
  2
BLOCKS
  0
BLOCK
  8
0
  2
$MODEL_SPACE
 70
     0
 10
0.0
 20
0.0
 30
0.0
  3
$MODEL_SPACE
  1

  0
ENDBLK
  5
21
  8
0
  0
BLOCK
 67
     1
  8
0
  2
$PAPER_SPACE
 70
     0
 10
0.0
 20
0.0
 30
0.0
  3
$PAPER_SPACE
  1

  0
ENDBLK
  5
1D
 67
     1
  8
0
  0
ENDSEC
  0
SECTION
  2
ENTITIES
  0
POLYLINE
  5
70
  8
LAYER_1
 66
     1
 10
0.0
 20
0.0
 30
0.0
 70
     1
  0
VERTEX
  5
7A
  8
LAYER_1
 10
0.0095564482183477
 20
-13.55545632964945
 30
0.0
 42
0.4142135623730951
  0
VERTEX
  5
7B
  8
LAYER_1
 10
-0.4904435517796628
 20
-14.05545632964744
 30
0.0
 42
0.4142135623730951
  0
VERTEX
  5
7C
  8
LAYER_1
 10
0.0095564482183477
 20
-14.55545632964544
 30
0.0
 42
0.4142135623730951
  0
VERTEX
  5
7D
  8
LAYER_1
 10
0.5095564482163297
 20
-14.05545632964744
 30
0.0
 42
0.4142135623730951
  0
SEQEND
  5
B3
  8
LAYER_1
  0
POLYLINE
  5
72
  8
3BACKPLATE
 66
     1
 10
0.0
 20
0.0
 30
0.0
 70
     1
  0
VERTEX
  5
7E
  8
3BACKPLATE
 10
2.266478272613057
 20
11.95466209145862
 30
0.0
  0
VERTEX
  5
7F
  8
3BACKPLATE
 10
0.3510786778770978
 20
16.51
 30
0.0
  0
VERTEX
  5
80
  8
3BACKPLATE
 10
-0.3510786778770694
 20
16.51
 30
0.0
  0
VERTEX
  5
81
  8
3BACKPLATE
 10
-2.266478272613028
 20
11.95466209145862
 30
0.0
  0
VERTEX
  5
82
  8
3BACKPLATE
 10
-2.410332452123612
 20
-12.28118812481514
 30
0.0
  0
VERTEX
  5
83
  8
3BACKPLATE
 10
-2.440457985185343
 20
-12.5923995732478
 30
0.0
  0
VERTEX
  5
84
  8
3BACKPLATE
 10
-2.451999999999998
 20
-12.90628671841601
 30
0.0
  0
VERTEX
  5
85
  8
3BACKPLATE
 10
-2.439340600414146
 20
-13.27474546731137
 30
0.0
  0
VERTEX
  5
86
  8
3BACKPLATE
 10
-2.402184074879475
 20
-13.63256063981744
 30
0.0
  0
VERTEX
  5
87
  8
3BACKPLATE
 10
-2.341762933230327
 20
-13.97792081176632
 30
0.0
  0
VERTEX
  5
88
  8
3BACKPLATE
 10
-2.259309685301046
 20
-14.30901455899009
 30
0.0
  0
VERTEX
  5
89
  8
3BACKPLATE
 10
-2.156056840925974
 20
-14.62403045732086
 30
0.0
  0
VERTEX
  5
8A
  8
3BACKPLATE
 10
-2.033236909939453
 20
-14.92115708259072
 30
0.0
  0
VERTEX
  5
8B
  8
3BACKPLATE
 10
-1.892082402175827
 20
-15.19858301063176
 30
0.0
  0
VERTEX
  5
8C
  8
3BACKPLATE
 10
-1.733825827469438
 20
-15.45449681727608
 30
0.0
  0
VERTEX
  5
8D
  8
3BACKPLATE
 10
-1.55969969565463
 20
-15.68708707835577
 30
0.0
  0
VERTEX
  5
8E
  8
3BACKPLATE
 10
-1.370936516565743
 20
-15.89454236970293
 30
0.0
  0
VERTEX
  5
8F
  8
3BACKPLATE
 10
-1.168768800037123
 20
-16.07505126714965
 30
0.0
  0
VERTEX
  5
90
  8
3BACKPLATE
 10
-1.063043399556144
 20
-16.15463474810788
 30
0.0
  0
VERTEX
  5
91
  8
3BACKPLATE
 10
-0.9544290559031108
 20
-16.22680234652803
 30
0.0
  0
VERTEX
  5
92
  8
3BACKPLATE
 10
-0.8430798328073148
 20
-16.29132763438912
 30
0.0
  0
VERTEX
  5
93
  8
3BACKPLATE
 10
-0.7291497939980496
 20
-16.34798418367016
 30
0.0
  0
VERTEX
  5
94
  8
3BACKPLATE
 10
-0.6127930032046078
 20
-16.39654556635016
 30
0.0
  0
VERTEX
  5
95
  8
3BACKPLATE
 10
-0.4941635241562823
 20
-16.43678535440813
 30
0.0
  0
VERTEX
  5
96
  8
3BACKPLATE
 10
-0.3734154205823659
 20
-16.46847711982309
 30
0.0
  0
VERTEX
  5
97
  8
3BACKPLATE
 10
-0.2507027562121515
 20
-16.49139443457405
 30
0.0
  0
VERTEX
  5
98
  8
3BACKPLATE
 10
-0.1261795947749319
 20
-16.50531087064001
 30
0.0
  0
VERTEX
  5
99
  8
3BACKPLATE
 10
0.0
 20
-16.51
 30
0.0
  0
VERTEX
  5
9A
  8
3BACKPLATE
 10
0.1261795947749293
 20
-16.50531087064001
 30
0.0
  0
VERTEX
  5
9B
  8
3BACKPLATE
 10
0.2507027562121465
 20
-16.49139443457405
 30
0.0
  0
VERTEX
  5
9C
  8
3BACKPLATE
 10
0.3734154205823587
 20
-16.46847711982309
 30
0.0
  0
VERTEX
  5
9D
  8
3BACKPLATE
 10
0.494163524156273
 20
-16.43678535440813
 30
0.0
  0
VERTEX
  5
9E
  8
3BACKPLATE
 10
0.6127930032045966
 20
-16.39654556635016
 30
0.0
  0
VERTEX
  5
9F
  8
3BACKPLATE
 10
0.7291497939980367
 20
-16.34798418367016
 30
0.0
  0
VERTEX
  5
A0
  8
3BACKPLATE
 10
0.8430798328073004
 20
-16.29132763438912
 30
0.0
  0
VERTEX
  5
A1
  8
3BACKPLATE
 10
0.9544290559030948
 20
-16.22680234652803
 30
0.0
  0
VERTEX
  5
A2
  8
3BACKPLATE
 10
1.063043399556127
 20
-16.15463474810787
 30
0.0
  0
VERTEX
  5
A3
  8
3BACKPLATE
 10
1.168768800037105
 20
-16.07505126714964
 30
0.0
  0
VERTEX
  5
A4
  8
3BACKPLATE
 10
1.370936516565723
 20
-15.89454236970292
 30
0.0
  0
VERTEX
  5
A5
  8
3BACKPLATE
 10
1.559699695654609
 20
-15.68708707835576
 30
0.0
  0
VERTEX
  5
A6
  8
3BACKPLATE
 10
1.733825827469417
 20
-15.45449681727607
 30
0.0
  0
VERTEX
  5
A7
  8
3BACKPLATE
 10
1.892082402175806
 20
-15.19858301063175
 30
0.0
  0
VERTEX
  5
A8
  8
3BACKPLATE
 10
2.033236909939433
 20
-14.9211570825907
 30
0.0
  0
VERTEX
  5
A9
  8
3BACKPLATE
 10
2.156056840925956
 20
-14.62403045732085
 30
0.0
  0
VERTEX
  5
AA
  8
3BACKPLATE
 10
2.25930968530103
 20
-14.30901455899008
 30
0.0
  0
VERTEX
  5
AB
  8
3BACKPLATE
 10
2.341762933230314
 20
-13.9779208117663
 30
0.0
  0
VERTEX
  5
AC
  8
3BACKPLATE
 10
2.402184074879466
 20
-13.63256063981743
 30
0.0
  0
VERTEX
  5
AD
  8
3BACKPLATE
 10
2.439340600414141
 20
-13.27474546731136
 30
0.0
  0
VERTEX
  5
AE
  8
3BACKPLATE
 10
2.451999999999998
 20
-12.90628671841601
 30
0.0
  0
VERTEX
  5
AF
  8
3BACKPLATE
 10
2.440347236728424
 20
-12.59464143338918
 30
0.0
  0
VERTEX
  5
B0
  8
3BACKPLATE
 10
2.410373115070058
 20
-12.28565047262205
 30
0.0
  0
SEQEND
  5
B4
  8
3BACKPLATE
  0
ENDSEC
  0
EOF
