  0
SECTION
  2
HEADER
  9
$ACADVER
  1
AC1009
  9
$DWGCODEPAGE
  3
ansi_1252
  9
$INSBASE
 10
0.0
 20
0.0
 30
0.0
  9
$EXTMIN
 10
-3.482416632809333
 20
-4.354177470902449
 30
0.0
  9
$EXTMAX
 10
3.497809315157903
 20
28.77389427186012
 30
0.0
  9
$LIMMIN
 10
0.0
 20
0.0
  9
$LIMMAX
 10
12.0
 20
9.0
  9
$ORTHOMODE
 70
     0
  9
$REGENMODE
 70
     1
  9
$FILLMODE
 70
     1
  9
$QTEXTMODE
 70
     0
  9
$MIRRTEXT
 70
     1
  9
$DRAGMODE
 70
     2
  9
$LTSCALE
 40
1.0
  9
$OSMODE
 70
    37
  9
$ATTMODE
 70
     1
  9
$TEXTSIZE
 40
0.2
  9
$TRACEWID
 40
0.05
  9
$TEXTSTYLE
  7
STANDARD
  9
$CLAYER
  8
0
  9
$CELTYPE
  6
BYLAYER
  9
$CECOLOR
 62
   256
  9
$DIMSCALE
 40
1.0
  9
$DIMASZ
 40
0.18
  9
$DIMEXO
 40
0.0625
  9
$DIMDLI
 40
0.38
  9
$DIMRND
 40
0.0
  9
$DIMDLE
 40
0.0
  9
$DIMEXE
 40
0.18
  9
$DIMTP
 40
0.0
  9
$DIMTM
 40
0.0
  9
$DIMTXT
 40
0.18
  9
$DIMCEN
 40
0.09
  9
$DIMTSZ
 40
0.0
  9
$DIMTOL
 70
     0
  9
$DIMLIM
 70
     0
  9
$DIMTIH
 70
     1
  9
$DIMTOH
 70
     1
  9
$DIMSE1
 70
     0
  9
$DIMSE2
 70
     0
  9
$DIMTAD
 70
     0
  9
$DIMZIN
 70
     0
  9
$DIMBLK
  1

  9
$DIMASO
 70
     1
  9
$DIMSHO
 70
     1
  9
$DIMPOST
  1

  9
$DIMAPOST
  1

  9
$DIMALT
 70
     0
  9
$DIMALTD
 70
     2
  9
$DIMALTF
 40
25.4
  9
$DIMLFAC
 40
1.0
  9
$DIMTOFL
 70
     0
  9
$DIMTVP
 40
0.0
  9
$DIMTIX
 70
     0
  9
$DIMSOXD
 70
     0
  9
$DIMSAH
 70
     0
  9
$DIMBLK1
  1

  9
$DIMBLK2
  1

  9
$DIMSTYLE
  2
STANDARD
  9
$DIMCLRD
 70
     0
  9
$DIMCLRE
 70
     0
  9
$DIMCLRT
 70
     0
  9
$DIMTFAC
 40
1.0
  9
$DIMGAP
 40
0.09
  9
$LUNITS
 70
     2
  9
$LUPREC
 70
     4
  9
$SKETCHINC
 40
0.1
  9
$FILLETRAD
 40
0.5
  9
$AUNITS
 70
     0
  9
$AUPREC
 70
     0
  9
$MENU
  1
.
  9
$ELEVATION
 40
0.0
  9
$PELEVATION
 40
0.0
  9
$THICKNESS
 40
0.0
  9
$LIMCHECK
 70
     0
  9
$CHAMFERA
 40
0.0
  9
$CHAMFERB
 40
0.0
  9
$SKPOLY
 70
     0
  9
$TDCREATE
 40
2454910.5
  9
$TDUPDATE
 40
2457754.93887
  9
$TDINDWG
 40
0.0000000116
  9
$TDUSRTIMER
 40
0.0000000116
  9
$USRTIMER
 70
     1
  9
$ANGBASE
 50
0.0
  9
$ANGDIR
 70
     0
  9
$PDMODE
 70
     0
  9
$PDSIZE
 40
0.0
  9
$PLINEWID
 40
0.0
  9
$COORDS
 70
     1
  9
$SPLFRAME
 70
     0
  9
$SPLINETYPE
 70
     6
  9
$SPLINESEGS
 70
     8
  9
$ATTDIA
 70
     0
  9
$ATTREQ
 70
     1
  9
$HANDLING
 70
     1
  9
$HANDSEED
  5
C5
  9
$SURFTAB1
 70
     6
  9
$SURFTAB2
 70
     6
  9
$SURFTYPE
 70
     6
  9
$SURFU
 70
     6
  9
$SURFV
 70
     6
  9
$UCSNAME
  2

  9
$UCSORG
 10
0.0
 20
0.0
 30
0.0
  9
$UCSXDIR
 10
1.0
 20
0.0
 30
0.0
  9
$UCSYDIR
 10
0.0
 20
1.0
 30
0.0
  9
$PUCSNAME
  2

  9
$PUCSORG
 10
0.0
 20
0.0
 30
0.0
  9
$PUCSXDIR
 10
1.0
 20
0.0
 30
0.0
  9
$PUCSYDIR
 10
0.0
 20
1.0
 30
0.0
  9
$USERI1
 70
     0
  9
$USERI2
 70
     0
  9
$USERI3
 70
     0
  9
$USERI4
 70
     0
  9
$USERI5
 70
     0
  9
$USERR1
 40
0.0
  9
$USERR2
 40
0.0
  9
$USERR3
 40
0.0
  9
$USERR4
 40
0.0
  9
$USERR5
 40
0.0
  9
$WORLDVIEW
 70
     1
  9
$SHADEDGE
 70
     3
  9
$SHADEDIF
 70
    70
  9
$TILEMODE
 70
     1
  9
$MAXACTVP
 70
    64
  9
$PLIMCHECK
 70
     0
  9
$PEXTMIN
 10
1.000000000000000E+20
 20
1.000000000000000E+20
 30
1.000000000000000E+20
  9
$PEXTMAX
 10
-1.000000000000000E+20
 20
-1.000000000000000E+20
 30
-1.000000000000000E+20
  9
$PLIMMIN
 10
0.0
 20
0.0
  9
$PLIMMAX
 10
12.0
 20
9.0
  9
$UNITMODE
 70
     0
  9
$VISRETAIN
 70
     1
  9
$PLINEGEN
 70
     0
  9
$PSLTSCALE
 70
     1
  0
ENDSEC
  0
SECTION
  2
TABLES
  0
TABLE
  2
VPORT
 70
     1
  0
VPORT
  2
*ACTIVE
 70
     0
 10
0.0
 20
0.0
 11
1.0
 21
1.0
 12
10.42990654205607
 22
4.5
 13
0.0
 23
0.0
 14
0.5
 24
0.5
 15
0.5
 25
0.5
 16
0.0
 26
0.0
 36
1.0
 17
0.0
 27
0.0
 37
0.0
 40
9.0
 41
1.972972972850329
 42
50.0
 43
0.0
 44
0.0
 50
0.0
 51
0.0
 71
     0
 72
   100
 73
     1
 74
     3
 75
     0
 76
     0
 77
     0
 78
     0
  0
ENDTAB
  0
TABLE
  2
LTYPE
 70
     2
  0
LTYPE
  2
CONTINUOUS
 70
     0
  3
Solid line
 72
    65
 73
     0
 40
0.0
  0
LTYPE
  2
CONTINUOUS2
 70
     0
  3
Solid Line
 72
    65
 73
     0
 40
0.0
  0
ENDTAB
  0
TABLE
  2
LAYER
 70
     3
  0
LAYER
  2
0
 70
     0
 62
     7
  6
CONTINUOUS
  0
LAYER
  2
LAYER_1
 70
     0
 62
    18
  6
CONTINUOUS
  0
LAYER
  2
3BACKPLATE
 70
     0
 62
    18
  6
CONTINUOUS
  0
ENDTAB
  0
TABLE
  2
STYLE
 70
     1
  0
STYLE
  2
STANDARD
 70
     0
 40
0.0
 41
1.0
 50
0.0
 71
     0
 42
0.2
  3
txt
  4

  0
ENDTAB
  0
TABLE
  2
VIEW
 70
     0
  0
ENDTAB
  0
TABLE
  2
UCS
 70
     0
  0
ENDTAB
  0
TABLE
  2
APPID
 70
     1
  0
APPID
  2
ACAD
 70
     0
  0
ENDTAB
  0
TABLE
  2
DIMSTYLE
 70
     1
  0
DIMSTYLE
  2
STANDARD
 70
     0
  3

  4

  5

  6

  7

 40
1.0
 41
0.18
 42
0.0625
 43
0.38
 44
0.18
 45
0.0
 46
0.0
 47
0.0
 48
0.0
140
0.18
141
0.09
142
0.0
143
25.4
144
1.0
145
0.0
146
1.0
147
0.09
 71
     0
 72
     0
 73
     1
 74
     1
 75
     0
 76
     0
 77
     0
 78
     0
170
     0
171
     2
172
     0
173
     0
174
     0
175
     0
176
     0
177
     0
178
     0
  0
ENDTAB
  0
ENDSEC
  0
SECTION
  2
BLOCKS
  0
BLOCK
  8
0
  2
$MODEL_SPACE
 70
     0
 10
0.0
 20
0.0
 30
0.0
  3
$MODEL_SPACE
  1

  0
ENDBLK
  5
21
  8
0
  0
BLOCK
 67
     1
  8
0
  2
$PAPER_SPACE
 70
     0
 10
0.0
 20
0.0
 30
0.0
  3
$PAPER_SPACE
  1

  0
ENDBLK
  5
1D
 67
     1
  8
0
  0
ENDSEC
  0
SECTION
  2
ENTITIES
  0
POLYLINE
  5
70
  8
LAYER_1
 66
     1
 10
0.0
 20
0.0
 30
0.0
 70
     1
  0
VERTEX
  5
7A
  8
LAYER_1
 10
0.0106677806449511
 20
0.6263797021125884
 30
0.0
 42
0.4142135623730951
  0
VERTEX
  5
7B
  8
LAYER_1
 10
-1.989332219355049
 20
-1.373620297887414
 30
0.0
 42
0.4142135623730951
  0
VERTEX
  5
7C
  8
LAYER_1
 10
0.0106677806449511
 20
-3.373620297887417
 30
0.0
 42
0.4142135623730951
  0
VERTEX
  5
7D
  8
LAYER_1
 10
2.010667780644951
 20
-1.373620297887414
 30
0.0
 42
0.4142135623730951
  0
SEQEND
  5
C3
  8
LAYER_1
  0
POLYLINE
  5
72
  8
3BACKPLATE
 66
     1
 10
0.0
 20
0.0
 30
0.0
 70
     1
  0
VERTEX
  5
7E
  8
3BACKPLATE
 10
2.139131464515543
 20
26.18020937134553
 30
0.0
  0
VERTEX
  5
7F
  8
3BACKPLATE
 10
0.2798254874990675
 20
28.77389427186012
 30
0.0
  0
VERTEX
  5
80
  8
3BACKPLATE
 10
-0.4223318682550996
 20
28.77389427186012
 30
0.0
  0
VERTEX
  5
81
  8
3BACKPLATE
 10
-2.268027072160152
 20
26.18020937134553
 30
0.0
  0
VERTEX
  5
82
  8
3BACKPLATE
 10
-2.481585642501642
 20
-0.0172938529550031
 30
0.0
  0
VERTEX
  5
83
  8
3BACKPLATE
 10
-2.503707905441671
 20
-0.1010196564608452
 30
0.0
  0
VERTEX
  5
84
  8
3BACKPLATE
 10
-2.546475310989346
 20
-0.1950813198122121
 30
0.0
  0
VERTEX
  5
85
  8
3BACKPLATE
 10
-2.670481808389752
 20
-0.3993485221802058
 30
0.0
  0
VERTEX
  5
86
  8
3BACKPLATE
 10
-2.806677651667091
 20
-0.6003680523163561
 30
0.0
  0
VERTEX
  5
87
  8
3BACKPLATE
 10
-2.908135357785596
 20
-0.7684125024780348
 30
0.0
  0
VERTEX
  5
88
  8
3BACKPLATE
 10
-3.07454481057922
 20
-1.132296970356219
 30
0.0
  0
VERTEX
  5
89
  8
3BACKPLATE
 10
-3.210522986822277
 20
-1.470901665951081
 30
0.0
  0
VERTEX
  5
8A
  8
3BACKPLATE
 10
-3.317454798315634
 20
-1.785126856491724
 30
0.0
  0
VERTEX
  5
8B
  8
3BACKPLATE
 10
-3.396725156860153
 20
-2.075872809207254
 30
0.0
  0
VERTEX
  5
8C
  8
3BACKPLATE
 10
-3.4497189742567
 20
-2.344039791326776
 30
0.0
  0
VERTEX
  5
8D
  8
3BACKPLATE
 10
-3.477821162306138
 20
-2.590528070079392
 30
0.0
  0
VERTEX
  5
8E
  8
3BACKPLATE
 10
-3.482416632809333
 20
-2.816237912694207
 30
0.0
  0
VERTEX
  5
8F
  8
3BACKPLATE
 10
-3.464890297567148
 20
-3.022069586400328
 30
0.0
  0
VERTEX
  5
90
  8
3BACKPLATE
 10
-3.426627068380448
 20
-3.208923358426856
 30
0.0
  0
VERTEX
  5
91
  8
3BACKPLATE
 10
-3.369011857050097
 20
-3.377699496002896
 30
0.0
  0
VERTEX
  5
92
  8
3BACKPLATE
 10
-3.293429575376959
 20
-3.529298266357555
 30
0.0
  0
VERTEX
  5
93
  8
3BACKPLATE
 10
-3.201265135161899
 20
-3.664619936719934
 30
0.0
  0
VERTEX
  5
94
  8
3BACKPLATE
 10
-3.093903448205781
 20
-3.784564774319139
 30
0.0
  0
VERTEX
  5
95
  8
3BACKPLATE
 10
-2.972729426309469
 20
-3.890033046384275
 30
0.0
  0
VERTEX
  5
96
  8
3BACKPLATE
 10
-2.839127981273828
 20
-3.981925020144445
 30
0.0
  0
VERTEX
  5
97
  8
3BACKPLATE
 10
-2.694484024899722
 20
-4.061140962828754
 30
0.0
  0
VERTEX
  5
98
  8
3BACKPLATE
 10
-2.540182468988016
 20
-4.128581141666306
 30
0.0
  0
VERTEX
  5
99
  8
3BACKPLATE
 10
-2.377608225339574
 20
-4.185145823886206
 30
0.0
  0
VERTEX
  5
9A
  8
3BACKPLATE
 10
-2.208146205755259
 20
-4.231735276717558
 30
0.0
  0
VERTEX
  5
9B
  8
3BACKPLATE
 10
-2.033181322035937
 20
-4.269249767389466
 30
0.0
  0
VERTEX
  5
9C
  8
3BACKPLATE
 10
-1.672282609395728
 20
-4.32065493117137
 30
0.0
  0
VERTEX
  5
9D
  8
3BACKPLATE
 10
-1.305991381825861
 20
-4.346563453064753
 30
0.0
  0
VERTEX
  5
9E
  8
3BACKPLATE
 10
-0.9453869337332499
 20
-4.354177470902449
 30
0.0
  0
VERTEX
  5
9F
  8
3BACKPLATE
 10
-0.6015485595248103
 20
-4.350699122517294
 30
0.0
  0
VERTEX
  5
A0
  8
3BACKPLATE
 10
-0.008487210388104
 20
-4.339273878409767
 30
0.0
  0
VERTEX
  5
A1
  8
3BACKPLATE
 10
0.5928676313075195
 20
-4.349820394588201
 30
0.0
  0
VERTEX
  5
A2
  8
3BACKPLATE
 10
0.9454732509176995
 20
-4.352124289298898
 30
0.0
  0
VERTEX
  5
A3
  8
3BACKPLATE
 10
1.316503392451871
 20
-4.342778163524049
 30
0.0
  0
VERTEX
  5
A4
  8
3BACKPLATE
 10
1.693812347971843
 20
-4.314529183588759
 30
0.0
  0
VERTEX
  5
A5
  8
3BACKPLATE
 10
1.881025847245819
 20
-4.291049612787542
 30
0.0
  0
VERTEX
  5
A6
  8
3BACKPLATE
 10
2.065254409539425
 20
-4.260124515818127
 30
0.0
  0
VERTEX
  5
A7
  8
3BACKPLATE
 10
2.244979821360385
 20
-4.220847288471154
 30
0.0
  0
VERTEX
  5
A8
  8
3BACKPLATE
 10
2.418683869216426
 20
-4.172311326537257
 30
0.0
  0
VERTEX
  5
A9
  8
3BACKPLATE
 10
2.584848339615273
 20
-4.113610025807077
 30
0.0
  0
VERTEX
  5
AA
  8
3BACKPLATE
 10
2.741955019064655
 20
-4.043836782071252
 30
0.0
  0
VERTEX
  5
AB
  8
3BACKPLATE
 10
2.888485694072296
 20
-3.962084991120417
 30
0.0
  0
VERTEX
  5
AC
  8
3BACKPLATE
 10
3.022922151145922
 20
-3.867448048745212
 30
0.0
  0
VERTEX
  5
AD
  8
3BACKPLATE
 10
3.143746176793261
 20
-3.759019350736273
 30
0.0
  0
VERTEX
  5
AE
  8
3BACKPLATE
 10
3.249439557522037
 20
-3.635892292884239
 30
0.0
  0
VERTEX
  5
AF
  8
3BACKPLATE
 10
3.338484079839977
 20
-3.497160270979747
 30
0.0
  0
VERTEX
  5
B0
  8
3BACKPLATE
 10
3.409361530254808
 20
-3.341916680813436
 30
0.0
  0
VERTEX
  5
B1
  8
3BACKPLATE
 10
3.460553695274255
 20
-3.169254918175942
 30
0.0
  0
VERTEX
  5
B2
  8
3BACKPLATE
 10
3.490542361406044
 20
-2.978268378857904
 30
0.0
  0
VERTEX
  5
B3
  8
3BACKPLATE
 10
3.497809315157903
 20
-2.76805045864996
 30
0.0
  0
VERTEX
  5
B4
  8
3BACKPLATE
 10
3.480836343037557
 20
-2.537694553342747
 30
0.0
  0
VERTEX
  5
B5
  8
3BACKPLATE
 10
3.438105231552731
 20
-2.286294058726902
 30
0.0
  0
VERTEX
  5
B6
  8
3BACKPLATE
 10
3.368097767211153
 20
-2.012942370593064
 30
0.0
  0
VERTEX
  5
B7
  8
3BACKPLATE
 10
3.269295736520548
 20
-1.716732884731871
 30
0.0
  0
VERTEX
  5
B8
  8
3BACKPLATE
 10
3.140180925988644
 20
-1.39675899693396
 30
0.0
  0
VERTEX
  5
B9
  8
3BACKPLATE
 10
2.979235122123164
 20
-1.05211410298997
 30
0.0
  0
VERTEX
  5
BA
  8
3BACKPLATE
 10
2.784940111431837
 20
-0.6818915986905365
 30
0.0
  0
VERTEX
  5
BB
  8
3BACKPLATE
 10
2.676502991556055
 20
-0.5306035747831348
 30
0.0
  0
VERTEX
  5
BC
  8
3BACKPLATE
 10
2.534076874549836
 20
-0.360211073357746
 30
0.0
  0
VERTEX
  5
BD
  8
3BACKPLATE
 10
2.465107182399839
 20
-0.2725102969202521
 30
0.0
  0
VERTEX
  5
BE
  8
3BACKPLATE
 10
2.405627329299665
 20
-0.1856249851165963
 30
0.0
  0
VERTEX
  5
BF
  8
3BACKPLATE
 10
2.361633011360125
 20
-0.1014189992845568
 30
0.0
  0
VERTEX
  5
C0
  8
3BACKPLATE
 10
2.339119924692028
 20
-0.0217562007619119
 30
0.0
  0
SEQEND
  5
C4
  8
3BACKPLATE
  0
ENDSEC
  0
EOF
