  0
SECTION
  2
HEADER
  9
$ACADVER
  1
AC1009
  9
$DWGCODEPAGE
  3
ansi_1252
  9
$INSBASE
 10
0.0
 20
0.0
 30
0.0
  9
$EXTMIN
 10
-16.5
 20
-16.5
 30
0.0
  9
$EXTMAX
 10
16.5
 20
16.5
 30
0.0
  9
$LIMMIN
 10
0.0
 20
0.0
  9
$LIMMAX
 10
12.0
 20
9.0
  9
$ORTHOMODE
 70
     0
  9
$REGENMODE
 70
     1
  9
$FILLMODE
 70
     1
  9
$QTEXTMODE
 70
     0
  9
$MIRRTEXT
 70
     1
  9
$DRAGMODE
 70
     2
  9
$LTSCALE
 40
1.0
  9
$OSMODE
 70
    37
  9
$ATTMODE
 70
     1
  9
$TEXTSIZE
 40
0.2
  9
$TRACEWID
 40
0.05
  9
$TEXTSTYLE
  7
STANDARD
  9
$CLAYER
  8
0
  9
$CELTYPE
  6
BYLAYER
  9
$CECOLOR
 62
   256
  9
$DIMSCALE
 40
1.0
  9
$DIMASZ
 40
0.18
  9
$DIMEXO
 40
0.0625
  9
$DIMDLI
 40
0.38
  9
$DIMRND
 40
0.0
  9
$DIMDLE
 40
0.0
  9
$DIMEXE
 40
0.18
  9
$DIMTP
 40
0.0
  9
$DIMTM
 40
0.0
  9
$DIMTXT
 40
0.18
  9
$DIMCEN
 40
0.09
  9
$DIMTSZ
 40
0.0
  9
$DIMTOL
 70
     0
  9
$DIMLIM
 70
     0
  9
$DIMTIH
 70
     1
  9
$DIMTOH
 70
     1
  9
$DIMSE1
 70
     0
  9
$DIMSE2
 70
     0
  9
$DIMTAD
 70
     0
  9
$DIMZIN
 70
     0
  9
$DIMBLK
  1

  9
$DIMASO
 70
     1
  9
$DIMSHO
 70
     1
  9
$DIMPOST
  1

  9
$DIMAPOST
  1

  9
$DIMALT
 70
     0
  9
$DIMALTD
 70
     2
  9
$DIMALTF
 40
25.4
  9
$DIMLFAC
 40
1.0
  9
$DIMTOFL
 70
     0
  9
$DIMTVP
 40
0.0
  9
$DIMTIX
 70
     0
  9
$DIMSOXD
 70
     0
  9
$DIMSAH
 70
     0
  9
$DIMBLK1
  1

  9
$DIMBLK2
  1

  9
$DIMSTYLE
  2
STANDARD
  9
$DIMCLRD
 70
     0
  9
$DIMCLRE
 70
     0
  9
$DIMCLRT
 70
     0
  9
$DIMTFAC
 40
1.0
  9
$DIMGAP
 40
0.09
  9
$LUNITS
 70
     2
  9
$LUPREC
 70
     4
  9
$SKETCHINC
 40
0.1
  9
$FILLETRAD
 40
0.5
  9
$AUNITS
 70
     0
  9
$AUPREC
 70
     0
  9
$MENU
  1
.
  9
$ELEVATION
 40
0.0
  9
$PELEVATION
 40
0.0
  9
$THICKNESS
 40
0.0
  9
$LIMCHECK
 70
     0
  9
$CHAMFERA
 40
0.0
  9
$CHAMFERB
 40
0.0
  9
$SKPOLY
 70
     0
  9
$TDCREATE
 40
2454910.5
  9
$TDUPDATE
 40
2458112.72612331
  9
$TDINDWG
 40
0.0000000116
  9
$TDUSRTIMER
 40
0.0000000116
  9
$USRTIMER
 70
     1
  9
$ANGBASE
 50
0.0
  9
$ANGDIR
 70
     0
  9
$PDMODE
 70
     0
  9
$PDSIZE
 40
0.0
  9
$PLINEWID
 40
0.0
  9
$COORDS
 70
     1
  9
$SPLFRAME
 70
     0
  9
$SPLINETYPE
 70
     6
  9
$SPLINESEGS
 70
     8
  9
$ATTDIA
 70
     0
  9
$ATTREQ
 70
     1
  9
$HANDLING
 70
     1
  9
$HANDSEED
  5
B5
  9
$SURFTAB1
 70
     6
  9
$SURFTAB2
 70
     6
  9
$SURFTYPE
 70
     6
  9
$SURFU
 70
     6
  9
$SURFV
 70
     6
  9
$UCSNAME
  2

  9
$UCSORG
 10
0.0
 20
0.0
 30
0.0
  9
$UCSXDIR
 10
1.0
 20
0.0
 30
0.0
  9
$UCSYDIR
 10
0.0
 20
1.0
 30
0.0
  9
$PUCSNAME
  2

  9
$PUCSORG
 10
0.0
 20
0.0
 30
0.0
  9
$PUCSXDIR
 10
1.0
 20
0.0
 30
0.0
  9
$PUCSYDIR
 10
0.0
 20
1.0
 30
0.0
  9
$USERI1
 70
     0
  9
$USERI2
 70
     0
  9
$USERI3
 70
     0
  9
$USERI4
 70
     0
  9
$USERI5
 70
     0
  9
$USERR1
 40
0.0
  9
$USERR2
 40
0.0
  9
$USERR3
 40
0.0
  9
$USERR4
 40
0.0
  9
$USERR5
 40
0.0
  9
$WORLDVIEW
 70
     1
  9
$SHADEDGE
 70
     3
  9
$SHADEDIF
 70
    70
  9
$TILEMODE
 70
     1
  9
$MAXACTVP
 70
    64
  9
$PLIMCHECK
 70
     0
  9
$PEXTMIN
 10
1.000000000000000E+20
 20
1.000000000000000E+20
 30
1.000000000000000E+20
  9
$PEXTMAX
 10
-1.000000000000000E+20
 20
-1.000000000000000E+20
 30
-1.000000000000000E+20
  9
$PLIMMIN
 10
0.0
 20
0.0
  9
$PLIMMAX
 10
12.0
 20
9.0
  9
$UNITMODE
 70
     0
  9
$VISRETAIN
 70
     1
  9
$PLINEGEN
 70
     0
  9
$PSLTSCALE
 70
     1
  0
ENDSEC
  0
SECTION
  2
TABLES
  0
TABLE
  2
VPORT
 70
     1
  0
VPORT
  2
*ACTIVE
 70
     0
 10
0.0
 20
0.0
 11
1.0
 21
1.0
 12
10.42990654205607
 22
4.5
 13
0.0
 23
0.0
 14
0.5
 24
0.5
 15
0.5
 25
0.5
 16
0.0
 26
0.0
 36
1.0
 17
0.0
 27
0.0
 37
0.0
 40
9.0
 41
1.972972972850329
 42
50.0
 43
0.0
 44
0.0
 50
0.0
 51
0.0
 71
     0
 72
   100
 73
     1
 74
     3
 75
     0
 76
     0
 77
     0
 78
     0
  0
ENDTAB
  0
TABLE
  2
LTYPE
 70
     2
  0
LTYPE
  2
CONTINUOUS
 70
     0
  3
Solid line
 72
    65
 73
     0
 40
0.0
  0
LTYPE
  2
CONTINUOUS2
 70
     0
  3
Solid Line
 72
    65
 73
     0
 40
0.0
  0
ENDTAB
  0
TABLE
  2
LAYER
 70
     2
  0
LAYER
  2
0
 70
     0
 62
     7
  6
CONTINUOUS
  0
LAYER
  2
INDICATORS
 70
     0
 62
    18
  6
CONTINUOUS
  0
ENDTAB
  0
TABLE
  2
STYLE
 70
     1
  0
STYLE
  2
STANDARD
 70
     0
 40
0.0
 41
1.0
 50
0.0
 71
     0
 42
0.2
  3
txt
  4

  0
ENDTAB
  0
TABLE
  2
VIEW
 70
     0
  0
ENDTAB
  0
TABLE
  2
UCS
 70
     0
  0
ENDTAB
  0
TABLE
  2
APPID
 70
     1
  0
APPID
  2
ACAD
 70
     0
  0
ENDTAB
  0
TABLE
  2
DIMSTYLE
 70
     1
  0
DIMSTYLE
  2
STANDARD
 70
     0
  3

  4

  5

  6

  7

 40
1.0
 41
0.18
 42
0.0625
 43
0.38
 44
0.18
 45
0.0
 46
0.0
 47
0.0
 48
0.0
140
0.18
141
0.09
142
0.0
143
25.4
144
1.0
145
0.0
146
1.0
147
0.09
 71
     0
 72
     0
 73
     1
 74
     1
 75
     0
 76
     0
 77
     0
 78
     0
170
     0
171
     2
172
     0
173
     0
174
     0
175
     0
176
     0
177
     0
178
     0
  0
ENDTAB
  0
ENDSEC
  0
SECTION
  2
BLOCKS
  0
BLOCK
  8
0
  2
$MODEL_SPACE
 70
     0
 10
0.0
 20
0.0
 30
0.0
  3
$MODEL_SPACE
  1

  0
ENDBLK
  5
21
  8
0
  0
BLOCK
 67
     1
  8
0
  2
$PAPER_SPACE
 70
     0
 10
0.0
 20
0.0
 30
0.0
  3
$PAPER_SPACE
  1

  0
ENDBLK
  5
1D
 67
     1
  8
0
  0
ENDSEC
  0
SECTION
  2
ENTITIES
  0
POLYLINE
  5
70
  8
INDICATORS
 66
     1
 10
0.0
 20
0.0
 30
0.0
 70
     1
  0
VERTEX
  5
79
  8
INDICATORS
 10
2.498890157671005
 20
-3.200754589870965
 30
0.0
  0
VERTEX
  5
7A
  8
INDICATORS
 10
2.628234849643468
 20
-3.097347008183667
 30
0.0
  0
VERTEX
  5
7B
  8
INDICATORS
 10
2.628234849643468
 20
3.142216503635511
 30
0.0
  0
VERTEX
  5
7C
  8
INDICATORS
 10
2.474787990009882
 20
3.189291936899479
 30
0.0
  0
VERTEX
  5
7D
  8
INDICATORS
 10
2.356510517141667
 20
3.207542277289543
 30
0.0
  0
VERTEX
  5
7E
  8
INDICATORS
 10
2.147900825246998
 20
3.222434099776643
 30
0.0
  0
VERTEX
  5
7F
  8
INDICATORS
 10
1.577459189451481
 20
3.236010393600001
 30
0.0
  0
VERTEX
  5
80
  8
INDICATORS
 10
0.8335772485267444
 20
3.235653417036572
 30
0.0
  0
VERTEX
  5
81
  8
INDICATORS
 10
0.0575090966925089
 20
2.996349386030229
 30
0.0
  0
VERTEX
  5
82
  8
INDICATORS
 10
-0.2420336082111926
 20
2.897913602723795
 30
0.0
  0
VERTEX
  5
83
  8
INDICATORS
 10
-0.5029042642392303
 20
2.79690696577194
 30
0.0
  0
VERTEX
  5
84
  8
INDICATORS
 10
-0.7353116083866877
 20
2.686649655774885
 30
0.0
  0
VERTEX
  5
85
  8
INDICATORS
 10
-0.949464377648648
 20
2.560461853332853
 30
0.0
  0
VERTEX
  5
86
  8
INDICATORS
 10
-1.155571309020195
 20
2.411663739046069
 30
0.0
  0
VERTEX
  5
87
  8
INDICATORS
 10
-1.363841139496412
 20
2.233575493514754
 30
0.0
  0
VERTEX
  5
88
  8
INDICATORS
 10
-1.584482606072382
 20
2.019517297339131
 30
0.0
  0
VERTEX
  5
89
  8
INDICATORS
 10
-1.827704445743189
 20
1.762809331119425
 30
0.0
  0
VERTEX
  5
8A
  8
INDICATORS
 10
-2.024839910752097
 20
1.536197506060642
 30
0.0
  0
VERTEX
  5
8B
  8
INDICATORS
 10
-2.190235145926035
 20
1.317926911453325
 30
0.0
  0
VERTEX
  5
8C
  8
INDICATORS
 10
-2.325571641350758
 20
1.104139601925696
 30
0.0
  0
VERTEX
  5
8D
  8
INDICATORS
 10
-2.432530887112021
 20
0.8909776321059799
 30
0.0
  0
VERTEX
  5
8E
  8
INDICATORS
 10
-2.512794373295578
 20
0.6745830566224009
 30
0.0
  0
VERTEX
  5
8F
  8
INDICATORS
 10
-2.568043589987184
 20
0.451097930103183
 30
0.0
  0
VERTEX
  5
90
  8
INDICATORS
 10
-2.599960027272594
 20
0.2166643071765502
 30
0.0
  0
VERTEX
  5
91
  8
INDICATORS
 10
-2.610225175237563
 20
-0.0325757575292735
 30
0.0
  0
VERTEX
  5
92
  8
INDICATORS
 10
-2.625593430730602
 20
-0.2972345225560399
 30
0.0
  0
VERTEX
  5
93
  8
INDICATORS
 10
-2.627514462667232
 20
-0.4340429720281809
 30
0.0
  0
VERTEX
  5
94
  8
INDICATORS
 10
-2.610225175237563
 20
-0.559438507212036
 30
0.0
  0
VERTEX
  5
95
  8
INDICATORS
 10
-2.568062841835043
 20
-0.6656829579046395
 30
0.0
  0
VERTEX
  5
96
  8
INDICATORS
 10
-2.505235872449467
 20
-0.7759222616375796
 30
0.0
  0
VERTEX
  5
97
  8
INDICATORS
 10
-2.374262045966624
 20
-0.9860009088776949
 30
0.0
  0
VERTEX
  5
98
  8
INDICATORS
 10
-2.265981124710293
 20
-1.169472632655416
 30
0.0
  0
VERTEX
  5
99
  8
INDICATORS
 10
-2.142557589600446
 20
-1.356432380900266
 30
0.0
  0
VERTEX
  5
9A
  8
INDICATORS
 10
-2.005657413461077
 20
-1.544858842205297
 30
0.0
  0
VERTEX
  5
9B
  8
INDICATORS
 10
-1.85694656911618
 20
-1.732730705163564
 30
0.0
  0
VERTEX
  5
9C
  8
INDICATORS
 10
-1.698091029389749
 20
-1.91802665836812
 30
0.0
  0
VERTEX
  5
9D
  8
INDICATORS
 10
-1.53075676710578
 20
-2.09872539041202
 30
0.0
  0
VERTEX
  5
9E
  8
INDICATORS
 10
-1.356609755088265
 20
-2.272805589888316
 30
0.0
  0
VERTEX
  5
9F
  8
INDICATORS
 10
-1.177315966161199
 20
-2.438245945390064
 30
0.0
  0
VERTEX
  5
A0
  8
INDICATORS
 10
-1.021906923352632
 20
-2.591168210067777
 30
0.0
  0
VERTEX
  5
A1
  8
INDICATORS
 10
-0.9378390745395221
 20
-2.667486306112712
 30
0.0
  0
VERTEX
  5
A2
  8
INDICATORS
 10
-0.8489770787350231
 20
-2.728799915981644
 30
0.0
  0
VERTEX
  5
A3
  8
INDICATORS
 10
-0.6870623099240162
 20
-2.809707678753143
 30
0.0
  0
VERTEX
  5
A4
  8
INDICATORS
 10
-0.5075030052768759
 20
-2.885838742364261
 30
0.0
  0
VERTEX
  5
A5
  8
INDICATORS
 10
-0.3149167100801444
 20
-2.956450966604425
 30
0.0
  0
VERTEX
  5
A6
  8
INDICATORS
 10
-0.1139209696203639
 20
-3.020802211263064
 30
0.0
  0
VERTEX
  5
A7
  8
INDICATORS
 10
0.2948286659421763
 20
-3.127753200993488
 30
0.0
  0
VERTEX
  5
A8
  8
INDICATORS
 10
0.6818055391184078
 20
-3.200754589870965
 30
0.0
  0
VERTEX
  5
A9
  8
INDICATORS
 10
0.891276673713449
 20
-3.22359801972515
 30
0.0
  0
VERTEX
  5
AA
  8
INDICATORS
 10
1.114987968859713
 20
-3.234320445983237
 30
0.0
  0
VERTEX
  5
AB
  8
INDICATORS
 10
1.586744686974341
 20
-3.230590906415207
 30
0.0
  0
VERTEX
  5
AC
  8
INDICATORS
 10
2.060302985799151
 20
-3.211943208575056
 30
0.0
  0
SEQEND
  5
B3
  8
INDICATORS
  0
POLYLINE
  5
71
  8
INDICATORS
 66
     1
 10
0.0
 20
0.0
 30
0.0
 70
     1
  0
VERTEX
  5
AD
  8
INDICATORS
 10
0.0
 20
16.5
 30
0.0
 42
0.4142135623730951
  0
VERTEX
  5
AE
  8
INDICATORS
 10
-16.5
 20
0.0
 30
0.0
 42
0.4142135623730951
  0
VERTEX
  5
AF
  8
INDICATORS
 10
0.0
 20
-16.5
 30
0.0
 42
0.4142135623730951
  0
VERTEX
  5
B0
  8
INDICATORS
 10
16.5
 20
0.0
 30
0.0
 42
0.4142135623730951
  0
SEQEND
  5
B4
  8
INDICATORS
  0
ENDSEC
  0
EOF
