  0
SECTION
  2
HEADER
  9
$ACADVER
  1
AC1009
  9
$DWGCODEPAGE
  3
ansi_1252
  9
$INSBASE
 10
0.0
 20
0.0
 30
0.0
  9
$EXTMIN
 10
-77.46672268929153
 20
119.7394792230546
 30
0.0
  9
$EXTMAX
 10
-17.69758741897061
 20
123.5566944137439
 30
0.0
  9
$LIMMIN
 10
0.0
 20
0.0
  9
$LIMMAX
 10
12.0
 20
9.0
  9
$ORTHOMODE
 70
     0
  9
$REGENMODE
 70
     1
  9
$FILLMODE
 70
     1
  9
$QTEXTMODE
 70
     0
  9
$MIRRTEXT
 70
     1
  9
$DRAGMODE
 70
     2
  9
$LTSCALE
 40
1.0
  9
$OSMODE
 70
    37
  9
$ATTMODE
 70
     1
  9
$TEXTSIZE
 40
0.2
  9
$TRACEWID
 40
0.05
  9
$TEXTSTYLE
  7
STANDARD
  9
$CLAYER
  8
0
  9
$CELTYPE
  6
BYLAYER
  9
$CECOLOR
 62
   256
  9
$DIMSCALE
 40
1.0
  9
$DIMASZ
 40
0.18
  9
$DIMEXO
 40
0.0625
  9
$DIMDLI
 40
0.38
  9
$DIMRND
 40
0.0
  9
$DIMDLE
 40
0.0
  9
$DIMEXE
 40
0.18
  9
$DIMTP
 40
0.0
  9
$DIMTM
 40
0.0
  9
$DIMTXT
 40
0.18
  9
$DIMCEN
 40
0.09
  9
$DIMTSZ
 40
0.0
  9
$DIMTOL
 70
     0
  9
$DIMLIM
 70
     0
  9
$DIMTIH
 70
     1
  9
$DIMTOH
 70
     1
  9
$DIMSE1
 70
     0
  9
$DIMSE2
 70
     0
  9
$DIMTAD
 70
     0
  9
$DIMZIN
 70
     0
  9
$DIMBLK
  1

  9
$DIMASO
 70
     1
  9
$DIMSHO
 70
     1
  9
$DIMPOST
  1

  9
$DIMAPOST
  1

  9
$DIMALT
 70
     0
  9
$DIMALTD
 70
     2
  9
$DIMALTF
 40
25.4
  9
$DIMLFAC
 40
1.0
  9
$DIMTOFL
 70
     0
  9
$DIMTVP
 40
0.0
  9
$DIMTIX
 70
     0
  9
$DIMSOXD
 70
     0
  9
$DIMSAH
 70
     0
  9
$DIMBLK1
  1

  9
$DIMBLK2
  1

  9
$DIMSTYLE
  2
STANDARD
  9
$DIMCLRD
 70
     0
  9
$DIMCLRE
 70
     0
  9
$DIMCLRT
 70
     0
  9
$DIMTFAC
 40
1.0
  9
$DIMGAP
 40
0.09
  9
$LUNITS
 70
     2
  9
$LUPREC
 70
     4
  9
$SKETCHINC
 40
0.1
  9
$FILLETRAD
 40
0.5
  9
$AUNITS
 70
     0
  9
$AUPREC
 70
     0
  9
$MENU
  1
.
  9
$ELEVATION
 40
0.0
  9
$PELEVATION
 40
0.0
  9
$THICKNESS
 40
0.0
  9
$LIMCHECK
 70
     0
  9
$CHAMFERA
 40
0.0
  9
$CHAMFERB
 40
0.0
  9
$SKPOLY
 70
     0
  9
$TDCREATE
 40
2454910.5
  9
$TDUPDATE
 40
2458014.661809757
  9
$TDINDWG
 40
0.0000000116
  9
$TDUSRTIMER
 40
0.0000000116
  9
$USRTIMER
 70
     1
  9
$ANGBASE
 50
0.0
  9
$ANGDIR
 70
     0
  9
$PDMODE
 70
     0
  9
$PDSIZE
 40
0.0
  9
$PLINEWID
 40
0.0
  9
$COORDS
 70
     1
  9
$SPLFRAME
 70
     0
  9
$SPLINETYPE
 70
     6
  9
$SPLINESEGS
 70
     8
  9
$ATTDIA
 70
     0
  9
$ATTREQ
 70
     1
  9
$HANDLING
 70
     1
  9
$HANDSEED
  5
4C8
  9
$SURFTAB1
 70
     6
  9
$SURFTAB2
 70
     6
  9
$SURFTYPE
 70
     6
  9
$SURFU
 70
     6
  9
$SURFV
 70
     6
  9
$UCSNAME
  2

  9
$UCSORG
 10
0.0
 20
0.0
 30
0.0
  9
$UCSXDIR
 10
1.0
 20
0.0
 30
0.0
  9
$UCSYDIR
 10
0.0
 20
1.0
 30
0.0
  9
$PUCSNAME
  2

  9
$PUCSORG
 10
0.0
 20
0.0
 30
0.0
  9
$PUCSXDIR
 10
1.0
 20
0.0
 30
0.0
  9
$PUCSYDIR
 10
0.0
 20
1.0
 30
0.0
  9
$USERI1
 70
     0
  9
$USERI2
 70
     0
  9
$USERI3
 70
     0
  9
$USERI4
 70
     0
  9
$USERI5
 70
     0
  9
$USERR1
 40
0.0
  9
$USERR2
 40
0.0
  9
$USERR3
 40
0.0
  9
$USERR4
 40
0.0
  9
$USERR5
 40
0.0
  9
$WORLDVIEW
 70
     1
  9
$SHADEDGE
 70
     3
  9
$SHADEDIF
 70
    70
  9
$TILEMODE
 70
     1
  9
$MAXACTVP
 70
    64
  9
$PLIMCHECK
 70
     0
  9
$PEXTMIN
 10
1.000000000000000E+20
 20
1.000000000000000E+20
 30
1.000000000000000E+20
  9
$PEXTMAX
 10
-1.000000000000000E+20
 20
-1.000000000000000E+20
 30
-1.000000000000000E+20
  9
$PLIMMIN
 10
0.0
 20
0.0
  9
$PLIMMAX
 10
12.0
 20
9.0
  9
$UNITMODE
 70
     0
  9
$VISRETAIN
 70
     1
  9
$PLINEGEN
 70
     0
  9
$PSLTSCALE
 70
     1
  0
ENDSEC
  0
SECTION
  2
TABLES
  0
TABLE
  2
VPORT
 70
     1
  0
VPORT
  2
*ACTIVE
 70
     0
 10
0.0
 20
0.0
 11
1.0
 21
1.0
 12
10.42990654205607
 22
4.5
 13
0.0
 23
0.0
 14
0.5
 24
0.5
 15
0.5
 25
0.5
 16
0.0
 26
0.0
 36
1.0
 17
0.0
 27
0.0
 37
0.0
 40
9.0
 41
1.972972972850329
 42
50.0
 43
0.0
 44
0.0
 50
0.0
 51
0.0
 71
     0
 72
   100
 73
     1
 74
     3
 75
     0
 76
     0
 77
     0
 78
     0
  0
ENDTAB
  0
TABLE
  2
LTYPE
 70
     2
  0
LTYPE
  2
CONTINUOUS
 70
     0
  3
Solid line
 72
    65
 73
     0
 40
0.0
  0
LTYPE
  2
CONTINUOUS2
 70
     0
  3
Solid Line
 72
    65
 73
     0
 40
0.0
  0
ENDTAB
  0
TABLE
  2
LAYER
 70
     2
  0
LAYER
  2
0
 70
     0
 62
     7
  6
CONTINUOUS
  0
LAYER
  2
LAYER_1
 70
     0
 62
    18
  6
CONTINUOUS
  0
ENDTAB
  0
TABLE
  2
STYLE
 70
     1
  0
STYLE
  2
STANDARD
 70
     0
 40
0.0
 41
1.0
 50
0.0
 71
     0
 42
0.2
  3
txt
  4

  0
ENDTAB
  0
TABLE
  2
VIEW
 70
     0
  0
ENDTAB
  0
TABLE
  2
UCS
 70
     0
  0
ENDTAB
  0
TABLE
  2
APPID
 70
     1
  0
APPID
  2
ACAD
 70
     0
  0
ENDTAB
  0
TABLE
  2
DIMSTYLE
 70
     1
  0
DIMSTYLE
  2
STANDARD
 70
     0
  3

  4

  5

  6

  7

 40
1.0
 41
0.18
 42
0.0625
 43
0.38
 44
0.18
 45
0.0
 46
0.0
 47
0.0
 48
0.0
140
0.18
141
0.09
142
0.0
143
25.4
144
1.0
145
0.0
146
1.0
147
0.09
 71
     0
 72
     0
 73
     1
 74
     1
 75
     0
 76
     0
 77
     0
 78
     0
170
     0
171
     2
172
     0
173
     0
174
     0
175
     0
176
     0
177
     0
178
     0
  0
ENDTAB
  0
ENDSEC
  0
SECTION
  2
BLOCKS
  0
BLOCK
  8
0
  2
$MODEL_SPACE
 70
     0
 10
0.0
 20
0.0
 30
0.0
  3
$MODEL_SPACE
  1

  0
ENDBLK
  5
21
  8
0
  0
BLOCK
 67
     1
  8
0
  2
$PAPER_SPACE
 70
     0
 10
0.0
 20
0.0
 30
0.0
  3
$PAPER_SPACE
  1

  0
ENDBLK
  5
1D
 67
     1
  8
0
  0
ENDSEC
  0
SECTION
  2
ENTITIES
  0
POLYLINE
  5
70
  8
LAYER_1
 66
     1
 10
0.0
 20
0.0
 30
0.0
 70
     1
  0
VERTEX
  5
9B
  8
LAYER_1
 10
-41.63592054334716
 20
121.0009846517103
 30
0.0
  0
VERTEX
  5
9C
  8
LAYER_1
 10
-42.50519870198737
 20
123.5566944137439
 30
0.0
  0
VERTEX
  5
9D
  8
LAYER_1
 10
-43.00154965722198
 20
123.3878696704905
 30
0.0
  0
VERTEX
  5
9E
  8
LAYER_1
 10
-42.63777827098677
 20
122.3183684139489
 30
0.0
  0
VERTEX
  5
9F
  8
LAYER_1
 10
-43.1578327102345
 20
122.1414813620396
 30
0.0
  0
VERTEX
  5
A0
  8
LAYER_1
 10
-43.5216040964697
 20
123.2109826185812
 30
0.0
  0
VERTEX
  5
A1
  8
LAYER_1
 10
-44.01795505170431
 20
123.0421578753277
 30
0.0
  0
VERTEX
  5
A2
  8
LAYER_1
 10
-43.14867689306411
 20
120.4864481132941
 30
0.0
  0
VERTEX
  5
A3
  8
LAYER_1
 10
-42.6523259378295
 20
120.6552728565475
 30
0.0
  0
VERTEX
  5
A4
  8
LAYER_1
 10
-43.00061769144548
 20
121.6792634237839
 30
0.0
  0
VERTEX
  5
A5
  8
LAYER_1
 10
-42.48056325219775
 20
121.8561504756932
 30
0.0
  0
VERTEX
  5
A6
  8
LAYER_1
 10
-42.13227149858177
 20
120.8321599084568
 30
0.0
  0
SEQEND
  5
4A4
  8
LAYER_1
  0
POLYLINE
  5
71
  8
LAYER_1
 66
     1
 10
0.0
 20
0.0
 30
0.0
 70
     1
  0
VERTEX
  5
A7
  8
LAYER_1
 10
-44.84974876157045
 20
120.1244551486322
 30
0.0
  0
VERTEX
  5
A8
  8
LAYER_1
 10
-44.71009830590827
 20
120.1576441323734
 30
0.0
  0
VERTEX
  5
A9
  8
LAYER_1
 10
-44.58604351872069
 20
120.2117055507358
 30
0.0
  0
VERTEX
  5
AA
  8
LAYER_1
 10
-44.4775844000077
 20
120.2866394037194
 30
0.0
  0
VERTEX
  5
AB
  8
LAYER_1
 10
-44.3847209497693
 20
120.3824456913242
 30
0.0
  0
VERTEX
  5
AC
  8
LAYER_1
 10
-44.30686043717586
 20
120.4954509371171
 30
0.0
  0
VERTEX
  5
AD
  8
LAYER_1
 10
-44.24341007084043
 20
120.6219816729816
 30
0.0
  0
VERTEX
  5
AE
  8
LAYER_1
 10
-44.19436985076303
 20
120.7620378989176
 30
0.0
  0
VERTEX
  5
AF
  8
LAYER_1
 10
-44.15973977694364
 20
120.9156196149253
 30
0.0
  0
VERTEX
  5
B0
  8
LAYER_1
 10
-44.13892711112933
 20
121.0790533185974
 30
0.0
  0
VERTEX
  5
B1
  8
LAYER_1
 10
-44.13133906282636
 20
121.2486655764006
 30
0.0
  0
VERTEX
  5
B2
  8
LAYER_1
 10
-44.13697563203473
 20
121.4244563883349
 30
0.0
  0
VERTEX
  5
B3
  8
LAYER_1
 10
-44.15583681875443
 20
121.6064257544004
 30
0.0
  0
VERTEX
  5
B4
  8
LAYER_1
 10
-44.18568019028099
 20
121.7880901488339
 30
0.0
  0
VERTEX
  5
B5
  8
LAYER_1
 10
-44.22529737233786
 20
121.9606143934227
 30
0.0
  0
VERTEX
  5
B6
  8
LAYER_1
 10
-44.27468836492501
 20
122.1239984881668
 30
0.0
  0
VERTEX
  5
B7
  8
LAYER_1
 10
-44.33385316804245
 20
122.2782424330663
 30
0.0
  0
VERTEX
  5
B8
  8
LAYER_1
 10
-44.40317898429414
 20
122.4193976001451
 30
0.0
  0
VERTEX
  5
B9
  8
LAYER_1
 10
-44.48305302460053
 20
122.5435154219846
 30
0.0
  0
VERTEX
  5
BA
  8
LAYER_1
 10
-44.57347528896163
 20
122.6505958985847
 30
0.0
  0
VERTEX
  5
BB
  8
LAYER_1
 10
-44.67444577737744
 20
122.7406390299455
 30
0.0
  0
VERTEX
  5
BC
  8
LAYER_1
 10
-44.7863517222108
 20
122.809696180148
 30
0.0
  0
VERTEX
  5
BD
  8
LAYER_1
 10
-44.90958030358371
 20
122.8538187821469
 30
0.0
  0
VERTEX
  5
BE
  8
LAYER_1
 10
-45.04413152149617
 20
122.8730068359421
 30
0.0
  0
VERTEX
  5
BF
  8
LAYER_1
 10
-45.1900053759482
 20
122.8672603415338
 30
0.0
  0
VERTEX
  5
C0
  8
LAYER_1
 10
-45.2839726708507
 20
122.8504334899598
 30
0.0
  0
VERTEX
  5
C1
  8
LAYER_1
 10
-45.37172239871565
 20
122.823565987177
 30
0.0
  0
VERTEX
  5
C2
  8
LAYER_1
 10
-45.45325455954303
 20
122.7866578331853
 30
0.0
  0
VERTEX
  5
C3
  8
LAYER_1
 10
-45.52856915333286
 20
122.7397090279849
 30
0.0
  0
VERTEX
  5
C4
  8
LAYER_1
 10
-45.59766618008513
 20
122.6827195715756
 30
0.0
  0
VERTEX
  5
C5
  8
LAYER_1
 10
-45.66054563979984
 20
122.6156894639576
 30
0.0
  0
VERTEX
  5
C6
  8
LAYER_1
 10
-45.71720753247699
 20
122.5386187051307
 30
0.0
  0
VERTEX
  5
C7
  8
LAYER_1
 10
-45.76765185811659
 20
122.451507295095
 30
0.0
  0
VERTEX
  5
C8
  8
LAYER_1
 10
-45.81051953089217
 20
122.3533979578613
 30
0.0
  0
VERTEX
  5
C9
  8
LAYER_1
 10
-45.84445143885688
 20
122.2433334518774
 30
0.0
  0
VERTEX
  5
CA
  8
LAYER_1
 10
-45.86944758201072
 20
122.1213137771431
 30
0.0
  0
VERTEX
  5
CB
  8
LAYER_1
 10
-45.88550796035368
 20
121.9873389336586
 30
0.0
  0
VERTEX
  5
CC
  8
LAYER_1
 10
-45.89263257388578
 20
121.8414089214239
 30
0.0
  0
VERTEX
  5
CD
  8
LAYER_1
 10
-45.890821422607
 20
121.6835237404388
 30
0.0
  0
VERTEX
  5
CE
  8
LAYER_1
 10
-45.88007450651737
 20
121.5136833907035
 30
0.0
  0
VERTEX
  5
CF
  8
LAYER_1
 10
-45.86039182561685
 20
121.3318878722179
 30
0.0
  0
VERTEX
  5
D0
  8
LAYER_1
 10
-45.83551823338193
 20
121.1765382270804
 30
0.0
  0
VERTEX
  5
D1
  8
LAYER_1
 10
-45.8012933697026
 20
121.0240073303525
 30
0.0
  0
VERTEX
  5
D2
  8
LAYER_1
 10
-45.75771723457886
 20
120.8742951820343
 30
0.0
  0
VERTEX
  5
D3
  8
LAYER_1
 10
-45.7047898280107
 20
120.7274017821257
 30
0.0
  0
VERTEX
  5
D4
  8
LAYER_1
 10
-45.64132395078045
 20
120.5892111991927
 30
0.0
  0
VERTEX
  5
D5
  8
LAYER_1
 10
-45.56613240367042
 20
120.4656075018015
 30
0.0
  0
VERTEX
  5
D6
  8
LAYER_1
 10
-45.47921518668062
 20
120.3565906899518
 30
0.0
  0
VERTEX
  5
D7
  8
LAYER_1
 10
-45.38057229981104
 20
120.2621607636439
 30
0.0
  0
VERTEX
  5
D8
  8
LAYER_1
 10
-45.2690165373139
 20
120.1882018000528
 30
0.0
  0
VERTEX
  5
D9
  8
LAYER_1
 10
-45.14336069344142
 20
120.1405978763538
 30
0.0
  0
VERTEX
  5
DA
  8
LAYER_1
 10
-45.0036047681936
 20
120.119348992547
 30
0.0
  0
SEQEND
  5
4A5
  8
LAYER_1
  0
POLYLINE
  5
72
  8
LAYER_1
 66
     1
 10
0.0
 20
0.0
 30
0.0
 70
     1
  0
VERTEX
  5
DB
  8
LAYER_1
 10
-44.89195497628605
 20
120.5791163799811
 30
0.0
  0
VERTEX
  5
DC
  8
LAYER_1
 10
-44.94831700043065
 20
120.5808414414614
 30
0.0
  0
VERTEX
  5
DD
  8
LAYER_1
 10
-45.00059527175046
 20
120.5984630729435
 30
0.0
  0
VERTEX
  5
DE
  8
LAYER_1
 10
-45.04878979024546
 20
120.6319812744274
 30
0.0
  0
VERTEX
  5
DF
  8
LAYER_1
 10
-45.09290055591566
 20
120.6813960459129
 30
0.0
  0
VERTEX
  5
E0
  8
LAYER_1
 10
-45.1331985313332
 20
120.7439738208739
 30
0.0
  0
VERTEX
  5
E1
  8
LAYER_1
 10
-45.16995468738671
 20
120.8169810933411
 30
0.0
  0
VERTEX
  5
E2
  8
LAYER_1
 10
-45.23284154140165
 20
120.9942841307944
 30
0.0
  0
VERTEX
  5
E3
  8
LAYER_1
 10
-45.28264510807576
 20
121.2023710117882
 30
0.0
  0
VERTEX
  5
E4
  8
LAYER_1
 10
-45.32044925640973
 20
121.4303076064712
 30
0.0
  0
VERTEX
  5
E5
  8
LAYER_1
 10
-45.3439385295984
 20
121.6288558494958
 30
0.0
  0
VERTEX
  5
E6
  8
LAYER_1
 10
-45.35570205919311
 20
121.8090123877933
 30
0.0
  0
VERTEX
  5
E7
  8
LAYER_1
 10
-45.35573984519385
 20
121.9707772213635
 30
0.0
  0
VERTEX
  5
E8
  8
LAYER_1
 10
-45.34405188760063
 20
122.1141503502066
 30
0.0
  0
VERTEX
  5
E9
  8
LAYER_1
 10
-45.31862298975027
 20
122.2334363292372
 30
0.0
  0
VERTEX
  5
EA
  8
LAYER_1
 10
-45.27743790273882
 20
122.3229397822437
 30
0.0
  0
VERTEX
  5
EB
  8
LAYER_1
 10
-45.25093678829768
 20
122.356523061488
 30
0.0
  0
VERTEX
  5
EC
  8
LAYER_1
 10
-45.22049662656626
 20
122.3826607092263
 30
0.0
  0
VERTEX
  5
ED
  8
LAYER_1
 10
-45.18611741754457
 20
122.4013527254587
 30
0.0
  0
VERTEX
  5
EE
  8
LAYER_1
 10
-45.1477991612326
 20
122.412599110185
 30
0.0
  0
VERTEX
  5
EF
  8
LAYER_1
 10
-45.10884286378292
 20
122.4141927788334
 30
0.0
  0
VERTEX
  5
F0
  8
LAYER_1
 10
-45.07125000853603
 20
122.408276181638
 30
0.0
  0
VERTEX
  5
F1
  8
LAYER_1
 10
-45.00015462465062
 20
122.3739121897151
 30
0.0
  0
VERTEX
  5
F2
  8
LAYER_1
 10
-44.93451300957638
 20
122.3095071344165
 30
0.0
  0
VERTEX
  5
F3
  8
LAYER_1
 10
-44.87432516331332
 20
122.215061015742
 30
0.0
  0
VERTEX
  5
F4
  8
LAYER_1
 10
-44.82009487843854
 20
122.0907890422936
 30
0.0
  0
VERTEX
  5
F5
  8
LAYER_1
 10
-44.77232594752918
 20
121.9369064226732
 30
0.0
  0
VERTEX
  5
F6
  8
LAYER_1
 10
-44.73101837058523
 20
121.7534131568808
 30
0.0
  0
VERTEX
  5
F7
  8
LAYER_1
 10
-44.69617214760669
 20
121.5403092449163
 30
0.0
  0
VERTEX
  5
F8
  8
LAYER_1
 10
-44.67347058647046
 20
121.3342591240776
 30
0.0
  0
VERTEX
  5
F9
  8
LAYER_1
 10
-44.66436947878834
 20
121.1512730189511
 30
0.0
  0
VERTEX
  5
FA
  8
LAYER_1
 10
-44.66886882456035
 20
120.9913509295369
 30
0.0
  0
VERTEX
  5
FB
  8
LAYER_1
 10
-44.68696862378648
 20
120.854492855835
 30
0.0
  0
VERTEX
  5
FC
  8
LAYER_1
 10
-44.71845529028259
 20
120.7432872767098
 30
0.0
  0
VERTEX
  5
FD
  8
LAYER_1
 10
-44.76311523786456
 20
120.6603226710258
 30
0.0
  0
VERTEX
  5
FE
  8
LAYER_1
 10
-44.82094846653239
 20
120.6055990387829
 30
0.0
  0
VERTEX
  5
FF
  8
LAYER_1
 10
-44.85480506127348
 20
120.5888275877018
 30
0.0
  0
SEQEND
  5
4A6
  8
LAYER_1
  0
POLYLINE
  5
73
  8
LAYER_1
 66
     1
 10
0.0
 20
0.0
 30
0.0
 70
     1
  0
VERTEX
  5
100
  8
LAYER_1
 10
-46.39172154971242
 20
122.7848563040571
 30
0.0
  0
VERTEX
  5
101
  8
LAYER_1
 10
-47.59770546593419
 20
122.9504775340014
 30
0.0
  0
VERTEX
  5
102
  8
LAYER_1
 10
-47.65813575427667
 20
122.5104496715214
 30
0.0
  0
VERTEX
  5
103
  8
LAYER_1
 10
-46.97155338486041
 20
122.4161593456297
 30
0.0
  0
VERTEX
  5
104
  8
LAYER_1
 10
-47.27840572541425
 20
120.1817900713073
 30
0.0
  0
VERTEX
  5
105
  8
LAYER_1
 10
-46.75900417860875
 20
120.1104591672548
 30
0.0
  0
SEQEND
  5
4A7
  8
LAYER_1
  0
POLYLINE
  5
74
  8
LAYER_1
 66
     1
 10
0.0
 20
0.0
 30
0.0
 70
     1
  0
VERTEX
  5
106
  8
LAYER_1
 10
-47.89669312043326
 20
123.0229941699498
 30
0.0
  0
VERTEX
  5
107
  8
LAYER_1
 10
-48.07402261799871
 20
123.102856362671
 30
0.0
  0
VERTEX
  5
108
  8
LAYER_1
 10
-48.2968764014715
 20
123.1886936481225
 30
0.0
  0
VERTEX
  5
109
  8
LAYER_1
 10
-48.42701229777586
 20
123.2288297337088
 30
0.0
  0
VERTEX
  5
10A
  8
LAYER_1
 10
-48.55058604886236
 20
123.2582150841503
 30
0.0
  0
VERTEX
  5
10B
  8
LAYER_1
 10
-48.66759765473102
 20
123.276849699447
 30
0.0
  0
VERTEX
  5
10C
  8
LAYER_1
 10
-48.77804711538182
 20
123.2847335795988
 30
0.0
  0
VERTEX
  5
10D
  8
LAYER_1
 10
-48.88242925193079
 20
123.2818369321685
 30
0.0
  0
VERTEX
  5
10E
  8
LAYER_1
 10
-48.98123888549397
 20
123.268129964719
 30
0.0
  0
VERTEX
  5
10F
  8
LAYER_1
 10
-49.07447601607134
 20
123.2436126772503
 30
0.0
  0
VERTEX
  5
110
  8
LAYER_1
 10
-49.16214064366292
 20
123.2082850697623
 30
0.0
  0
VERTEX
  5
111
  8
LAYER_1
 10
-49.26976215099701
 20
123.1534131727121
 30
0.0
  0
VERTEX
  5
112
  8
LAYER_1
 10
-49.37314867807231
 20
123.0798227982957
 30
0.0
  0
VERTEX
  5
113
  8
LAYER_1
 10
-49.47230022488884
 20
122.987513946513
 30
0.0
  0
VERTEX
  5
114
  8
LAYER_1
 10
-49.5672167914466
 20
122.8764866173642
 30
0.0
  0
VERTEX
  5
115
  8
LAYER_1
 10
-49.65673834063559
 20
122.7469473433892
 30
0.0
  0
VERTEX
  5
116
  8
LAYER_1
 10
-49.73970483534586
 20
122.5991026571278
 30
0.0
  0
VERTEX
  5
117
  8
LAYER_1
 10
-49.81611627557742
 20
122.4329525585801
 30
0.0
  0
VERTEX
  5
118
  8
LAYER_1
 10
-49.88597266133026
 20
122.2484970477461
 30
0.0
  0
VERTEX
  5
119
  8
LAYER_1
 10
-49.94143577998669
 20
122.0678586225534
 30
0.0
  0
VERTEX
  5
11A
  8
LAYER_1
 10
-49.98148853788976
 20
121.8981539677694
 30
0.0
  0
VERTEX
  5
11B
  8
LAYER_1
 10
-50.00613093503945
 20
121.739383083394
 30
0.0
  0
VERTEX
  5
11C
  8
LAYER_1
 10
-50.01536297143576
 20
121.5915459694272
 30
0.0
  0
VERTEX
  5
11D
  8
LAYER_1
 10
-50.00951154501341
 20
121.4542639814854
 30
0.0
  0
VERTEX
  5
11E
  8
LAYER_1
 10
-49.98890349583728
 20
121.3271584555016
 30
0.0
  0
VERTEX
  5
11F
  8
LAYER_1
 10
-49.95353882390737
 20
121.2102293914758
 30
0.0
  0
VERTEX
  5
120
  8
LAYER_1
 10
-49.90341752922368
 20
121.1034767894079
 30
0.0
  0
VERTEX
  5
121
  8
LAYER_1
 10
-49.8577253738616
 20
121.0285033619269
 30
0.0
  0
VERTEX
  5
122
  8
LAYER_1
 10
-49.80301478682559
 20
120.958386763998
 30
0.0
  0
VERTEX
  5
123
  8
LAYER_1
 10
-49.73928576811566
 20
120.8931269956213
 30
0.0
  0
VERTEX
  5
124
  8
LAYER_1
 10
-49.66653831773178
 20
120.8327240567968
 30
0.0
  0
VERTEX
  5
125
  8
LAYER_1
 10
-49.5838880931797
 20
120.7768771222387
 30
0.0
  0
VERTEX
  5
126
  8
LAYER_1
 10
-49.49045073228172
 20
120.7252854245311
 30
0.0
  0
VERTEX
  5
127
  8
LAYER_1
 10
-49.38622623503784
 20
120.6779489636741
 30
0.0
  0
VERTEX
  5
128
  8
LAYER_1
 10
-49.27121460144809
 20
120.6348677396675
 30
0.0
  0
VERTEX
  5
129
  8
LAYER_1
 10
-48.98773106708423
 20
120.5532378941114
 30
0.0
  0
VERTEX
  5
12A
  8
LAYER_1
 10
-48.86126870110211
 20
120.5275253155293
 30
0.0
  0
VERTEX
  5
12B
  8
LAYER_1
 10
-48.75052221472905
 20
120.5127052253691
 30
0.0
  0
SEQEND
  5
4A8
  8
LAYER_1
  0
POLYLINE
  5
75
  8
LAYER_1
 66
     1
 10
0.0
 20
0.0
 30
0.0
 70
     1
  0
VERTEX
  5
12C
  8
LAYER_1
 10
-49.12446234637041
 20
121.041422292761
 30
0.0
  0
VERTEX
  5
12D
  8
LAYER_1
 10
-49.17577628413916
 20
121.0477542540846
 30
0.0
  0
VERTEX
  5
12E
  8
LAYER_1
 10
-49.22703099562226
 20
121.0635988658981
 30
0.0
  0
VERTEX
  5
12F
  8
LAYER_1
 10
-49.27975622349034
 20
121.0863189454196
 30
0.0
  0
VERTEX
  5
130
  8
LAYER_1
 10
-49.32649806030994
 20
121.1145926231711
 30
0.0
  0
VERTEX
  5
131
  8
LAYER_1
 10
-49.36725650608106
 20
121.1484198991523
 30
0.0
  0
VERTEX
  5
132
  8
LAYER_1
 10
-49.40203156080372
 20
121.1878007733635
 30
0.0
  0
VERTEX
  5
133
  8
LAYER_1
 10
-49.4308232244779
 20
121.2327352458045
 30
0.0
  0
VERTEX
  5
134
  8
LAYER_1
 10
-49.45363149710361
 20
121.2832233164754
 30
0.0
  0
VERTEX
  5
135
  8
LAYER_1
 10
-49.48129786920961
 20
121.4008602525068
 30
0.0
  0
VERTEX
  5
136
  8
LAYER_1
 10
-49.48656085470309
 20
121.5382554863562
 30
0.0
  0
VERTEX
  5
137
  8
LAYER_1
 10
-49.47095061148203
 20
121.6929529807918
 30
0.0
  0
VERTEX
  5
138
  8
LAYER_1
 10
-49.43446713954645
 20
121.8649527358136
 30
0.0
  0
VERTEX
  5
139
  8
LAYER_1
 10
-49.37711043889635
 20
122.0542547514216
 30
0.0
  0
VERTEX
  5
13A
  8
LAYER_1
 10
-49.28444083567348
 20
122.2923198337695
 30
0.0
  0
VERTEX
  5
13B
  8
LAYER_1
 10
-49.1895047547897
 20
122.4865624333167
 30
0.0
  0
VERTEX
  5
13C
  8
LAYER_1
 10
-49.09230219624499
 20
122.6369825500632
 30
0.0
  0
VERTEX
  5
13D
  8
LAYER_1
 10
-49.0428509878498
 20
122.6957591773862
 30
0.0
  0
VERTEX
  5
13E
  8
LAYER_1
 10
-48.99283316003937
 20
122.7435801840089
 30
0.0
  0
VERTEX
  5
13F
  8
LAYER_1
 10
-48.89340416344436
 20
122.8132900452352
 30
0.0
  0
VERTEX
  5
140
  8
LAYER_1
 10
-48.79632170404813
 20
122.853046901693
 30
0.0
  0
VERTEX
  5
141
  8
LAYER_1
 10
-48.70158578185067
 20
122.8628507533823
 30
0.0
  0
VERTEX
  5
142
  8
LAYER_1
 10
-48.60919639685198
 20
122.8427016003032
 30
0.0
  0
VERTEX
  5
143
  8
LAYER_1
 10
-48.56444243780468
 20
122.8264212036216
 30
0.0
  0
VERTEX
  5
144
  8
LAYER_1
 10
-48.52447098532962
 20
122.8054189643746
 30
0.0
  0
SEQEND
  5
4A9
  8
LAYER_1
  0
POLYLINE
  5
76
  8
LAYER_1
 66
     1
 10
0.0
 20
0.0
 30
0.0
 70
     1
  0
VERTEX
  5
145
  8
LAYER_1
 10
-53.89015100118694
 20
120.3658538860769
 30
0.0
  0
VERTEX
  5
146
  8
LAYER_1
 10
-53.67603948742088
 20
120.3458490295258
 30
0.0
  0
VERTEX
  5
147
  8
LAYER_1
 10
-53.40189677780769
 20
120.3378470013294
 30
0.0
  0
VERTEX
  5
148
  8
LAYER_1
 10
-53.24074125795433
 20
120.3424106279498
 30
0.0
  0
VERTEX
  5
149
  8
LAYER_1
 10
-53.09492378400792
 20
120.3556013772286
 30
0.0
  0
VERTEX
  5
14A
  8
LAYER_1
 10
-52.96444435596845
 20
120.3774192491657
 30
0.0
  0
VERTEX
  5
14B
  8
LAYER_1
 10
-52.84930297383594
 20
120.407864243761
 30
0.0
  0
VERTEX
  5
14C
  8
LAYER_1
 10
-52.7478941936842
 20
120.4465612630777
 30
0.0
  0
VERTEX
  5
14D
  8
LAYER_1
 10
-52.6586125715871
 20
120.4931352091787
 30
0.0
  0
VERTEX
  5
14E
  8
LAYER_1
 10
-52.58145810754459
 20
120.5475860820641
 30
0.0
  0
VERTEX
  5
14F
  8
LAYER_1
 10
-52.51643080155669
 20
120.6099138817338
 30
0.0
  0
VERTEX
  5
150
  8
LAYER_1
 10
-52.43113277272963
 20
120.7166834174664
 30
0.0
  0
VERTEX
  5
151
  8
LAYER_1
 10
-52.36834789408092
 20
120.8396805463237
 30
0.0
  0
VERTEX
  5
152
  8
LAYER_1
 10
-52.32957661848419
 20
120.9800096876858
 30
0.0
  0
VERTEX
  5
153
  8
LAYER_1
 10
-52.31631939881305
 20
121.1387752609327
 30
0.0
  0
VERTEX
  5
154
  8
LAYER_1
 10
-52.3242925680323
 20
121.248835785944
 30
0.0
  0
VERTEX
  5
155
  8
LAYER_1
 10
-52.34746175756466
 20
121.3523041702481
 30
0.0
  0
VERTEX
  5
156
  8
LAYER_1
 10
-52.38582696741014
 20
121.449180413845
 30
0.0
  0
VERTEX
  5
157
  8
LAYER_1
 10
-52.43938819756873
 20
121.5394645167349
 30
0.0
  0
VERTEX
  5
158
  8
LAYER_1
 10
-52.50758268652426
 20
121.6199704004639
 30
0.0
  0
VERTEX
  5
159
  8
LAYER_1
 10
-52.58984773388627
 20
121.6875119254529
 30
0.0
  0
VERTEX
  5
15A
  8
LAYER_1
 10
-52.68618333965478
 20
121.7420890917018
 30
0.0
  0
VERTEX
  5
15B
  8
LAYER_1
 10
-52.79658950382974
 20
121.7837018992105
 30
0.0
  0
VERTEX
  5
15C
  8
LAYER_1
 10
-52.79658950382974
 20
121.7997050998434
 30
0.0
  0
VERTEX
  5
15D
  8
LAYER_1
 10
-52.70289034174554
 20
121.8490939232253
 30
0.0
  0
VERTEX
  5
15E
  8
LAYER_1
 10
-52.62222443472055
 20
121.9068576034484
 30
0.0
  0
VERTEX
  5
15F
  8
LAYER_1
 10
-52.55459178275478
 20
121.9729961405129
 30
0.0
  0
VERTEX
  5
160
  8
LAYER_1
 10
-52.49999238584824
 20
122.0475095344188
 30
0.0
  0
VERTEX
  5
161
  8
LAYER_1
 10
-52.45795890736322
 20
122.1278587911493
 30
0.0
  0
VERTEX
  5
162
  8
LAYER_1
 10
-52.42802401066206
 20
122.2115048555624
 30
0.0
  0
VERTEX
  5
163
  8
LAYER_1
 10
-52.41018769574474
 20
122.2984477276579
 30
0.0
  0
VERTEX
  5
164
  8
LAYER_1
 10
-52.40444996261127
 20
122.3886874074359
 30
0.0
  0
VERTEX
  5
165
  8
LAYER_1
 10
-52.41608145226029
 20
122.5276477607099
 30
0.0
  0
VERTEX
  5
166
  8
LAYER_1
 10
-52.45247619070381
 20
122.6586642774662
 30
0.0
  0
VERTEX
  5
167
  8
LAYER_1
 10
-52.48052237928469
 20
122.7199740398493
 30
0.0
  0
VERTEX
  5
168
  8
LAYER_1
 10
-52.51588458218657
 20
122.7768587285011
 30
0.0
  0
VERTEX
  5
169
  8
LAYER_1
 10
-52.55856279940942
 20
122.8293183434218
 30
0.0
  0
VERTEX
  5
16A
  8
LAYER_1
 10
-52.60855703095326
 20
122.8773528846113
 30
0.0
  0
VERTEX
  5
16B
  8
LAYER_1
 10
-52.68191827775842
 20
122.9309887339839
 30
0.0
  0
VERTEX
  5
16C
  8
LAYER_1
 10
-52.75943087735258
 20
122.9748727552222
 30
0.0
  0
VERTEX
  5
16D
  8
LAYER_1
 10
-52.84109482973574
 20
123.0090049483263
 30
0.0
  0
VERTEX
  5
16E
  8
LAYER_1
 10
-52.9269101349079
 20
123.0333853132962
 30
0.0
  0
VERTEX
  5
16F
  8
LAYER_1
 10
-53.10649506482976
 20
123.0618918701835
 30
0.0
  0
VERTEX
  5
170
  8
LAYER_1
 10
-53.29368605058013
 20
123.0693937372344
 30
0.0
  0
VERTEX
  5
171
  8
LAYER_1
 10
-53.61748973435065
 20
123.0568899836629
 30
0.0
  0
VERTEX
  5
172
  8
LAYER_1
 10
-53.76151912074086
 20
123.0406984241458
 30
0.0
  0
VERTEX
  5
173
  8
LAYER_1
 10
-53.89015100118694
 20
123.017380890149
 30
0.0
  0
SEQEND
  5
4AA
  8
LAYER_1
  0
POLYLINE
  5
77
  8
LAYER_1
 66
     1
 10
0.0
 20
0.0
 30
0.0
 70
     1
  0
VERTEX
  5
174
  8
LAYER_1
 10
-53.36587429495548
 20
122.6612780129481
 30
0.0
  0
VERTEX
  5
175
  8
LAYER_1
 10
-53.30672000858505
 20
122.6738052387934
 30
0.0
  0
VERTEX
  5
176
  8
LAYER_1
 10
-53.22951872224649
 20
122.6773128767003
 30
0.0
  0
VERTEX
  5
177
  8
LAYER_1
 10
-53.15426004926625
 20
122.6697495859486
 30
0.0
  0
VERTEX
  5
178
  8
LAYER_1
 10
-53.08990487397627
 20
122.6504421050149
 30
0.0
  0
VERTEX
  5
179
  8
LAYER_1
 10
-53.03645319637655
 20
122.619390433899
 30
0.0
  0
VERTEX
  5
17A
  8
LAYER_1
 10
-52.9939050164671
 20
122.576594572601
 30
0.0
  0
VERTEX
  5
17B
  8
LAYER_1
 10
-52.96150830460257
 20
122.5245912878694
 30
0.0
  0
VERTEX
  5
17C
  8
LAYER_1
 10
-52.93851103113763
 20
122.4659172853267
 30
0.0
  0
VERTEX
  5
17D
  8
LAYER_1
 10
-52.92491319607228
 20
122.400572564973
 30
0.0
  0
VERTEX
  5
17E
  8
LAYER_1
 10
-52.92071479940652
 20
122.3285571268082
 30
0.0
  0
VERTEX
  5
17F
  8
LAYER_1
 10
-52.92787401099259
 20
122.2483051363682
 30
0.0
  0
VERTEX
  5
180
  8
LAYER_1
 10
-52.94621858621235
 20
122.1760391973915
 30
0.0
  0
VERTEX
  5
181
  8
LAYER_1
 10
-52.97574852506581
 20
122.111759309878
 30
0.0
  0
VERTEX
  5
182
  8
LAYER_1
 10
-53.01646382755297
 20
122.0554654738277
 30
0.0
  0
VERTEX
  5
183
  8
LAYER_1
 10
-53.06601464553499
 20
122.0095065249848
 30
0.0
  0
VERTEX
  5
184
  8
LAYER_1
 10
-53.12205119199878
 20
121.9762312990936
 30
0.0
  0
VERTEX
  5
185
  8
LAYER_1
 10
-53.18457346694431
 20
121.9556397961541
 30
0.0
  0
VERTEX
  5
186
  8
LAYER_1
 10
-53.25358147037161
 20
121.9477320161662
 30
0.0
  0
VERTEX
  5
187
  8
LAYER_1
 10
-53.36587429495548
 20
121.9477320161662
 30
0.0
  0
SEQEND
  5
4AB
  8
LAYER_1
  0
POLYLINE
  5
78
  8
LAYER_1
 66
     1
 10
0.0
 20
0.0
 30
0.0
 70
     1
  0
VERTEX
  5
188
  8
LAYER_1
 10
-53.36587429495548
 20
121.5596570903501
 30
0.0
  0
VERTEX
  5
189
  8
LAYER_1
 10
-53.25359687405125
 20
121.5596570903501
 30
0.0
  0
VERTEX
  5
18A
  8
LAYER_1
 10
-53.17590491251377
 20
121.5517336316169
 30
0.0
  0
VERTEX
  5
18B
  8
LAYER_1
 10
-53.10422780516973
 20
121.5312215004155
 30
0.0
  0
VERTEX
  5
18C
  8
LAYER_1
 10
-53.03856555201914
 20
121.4981206967459
 30
0.0
  0
VERTEX
  5
18D
  8
LAYER_1
 10
-52.97891815306197
 20
121.4524312206082
 30
0.0
  0
VERTEX
  5
18E
  8
LAYER_1
 10
-52.92904487784281
 20
121.394340911318
 30
0.0
  0
VERTEX
  5
18F
  8
LAYER_1
 10
-52.89270505703193
 20
121.3240376081909
 30
0.0
  0
VERTEX
  5
190
  8
LAYER_1
 10
-52.86989869062933
 20
121.2415213112269
 30
0.0
  0
VERTEX
  5
191
  8
LAYER_1
 10
-52.86062577863501
 20
121.1467920204259
 30
0.0
  0
VERTEX
  5
192
  8
LAYER_1
 10
-52.86944444635527
 20
121.0501055110417
 30
0.0
  0
VERTEX
  5
193
  8
LAYER_1
 10
-52.89151461849252
 20
120.9668533407223
 30
0.0
  0
VERTEX
  5
194
  8
LAYER_1
 10
-52.92683629504676
 20
120.8970355094678
 30
0.0
  0
VERTEX
  5
195
  8
LAYER_1
 10
-52.97540947601799
 20
120.8406520172782
 30
0.0
  0
VERTEX
  5
196
  8
LAYER_1
 10
-53.03394476903678
 20
120.7972331512537
 30
0.0
  0
VERTEX
  5
197
  8
LAYER_1
 10
-53.09915278173368
 20
120.7663091373688
 30
0.0
  0
VERTEX
  5
198
  8
LAYER_1
 10
-53.17103351410869
 20
120.7478799756235
 30
0.0
  0
VERTEX
  5
199
  8
LAYER_1
 10
-53.24958696616181
 20
120.7419456660178
 30
0.0
  0
VERTEX
  5
19A
  8
LAYER_1
 10
-53.31374555351852
 20
120.7429477609545
 30
0.0
  0
VERTEX
  5
19B
  8
LAYER_1
 10
-53.36587429495548
 20
120.749962425511
 30
0.0
  0
SEQEND
  5
4AC
  8
LAYER_1
  0
POLYLINE
  5
79
  8
LAYER_1
 66
     1
 10
0.0
 20
0.0
 30
0.0
 70
     1
  0
VERTEX
  5
19C
  8
LAYER_1
 10
-57.0533410692913
 20
121.1249883175074
 30
0.0
  0
VERTEX
  5
19D
  8
LAYER_1
 10
-56.93720264273416
 20
120.5080743097942
 30
0.0
  0
VERTEX
  5
19E
  8
LAYER_1
 10
-56.42859312909199
 20
120.5080743097942
 30
0.0
  0
VERTEX
  5
19F
  8
LAYER_1
 10
-56.95322173605238
 20
123.2075736290801
 30
0.0
  0
VERTEX
  5
1A0
  8
LAYER_1
 10
-57.58197114879276
 20
123.2075736290801
 30
0.0
  0
VERTEX
  5
1A1
  8
LAYER_1
 10
-58.16666805490801
 20
120.5080743097942
 30
0.0
  0
VERTEX
  5
1A2
  8
LAYER_1
 10
-57.65806184205433
 20
120.5080743097942
 30
0.0
  0
VERTEX
  5
1A3
  8
LAYER_1
 10
-57.53791864216763
 20
121.1249883175074
 30
0.0
  0
SEQEND
  5
4AD
  8
LAYER_1
  0
POLYLINE
  5
7A
  8
LAYER_1
 66
     1
 10
0.0
 20
0.0
 30
0.0
 70
     1
  0
VERTEX
  5
1A4
  8
LAYER_1
 10
-57.4858565888834
 20
121.5330929169139
 30
0.0
  0
VERTEX
  5
1A5
  8
LAYER_1
 10
-57.38573725564449
 20
122.0941633902425
 30
0.0
  0
VERTEX
  5
1A6
  8
LAYER_1
 10
-57.33768003681552
 20
122.393734640909
 30
0.0
  0
VERTEX
  5
1A7
  8
LAYER_1
 10
-57.28962269573513
 20
122.7113384658754
 30
0.0
  0
VERTEX
  5
1A8
  8
LAYER_1
 10
-57.27760837574646
 20
122.7113384658754
 30
0.0
  0
VERTEX
  5
1A9
  8
LAYER_1
 10
-57.23505766676064
 20
122.3987441987066
 30
0.0
  0
VERTEX
  5
1AA
  8
LAYER_1
 10
-57.18950336249622
 20
122.0981710364805
 30
0.0
  0
VERTEX
  5
1AB
  8
LAYER_1
 10
-57.10139834924598
 20
121.5330929169139
 30
0.0
  0
SEQEND
  5
4AE
  8
LAYER_1
  0
POLYLINE
  5
7B
  8
LAYER_1
 66
     1
 10
0.0
 20
0.0
 30
0.0
 70
     1
  0
VERTEX
  5
1AC
  8
LAYER_1
 10
-18.31529477839347
 20
123.4786488069195
 30
0.0
  0
VERTEX
  5
1AD
  8
LAYER_1
 10
-19.50030076988815
 20
123.2001018663232
 30
0.0
  0
VERTEX
  5
1AE
  8
LAYER_1
 10
-19.39866722965412
 20
122.7677282281267
 30
0.0
  0
VERTEX
  5
1AF
  8
LAYER_1
 10
-18.72402786633506
 20
122.9263086336328
 30
0.0
  0
VERTEX
  5
1B0
  8
LAYER_1
 10
-18.20795404714623
 20
120.7308059062177
 30
0.0
  0
VERTEX
  5
1B1
  8
LAYER_1
 10
-17.69758741897061
 20
120.8507724413079
 30
0.0
  0
SEQEND
  5
4AF
  8
LAYER_1
  0
POLYLINE
  5
7C
  8
LAYER_1
 66
     1
 10
0.0
 20
0.0
 30
0.0
 70
     1
  0
VERTEX
  5
1B2
  8
LAYER_1
 10
-20.03561321561283
 20
120.3894951824648
 30
0.0
  0
VERTEX
  5
1B3
  8
LAYER_1
 10
-19.89351456803747
 20
120.4097863816821
 30
0.0
  0
VERTEX
  5
1B4
  8
LAYER_1
 10
-19.76503937982243
 20
120.4522875956956
 30
0.0
  0
VERTEX
  5
1B5
  8
LAYER_1
 10
-19.6501876509677
 20
120.5169988245051
 30
0.0
  0
VERTEX
  5
1B6
  8
LAYER_1
 10
-19.54895938147328
 20
120.6039200681108
 30
0.0
  0
VERTEX
  5
1B7
  8
LAYER_1
 10
-19.46109994174949
 20
120.709339059993
 30
0.0
  0
VERTEX
  5
1B8
  8
LAYER_1
 10
-19.38635464114273
 20
120.829543536381
 30
0.0
  0
VERTEX
  5
1B9
  8
LAYER_1
 10
-19.32472347965301
 20
120.9645334972749
 30
0.0
  0
VERTEX
  5
1BA
  8
LAYER_1
 10
-19.27620645728033
 20
121.1143089426746
 30
0.0
  0
VERTEX
  5
1BB
  8
LAYER_1
 10
-19.24054893941582
 20
121.2751575795168
 30
0.0
  0
VERTEX
  5
1BC
  8
LAYER_1
 10
-19.21749623313571
 20
121.4433671785512
 30
0.0
  0
VERTEX
  5
1BD
  8
LAYER_1
 10
-19.20704833844001
 20
121.6189377397778
 30
0.0
  0
VERTEX
  5
1BE
  8
LAYER_1
 10
-19.20920525532871
 20
121.8018692631965
 30
0.0
  0
VERTEX
  5
1BF
  8
LAYER_1
 10
-19.22232628840918
 20
121.9855004629417
 30
0.0
  0
VERTEX
  5
1C0
  8
LAYER_1
 10
-19.24601533140809
 20
122.1609227116072
 30
0.0
  0
VERTEX
  5
1C1
  8
LAYER_1
 10
-19.28027238432545
 20
122.328136009193
 30
0.0
  0
VERTEX
  5
1C2
  8
LAYER_1
 10
-19.32509744716127
 20
122.4871403556991
 30
0.0
  0
VERTEX
  5
1C3
  8
LAYER_1
 10
-19.38123686412988
 20
122.6340390141492
 30
0.0
  0
VERTEX
  5
1C4
  8
LAYER_1
 10
-19.44943698219465
 20
122.7649353086307
 30
0.0
  0
VERTEX
  5
1C5
  8
LAYER_1
 10
-19.52969780135556
 20
122.8798292391437
 30
0.0
  0
VERTEX
  5
1C6
  8
LAYER_1
 10
-19.62201932161262
 20
122.9787208056881
 30
0.0
  0
VERTEX
  5
1C7
  8
LAYER_1
 10
-19.7271479175403
 20
123.0577132660968
 30
0.0
  0
VERTEX
  5
1C8
  8
LAYER_1
 10
-19.8458299053982
 20
123.112909942015
 30
0.0
  0
VERTEX
  5
1C9
  8
LAYER_1
 10
-19.97806528518633
 20
123.1443108334429
 30
0.0
  0
VERTEX
  5
1CA
  8
LAYER_1
 10
-20.12385405690468
 20
123.1519159403805
 30
0.0
  0
VERTEX
  5
1CB
  8
LAYER_1
 10
-20.21896570511198
 20
123.1437446601578
 30
0.0
  0
VERTEX
  5
1CC
  8
LAYER_1
 10
-20.30880314116151
 20
123.1250066631943
 30
0.0
  0
VERTEX
  5
1CD
  8
LAYER_1
 10
-20.39336636505328
 20
123.0957019494901
 30
0.0
  0
VERTEX
  5
1CE
  8
LAYER_1
 10
-20.47265537678728
 20
123.0558305190453
 30
0.0
  0
VERTEX
  5
1CF
  8
LAYER_1
 10
-20.54667017636351
 20
123.0053923718597
 30
0.0
  0
VERTEX
  5
1D0
  8
LAYER_1
 10
-20.61541076378198
 20
122.9443875079334
 30
0.0
  0
VERTEX
  5
1D1
  8
LAYER_1
 10
-20.67887713904268
 20
122.8728159272663
 30
0.0
  0
VERTEX
  5
1D2
  8
LAYER_1
 10
-20.73706930214562
 20
122.7906776298586
 30
0.0
  0
VERTEX
  5
1D3
  8
LAYER_1
 10
-20.78872131173504
 20
122.6968951723999
 30
0.0
  0
VERTEX
  5
1D4
  8
LAYER_1
 10
-20.83256719729774
 20
122.5903911434862
 30
0.0
  0
VERTEX
  5
1D5
  8
LAYER_1
 10
-20.86860695883373
 20
122.4711655431176
 30
0.0
  0
VERTEX
  5
1D6
  8
LAYER_1
 10
-20.89684059634301
 20
122.3392183712942
 30
0.0
  0
VERTEX
  5
1D7
  8
LAYER_1
 10
-20.91726810982558
 20
122.1945496280158
 30
0.0
  0
VERTEX
  5
1D8
  8
LAYER_1
 10
-20.92988949928143
 20
122.0371593132826
 30
0.0
  0
VERTEX
  5
1D9
  8
LAYER_1
 10
-20.93470476471057
 20
121.8670474270944
 30
0.0
  0
VERTEX
  5
1DA
  8
LAYER_1
 10
-20.931713906113
 20
121.6842139694513
 30
0.0
  0
VERTEX
  5
1DB
  8
LAYER_1
 10
-20.9211376552621
 20
121.5272415172408
 30
0.0
  0
VERTEX
  5
1DC
  8
LAYER_1
 10
-20.90099171263169
 20
121.3722216580421
 30
0.0
  0
VERTEX
  5
1DD
  8
LAYER_1
 10
-20.87127607822177
 20
121.2191543918549
 30
0.0
  0
VERTEX
  5
1DE
  8
LAYER_1
 10
-20.83199075203234
 20
121.0680397186795
 30
0.0
  0
VERTEX
  5
1DF
  8
LAYER_1
 10
-20.78141591023575
 20
120.92462863068
 30
0.0
  0
VERTEX
  5
1E0
  8
LAYER_1
 10
-20.71783172900435
 20
120.7946721200207
 30
0.0
  0
VERTEX
  5
1E1
  8
LAYER_1
 10
-20.64123820833815
 20
120.6781701867017
 30
0.0
  0
VERTEX
  5
1E2
  8
LAYER_1
 10
-20.55163534823714
 20
120.575122830723
 30
0.0
  0
VERTEX
  5
1E3
  8
LAYER_1
 10
-20.4473033175843
 20
120.4912810522254
 30
0.0
  0
VERTEX
  5
1E4
  8
LAYER_1
 10
-20.32652228526264
 20
120.4323958513498
 30
0.0
  0
VERTEX
  5
1E5
  8
LAYER_1
 10
-20.18929225127215
 20
120.3984672280963
 30
0.0
  0
SEQEND
  5
4B0
  8
LAYER_1
  0
POLYLINE
  5
7D
  8
LAYER_1
 66
     1
 10
0.0
 20
0.0
 30
0.0
 70
     1
  0
VERTEX
  5
1E6
  8
LAYER_1
 10
-20.03610339913658
 20
120.8461109504496
 30
0.0
  0
VERTEX
  5
1E7
  8
LAYER_1
 10
-20.09207208661136
 20
120.8529782370417
 30
0.0
  0
VERTEX
  5
1E8
  8
LAYER_1
 10
-20.14252173257347
 20
120.8753025012082
 30
0.0
  0
VERTEX
  5
1E9
  8
LAYER_1
 10
-20.18745233702291
 20
120.9130837429491
 30
0.0
  0
VERTEX
  5
1EA
  8
LAYER_1
 10
-20.22686389995969
 20
120.9663219622644
 30
0.0
  0
VERTEX
  5
1EB
  8
LAYER_1
 10
-20.26127599928509
 20
121.0323197816362
 30
0.0
  0
VERTEX
  5
1EC
  8
LAYER_1
 10
-20.29120821564941
 20
121.1083798846104
 30
0.0
  0
VERTEX
  5
1ED
  8
LAYER_1
 10
-20.33763299949478
 20
121.2906869413663
 30
0.0
  0
VERTEX
  5
1EE
  8
LAYER_1
 10
-20.36821669141398
 20
121.502453754356
 30
0.0
  0
VERTEX
  5
1EF
  8
LAYER_1
 10
-20.38503760919741
 20
121.7328909509016
 30
0.0
  0
VERTEX
  5
1F0
  8
LAYER_1
 10
-20.39028854938315
 20
121.9327548505691
 30
0.0
  0
VERTEX
  5
1F1
  8
LAYER_1
 10
-20.38554312097173
 20
122.1132326603658
 30
0.0
  0
VERTEX
  5
1F2
  8
LAYER_1
 10
-20.37080132396314
 20
122.274324380292
 30
0.0
  0
VERTEX
  5
1F3
  8
LAYER_1
 10
-20.34606315835738
 20
122.4160300103474
 30
0.0
  0
VERTEX
  5
1F4
  8
LAYER_1
 10
-20.30984221248617
 20
122.5324938103857
 30
0.0
  0
VERTEX
  5
1F5
  8
LAYER_1
 10
-20.26065201636636
 20
122.6178601040732
 30
0.0
  0
VERTEX
  5
1F6
  8
LAYER_1
 10
-20.23119344946323
 20
122.6488816860354
 30
0.0
  0
VERTEX
  5
1F7
  8
LAYER_1
 10
-20.19849256999795
 20
122.6721288914098
 30
0.0
  0
VERTEX
  5
1F8
  8
LAYER_1
 10
-20.16254937797051
 20
122.6876017201966
 30
0.0
  0
VERTEX
  5
1F9
  8
LAYER_1
 10
-20.12336387338092
 20
122.6953001723957
 30
0.0
  0
VERTEX
  5
1FA
  8
LAYER_1
 10
-20.08442490353321
 20
122.6933279863121
 30
0.0
  0
VERTEX
  5
1FB
  8
LAYER_1
 10
-20.04752983869113
 20
122.6840015144023
 30
0.0
  0
VERTEX
  5
1FC
  8
LAYER_1
 10
-19.97987142402387
 20
122.6432857131035
 30
0.0
  0
VERTEX
  5
1FD
  8
LAYER_1
 10
-19.92038862937913
 20
122.5731527684995
 30
0.0
  0
VERTEX
  5
1FE
  8
LAYER_1
 10
-19.86908145475692
 20
122.4736026805902
 30
0.0
  0
VERTEX
  5
1FF
  8
LAYER_1
 10
-19.8264319234277
 20
122.3448957862149
 30
0.0
  0
VERTEX
  5
200
  8
LAYER_1
 10
-19.79292205866192
 20
122.1872924222126
 30
0.0
  0
VERTEX
  5
201
  8
LAYER_1
 10
-19.7685518604596
 20
122.0007925885833
 30
0.0
  0
VERTEX
  5
202
  8
LAYER_1
 10
-19.75332132882071
 20
121.7853962853272
 30
0.0
  0
VERTEX
  5
203
  8
LAYER_1
 10
-19.74954020506543
 20
121.5781338519756
 30
0.0
  0
VERTEX
  5
204
  8
LAYER_1
 10
-19.7571954396068
 20
121.3950815583147
 30
0.0
  0
VERTEX
  5
205
  8
LAYER_1
 10
-19.77628703244484
 20
121.2362394043445
 30
0.0
  0
VERTEX
  5
206
  8
LAYER_1
 10
-19.80681498357954
 20
121.1016073900651
 30
0.0
  0
VERTEX
  5
207
  8
LAYER_1
 10
-19.84833010726413
 20
120.9937436542636
 30
0.0
  0
VERTEX
  5
208
  8
LAYER_1
 10
-19.90038321775183
 20
120.9152063357272
 30
0.0
  0
VERTEX
  5
209
  8
LAYER_1
 10
-19.96297431504265
 20
120.8659954344558
 30
0.0
  0
VERTEX
  5
20A
  8
LAYER_1
 10
-19.99822160873923
 20
120.8523873902946
 30
0.0
  0
SEQEND
  5
4B1
  8
LAYER_1
  0
POLYLINE
  5
7E
  8
LAYER_1
 66
     1
 10
0.0
 20
0.0
 30
0.0
 70
     1
  0
VERTEX
  5
20B
  8
LAYER_1
 10
-21.69393346142538
 20
123.1491956219752
 30
0.0
  0
VERTEX
  5
20C
  8
LAYER_1
 10
-21.99232746909061
 20
122.3011027001102
 30
0.0
  0
VERTEX
  5
20D
  8
LAYER_1
 10
-22.12614205939006
 20
121.8933923559967
 30
0.0
  0
VERTEX
  5
20E
  8
LAYER_1
 10
-22.2601364914056
 20
121.4402169429186
 30
0.0
  0
VERTEX
  5
20F
  8
LAYER_1
 10
-22.26807228534796
 20
121.4413067882604
 30
0.0
  0
VERTEX
  5
210
  8
LAYER_1
 10
-22.26030113908011
 20
121.9173766676038
 30
0.0
  0
VERTEX
  5
211
  8
LAYER_1
 10
-22.26665739088753
 20
122.3347336801842
 30
0.0
  0
VERTEX
  5
212
  8
LAYER_1
 10
-22.30498959498708
 20
123.2331137132898
 30
0.0
  0
VERTEX
  5
213
  8
LAYER_1
 10
-22.84065568609637
 20
123.3066782738578
 30
0.0
  0
VERTEX
  5
214
  8
LAYER_1
 10
-23.68013604008575
 20
120.697129404893
 30
0.0
  0
VERTEX
  5
215
  8
LAYER_1
 10
-23.17222724225207
 20
120.6273768330177
 30
0.0
  0
VERTEX
  5
216
  8
LAYER_1
 10
-22.89576341415773
 20
121.6690331311826
 30
0.0
  0
VERTEX
  5
217
  8
LAYER_1
 10
-22.78136589494603
 20
122.1193399840709
 30
0.0
  0
VERTEX
  5
218
  8
LAYER_1
 10
-22.6628807659577
 20
122.5994119852143
 30
0.0
  0
VERTEX
  5
219
  8
LAYER_1
 10
-22.65494497201534
 20
122.5983221398725
 30
0.0
  0
VERTEX
  5
21A
  8
LAYER_1
 10
-22.66499425305675
 20
122.098303914168
 30
0.0
  0
VERTEX
  5
21B
  8
LAYER_1
 10
-22.65823462667244
 20
121.6323690867139
 30
0.0
  0
VERTEX
  5
21C
  8
LAYER_1
 10
-22.62465746022924
 20
120.552177504437
 30
0.0
  0
VERTEX
  5
21D
  8
LAYER_1
 10
-22.20406038128418
 20
120.4944157013244
 30
0.0
  0
VERTEX
  5
21E
  8
LAYER_1
 10
-21.86753306783663
 20
121.5318668436425
 30
0.0
  0
VERTEX
  5
21F
  8
LAYER_1
 10
-21.72052582086146
 20
121.9878041462361
 30
0.0
  0
VERTEX
  5
220
  8
LAYER_1
 10
-21.58758068676795
 20
122.4517379414074
 30
0.0
  0
VERTEX
  5
221
  8
LAYER_1
 10
-21.5756769958544
 20
122.4501031733947
 30
0.0
  0
VERTEX
  5
222
  8
LAYER_1
 10
-21.5968696696137
 20
121.968294883057
 30
0.0
  0
VERTEX
  5
223
  8
LAYER_1
 10
-21.61304263089562
 20
121.5009604769228
 30
0.0
  0
VERTEX
  5
224
  8
LAYER_1
 10
-21.62871532046309
 20
120.4154019140476
 30
0.0
  0
VERTEX
  5
225
  8
LAYER_1
 10
-21.08908133238262
 20
120.3412924308087
 30
0.0
  0
VERTEX
  5
226
  8
LAYER_1
 10
-21.17810685517199
 20
123.0783556747615
 30
0.0
  0
SEQEND
  5
4B2
  8
LAYER_1
  0
POLYLINE
  5
7F
  8
LAYER_1
 66
     1
 10
0.0
 20
0.0
 30
0.0
 70
     1
  0
VERTEX
  5
227
  8
LAYER_1
 10
-26.38490807896865
 20
123.2438076868125
 30
0.0
  0
VERTEX
  5
228
  8
LAYER_1
 10
-26.48019096347029
 20
123.2524108315187
 30
0.0
  0
VERTEX
  5
229
  8
LAYER_1
 10
-26.60752597407085
 20
123.2457532932871
 30
0.0
  0
VERTEX
  5
22A
  8
LAYER_1
 10
-26.75444769601777
 20
123.2221311552197
 30
0.0
  0
VERTEX
  5
22B
  8
LAYER_1
 10
-26.90849075392524
 20
123.1798406161581
 30
0.0
  0
VERTEX
  5
22C
  8
LAYER_1
 10
-27.08466714689985
 20
123.1032274487212
 30
0.0
  0
VERTEX
  5
22D
  8
LAYER_1
 10
-27.16237909959509
 20
123.057858238669
 30
0.0
  0
VERTEX
  5
22E
  8
LAYER_1
 10
-27.23317355642895
 20
123.0077806110611
 30
0.0
  0
VERTEX
  5
22F
  8
LAYER_1
 10
-27.29705051740142
 20
122.9529945658973
 30
0.0
  0
VERTEX
  5
230
  8
LAYER_1
 10
-27.35400998251251
 20
122.8935001031777
 30
0.0
  0
VERTEX
  5
231
  8
LAYER_1
 10
-27.40405195176222
 20
122.8292972229023
 30
0.0
  0
VERTEX
  5
232
  8
LAYER_1
 10
-27.44717642515055
 20
122.7603859250711
 30
0.0
  0
VERTEX
  5
233
  8
LAYER_1
 10
-27.48257149807748
 20
122.6880051400472
 30
0.0
  0
VERTEX
  5
234
  8
LAYER_1
 10
-27.50942527578466
 20
122.6133938271286
 30
0.0
  0
VERTEX
  5
235
  8
LAYER_1
 10
-27.5277377582721
 20
122.5365519863153
 30
0.0
  0
VERTEX
  5
236
  8
LAYER_1
 10
-27.53750894553979
 20
122.4574796176073
 30
0.0
  0
VERTEX
  5
237
  8
LAYER_1
 10
-27.53873883758775
 20
122.3761767210047
 30
0.0
  0
VERTEX
  5
238
  8
LAYER_1
 10
-27.53142743441597
 20
122.2926432965074
 30
0.0
  0
VERTEX
  5
239
  8
LAYER_1
 10
-27.51557473602444
 20
122.2068793441154
 30
0.0
  0
VERTEX
  5
23A
  8
LAYER_1
 10
-27.49118074241317
 20
122.1188848638287
 30
0.0
  0
VERTEX
  5
23B
  8
LAYER_1
 10
-27.45143132553937
 20
122.0201284648566
 30
0.0
  0
VERTEX
  5
23C
  8
LAYER_1
 10
-27.39861306957563
 20
121.9280987674862
 30
0.0
  0
VERTEX
  5
23D
  8
LAYER_1
 10
-27.33272597452197
 20
121.8427957717175
 30
0.0
  0
VERTEX
  5
23E
  8
LAYER_1
 10
-27.25377004037837
 20
121.7642194775506
 30
0.0
  0
VERTEX
  5
23F
  8
LAYER_1
 10
-27.16003547049071
 20
121.694042626236
 30
0.0
  0
VERTEX
  5
240
  8
LAYER_1
 10
-27.04981246820486
 20
121.633937959024
 30
0.0
  0
VERTEX
  5
241
  8
LAYER_1
 10
-26.92310103352081
 20
121.5839054759148
 30
0.0
  0
VERTEX
  5
242
  8
LAYER_1
 10
-26.77990116643858
 20
121.5439451769083
 30
0.0
  0
VERTEX
  5
243
  8
LAYER_1
 10
-26.56991835982786
 20
121.4911702067735
 30
0.0
  0
VERTEX
  5
244
  8
LAYER_1
 10
-26.42970082441791
 20
121.4345055715598
 30
0.0
  0
VERTEX
  5
245
  8
LAYER_1
 10
-26.38154798429256
 20
121.4019788999271
 30
0.0
  0
VERTEX
  5
246
  8
LAYER_1
 10
-26.34242430585622
 20
121.3630083724653
 30
0.0
  0
VERTEX
  5
247
  8
LAYER_1
 10
-26.31232978910889
 20
121.3175939891746
 30
0.0
  0
VERTEX
  5
248
  8
LAYER_1
 10
-26.29126443405058
 20
121.2657357500549
 30
0.0
  0
VERTEX
  5
249
  8
LAYER_1
 10
-26.27858210974906
 20
121.2127788550031
 30
0.0
  0
VERTEX
  5
24A
  8
LAYER_1
 10
-26.27690152305054
 20
121.1600480298265
 30
0.0
  0
VERTEX
  5
24B
  8
LAYER_1
 10
-26.28622267395503
 20
121.1075432745251
 30
0.0
  0
VERTEX
  5
24C
  8
LAYER_1
 10
-26.30654556246255
 20
121.0552645890989
 30
0.0
  0
VERTEX
  5
24D
  8
LAYER_1
 10
-26.33901591129194
 20
121.0059964506064
 30
0.0
  0
VERTEX
  5
24E
  8
LAYER_1
 10
-26.38477946284545
 20
120.9625233939759
 30
0.0
  0
VERTEX
  5
24F
  8
LAYER_1
 10
-26.44383621712308
 20
120.9248454192074
 30
0.0
  0
VERTEX
  5
250
  8
LAYER_1
 10
-26.51618617412484
 20
120.8929625263008
 30
0.0
  0
VERTEX
  5
251
  8
LAYER_1
 10
-26.62018839300707
 20
120.8656557236024
 30
0.0
  0
VERTEX
  5
252
  8
LAYER_1
 10
-26.71515482517502
 20
120.8549126369324
 30
0.0
  0
VERTEX
  5
253
  8
LAYER_1
 10
-26.79952270105172
 20
120.8572975345132
 30
0.0
  0
VERTEX
  5
254
  8
LAYER_1
 10
-26.87172925106022
 20
120.8693746845674
 30
0.0
  0
VERTEX
  5
255
  8
LAYER_1
 10
-26.80565027791836
 20
120.4141064252707
 30
0.0
  0
VERTEX
  5
256
  8
LAYER_1
 10
-26.72301573446588
 20
120.4049653846197
 30
0.0
  0
VERTEX
  5
257
  8
LAYER_1
 10
-26.61767545042611
 20
120.408302096598
 30
0.0
  0
VERTEX
  5
258
  8
LAYER_1
 10
-26.49818229542817
 20
120.4259626539015
 30
0.0
  0
VERTEX
  5
259
  8
LAYER_1
 10
-26.37308902336146
 20
120.4597931885934
 30
0.0
  0
VERTEX
  5
25A
  8
LAYER_1
 10
-26.19050810743285
 20
120.5409129275638
 30
0.0
  0
VERTEX
  5
25B
  8
LAYER_1
 10
-26.11179203987739
 20
120.5878988838318
 30
0.0
  0
VERTEX
  5
25C
  8
LAYER_1
 10
-26.04145889926116
 20
120.639168897955
 30
0.0
  0
VERTEX
  5
25D
  8
LAYER_1
 10
-25.97950868558416
 20
120.6947229699333
 30
0.0
  0
VERTEX
  5
25E
  8
LAYER_1
 10
-25.92594139884639
 20
120.7545610997668
 30
0.0
  0
VERTEX
  5
25F
  8
LAYER_1
 10
-25.88075703904785
 20
120.8186832874554
 30
0.0
  0
VERTEX
  5
260
  8
LAYER_1
 10
-25.84395560618854
 20
120.8870895329993
 30
0.0
  0
VERTEX
  5
261
  8
LAYER_1
 10
-25.79357861466711
 20
121.0302870110631
 30
0.0
  0
VERTEX
  5
262
  8
LAYER_1
 10
-25.77288753734499
 20
121.1776864052389
 30
0.0
  0
VERTEX
  5
263
  8
LAYER_1
 10
-25.78188237422219
 20
121.3292877155265
 30
0.0
  0
VERTEX
  5
264
  8
LAYER_1
 10
-25.82056312529869
 20
121.485090941926
 30
0.0
  0
VERTEX
  5
265
  8
LAYER_1
 10
-25.85670060676242
 20
121.5720146874725
 30
0.0
  0
VERTEX
  5
266
  8
LAYER_1
 10
-25.90767752519825
 20
121.6553790606992
 30
0.0
  0
VERTEX
  5
267
  8
LAYER_1
 10
-25.97349388060618
 20
121.7351840616063
 30
0.0
  0
VERTEX
  5
268
  8
LAYER_1
 10
-26.05414967298621
 20
121.8114296901937
 30
0.0
  0
VERTEX
  5
269
  8
LAYER_1
 10
-26.15084246965091
 20
121.8812286101204
 30
0.0
  0
VERTEX
  5
26A
  8
LAYER_1
 10
-26.26476985759624
 20
121.9416935429152
 30
0.0
  0
VERTEX
  5
26B
  8
LAYER_1
 10
-26.39593183682219
 20
121.9928244885782
 30
0.0
  0
VERTEX
  5
26C
  8
LAYER_1
 10
-26.54432840732877
 20
122.0346214471094
 30
0.0
  0
VERTEX
  5
26D
  8
LAYER_1
 10
-26.72071091396511
 20
122.0842757762009
 30
0.0
  0
VERTEX
  5
26E
  8
LAYER_1
 10
-26.85588029390892
 20
122.1423929438749
 30
0.0
  0
VERTEX
  5
26F
  8
LAYER_1
 10
-26.90889175414613
 20
122.1780947098613
 30
0.0
  0
VERTEX
  5
270
  8
LAYER_1
 10
-26.95336333794357
 20
122.222851478725
 30
0.0
  0
VERTEX
  5
271
  8
LAYER_1
 10
-26.98929504530126
 20
122.2766632504662
 30
0.0
  0
VERTEX
  5
272
  8
LAYER_1
 10
-27.01668687621919
 20
122.3395300250848
 30
0.0
  0
VERTEX
  5
273
  8
LAYER_1
 10
-27.03204045109277
 20
122.4020935799252
 30
0.0
  0
VERTEX
  5
274
  8
LAYER_1
 10
-27.03447869009084
 20
122.4623045414753
 30
0.0
  0
VERTEX
  5
275
  8
LAYER_1
 10
-27.02400159321337
 20
122.520162909735
 30
0.0
  0
VERTEX
  5
276
  8
LAYER_1
 10
-27.00060916046039
 20
122.5756686847043
 30
0.0
  0
VERTEX
  5
277
  8
LAYER_1
 10
-26.96352002653157
 20
122.627103630689
 30
0.0
  0
VERTEX
  5
278
  8
LAYER_1
 10
-26.91195284580996
 20
122.6727495698649
 30
0.0
  0
VERTEX
  5
279
  8
LAYER_1
 10
-26.84590761829558
 20
122.7126065022319
 30
0.0
  0
VERTEX
  5
27A
  8
LAYER_1
 10
-26.76538434398842
 20
122.74667442779
 30
0.0
  0
VERTEX
  5
27B
  8
LAYER_1
 10
-26.65079698819838
 20
122.7773826642172
 30
0.0
  0
VERTEX
  5
27C
  8
LAYER_1
 10
-26.52995779568771
 20
122.7955359328006
 30
0.0
  0
VERTEX
  5
27D
  8
LAYER_1
 10
-26.41330408117793
 20
122.8003617475
 30
0.0
  0
VERTEX
  5
27E
  8
LAYER_1
 10
-26.31127315939053
 20
122.7910876222752
 30
0.0
  0
SEQEND
  5
4B3
  8
LAYER_1
  0
POLYLINE
  5
80
  8
LAYER_1
 66
     1
 10
0.0
 20
0.0
 30
0.0
 70
     1
  0
VERTEX
  5
27F
  8
LAYER_1
 10
-28.06596930847087
 20
122.8822539110143
 30
0.0
  0
VERTEX
  5
280
  8
LAYER_1
 10
-28.58537085527637
 20
122.8109230069618
 30
0.0
  0
VERTEX
  5
281
  8
LAYER_1
 10
-28.28396882257755
 20
120.6162405748022
 30
0.0
  0
VERTEX
  5
282
  8
LAYER_1
 10
-28.76021092853102
 20
120.5508368805421
 30
0.0
  0
VERTEX
  5
283
  8
LAYER_1
 10
-28.69433033233353
 20
120.0711221758993
 30
0.0
  0
VERTEX
  5
284
  8
LAYER_1
 10
-27.22641325783735
 20
120.2727154376867
 30
0.0
  0
VERTEX
  5
285
  8
LAYER_1
 10
-27.29229385403484
 20
120.7524301423294
 30
0.0
  0
VERTEX
  5
286
  8
LAYER_1
 10
-27.76456727577203
 20
120.6875714788547
 30
0.0
  0
SEQEND
  5
4B4
  8
LAYER_1
  0
POLYLINE
  5
81
  8
LAYER_1
 66
     1
 10
0.0
 20
0.0
 30
0.0
 70
     1
  0
VERTEX
  5
287
  8
LAYER_1
 10
-29.00784918522896
 20
122.7732241384512
 30
0.0
  0
VERTEX
  5
288
  8
LAYER_1
 10
-29.22084439139557
 20
122.8028379319074
 30
0.0
  0
VERTEX
  5
289
  8
LAYER_1
 10
-29.49434985462251
 20
122.8231608075489
 30
0.0
  0
VERTEX
  5
28A
  8
LAYER_1
 10
-29.65554755849618
 20
122.8258494006744
 30
0.0
  0
VERTEX
  5
28B
  8
LAYER_1
 10
-29.80181072044913
 20
122.819229806263
 30
0.0
  0
VERTEX
  5
28C
  8
LAYER_1
 10
-29.93313934048137
 20
122.8033020243146
 30
0.0
  0
VERTEX
  5
28D
  8
LAYER_1
 10
-30.04953341859289
 20
122.7780660548293
 30
0.0
  0
VERTEX
  5
28E
  8
LAYER_1
 10
-30.15257990517114
 20
122.7439688174084
 30
0.0
  0
VERTEX
  5
28F
  8
LAYER_1
 10
-30.24386575060359
 20
122.7014572316535
 30
0.0
  0
VERTEX
  5
290
  8
LAYER_1
 10
-30.32339095489021
 20
122.6505312975645
 30
0.0
  0
VERTEX
  5
291
  8
LAYER_1
 10
-30.39115551803103
 20
122.5911910151415
 30
0.0
  0
VERTEX
  5
292
  8
LAYER_1
 10
-30.48116896022984
 20
122.4883655917004
 30
0.0
  0
VERTEX
  5
293
  8
LAYER_1
 10
-30.54942182974004
 20
122.3683165163282
 30
0.0
  0
VERTEX
  5
294
  8
LAYER_1
 10
-30.59446486056864
 20
122.2298730076303
 30
0.0
  0
VERTEX
  5
295
  8
LAYER_1
 10
-30.61484878672265
 20
122.0718642842117
 30
0.0
  0
VERTEX
  5
296
  8
LAYER_1
 10
-30.61183340599118
 20
121.9615565416358
 30
0.0
  0
VERTEX
  5
297
  8
LAYER_1
 10
-30.5933409135383
 20
121.857150863548
 30
0.0
  0
VERTEX
  5
298
  8
LAYER_1
 10
-30.559371309364
 20
121.7586472499483
 30
0.0
  0
VERTEX
  5
299
  8
LAYER_1
 10
-30.50992459346829
 20
121.6660457008368
 30
0.0
  0
VERTEX
  5
29A
  8
LAYER_1
 10
-30.44541967135435
 20
121.5825543799587
 30
0.0
  0
VERTEX
  5
29B
  8
LAYER_1
 10
-30.36627538471254
 20
121.5113815093739
 30
0.0
  0
VERTEX
  5
29C
  8
LAYER_1
 10
-30.27249173354285
 20
121.4525270890827
 30
0.0
  0
VERTEX
  5
29D
  8
LAYER_1
 10
-30.16406871784529
 20
121.4059911190849
 30
0.0
  0
VERTEX
  5
29E
  8
LAYER_1
 10
-30.16478842533303
 20
121.3900041102456
 30
0.0
  0
VERTEX
  5
29F
  8
LAYER_1
 10
-30.26061393384564
 20
121.3448791640558
 30
0.0
  0
VERTEX
  5
2A0
  8
LAYER_1
 10
-30.34379601425278
 20
121.2908016936247
 30
0.0
  0
VERTEX
  5
2A1
  8
LAYER_1
 10
-30.41433466655445
 20
121.2277716989522
 30
0.0
  0
VERTEX
  5
2A2
  8
LAYER_1
 10
-30.47222989075064
 20
121.1557891800382
 30
0.0
  0
VERTEX
  5
2A3
  8
LAYER_1
 10
-30.51783436516378
 20
121.0774115793847
 30
0.0
  0
VERTEX
  5
2A4
  8
LAYER_1
 10
-30.55150076536729
 20
120.9951964005572
 30
0.0
  0
VERTEX
  5
2A5
  8
LAYER_1
 10
-30.57322909136118
 20
120.9091436435557
 30
0.0
  0
VERTEX
  5
2A6
  8
LAYER_1
 10
-30.58301934314544
 20
120.8192533083803
 30
0.0
  0
VERTEX
  5
2A7
  8
LAYER_1
 10
-30.57764904734935
 20
120.6799104533193
 30
0.0
  0
VERTEX
  5
2A8
  8
LAYER_1
 10
-30.54718330188639
 20
120.5473897266283
 30
0.0
  0
VERTEX
  5
2A9
  8
LAYER_1
 10
-30.52192275688876
 20
120.4848806830922
 30
0.0
  0
VERTEX
  5
2AA
  8
LAYER_1
 10
-30.48915459219227
 20
120.4264632149896
 30
0.0
  0
VERTEX
  5
2AB
  8
LAYER_1
 10
-30.44887880779691
 20
120.3721373223205
 30
0.0
  0
VERTEX
  5
2AC
  8
LAYER_1
 10
-30.40109540370269
 20
120.3219030050851
 30
0.0
  0
VERTEX
  5
2AD
  8
LAYER_1
 10
-30.33022053280955
 20
120.2650221687111
 30
0.0
  0
VERTEX
  5
2AE
  8
LAYER_1
 10
-30.25475994315028
 20
120.2176965960873
 30
0.0
  0
VERTEX
  5
2AF
  8
LAYER_1
 10
-30.1747136347249
 20
120.1799262872138
 30
0.0
  0
VERTEX
  5
2B0
  8
LAYER_1
 10
-30.09008160753339
 20
120.1517112420905
 30
0.0
  0
VERTEX
  5
2B1
  8
LAYER_1
 10
-29.91196039634453
 20
120.1151571046335
 30
0.0
  0
VERTEX
  5
2B2
  8
LAYER_1
 10
-29.72529618694851
 20
120.0992443397573
 30
0.0
  0
VERTEX
  5
2B3
  8
LAYER_1
 10
-29.40125779496225
 20
120.0971731092794
 30
0.0
  0
VERTEX
  5
2B4
  8
LAYER_1
 10
-29.25664595680226
 20
120.1068708929192
 30
0.0
  0
VERTEX
  5
2B5
  8
LAYER_1
 10
-29.12709557115862
 20
120.1243799088359
 30
0.0
  0
SEQEND
  5
4B5
  8
LAYER_1
  0
POLYLINE
  5
82
  8
LAYER_1
 66
     1
 10
0.0
 20
0.0
 30
0.0
 70
     1
  0
VERTEX
  5
2B6
  8
LAYER_1
 10
-29.63482690666077
 20
120.5037006369761
 30
0.0
  0
VERTEX
  5
2B7
  8
LAYER_1
 10
-29.69448472507038
 20
120.4938464152422
 30
0.0
  0
VERTEX
  5
2B8
  8
LAYER_1
 10
-29.7717656483518
 20
120.4938142782721
 30
0.0
  0
VERTEX
  5
2B9
  8
LAYER_1
 10
-29.8466080339883
 20
120.5047545039544
 30
0.0
  0
VERTEX
  5
2BA
  8
LAYER_1
 10
-29.9100297857305
 20
120.52693667726
 30
0.0
  0
VERTEX
  5
2BB
  8
LAYER_1
 10
-29.96203090357839
 20
120.5603607981891
 30
0.0
  0
VERTEX
  5
2BC
  8
LAYER_1
 10
-30.00261138753198
 20
120.6050268667416
 30
0.0
  0
VERTEX
  5
2BD
  8
LAYER_1
 10
-30.03263659164941
 20
120.6584345036508
 30
0.0
  0
VERTEX
  5
2BE
  8
LAYER_1
 10
-30.05297186723983
 20
120.7180833907138
 30
0.0
  0
VERTEX
  5
2BF
  8
LAYER_1
 10
-30.06361721430324
 20
120.7839735279308
 30
0.0
  0
VERTEX
  5
2C0
  8
LAYER_1
 10
-30.06457263283963
 20
120.8561049153016
 30
0.0
  0
VERTEX
  5
2C1
  8
LAYER_1
 10
-30.05381151440556
 20
120.9359537387755
 30
0.0
  0
VERTEX
  5
2C2
  8
LAYER_1
 10
-30.03223550398721
 20
121.0073215547055
 30
0.0
  0
VERTEX
  5
2C3
  8
LAYER_1
 10
-29.99984460158458
 20
121.0702083630915
 30
0.0
  0
VERTEX
  5
2C4
  8
LAYER_1
 10
-29.95663880719768
 20
121.1246141639337
 30
0.0
  0
VERTEX
  5
2C5
  8
LAYER_1
 10
-29.90507122496108
 20
121.16829817707
 30
0.0
  0
VERTEX
  5
2C6
  8
LAYER_1
 10
-29.84759489794551
 20
121.1990196195898
 30
0.0
  0
VERTEX
  5
2C7
  8
LAYER_1
 10
-29.78420982615095
 20
121.216778491493
 30
0.0
  0
VERTEX
  5
2C8
  8
LAYER_1
 10
-29.71491600957741
 20
121.2215747927796
 30
0.0
  0
VERTEX
  5
2C9
  8
LAYER_1
 10
-29.60273680115547
 20
121.2165246788351
 30
0.0
  0
SEQEND
  5
4B6
  8
LAYER_1
  0
POLYLINE
  5
83
  8
LAYER_1
 66
     1
 10
0.0
 20
0.0
 30
0.0
 70
     1
  0
VERTEX
  5
2CA
  8
LAYER_1
 10
-29.5852840155333
 20
121.6042069563784
 30
0.0
  0
VERTEX
  5
2CB
  8
LAYER_1
 10
-29.6974478358608
 20
121.6092563775775
 30
0.0
  0
VERTEX
  5
2CC
  8
LAYER_1
 10
-29.77470485035602
 20
121.6206658384379
 30
0.0
  0
VERTEX
  5
2CD
  8
LAYER_1
 10
-29.84538694953226
 20
121.6443807303768
 30
0.0
  0
VERTEX
  5
2CE
  8
LAYER_1
 10
-29.90949413338952
 20
121.6804010533942
 30
0.0
  0
VERTEX
  5
2CF
  8
LAYER_1
 10
-29.9670264019278
 20
121.72872680749
 30
0.0
  0
VERTEX
  5
2D0
  8
LAYER_1
 10
-30.01423673681922
 20
121.7890012788188
 30
0.0
  0
VERTEX
  5
2D1
  8
LAYER_1
 10
-30.04737805867201
 20
121.8608677507859
 30
0.0
  0
VERTEX
  5
2D2
  8
LAYER_1
 10
-30.06645036748618
 20
121.9443262233914
 30
0.0
  0
VERTEX
  5
2D3
  8
LAYER_1
 10
-30.07145366326172
 20
122.0393766966352
 30
0.0
  0
VERTEX
  5
2D4
  8
LAYER_1
 10
-30.05829566265967
 20
122.1355687805997
 30
0.0
  0
VERTEX
  5
2D5
  8
LAYER_1
 10
-30.03250374410152
 20
122.2177441619383
 30
0.0
  0
VERTEX
  5
2D6
  8
LAYER_1
 10
-29.99407790758727
 20
122.285902840651
 30
0.0
  0
VERTEX
  5
2D7
  8
LAYER_1
 10
-29.94301815311692
 20
122.3400448167379
 30
0.0
  0
VERTEX
  5
2D8
  8
LAYER_1
 10
-29.88258942063554
 20
122.3807872607778
 30
0.0
  0
VERTEX
  5
2D9
  8
LAYER_1
 10
-29.8160566473392
 20
122.4087474044135
 30
0.0
  0
VERTEX
  5
2DA
  8
LAYER_1
 10
-29.74341983322788
 20
122.423925247645
 30
0.0
  0
VERTEX
  5
2DB
  8
LAYER_1
 10
-29.66467897830161
 20
122.4263207904723
 30
0.0
  0
VERTEX
  5
2DC
  8
LAYER_1
 10
-29.60063037255869
 20
122.4224343231487
 30
0.0
  0
VERTEX
  5
2DD
  8
LAYER_1
 10
-29.54886984274143
 20
122.4130823845432
 30
0.0
  0
SEQEND
  5
4B7
  8
LAYER_1
  0
POLYLINE
  5
84
  8
LAYER_1
 66
     1
 10
0.0
 20
0.0
 30
0.0
 70
     1
  0
VERTEX
  5
2DE
  8
LAYER_1
 10
-31.40703228875529
 20
123.114235428825
 30
0.0
  0
VERTEX
  5
2DF
  8
LAYER_1
 10
-31.64806702825246
 20
122.0888154050003
 30
0.0
  0
VERTEX
  5
2E0
  8
LAYER_1
 10
-32.61358673650713
 20
120.6247731148737
 30
0.0
  0
VERTEX
  5
2E1
  8
LAYER_1
 10
-32.08323440464937
 20
120.5001087498515
 30
0.0
  0
VERTEX
  5
2E2
  8
LAYER_1
 10
-31.78253580023219
 20
121.0794896683886
 30
0.0
  0
VERTEX
  5
2E3
  8
LAYER_1
 10
-31.64974592302915
 20
121.3470818057528
 30
0.0
  0
VERTEX
  5
2E4
  8
LAYER_1
 10
-31.52795651965078
 20
121.6203454188678
 30
0.0
  0
VERTEX
  5
2E5
  8
LAYER_1
 10
-31.52016471814794
 20
121.6185138817398
 30
0.0
  0
VERTEX
  5
2E6
  8
LAYER_1
 10
-31.5228425934595
 20
121.3141661346789
 30
0.0
  0
VERTEX
  5
2E7
  8
LAYER_1
 10
-31.51486510343798
 20
121.0289142123914
 30
0.0
  0
VERTEX
  5
2E8
  8
LAYER_1
 10
-31.48317583799781
 20
120.3590592706767
 30
0.0
  0
VERTEX
  5
2E9
  8
LAYER_1
 10
-30.93722490814423
 20
120.2307283066834
 30
0.0
  0
VERTEX
  5
2EA
  8
LAYER_1
 10
-31.1331179905807
 20
121.9883435471692
 30
0.0
  0
VERTEX
  5
2EB
  8
LAYER_1
 10
-30.89666566057967
 20
122.9942688937348
 30
0.0
  0
SEQEND
  5
4B8
  8
LAYER_1
  0
POLYLINE
  5
85
  8
LAYER_1
 66
     1
 10
0.0
 20
0.0
 30
0.0
 70
     1
  0
VERTEX
  5
2EC
  8
LAYER_1
 10
-35.41769169066495
 20
120.4849433331106
 30
0.0
  0
VERTEX
  5
2ED
  8
LAYER_1
 10
-35.27804123500277
 20
120.5181323168517
 30
0.0
  0
VERTEX
  5
2EE
  8
LAYER_1
 10
-35.15398644781519
 20
120.5721937352141
 30
0.0
  0
VERTEX
  5
2EF
  8
LAYER_1
 10
-35.0455273291022
 20
120.6471275881977
 30
0.0
  0
VERTEX
  5
2F0
  8
LAYER_1
 10
-34.9526638788638
 20
120.7429338758025
 30
0.0
  0
VERTEX
  5
2F1
  8
LAYER_1
 10
-34.87480336627036
 20
120.8559391215954
 30
0.0
  0
VERTEX
  5
2F2
  8
LAYER_1
 10
-34.81135299993493
 20
120.9824698574599
 30
0.0
  0
VERTEX
  5
2F3
  8
LAYER_1
 10
-34.76231277985753
 20
121.122526083396
 30
0.0
  0
VERTEX
  5
2F4
  8
LAYER_1
 10
-34.72768270603814
 20
121.2761077994036
 30
0.0
  0
VERTEX
  5
2F5
  8
LAYER_1
 10
-34.70687004022383
 20
121.4395415030757
 30
0.0
  0
VERTEX
  5
2F6
  8
LAYER_1
 10
-34.69928199192086
 20
121.6091537608789
 30
0.0
  0
VERTEX
  5
2F7
  8
LAYER_1
 10
-34.70491856112923
 20
121.7849445728133
 30
0.0
  0
VERTEX
  5
2F8
  8
LAYER_1
 10
-34.72377974784893
 20
121.9669139388787
 30
0.0
  0
VERTEX
  5
2F9
  8
LAYER_1
 10
-34.75362311937549
 20
122.1485783333122
 30
0.0
  0
VERTEX
  5
2FA
  8
LAYER_1
 10
-34.79324030143236
 20
122.321102577901
 30
0.0
  0
VERTEX
  5
2FB
  8
LAYER_1
 10
-34.8426312940195
 20
122.4844866726452
 30
0.0
  0
VERTEX
  5
2FC
  8
LAYER_1
 10
-34.90179609713694
 20
122.6387306175446
 30
0.0
  0
VERTEX
  5
2FD
  8
LAYER_1
 10
-34.97112191338864
 20
122.7798857846234
 30
0.0
  0
VERTEX
  5
2FE
  8
LAYER_1
 10
-35.05099595369503
 20
122.9040036064629
 30
0.0
  0
VERTEX
  5
2FF
  8
LAYER_1
 10
-35.14141821805613
 20
123.011084083063
 30
0.0
  0
VERTEX
  5
300
  8
LAYER_1
 10
-35.24238870647194
 20
123.1011272144239
 30
0.0
  0
VERTEX
  5
301
  8
LAYER_1
 10
-35.3542946513053
 20
123.1701843646263
 30
0.0
  0
VERTEX
  5
302
  8
LAYER_1
 10
-35.47752323267821
 20
123.2143069666252
 30
0.0
  0
VERTEX
  5
303
  8
LAYER_1
 10
-35.61207445059067
 20
123.2334950204204
 30
0.0
  0
VERTEX
  5
304
  8
LAYER_1
 10
-35.7579483050427
 20
123.2277485260121
 30
0.0
  0
VERTEX
  5
305
  8
LAYER_1
 10
-35.8519155999452
 20
123.2109216744381
 30
0.0
  0
VERTEX
  5
306
  8
LAYER_1
 10
-35.93966532781015
 20
123.1840541716553
 30
0.0
  0
VERTEX
  5
307
  8
LAYER_1
 10
-36.02119748863753
 20
123.1471460176636
 30
0.0
  0
VERTEX
  5
308
  8
LAYER_1
 10
-36.09651208242736
 20
123.1001972124632
 30
0.0
  0
VERTEX
  5
309
  8
LAYER_1
 10
-36.16560910917963
 20
123.043207756054
 30
0.0
  0
VERTEX
  5
30A
  8
LAYER_1
 10
-36.22848856889433
 20
122.9761776484359
 30
0.0
  0
VERTEX
  5
30B
  8
LAYER_1
 10
-36.28515046157149
 20
122.899106889609
 30
0.0
  0
VERTEX
  5
30C
  8
LAYER_1
 10
-36.33559478721109
 20
122.8119954795733
 30
0.0
  0
VERTEX
  5
30D
  8
LAYER_1
 10
-36.37846245998666
 20
122.7138861423396
 30
0.0
  0
VERTEX
  5
30E
  8
LAYER_1
 10
-36.41239436795138
 20
122.6038216363557
 30
0.0
  0
VERTEX
  5
30F
  8
LAYER_1
 10
-36.43739051110522
 20
122.4818019616214
 30
0.0
  0
VERTEX
  5
310
  8
LAYER_1
 10
-36.45345088944818
 20
122.3478271181369
 30
0.0
  0
VERTEX
  5
311
  8
LAYER_1
 10
-36.46057550298028
 20
122.2018971059022
 30
0.0
  0
VERTEX
  5
312
  8
LAYER_1
 10
-36.4587643517015
 20
122.0440119249171
 30
0.0
  0
VERTEX
  5
313
  8
LAYER_1
 10
-36.44801743561187
 20
121.8741715751818
 30
0.0
  0
VERTEX
  5
314
  8
LAYER_1
 10
-36.42833475471135
 20
121.6923760566962
 30
0.0
  0
VERTEX
  5
315
  8
LAYER_1
 10
-36.40346116247643
 20
121.5370264115587
 30
0.0
  0
VERTEX
  5
316
  8
LAYER_1
 10
-36.3692362987971
 20
121.3844955148308
 30
0.0
  0
VERTEX
  5
317
  8
LAYER_1
 10
-36.32566016367335
 20
121.2347833665126
 30
0.0
  0
VERTEX
  5
318
  8
LAYER_1
 10
-36.2727327571052
 20
121.087889966604
 30
0.0
  0
VERTEX
  5
319
  8
LAYER_1
 10
-36.20926687987495
 20
120.9496993836711
 30
0.0
  0
VERTEX
  5
31A
  8
LAYER_1
 10
-36.13407533276492
 20
120.8260956862798
 30
0.0
  0
VERTEX
  5
31B
  8
LAYER_1
 10
-36.04715811577512
 20
120.7170788744302
 30
0.0
  0
VERTEX
  5
31C
  8
LAYER_1
 10
-35.94851522890553
 20
120.6226489481222
 30
0.0
  0
VERTEX
  5
31D
  8
LAYER_1
 10
-35.83695946640839
 20
120.5486899845311
 30
0.0
  0
VERTEX
  5
31E
  8
LAYER_1
 10
-35.71130362253592
 20
120.5010860608321
 30
0.0
  0
VERTEX
  5
31F
  8
LAYER_1
 10
-35.5715476972881
 20
120.4798371770253
 30
0.0
  0
SEQEND
  5
4B9
  8
LAYER_1
  0
POLYLINE
  5
86
  8
LAYER_1
 66
     1
 10
0.0
 20
0.0
 30
0.0
 70
     1
  0
VERTEX
  5
320
  8
LAYER_1
 10
-35.45989790538055
 20
120.9396045644594
 30
0.0
  0
VERTEX
  5
321
  8
LAYER_1
 10
-35.51625992952515
 20
120.9413296259397
 30
0.0
  0
VERTEX
  5
322
  8
LAYER_1
 10
-35.56853820084496
 20
120.9589512574218
 30
0.0
  0
VERTEX
  5
323
  8
LAYER_1
 10
-35.61673271933996
 20
120.9924694589057
 30
0.0
  0
VERTEX
  5
324
  8
LAYER_1
 10
-35.66084348501016
 20
121.0418842303912
 30
0.0
  0
VERTEX
  5
325
  8
LAYER_1
 10
-35.7011414604277
 20
121.1044620053522
 30
0.0
  0
VERTEX
  5
326
  8
LAYER_1
 10
-35.73789761648121
 20
121.1774692778194
 30
0.0
  0
VERTEX
  5
327
  8
LAYER_1
 10
-35.80078447049615
 20
121.3547723152727
 30
0.0
  0
VERTEX
  5
328
  8
LAYER_1
 10
-35.85058803717026
 20
121.5628591962666
 30
0.0
  0
VERTEX
  5
329
  8
LAYER_1
 10
-35.88839218550423
 20
121.7907957909495
 30
0.0
  0
VERTEX
  5
32A
  8
LAYER_1
 10
-35.9118814586929
 20
121.9893440339741
 30
0.0
  0
VERTEX
  5
32B
  8
LAYER_1
 10
-35.92364498828761
 20
122.1695005722716
 30
0.0
  0
VERTEX
  5
32C
  8
LAYER_1
 10
-35.92368277428835
 20
122.3312654058419
 30
0.0
  0
VERTEX
  5
32D
  8
LAYER_1
 10
-35.91199481669513
 20
122.4746385346849
 30
0.0
  0
VERTEX
  5
32E
  8
LAYER_1
 10
-35.88656591884477
 20
122.5939245137155
 30
0.0
  0
VERTEX
  5
32F
  8
LAYER_1
 10
-35.84538083183332
 20
122.6834279667221
 30
0.0
  0
VERTEX
  5
330
  8
LAYER_1
 10
-35.81887971739218
 20
122.7170112459664
 30
0.0
  0
VERTEX
  5
331
  8
LAYER_1
 10
-35.78843955566076
 20
122.7431488937047
 30
0.0
  0
VERTEX
  5
332
  8
LAYER_1
 10
-35.75406034663906
 20
122.761840909937
 30
0.0
  0
VERTEX
  5
333
  8
LAYER_1
 10
-35.7157420903271
 20
122.7730872946633
 30
0.0
  0
VERTEX
  5
334
  8
LAYER_1
 10
-35.67678579287742
 20
122.7746809633117
 30
0.0
  0
VERTEX
  5
335
  8
LAYER_1
 10
-35.63919293763053
 20
122.7687643661163
 30
0.0
  0
VERTEX
  5
336
  8
LAYER_1
 10
-35.56809755374512
 20
122.7344003741935
 30
0.0
  0
VERTEX
  5
337
  8
LAYER_1
 10
-35.50245593867088
 20
122.6699953188948
 30
0.0
  0
VERTEX
  5
338
  8
LAYER_1
 10
-35.44226809240782
 20
122.5755492002203
 30
0.0
  0
VERTEX
  5
339
  8
LAYER_1
 10
-35.38803780753304
 20
122.4512772267719
 30
0.0
  0
VERTEX
  5
33A
  8
LAYER_1
 10
-35.34026887662367
 20
122.2973946071515
 30
0.0
  0
VERTEX
  5
33B
  8
LAYER_1
 10
-35.29896129967972
 20
122.1139013413591
 30
0.0
  0
VERTEX
  5
33C
  8
LAYER_1
 10
-35.26411507670119
 20
121.9007974293946
 30
0.0
  0
VERTEX
  5
33D
  8
LAYER_1
 10
-35.24141351556496
 20
121.6947473085559
 30
0.0
  0
VERTEX
  5
33E
  8
LAYER_1
 10
-35.23231240788284
 20
121.5117612034294
 30
0.0
  0
VERTEX
  5
33F
  8
LAYER_1
 10
-35.23681175365485
 20
121.3518391140152
 30
0.0
  0
VERTEX
  5
340
  8
LAYER_1
 10
-35.25491155288098
 20
121.2149810403133
 30
0.0
  0
VERTEX
  5
341
  8
LAYER_1
 10
-35.28639821937709
 20
121.1037754611881
 30
0.0
  0
VERTEX
  5
342
  8
LAYER_1
 10
-35.33105816695906
 20
121.0208108555041
 30
0.0
  0
VERTEX
  5
343
  8
LAYER_1
 10
-35.38889139562689
 20
120.9660872232612
 30
0.0
  0
VERTEX
  5
344
  8
LAYER_1
 10
-35.42274799036798
 20
120.9493157721801
 30
0.0
  0
SEQEND
  5
4BA
  8
LAYER_1
  0
POLYLINE
  5
87
  8
LAYER_1
 66
     1
 10
0.0
 20
0.0
 30
0.0
 70
     1
  0
VERTEX
  5
345
  8
LAYER_1
 10
-36.622563385798
 20
123.0729312188004
 30
0.0
  0
VERTEX
  5
346
  8
LAYER_1
 10
-37.14630963687903
 20
123.0965093691829
 30
0.0
  0
VERTEX
  5
347
  8
LAYER_1
 10
-37.19639350443282
 20
121.9839862303691
 30
0.0
  0
VERTEX
  5
348
  8
LAYER_1
 10
-37.80467950377814
 20
122.0113702140033
 30
0.0
  0
VERTEX
  5
349
  8
LAYER_1
 10
-37.82429418284512
 20
121.5756653575644
 30
0.0
  0
VERTEX
  5
34A
  8
LAYER_1
 10
-37.21600818349981
 20
121.5482813739301
 30
0.0
  0
VERTEX
  5
34B
  8
LAYER_1
 10
-37.24719800038589
 20
120.8554556263205
 30
0.0
  0
VERTEX
  5
34C
  8
LAYER_1
 10
-37.89550281547761
 20
120.8846411878255
 30
0.0
  0
VERTEX
  5
34D
  8
LAYER_1
 10
-37.91601828347994
 20
120.4289269235133
 30
0.0
  0
VERTEX
  5
34E
  8
LAYER_1
 10
-36.74396721730718
 20
120.3761632116259
 30
0.0
  0
SEQEND
  5
4BB
  8
LAYER_1
  0
POLYLINE
  5
88
  8
LAYER_1
 66
     1
 10
0.0
 20
0.0
 30
0.0
 70
     1
  0
VERTEX
  5
34F
  8
LAYER_1
 10
-37.9054114073598
 20
123.1101652946363
 30
0.0
  0
VERTEX
  5
350
  8
LAYER_1
 10
-38.41577803553542
 20
123.2301318297265
 30
0.0
  0
VERTEX
  5
351
  8
LAYER_1
 10
-38.67060667802346
 20
122.1460292095133
 30
0.0
  0
VERTEX
  5
352
  8
LAYER_1
 10
-39.26335340186449
 20
122.2853599704204
 30
0.0
  0
VERTEX
  5
353
  8
LAYER_1
 10
-39.36315364261289
 20
121.8607856312217
 30
0.0
  0
VERTEX
  5
354
  8
LAYER_1
 10
-38.77040691877186
 20
121.7214548703147
 30
0.0
  0
VERTEX
  5
355
  8
LAYER_1
 10
-38.92910190549578
 20
121.0463280508082
 30
0.0
  0
VERTEX
  5
356
  8
LAYER_1
 10
-39.56084512432634
 20
121.1948253091434
 30
0.0
  0
VERTEX
  5
357
  8
LAYER_1
 10
-39.66522861378879
 20
120.75075272245
 30
0.0
  0
VERTEX
  5
358
  8
LAYER_1
 10
-38.5231187667826
 20
120.4822889290246
 30
0.0
  0
SEQEND
  5
4BC
  8
LAYER_1
  0
POLYLINE
  5
89
  8
LAYER_1
 66
     1
 10
0.0
 20
0.0
 30
0.0
 70
     1
  0
VERTEX
  5
359
  8
LAYER_1
 10
-61.33144787585898
 20
123.0704052517437
 30
0.0
  0
VERTEX
  5
35A
  8
LAYER_1
 10
-61.13540843181701
 20
122.494042075122
 30
0.0
  0
VERTEX
  5
35B
  8
LAYER_1
 10
-60.89413878700434
 20
121.8204249077718
 30
0.0
  0
VERTEX
  5
35C
  8
LAYER_1
 10
-60.70915431719406
 20
121.3402481763403
 30
0.0
  0
VERTEX
  5
35D
  8
LAYER_1
 10
-60.71673121456182
 20
121.337671032609
 30
0.0
  0
VERTEX
  5
35E
  8
LAYER_1
 10
-60.83306852673388
 20
121.5072483823632
 30
0.0
  0
VERTEX
  5
35F
  8
LAYER_1
 10
-60.96861479707416
 20
121.6877432060594
 30
0.0
  0
VERTEX
  5
360
  8
LAYER_1
 10
-61.23658696266652
 20
122.0196516431193
 30
0.0
  0
VERTEX
  5
361
  8
LAYER_1
 10
-61.95767818289061
 20
122.8574044109331
 30
0.0
  0
VERTEX
  5
362
  8
LAYER_1
 10
-62.41232674685699
 20
122.7027639770371
 30
0.0
  0
VERTEX
  5
363
  8
LAYER_1
 10
-61.54304858821679
 20
120.1470542150034
 30
0.0
  0
VERTEX
  5
364
  8
LAYER_1
 10
-61.10737855205575
 20
120.2952394480979
 30
0.0
  0
VERTEX
  5
365
  8
LAYER_1
 10
-61.29954678884044
 20
120.8602211329843
 30
0.0
  0
VERTEX
  5
366
  8
LAYER_1
 10
-61.42257753422815
 20
121.2036843019474
 30
0.0
  0
VERTEX
  5
367
  8
LAYER_1
 10
-61.54532078836994
 20
121.520672170249
 30
0.0
  0
VERTEX
  5
368
  8
LAYER_1
 10
-61.75119337529078
 20
122.0265309560074
 30
0.0
  0
VERTEX
  5
369
  8
LAYER_1
 10
-61.74361647792301
 20
122.0291080997386
 30
0.0
  0
VERTEX
  5
36A
  8
LAYER_1
 10
-61.47853162602981
 20
121.6930447533371
 30
0.0
  0
VERTEX
  5
36B
  8
LAYER_1
 10
-61.21634880637973
 20
121.3750317737131
 30
0.0
  0
VERTEX
  5
36C
  8
LAYER_1
 10
-60.48114639318943
 20
120.5082409187764
 30
0.0
  0
VERTEX
  5
36D
  8
LAYER_1
 10
-60.02649968105774
 20
120.6628807228046
 30
0.0
  0
VERTEX
  5
36E
  8
LAYER_1
 10
-60.89577783969795
 20
123.2185904848382
 30
0.0
  0
SEQEND
  5
4BD
  8
LAYER_1
  0
POLYLINE
  5
8A
  8
LAYER_1
 66
     1
 10
0.0
 20
0.0
 30
0.0
 70
     1
  0
VERTEX
  5
36F
  8
LAYER_1
 10
-62.88156919531964
 20
119.8585597821316
 30
0.0
  0
VERTEX
  5
370
  8
LAYER_1
 10
-62.74191873965747
 20
119.8917487658728
 30
0.0
  0
VERTEX
  5
371
  8
LAYER_1
 10
-62.61786395246989
 20
119.9458101842351
 30
0.0
  0
VERTEX
  5
372
  8
LAYER_1
 10
-62.5094048337569
 20
120.0207440372187
 30
0.0
  0
VERTEX
  5
373
  8
LAYER_1
 10
-62.41654138351849
 20
120.1165503248235
 30
0.0
  0
VERTEX
  5
374
  8
LAYER_1
 10
-62.33868087092506
 20
120.2295555706165
 30
0.0
  0
VERTEX
  5
375
  8
LAYER_1
 10
-62.27523050458964
 20
120.356086306481
 30
0.0
  0
VERTEX
  5
376
  8
LAYER_1
 10
-62.22619028451223
 20
120.4961425324171
 30
0.0
  0
VERTEX
  5
377
  8
LAYER_1
 10
-62.19156021069283
 20
120.6497242484247
 30
0.0
  0
VERTEX
  5
378
  8
LAYER_1
 10
-62.17074754487852
 20
120.8131579520968
 30
0.0
  0
VERTEX
  5
379
  8
LAYER_1
 10
-62.16315949657555
 20
120.9827702099
 30
0.0
  0
VERTEX
  5
37A
  8
LAYER_1
 10
-62.16879606578392
 20
121.1585610218343
 30
0.0
  0
VERTEX
  5
37B
  8
LAYER_1
 10
-62.18765725250363
 20
121.3405303878998
 30
0.0
  0
VERTEX
  5
37C
  8
LAYER_1
 10
-62.21750062403019
 20
121.5221947823333
 30
0.0
  0
VERTEX
  5
37D
  8
LAYER_1
 10
-62.25711780608705
 20
121.6947190269221
 30
0.0
  0
VERTEX
  5
37E
  8
LAYER_1
 10
-62.30650879867419
 20
121.8581031216663
 30
0.0
  0
VERTEX
  5
37F
  8
LAYER_1
 10
-62.36567360179164
 20
122.0123470665657
 30
0.0
  0
VERTEX
  5
380
  8
LAYER_1
 10
-62.43499941804333
 20
122.1535022336445
 30
0.0
  0
VERTEX
  5
381
  8
LAYER_1
 10
-62.51487345834973
 20
122.2776200554839
 30
0.0
  0
VERTEX
  5
382
  8
LAYER_1
 10
-62.60529572271084
 20
122.3847005320841
 30
0.0
  0
VERTEX
  5
383
  8
LAYER_1
 10
-62.70626621112665
 20
122.4747436634449
 30
0.0
  0
VERTEX
  5
384
  8
LAYER_1
 10
-62.81817215595999
 20
122.5438008136474
 30
0.0
  0
VERTEX
  5
385
  8
LAYER_1
 10
-62.9414007373329
 20
122.5879234156463
 30
0.0
  0
VERTEX
  5
386
  8
LAYER_1
 10
-63.07595195524537
 20
122.6071114694415
 30
0.0
  0
VERTEX
  5
387
  8
LAYER_1
 10
-63.2218258096974
 20
122.6013649750332
 30
0.0
  0
VERTEX
  5
388
  8
LAYER_1
 10
-63.3157931045999
 20
122.5845381234592
 30
0.0
  0
VERTEX
  5
389
  8
LAYER_1
 10
-63.40354283246484
 20
122.5576706206764
 30
0.0
  0
VERTEX
  5
38A
  8
LAYER_1
 10
-63.48507499329223
 20
122.5207624666847
 30
0.0
  0
VERTEX
  5
38B
  8
LAYER_1
 10
-63.56038958708206
 20
122.4738136614843
 30
0.0
  0
VERTEX
  5
38C
  8
LAYER_1
 10
-63.62948661383433
 20
122.416824205075
 30
0.0
  0
VERTEX
  5
38D
  8
LAYER_1
 10
-63.69236607354904
 20
122.349794097457
 30
0.0
  0
VERTEX
  5
38E
  8
LAYER_1
 10
-63.74902796622619
 20
122.2727233386301
 30
0.0
  0
VERTEX
  5
38F
  8
LAYER_1
 10
-63.79947229186578
 20
122.1856119285944
 30
0.0
  0
VERTEX
  5
390
  8
LAYER_1
 10
-63.84233996464137
 20
122.0875025913607
 30
0.0
  0
VERTEX
  5
391
  8
LAYER_1
 10
-63.87627187260607
 20
121.9774380853768
 30
0.0
  0
VERTEX
  5
392
  8
LAYER_1
 10
-63.90126801575991
 20
121.8554184106425
 30
0.0
  0
VERTEX
  5
393
  8
LAYER_1
 10
-63.91732839410288
 20
121.721443567158
 30
0.0
  0
VERTEX
  5
394
  8
LAYER_1
 10
-63.92445300763498
 20
121.5755135549232
 30
0.0
  0
VERTEX
  5
395
  8
LAYER_1
 10
-63.92264185635621
 20
121.4176283739382
 30
0.0
  0
VERTEX
  5
396
  8
LAYER_1
 10
-63.91189494026656
 20
121.2477880242029
 30
0.0
  0
VERTEX
  5
397
  8
LAYER_1
 10
-63.89221225936605
 20
121.0659925057173
 30
0.0
  0
VERTEX
  5
398
  8
LAYER_1
 10
-63.86733866713112
 20
120.9106428605798
 30
0.0
  0
VERTEX
  5
399
  8
LAYER_1
 10
-63.83311380345179
 20
120.7581119638519
 30
0.0
  0
VERTEX
  5
39A
  8
LAYER_1
 10
-63.78953766832805
 20
120.6083998155337
 30
0.0
  0
VERTEX
  5
39B
  8
LAYER_1
 10
-63.73661026175989
 20
120.4615064156251
 30
0.0
  0
VERTEX
  5
39C
  8
LAYER_1
 10
-63.67314438452965
 20
120.3233158326922
 30
0.0
  0
VERTEX
  5
39D
  8
LAYER_1
 10
-63.59795283741961
 20
120.1997121353009
 30
0.0
  0
VERTEX
  5
39E
  8
LAYER_1
 10
-63.51103562042981
 20
120.0906953234513
 30
0.0
  0
VERTEX
  5
39F
  8
LAYER_1
 10
-63.41239273356023
 20
119.9962653971433
 30
0.0
  0
VERTEX
  5
3A0
  8
LAYER_1
 10
-63.3008369710631
 20
119.9223064335522
 30
0.0
  0
VERTEX
  5
3A1
  8
LAYER_1
 10
-63.17518112719062
 20
119.8747025098532
 30
0.0
  0
VERTEX
  5
3A2
  8
LAYER_1
 10
-63.0354252019428
 20
119.8534536260464
 30
0.0
  0
SEQEND
  5
4BE
  8
LAYER_1
  0
POLYLINE
  5
8B
  8
LAYER_1
 66
     1
 10
0.0
 20
0.0
 30
0.0
 70
     1
  0
VERTEX
  5
3A3
  8
LAYER_1
 10
-62.92377541003525
 20
120.3132210134805
 30
0.0
  0
VERTEX
  5
3A4
  8
LAYER_1
 10
-62.98013743417985
 20
120.3149460749608
 30
0.0
  0
VERTEX
  5
3A5
  8
LAYER_1
 10
-63.03241570549964
 20
120.3325677064429
 30
0.0
  0
VERTEX
  5
3A6
  8
LAYER_1
 10
-63.08061022399465
 20
120.3660859079268
 30
0.0
  0
VERTEX
  5
3A7
  8
LAYER_1
 10
-63.12472098966486
 20
120.4155006794123
 30
0.0
  0
VERTEX
  5
3A8
  8
LAYER_1
 10
-63.1650189650824
 20
120.4780784543732
 30
0.0
  0
VERTEX
  5
3A9
  8
LAYER_1
 10
-63.20177512113591
 20
120.5510857268405
 30
0.0
  0
VERTEX
  5
3AA
  8
LAYER_1
 10
-63.26466197515084
 20
120.7283887642938
 30
0.0
  0
VERTEX
  5
3AB
  8
LAYER_1
 10
-63.31446554182497
 20
120.9364756452876
 30
0.0
  0
VERTEX
  5
3AC
  8
LAYER_1
 10
-63.35226969015893
 20
121.1644122399706
 30
0.0
  0
VERTEX
  5
3AD
  8
LAYER_1
 10
-63.37575896334759
 20
121.3629604829952
 30
0.0
  0
VERTEX
  5
3AE
  8
LAYER_1
 10
-63.3875224929423
 20
121.5431170212927
 30
0.0
  0
VERTEX
  5
3AF
  8
LAYER_1
 10
-63.38756027894304
 20
121.7048818548629
 30
0.0
  0
VERTEX
  5
3B0
  8
LAYER_1
 10
-63.37587232134982
 20
121.848254983706
 30
0.0
  0
VERTEX
  5
3B1
  8
LAYER_1
 10
-63.35044342349946
 20
121.9675409627366
 30
0.0
  0
VERTEX
  5
3B2
  8
LAYER_1
 10
-63.30925833648801
 20
122.0570444157431
 30
0.0
  0
VERTEX
  5
3B3
  8
LAYER_1
 10
-63.28275722204687
 20
122.0906276949874
 30
0.0
  0
VERTEX
  5
3B4
  8
LAYER_1
 10
-63.25231706031546
 20
122.1167653427258
 30
0.0
  0
VERTEX
  5
3B5
  8
LAYER_1
 10
-63.21793785129376
 20
122.135457358958
 30
0.0
  0
VERTEX
  5
3B6
  8
LAYER_1
 10
-63.17961959498179
 20
122.1467037436844
 30
0.0
  0
VERTEX
  5
3B7
  8
LAYER_1
 10
-63.14066329753211
 20
122.1482974123328
 30
0.0
  0
VERTEX
  5
3B8
  8
LAYER_1
 10
-63.10307044228522
 20
122.1423808151374
 30
0.0
  0
VERTEX
  5
3B9
  8
LAYER_1
 10
-63.03197505839982
 20
122.1080168232145
 30
0.0
  0
VERTEX
  5
3BA
  8
LAYER_1
 10
-62.96633344332558
 20
122.0436117679159
 30
0.0
  0
VERTEX
  5
3BB
  8
LAYER_1
 10
-62.90614559706251
 20
121.9491656492414
 30
0.0
  0
VERTEX
  5
3BC
  8
LAYER_1
 10
-62.85191531218774
 20
121.824893675793
 30
0.0
  0
VERTEX
  5
3BD
  8
LAYER_1
 10
-62.80414638127836
 20
121.6710110561726
 30
0.0
  0
VERTEX
  5
3BE
  8
LAYER_1
 10
-62.76283880433441
 20
121.4875177903802
 30
0.0
  0
VERTEX
  5
3BF
  8
LAYER_1
 10
-62.72799258135588
 20
121.2744138784157
 30
0.0
  0
VERTEX
  5
3C0
  8
LAYER_1
 10
-62.70529102021966
 20
121.0683637575769
 30
0.0
  0
VERTEX
  5
3C1
  8
LAYER_1
 10
-62.69618991253754
 20
120.8853776524505
 30
0.0
  0
VERTEX
  5
3C2
  8
LAYER_1
 10
-62.70068925830955
 20
120.7254555630363
 30
0.0
  0
VERTEX
  5
3C3
  8
LAYER_1
 10
-62.71878905753567
 20
120.5885974893344
 30
0.0
  0
VERTEX
  5
3C4
  8
LAYER_1
 10
-62.75027572403179
 20
120.4773919102092
 30
0.0
  0
VERTEX
  5
3C5
  8
LAYER_1
 10
-62.79493567161375
 20
120.3944273045252
 30
0.0
  0
VERTEX
  5
3C6
  8
LAYER_1
 10
-62.85276890028157
 20
120.3397036722823
 30
0.0
  0
VERTEX
  5
3C7
  8
LAYER_1
 10
-62.88662549502268
 20
120.3229322212012
 30
0.0
  0
SEQEND
  5
4BF
  8
LAYER_1
  0
POLYLINE
  5
8C
  8
LAYER_1
 66
     1
 10
0.0
 20
0.0
 30
0.0
 70
     1
  0
VERTEX
  5
3C8
  8
LAYER_1
 10
-64.0493866920069
 20
122.4808927406418
 30
0.0
  0
VERTEX
  5
3C9
  8
LAYER_1
 10
-64.57313294308794
 20
122.5044708910243
 30
0.0
  0
VERTEX
  5
3CA
  8
LAYER_1
 10
-64.62159539055813
 20
121.4279646863822
 30
0.0
  0
VERTEX
  5
3CB
  8
LAYER_1
 10
-64.69771467584607
 20
121.4313914449543
 30
0.0
  0
VERTEX
  5
3CC
  8
LAYER_1
 10
-64.75910257233632
 20
121.4381023577235
 30
0.0
  0
VERTEX
  5
3CD
  8
LAYER_1
 10
-64.81260912075473
 20
121.4568643784803
 30
0.0
  0
VERTEX
  5
3CE
  8
LAYER_1
 10
-64.8582343211013
 20
121.4876775072249
 30
0.0
  0
VERTEX
  5
3CF
  8
LAYER_1
 10
-64.89597817337607
 20
121.5305417439571
 30
0.0
  0
VERTEX
  5
3D0
  8
LAYER_1
 10
-64.92700323693286
 20
121.5888928596344
 30
0.0
  0
VERTEX
  5
3D1
  8
LAYER_1
 10
-64.95247207112556
 20
121.6661666252144
 30
0.0
  0
VERTEX
  5
3D2
  8
LAYER_1
 10
-64.97238467595413
 20
121.762363040697
 30
0.0
  0
VERTEX
  5
3D3
  8
LAYER_1
 10
-64.98674105141862
 20
121.8774821060823
 30
0.0
  0
VERTEX
  5
3D4
  8
LAYER_1
 10
-65.03759169343301
 20
122.2852816904746
 30
0.0
  0
VERTEX
  5
3D5
  8
LAYER_1
 10
-65.06541953897778
 20
122.4353427628849
 30
0.0
  0
VERTEX
  5
3D6
  8
LAYER_1
 10
-65.08981532605749
 20
122.5277310382816
 30
0.0
  0
VERTEX
  5
3D7
  8
LAYER_1
 10
-65.63763344194224
 20
122.5523928623842
 30
0.0
  0
VERTEX
  5
3D8
  8
LAYER_1
 10
-65.60295975536494
 20
122.4361711592978
 30
0.0
  0
VERTEX
  5
3D9
  8
LAYER_1
 10
-65.56622356289711
 20
122.2574511363765
 30
0.0
  0
VERTEX
  5
3DA
  8
LAYER_1
 10
-65.49860518889133
 20
121.812305520995
 30
0.0
  0
VERTEX
  5
3DB
  8
LAYER_1
 10
-65.46007429624484
 20
121.6156088694566
 30
0.0
  0
VERTEX
  5
3DC
  8
LAYER_1
 10
-65.43264930476536
 20
121.5326958208623
 30
0.0
  0
VERTEX
  5
3DD
  8
LAYER_1
 10
-65.39978461651509
 20
121.4600729570512
 30
0.0
  0
VERTEX
  5
3DE
  8
LAYER_1
 10
-65.36027919140437
 20
121.3973055916759
 30
0.0
  0
VERTEX
  5
3DF
  8
LAYER_1
 10
-65.31293192553079
 20
121.3439590967038
 30
0.0
  0
VERTEX
  5
3E0
  8
LAYER_1
 10
-65.25774281889431
 20
121.3000334721347
 30
0.0
  0
VERTEX
  5
3E1
  8
LAYER_1
 10
-65.19471187149496
 20
121.2655287179688
 30
0.0
  0
VERTEX
  5
3E2
  8
LAYER_1
 10
-65.19507174173278
 20
121.257534847166
 30
0.0
  0
VERTEX
  5
3E3
  8
LAYER_1
 10
-65.29462264456623
 20
121.2073378633521
 30
0.0
  0
VERTEX
  5
3E4
  8
LAYER_1
 10
-65.38178417230236
 20
121.1466050440463
 30
0.0
  0
VERTEX
  5
3E5
  8
LAYER_1
 10
-65.45655632494118
 20
121.0753363892484
 30
0.0
  0
VERTEX
  5
3E6
  8
LAYER_1
 10
-65.51893910248266
 20
120.9935318989585
 30
0.0
  0
VERTEX
  5
3E7
  8
LAYER_1
 10
-65.5687290689382
 20
120.9036260763552
 30
0.0
  0
VERTEX
  5
3E8
  8
LAYER_1
 10
-65.60572272725526
 20
120.808053421868
 30
0.0
  0
VERTEX
  5
3E9
  8
LAYER_1
 10
-65.62992007743387
 20
120.7068139354971
 30
0.0
  0
VERTEX
  5
3EA
  8
LAYER_1
 10
-65.641321119474
 20
120.5999076172424
 30
0.0
  0
VERTEX
  5
3EB
  8
LAYER_1
 10
-65.63867881767564
 20
120.434735943445
 30
0.0
  0
VERTEX
  5
3EC
  8
LAYER_1
 10
-65.61087684421061
 20
120.2861576175225
 30
0.0
  0
VERTEX
  5
3ED
  8
LAYER_1
 10
-65.58596904103803
 20
120.2175511755977
 30
0.0
  0
VERTEX
  5
3EE
  8
LAYER_1
 10
-65.55162744081863
 20
120.1520135018084
 30
0.0
  0
VERTEX
  5
3EF
  8
LAYER_1
 10
-65.50785204355245
 20
120.0895445961544
 30
0.0
  0
VERTEX
  5
3F0
  8
LAYER_1
 10
-65.45464284923946
 20
120.0301444586358
 30
0.0
  0
VERTEX
  5
3F1
  8
LAYER_1
 10
-65.38715976578015
 20
119.9729752054536
 30
0.0
  0
VERTEX
  5
3F2
  8
LAYER_1
 10
-65.3128578828675
 20
119.9248860194875
 30
0.0
  0
VERTEX
  5
3F3
  8
LAYER_1
 10
-65.2317372005015
 20
119.8858769007376
 30
0.0
  0
VERTEX
  5
3F4
  8
LAYER_1
 10
-65.14379771868212
 20
119.8559478492039
 30
0.0
  0
VERTEX
  5
3F5
  8
LAYER_1
 10
-64.95228755397429
 20
119.8160372459017
 30
0.0
  0
VERTEX
  5
3F6
  8
LAYER_1
 10
-64.74315258603492
 20
119.7978615076977
 30
0.0
  0
VERTEX
  5
3F7
  8
LAYER_1
 10
-64.44308017789159
 20
119.7983696272181
 30
0.0
  0
VERTEX
  5
3F8
  8
LAYER_1
 10
-64.16899189256233
 20
119.8240780887484
 30
0.0
  0
SEQEND
  5
4C0
  8
LAYER_1
  0
POLYLINE
  5
8D
  8
LAYER_1
 66
     1
 10
0.0
 20
0.0
 30
0.0
 70
     1
  0
VERTEX
  5
3F9
  8
LAYER_1
 10
-64.67600262440611
 20
120.2194057325486
 30
0.0
  0
VERTEX
  5
3FA
  8
LAYER_1
 10
-64.73265384454115
 20
120.2094174439005
 30
0.0
  0
VERTEX
  5
3FB
  8
LAYER_1
 10
-64.80091829676536
 20
120.2089799516863
 30
0.0
  0
VERTEX
  5
3FC
  8
LAYER_1
 10
-64.88211239899593
 20
120.2233400741559
 30
0.0
  0
VERTEX
  5
3FD
  8
LAYER_1
 10
-64.95044420183665
 20
120.2496287187359
 30
0.0
  0
VERTEX
  5
3FE
  8
LAYER_1
 10
-65.00591370528751
 20
120.2878458854263
 30
0.0
  0
VERTEX
  5
3FF
  8
LAYER_1
 10
-65.0485209093485
 20
120.3379915742272
 30
0.0
  0
VERTEX
  5
400
  8
LAYER_1
 10
-65.07958352705386
 20
120.397962139175
 30
0.0
  0
VERTEX
  5
401
  8
LAYER_1
 10
-65.10041921037396
 20
120.4656539315571
 30
0.0
  0
VERTEX
  5
402
  8
LAYER_1
 10
-65.11102795930884
 20
120.5410669513736
 30
0.0
  0
VERTEX
  5
403
  8
LAYER_1
 10
-65.11140977385847
 20
120.6242011986246
 30
0.0
  0
VERTEX
  5
404
  8
LAYER_1
 10
-65.10116970942505
 20
120.7105875744274
 30
0.0
  0
VERTEX
  5
405
  8
LAYER_1
 10
-65.07973925906651
 20
120.7884766504747
 30
0.0
  0
VERTEX
  5
406
  8
LAYER_1
 10
-65.0471184227828
 20
120.8578684267665
 30
0.0
  0
VERTEX
  5
407
  8
LAYER_1
 10
-65.00330720057393
 20
120.9187629033029
 30
0.0
  0
VERTEX
  5
408
  8
LAYER_1
 10
-64.94929028842108
 20
120.9681010114705
 30
0.0
  0
VERTEX
  5
409
  8
LAYER_1
 10
-64.8860523184926
 20
121.0028237409708
 30
0.0
  0
VERTEX
  5
40A
  8
LAYER_1
 10
-64.81359329078848
 20
121.0229310918039
 30
0.0
  0
VERTEX
  5
40B
  8
LAYER_1
 10
-64.73191320530871
 20
121.0284230639698
 30
0.0
  0
VERTEX
  5
40C
  8
LAYER_1
 10
-64.63976880732857
 20
121.0242748825403
 30
0.0
  0
SEQEND
  5
4C1
  8
LAYER_1
  0
POLYLINE
  5
8E
  8
LAYER_1
 66
     1
 10
0.0
 20
0.0
 30
0.0
 70
     1
  0
VERTEX
  5
40D
  8
LAYER_1
 10
-67.16174730348024
 20
123.0677015833054
 30
0.0
  0
VERTEX
  5
40E
  8
LAYER_1
 10
-67.6053662243021
 20
123.2185904848382
 30
0.0
  0
VERTEX
  5
40F
  8
LAYER_1
 10
-68.31919825421656
 20
120.6100085514204
 30
0.0
  0
VERTEX
  5
410
  8
LAYER_1
 10
-67.79593713172633
 20
120.4320308045715
 30
0.0
  0
VERTEX
  5
411
  8
LAYER_1
 10
-67.280281637401
 20
121.288885702506
 30
0.0
  0
VERTEX
  5
412
  8
LAYER_1
 10
-67.03035875634157
 20
121.7189475050358
 30
0.0
  0
VERTEX
  5
413
  8
LAYER_1
 10
-66.81285947349198
 20
122.1283085373081
 30
0.0
  0
VERTEX
  5
414
  8
LAYER_1
 10
-66.80527597896315
 20
122.1257291496727
 30
0.0
  0
VERTEX
  5
415
  8
LAYER_1
 10
-66.87206304283214
 20
121.6635196136188
 30
0.0
  0
VERTEX
  5
416
  8
LAYER_1
 10
-66.92764914180977
 20
121.1689441774556
 30
0.0
  0
VERTEX
  5
417
  8
LAYER_1
 10
-67.03758767884192
 20
120.1740920410225
 30
0.0
  0
VERTEX
  5
418
  8
LAYER_1
 10
-66.51432655635169
 20
119.9961142941736
 30
0.0
  0
VERTEX
  5
419
  8
LAYER_1
 10
-65.45925278175476
 20
122.4886290591378
 30
0.0
  0
VERTEX
  5
41A
  8
LAYER_1
 10
-65.88772022263444
 20
122.634364460543
 30
0.0
  0
VERTEX
  5
41B
  8
LAYER_1
 10
-66.23122700771299
 20
121.7612551495811
 30
0.0
  0
VERTEX
  5
41C
  8
LAYER_1
 10
-66.3952970701494
 20
121.3503992547013
 30
0.0
  0
VERTEX
  5
41D
  8
LAYER_1
 10
-66.55944288255614
 20
120.9206641069227
 30
0.0
  0
VERTEX
  5
41E
  8
LAYER_1
 10
-66.5708181243494
 20
120.9245331883759
 30
0.0
  0
VERTEX
  5
41F
  8
LAYER_1
 10
-66.49900038221682
 20
121.3766577732485
 30
0.0
  0
VERTEX
  5
420
  8
LAYER_1
 10
-66.45409620228591
 20
121.777640313056
 30
0.0
  0
VERTEX
  5
421
  8
LAYER_1
 10
-66.3607113048638
 20
122.7486992806271
 30
0.0
  0
VERTEX
  5
422
  8
LAYER_1
 10
-66.71334380045505
 20
122.8686408056774
 30
0.0
  0
VERTEX
  5
423
  8
LAYER_1
 10
-67.24414776356102
 20
122.0294367035609
 30
0.0
  0
VERTEX
  5
424
  8
LAYER_1
 10
-67.45092925252169
 20
121.6935632266201
 30
0.0
  0
VERTEX
  5
425
  8
LAYER_1
 10
-67.67421657829621
 20
121.2998340893398
 30
0.0
  0
VERTEX
  5
426
  8
LAYER_1
 10
-67.68559182008947
 20
121.303703170793
 30
0.0
  0
VERTEX
  5
427
  8
LAYER_1
 10
-67.54215602671935
 20
121.7394018985374
 30
0.0
  0
VERTEX
  5
428
  8
LAYER_1
 10
-67.42067911115198
 20
122.1571817011572
 30
0.0
  0
SEQEND
  5
4C2
  8
LAYER_1
  0
POLYLINE
  5
8F
  8
LAYER_1
 66
     1
 10
0.0
 20
0.0
 30
0.0
 70
     1
  0
VERTEX
  5
429
  8
LAYER_1
 10
-71.37574682924745
 20
121.2021097775174
 30
0.0
  0
VERTEX
  5
42A
  8
LAYER_1
 10
-70.79169298316431
 20
121.4007650627975
 30
0.0
  0
VERTEX
  5
42B
  8
LAYER_1
 10
-70.59158648232618
 20
120.812444589592
 30
0.0
  0
VERTEX
  5
42C
  8
LAYER_1
 10
-71.2059807879461
 20
120.6034695492325
 30
0.0
  0
VERTEX
  5
42D
  8
LAYER_1
 10
-71.05908552423656
 20
120.1715920705135
 30
0.0
  0
VERTEX
  5
42E
  8
LAYER_1
 10
-69.94834026338204
 20
120.5493918541265
 30
0.0
  0
VERTEX
  5
42F
  8
LAYER_1
 10
-70.8176183826555
 20
123.1051015004205
 30
0.0
  0
VERTEX
  5
430
  8
LAYER_1
 10
-71.9738743328152
 20
122.7118220841883
 30
0.0
  0
VERTEX
  5
431
  8
LAYER_1
 10
-71.82697906910566
 20
122.2799446054693
 30
0.0
  0
VERTEX
  5
432
  8
LAYER_1
 10
-71.16707407418056
 20
122.5043992784481
 30
0.0
  0
VERTEX
  5
433
  8
LAYER_1
 10
-70.93213839994918
 20
121.813679754306
 30
0.0
  0
VERTEX
  5
434
  8
LAYER_1
 10
-71.5161922460323
 20
121.6150244690259
 30
0.0
  0
SEQEND
  5
4C3
  8
LAYER_1
  0
POLYLINE
  5
90
  8
LAYER_1
 66
     1
 10
0.0
 20
0.0
 30
0.0
 70
     1
  0
VERTEX
  5
435
  8
LAYER_1
 10
-73.63811566558395
 20
122.4552899113459
 30
0.0
  0
VERTEX
  5
436
  8
LAYER_1
 10
-74.1023362966456
 20
122.3915371607099
 30
0.0
  0
VERTEX
  5
437
  8
LAYER_1
 10
-73.57238859582483
 20
119.7394792230546
 30
0.0
  0
VERTEX
  5
438
  8
LAYER_1
 10
-73.02482717071152
 20
119.8146774039568
 30
0.0
  0
VERTEX
  5
439
  8
LAYER_1
 10
-72.9474941534144
 20
120.8117333248448
 30
0.0
  0
VERTEX
  5
43A
  8
LAYER_1
 10
-72.9166274484314
 20
121.3081825639376
 30
0.0
  0
VERTEX
  5
43B
  8
LAYER_1
 10
-72.90548090064085
 20
121.7716026188074
 30
0.0
  0
VERTEX
  5
43C
  8
LAYER_1
 10
-72.89754522781311
 20
121.7726924475161
 30
0.0
  0
VERTEX
  5
43D
  8
LAYER_1
 10
-72.75026999074029
 20
121.3295128319374
 30
0.0
  0
VERTEX
  5
43E
  8
LAYER_1
 10
-72.578485366925
 20
120.8624103598007
 30
0.0
  0
VERTEX
  5
43F
  8
LAYER_1
 10
-72.2312598879386
 20
119.9236602748297
 30
0.0
  0
VERTEX
  5
440
  8
LAYER_1
 10
-71.68369846282529
 20
119.998858455732
 30
0.0
  0
VERTEX
  5
441
  8
LAYER_1
 10
-71.85655711575875
 20
122.6999564564555
 30
0.0
  0
VERTEX
  5
442
  8
LAYER_1
 10
-72.30492263052545
 20
122.6383811344123
 30
0.0
  0
VERTEX
  5
443
  8
LAYER_1
 10
-72.2210549800301
 20
121.7038850148464
 30
0.0
  0
VERTEX
  5
444
  8
LAYER_1
 10
-72.18375999192239
 20
121.2630555289821
 30
0.0
  0
VERTEX
  5
445
  8
LAYER_1
 10
-72.13807805635491
 20
120.8053118171413
 30
0.0
  0
VERTEX
  5
446
  8
LAYER_1
 10
-72.1499815655965
 20
120.8036770740782
 30
0.0
  0
VERTEX
  5
447
  8
LAYER_1
 10
-72.28824244291425
 20
121.2400924245582
 30
0.0
  0
VERTEX
  5
448
  8
LAYER_1
 10
-72.42766436262228
 20
121.6187280157415
 30
0.0
  0
VERTEX
  5
449
  8
LAYER_1
 10
-72.77903549796255
 20
122.5287909711552
 30
0.0
  0
VERTEX
  5
44A
  8
LAYER_1
 10
-73.14804428445196
 20
122.4781139361993
 30
0.0
  0
VERTEX
  5
44B
  8
LAYER_1
 10
-73.24682637715024
 20
121.4900560075229
 30
0.0
  0
VERTEX
  5
44C
  8
LAYER_1
 10
-73.28129979787741
 20
121.0971423274958
 30
0.0
  0
VERTEX
  5
44D
  8
LAYER_1
 10
-73.3046219620311
 20
120.6451069969582
 30
0.0
  0
VERTEX
  5
44E
  8
LAYER_1
 10
-73.3165254712727
 20
120.6434722538951
 30
0.0
  0
VERTEX
  5
44F
  8
LAYER_1
 10
-73.38339529703889
 20
121.0972735700895
 30
0.0
  0
VERTEX
  5
450
  8
LAYER_1
 10
-73.46187436323923
 20
121.5252194085564
 30
0.0
  0
SEQEND
  5
4C4
  8
LAYER_1
  0
POLYLINE
  5
91
  8
LAYER_1
 66
     1
 10
0.0
 20
0.0
 30
0.0
 70
     1
  0
VERTEX
  5
451
  8
LAYER_1
 10
-75.45398301798592
 20
121.0124343005154
 30
0.0
  0
VERTEX
  5
452
  8
LAYER_1
 10
-74.84280564867896
 20
120.9284995595482
 30
0.0
  0
VERTEX
  5
453
  8
LAYER_1
 10
-74.92735354927987
 20
120.3128574204979
 30
0.0
  0
VERTEX
  5
454
  8
LAYER_1
 10
-75.57028039231706
 20
120.4011524077492
 30
0.0
  0
VERTEX
  5
455
  8
LAYER_1
 10
-75.63234577301604
 20
119.9492184926204
 30
0.0
  0
VERTEX
  5
456
  8
LAYER_1
 10
-74.47001738317334
 20
119.7895926013166
 30
0.0
  0
VERTEX
  5
457
  8
LAYER_1
 10
-74.10273476259354
 20
122.4639896775616
 30
0.0
  0
VERTEX
  5
458
  8
LAYER_1
 10
-75.31268736303159
 20
122.6301559382914
 30
0.0
  0
VERTEX
  5
459
  8
LAYER_1
 10
-75.37475274373057
 20
122.1782220231626
 30
0.0
  0
VERTEX
  5
45A
  8
LAYER_1
 10
-74.68420169009802
 20
122.0833866664854
 30
0.0
  0
VERTEX
  5
45B
  8
LAYER_1
 10
-74.78346542190748
 20
121.3605900535955
 30
0.0
  0
VERTEX
  5
45C
  8
LAYER_1
 10
-75.39464279121444
 20
121.4445247945628
 30
0.0
  0
SEQEND
  5
4C5
  8
LAYER_1
  0
POLYLINE
  5
92
  8
LAYER_1
 66
     1
 10
0.0
 20
0.0
 30
0.0
 70
     1
  0
VERTEX
  5
45D
  8
LAYER_1
 10
-75.35471231482842
 20
122.593144958644
 30
0.0
  0
VERTEX
  5
45E
  8
LAYER_1
 10
-75.85106327006302
 20
122.7619697018975
 30
0.0
  0
VERTEX
  5
45F
  8
LAYER_1
 10
-76.19806505429409
 20
121.7417716921032
 30
0.0
  0
VERTEX
  5
460
  8
LAYER_1
 10
-76.27020281162689
 20
121.7663080372681
 30
0.0
  0
VERTEX
  5
461
  8
LAYER_1
 10
-76.32727797953589
 20
121.7898863195179
 30
0.0
  0
VERTEX
  5
462
  8
LAYER_1
 10
-76.3734214112358
 20
121.8228370077883
 30
0.0
  0
VERTEX
  5
463
  8
LAYER_1
 10
-76.4086331067266
 20
121.8651601020792
 30
0.0
  0
VERTEX
  5
464
  8
LAYER_1
 10
-76.43291306600828
 20
121.9168556023906
 30
0.0
  0
VERTEX
  5
465
  8
LAYER_1
 10
-76.44641868350135
 20
121.9815472213658
 30
0.0
  0
VERTEX
  5
466
  8
LAYER_1
 10
-76.4493073536263
 20
122.0628586716477
 30
0.0
  0
VERTEX
  5
467
  8
LAYER_1
 10
-76.4415790763831
 20
122.1607899532365
 30
0.0
  0
VERTEX
  5
468
  8
LAYER_1
 10
-76.42323385177181
 20
122.275341066132
 30
0.0
  0
VERTEX
  5
469
  8
LAYER_1
 10
-76.35824205518017
 20
122.681127161507
 30
0.0
  0
VERTEX
  5
46A
  8
LAYER_1
 10
-76.34308020960604
 20
122.8329916829706
 30
0.0
  0
VERTEX
  5
46B
  8
LAYER_1
 10
-76.34071984289862
 20
122.9285174728235
 30
0.0
  0
VERTEX
  5
46C
  8
LAYER_1
 10
-76.85988354966116
 20
123.1051015582903
 30
0.0
  0
VERTEX
  5
46D
  8
LAYER_1
 10
-76.85902665861909
 20
122.9838208320931
 30
0.0
  0
VERTEX
  5
46E
  8
LAYER_1
 10
-76.8736332302807
 20
122.8019498819821
 30
0.0
  0
VERTEX
  5
46F
  8
LAYER_1
 10
-76.93294737450643
 20
122.3556218684188
 30
0.0
  0
VERTEX
  5
470
  8
LAYER_1
 10
-76.95084805411122
 20
122.1559877829418
 30
0.0
  0
VERTEX
  5
471
  8
LAYER_1
 10
-76.94765495588425
 20
122.0687151760793
 30
0.0
  0
VERTEX
  5
472
  8
LAYER_1
 10
-76.93636623230435
 20
121.9898055264676
 30
0.0
  0
VERTEX
  5
473
  8
LAYER_1
 10
-76.91594990016165
 20
121.9185061986225
 30
0.0
  0
VERTEX
  5
474
  8
LAYER_1
 10
-76.88537389869299
 20
121.8540645952461
 30
0.0
  0
VERTEX
  5
475
  8
LAYER_1
 10
-76.84463822789843
 20
121.7964807163387
 30
0.0
  0
VERTEX
  5
476
  8
LAYER_1
 10
-76.79374288777791
 20
121.7457545619001
 30
0.0
  0
VERTEX
  5
477
  8
LAYER_1
 10
-76.79631963784172
 20
121.738178821929
 30
0.0
  0
VERTEX
  5
478
  8
LAYER_1
 10
-76.90592481452796
 20
121.7177625371901
 30
0.0
  0
VERTEX
  5
479
  8
LAYER_1
 10
-77.00657365931733
 20
121.6837711073776
 30
0.0
  0
VERTEX
  5
47A
  8
LAYER_1
 10
-77.09826617220985
 20
121.6362045324915
 30
0.0
  0
VERTEX
  5
47B
  8
LAYER_1
 10
-77.18100235320549
 20
121.5750628125317
 30
0.0
  0
VERTEX
  5
47C
  8
LAYER_1
 10
-77.25390735321211
 20
121.5026269190005
 30
0.0
  0
VERTEX
  5
47D
  8
LAYER_1
 10
-77.31610626526776
 20
121.4211778037169
 30
0.0
  0
VERTEX
  5
47E
  8
LAYER_1
 10
-77.36759908937242
 20
121.3307154666807
 30
0.0
  0
VERTEX
  5
47F
  8
LAYER_1
 10
-77.40838582552608
 20
121.2312399078921
 30
0.0
  0
VERTEX
  5
480
  8
LAYER_1
 10
-77.45194985147447
 20
121.0718948758798
 30
0.0
  0
VERTEX
  5
481
  8
LAYER_1
 10
-77.46672268929153
 20
120.9214613958121
 30
0.0
  0
VERTEX
  5
482
  8
LAYER_1
 10
-77.46195360407977
 20
120.8486294086175
 30
0.0
  0
VERTEX
  5
483
  8
LAYER_1
 10
-77.44726910469308
 20
120.7761111511294
 30
0.0
  0
VERTEX
  5
484
  8
LAYER_1
 10
-77.42266919113146
 20
120.7039066233477
 30
0.0
  0
VERTEX
  5
485
  8
LAYER_1
 10
-77.38815386339488
 20
120.6320158252724
 30
0.0
  0
VERTEX
  5
486
  8
LAYER_1
 10
-77.33930924401675
 20
120.5582832461747
 30
0.0
  0
VERTEX
  5
487
  8
LAYER_1
 10
-77.28138246172063
 20
120.491366674953
 30
0.0
  0
VERTEX
  5
488
  8
LAYER_1
 10
-77.2143735165065
 20
120.4312661116074
 30
0.0
  0
VERTEX
  5
489
  8
LAYER_1
 10
-77.13828240837438
 20
120.3779815561378
 30
0.0
  0
VERTEX
  5
48A
  8
LAYER_1
 10
-76.96552261819377
 20
120.2862043566865
 30
0.0
  0
VERTEX
  5
48B
  8
LAYER_1
 10
-76.76977200601648
 20
120.2103789644589
 30
0.0
  0
VERTEX
  5
48C
  8
LAYER_1
 10
-76.48148304645106
 20
120.1271132205598
 30
0.0
  0
VERTEX
  5
48D
  8
LAYER_1
 10
-76.21111186050938
 20
120.0752987924391
 30
0.0
  0
SEQEND
  5
4C6
  8
LAYER_1
  0
POLYLINE
  5
93
  8
LAYER_1
 66
     1
 10
0.0
 20
0.0
 30
0.0
 70
     1
  0
VERTEX
  5
48E
  8
LAYER_1
 10
-76.5876328166723
 20
120.5964281408043
 30
0.0
  0
VERTEX
  5
48F
  8
LAYER_1
 10
-76.64482048967015
 20
120.6026488087746
 30
0.0
  0
VERTEX
  5
490
  8
LAYER_1
 10
-76.71049413225896
 20
120.6212820990376
 30
0.0
  0
VERTEX
  5
491
  8
LAYER_1
 10
-76.78445339869417
 20
120.6577337418365
 30
0.0
  0
VERTEX
  5
492
  8
LAYER_1
 10
-76.84273214226494
 20
120.70204983554
 30
0.0
  0
VERTEX
  5
493
  8
LAYER_1
 10
-76.88533036297122
 20
120.754230380148
 30
0.0
  0
VERTEX
  5
494
  8
LAYER_1
 10
-76.91224806081303
 20
120.8142753756605
 30
0.0
  0
VERTEX
  5
495
  8
LAYER_1
 10
-76.92533773303386
 20
120.8805325666666
 30
0.0
  0
VERTEX
  5
496
  8
LAYER_1
 10
-76.92645181900733
 20
120.9513496780717
 30
0.0
  0
VERTEX
  5
497
  8
LAYER_1
 10
-76.91559031873342
 20
121.0267267098759
 30
0.0
  0
VERTEX
  5
498
  8
LAYER_1
 10
-76.89275323221219
 20
121.1066636620792
 30
0.0
  0
VERTEX
  5
499
  8
LAYER_1
 10
-76.85880868750525
 20
121.1867588100507
 30
0.0
  0
VERTEX
  5
49A
  8
LAYER_1
 10
-76.81649017183713
 20
121.2555709863114
 30
0.0
  0
VERTEX
  5
49B
  8
LAYER_1
 10
-76.76579768520781
 20
121.3131001908611
 30
0.0
  0
VERTEX
  5
49C
  8
LAYER_1
 10
-76.70673122761728
 20
121.3593464236998
 30
0.0
  0
VERTEX
  5
49D
  8
LAYER_1
 10
-76.6410901832711
 20
121.3916470276141
 30
0.0
  0
VERTEX
  5
49E
  8
LAYER_1
 10
-76.57067385882164
 20
121.4073393835767
 30
0.0
  0
VERTEX
  5
49F
  8
LAYER_1
 10
-76.4954822542689
 20
121.4064234915877
 30
0.0
  0
VERTEX
  5
4A0
  8
LAYER_1
 10
-76.41551536961286
 20
121.388899351647
 30
0.0
  0
VERTEX
  5
4A1
  8
LAYER_1
 10
-76.32819071599947
 20
121.3591974601315
 30
0.0
  0
SEQEND
  5
4C7
  8
LAYER_1
  0
ENDSEC
  0
EOF
