  0
SECTION
  2
HEADER
  9
$ACADVER
  1
AC1009
  9
$DWGCODEPAGE
  3
ansi_1252
  9
$INSBASE
 10
0.0
 20
0.0
 30
0.0
  9
$EXTMIN
 10
-35.62294271719609
 20
124.2635201497149
 30
0.0
  9
$EXTMAX
 10
-0.1179427171961021
 20
127.3727732002037
 30
0.0
  9
$LIMMIN
 10
0.0
 20
0.0
  9
$LIMMAX
 10
12.0
 20
9.0
  9
$ORTHOMODE
 70
     0
  9
$REGENMODE
 70
     1
  9
$FILLMODE
 70
     1
  9
$QTEXTMODE
 70
     0
  9
$MIRRTEXT
 70
     1
  9
$DRAGMODE
 70
     2
  9
$LTSCALE
 40
1.0
  9
$OSMODE
 70
    37
  9
$ATTMODE
 70
     1
  9
$TEXTSIZE
 40
0.2
  9
$TRACEWID
 40
0.05
  9
$TEXTSTYLE
  7
STANDARD
  9
$CLAYER
  8
0
  9
$CELTYPE
  6
BYLAYER
  9
$CECOLOR
 62
   256
  9
$DIMSCALE
 40
1.0
  9
$DIMASZ
 40
0.18
  9
$DIMEXO
 40
0.0625
  9
$DIMDLI
 40
0.38
  9
$DIMRND
 40
0.0
  9
$DIMDLE
 40
0.0
  9
$DIMEXE
 40
0.18
  9
$DIMTP
 40
0.0
  9
$DIMTM
 40
0.0
  9
$DIMTXT
 40
0.18
  9
$DIMCEN
 40
0.09
  9
$DIMTSZ
 40
0.0
  9
$DIMTOL
 70
     0
  9
$DIMLIM
 70
     0
  9
$DIMTIH
 70
     1
  9
$DIMTOH
 70
     1
  9
$DIMSE1
 70
     0
  9
$DIMSE2
 70
     0
  9
$DIMTAD
 70
     0
  9
$DIMZIN
 70
     0
  9
$DIMBLK
  1

  9
$DIMASO
 70
     1
  9
$DIMSHO
 70
     1
  9
$DIMPOST
  1

  9
$DIMAPOST
  1

  9
$DIMALT
 70
     0
  9
$DIMALTD
 70
     2
  9
$DIMALTF
 40
25.4
  9
$DIMLFAC
 40
1.0
  9
$DIMTOFL
 70
     0
  9
$DIMTVP
 40
0.0
  9
$DIMTIX
 70
     0
  9
$DIMSOXD
 70
     0
  9
$DIMSAH
 70
     0
  9
$DIMBLK1
  1

  9
$DIMBLK2
  1

  9
$DIMSTYLE
  2
STANDARD
  9
$DIMCLRD
 70
     0
  9
$DIMCLRE
 70
     0
  9
$DIMCLRT
 70
     0
  9
$DIMTFAC
 40
1.0
  9
$DIMGAP
 40
0.09
  9
$LUNITS
 70
     2
  9
$LUPREC
 70
     4
  9
$SKETCHINC
 40
0.1
  9
$FILLETRAD
 40
0.5
  9
$AUNITS
 70
     0
  9
$AUPREC
 70
     0
  9
$MENU
  1
.
  9
$ELEVATION
 40
0.0
  9
$PELEVATION
 40
0.0
  9
$THICKNESS
 40
0.0
  9
$LIMCHECK
 70
     0
  9
$CHAMFERA
 40
0.0
  9
$CHAMFERB
 40
0.0
  9
$SKPOLY
 70
     0
  9
$TDCREATE
 40
2454910.5
  9
$TDUPDATE
 40
2458019.862613669
  9
$TDINDWG
 40
0.0000000116
  9
$TDUSRTIMER
 40
0.0000000116
  9
$USRTIMER
 70
     1
  9
$ANGBASE
 50
0.0
  9
$ANGDIR
 70
     0
  9
$PDMODE
 70
     0
  9
$PDSIZE
 40
0.0
  9
$PLINEWID
 40
0.0
  9
$COORDS
 70
     1
  9
$SPLFRAME
 70
     0
  9
$SPLINETYPE
 70
     6
  9
$SPLINESEGS
 70
     8
  9
$ATTDIA
 70
     0
  9
$ATTREQ
 70
     1
  9
$HANDLING
 70
     1
  9
$HANDSEED
  5
671
  9
$SURFTAB1
 70
     6
  9
$SURFTAB2
 70
     6
  9
$SURFTYPE
 70
     6
  9
$SURFU
 70
     6
  9
$SURFV
 70
     6
  9
$UCSNAME
  2

  9
$UCSORG
 10
0.0
 20
0.0
 30
0.0
  9
$UCSXDIR
 10
1.0
 20
0.0
 30
0.0
  9
$UCSYDIR
 10
0.0
 20
1.0
 30
0.0
  9
$PUCSNAME
  2

  9
$PUCSORG
 10
0.0
 20
0.0
 30
0.0
  9
$PUCSXDIR
 10
1.0
 20
0.0
 30
0.0
  9
$PUCSYDIR
 10
0.0
 20
1.0
 30
0.0
  9
$USERI1
 70
     0
  9
$USERI2
 70
     0
  9
$USERI3
 70
     0
  9
$USERI4
 70
     0
  9
$USERI5
 70
     0
  9
$USERR1
 40
0.0
  9
$USERR2
 40
0.0
  9
$USERR3
 40
0.0
  9
$USERR4
 40
0.0
  9
$USERR5
 40
0.0
  9
$WORLDVIEW
 70
     1
  9
$SHADEDGE
 70
     3
  9
$SHADEDIF
 70
    70
  9
$TILEMODE
 70
     1
  9
$MAXACTVP
 70
    64
  9
$PLIMCHECK
 70
     0
  9
$PEXTMIN
 10
1.000000000000000E+20
 20
1.000000000000000E+20
 30
1.000000000000000E+20
  9
$PEXTMAX
 10
-1.000000000000000E+20
 20
-1.000000000000000E+20
 30
-1.000000000000000E+20
  9
$PLIMMIN
 10
0.0
 20
0.0
  9
$PLIMMAX
 10
12.0
 20
9.0
  9
$UNITMODE
 70
     0
  9
$VISRETAIN
 70
     1
  9
$PLINEGEN
 70
     0
  9
$PSLTSCALE
 70
     1
  0
ENDSEC
  0
SECTION
  2
TABLES
  0
TABLE
  2
VPORT
 70
     1
  0
VPORT
  2
*ACTIVE
 70
     0
 10
0.0
 20
0.0
 11
1.0
 21
1.0
 12
10.42990654205607
 22
4.5
 13
0.0
 23
0.0
 14
0.5
 24
0.5
 15
0.5
 25
0.5
 16
0.0
 26
0.0
 36
1.0
 17
0.0
 27
0.0
 37
0.0
 40
9.0
 41
1.972972972850329
 42
50.0
 43
0.0
 44
0.0
 50
0.0
 51
0.0
 71
     0
 72
   100
 73
     1
 74
     3
 75
     0
 76
     0
 77
     0
 78
     0
  0
ENDTAB
  0
TABLE
  2
LTYPE
 70
     2
  0
LTYPE
  2
CONTINUOUS
 70
     0
  3
Solid line
 72
    65
 73
     0
 40
0.0
  0
LTYPE
  2
CONTINUOUS2
 70
     0
  3
Solid Line
 72
    65
 73
     0
 40
0.0
  0
ENDTAB
  0
TABLE
  2
LAYER
 70
     2
  0
LAYER
  2
0
 70
     0
 62
     7
  6
CONTINUOUS
  0
LAYER
  2
LAYER_1
 70
     0
 62
    18
  6
CONTINUOUS
  0
ENDTAB
  0
TABLE
  2
STYLE
 70
     1
  0
STYLE
  2
STANDARD
 70
     0
 40
0.0
 41
1.0
 50
0.0
 71
     0
 42
0.2
  3
txt
  4

  0
ENDTAB
  0
TABLE
  2
VIEW
 70
     0
  0
ENDTAB
  0
TABLE
  2
UCS
 70
     0
  0
ENDTAB
  0
TABLE
  2
APPID
 70
     1
  0
APPID
  2
ACAD
 70
     0
  0
ENDTAB
  0
TABLE
  2
DIMSTYLE
 70
     1
  0
DIMSTYLE
  2
STANDARD
 70
     0
  3

  4

  5

  6

  7

 40
1.0
 41
0.18
 42
0.0625
 43
0.38
 44
0.18
 45
0.0
 46
0.0
 47
0.0
 48
0.0
140
0.18
141
0.09
142
0.0
143
25.4
144
1.0
145
0.0
146
1.0
147
0.09
 71
     0
 72
     0
 73
     1
 74
     1
 75
     0
 76
     0
 77
     0
 78
     0
170
     0
171
     2
172
     0
173
     0
174
     0
175
     0
176
     0
177
     0
178
     0
  0
ENDTAB
  0
ENDSEC
  0
SECTION
  2
BLOCKS
  0
BLOCK
  8
0
  2
$MODEL_SPACE
 70
     0
 10
0.0
 20
0.0
 30
0.0
  3
$MODEL_SPACE
  1

  0
ENDBLK
  5
21
  8
0
  0
BLOCK
 67
     1
  8
0
  2
$PAPER_SPACE
 70
     0
 10
0.0
 20
0.0
 30
0.0
  3
$PAPER_SPACE
  1

  0
ENDBLK
  5
1D
 67
     1
  8
0
  0
ENDSEC
  0
SECTION
  2
ENTITIES
  0
POLYLINE
  5
70
  8
LAYER_1
 66
     1
 10
0.0
 20
0.0
 30
0.0
 70
     1
  0
VERTEX
  5
A9
  8
LAYER_1
 10
-7.194356886274956
 20
127.3727732002037
 30
0.0
  0
VERTEX
  5
AA
  8
LAYER_1
 10
-8.138673179050903
 20
127.1508026648681
 30
0.0
  0
VERTEX
  5
AB
  8
LAYER_1
 10
-8.057682695775425
 20
126.8062495790219
 30
0.0
  0
VERTEX
  5
AC
  8
LAYER_1
 10
-7.520071116506848
 20
126.9326202992623
 30
0.0
  0
VERTEX
  5
AD
  8
LAYER_1
 10
-7.108818414636177
 20
125.1830519331842
 30
0.0
  0
VERTEX
  5
AE
  8
LAYER_1
 10
-6.702113701128808
 20
125.2786517482794
 30
0.0
  0
SEQEND
  5
63F
  8
LAYER_1
  0
POLYLINE
  5
71
  8
LAYER_1
 66
     1
 10
0.0
 20
0.0
 30
0.0
 70
     1
  0
VERTEX
  5
AF
  8
LAYER_1
 10
-8.56525689917704
 20
124.9110657325639
 30
0.0
  0
VERTEX
  5
B0
  8
LAYER_1
 10
-8.452020283455303
 20
124.9272355326817
 30
0.0
  0
VERTEX
  5
B1
  8
LAYER_1
 10
-8.349640030258525
 20
124.9611042127927
 30
0.0
  0
VERTEX
  5
B2
  8
LAYER_1
 10
-8.258116139586711
 20
125.0126717728971
 30
0.0
  0
VERTEX
  5
B3
  8
LAYER_1
 10
-8.177448611439857
 20
125.0819382129947
 30
0.0
  0
VERTEX
  5
B4
  8
LAYER_1
 10
-8.107434534717171
 20
125.1659452748298
 30
0.0
  0
VERTEX
  5
B5
  8
LAYER_1
 10
-8.04787094965684
 20
125.2617347023369
 30
0.0
  0
VERTEX
  5
B6
  8
LAYER_1
 10
-7.998757856258859
 20
125.3693064955162
 30
0.0
  0
VERTEX
  5
B7
  8
LAYER_1
 10
-7.960095254523228
 20
125.4886606543675
 30
0.0
  0
VERTEX
  5
B8
  8
LAYER_1
 10
-7.931680229349441
 20
125.6168388994829
 30
0.0
  0
VERTEX
  5
B9
  8
LAYER_1
 10
-7.913309819166596
 20
125.7508830023056
 30
0.0
  0
VERTEX
  5
BA
  8
LAYER_1
 10
-7.904984023974697
 20
125.8907929628358
 30
0.0
  0
VERTEX
  5
BB
  8
LAYER_1
 10
-7.906702843773739
 20
126.0365687810734
 30
0.0
  0
VERTEX
  5
BC
  8
LAYER_1
 10
-7.917158829148384
 20
126.1829021625297
 30
0.0
  0
VERTEX
  5
BD
  8
LAYER_1
 10
-7.936036328017339
 20
126.3226939346551
 30
0.0
  0
VERTEX
  5
BE
  8
LAYER_1
 10
-7.963335340380603
 20
126.4559440974496
 30
0.0
  0
VERTEX
  5
BF
  8
LAYER_1
 10
-7.999055866238175
 20
126.5826526509131
 30
0.0
  0
VERTEX
  5
C0
  8
LAYER_1
 10
-8.043792657858564
 20
126.6997143346151
 30
0.0
  0
VERTEX
  5
C1
  8
LAYER_1
 10
-8.098140469700905
 20
126.8040239367859
 30
0.0
  0
VERTEX
  5
C2
  8
LAYER_1
 10
-8.1620993017652
 20
126.8955814574257
 30
0.0
  0
VERTEX
  5
C3
  8
LAYER_1
 10
-8.235669154051449
 20
126.9743868965343
 30
0.0
  0
VERTEX
  5
C4
  8
LAYER_1
 10
-8.319444803021756
 20
127.0373349895445
 30
0.0
  0
VERTEX
  5
C5
  8
LAYER_1
 10
-8.414020978667835
 20
127.0813205227408
 30
0.0
  0
VERTEX
  5
C6
  8
LAYER_1
 10
-8.519397680989686
 20
127.1063434961232
 30
0.0
  0
VERTEX
  5
C7
  8
LAYER_1
 10
-8.635574909987307
 20
127.1124039096915
 30
0.0
  0
VERTEX
  5
C8
  8
LAYER_1
 10
-8.711368179961951
 20
127.1058923197903
 30
0.0
  0
VERTEX
  5
C9
  8
LAYER_1
 10
-8.78295849694911
 20
127.0909602469116
 30
0.0
  0
VERTEX
  5
CA
  8
LAYER_1
 10
-8.850345860948792
 20
127.0676076910557
 30
0.0
  0
VERTEX
  5
CB
  8
LAYER_1
 10
-8.913530271960994
 20
127.0358346522225
 30
0.0
  0
VERTEX
  5
CC
  8
LAYER_1
 10
-8.972511729985715
 20
126.9956411304119
 30
0.0
  0
VERTEX
  5
CD
  8
LAYER_1
 10
-9.027290235022953
 20
126.947027125624
 30
0.0
  0
VERTEX
  5
CE
  8
LAYER_1
 10
-9.077865787072712
 20
126.8899926378589
 30
0.0
  0
VERTEX
  5
CF
  8
LAYER_1
 10
-9.124238386134987
 20
126.8245376671163
 30
0.0
  0
VERTEX
  5
D0
  8
LAYER_1
 10
-9.165399219548483
 20
126.7498036124444
 30
0.0
  0
VERTEX
  5
D1
  8
LAYER_1
 10
-9.2003394514167
 20
126.664931898317
 30
0.0
  0
VERTEX
  5
D2
  8
LAYER_1
 10
-9.229059081739642
 20
126.569922524734
 30
0.0
  0
VERTEX
  5
D3
  8
LAYER_1
 10
-9.251558110517305
 20
126.4647754916954
 30
0.0
  0
VERTEX
  5
D4
  8
LAYER_1
 10
-9.277894363436799
 20
126.2240684472515
 30
0.0
  0
VERTEX
  5
D5
  8
LAYER_1
 10
-9.279348210175185
 20
125.9428107649854
 30
0.0
  0
VERTEX
  5
D6
  8
LAYER_1
 10
-9.27092012958599
 20
125.8177214023972
 30
0.0
  0
VERTEX
  5
D7
  8
LAYER_1
 10
-9.25486608260583
 20
125.6941880364936
 30
0.0
  0
VERTEX
  5
D8
  8
LAYER_1
 10
-9.2311860692347
 20
125.5722106672747
 30
0.0
  0
VERTEX
  5
D9
  8
LAYER_1
 10
-9.199880089472606
 20
125.4517892947404
 30
0.0
  0
VERTEX
  5
DA
  8
LAYER_1
 10
-9.159577637454753
 20
125.3375068118377
 30
0.0
  0
VERTEX
  5
DB
  8
LAYER_1
 10
-9.108908207316352
 20
125.2339461115132
 30
0.0
  0
VERTEX
  5
DC
  8
LAYER_1
 10
-9.047871799057404
 20
125.1411071937671
 30
0.0
  0
VERTEX
  5
DD
  8
LAYER_1
 10
-8.97646841267791
 20
125.0589900585993
 30
0.0
  0
VERTEX
  5
DE
  8
LAYER_1
 10
-8.89332753650428
 20
124.9921776053131
 30
0.0
  0
VERTEX
  5
DF
  8
LAYER_1
 10
-8.797078658862924
 20
124.9452527332118
 30
0.0
  0
VERTEX
  5
E0
  8
LAYER_1
 10
-8.687721779753845
 20
124.9182154422954
 30
0.0
  0
SEQEND
  5
640
  8
LAYER_1
  0
POLYLINE
  5
72
  8
LAYER_1
 66
     1
 10
0.0
 20
0.0
 30
0.0
 70
     1
  0
VERTEX
  5
E1
  8
LAYER_1
 10
-8.565647520229808
 20
125.2749370651489
 30
0.0
  0
VERTEX
  5
E2
  8
LAYER_1
 10
-8.610248259675064
 20
125.2804095190121
 30
0.0
  0
VERTEX
  5
E3
  8
LAYER_1
 10
-8.650450944715253
 20
125.2981994428842
 30
0.0
  0
VERTEX
  5
E4
  8
LAYER_1
 10
-8.68625557535038
 20
125.3283068367652
 30
0.0
  0
VERTEX
  5
E5
  8
LAYER_1
 10
-8.717662151580441
 20
125.370731700655
 30
0.0
  0
VERTEX
  5
E6
  8
LAYER_1
 10
-8.768937323258417
 20
125.4839358629564
 30
0.0
  0
VERTEX
  5
E7
  8
LAYER_1
 10
-8.80593264656349
 20
125.6292140516054
 30
0.0
  0
VERTEX
  5
E8
  8
LAYER_1
 10
-8.830304403989043
 20
125.7979683475421
 30
0.0
  0
VERTEX
  5
E9
  8
LAYER_1
 10
-8.843708780706416
 20
125.9816008360877
 30
0.0
  0
VERTEX
  5
EA
  8
LAYER_1
 10
-8.847893188553616
 20
126.1408698508845
 30
0.0
  0
VERTEX
  5
EB
  8
LAYER_1
 10
-8.844111616648263
 20
126.2846903357588
 30
0.0
  0
VERTEX
  5
EC
  8
LAYER_1
 10
-8.83236406499036
 20
126.4130622907103
 30
0.0
  0
VERTEX
  5
ED
  8
LAYER_1
 10
-8.812650533579903
 20
126.5259857157393
 30
0.0
  0
VERTEX
  5
EE
  8
LAYER_1
 10
-8.783786519750917
 20
126.6187942455562
 30
0.0
  0
VERTEX
  5
EF
  8
LAYER_1
 10
-8.744587474367027
 20
126.686821565723
 30
0.0
  0
VERTEX
  5
F0
  8
LAYER_1
 10
-8.695053397428236
 20
126.7300676762397
 30
0.0
  0
VERTEX
  5
F1
  8
LAYER_1
 10
-8.63518428893454
 20
126.7485325771065
 30
0.0
  0
VERTEX
  5
F2
  8
LAYER_1
 10
-8.57475310544813
 20
126.7395288193987
 30
0.0
  0
VERTEX
  5
F3
  8
LAYER_1
 10
-8.520836970194583
 20
126.7070829121073
 30
0.0
  0
VERTEX
  5
F4
  8
LAYER_1
 10
-8.473435883173899
 20
126.6511948552322
 30
0.0
  0
VERTEX
  5
F5
  8
LAYER_1
 10
-8.432549844386077
 20
126.5718646487736
 30
0.0
  0
VERTEX
  5
F6
  8
LAYER_1
 10
-8.398562972081201
 20
126.469299751867
 30
0.0
  0
VERTEX
  5
F7
  8
LAYER_1
 10
-8.371859384509357
 20
126.3437076236484
 30
0.0
  0
VERTEX
  5
F8
  8
LAYER_1
 10
-8.352439081670543
 20
126.1950882641176
 30
0.0
  0
VERTEX
  5
F9
  8
LAYER_1
 10
-8.340302063564756
 20
126.0234416732747
 30
0.0
  0
VERTEX
  5
FA
  8
LAYER_1
 10
-8.33728893384833
 20
125.8582768605234
 30
0.0
  0
VERTEX
  5
FB
  8
LAYER_1
 10
-8.343389293470414
 20
125.7124048020067
 30
0.0
  0
VERTEX
  5
FC
  8
LAYER_1
 10
-8.358603142431011
 20
125.5858254977245
 30
0.0
  0
VERTEX
  5
FD
  8
LAYER_1
 10
-8.38293048073012
 20
125.4785389476768
 30
0.0
  0
VERTEX
  5
FE
  8
LAYER_1
 10
-8.416013357925127
 20
125.392583700321
 30
0.0
  0
VERTEX
  5
FF
  8
LAYER_1
 10
-8.45749382357341
 20
125.3299983041144
 30
0.0
  0
VERTEX
  5
100
  8
LAYER_1
 10
-8.507371877674972
 20
125.2907827590571
 30
0.0
  0
SEQEND
  5
641
  8
LAYER_1
  0
POLYLINE
  5
73
  8
LAYER_1
 66
     1
 10
0.0
 20
0.0
 30
0.0
 70
     1
  0
VERTEX
  5
101
  8
LAYER_1
 10
-9.886751337180506
 20
127.1102361223469
 30
0.0
  0
VERTEX
  5
102
  8
LAYER_1
 10
-10.12453774933997
 20
126.4344015952194
 30
0.0
  0
VERTEX
  5
103
  8
LAYER_1
 10
-10.23117290455258
 20
126.1095023766137
 30
0.0
  0
VERTEX
  5
104
  8
LAYER_1
 10
-10.33795137335503
 20
125.7483726193579
 30
0.0
  0
VERTEX
  5
105
  8
LAYER_1
 10
-10.34427530721669
 20
125.749241103332
 30
0.0
  0
VERTEX
  5
106
  8
LAYER_1
 10
-10.33808257900524
 20
126.1286151713035
 30
0.0
  0
VERTEX
  5
107
  8
LAYER_1
 10
-10.34314779570947
 20
126.4612016980491
 30
0.0
  0
VERTEX
  5
108
  8
LAYER_1
 10
-10.37369424452832
 20
127.1771093883522
 30
0.0
  0
VERTEX
  5
109
  8
LAYER_1
 10
-10.80055978019036
 20
127.2357320566035
 30
0.0
  0
VERTEX
  5
10A
  8
LAYER_1
 10
-11.46953106086514
 20
125.1562155550453
 30
0.0
  0
VERTEX
  5
10B
  8
LAYER_1
 10
-11.0647849612833
 20
125.1006306123888
 30
0.0
  0
VERTEX
  5
10C
  8
LAYER_1
 10
-10.84447443196403
 20
125.9307133468981
 30
0.0
  0
VERTEX
  5
10D
  8
LAYER_1
 10
-10.75331249521425
 20
126.2895571848054
 30
0.0
  0
VERTEX
  5
10E
  8
LAYER_1
 10
-10.65889319391247
 20
126.672120493041
 30
0.0
  0
VERTEX
  5
10F
  8
LAYER_1
 10
-10.65256926005081
 20
126.6712520090669
 30
0.0
  0
VERTEX
  5
110
  8
LAYER_1
 10
-10.66057740506123
 20
126.2727938066555
 30
0.0
  0
VERTEX
  5
111
  8
LAYER_1
 10
-10.65519074425647
 20
125.9014962333988
 30
0.0
  0
VERTEX
  5
112
  8
LAYER_1
 10
-10.62843352482877
 20
125.0407052181763
 30
0.0
  0
VERTEX
  5
113
  8
LAYER_1
 10
-10.2932650301608
 20
124.9946755675493
 30
0.0
  0
VERTEX
  5
114
  8
LAYER_1
 10
-10.02509066873685
 20
125.8214072665294
 30
0.0
  0
VERTEX
  5
115
  8
LAYER_1
 10
-9.907942452212062
 20
126.184737938622
 30
0.0
  0
VERTEX
  5
116
  8
LAYER_1
 10
-9.802000155657563
 20
126.5544409145512
 30
0.0
  0
VERTEX
  5
117
  8
LAYER_1
 10
-9.792514254865072
 20
126.5531381885901
 30
0.0
  0
VERTEX
  5
118
  8
LAYER_1
 10
-9.809402428648179
 20
126.1691912534471
 30
0.0
  0
VERTEX
  5
119
  8
LAYER_1
 10
-9.822290457021511
 20
125.7967783736348
 30
0.0
  0
VERTEX
  5
11A
  8
LAYER_1
 10
-9.834779825190457
 20
124.9317104794274
 30
0.0
  0
VERTEX
  5
11B
  8
LAYER_1
 10
-9.404752322597584
 20
124.872653569189
 30
0.0
  0
VERTEX
  5
11C
  8
LAYER_1
 10
-9.475695636172615
 20
127.0537846640308
 30
0.0
  0
SEQEND
  5
642
  8
LAYER_1
  0
POLYLINE
  5
74
  8
LAYER_1
 66
     1
 10
0.0
 20
0.0
 30
0.0
 70
     1
  0
VERTEX
  5
11D
  8
LAYER_1
 10
-13.97363693173369
 20
127.1196990732958
 30
0.0
  0
VERTEX
  5
11E
  8
LAYER_1
 10
-14.04956622588599
 20
127.126554771551
 30
0.0
  0
VERTEX
  5
11F
  8
LAYER_1
 10
-14.15103730882335
 20
127.1212494936792
 30
0.0
  0
VERTEX
  5
120
  8
LAYER_1
 10
-14.26811670562602
 20
127.1024254175693
 30
0.0
  0
VERTEX
  5
121
  8
LAYER_1
 10
-14.39087097274495
 20
127.0687248133416
 30
0.0
  0
VERTEX
  5
122
  8
LAYER_1
 10
-14.5312629144334
 20
127.0076730960612
 30
0.0
  0
VERTEX
  5
123
  8
LAYER_1
 10
-14.6496051215529
 20
126.9316131504528
 30
0.0
  0
VERTEX
  5
124
  8
LAYER_1
 10
-14.74589759410345
 20
126.8405449765164
 30
0.0
  0
VERTEX
  5
125
  8
LAYER_1
 10
-14.82014033208506
 20
126.7344685742521
 30
0.0
  0
VERTEX
  5
126
  8
LAYER_1
 10
-14.86974537201601
 20
126.6173330960273
 30
0.0
  0
VERTEX
  5
127
  8
LAYER_1
 10
-14.89212476609992
 20
126.4930877403249
 30
0.0
  0
VERTEX
  5
128
  8
LAYER_1
 10
-14.8872785143368
 20
126.3617325071448
 30
0.0
  0
VERTEX
  5
129
  8
LAYER_1
 10
-14.85520661672664
 20
126.2232673964871
 30
0.0
  0
VERTEX
  5
12A
  8
LAYER_1
 10
-14.82353098912595
 20
126.1445701183117
 30
0.0
  0
VERTEX
  5
12B
  8
LAYER_1
 10
-14.78144102811503
 20
126.07123323311
 30
0.0
  0
VERTEX
  5
12C
  8
LAYER_1
 10
-14.72893673369387
 20
126.003256740882
 30
0.0
  0
VERTEX
  5
12D
  8
LAYER_1
 10
-14.66601810586249
 20
125.9406406416277
 30
0.0
  0
VERTEX
  5
12E
  8
LAYER_1
 10
-14.59132263703339
 20
125.8847179141197
 30
0.0
  0
VERTEX
  5
12F
  8
LAYER_1
 10
-14.50348781961906
 20
125.836821537131
 30
0.0
  0
VERTEX
  5
130
  8
LAYER_1
 10
-14.4025136536195
 20
125.7969515106615
 30
0.0
  0
VERTEX
  5
131
  8
LAYER_1
 10
-14.28840013903472
 20
125.7651078347112
 30
0.0
  0
VERTEX
  5
132
  8
LAYER_1
 10
-14.12106844695316
 20
125.723052367434
 30
0.0
  0
VERTEX
  5
133
  8
LAYER_1
 10
-14.00933150125575
 20
125.6778972928613
 30
0.0
  0
VERTEX
  5
134
  8
LAYER_1
 10
-13.97095932999677
 20
125.6519773468907
 30
0.0
  0
VERTEX
  5
135
  8
LAYER_1
 10
-13.93978234260968
 20
125.6209224028849
 30
0.0
  0
VERTEX
  5
136
  8
LAYER_1
 10
-13.91580053909449
 20
125.5847324608438
 30
0.0
  0
VERTEX
  5
137
  8
LAYER_1
 10
-13.89901391945119
 20
125.5434075207673
 30
0.0
  0
VERTEX
  5
138
  8
LAYER_1
 10
-13.88890759303735
 20
125.5012070806483
 30
0.0
  0
VERTEX
  5
139
  8
LAYER_1
 10
-13.88756836236179
 20
125.45918679173
 30
0.0
  0
VERTEX
  5
13A
  8
LAYER_1
 10
-13.89499622742452
 20
125.4173466540124
 30
0.0
  0
VERTEX
  5
13B
  8
LAYER_1
 10
-13.91119118822553
 20
125.3756866674957
 30
0.0
  0
VERTEX
  5
13C
  8
LAYER_1
 10
-13.93706625152142
 20
125.3364257341234
 30
0.0
  0
VERTEX
  5
13D
  8
LAYER_1
 10
-13.97353443975413
 20
125.301782801955
 30
0.0
  0
VERTEX
  5
13E
  8
LAYER_1
 10
-14.02059575292364
 20
125.2717578709905
 30
0.0
  0
VERTEX
  5
13F
  8
LAYER_1
 10
-14.07825019102997
 20
125.2463509412298
 30
0.0
  0
VERTEX
  5
140
  8
LAYER_1
 10
-14.16112777299345
 20
125.2245906191605
 30
0.0
  0
VERTEX
  5
141
  8
LAYER_1
 10
-14.23680489171618
 20
125.2160296379083
 30
0.0
  0
VERTEX
  5
142
  8
LAYER_1
 10
-14.30403620296324
 20
125.2179301218293
 30
0.0
  0
VERTEX
  5
143
  8
LAYER_1
 10
-14.36157636249969
 20
125.2275541952795
 30
0.0
  0
VERTEX
  5
144
  8
LAYER_1
 10
-14.30891916372561
 20
124.8647587387906
 30
0.0
  0
VERTEX
  5
145
  8
LAYER_1
 10
-14.24306911531701
 20
124.8574744004955
 30
0.0
  0
VERTEX
  5
146
  8
LAYER_1
 10
-14.1591252522111
 20
124.8601333689621
 30
0.0
  0
VERTEX
  5
147
  8
LAYER_1
 10
-14.06390320931765
 20
124.8742067637529
 30
0.0
  0
VERTEX
  5
148
  8
LAYER_1
 10
-13.96421852931551
 20
124.901165735801
 30
0.0
  0
VERTEX
  5
149
  8
LAYER_1
 10
-13.8187229332843
 20
124.965808662535
 30
0.0
  0
VERTEX
  5
14A
  8
LAYER_1
 10
-13.6999481792492
 20
125.0441071577692
 30
0.0
  0
VERTEX
  5
14B
  8
LAYER_1
 10
-13.60789426721025
 20
125.1360612215035
 30
0.0
  0
VERTEX
  5
14C
  8
LAYER_1
 10
-13.54256119716743
 20
125.2416708537379
 30
0.0
  0
VERTEX
  5
14D
  8
LAYER_1
 10
-13.50241663786126
 20
125.355782464555
 30
0.0
  0
VERTEX
  5
14E
  8
LAYER_1
 10
-13.48592827371763
 20
125.4732425101527
 30
0.0
  0
VERTEX
  5
14F
  8
LAYER_1
 10
-13.49309610473652
 20
125.594050990531
 30
0.0
  0
VERTEX
  5
150
  8
LAYER_1
 10
-13.52392013091794
 20
125.7182079056899
 30
0.0
  0
VERTEX
  5
151
  8
LAYER_1
 10
-13.55271746922622
 20
125.7874759455791
 30
0.0
  0
VERTEX
  5
152
  8
LAYER_1
 10
-13.59334009998658
 20
125.8539075827998
 30
0.0
  0
VERTEX
  5
153
  8
LAYER_1
 10
-13.64578802319901
 20
125.917502817352
 30
0.0
  0
VERTEX
  5
154
  8
LAYER_1
 10
-13.71006123886352
 20
125.9782616492358
 30
0.0
  0
VERTEX
  5
155
  8
LAYER_1
 10
-13.78711406780299
 20
126.0338832097118
 30
0.0
  0
VERTEX
  5
156
  8
LAYER_1
 10
-13.87790084652562
 20
126.0820666761558
 30
0.0
  0
VERTEX
  5
157
  8
LAYER_1
 10
-13.98242157503142
 20
126.1228120485681
 30
0.0
  0
VERTEX
  5
158
  8
LAYER_1
 10
-14.10067625332039
 20
126.1561193269485
 30
0.0
  0
VERTEX
  5
159
  8
LAYER_1
 10
-14.24123244344581
 20
126.1956880089762
 30
0.0
  0
VERTEX
  5
15A
  8
LAYER_1
 10
-14.34894660075558
 20
126.2420005817189
 30
0.0
  0
VERTEX
  5
15B
  8
LAYER_1
 10
-14.3911905229337
 20
126.2704507058468
 30
0.0
  0
VERTEX
  5
15C
  8
LAYER_1
 10
-14.42662916425146
 20
126.3061166062458
 30
0.0
  0
VERTEX
  5
15D
  8
LAYER_1
 10
-14.45526252470885
 20
126.3489982829158
 30
0.0
  0
VERTEX
  5
15E
  8
LAYER_1
 10
-14.47709060430589
 20
126.399095735857
 30
0.0
  0
VERTEX
  5
15F
  8
LAYER_1
 10
-14.48932560442122
 20
126.4489515581649
 30
0.0
  0
VERTEX
  5
160
  8
LAYER_1
 10
-14.49126859520142
 20
126.496932639286
 30
0.0
  0
VERTEX
  5
161
  8
LAYER_1
 10
-14.48291957664649
 20
126.5430389792204
 30
0.0
  0
VERTEX
  5
162
  8
LAYER_1
 10
-14.46427854875644
 20
126.587270577968
 30
0.0
  0
VERTEX
  5
163
  8
LAYER_1
 10
-14.43472285494359
 20
126.6282582030154
 30
0.0
  0
VERTEX
  5
164
  8
LAYER_1
 10
-14.3936298543056
 20
126.6646326679643
 30
0.0
  0
VERTEX
  5
165
  8
LAYER_1
 10
-14.34099954684247
 20
126.6963939728149
 30
0.0
  0
VERTEX
  5
166
  8
LAYER_1
 10
-14.2768319325542
 20
126.7235421175672
 30
0.0
  0
VERTEX
  5
167
  8
LAYER_1
 10
-14.18551923679123
 20
126.7480129837545
 30
0.0
  0
VERTEX
  5
168
  8
LAYER_1
 10
-14.08922455972243
 20
126.7624790117018
 30
0.0
  0
VERTEX
  5
169
  8
LAYER_1
 10
-13.99626521818591
 20
126.7663246205512
 30
0.0
  0
VERTEX
  5
16A
  8
LAYER_1
 10
-13.9149585290198
 20
126.7589342294449
 30
0.0
  0
SEQEND
  5
643
  8
LAYER_1
  0
POLYLINE
  5
75
  8
LAYER_1
 66
     1
 10
0.0
 20
0.0
 30
0.0
 70
     1
  0
VERTEX
  5
16B
  8
LAYER_1
 10
-15.31324575288255
 20
126.8315830791376
 30
0.0
  0
VERTEX
  5
16C
  8
LAYER_1
 10
-15.72714792468211
 20
126.774740706824
 30
0.0
  0
VERTEX
  5
16D
  8
LAYER_1
 10
-15.48696582147871
 20
125.0258359708484
 30
0.0
  0
VERTEX
  5
16E
  8
LAYER_1
 10
-15.86647497613734
 20
124.9737168902171
 30
0.0
  0
VERTEX
  5
16F
  8
LAYER_1
 10
-15.81397586054305
 20
124.5914404813057
 30
0.0
  0
VERTEX
  5
170
  8
LAYER_1
 10
-14.64421795571504
 20
124.75208668921
 30
0.0
  0
VERTEX
  5
171
  8
LAYER_1
 10
-14.69671707130933
 20
125.1343630981214
 30
0.0
  0
VERTEX
  5
172
  8
LAYER_1
 10
-15.07306364967914
 20
125.082678343162
 30
0.0
  0
SEQEND
  5
644
  8
LAYER_1
  0
POLYLINE
  5
76
  8
LAYER_1
 66
     1
 10
0.0
 20
0.0
 30
0.0
 70
     1
  0
VERTEX
  5
173
  8
LAYER_1
 10
-16.06381364965177
 20
126.7446991259953
 30
0.0
  0
VERTEX
  5
174
  8
LAYER_1
 10
-16.23354587120071
 20
126.7682978493763
 30
0.0
  0
VERTEX
  5
175
  8
LAYER_1
 10
-16.45149767732244
 20
126.7844927999246
 30
0.0
  0
VERTEX
  5
176
  8
LAYER_1
 10
-16.57995335892902
 20
126.7866352936091
 30
0.0
  0
VERTEX
  5
177
  8
LAYER_1
 10
-16.69650796058342
 20
126.7813602525158
 30
0.0
  0
VERTEX
  5
178
  8
LAYER_1
 10
-16.80116148228566
 20
126.7686676766448
 30
0.0
  0
VERTEX
  5
179
  8
LAYER_1
 10
-16.89391392403572
 20
126.7485575659959
 30
0.0
  0
VERTEX
  5
17A
  8
LAYER_1
 10
-16.97602989934109
 20
126.7213860631237
 30
0.0
  0
VERTEX
  5
17B
  8
LAYER_1
 10
-17.04877402170928
 20
126.6875093105826
 30
0.0
  0
VERTEX
  5
17C
  8
LAYER_1
 10
-17.11214629114029
 20
126.6469273083725
 30
0.0
  0
VERTEX
  5
17D
  8
LAYER_1
 10
-17.16614670763411
 20
126.5996400564936
 30
0.0
  0
VERTEX
  5
17E
  8
LAYER_1
 10
-17.23787687371926
 20
126.5177002426054
 30
0.0
  0
VERTEX
  5
17F
  8
LAYER_1
 10
-17.29226641317206
 20
126.4220351963138
 30
0.0
  0
VERTEX
  5
180
  8
LAYER_1
 10
-17.32816043081419
 20
126.3117119420338
 30
0.0
  0
VERTEX
  5
181
  8
LAYER_1
 10
-17.34440403146737
 20
126.1857975041804
 30
0.0
  0
VERTEX
  5
182
  8
LAYER_1
 10
-17.34200112635238
 20
126.0978951586843
 30
0.0
  0
VERTEX
  5
183
  8
LAYER_1
 10
-17.3272647767298
 20
126.0146960670095
 30
0.0
  0
VERTEX
  5
184
  8
LAYER_1
 10
-17.30019498259963
 20
125.9362002291558
 30
0.0
  0
VERTEX
  5
185
  8
LAYER_1
 10
-17.26079174396188
 20
125.8624076451233
 30
0.0
  0
VERTEX
  5
186
  8
LAYER_1
 10
-17.20938887941724
 20
125.7958748454995
 30
0.0
  0
VERTEX
  5
187
  8
LAYER_1
 10
-17.14632015671503
 20
125.7391584073422
 30
0.0
  0
VERTEX
  5
188
  8
LAYER_1
 10
-17.07158557585526
 20
125.6922583306513
 30
0.0
  0
VERTEX
  5
189
  8
LAYER_1
 10
-16.98518513683792
 20
125.6551746154268
 30
0.0
  0
VERTEX
  5
18A
  8
LAYER_1
 10
-16.98575865937375
 20
125.6424348426636
 30
0.0
  0
VERTEX
  5
18B
  8
LAYER_1
 10
-17.06212036128069
 20
125.606475548077
 30
0.0
  0
VERTEX
  5
18C
  8
LAYER_1
 10
-17.12840673248439
 20
125.5633821406844
 30
0.0
  0
VERTEX
  5
18D
  8
LAYER_1
 10
-17.18461777298482
 20
125.5131546204855
 30
0.0
  0
VERTEX
  5
18E
  8
LAYER_1
 10
-17.230753482782
 20
125.4557929874805
 30
0.0
  0
VERTEX
  5
18F
  8
LAYER_1
 10
-17.26709490517374
 20
125.3933352236744
 30
0.0
  0
VERTEX
  5
190
  8
LAYER_1
 10
-17.29392308126718
 20
125.3278193597327
 30
0.0
  0
VERTEX
  5
191
  8
LAYER_1
 10
-17.31123801106235
 20
125.2592453956556
 30
0.0
  0
VERTEX
  5
192
  8
LAYER_1
 10
-17.31903969455924
 20
125.187613331443
 30
0.0
  0
VERTEX
  5
193
  8
LAYER_1
 10
-17.31476019807549
 20
125.0765734034928
 30
0.0
  0
VERTEX
  5
194
  8
LAYER_1
 10
-17.29048256877275
 20
124.9709699124689
 30
0.0
  0
VERTEX
  5
195
  8
LAYER_1
 10
-17.24424048667492
 20
124.8746056522867
 30
0.0
  0
VERTEX
  5
196
  8
LAYER_1
 10
-17.17406763180587
 20
124.7912834168612
 30
0.0
  0
VERTEX
  5
197
  8
LAYER_1
 10
-17.11758866448452
 20
124.7459560552972
 30
0.0
  0
VERTEX
  5
198
  8
LAYER_1
 10
-17.0574554166393
 20
124.7082431193017
 30
0.0
  0
VERTEX
  5
199
  8
LAYER_1
 10
-16.99366788827021
 20
124.6781446088747
 30
0.0
  0
VERTEX
  5
19A
  8
LAYER_1
 10
-16.92622607937725
 20
124.6556605240163
 30
0.0
  0
VERTEX
  5
19B
  8
LAYER_1
 10
-16.78428434545661
 20
124.6265311597032
 30
0.0
  0
VERTEX
  5
19C
  8
LAYER_1
 10
-16.63553484299278
 20
124.6138505506791
 30
0.0
  0
VERTEX
  5
19D
  8
LAYER_1
 10
-16.37731421385827
 20
124.6122000226851
 30
0.0
  0
VERTEX
  5
19E
  8
LAYER_1
 10
-16.15883904651301
 20
124.6338806539681
 30
0.0
  0
SEQEND
  5
645
  8
LAYER_1
  0
POLYLINE
  5
77
  8
LAYER_1
 66
     1
 10
0.0
 20
0.0
 30
0.0
 70
     1
  0
VERTEX
  5
19F
  8
LAYER_1
 10
-16.56344142736369
 20
124.936154827296
 30
0.0
  0
VERTEX
  5
1A0
  8
LAYER_1
 10
-16.61098171821656
 20
124.928302167245
 30
0.0
  0
VERTEX
  5
1A1
  8
LAYER_1
 10
-16.67256555866059
 20
124.9282765578454
 30
0.0
  0
VERTEX
  5
1A2
  8
LAYER_1
 10
-16.73220617033788
 20
124.9369946357905
 30
0.0
  0
VERTEX
  5
1A3
  8
LAYER_1
 10
-16.78274587501699
 20
124.9546712287135
 30
0.0
  0
VERTEX
  5
1A4
  8
LAYER_1
 10
-16.82418467269795
 20
124.9813063366144
 30
0.0
  0
VERTEX
  5
1A5
  8
LAYER_1
 10
-16.85652256338074
 20
125.0168999594931
 30
0.0
  0
VERTEX
  5
1A6
  8
LAYER_1
 10
-16.88044913285163
 20
125.0594595880567
 30
0.0
  0
VERTEX
  5
1A7
  8
LAYER_1
 10
-16.89665396470626
 20
125.1069927616729
 30
0.0
  0
VERTEX
  5
1A8
  8
LAYER_1
 10
-16.90513705894463
 20
125.1594994803417
 30
0.0
  0
VERTEX
  5
1A9
  8
LAYER_1
 10
-16.90589841556673
 20
125.2169797440632
 30
0.0
  0
VERTEX
  5
1AA
  8
LAYER_1
 10
-16.89732306511148
 20
125.2806099000663
 30
0.0
  0
VERTEX
  5
1AB
  8
LAYER_1
 10
-16.8801295129824
 20
125.337481686821
 30
0.0
  0
VERTEX
  5
1AC
  8
LAYER_1
 10
-16.85431775917949
 20
125.3875951043274
 30
0.0
  0
VERTEX
  5
1AD
  8
LAYER_1
 10
-16.81988780370274
 20
125.4309501525854
 30
0.0
  0
VERTEX
  5
1AE
  8
LAYER_1
 10
-16.77879448310435
 20
125.4657611923701
 30
0.0
  0
VERTEX
  5
1AF
  8
LAYER_1
 10
-16.73299258527574
 20
125.4902425822657
 30
0.0
  0
VERTEX
  5
1B0
  8
LAYER_1
 10
-16.6824821102169
 20
125.5043943222724
 30
0.0
  0
VERTEX
  5
1B1
  8
LAYER_1
 10
-16.62726305792785
 20
125.50821641239
 30
0.0
  0
VERTEX
  5
1B2
  8
LAYER_1
 10
-16.537869373442
 20
125.5041920633246
 30
0.0
  0
SEQEND
  5
646
  8
LAYER_1
  0
POLYLINE
  5
78
  8
LAYER_1
 66
     1
 10
0.0
 20
0.0
 30
0.0
 70
     1
  0
VERTEX
  5
1B3
  8
LAYER_1
 10
-16.52396154833559
 20
125.8131294117601
 30
0.0
  0
VERTEX
  5
1B4
  8
LAYER_1
 10
-16.61334297031328
 20
125.8171532087886
 30
0.0
  0
VERTEX
  5
1B5
  8
LAYER_1
 10
-16.67490775825623
 20
125.826245212188
 30
0.0
  0
VERTEX
  5
1B6
  8
LAYER_1
 10
-16.73123310910728
 20
125.8451432022649
 30
0.0
  0
VERTEX
  5
1B7
  8
LAYER_1
 10
-16.78231902286643
 20
125.8738471790195
 30
0.0
  0
VERTEX
  5
1B8
  8
LAYER_1
 10
-16.82816549953368
 20
125.9123571424517
 30
0.0
  0
VERTEX
  5
1B9
  8
LAYER_1
 10
-16.86578660455949
 20
125.9603888334247
 30
0.0
  0
VERTEX
  5
1BA
  8
LAYER_1
 10
-16.8921963547336
 20
126.0176579906109
 30
0.0
  0
VERTEX
  5
1BB
  8
LAYER_1
 10
-16.907394750056
 20
126.0841646140103
 30
0.0
  0
VERTEX
  5
1BC
  8
LAYER_1
 10
-16.91138179052669
 20
126.159908703623
 30
0.0
  0
VERTEX
  5
1BD
  8
LAYER_1
 10
-16.90089640583882
 20
126.2365625232115
 30
0.0
  0
VERTEX
  5
1BE
  8
LAYER_1
 10
-16.8803432689224
 20
126.3020466732178
 30
0.0
  0
VERTEX
  5
1BF
  8
LAYER_1
 10
-16.84972237977742
 20
126.3563611536419
 30
0.0
  0
VERTEX
  5
1C0
  8
LAYER_1
 10
-16.80903373840389
 20
126.3995059644837
 30
0.0
  0
VERTEX
  5
1C1
  8
LAYER_1
 10
-16.76087911936786
 20
126.4319729183776
 30
0.0
  0
VERTEX
  5
1C2
  8
LAYER_1
 10
-16.70786029504481
 20
126.4542538766185
 30
0.0
  0
VERTEX
  5
1C3
  8
LAYER_1
 10
-16.64997726543471
 20
126.4663488392065
 30
0.0
  0
VERTEX
  5
1C4
  8
LAYER_1
 10
-16.58723003053757
 20
126.4682578061416
 30
0.0
  0
VERTEX
  5
1C5
  8
LAYER_1
 10
-16.53619079667165
 20
126.4651607470824
 30
0.0
  0
VERTEX
  5
1C6
  8
LAYER_1
 10
-16.49494371946015
 20
126.4577083478295
 30
0.0
  0
SEQEND
  5
647
  8
LAYER_1
  0
POLYLINE
  5
79
  8
LAYER_1
 66
     1
 10
0.0
 20
0.0
 30
0.0
 70
     1
  0
VERTEX
  5
1C7
  8
LAYER_1
 10
-17.97568145829004
 20
127.0164451663411
 30
0.0
  0
VERTEX
  5
1C8
  8
LAYER_1
 10
-18.16775790236421
 20
126.1993055611972
 30
0.0
  0
VERTEX
  5
1C9
  8
LAYER_1
 10
-18.9371639748331
 20
125.0326354054828
 30
0.0
  0
VERTEX
  5
1CA
  8
LAYER_1
 10
-18.51453531050783
 20
124.933292514138
 30
0.0
  0
VERTEX
  5
1CB
  8
LAYER_1
 10
-18.27491375722051
 20
125.3949912171099
 30
0.0
  0
VERTEX
  5
1CC
  8
LAYER_1
 10
-18.16909578477632
 20
125.6082307954144
 30
0.0
  0
VERTEX
  5
1CD
  8
LAYER_1
 10
-18.07204390098715
 20
125.8259898753358
 30
0.0
  0
VERTEX
  5
1CE
  8
LAYER_1
 10
-18.06583474819565
 20
125.8245303548556
 30
0.0
  0
VERTEX
  5
1CF
  8
LAYER_1
 10
-18.06796870103826
 20
125.5820008624704
 30
0.0
  0
VERTEX
  5
1D0
  8
LAYER_1
 10
-18.06161157625547
 20
125.3546885048716
 30
0.0
  0
VERTEX
  5
1D1
  8
LAYER_1
 10
-18.03635894489716
 20
124.8208926067432
 30
0.0
  0
VERTEX
  5
1D2
  8
LAYER_1
 10
-17.60130002573878
 20
124.7186278656528
 30
0.0
  0
VERTEX
  5
1D3
  8
LAYER_1
 10
-17.75740385862037
 20
126.1192412633205
 30
0.0
  0
VERTEX
  5
1D4
  8
LAYER_1
 10
-17.56897905796967
 20
126.9208458949825
 30
0.0
  0
SEQEND
  5
648
  8
LAYER_1
  0
POLYLINE
  5
7A
  8
LAYER_1
 66
     1
 10
0.0
 20
0.0
 30
0.0
 70
     1
  0
VERTEX
  5
1D5
  8
LAYER_1
 10
-0.6904233328513709
 20
124.959220908736
 30
0.0
  0
VERTEX
  5
1D6
  8
LAYER_1
 10
-0.5791397867442087
 20
124.9856682825372
 30
0.0
  0
VERTEX
  5
1D7
  8
LAYER_1
 10
-0.4802839930817835
 20
125.0287483162859
 30
0.0
  0
VERTEX
  5
1D8
  8
LAYER_1
 10
-0.3938559518640953
 20
125.088461009982
 30
0.0
  0
VERTEX
  5
1D9
  8
LAYER_1
 10
-0.3198556630911442
 20
125.1648063636257
 30
0.0
  0
VERTEX
  5
1DA
  8
LAYER_1
 10
-0.2578107961264455
 20
125.2548570864889
 30
0.0
  0
VERTEX
  5
1DB
  8
LAYER_1
 10
-0.2072489720770818
 20
125.3556858944708
 30
0.0
  0
VERTEX
  5
1DC
  8
LAYER_1
 10
-0.1681701909430531
 20
125.4672927875715
 30
0.0
  0
VERTEX
  5
1DD
  8
LAYER_1
 10
-0.1405744527243595
 20
125.5896777657909
 30
0.0
  0
VERTEX
  5
1DE
  8
LAYER_1
 10
-0.1239894208690917
 20
125.7199135177032
 30
0.0
  0
VERTEX
  5
1DF
  8
LAYER_1
 10
-0.1179427171961021
 20
125.855072786766
 30
0.0
  0
VERTEX
  5
1E0
  8
LAYER_1
 10
-0.1224343417053908
 20
125.9951555729793
 30
0.0
  0
VERTEX
  5
1E1
  8
LAYER_1
 10
-0.1374642943969577
 20
126.1401618763431
 30
0.0
  0
VERTEX
  5
1E2
  8
LAYER_1
 10
-0.1612456433050037
 20
126.2849251563346
 30
0.0
  0
VERTEX
  5
1E3
  8
LAYER_1
 10
-0.192815468732035
 20
126.4224049063022
 30
0.0
  0
VERTEX
  5
1E4
  8
LAYER_1
 10
-0.2321737706780517
 20
126.552601126246
 30
0.0
  0
VERTEX
  5
1E5
  8
LAYER_1
 10
-0.2793205491430537
 20
126.6755138161658
 30
0.0
  0
VERTEX
  5
1E6
  8
LAYER_1
 10
-0.3345643550632016
 20
126.7879964247573
 30
0.0
  0
VERTEX
  5
1E7
  8
LAYER_1
 10
-0.3982137460018503
 20
126.8869024489726
 30
0.0
  0
VERTEX
  5
1E8
  8
LAYER_1
 10
-0.4702687219589998
 20
126.9722318888115
 30
0.0
  0
VERTEX
  5
1E9
  8
LAYER_1
 10
-0.5507292829346502
 20
127.0439847442742
 30
0.0
  0
VERTEX
  5
1EA
  8
LAYER_1
 10
-0.6399040035789785
 20
127.0990144577266
 30
0.0
  0
VERTEX
  5
1EB
  8
LAYER_1
 10
-0.7381014169129239
 20
127.1341745264183
 30
0.0
  0
VERTEX
  5
1EC
  8
LAYER_1
 10
-0.8453215229364861
 20
127.1494649503493
 30
0.0
  0
VERTEX
  5
1ED
  8
LAYER_1
 10
-0.9615643216496652
 20
127.1448857295196
 30
0.0
  0
VERTEX
  5
1EE
  8
LAYER_1
 10
-1.036444233392628
 20
127.1314768816638
 30
0.0
  0
VERTEX
  5
1EF
  8
LAYER_1
 10
-1.106369539690031
 20
127.1100669194081
 30
0.0
  0
VERTEX
  5
1F0
  8
LAYER_1
 10
-1.171340240541876
 20
127.0806558427526
 30
0.0
  0
VERTEX
  5
1F1
  8
LAYER_1
 10
-1.231356335948163
 20
127.0432436516972
 30
0.0
  0
VERTEX
  5
1F2
  8
LAYER_1
 10
-1.286417825908891
 20
126.997830346242
 30
0.0
  0
VERTEX
  5
1F3
  8
LAYER_1
 10
-1.336524710424061
 20
126.944415926387
 30
0.0
  0
VERTEX
  5
1F4
  8
LAYER_1
 10
-1.381676989493673
 20
126.8830003921322
 30
0.0
  0
VERTEX
  5
1F5
  8
LAYER_1
 10
-1.421874663117725
 20
126.8135837434775
 30
0.0
  0
VERTEX
  5
1F6
  8
LAYER_1
 10
-1.456034713775692
 20
126.7354031539348
 30
0.0
  0
VERTEX
  5
1F7
  8
LAYER_1
 10
-1.483074103132425
 20
126.6476958244574
 30
0.0
  0
VERTEX
  5
1F8
  8
LAYER_1
 10
-1.502992831187924
 20
126.5504617550454
 30
0.0
  0
VERTEX
  5
1F9
  8
LAYER_1
 10
-1.51579089794219
 20
126.4437009456989
 30
0.0
  0
VERTEX
  5
1FA
  8
LAYER_1
 10
-1.520025047547022
 20
126.201599107202
 30
0.0
  0
VERTEX
  5
1FB
  8
LAYER_1
 10
-1.495776551946919
 20
125.9213903089668
 30
0.0
  0
VERTEX
  5
1FC
  8
LAYER_1
 10
-1.47595548129448
 20
125.7975965174219
 30
0.0
  0
VERTEX
  5
1FD
  8
LAYER_1
 10
-1.448682643714317
 20
125.6760489077253
 30
0.0
  0
VERTEX
  5
1FE
  8
LAYER_1
 10
-1.41395803920643
 20
125.5567474798769
 30
0.0
  0
VERTEX
  5
1FF
  8
LAYER_1
 10
-1.37178166777082
 20
125.4396922338768
 30
0.0
  0
VERTEX
  5
200
  8
LAYER_1
 10
-1.321207483522761
 20
125.3295720195569
 30
0.0
  0
VERTEX
  5
201
  8
LAYER_1
 10
-1.261289440577527
 20
125.2310756867491
 30
0.0
  0
VERTEX
  5
202
  8
LAYER_1
 10
-1.192027538935119
 20
125.1442032354535
 30
0.0
  0
VERTEX
  5
203
  8
LAYER_1
 10
-1.113421778595535
 20
125.06895466567
 30
0.0
  0
VERTEX
  5
204
  8
LAYER_1
 10
-1.024526108470397
 20
125.0100188340911
 30
0.0
  0
VERTEX
  5
205
  8
LAYER_1
 10
-0.9243944774713237
 20
124.9720845974091
 30
0.0
  0
VERTEX
  5
206
  8
LAYER_1
 10
-0.8130268855983149
 20
124.955151955624
 30
0.0
  0
SEQEND
  5
649
  8
LAYER_1
  0
POLYLINE
  5
7B
  8
LAYER_1
 66
     1
 10
0.0
 20
0.0
 30
0.0
 70
     1
  0
VERTEX
  5
207
  8
LAYER_1
 10
-0.7240562860633171
 20
125.3215277401891
 30
0.0
  0
VERTEX
  5
208
  8
LAYER_1
 10
-0.7689696082780444
 20
125.3229023934824
 30
0.0
  0
VERTEX
  5
209
  8
LAYER_1
 10
-0.8106287019718993
 20
125.3369445792398
 30
0.0
  0
VERTEX
  5
20A
  8
LAYER_1
 10
-0.849033567144882
 20
125.3636542974614
 30
0.0
  0
VERTEX
  5
20B
  8
LAYER_1
 10
-0.8841842037969923
 20
125.4030315481472
 30
0.0
  0
VERTEX
  5
20C
  8
LAYER_1
 10
-0.9455864881765661
 20
125.5110754840253
 30
0.0
  0
VERTEX
  5
20D
  8
LAYER_1
 10
-0.9956992650029792
 20
125.6523633205011
 30
0.0
  0
VERTEX
  5
20E
  8
LAYER_1
 10
-1.035386335711059
 20
125.818181941755
 30
0.0
  0
VERTEX
  5
20F
  8
LAYER_1
 10
-1.065511405222769
 20
125.9998182452216
 30
0.0
  0
VERTEX
  5
210
  8
LAYER_1
 10
-1.084229350706873
 20
126.1580357923994
 30
0.0
  0
VERTEX
  5
211
  8
LAYER_1
 10
-1.093603378753027
 20
126.3015975039675
 30
0.0
  0
VERTEX
  5
212
  8
LAYER_1
 10
-1.093633489361229
 20
126.430503379926
 30
0.0
  0
VERTEX
  5
213
  8
LAYER_1
 10
-1.08431968253148
 20
126.5447534202749
 30
0.0
  0
VERTEX
  5
214
  8
LAYER_1
 10
-1.064056104350041
 20
126.6398090839635
 30
0.0
  0
VERTEX
  5
215
  8
LAYER_1
 10
-1.031236859273934
 20
126.711131884825
 30
0.0
  0
VERTEX
  5
216
  8
LAYER_1
 10
-0.9858619473031606
 20
126.7587218228593
 30
0.0
  0
VERTEX
  5
217
  8
LAYER_1
 10
-0.9279313684377192
 20
126.7825788980665
 30
0.0
  0
VERTEX
  5
218
  8
LAYER_1
 10
-0.866931487533781
 20
126.7791340770955
 30
0.0
  0
VERTEX
  5
219
  8
LAYER_1
 10
-0.8102775626102777
 20
126.7517503721055
 30
0.0
  0
VERTEX
  5
21A
  8
LAYER_1
 10
-0.7579695936672093
 20
126.7004277830965
 30
0.0
  0
VERTEX
  5
21B
  8
LAYER_1
 10
-0.7100075807045758
 20
126.6251663100686
 30
0.0
  0
VERTEX
  5
21C
  8
LAYER_1
 10
-0.6667929819504854
 20
126.5261374467434
 30
0.0
  0
VERTEX
  5
21D
  8
LAYER_1
 10
-0.6287272556330463
 20
126.4035126868426
 30
0.0
  0
VERTEX
  5
21E
  8
LAYER_1
 10
-0.5958104017522585
 20
126.2572920303661
 30
0.0
  0
VERTEX
  5
21F
  8
LAYER_1
 10
-0.5680424203081222
 20
126.0874754773139
 30
0.0
  0
VERTEX
  5
220
  8
LAYER_1
 10
-0.5499521805489356
 20
125.923279893318
 30
0.0
  0
VERTEX
  5
221
  8
LAYER_1
 10
-0.5426997621334979
 20
125.7774633790055
 30
0.0
  0
VERTEX
  5
222
  8
LAYER_1
 10
-0.5462851650618091
 20
125.6500259343764
 30
0.0
  0
VERTEX
  5
223
  8
LAYER_1
 10
-0.5607083893338692
 20
125.5409675594307
 30
0.0
  0
VERTEX
  5
224
  8
LAYER_1
 10
-0.5857992340874106
 20
125.4523509406501
 30
0.0
  0
VERTEX
  5
225
  8
LAYER_1
 10
-0.6213874984601657
 20
125.3862387645163
 30
0.0
  0
VERTEX
  5
226
  8
LAYER_1
 10
-0.6674731824521345
 20
125.3426310310293
 30
0.0
  0
SEQEND
  5
64A
  8
LAYER_1
  0
POLYLINE
  5
7C
  8
LAYER_1
 66
     1
 10
0.0
 20
0.0
 30
0.0
 70
     1
  0
VERTEX
  5
227
  8
LAYER_1
 10
-1.650551921066721
 20
127.0215161431937
 30
0.0
  0
VERTEX
  5
228
  8
LAYER_1
 10
-2.067910674421777
 20
127.0403049124302
 30
0.0
  0
VERTEX
  5
229
  8
LAYER_1
 10
-2.107821109068907
 20
126.1537663084104
 30
0.0
  0
VERTEX
  5
22A
  8
LAYER_1
 10
-2.592547225668474
 20
126.1755878398254
 30
0.0
  0
VERTEX
  5
22B
  8
LAYER_1
 10
-2.608177615358062
 20
125.828386813873
 30
0.0
  0
VERTEX
  5
22C
  8
LAYER_1
 10
-2.123451498758495
 20
125.8065652824579
 30
0.0
  0
VERTEX
  5
22D
  8
LAYER_1
 10
-2.148305792352156
 20
125.2544718026138
 30
0.0
  0
VERTEX
  5
22E
  8
LAYER_1
 10
-2.664921785043801
 20
125.2777289610956
 30
0.0
  0
VERTEX
  5
22F
  8
LAYER_1
 10
-2.68126998826678
 20
124.9145829970971
 30
0.0
  0
VERTEX
  5
230
  8
LAYER_1
 10
-1.74729524222008
 20
124.8725370693788
 30
0.0
  0
SEQEND
  5
64B
  8
LAYER_1
  0
POLYLINE
  5
7D
  8
LAYER_1
 66
     1
 10
0.0
 20
0.0
 30
0.0
 70
     1
  0
VERTEX
  5
231
  8
LAYER_1
 10
-2.672817665056149
 20
127.0511869378601
 30
0.0
  0
VERTEX
  5
232
  8
LAYER_1
 10
-3.07951457076143
 20
127.1467849176571
 30
0.0
  0
VERTEX
  5
233
  8
LAYER_1
 10
-3.282580395726187
 20
126.282893830805
 30
0.0
  0
VERTEX
  5
234
  8
LAYER_1
 10
-3.754923697863361
 20
126.3939226210945
 30
0.0
  0
VERTEX
  5
235
  8
LAYER_1
 10
-3.834451721171047
 20
126.0555911933301
 30
0.0
  0
VERTEX
  5
236
  8
LAYER_1
 10
-3.362108419033873
 20
125.9445624030406
 30
0.0
  0
VERTEX
  5
237
  8
LAYER_1
 10
-3.488568019815899
 20
125.4065727044715
 30
0.0
  0
VERTEX
  5
238
  8
LAYER_1
 10
-3.99198653919894
 20
125.524906020438
 30
0.0
  0
VERTEX
  5
239
  8
LAYER_1
 10
-4.075166825345095
 20
125.1710369840507
 30
0.0
  0
VERTEX
  5
23A
  8
LAYER_1
 10
-3.165051400256774
 20
124.9571056882873
 30
0.0
  0
SEQEND
  5
64C
  8
LAYER_1
  0
POLYLINE
  5
7E
  8
LAYER_1
 66
     1
 10
0.0
 20
0.0
 30
0.0
 70
     1
  0
VERTEX
  5
23B
  8
LAYER_1
 10
-22.46076712400243
 20
126.9408131485443
 30
0.0
  0
VERTEX
  5
23C
  8
LAYER_1
 10
-22.30453689434166
 20
126.4814905265502
 30
0.0
  0
VERTEX
  5
23D
  8
LAYER_1
 10
-22.11226124183989
 20
125.9446630259783
 30
0.0
  0
VERTEX
  5
23E
  8
LAYER_1
 10
-21.9648410818646
 20
125.5619945206889
 30
0.0
  0
VERTEX
  5
23F
  8
LAYER_1
 10
-21.97087935860868
 20
125.5599407107581
 30
0.0
  0
VERTEX
  5
240
  8
LAYER_1
 10
-22.17161360439268
 20
125.8389246485226
 30
0.0
  0
VERTEX
  5
241
  8
LAYER_1
 10
-22.3851693669984
 20
126.1034333120807
 30
0.0
  0
VERTEX
  5
242
  8
LAYER_1
 10
-22.9598304893685
 20
126.7710658283536
 30
0.0
  0
VERTEX
  5
243
  8
LAYER_1
 10
-23.32215476502905
 20
126.6478278207145
 30
0.0
  0
VERTEX
  5
244
  8
LAYER_1
 10
-22.62939863614323
 20
124.6110993193662
 30
0.0
  0
VERTEX
  5
245
  8
LAYER_1
 10
-22.28219896855399
 20
124.7291929668555
 30
0.0
  0
VERTEX
  5
246
  8
LAYER_1
 10
-22.43534410683519
 20
125.1794453067112
 30
0.0
  0
VERTEX
  5
247
  8
LAYER_1
 10
-22.63120942658643
 20
125.7057802886114
 30
0.0
  0
VERTEX
  5
248
  8
LAYER_1
 10
-22.79527600865964
 20
126.108915660991
 30
0.0
  0
VERTEX
  5
249
  8
LAYER_1
 10
-22.78923773191555
 20
126.1109694709218
 30
0.0
  0
VERTEX
  5
24A
  8
LAYER_1
 10
-22.5779829638088
 20
125.843149624536
 30
0.0
  0
VERTEX
  5
24B
  8
LAYER_1
 10
-22.36904091988896
 20
125.5897147044129
 30
0.0
  0
VERTEX
  5
24C
  8
LAYER_1
 10
-21.78313412740043
 20
124.8989407890083
 30
0.0
  0
VERTEX
  5
24D
  8
LAYER_1
 10
-21.42081132752737
 20
125.0221782946852
 30
0.0
  0
VERTEX
  5
24E
  8
LAYER_1
 10
-22.11356745641319
 20
127.0589067960335
 30
0.0
  0
SEQEND
  5
64D
  8
LAYER_1
  0
POLYLINE
  5
7F
  8
LAYER_1
 66
     1
 10
0.0
 20
0.0
 30
0.0
 70
     1
  0
VERTEX
  5
24F
  8
LAYER_1
 10
-23.69610938343841
 20
124.3811886923305
 30
0.0
  0
VERTEX
  5
250
  8
LAYER_1
 10
-23.58481737857198
 20
124.4076380764197
 30
0.0
  0
VERTEX
  5
251
  8
LAYER_1
 10
-23.48595407079457
 20
124.4507213847192
 30
0.0
  0
VERTEX
  5
252
  8
LAYER_1
 10
-23.39951946010619
 20
124.5104386172293
 30
0.0
  0
VERTEX
  5
253
  8
LAYER_1
 10
-23.32551354650684
 20
124.5867897739497
 30
0.0
  0
VERTEX
  5
254
  8
LAYER_1
 10
-23.26346396345776
 20
124.6768473416468
 30
0.0
  0
VERTEX
  5
255
  8
LAYER_1
 10
-23.21289829616011
 20
124.7776838137142
 30
0.0
  0
VERTEX
  5
256
  8
LAYER_1
 10
-23.17381654461389
 20
124.8892991901521
 30
0.0
  0
VERTEX
  5
257
  8
LAYER_1
 10
-23.1462187088191
 20
125.0116934709604
 30
0.0
  0
VERTEX
  5
258
  8
LAYER_1
 10
-23.12963241632112
 20
125.1419391222056
 30
0.0
  0
VERTEX
  5
259
  8
LAYER_1
 10
-23.12358525303291
 20
125.2771086648421
 30
0.0
  0
VERTEX
  5
25A
  8
LAYER_1
 10
-23.12807721895449
 20
125.41720209887
 30
0.0
  0
VERTEX
  5
25B
  8
LAYER_1
 10
-23.14310831408585
 20
125.5622194242892
 30
0.0
  0
VERTEX
  5
25C
  8
LAYER_1
 10
-23.16689147063494
 20
125.7069937078637
 30
0.0
  0
VERTEX
  5
25D
  8
LAYER_1
 10
-23.1984636957119
 20
125.8444839077869
 30
0.0
  0
VERTEX
  5
25E
  8
LAYER_1
 10
-23.23782498931673
 20
125.9746900240587
 30
0.0
  0
VERTEX
  5
25F
  8
LAYER_1
 10
-23.28497535144943
 20
126.0976120566792
 30
0.0
  0
VERTEX
  5
260
  8
LAYER_1
 10
-23.34022335649938
 20
126.2101032151718
 30
0.0
  0
VERTEX
  5
261
  8
LAYER_1
 10
-23.40387758548368
 20
126.3090167573201
 30
0.0
  0
VERTEX
  5
262
  8
LAYER_1
 10
-23.4759380384023
 20
126.3943526831241
 30
0.0
  0
VERTEX
  5
263
  8
LAYER_1
 10
-23.55640471525528
 20
126.4661109925838
 30
0.0
  0
VERTEX
  5
264
  8
LAYER_1
 10
-23.6455862141478
 20
126.5211448888926
 30
0.0
  0
VERTEX
  5
265
  8
LAYER_1
 10
-23.74379109155266
 20
126.5563076301318
 30
0.0
  0
VERTEX
  5
266
  8
LAYER_1
 10
-23.85101934746987
 20
126.5715992163012
 30
0.0
  0
VERTEX
  5
267
  8
LAYER_1
 10
-23.96727098189943
 20
126.567019647401
 30
0.0
  0
VERTEX
  5
268
  8
LAYER_1
 10
-24.04215658532971
 20
126.5536097803269
 30
0.0
  0
VERTEX
  5
269
  8
LAYER_1
 10
-24.11208720671055
 20
126.5321981906813
 30
0.0
  0
VERTEX
  5
26A
  8
LAYER_1
 10
-24.17706284604196
 20
126.5027848784643
 30
0.0
  0
VERTEX
  5
26B
  8
LAYER_1
 10
-24.23708350332393
 20
126.4653698436757
 30
0.0
  0
VERTEX
  5
26C
  8
LAYER_1
 10
-24.29214917855646
 20
126.4199530863156
 30
0.0
  0
VERTEX
  5
26D
  8
LAYER_1
 10
-24.34225987173957
 20
126.366534606384
 30
0.0
  0
VERTEX
  5
26E
  8
LAYER_1
 10
-24.38741558287324
 20
126.3051144038809
 30
0.0
  0
VERTEX
  5
26F
  8
LAYER_1
 10
-24.42761631195748
 20
126.2356924788063
 30
0.0
  0
VERTEX
  5
270
  8
LAYER_1
 10
-24.46177895915065
 20
126.1575059466888
 30
0.0
  0
VERTEX
  5
271
  8
LAYER_1
 10
-24.48882040379492
 20
126.069791950501
 30
0.0
  0
VERTEX
  5
272
  8
LAYER_1
 10
-24.50874064589029
 20
125.9725504902427
 30
0.0
  0
VERTEX
  5
273
  8
LAYER_1
 10
-24.52153968543676
 20
125.865781565914
 30
0.0
  0
VERTEX
  5
274
  8
LAYER_1
 10
-24.52577415688299
 20
125.6236613250456
 30
0.0
  0
VERTEX
  5
275
  8
LAYER_1
 10
-24.50152381813361
 20
125.3434312278956
 30
0.0
  0
VERTEX
  5
276
  8
LAYER_1
 10
-24.48170124086433
 20
125.2196280266768
 30
0.0
  0
VERTEX
  5
277
  8
LAYER_1
 10
-24.45442633025203
 20
125.0980711780404
 30
0.0
  0
VERTEX
  5
278
  8
LAYER_1
 10
-24.4196990862967
 20
124.9787606819866
 30
0.0
  0
VERTEX
  5
279
  8
LAYER_1
 10
-24.37751950899836
 20
124.8616965385153
 30
0.0
  0
VERTEX
  5
27A
  8
LAYER_1
 10
-24.32694148056251
 20
124.751567953862
 30
0.0
  0
VERTEX
  5
27B
  8
LAYER_1
 10
-24.26701888319464
 20
124.6530641342621
 30
0.0
  0
VERTEX
  5
27C
  8
LAYER_1
 10
-24.19775171689476
 20
124.5661850797158
 30
0.0
  0
VERTEX
  5
27D
  8
LAYER_1
 10
-24.11913998166287
 20
124.490930790223
 30
0.0
  0
VERTEX
  5
27E
  8
LAYER_1
 10
-24.03023755450041
 20
124.4319904788802
 30
0.0
  0
VERTEX
  5
27F
  8
LAYER_1
 10
-23.93009831240885
 20
124.3940533587838
 30
0.0
  0
VERTEX
  5
280
  8
LAYER_1
 10
-23.81872225538818
 20
124.3771194299339
 30
0.0
  0
SEQEND
  5
64E
  8
LAYER_1
  0
POLYLINE
  5
80
  8
LAYER_1
 66
     1
 10
0.0
 20
0.0
 30
0.0
 70
     1
  0
VERTEX
  5
281
  8
LAYER_1
 10
-23.72974489312042
 20
124.7435230630415
 30
0.0
  0
VERTEX
  5
282
  8
LAYER_1
 10
-23.77466162923589
 20
124.7448978208234
 30
0.0
  0
VERTEX
  5
283
  8
LAYER_1
 10
-23.81632388947374
 20
124.7589410739396
 30
0.0
  0
VERTEX
  5
284
  8
LAYER_1
 10
-23.85473167383398
 20
124.7856528223902
 30
0.0
  0
VERTEX
  5
285
  8
LAYER_1
 10
-23.8898849823166
 20
124.825033066175
 30
0.0
  0
VERTEX
  5
286
  8
LAYER_1
 10
-23.95129193393729
 20
124.9330852145668
 30
0.0
  0
VERTEX
  5
287
  8
LAYER_1
 10
-24.00140851987952
 20
125.0743837904541
 30
0.0
  0
VERTEX
  5
288
  8
LAYER_1
 10
-24.04109860723641
 20
125.2402150157259
 30
0.0
  0
VERTEX
  5
289
  8
LAYER_1
 10
-24.07122596658089
 20
125.4218651255261
 30
0.0
  0
VERTEX
  5
28A
  8
LAYER_1
 10
-24.08994533483234
 20
125.5800946989575
 30
0.0
  0
VERTEX
  5
28B
  8
LAYER_1
 10
-24.09932007540653
 20
125.7236673227764
 30
0.0
  0
VERTEX
  5
28C
  8
LAYER_1
 10
-24.09935018830346
 20
125.8525829969827
 30
0.0
  0
VERTEX
  5
28D
  8
LAYER_1
 10
-24.09003567352315
 20
125.9668417215766
 30
0.0
  0
VERTEX
  5
28E
  8
LAYER_1
 10
-24.06977055508948
 20
126.0619046105291
 30
0.0
  0
VERTEX
  5
28F
  8
LAYER_1
 10
-24.03694881539397
 20
126.1332328326988
 30
0.0
  0
VERTEX
  5
290
  8
LAYER_1
 10
-23.99157045443661
 20
126.1808263880857
 30
0.0
  0
VERTEX
  5
291
  8
LAYER_1
 10
-23.93363547221741
 20
126.20468527669
 30
0.0
  0
VERTEX
  5
292
  8
LAYER_1
 10
-23.87263095465939
 20
126.2012401938752
 30
0.0
  0
VERTEX
  5
293
  8
LAYER_1
 10
-23.81597272342172
 20
126.1738544074259
 30
0.0
  0
VERTEX
  5
294
  8
LAYER_1
 10
-23.76366077850437
 20
126.1225279173423
 30
0.0
  0
VERTEX
  5
295
  8
LAYER_1
 10
-23.71569511990735
 20
126.0472607236242
 30
0.0
  0
VERTEX
  5
296
  8
LAYER_1
 10
-23.67247723637397
 20
125.9482243330289
 30
0.0
  0
VERTEX
  5
297
  8
LAYER_1
 10
-23.63440861664752
 20
125.8255902523132
 30
0.0
  0
VERTEX
  5
298
  8
LAYER_1
 10
-23.601489260728
 20
125.6793584814772
 30
0.0
  0
VERTEX
  5
299
  8
LAYER_1
 10
-23.5737191686154
 20
125.509529020521
 30
0.0
  0
VERTEX
  5
29A
  8
LAYER_1
 10
-23.55562755380134
 20
125.3453209558757
 30
0.0
  0
VERTEX
  5
29B
  8
LAYER_1
 10
-23.54837458412326
 20
125.1994933579229
 30
0.0
  0
VERTEX
  5
29C
  8
LAYER_1
 10
-23.55196025958117
 20
125.0720462266627
 30
0.0
  0
VERTEX
  5
29D
  8
LAYER_1
 10
-23.56638458017507
 20
124.9629795620949
 30
0.0
  0
VERTEX
  5
29E
  8
LAYER_1
 10
-23.59147733210558
 20
124.8743562074879
 30
0.0
  0
VERTEX
  5
29F
  8
LAYER_1
 10
-23.6270683015733
 20
124.8082390061101
 30
0.0
  0
VERTEX
  5
2A0
  8
LAYER_1
 10
-23.67315748857825
 20
124.7646279579612
 30
0.0
  0
SEQEND
  5
64F
  8
LAYER_1
  0
POLYLINE
  5
81
  8
LAYER_1
 66
     1
 10
0.0
 20
0.0
 30
0.0
 70
     1
  0
VERTEX
  5
2A1
  8
LAYER_1
 10
-24.62678125205606
 20
126.4710113928444
 30
0.0
  0
VERTEX
  5
2A2
  8
LAYER_1
 10
-25.04417172921348
 20
126.4898015902316
 30
0.0
  0
VERTEX
  5
2A3
  8
LAYER_1
 10
-25.08279303491647
 20
125.6318986697027
 30
0.0
  0
VERTEX
  5
2A4
  8
LAYER_1
 10
-25.14345497711012
 20
125.6346295654229
 30
0.0
  0
VERTEX
  5
2A5
  8
LAYER_1
 10
-25.19237699489042
 20
125.6399777107835
 30
0.0
  0
VERTEX
  5
2A6
  8
LAYER_1
 10
-25.23501810922644
 20
125.6549297773234
 30
0.0
  0
VERTEX
  5
2A7
  8
LAYER_1
 10
-25.27137832011818
 20
125.6794857650423
 30
0.0
  0
VERTEX
  5
2A8
  8
LAYER_1
 10
-25.30145762756563
 20
125.7136456739404
 30
0.0
  0
VERTEX
  5
2A9
  8
LAYER_1
 10
-25.32618251305183
 20
125.7601475820017
 30
0.0
  0
VERTEX
  5
2AA
  8
LAYER_1
 10
-25.34647945805982
 20
125.8217295672104
 30
0.0
  0
VERTEX
  5
2AB
  8
LAYER_1
 10
-25.37378952664112
 20
125.9901337690699
 30
0.0
  0
VERTEX
  5
2AC
  8
LAYER_1
 10
-25.41431406250242
 20
126.3151225642408
 30
0.0
  0
VERTEX
  5
2AD
  8
LAYER_1
 10
-25.45593277938112
 20
126.5083383605521
 30
0.0
  0
VERTEX
  5
2AE
  8
LAYER_1
 10
-25.89250691105779
 20
126.5279921728868
 30
0.0
  0
VERTEX
  5
2AF
  8
LAYER_1
 10
-25.86487431883315
 20
126.4353713054206
 30
0.0
  0
VERTEX
  5
2B0
  8
LAYER_1
 10
-25.83559804836544
 20
126.292943487578
 30
0.0
  0
VERTEX
  5
2B1
  8
LAYER_1
 10
-25.78171075975455
 20
125.9381924217229
 30
0.0
  0
VERTEX
  5
2B2
  8
LAYER_1
 10
-25.75100423415398
 20
125.7814384419638
 30
0.0
  0
VERTEX
  5
2B3
  8
LAYER_1
 10
-25.70295742114457
 20
125.6574867982814
 30
0.0
  0
VERTEX
  5
2B4
  8
LAYER_1
 10
-25.6714742588246
 20
125.6074654367349
 30
0.0
  0
VERTEX
  5
2B5
  8
LAYER_1
 10
-25.63374167772394
 20
125.5649518742127
 30
0.0
  0
VERTEX
  5
2B6
  8
LAYER_1
 10
-25.58975967784262
 20
125.5299461107147
 30
0.0
  0
VERTEX
  5
2B7
  8
LAYER_1
 10
-25.53952825918062
 20
125.5024481462409
 30
0.0
  0
VERTEX
  5
2B8
  8
LAYER_1
 10
-25.53981505151558
 20
125.4960775697607
 30
0.0
  0
VERTEX
  5
2B9
  8
LAYER_1
 10
-25.61915041429735
 20
125.4560739554481
 30
0.0
  0
VERTEX
  5
2BA
  8
LAYER_1
 10
-25.68861227980276
 20
125.407673990051
 30
0.0
  0
VERTEX
  5
2BB
  8
LAYER_1
 10
-25.74820064803181
 20
125.3508776735694
 30
0.0
  0
VERTEX
  5
2BC
  8
LAYER_1
 10
-25.7979155189845
 20
125.2856850060033
 30
0.0
  0
VERTEX
  5
2BD
  8
LAYER_1
 10
-25.83759476788344
 20
125.2140361223727
 30
0.0
  0
VERTEX
  5
2BE
  8
LAYER_1
 10
-25.86707622128743
 20
125.1378711555071
 30
0.0
  0
VERTEX
  5
2BF
  8
LAYER_1
 10
-25.88635987919647
 20
125.0571901054064
 30
0.0
  0
VERTEX
  5
2C0
  8
LAYER_1
 10
-25.89544574161057
 20
124.9719929720706
 30
0.0
  0
VERTEX
  5
2C1
  8
LAYER_1
 10
-25.89334000509
 20
124.8403622757231
 30
0.0
  0
VERTEX
  5
2C2
  8
LAYER_1
 10
-25.87118370526631
 20
124.7219553597327
 30
0.0
  0
VERTEX
  5
2C3
  8
LAYER_1
 10
-25.85133386418451
 20
124.6672806475569
 30
0.0
  0
VERTEX
  5
2C4
  8
LAYER_1
 10
-25.82396592241436
 20
124.615051536841
 30
0.0
  0
VERTEX
  5
2C5
  8
LAYER_1
 10
-25.74667573680903
 20
124.5179301197893
 30
0.0
  0
VERTEX
  5
2C6
  8
LAYER_1
 10
-25.6928962656491
 20
124.4723700765141
 30
0.0
  0
VERTEX
  5
2C7
  8
LAYER_1
 10
-25.63368267070958
 20
124.4340462350831
 30
0.0
  0
VERTEX
  5
2C8
  8
LAYER_1
 10
-25.56903495199045
 20
124.4029585954964
 30
0.0
  0
VERTEX
  5
2C9
  8
LAYER_1
 10
-25.49895310949172
 20
124.3791071577539
 30
0.0
  0
VERTEX
  5
2CA
  8
LAYER_1
 10
-25.34633241032125
 20
124.3473010957123
 30
0.0
  0
VERTEX
  5
2CB
  8
LAYER_1
 10
-25.17966593036395
 20
124.332816256869
 30
0.0
  0
VERTEX
  5
2CC
  8
LAYER_1
 10
-24.94052843704879
 20
124.3332211938946
 30
0.0
  0
VERTEX
  5
2CD
  8
LAYER_1
 10
-24.72209853905773
 20
124.3537091057469
 30
0.0
  0
SEQEND
  5
650
  8
LAYER_1
  0
POLYLINE
  5
82
  8
LAYER_1
 66
     1
 10
0.0
 20
0.0
 30
0.0
 70
     1
  0
VERTEX
  5
2CE
  8
LAYER_1
 10
-25.12615193486039
 20
124.6687586045045
 30
0.0
  0
VERTEX
  5
2CF
  8
LAYER_1
 10
-25.17129914069701
 20
124.6607986113662
 30
0.0
  0
VERTEX
  5
2D0
  8
LAYER_1
 10
-25.2257013101215
 20
124.6604499595455
 30
0.0
  0
VERTEX
  5
2D1
  8
LAYER_1
 10
-25.29040753952638
 20
124.6718940097077
 30
0.0
  0
VERTEX
  5
2D2
  8
LAYER_1
 10
-25.34486338285479
 20
124.6928442883635
 30
0.0
  0
VERTEX
  5
2D3
  8
LAYER_1
 10
-25.38906884010675
 20
124.7233007955129
 30
0.0
  0
VERTEX
  5
2D4
  8
LAYER_1
 10
-25.42302391128224
 20
124.7632635311559
 30
0.0
  0
VERTEX
  5
2D5
  8
LAYER_1
 10
-25.44777872489482
 20
124.8110560311829
 30
0.0
  0
VERTEX
  5
2D6
  8
LAYER_1
 10
-25.46438336079424
 20
124.8650018292936
 30
0.0
  0
VERTEX
  5
2D7
  8
LAYER_1
 10
-25.47283781898049
 20
124.9251009254879
 30
0.0
  0
VERTEX
  5
2D8
  8
LAYER_1
 10
-25.47314209945357
 20
124.9913533197658
 30
0.0
  0
VERTEX
  5
2D9
  8
LAYER_1
 10
-25.46498145797661
 20
125.0601974414026
 30
0.0
  0
VERTEX
  5
2DA
  8
LAYER_1
 10
-25.44790283281721
 20
125.1222697876
 30
0.0
  0
VERTEX
  5
2DB
  8
LAYER_1
 10
-25.42190622397537
 20
125.1775703583583
 30
0.0
  0
VERTEX
  5
2DC
  8
LAYER_1
 10
-25.38699163145109
 20
125.2260991536772
 30
0.0
  0
VERTEX
  5
2DD
  8
LAYER_1
 10
-25.34394379160209
 20
125.2654183019624
 30
0.0
  0
VERTEX
  5
2DE
  8
LAYER_1
 10
-25.29354738993156
 20
125.2930899780927
 30
0.0
  0
VERTEX
  5
2DF
  8
LAYER_1
 10
-25.23580242643948
 20
125.309114182068
 30
0.0
  0
VERTEX
  5
2E0
  8
LAYER_1
 10
-25.17070890112586
 20
125.3134909138882
 30
0.0
  0
VERTEX
  5
2E1
  8
LAYER_1
 10
-25.09727602373355
 20
125.3101850927533
 30
0.0
  0
SEQEND
  5
651
  8
LAYER_1
  0
POLYLINE
  5
83
  8
LAYER_1
 66
     1
 10
0.0
 20
0.0
 30
0.0
 70
     1
  0
VERTEX
  5
2E2
  8
LAYER_1
 10
-27.10712297866025
 20
126.9386585069459
 30
0.0
  0
VERTEX
  5
2E3
  8
LAYER_1
 10
-27.46065737180524
 20
127.0589067960335
 30
0.0
  0
VERTEX
  5
2E4
  8
LAYER_1
 10
-28.02953340855256
 20
124.9800427361073
 30
0.0
  0
VERTEX
  5
2E5
  8
LAYER_1
 10
-27.61252954619874
 20
124.838206462287
 30
0.0
  0
VERTEX
  5
2E6
  8
LAYER_1
 10
-27.20158685709873
 20
125.5210620893494
 30
0.0
  0
VERTEX
  5
2E7
  8
LAYER_1
 10
-27.00241515827961
 20
125.8637923725631
 30
0.0
  0
VERTEX
  5
2E8
  8
LAYER_1
 10
-26.82908288284546
 20
126.1900255364992
 30
0.0
  0
VERTEX
  5
2E9
  8
LAYER_1
 10
-26.82303934860844
 20
126.1879699383279
 30
0.0
  0
VERTEX
  5
2EA
  8
LAYER_1
 10
-26.87626413904596
 20
125.8196200772987
 30
0.0
  0
VERTEX
  5
2EB
  8
LAYER_1
 10
-26.92056251507768
 20
125.4254767743836
 30
0.0
  0
VERTEX
  5
2EC
  8
LAYER_1
 10
-27.00817612249755
 20
124.6326466451563
 30
0.0
  0
VERTEX
  5
2ED
  8
LAYER_1
 10
-26.59117226014372
 20
124.4908103713361
 30
0.0
  0
VERTEX
  5
2EE
  8
LAYER_1
 10
-25.75034954245108
 20
126.4771767174874
 30
0.0
  0
VERTEX
  5
2EF
  8
LAYER_1
 10
-26.09180922684225
 20
126.5933180141663
 30
0.0
  0
VERTEX
  5
2F0
  8
LAYER_1
 10
-26.36556099238674
 20
125.897508714986
 30
0.0
  0
VERTEX
  5
2F1
  8
LAYER_1
 10
-26.49631377869544
 20
125.5700842462612
 30
0.0
  0
VERTEX
  5
2F2
  8
LAYER_1
 10
-26.6271269326272
 20
125.2276142848774
 30
0.0
  0
VERTEX
  5
2F3
  8
LAYER_1
 10
-26.63619223398272
 20
125.2306976821344
 30
0.0
  0
VERTEX
  5
2F4
  8
LAYER_1
 10
-26.57895833188755
 20
125.5910105164985
 30
0.0
  0
VERTEX
  5
2F5
  8
LAYER_1
 10
-26.54317272569172
 20
125.9105665864018
 30
0.0
  0
VERTEX
  5
2F6
  8
LAYER_1
 10
-26.468751253817
 20
126.6844351629995
 30
0.0
  0
VERTEX
  5
2F7
  8
LAYER_1
 10
-26.74977559583806
 20
126.7800204779653
 30
0.0
  0
VERTEX
  5
2F8
  8
LAYER_1
 10
-27.17279059399901
 20
126.11123134603
 30
0.0
  0
VERTEX
  5
2F9
  8
LAYER_1
 10
-27.33758150976495
 20
125.8435628128129
 30
0.0
  0
VERTEX
  5
2FA
  8
LAYER_1
 10
-27.51552646546795
 20
125.5297872160596
 30
0.0
  0
VERTEX
  5
2FB
  8
LAYER_1
 10
-27.52459176682347
 20
125.5328706133166
 30
0.0
  0
VERTEX
  5
2FC
  8
LAYER_1
 10
-27.41028310282323
 20
125.8800931461648
 30
0.0
  0
VERTEX
  5
2FD
  8
LAYER_1
 10
-27.31347418505509
 20
126.2130355028925
 30
0.0
  0
SEQEND
  5
652
  8
LAYER_1
  0
POLYLINE
  5
84
  8
LAYER_1
 66
     1
 10
0.0
 20
0.0
 30
0.0
 70
     1
  0
VERTEX
  5
2FE
  8
LAYER_1
 10
-30.76903333313155
 20
125.4290930130549
 30
0.0
  0
VERTEX
  5
2FF
  8
LAYER_1
 10
-30.30359979514978
 20
125.5874017595631
 30
0.0
  0
VERTEX
  5
300
  8
LAYER_1
 10
-30.14413457240902
 20
125.1185681389175
 30
0.0
  0
VERTEX
  5
301
  8
LAYER_1
 10
-30.63374647600024
 20
124.9520355614219
 30
0.0
  0
VERTEX
  5
302
  8
LAYER_1
 10
-30.51668538178845
 20
124.60787163845
 30
0.0
  0
VERTEX
  5
303
  8
LAYER_1
 10
-29.63153052830525
 20
124.9089409510057
 30
0.0
  0
VERTEX
  5
304
  8
LAYER_1
 10
-30.32425979163759
 20
126.9455904666386
 30
0.0
  0
VERTEX
  5
305
  8
LAYER_1
 10
-31.24568219353495
 20
126.6321854076017
 30
0.0
  0
VERTEX
  5
306
  8
LAYER_1
 10
-31.12862109932317
 20
126.2880214846298
 30
0.0
  0
VERTEX
  5
307
  8
LAYER_1
 10
-30.60274164731778
 20
126.4668898086066
 30
0.0
  0
VERTEX
  5
308
  8
LAYER_1
 10
-30.41552099499442
 20
125.9164542040291
 30
0.0
  0
VERTEX
  5
309
  8
LAYER_1
 10
-30.8809545329762
 20
125.758145457521
 30
0.0
  0
SEQEND
  5
653
  8
LAYER_1
  0
POLYLINE
  5
85
  8
LAYER_1
 66
     1
 10
0.0
 20
0.0
 30
0.0
 70
     1
  0
VERTEX
  5
30A
  8
LAYER_1
 10
-32.57191904097763
 20
126.4277544675216
 30
0.0
  0
VERTEX
  5
30B
  8
LAYER_1
 10
-32.94185727898113
 20
126.3769497883236
 30
0.0
  0
VERTEX
  5
30C
  8
LAYER_1
 10
-32.51954102339531
 20
124.2635201497149
 30
0.0
  0
VERTEX
  5
30D
  8
LAYER_1
 10
-32.08318835991751
 20
124.323445712438
 30
0.0
  0
VERTEX
  5
30E
  8
LAYER_1
 10
-32.02156154231363
 20
125.1180013307885
 30
0.0
  0
VERTEX
  5
30F
  8
LAYER_1
 10
-31.99696381078182
 20
125.51362260326
 30
0.0
  0
VERTEX
  5
310
  8
LAYER_1
 10
-31.98808110722763
 20
125.8829228606871
 30
0.0
  0
VERTEX
  5
311
  8
LAYER_1
 10
-31.98175715558303
 20
125.8837913471033
 30
0.0
  0
VERTEX
  5
312
  8
LAYER_1
 10
-31.86439325992921
 20
125.5306207313741
 30
0.0
  0
VERTEX
  5
313
  8
LAYER_1
 10
-31.72749779083946
 20
125.1583859491454
 30
0.0
  0
VERTEX
  5
314
  8
LAYER_1
 10
-31.45079319545692
 20
124.4102943540657
 30
0.0
  0
VERTEX
  5
315
  8
LAYER_1
 10
-31.01444053197911
 20
124.4702199167889
 30
0.0
  0
VERTEX
  5
316
  8
LAYER_1
 10
-31.15219189676361
 20
126.6227296679759
 30
0.0
  0
VERTEX
  5
317
  8
LAYER_1
 10
-31.50949516468384
 20
126.5736601854562
 30
0.0
  0
VERTEX
  5
318
  8
LAYER_1
 10
-31.44266088638219
 20
125.8289585828956
 30
0.0
  0
VERTEX
  5
319
  8
LAYER_1
 10
-31.41294044471338
 20
125.4776607896724
 30
0.0
  0
VERTEX
  5
31A
  8
LAYER_1
 10
-31.37653642985137
 20
125.1128840199966
 30
0.0
  0
VERTEX
  5
31B
  8
LAYER_1
 10
-31.38602235731828
 20
125.1115812903721
 30
0.0
  0
VERTEX
  5
31C
  8
LAYER_1
 10
-31.4962026938164
 20
125.4593614513379
 30
0.0
  0
VERTEX
  5
31D
  8
LAYER_1
 10
-31.60730826703897
 20
125.7610968204175
 30
0.0
  0
VERTEX
  5
31E
  8
LAYER_1
 10
-31.88731654326701
 20
126.4863275914585
 30
0.0
  0
VERTEX
  5
31F
  8
LAYER_1
 10
-32.18138029474119
 20
126.4459429731016
 30
0.0
  0
VERTEX
  5
320
  8
LAYER_1
 10
-32.26009991828641
 20
125.6585578705826
 30
0.0
  0
VERTEX
  5
321
  8
LAYER_1
 10
-32.28757184794321
 20
125.3454442673714
 30
0.0
  0
VERTEX
  5
322
  8
LAYER_1
 10
-32.30615732160843
 20
124.9852165168038
 30
0.0
  0
VERTEX
  5
323
  8
LAYER_1
 10
-32.31564324907534
 20
124.9839137871794
 30
0.0
  0
VERTEX
  5
324
  8
LAYER_1
 10
-32.36893193093115
 20
125.3455488548253
 30
0.0
  0
VERTEX
  5
325
  8
LAYER_1
 10
-32.43147203692324
 20
125.68657964676
 30
0.0
  0
SEQEND
  5
654
  8
LAYER_1
  0
POLYLINE
  5
86
  8
LAYER_1
 66
     1
 10
0.0
 20
0.0
 30
0.0
 70
     1
  0
VERTEX
  5
326
  8
LAYER_1
 10
-34.01898693035464
 20
125.2779402915696
 30
0.0
  0
VERTEX
  5
327
  8
LAYER_1
 10
-33.5319386089736
 20
125.2110525487528
 30
0.0
  0
VERTEX
  5
328
  8
LAYER_1
 10
-33.59931497978174
 20
124.7204462445046
 30
0.0
  0
VERTEX
  5
329
  8
LAYER_1
 10
-34.1116645126631
 20
124.7908086752599
 30
0.0
  0
VERTEX
  5
32A
  8
LAYER_1
 10
-34.16112452378817
 20
124.4306617428101
 30
0.0
  0
VERTEX
  5
32B
  8
LAYER_1
 10
-33.23486298401886
 20
124.3034555890603
 30
0.0
  0
VERTEX
  5
32C
  8
LAYER_1
 10
-32.9421748171964
 20
126.4346873265321
 30
0.0
  0
VERTEX
  5
32D
  8
LAYER_1
 10
-33.90638817421618
 20
126.5671055121896
 30
0.0
  0
VERTEX
  5
32E
  8
LAYER_1
 10
-33.95584818534125
 20
126.2069585797399
 30
0.0
  0
VERTEX
  5
32F
  8
LAYER_1
 10
-33.40554683520942
 20
126.1313841170767
 30
0.0
  0
VERTEX
  5
330
  8
LAYER_1
 10
-33.48465027781011
 20
125.5553862240149
 30
0.0
  0
VERTEX
  5
331
  8
LAYER_1
 10
-33.97169859919116
 20
125.6222739668317
 30
0.0
  0
SEQEND
  5
655
  8
LAYER_1
  0
POLYLINE
  5
87
  8
LAYER_1
 66
     1
 10
0.0
 20
0.0
 30
0.0
 70
     1
  0
VERTEX
  5
332
  8
LAYER_1
 10
-33.93987793227442
 20
126.5376113973628
 30
0.0
  0
VERTEX
  5
333
  8
LAYER_1
 10
-34.3354208821664
 20
126.6721481324229
 30
0.0
  0
VERTEX
  5
334
  8
LAYER_1
 10
-34.61194721480468
 20
125.8591505426888
 30
0.0
  0
VERTEX
  5
335
  8
LAYER_1
 10
-34.66943392059841
 20
125.8787035993391
 30
0.0
  0
VERTEX
  5
336
  8
LAYER_1
 10
-34.7149172223675
 20
125.8974931739659
 30
0.0
  0
VERTEX
  5
337
  8
LAYER_1
 10
-34.75168900430976
 20
125.9237516354475
 30
0.0
  0
VERTEX
  5
338
  8
LAYER_1
 10
-34.77974926642518
 20
125.9574789837841
 30
0.0
  0
VERTEX
  5
339
  8
LAYER_1
 10
-34.79909800871378
 20
125.9986752189755
 30
0.0
  0
VERTEX
  5
33A
  8
LAYER_1
 10
-34.80986065906629
 20
126.0502280840055
 30
0.0
  0
VERTEX
  5
33B
  8
LAYER_1
 10
-34.81216264537342
 20
126.1150253218577
 30
0.0
  0
VERTEX
  5
33C
  8
LAYER_1
 10
-34.79138462585161
 20
126.2843529160289
 30
0.0
  0
VERTEX
  5
33D
  8
LAYER_1
 10
-34.73959254875067
 20
126.6077245696885
 30
0.0
  0
VERTEX
  5
33E
  8
LAYER_1
 10
-34.7256290669413
 20
126.8048703442274
 30
0.0
  0
VERTEX
  5
33F
  8
LAYER_1
 10
-35.13935153868037
 20
126.9455905127552
 30
0.0
  0
VERTEX
  5
340
  8
LAYER_1
 10
-35.13866868070066
 20
126.8489416885731
 30
0.0
  0
VERTEX
  5
341
  8
LAYER_1
 10
-35.15030868336795
 20
126.7040084083045
 30
0.0
  0
VERTEX
  5
342
  8
LAYER_1
 10
-35.19757622930483
 20
126.3483288286796
 30
0.0
  0
VERTEX
  5
343
  8
LAYER_1
 10
-35.21184131239026
 20
126.1892400745717
 30
0.0
  0
VERTEX
  5
344
  8
LAYER_1
 10
-35.20030072310179
 20
126.0568091418772
 30
0.0
  0
VERTEX
  5
345
  8
LAYER_1
 10
-35.18403091208091
 20
125.999990582018
 30
0.0
  0
VERTEX
  5
346
  8
LAYER_1
 10
-35.15966484269137
 20
125.9486369548588
 30
0.0
  0
VERTEX
  5
347
  8
LAYER_1
 10
-35.12720251493319
 20
125.9027482603996
 30
0.0
  0
VERTEX
  5
348
  8
LAYER_1
 10
-35.08664392880634
 20
125.8623244986405
 30
0.0
  0
VERTEX
  5
349
  8
LAYER_1
 10
-35.08869734546773
 20
125.8562873781229
 30
0.0
  0
VERTEX
  5
34A
  8
LAYER_1
 10
-35.1760419036935
 20
125.8400176048782
 30
0.0
  0
VERTEX
  5
34B
  8
LAYER_1
 10
-35.25624914526594
 20
125.8129297746297
 30
0.0
  0
VERTEX
  5
34C
  8
LAYER_1
 10
-35.32931907018502
 20
125.7750238873773
 30
0.0
  0
VERTEX
  5
34D
  8
LAYER_1
 10
-35.39525167845077
 20
125.7262999431211
 30
0.0
  0
VERTEX
  5
34E
  8
LAYER_1
 10
-35.45334980128175
 20
125.6685756520662
 30
0.0
  0
VERTEX
  5
34F
  8
LAYER_1
 10
-35.50291622377998
 20
125.6036687087318
 30
0.0
  0
VERTEX
  5
350
  8
LAYER_1
 10
-35.54395094594547
 20
125.5315791131179
 30
0.0
  0
VERTEX
  5
351
  8
LAYER_1
 10
-35.5764539677782
 20
125.4523068652247
 30
0.0
  0
VERTEX
  5
352
  8
LAYER_1
 10
-35.61117021673686
 20
125.3253245287387
 30
0.0
  0
VERTEX
  5
353
  8
LAYER_1
 10
-35.62294271719609
 20
125.2054438236831
 30
0.0
  0
VERTEX
  5
354
  8
LAYER_1
 10
-35.61914222479641
 20
125.1474038848906
 30
0.0
  0
VERTEX
  5
355
  8
LAYER_1
 10
-35.60744012138782
 20
125.0896139578533
 30
0.0
  0
VERTEX
  5
356
  8
LAYER_1
 10
-35.56033108154401
 20
124.9747841390446
 30
0.0
  0
VERTEX
  5
357
  8
LAYER_1
 10
-35.52140671838642
 20
124.9160265169793
 30
0.0
  0
VERTEX
  5
358
  8
LAYER_1
 10
-35.47524476361325
 20
124.8627005835877
 30
0.0
  0
VERTEX
  5
359
  8
LAYER_1
 10
-35.4218452172245
 20
124.81480633887
 30
0.0
  0
VERTEX
  5
35A
  8
LAYER_1
 10
-35.3612080792202
 20
124.772343782826
 30
0.0
  0
VERTEX
  5
35B
  8
LAYER_1
 10
-35.22353549833747
 20
124.6992063710392
 30
0.0
  0
VERTEX
  5
35C
  8
LAYER_1
 10
-35.06754149093766
 20
124.6387809825069
 30
0.0
  0
VERTEX
  5
35D
  8
LAYER_1
 10
-34.83780351162039
 20
124.5724263646312
 30
0.0
  0
VERTEX
  5
35E
  8
LAYER_1
 10
-34.62234423764234
 20
124.5311353556593
 30
0.0
  0
SEQEND
  5
656
  8
LAYER_1
  0
POLYLINE
  5
88
  8
LAYER_1
 66
     1
 10
0.0
 20
0.0
 30
0.0
 70
     1
  0
VERTEX
  5
35F
  8
LAYER_1
 10
-34.92239445035208
 20
124.9464242506514
 30
0.0
  0
VERTEX
  5
360
  8
LAYER_1
 10
-34.96796740762449
 20
124.9513815119064
 30
0.0
  0
VERTEX
  5
361
  8
LAYER_1
 10
-35.02030284900075
 20
124.9662304137149
 30
0.0
  0
VERTEX
  5
362
  8
LAYER_1
 10
-35.07924111860437
 20
124.9952787920226
 30
0.0
  0
VERTEX
  5
363
  8
LAYER_1
 10
-35.1256835519368
 20
125.0305943650991
 30
0.0
  0
VERTEX
  5
364
  8
LAYER_1
 10
-35.15963014899805
 20
125.0721771329442
 30
0.0
  0
VERTEX
  5
365
  8
LAYER_1
 10
-35.1810809097881
 20
125.120027095558
 30
0.0
  0
VERTEX
  5
366
  8
LAYER_1
 10
-35.19151209262102
 20
125.1728275676951
 30
0.0
  0
VERTEX
  5
367
  8
LAYER_1
 10
-35.19239990969427
 20
125.2292618484245
 30
0.0
  0
VERTEX
  5
368
  8
LAYER_1
 10
-35.18374436100785
 20
125.2893299377461
 30
0.0
  0
VERTEX
  5
369
  8
LAYER_1
 10
-35.16554544656175
 20
125.3530318356601
 30
0.0
  0
VERTEX
  5
36A
  8
LAYER_1
 10
-35.1384949791364
 20
125.4168598000603
 30
0.0
  0
VERTEX
  5
36B
  8
LAYER_1
 10
-35.10477127951239
 20
125.471696344444
 30
0.0
  0
VERTEX
  5
36C
  8
LAYER_1
 10
-35.06437434768974
 20
125.5175414688112
 30
0.0
  0
VERTEX
  5
36D
  8
LAYER_1
 10
-35.01730418366842
 20
125.554395173162
 30
0.0
  0
VERTEX
  5
36E
  8
LAYER_1
 10
-34.96499471988911
 20
125.5801355812761
 30
0.0
  0
VERTEX
  5
36F
  8
LAYER_1
 10
-34.90887982699013
 20
125.592640847364
 30
0.0
  0
VERTEX
  5
370
  8
LAYER_1
 10
-34.84895950497152
 20
125.5919109714258
 30
0.0
  0
VERTEX
  5
371
  8
LAYER_1
 10
-34.78523375383325
 20
125.5779459534615
 30
0.0
  0
VERTEX
  5
372
  8
LAYER_1
 10
-34.71564458366189
 20
125.5542764638322
 30
0.0
  0
SEQEND
  5
657
  8
LAYER_1
  0
POLYLINE
  5
89
  8
LAYER_1
 66
     1
 10
0.0
 20
0.0
 30
0.0
 70
     1
  0
VERTEX
  5
373
  8
LAYER_1
 10
-7.194356886274956
 20
127.3727732002037
 30
0.0
  0
VERTEX
  5
374
  8
LAYER_1
 10
-8.138673179050903
 20
127.1508026648681
 30
0.0
  0
VERTEX
  5
375
  8
LAYER_1
 10
-8.057682695775425
 20
126.8062495790219
 30
0.0
  0
VERTEX
  5
376
  8
LAYER_1
 10
-7.520071116506848
 20
126.9326202992623
 30
0.0
  0
VERTEX
  5
377
  8
LAYER_1
 10
-7.108818414636177
 20
125.1830519331842
 30
0.0
  0
VERTEX
  5
378
  8
LAYER_1
 10
-6.702113701128808
 20
125.2786517482794
 30
0.0
  0
SEQEND
  5
658
  8
LAYER_1
  0
POLYLINE
  5
8A
  8
LAYER_1
 66
     1
 10
0.0
 20
0.0
 30
0.0
 70
     1
  0
VERTEX
  5
379
  8
LAYER_1
 10
-8.56525689917704
 20
124.9110657325639
 30
0.0
  0
VERTEX
  5
37A
  8
LAYER_1
 10
-8.452020283455303
 20
124.9272355326817
 30
0.0
  0
VERTEX
  5
37B
  8
LAYER_1
 10
-8.349640030258525
 20
124.9611042127927
 30
0.0
  0
VERTEX
  5
37C
  8
LAYER_1
 10
-8.258116139586711
 20
125.0126717728971
 30
0.0
  0
VERTEX
  5
37D
  8
LAYER_1
 10
-8.177448611439857
 20
125.0819382129947
 30
0.0
  0
VERTEX
  5
37E
  8
LAYER_1
 10
-8.107434534717171
 20
125.1659452748298
 30
0.0
  0
VERTEX
  5
37F
  8
LAYER_1
 10
-8.04787094965684
 20
125.2617347023369
 30
0.0
  0
VERTEX
  5
380
  8
LAYER_1
 10
-7.998757856258859
 20
125.3693064955162
 30
0.0
  0
VERTEX
  5
381
  8
LAYER_1
 10
-7.960095254523228
 20
125.4886606543675
 30
0.0
  0
VERTEX
  5
382
  8
LAYER_1
 10
-7.931680229349441
 20
125.6168388994829
 30
0.0
  0
VERTEX
  5
383
  8
LAYER_1
 10
-7.913309819166596
 20
125.7508830023056
 30
0.0
  0
VERTEX
  5
384
  8
LAYER_1
 10
-7.904984023974697
 20
125.8907929628358
 30
0.0
  0
VERTEX
  5
385
  8
LAYER_1
 10
-7.906702843773739
 20
126.0365687810734
 30
0.0
  0
VERTEX
  5
386
  8
LAYER_1
 10
-7.917158829148384
 20
126.1829021625297
 30
0.0
  0
VERTEX
  5
387
  8
LAYER_1
 10
-7.936036328017339
 20
126.3226939346551
 30
0.0
  0
VERTEX
  5
388
  8
LAYER_1
 10
-7.963335340380603
 20
126.4559440974496
 30
0.0
  0
VERTEX
  5
389
  8
LAYER_1
 10
-7.999055866238175
 20
126.5826526509131
 30
0.0
  0
VERTEX
  5
38A
  8
LAYER_1
 10
-8.043792657858564
 20
126.6997143346151
 30
0.0
  0
VERTEX
  5
38B
  8
LAYER_1
 10
-8.098140469700905
 20
126.8040239367859
 30
0.0
  0
VERTEX
  5
38C
  8
LAYER_1
 10
-8.1620993017652
 20
126.8955814574257
 30
0.0
  0
VERTEX
  5
38D
  8
LAYER_1
 10
-8.235669154051449
 20
126.9743868965343
 30
0.0
  0
VERTEX
  5
38E
  8
LAYER_1
 10
-8.319444803021756
 20
127.0373349895445
 30
0.0
  0
VERTEX
  5
38F
  8
LAYER_1
 10
-8.414020978667835
 20
127.0813205227408
 30
0.0
  0
VERTEX
  5
390
  8
LAYER_1
 10
-8.519397680989686
 20
127.1063434961232
 30
0.0
  0
VERTEX
  5
391
  8
LAYER_1
 10
-8.635574909987307
 20
127.1124039096915
 30
0.0
  0
VERTEX
  5
392
  8
LAYER_1
 10
-8.711368179961951
 20
127.1058923197903
 30
0.0
  0
VERTEX
  5
393
  8
LAYER_1
 10
-8.78295849694911
 20
127.0909602469116
 30
0.0
  0
VERTEX
  5
394
  8
LAYER_1
 10
-8.850345860948792
 20
127.0676076910557
 30
0.0
  0
VERTEX
  5
395
  8
LAYER_1
 10
-8.913530271960994
 20
127.0358346522225
 30
0.0
  0
VERTEX
  5
396
  8
LAYER_1
 10
-8.972511729985715
 20
126.9956411304119
 30
0.0
  0
VERTEX
  5
397
  8
LAYER_1
 10
-9.027290235022953
 20
126.947027125624
 30
0.0
  0
VERTEX
  5
398
  8
LAYER_1
 10
-9.077865787072712
 20
126.8899926378589
 30
0.0
  0
VERTEX
  5
399
  8
LAYER_1
 10
-9.124238386134987
 20
126.8245376671163
 30
0.0
  0
VERTEX
  5
39A
  8
LAYER_1
 10
-9.165399219548483
 20
126.7498036124444
 30
0.0
  0
VERTEX
  5
39B
  8
LAYER_1
 10
-9.2003394514167
 20
126.664931898317
 30
0.0
  0
VERTEX
  5
39C
  8
LAYER_1
 10
-9.229059081739642
 20
126.569922524734
 30
0.0
  0
VERTEX
  5
39D
  8
LAYER_1
 10
-9.251558110517305
 20
126.4647754916954
 30
0.0
  0
VERTEX
  5
39E
  8
LAYER_1
 10
-9.277894363436799
 20
126.2240684472515
 30
0.0
  0
VERTEX
  5
39F
  8
LAYER_1
 10
-9.279348210175185
 20
125.9428107649854
 30
0.0
  0
VERTEX
  5
3A0
  8
LAYER_1
 10
-9.27092012958599
 20
125.8177214023972
 30
0.0
  0
VERTEX
  5
3A1
  8
LAYER_1
 10
-9.25486608260583
 20
125.6941880364936
 30
0.0
  0
VERTEX
  5
3A2
  8
LAYER_1
 10
-9.2311860692347
 20
125.5722106672747
 30
0.0
  0
VERTEX
  5
3A3
  8
LAYER_1
 10
-9.199880089472606
 20
125.4517892947404
 30
0.0
  0
VERTEX
  5
3A4
  8
LAYER_1
 10
-9.159577637454753
 20
125.3375068118377
 30
0.0
  0
VERTEX
  5
3A5
  8
LAYER_1
 10
-9.108908207316352
 20
125.2339461115132
 30
0.0
  0
VERTEX
  5
3A6
  8
LAYER_1
 10
-9.047871799057404
 20
125.1411071937671
 30
0.0
  0
VERTEX
  5
3A7
  8
LAYER_1
 10
-8.97646841267791
 20
125.0589900585993
 30
0.0
  0
VERTEX
  5
3A8
  8
LAYER_1
 10
-8.89332753650428
 20
124.9921776053131
 30
0.0
  0
VERTEX
  5
3A9
  8
LAYER_1
 10
-8.797078658862924
 20
124.9452527332118
 30
0.0
  0
VERTEX
  5
3AA
  8
LAYER_1
 10
-8.687721779753845
 20
124.9182154422954
 30
0.0
  0
SEQEND
  5
659
  8
LAYER_1
  0
POLYLINE
  5
8B
  8
LAYER_1
 66
     1
 10
0.0
 20
0.0
 30
0.0
 70
     1
  0
VERTEX
  5
3AB
  8
LAYER_1
 10
-8.565647520229808
 20
125.2749370651489
 30
0.0
  0
VERTEX
  5
3AC
  8
LAYER_1
 10
-8.610248259675064
 20
125.2804095190121
 30
0.0
  0
VERTEX
  5
3AD
  8
LAYER_1
 10
-8.650450944715253
 20
125.2981994428842
 30
0.0
  0
VERTEX
  5
3AE
  8
LAYER_1
 10
-8.68625557535038
 20
125.3283068367652
 30
0.0
  0
VERTEX
  5
3AF
  8
LAYER_1
 10
-8.717662151580441
 20
125.370731700655
 30
0.0
  0
VERTEX
  5
3B0
  8
LAYER_1
 10
-8.768937323258417
 20
125.4839358629564
 30
0.0
  0
VERTEX
  5
3B1
  8
LAYER_1
 10
-8.80593264656349
 20
125.6292140516054
 30
0.0
  0
VERTEX
  5
3B2
  8
LAYER_1
 10
-8.830304403989043
 20
125.7979683475421
 30
0.0
  0
VERTEX
  5
3B3
  8
LAYER_1
 10
-8.843708780706416
 20
125.9816008360877
 30
0.0
  0
VERTEX
  5
3B4
  8
LAYER_1
 10
-8.847893188553616
 20
126.1408698508845
 30
0.0
  0
VERTEX
  5
3B5
  8
LAYER_1
 10
-8.844111616648263
 20
126.2846903357588
 30
0.0
  0
VERTEX
  5
3B6
  8
LAYER_1
 10
-8.83236406499036
 20
126.4130622907103
 30
0.0
  0
VERTEX
  5
3B7
  8
LAYER_1
 10
-8.812650533579903
 20
126.5259857157393
 30
0.0
  0
VERTEX
  5
3B8
  8
LAYER_1
 10
-8.783786519750917
 20
126.6187942455562
 30
0.0
  0
VERTEX
  5
3B9
  8
LAYER_1
 10
-8.744587474367027
 20
126.686821565723
 30
0.0
  0
VERTEX
  5
3BA
  8
LAYER_1
 10
-8.695053397428236
 20
126.7300676762397
 30
0.0
  0
VERTEX
  5
3BB
  8
LAYER_1
 10
-8.63518428893454
 20
126.7485325771065
 30
0.0
  0
VERTEX
  5
3BC
  8
LAYER_1
 10
-8.57475310544813
 20
126.7395288193987
 30
0.0
  0
VERTEX
  5
3BD
  8
LAYER_1
 10
-8.520836970194583
 20
126.7070829121073
 30
0.0
  0
VERTEX
  5
3BE
  8
LAYER_1
 10
-8.473435883173899
 20
126.6511948552322
 30
0.0
  0
VERTEX
  5
3BF
  8
LAYER_1
 10
-8.432549844386077
 20
126.5718646487736
 30
0.0
  0
VERTEX
  5
3C0
  8
LAYER_1
 10
-8.398562972081201
 20
126.469299751867
 30
0.0
  0
VERTEX
  5
3C1
  8
LAYER_1
 10
-8.371859384509357
 20
126.3437076236484
 30
0.0
  0
VERTEX
  5
3C2
  8
LAYER_1
 10
-8.352439081670543
 20
126.1950882641176
 30
0.0
  0
VERTEX
  5
3C3
  8
LAYER_1
 10
-8.340302063564756
 20
126.0234416732747
 30
0.0
  0
VERTEX
  5
3C4
  8
LAYER_1
 10
-8.33728893384833
 20
125.8582768605234
 30
0.0
  0
VERTEX
  5
3C5
  8
LAYER_1
 10
-8.343389293470414
 20
125.7124048020067
 30
0.0
  0
VERTEX
  5
3C6
  8
LAYER_1
 10
-8.358603142431011
 20
125.5858254977245
 30
0.0
  0
VERTEX
  5
3C7
  8
LAYER_1
 10
-8.38293048073012
 20
125.4785389476768
 30
0.0
  0
VERTEX
  5
3C8
  8
LAYER_1
 10
-8.416013357925127
 20
125.392583700321
 30
0.0
  0
VERTEX
  5
3C9
  8
LAYER_1
 10
-8.45749382357341
 20
125.3299983041144
 30
0.0
  0
VERTEX
  5
3CA
  8
LAYER_1
 10
-8.507371877674972
 20
125.2907827590571
 30
0.0
  0
SEQEND
  5
65A
  8
LAYER_1
  0
POLYLINE
  5
8C
  8
LAYER_1
 66
     1
 10
0.0
 20
0.0
 30
0.0
 70
     1
  0
VERTEX
  5
3CB
  8
LAYER_1
 10
-9.886751337180506
 20
127.1102361223469
 30
0.0
  0
VERTEX
  5
3CC
  8
LAYER_1
 10
-10.12453774933997
 20
126.4344015952194
 30
0.0
  0
VERTEX
  5
3CD
  8
LAYER_1
 10
-10.23117290455258
 20
126.1095023766137
 30
0.0
  0
VERTEX
  5
3CE
  8
LAYER_1
 10
-10.33795137335503
 20
125.7483726193579
 30
0.0
  0
VERTEX
  5
3CF
  8
LAYER_1
 10
-10.34427530721669
 20
125.749241103332
 30
0.0
  0
VERTEX
  5
3D0
  8
LAYER_1
 10
-10.33808257900524
 20
126.1286151713035
 30
0.0
  0
VERTEX
  5
3D1
  8
LAYER_1
 10
-10.34314779570947
 20
126.4612016980491
 30
0.0
  0
VERTEX
  5
3D2
  8
LAYER_1
 10
-10.37369424452832
 20
127.1771093883522
 30
0.0
  0
VERTEX
  5
3D3
  8
LAYER_1
 10
-10.80055978019036
 20
127.2357320566035
 30
0.0
  0
VERTEX
  5
3D4
  8
LAYER_1
 10
-11.46953106086514
 20
125.1562155550453
 30
0.0
  0
VERTEX
  5
3D5
  8
LAYER_1
 10
-11.0647849612833
 20
125.1006306123888
 30
0.0
  0
VERTEX
  5
3D6
  8
LAYER_1
 10
-10.84447443196403
 20
125.9307133468981
 30
0.0
  0
VERTEX
  5
3D7
  8
LAYER_1
 10
-10.75331249521425
 20
126.2895571848054
 30
0.0
  0
VERTEX
  5
3D8
  8
LAYER_1
 10
-10.65889319391247
 20
126.672120493041
 30
0.0
  0
VERTEX
  5
3D9
  8
LAYER_1
 10
-10.65256926005081
 20
126.6712520090669
 30
0.0
  0
VERTEX
  5
3DA
  8
LAYER_1
 10
-10.66057740506123
 20
126.2727938066555
 30
0.0
  0
VERTEX
  5
3DB
  8
LAYER_1
 10
-10.65519074425647
 20
125.9014962333988
 30
0.0
  0
VERTEX
  5
3DC
  8
LAYER_1
 10
-10.62843352482877
 20
125.0407052181763
 30
0.0
  0
VERTEX
  5
3DD
  8
LAYER_1
 10
-10.2932650301608
 20
124.9946755675493
 30
0.0
  0
VERTEX
  5
3DE
  8
LAYER_1
 10
-10.02509066873685
 20
125.8214072665294
 30
0.0
  0
VERTEX
  5
3DF
  8
LAYER_1
 10
-9.907942452212062
 20
126.184737938622
 30
0.0
  0
VERTEX
  5
3E0
  8
LAYER_1
 10
-9.802000155657563
 20
126.5544409145512
 30
0.0
  0
VERTEX
  5
3E1
  8
LAYER_1
 10
-9.792514254865072
 20
126.5531381885901
 30
0.0
  0
VERTEX
  5
3E2
  8
LAYER_1
 10
-9.809402428648179
 20
126.1691912534471
 30
0.0
  0
VERTEX
  5
3E3
  8
LAYER_1
 10
-9.822290457021511
 20
125.7967783736348
 30
0.0
  0
VERTEX
  5
3E4
  8
LAYER_1
 10
-9.834779825190457
 20
124.9317104794274
 30
0.0
  0
VERTEX
  5
3E5
  8
LAYER_1
 10
-9.404752322597584
 20
124.872653569189
 30
0.0
  0
VERTEX
  5
3E6
  8
LAYER_1
 10
-9.475695636172615
 20
127.0537846640308
 30
0.0
  0
SEQEND
  5
65B
  8
LAYER_1
  0
POLYLINE
  5
8D
  8
LAYER_1
 66
     1
 10
0.0
 20
0.0
 30
0.0
 70
     1
  0
VERTEX
  5
3E7
  8
LAYER_1
 10
-13.97363693173369
 20
127.1196990732958
 30
0.0
  0
VERTEX
  5
3E8
  8
LAYER_1
 10
-14.04956622588599
 20
127.126554771551
 30
0.0
  0
VERTEX
  5
3E9
  8
LAYER_1
 10
-14.15103730882335
 20
127.1212494936792
 30
0.0
  0
VERTEX
  5
3EA
  8
LAYER_1
 10
-14.26811670562602
 20
127.1024254175693
 30
0.0
  0
VERTEX
  5
3EB
  8
LAYER_1
 10
-14.39087097274495
 20
127.0687248133416
 30
0.0
  0
VERTEX
  5
3EC
  8
LAYER_1
 10
-14.5312629144334
 20
127.0076730960612
 30
0.0
  0
VERTEX
  5
3ED
  8
LAYER_1
 10
-14.6496051215529
 20
126.9316131504528
 30
0.0
  0
VERTEX
  5
3EE
  8
LAYER_1
 10
-14.74589759410345
 20
126.8405449765164
 30
0.0
  0
VERTEX
  5
3EF
  8
LAYER_1
 10
-14.82014033208506
 20
126.7344685742521
 30
0.0
  0
VERTEX
  5
3F0
  8
LAYER_1
 10
-14.86974537201601
 20
126.6173330960273
 30
0.0
  0
VERTEX
  5
3F1
  8
LAYER_1
 10
-14.89212476609992
 20
126.4930877403249
 30
0.0
  0
VERTEX
  5
3F2
  8
LAYER_1
 10
-14.8872785143368
 20
126.3617325071448
 30
0.0
  0
VERTEX
  5
3F3
  8
LAYER_1
 10
-14.85520661672664
 20
126.2232673964871
 30
0.0
  0
VERTEX
  5
3F4
  8
LAYER_1
 10
-14.82353098912595
 20
126.1445701183117
 30
0.0
  0
VERTEX
  5
3F5
  8
LAYER_1
 10
-14.78144102811503
 20
126.07123323311
 30
0.0
  0
VERTEX
  5
3F6
  8
LAYER_1
 10
-14.72893673369387
 20
126.003256740882
 30
0.0
  0
VERTEX
  5
3F7
  8
LAYER_1
 10
-14.66601810586249
 20
125.9406406416277
 30
0.0
  0
VERTEX
  5
3F8
  8
LAYER_1
 10
-14.59132263703339
 20
125.8847179141197
 30
0.0
  0
VERTEX
  5
3F9
  8
LAYER_1
 10
-14.50348781961906
 20
125.836821537131
 30
0.0
  0
VERTEX
  5
3FA
  8
LAYER_1
 10
-14.4025136536195
 20
125.7969515106615
 30
0.0
  0
VERTEX
  5
3FB
  8
LAYER_1
 10
-14.28840013903472
 20
125.7651078347112
 30
0.0
  0
VERTEX
  5
3FC
  8
LAYER_1
 10
-14.12106844695316
 20
125.723052367434
 30
0.0
  0
VERTEX
  5
3FD
  8
LAYER_1
 10
-14.00933150125575
 20
125.6778972928613
 30
0.0
  0
VERTEX
  5
3FE
  8
LAYER_1
 10
-13.97095932999677
 20
125.6519773468907
 30
0.0
  0
VERTEX
  5
3FF
  8
LAYER_1
 10
-13.93978234260968
 20
125.6209224028849
 30
0.0
  0
VERTEX
  5
400
  8
LAYER_1
 10
-13.91580053909449
 20
125.5847324608438
 30
0.0
  0
VERTEX
  5
401
  8
LAYER_1
 10
-13.89901391945119
 20
125.5434075207673
 30
0.0
  0
VERTEX
  5
402
  8
LAYER_1
 10
-13.88890759303735
 20
125.5012070806483
 30
0.0
  0
VERTEX
  5
403
  8
LAYER_1
 10
-13.88756836236179
 20
125.45918679173
 30
0.0
  0
VERTEX
  5
404
  8
LAYER_1
 10
-13.89499622742452
 20
125.4173466540124
 30
0.0
  0
VERTEX
  5
405
  8
LAYER_1
 10
-13.91119118822553
 20
125.3756866674957
 30
0.0
  0
VERTEX
  5
406
  8
LAYER_1
 10
-13.93706625152142
 20
125.3364257341234
 30
0.0
  0
VERTEX
  5
407
  8
LAYER_1
 10
-13.97353443975413
 20
125.301782801955
 30
0.0
  0
VERTEX
  5
408
  8
LAYER_1
 10
-14.02059575292364
 20
125.2717578709905
 30
0.0
  0
VERTEX
  5
409
  8
LAYER_1
 10
-14.07825019102997
 20
125.2463509412298
 30
0.0
  0
VERTEX
  5
40A
  8
LAYER_1
 10
-14.16112777299345
 20
125.2245906191605
 30
0.0
  0
VERTEX
  5
40B
  8
LAYER_1
 10
-14.23680489171618
 20
125.2160296379083
 30
0.0
  0
VERTEX
  5
40C
  8
LAYER_1
 10
-14.30403620296324
 20
125.2179301218293
 30
0.0
  0
VERTEX
  5
40D
  8
LAYER_1
 10
-14.36157636249969
 20
125.2275541952795
 30
0.0
  0
VERTEX
  5
40E
  8
LAYER_1
 10
-14.30891916372561
 20
124.8647587387906
 30
0.0
  0
VERTEX
  5
40F
  8
LAYER_1
 10
-14.24306911531701
 20
124.8574744004955
 30
0.0
  0
VERTEX
  5
410
  8
LAYER_1
 10
-14.1591252522111
 20
124.8601333689621
 30
0.0
  0
VERTEX
  5
411
  8
LAYER_1
 10
-14.06390320931765
 20
124.8742067637529
 30
0.0
  0
VERTEX
  5
412
  8
LAYER_1
 10
-13.96421852931551
 20
124.901165735801
 30
0.0
  0
VERTEX
  5
413
  8
LAYER_1
 10
-13.8187229332843
 20
124.965808662535
 30
0.0
  0
VERTEX
  5
414
  8
LAYER_1
 10
-13.6999481792492
 20
125.0441071577692
 30
0.0
  0
VERTEX
  5
415
  8
LAYER_1
 10
-13.60789426721025
 20
125.1360612215035
 30
0.0
  0
VERTEX
  5
416
  8
LAYER_1
 10
-13.54256119716743
 20
125.2416708537379
 30
0.0
  0
VERTEX
  5
417
  8
LAYER_1
 10
-13.50241663786126
 20
125.355782464555
 30
0.0
  0
VERTEX
  5
418
  8
LAYER_1
 10
-13.48592827371763
 20
125.4732425101527
 30
0.0
  0
VERTEX
  5
419
  8
LAYER_1
 10
-13.49309610473652
 20
125.594050990531
 30
0.0
  0
VERTEX
  5
41A
  8
LAYER_1
 10
-13.52392013091794
 20
125.7182079056899
 30
0.0
  0
VERTEX
  5
41B
  8
LAYER_1
 10
-13.55271746922622
 20
125.7874759455791
 30
0.0
  0
VERTEX
  5
41C
  8
LAYER_1
 10
-13.59334009998658
 20
125.8539075827998
 30
0.0
  0
VERTEX
  5
41D
  8
LAYER_1
 10
-13.64578802319901
 20
125.917502817352
 30
0.0
  0
VERTEX
  5
41E
  8
LAYER_1
 10
-13.71006123886352
 20
125.9782616492358
 30
0.0
  0
VERTEX
  5
41F
  8
LAYER_1
 10
-13.78711406780299
 20
126.0338832097118
 30
0.0
  0
VERTEX
  5
420
  8
LAYER_1
 10
-13.87790084652562
 20
126.0820666761558
 30
0.0
  0
VERTEX
  5
421
  8
LAYER_1
 10
-13.98242157503142
 20
126.1228120485681
 30
0.0
  0
VERTEX
  5
422
  8
LAYER_1
 10
-14.10067625332039
 20
126.1561193269485
 30
0.0
  0
VERTEX
  5
423
  8
LAYER_1
 10
-14.24123244344581
 20
126.1956880089762
 30
0.0
  0
VERTEX
  5
424
  8
LAYER_1
 10
-14.34894660075558
 20
126.2420005817189
 30
0.0
  0
VERTEX
  5
425
  8
LAYER_1
 10
-14.3911905229337
 20
126.2704507058468
 30
0.0
  0
VERTEX
  5
426
  8
LAYER_1
 10
-14.42662916425146
 20
126.3061166062458
 30
0.0
  0
VERTEX
  5
427
  8
LAYER_1
 10
-14.45526252470885
 20
126.3489982829158
 30
0.0
  0
VERTEX
  5
428
  8
LAYER_1
 10
-14.47709060430589
 20
126.399095735857
 30
0.0
  0
VERTEX
  5
429
  8
LAYER_1
 10
-14.48932560442122
 20
126.4489515581649
 30
0.0
  0
VERTEX
  5
42A
  8
LAYER_1
 10
-14.49126859520142
 20
126.496932639286
 30
0.0
  0
VERTEX
  5
42B
  8
LAYER_1
 10
-14.48291957664649
 20
126.5430389792204
 30
0.0
  0
VERTEX
  5
42C
  8
LAYER_1
 10
-14.46427854875644
 20
126.587270577968
 30
0.0
  0
VERTEX
  5
42D
  8
LAYER_1
 10
-14.43472285494359
 20
126.6282582030154
 30
0.0
  0
VERTEX
  5
42E
  8
LAYER_1
 10
-14.3936298543056
 20
126.6646326679643
 30
0.0
  0
VERTEX
  5
42F
  8
LAYER_1
 10
-14.34099954684247
 20
126.6963939728149
 30
0.0
  0
VERTEX
  5
430
  8
LAYER_1
 10
-14.2768319325542
 20
126.7235421175672
 30
0.0
  0
VERTEX
  5
431
  8
LAYER_1
 10
-14.18551923679123
 20
126.7480129837545
 30
0.0
  0
VERTEX
  5
432
  8
LAYER_1
 10
-14.08922455972243
 20
126.7624790117018
 30
0.0
  0
VERTEX
  5
433
  8
LAYER_1
 10
-13.99626521818591
 20
126.7663246205512
 30
0.0
  0
VERTEX
  5
434
  8
LAYER_1
 10
-13.9149585290198
 20
126.7589342294449
 30
0.0
  0
SEQEND
  5
65C
  8
LAYER_1
  0
POLYLINE
  5
8E
  8
LAYER_1
 66
     1
 10
0.0
 20
0.0
 30
0.0
 70
     1
  0
VERTEX
  5
435
  8
LAYER_1
 10
-15.31324575288255
 20
126.8315830791376
 30
0.0
  0
VERTEX
  5
436
  8
LAYER_1
 10
-15.72714792468211
 20
126.774740706824
 30
0.0
  0
VERTEX
  5
437
  8
LAYER_1
 10
-15.48696582147871
 20
125.0258359708484
 30
0.0
  0
VERTEX
  5
438
  8
LAYER_1
 10
-15.86647497613734
 20
124.9737168902171
 30
0.0
  0
VERTEX
  5
439
  8
LAYER_1
 10
-15.81397586054305
 20
124.5914404813057
 30
0.0
  0
VERTEX
  5
43A
  8
LAYER_1
 10
-14.64421795571504
 20
124.75208668921
 30
0.0
  0
VERTEX
  5
43B
  8
LAYER_1
 10
-14.69671707130933
 20
125.1343630981214
 30
0.0
  0
VERTEX
  5
43C
  8
LAYER_1
 10
-15.07306364967914
 20
125.082678343162
 30
0.0
  0
SEQEND
  5
65D
  8
LAYER_1
  0
POLYLINE
  5
8F
  8
LAYER_1
 66
     1
 10
0.0
 20
0.0
 30
0.0
 70
     1
  0
VERTEX
  5
43D
  8
LAYER_1
 10
-16.06381364965177
 20
126.7446991259953
 30
0.0
  0
VERTEX
  5
43E
  8
LAYER_1
 10
-16.23354587120071
 20
126.7682978493763
 30
0.0
  0
VERTEX
  5
43F
  8
LAYER_1
 10
-16.45149767732244
 20
126.7844927999246
 30
0.0
  0
VERTEX
  5
440
  8
LAYER_1
 10
-16.57995335892902
 20
126.7866352936091
 30
0.0
  0
VERTEX
  5
441
  8
LAYER_1
 10
-16.69650796058342
 20
126.7813602525158
 30
0.0
  0
VERTEX
  5
442
  8
LAYER_1
 10
-16.80116148228566
 20
126.7686676766448
 30
0.0
  0
VERTEX
  5
443
  8
LAYER_1
 10
-16.89391392403572
 20
126.7485575659959
 30
0.0
  0
VERTEX
  5
444
  8
LAYER_1
 10
-16.97602989934109
 20
126.7213860631237
 30
0.0
  0
VERTEX
  5
445
  8
LAYER_1
 10
-17.04877402170928
 20
126.6875093105826
 30
0.0
  0
VERTEX
  5
446
  8
LAYER_1
 10
-17.11214629114029
 20
126.6469273083725
 30
0.0
  0
VERTEX
  5
447
  8
LAYER_1
 10
-17.16614670763411
 20
126.5996400564936
 30
0.0
  0
VERTEX
  5
448
  8
LAYER_1
 10
-17.23787687371926
 20
126.5177002426054
 30
0.0
  0
VERTEX
  5
449
  8
LAYER_1
 10
-17.29226641317206
 20
126.4220351963138
 30
0.0
  0
VERTEX
  5
44A
  8
LAYER_1
 10
-17.32816043081419
 20
126.3117119420338
 30
0.0
  0
VERTEX
  5
44B
  8
LAYER_1
 10
-17.34440403146737
 20
126.1857975041804
 30
0.0
  0
VERTEX
  5
44C
  8
LAYER_1
 10
-17.34200112635238
 20
126.0978951586843
 30
0.0
  0
VERTEX
  5
44D
  8
LAYER_1
 10
-17.3272647767298
 20
126.0146960670095
 30
0.0
  0
VERTEX
  5
44E
  8
LAYER_1
 10
-17.30019498259963
 20
125.9362002291558
 30
0.0
  0
VERTEX
  5
44F
  8
LAYER_1
 10
-17.26079174396188
 20
125.8624076451233
 30
0.0
  0
VERTEX
  5
450
  8
LAYER_1
 10
-17.20938887941724
 20
125.7958748454995
 30
0.0
  0
VERTEX
  5
451
  8
LAYER_1
 10
-17.14632015671503
 20
125.7391584073422
 30
0.0
  0
VERTEX
  5
452
  8
LAYER_1
 10
-17.07158557585526
 20
125.6922583306513
 30
0.0
  0
VERTEX
  5
453
  8
LAYER_1
 10
-16.98518513683792
 20
125.6551746154268
 30
0.0
  0
VERTEX
  5
454
  8
LAYER_1
 10
-16.98575865937375
 20
125.6424348426636
 30
0.0
  0
VERTEX
  5
455
  8
LAYER_1
 10
-17.06212036128069
 20
125.606475548077
 30
0.0
  0
VERTEX
  5
456
  8
LAYER_1
 10
-17.12840673248439
 20
125.5633821406844
 30
0.0
  0
VERTEX
  5
457
  8
LAYER_1
 10
-17.18461777298482
 20
125.5131546204855
 30
0.0
  0
VERTEX
  5
458
  8
LAYER_1
 10
-17.230753482782
 20
125.4557929874805
 30
0.0
  0
VERTEX
  5
459
  8
LAYER_1
 10
-17.26709490517374
 20
125.3933352236744
 30
0.0
  0
VERTEX
  5
45A
  8
LAYER_1
 10
-17.29392308126718
 20
125.3278193597327
 30
0.0
  0
VERTEX
  5
45B
  8
LAYER_1
 10
-17.31123801106235
 20
125.2592453956556
 30
0.0
  0
VERTEX
  5
45C
  8
LAYER_1
 10
-17.31903969455924
 20
125.187613331443
 30
0.0
  0
VERTEX
  5
45D
  8
LAYER_1
 10
-17.31476019807549
 20
125.0765734034928
 30
0.0
  0
VERTEX
  5
45E
  8
LAYER_1
 10
-17.29048256877275
 20
124.9709699124689
 30
0.0
  0
VERTEX
  5
45F
  8
LAYER_1
 10
-17.24424048667492
 20
124.8746056522867
 30
0.0
  0
VERTEX
  5
460
  8
LAYER_1
 10
-17.17406763180587
 20
124.7912834168612
 30
0.0
  0
VERTEX
  5
461
  8
LAYER_1
 10
-17.11758866448452
 20
124.7459560552972
 30
0.0
  0
VERTEX
  5
462
  8
LAYER_1
 10
-17.0574554166393
 20
124.7082431193017
 30
0.0
  0
VERTEX
  5
463
  8
LAYER_1
 10
-16.99366788827021
 20
124.6781446088747
 30
0.0
  0
VERTEX
  5
464
  8
LAYER_1
 10
-16.92622607937725
 20
124.6556605240163
 30
0.0
  0
VERTEX
  5
465
  8
LAYER_1
 10
-16.78428434545661
 20
124.6265311597032
 30
0.0
  0
VERTEX
  5
466
  8
LAYER_1
 10
-16.63553484299278
 20
124.6138505506791
 30
0.0
  0
VERTEX
  5
467
  8
LAYER_1
 10
-16.37731421385827
 20
124.6122000226851
 30
0.0
  0
VERTEX
  5
468
  8
LAYER_1
 10
-16.15883904651301
 20
124.6338806539681
 30
0.0
  0
SEQEND
  5
65E
  8
LAYER_1
  0
POLYLINE
  5
90
  8
LAYER_1
 66
     1
 10
0.0
 20
0.0
 30
0.0
 70
     1
  0
VERTEX
  5
469
  8
LAYER_1
 10
-16.56344142736369
 20
124.936154827296
 30
0.0
  0
VERTEX
  5
46A
  8
LAYER_1
 10
-16.61098171821656
 20
124.928302167245
 30
0.0
  0
VERTEX
  5
46B
  8
LAYER_1
 10
-16.67256555866059
 20
124.9282765578454
 30
0.0
  0
VERTEX
  5
46C
  8
LAYER_1
 10
-16.73220617033788
 20
124.9369946357905
 30
0.0
  0
VERTEX
  5
46D
  8
LAYER_1
 10
-16.78274587501699
 20
124.9546712287135
 30
0.0
  0
VERTEX
  5
46E
  8
LAYER_1
 10
-16.82418467269795
 20
124.9813063366144
 30
0.0
  0
VERTEX
  5
46F
  8
LAYER_1
 10
-16.85652256338074
 20
125.0168999594931
 30
0.0
  0
VERTEX
  5
470
  8
LAYER_1
 10
-16.88044913285163
 20
125.0594595880567
 30
0.0
  0
VERTEX
  5
471
  8
LAYER_1
 10
-16.89665396470626
 20
125.1069927616729
 30
0.0
  0
VERTEX
  5
472
  8
LAYER_1
 10
-16.90513705894463
 20
125.1594994803417
 30
0.0
  0
VERTEX
  5
473
  8
LAYER_1
 10
-16.90589841556673
 20
125.2169797440632
 30
0.0
  0
VERTEX
  5
474
  8
LAYER_1
 10
-16.89732306511148
 20
125.2806099000663
 30
0.0
  0
VERTEX
  5
475
  8
LAYER_1
 10
-16.8801295129824
 20
125.337481686821
 30
0.0
  0
VERTEX
  5
476
  8
LAYER_1
 10
-16.85431775917949
 20
125.3875951043274
 30
0.0
  0
VERTEX
  5
477
  8
LAYER_1
 10
-16.81988780370274
 20
125.4309501525854
 30
0.0
  0
VERTEX
  5
478
  8
LAYER_1
 10
-16.77879448310435
 20
125.4657611923701
 30
0.0
  0
VERTEX
  5
479
  8
LAYER_1
 10
-16.73299258527574
 20
125.4902425822657
 30
0.0
  0
VERTEX
  5
47A
  8
LAYER_1
 10
-16.6824821102169
 20
125.5043943222724
 30
0.0
  0
VERTEX
  5
47B
  8
LAYER_1
 10
-16.62726305792785
 20
125.50821641239
 30
0.0
  0
VERTEX
  5
47C
  8
LAYER_1
 10
-16.537869373442
 20
125.5041920633246
 30
0.0
  0
SEQEND
  5
65F
  8
LAYER_1
  0
POLYLINE
  5
91
  8
LAYER_1
 66
     1
 10
0.0
 20
0.0
 30
0.0
 70
     1
  0
VERTEX
  5
47D
  8
LAYER_1
 10
-16.52396154833559
 20
125.8131294117601
 30
0.0
  0
VERTEX
  5
47E
  8
LAYER_1
 10
-16.61334297031328
 20
125.8171532087886
 30
0.0
  0
VERTEX
  5
47F
  8
LAYER_1
 10
-16.67490775825623
 20
125.826245212188
 30
0.0
  0
VERTEX
  5
480
  8
LAYER_1
 10
-16.73123310910728
 20
125.8451432022649
 30
0.0
  0
VERTEX
  5
481
  8
LAYER_1
 10
-16.78231902286643
 20
125.8738471790195
 30
0.0
  0
VERTEX
  5
482
  8
LAYER_1
 10
-16.82816549953368
 20
125.9123571424517
 30
0.0
  0
VERTEX
  5
483
  8
LAYER_1
 10
-16.86578660455949
 20
125.9603888334247
 30
0.0
  0
VERTEX
  5
484
  8
LAYER_1
 10
-16.8921963547336
 20
126.0176579906109
 30
0.0
  0
VERTEX
  5
485
  8
LAYER_1
 10
-16.907394750056
 20
126.0841646140103
 30
0.0
  0
VERTEX
  5
486
  8
LAYER_1
 10
-16.91138179052669
 20
126.159908703623
 30
0.0
  0
VERTEX
  5
487
  8
LAYER_1
 10
-16.90089640583882
 20
126.2365625232115
 30
0.0
  0
VERTEX
  5
488
  8
LAYER_1
 10
-16.8803432689224
 20
126.3020466732178
 30
0.0
  0
VERTEX
  5
489
  8
LAYER_1
 10
-16.84972237977742
 20
126.3563611536419
 30
0.0
  0
VERTEX
  5
48A
  8
LAYER_1
 10
-16.80903373840389
 20
126.3995059644837
 30
0.0
  0
VERTEX
  5
48B
  8
LAYER_1
 10
-16.76087911936786
 20
126.4319729183776
 30
0.0
  0
VERTEX
  5
48C
  8
LAYER_1
 10
-16.70786029504481
 20
126.4542538766185
 30
0.0
  0
VERTEX
  5
48D
  8
LAYER_1
 10
-16.64997726543471
 20
126.4663488392065
 30
0.0
  0
VERTEX
  5
48E
  8
LAYER_1
 10
-16.58723003053757
 20
126.4682578061416
 30
0.0
  0
VERTEX
  5
48F
  8
LAYER_1
 10
-16.53619079667165
 20
126.4651607470824
 30
0.0
  0
VERTEX
  5
490
  8
LAYER_1
 10
-16.49494371946015
 20
126.4577083478295
 30
0.0
  0
SEQEND
  5
660
  8
LAYER_1
  0
POLYLINE
  5
92
  8
LAYER_1
 66
     1
 10
0.0
 20
0.0
 30
0.0
 70
     1
  0
VERTEX
  5
491
  8
LAYER_1
 10
-17.97568145829004
 20
127.0164451663411
 30
0.0
  0
VERTEX
  5
492
  8
LAYER_1
 10
-18.16775790236421
 20
126.1993055611972
 30
0.0
  0
VERTEX
  5
493
  8
LAYER_1
 10
-18.9371639748331
 20
125.0326354054828
 30
0.0
  0
VERTEX
  5
494
  8
LAYER_1
 10
-18.51453531050783
 20
124.933292514138
 30
0.0
  0
VERTEX
  5
495
  8
LAYER_1
 10
-18.27491375722051
 20
125.3949912171099
 30
0.0
  0
VERTEX
  5
496
  8
LAYER_1
 10
-18.16909578477632
 20
125.6082307954144
 30
0.0
  0
VERTEX
  5
497
  8
LAYER_1
 10
-18.07204390098715
 20
125.8259898753358
 30
0.0
  0
VERTEX
  5
498
  8
LAYER_1
 10
-18.06583474819565
 20
125.8245303548556
 30
0.0
  0
VERTEX
  5
499
  8
LAYER_1
 10
-18.06796870103826
 20
125.5820008624704
 30
0.0
  0
VERTEX
  5
49A
  8
LAYER_1
 10
-18.06161157625547
 20
125.3546885048716
 30
0.0
  0
VERTEX
  5
49B
  8
LAYER_1
 10
-18.03635894489716
 20
124.8208926067432
 30
0.0
  0
VERTEX
  5
49C
  8
LAYER_1
 10
-17.60130002573878
 20
124.7186278656528
 30
0.0
  0
VERTEX
  5
49D
  8
LAYER_1
 10
-17.75740385862037
 20
126.1192412633205
 30
0.0
  0
VERTEX
  5
49E
  8
LAYER_1
 10
-17.56897905796967
 20
126.9208458949825
 30
0.0
  0
SEQEND
  5
661
  8
LAYER_1
  0
POLYLINE
  5
93
  8
LAYER_1
 66
     1
 10
0.0
 20
0.0
 30
0.0
 70
     1
  0
VERTEX
  5
49F
  8
LAYER_1
 10
-0.6904233328513709
 20
124.959220908736
 30
0.0
  0
VERTEX
  5
4A0
  8
LAYER_1
 10
-0.5791397867442087
 20
124.9856682825372
 30
0.0
  0
VERTEX
  5
4A1
  8
LAYER_1
 10
-0.4802839930817835
 20
125.0287483162859
 30
0.0
  0
VERTEX
  5
4A2
  8
LAYER_1
 10
-0.3938559518640953
 20
125.088461009982
 30
0.0
  0
VERTEX
  5
4A3
  8
LAYER_1
 10
-0.3198556630911442
 20
125.1648063636257
 30
0.0
  0
VERTEX
  5
4A4
  8
LAYER_1
 10
-0.2578107961264455
 20
125.2548570864889
 30
0.0
  0
VERTEX
  5
4A5
  8
LAYER_1
 10
-0.2072489720770818
 20
125.3556858944708
 30
0.0
  0
VERTEX
  5
4A6
  8
LAYER_1
 10
-0.1681701909430531
 20
125.4672927875715
 30
0.0
  0
VERTEX
  5
4A7
  8
LAYER_1
 10
-0.1405744527243595
 20
125.5896777657909
 30
0.0
  0
VERTEX
  5
4A8
  8
LAYER_1
 10
-0.1239894208690917
 20
125.7199135177032
 30
0.0
  0
VERTEX
  5
4A9
  8
LAYER_1
 10
-0.1179427171961021
 20
125.855072786766
 30
0.0
  0
VERTEX
  5
4AA
  8
LAYER_1
 10
-0.1224343417053908
 20
125.9951555729793
 30
0.0
  0
VERTEX
  5
4AB
  8
LAYER_1
 10
-0.1374642943969577
 20
126.1401618763431
 30
0.0
  0
VERTEX
  5
4AC
  8
LAYER_1
 10
-0.1612456433050037
 20
126.2849251563346
 30
0.0
  0
VERTEX
  5
4AD
  8
LAYER_1
 10
-0.192815468732035
 20
126.4224049063022
 30
0.0
  0
VERTEX
  5
4AE
  8
LAYER_1
 10
-0.2321737706780517
 20
126.552601126246
 30
0.0
  0
VERTEX
  5
4AF
  8
LAYER_1
 10
-0.2793205491430537
 20
126.6755138161658
 30
0.0
  0
VERTEX
  5
4B0
  8
LAYER_1
 10
-0.3345643550632016
 20
126.7879964247573
 30
0.0
  0
VERTEX
  5
4B1
  8
LAYER_1
 10
-0.3982137460018503
 20
126.8869024489726
 30
0.0
  0
VERTEX
  5
4B2
  8
LAYER_1
 10
-0.4702687219589998
 20
126.9722318888115
 30
0.0
  0
VERTEX
  5
4B3
  8
LAYER_1
 10
-0.5507292829346502
 20
127.0439847442742
 30
0.0
  0
VERTEX
  5
4B4
  8
LAYER_1
 10
-0.6399040035789785
 20
127.0990144577266
 30
0.0
  0
VERTEX
  5
4B5
  8
LAYER_1
 10
-0.7381014169129239
 20
127.1341745264183
 30
0.0
  0
VERTEX
  5
4B6
  8
LAYER_1
 10
-0.8453215229364861
 20
127.1494649503493
 30
0.0
  0
VERTEX
  5
4B7
  8
LAYER_1
 10
-0.9615643216496652
 20
127.1448857295196
 30
0.0
  0
VERTEX
  5
4B8
  8
LAYER_1
 10
-1.036444233392628
 20
127.1314768816638
 30
0.0
  0
VERTEX
  5
4B9
  8
LAYER_1
 10
-1.106369539690031
 20
127.1100669194081
 30
0.0
  0
VERTEX
  5
4BA
  8
LAYER_1
 10
-1.171340240541876
 20
127.0806558427526
 30
0.0
  0
VERTEX
  5
4BB
  8
LAYER_1
 10
-1.231356335948163
 20
127.0432436516972
 30
0.0
  0
VERTEX
  5
4BC
  8
LAYER_1
 10
-1.286417825908891
 20
126.997830346242
 30
0.0
  0
VERTEX
  5
4BD
  8
LAYER_1
 10
-1.336524710424061
 20
126.944415926387
 30
0.0
  0
VERTEX
  5
4BE
  8
LAYER_1
 10
-1.381676989493673
 20
126.8830003921322
 30
0.0
  0
VERTEX
  5
4BF
  8
LAYER_1
 10
-1.421874663117725
 20
126.8135837434775
 30
0.0
  0
VERTEX
  5
4C0
  8
LAYER_1
 10
-1.456034713775692
 20
126.7354031539348
 30
0.0
  0
VERTEX
  5
4C1
  8
LAYER_1
 10
-1.483074103132425
 20
126.6476958244574
 30
0.0
  0
VERTEX
  5
4C2
  8
LAYER_1
 10
-1.502992831187924
 20
126.5504617550454
 30
0.0
  0
VERTEX
  5
4C3
  8
LAYER_1
 10
-1.51579089794219
 20
126.4437009456989
 30
0.0
  0
VERTEX
  5
4C4
  8
LAYER_1
 10
-1.520025047547022
 20
126.201599107202
 30
0.0
  0
VERTEX
  5
4C5
  8
LAYER_1
 10
-1.495776551946919
 20
125.9213903089668
 30
0.0
  0
VERTEX
  5
4C6
  8
LAYER_1
 10
-1.47595548129448
 20
125.7975965174219
 30
0.0
  0
VERTEX
  5
4C7
  8
LAYER_1
 10
-1.448682643714317
 20
125.6760489077253
 30
0.0
  0
VERTEX
  5
4C8
  8
LAYER_1
 10
-1.41395803920643
 20
125.5567474798769
 30
0.0
  0
VERTEX
  5
4C9
  8
LAYER_1
 10
-1.37178166777082
 20
125.4396922338768
 30
0.0
  0
VERTEX
  5
4CA
  8
LAYER_1
 10
-1.321207483522761
 20
125.3295720195569
 30
0.0
  0
VERTEX
  5
4CB
  8
LAYER_1
 10
-1.261289440577527
 20
125.2310756867491
 30
0.0
  0
VERTEX
  5
4CC
  8
LAYER_1
 10
-1.192027538935119
 20
125.1442032354535
 30
0.0
  0
VERTEX
  5
4CD
  8
LAYER_1
 10
-1.113421778595535
 20
125.06895466567
 30
0.0
  0
VERTEX
  5
4CE
  8
LAYER_1
 10
-1.024526108470397
 20
125.0100188340911
 30
0.0
  0
VERTEX
  5
4CF
  8
LAYER_1
 10
-0.9243944774713237
 20
124.9720845974091
 30
0.0
  0
VERTEX
  5
4D0
  8
LAYER_1
 10
-0.8130268855983149
 20
124.955151955624
 30
0.0
  0
SEQEND
  5
662
  8
LAYER_1
  0
POLYLINE
  5
94
  8
LAYER_1
 66
     1
 10
0.0
 20
0.0
 30
0.0
 70
     1
  0
VERTEX
  5
4D1
  8
LAYER_1
 10
-0.7240562860633171
 20
125.3215277401891
 30
0.0
  0
VERTEX
  5
4D2
  8
LAYER_1
 10
-0.7689696082780444
 20
125.3229023934824
 30
0.0
  0
VERTEX
  5
4D3
  8
LAYER_1
 10
-0.8106287019718993
 20
125.3369445792398
 30
0.0
  0
VERTEX
  5
4D4
  8
LAYER_1
 10
-0.849033567144882
 20
125.3636542974614
 30
0.0
  0
VERTEX
  5
4D5
  8
LAYER_1
 10
-0.8841842037969923
 20
125.4030315481472
 30
0.0
  0
VERTEX
  5
4D6
  8
LAYER_1
 10
-0.9455864881765661
 20
125.5110754840253
 30
0.0
  0
VERTEX
  5
4D7
  8
LAYER_1
 10
-0.9956992650029792
 20
125.6523633205011
 30
0.0
  0
VERTEX
  5
4D8
  8
LAYER_1
 10
-1.035386335711059
 20
125.818181941755
 30
0.0
  0
VERTEX
  5
4D9
  8
LAYER_1
 10
-1.065511405222769
 20
125.9998182452216
 30
0.0
  0
VERTEX
  5
4DA
  8
LAYER_1
 10
-1.084229350706873
 20
126.1580357923994
 30
0.0
  0
VERTEX
  5
4DB
  8
LAYER_1
 10
-1.093603378753027
 20
126.3015975039675
 30
0.0
  0
VERTEX
  5
4DC
  8
LAYER_1
 10
-1.093633489361229
 20
126.430503379926
 30
0.0
  0
VERTEX
  5
4DD
  8
LAYER_1
 10
-1.08431968253148
 20
126.5447534202749
 30
0.0
  0
VERTEX
  5
4DE
  8
LAYER_1
 10
-1.064056104350041
 20
126.6398090839635
 30
0.0
  0
VERTEX
  5
4DF
  8
LAYER_1
 10
-1.031236859273934
 20
126.711131884825
 30
0.0
  0
VERTEX
  5
4E0
  8
LAYER_1
 10
-0.9858619473031606
 20
126.7587218228593
 30
0.0
  0
VERTEX
  5
4E1
  8
LAYER_1
 10
-0.9279313684377192
 20
126.7825788980665
 30
0.0
  0
VERTEX
  5
4E2
  8
LAYER_1
 10
-0.866931487533781
 20
126.7791340770955
 30
0.0
  0
VERTEX
  5
4E3
  8
LAYER_1
 10
-0.8102775626102777
 20
126.7517503721055
 30
0.0
  0
VERTEX
  5
4E4
  8
LAYER_1
 10
-0.7579695936672093
 20
126.7004277830965
 30
0.0
  0
VERTEX
  5
4E5
  8
LAYER_1
 10
-0.7100075807045758
 20
126.6251663100686
 30
0.0
  0
VERTEX
  5
4E6
  8
LAYER_1
 10
-0.6667929819504854
 20
126.5261374467434
 30
0.0
  0
VERTEX
  5
4E7
  8
LAYER_1
 10
-0.6287272556330463
 20
126.4035126868426
 30
0.0
  0
VERTEX
  5
4E8
  8
LAYER_1
 10
-0.5958104017522585
 20
126.2572920303661
 30
0.0
  0
VERTEX
  5
4E9
  8
LAYER_1
 10
-0.5680424203081222
 20
126.0874754773139
 30
0.0
  0
VERTEX
  5
4EA
  8
LAYER_1
 10
-0.5499521805489356
 20
125.923279893318
 30
0.0
  0
VERTEX
  5
4EB
  8
LAYER_1
 10
-0.5426997621334979
 20
125.7774633790055
 30
0.0
  0
VERTEX
  5
4EC
  8
LAYER_1
 10
-0.5462851650618091
 20
125.6500259343764
 30
0.0
  0
VERTEX
  5
4ED
  8
LAYER_1
 10
-0.5607083893338692
 20
125.5409675594307
 30
0.0
  0
VERTEX
  5
4EE
  8
LAYER_1
 10
-0.5857992340874106
 20
125.4523509406501
 30
0.0
  0
VERTEX
  5
4EF
  8
LAYER_1
 10
-0.6213874984601657
 20
125.3862387645163
 30
0.0
  0
VERTEX
  5
4F0
  8
LAYER_1
 10
-0.6674731824521345
 20
125.3426310310293
 30
0.0
  0
SEQEND
  5
663
  8
LAYER_1
  0
POLYLINE
  5
95
  8
LAYER_1
 66
     1
 10
0.0
 20
0.0
 30
0.0
 70
     1
  0
VERTEX
  5
4F1
  8
LAYER_1
 10
-1.650551921066721
 20
127.0215161431937
 30
0.0
  0
VERTEX
  5
4F2
  8
LAYER_1
 10
-2.067910674421777
 20
127.0403049124302
 30
0.0
  0
VERTEX
  5
4F3
  8
LAYER_1
 10
-2.107821109068907
 20
126.1537663084104
 30
0.0
  0
VERTEX
  5
4F4
  8
LAYER_1
 10
-2.592547225668474
 20
126.1755878398254
 30
0.0
  0
VERTEX
  5
4F5
  8
LAYER_1
 10
-2.608177615358062
 20
125.828386813873
 30
0.0
  0
VERTEX
  5
4F6
  8
LAYER_1
 10
-2.123451498758495
 20
125.8065652824579
 30
0.0
  0
VERTEX
  5
4F7
  8
LAYER_1
 10
-2.148305792352156
 20
125.2544718026138
 30
0.0
  0
VERTEX
  5
4F8
  8
LAYER_1
 10
-2.664921785043801
 20
125.2777289610956
 30
0.0
  0
VERTEX
  5
4F9
  8
LAYER_1
 10
-2.68126998826678
 20
124.9145829970971
 30
0.0
  0
VERTEX
  5
4FA
  8
LAYER_1
 10
-1.74729524222008
 20
124.8725370693788
 30
0.0
  0
SEQEND
  5
664
  8
LAYER_1
  0
POLYLINE
  5
96
  8
LAYER_1
 66
     1
 10
0.0
 20
0.0
 30
0.0
 70
     1
  0
VERTEX
  5
4FB
  8
LAYER_1
 10
-2.672817665056149
 20
127.0511869378601
 30
0.0
  0
VERTEX
  5
4FC
  8
LAYER_1
 10
-3.07951457076143
 20
127.1467849176571
 30
0.0
  0
VERTEX
  5
4FD
  8
LAYER_1
 10
-3.282580395726187
 20
126.282893830805
 30
0.0
  0
VERTEX
  5
4FE
  8
LAYER_1
 10
-3.754923697863361
 20
126.3939226210945
 30
0.0
  0
VERTEX
  5
4FF
  8
LAYER_1
 10
-3.834451721171047
 20
126.0555911933301
 30
0.0
  0
VERTEX
  5
500
  8
LAYER_1
 10
-3.362108419033873
 20
125.9445624030406
 30
0.0
  0
VERTEX
  5
501
  8
LAYER_1
 10
-3.488568019815899
 20
125.4065727044715
 30
0.0
  0
VERTEX
  5
502
  8
LAYER_1
 10
-3.99198653919894
 20
125.524906020438
 30
0.0
  0
VERTEX
  5
503
  8
LAYER_1
 10
-4.075166825345095
 20
125.1710369840507
 30
0.0
  0
VERTEX
  5
504
  8
LAYER_1
 10
-3.165051400256774
 20
124.9571056882873
 30
0.0
  0
SEQEND
  5
665
  8
LAYER_1
  0
POLYLINE
  5
97
  8
LAYER_1
 66
     1
 10
0.0
 20
0.0
 30
0.0
 70
     1
  0
VERTEX
  5
505
  8
LAYER_1
 10
-22.46076712400243
 20
126.9408131485443
 30
0.0
  0
VERTEX
  5
506
  8
LAYER_1
 10
-22.30453689434166
 20
126.4814905265502
 30
0.0
  0
VERTEX
  5
507
  8
LAYER_1
 10
-22.11226124183989
 20
125.9446630259783
 30
0.0
  0
VERTEX
  5
508
  8
LAYER_1
 10
-21.9648410818646
 20
125.5619945206889
 30
0.0
  0
VERTEX
  5
509
  8
LAYER_1
 10
-21.97087935860868
 20
125.5599407107581
 30
0.0
  0
VERTEX
  5
50A
  8
LAYER_1
 10
-22.17161360439268
 20
125.8389246485226
 30
0.0
  0
VERTEX
  5
50B
  8
LAYER_1
 10
-22.3851693669984
 20
126.1034333120807
 30
0.0
  0
VERTEX
  5
50C
  8
LAYER_1
 10
-22.9598304893685
 20
126.7710658283536
 30
0.0
  0
VERTEX
  5
50D
  8
LAYER_1
 10
-23.32215476502905
 20
126.6478278207145
 30
0.0
  0
VERTEX
  5
50E
  8
LAYER_1
 10
-22.62939863614323
 20
124.6110993193662
 30
0.0
  0
VERTEX
  5
50F
  8
LAYER_1
 10
-22.28219896855399
 20
124.7291929668555
 30
0.0
  0
VERTEX
  5
510
  8
LAYER_1
 10
-22.43534410683519
 20
125.1794453067112
 30
0.0
  0
VERTEX
  5
511
  8
LAYER_1
 10
-22.63120942658643
 20
125.7057802886114
 30
0.0
  0
VERTEX
  5
512
  8
LAYER_1
 10
-22.79527600865964
 20
126.108915660991
 30
0.0
  0
VERTEX
  5
513
  8
LAYER_1
 10
-22.78923773191555
 20
126.1109694709218
 30
0.0
  0
VERTEX
  5
514
  8
LAYER_1
 10
-22.5779829638088
 20
125.843149624536
 30
0.0
  0
VERTEX
  5
515
  8
LAYER_1
 10
-22.36904091988896
 20
125.5897147044129
 30
0.0
  0
VERTEX
  5
516
  8
LAYER_1
 10
-21.78313412740043
 20
124.8989407890083
 30
0.0
  0
VERTEX
  5
517
  8
LAYER_1
 10
-21.42081132752737
 20
125.0221782946852
 30
0.0
  0
VERTEX
  5
518
  8
LAYER_1
 10
-22.11356745641319
 20
127.0589067960335
 30
0.0
  0
SEQEND
  5
666
  8
LAYER_1
  0
POLYLINE
  5
98
  8
LAYER_1
 66
     1
 10
0.0
 20
0.0
 30
0.0
 70
     1
  0
VERTEX
  5
519
  8
LAYER_1
 10
-23.69610938343841
 20
124.3811886923305
 30
0.0
  0
VERTEX
  5
51A
  8
LAYER_1
 10
-23.58481737857198
 20
124.4076380764197
 30
0.0
  0
VERTEX
  5
51B
  8
LAYER_1
 10
-23.48595407079457
 20
124.4507213847192
 30
0.0
  0
VERTEX
  5
51C
  8
LAYER_1
 10
-23.39951946010619
 20
124.5104386172293
 30
0.0
  0
VERTEX
  5
51D
  8
LAYER_1
 10
-23.32551354650684
 20
124.5867897739497
 30
0.0
  0
VERTEX
  5
51E
  8
LAYER_1
 10
-23.26346396345776
 20
124.6768473416468
 30
0.0
  0
VERTEX
  5
51F
  8
LAYER_1
 10
-23.21289829616011
 20
124.7776838137142
 30
0.0
  0
VERTEX
  5
520
  8
LAYER_1
 10
-23.17381654461389
 20
124.8892991901521
 30
0.0
  0
VERTEX
  5
521
  8
LAYER_1
 10
-23.1462187088191
 20
125.0116934709604
 30
0.0
  0
VERTEX
  5
522
  8
LAYER_1
 10
-23.12963241632112
 20
125.1419391222056
 30
0.0
  0
VERTEX
  5
523
  8
LAYER_1
 10
-23.12358525303291
 20
125.2771086648421
 30
0.0
  0
VERTEX
  5
524
  8
LAYER_1
 10
-23.12807721895449
 20
125.41720209887
 30
0.0
  0
VERTEX
  5
525
  8
LAYER_1
 10
-23.14310831408585
 20
125.5622194242892
 30
0.0
  0
VERTEX
  5
526
  8
LAYER_1
 10
-23.16689147063494
 20
125.7069937078637
 30
0.0
  0
VERTEX
  5
527
  8
LAYER_1
 10
-23.1984636957119
 20
125.8444839077869
 30
0.0
  0
VERTEX
  5
528
  8
LAYER_1
 10
-23.23782498931673
 20
125.9746900240587
 30
0.0
  0
VERTEX
  5
529
  8
LAYER_1
 10
-23.28497535144943
 20
126.0976120566792
 30
0.0
  0
VERTEX
  5
52A
  8
LAYER_1
 10
-23.34022335649938
 20
126.2101032151718
 30
0.0
  0
VERTEX
  5
52B
  8
LAYER_1
 10
-23.40387758548368
 20
126.3090167573201
 30
0.0
  0
VERTEX
  5
52C
  8
LAYER_1
 10
-23.4759380384023
 20
126.3943526831241
 30
0.0
  0
VERTEX
  5
52D
  8
LAYER_1
 10
-23.55640471525528
 20
126.4661109925838
 30
0.0
  0
VERTEX
  5
52E
  8
LAYER_1
 10
-23.6455862141478
 20
126.5211448888926
 30
0.0
  0
VERTEX
  5
52F
  8
LAYER_1
 10
-23.74379109155266
 20
126.5563076301318
 30
0.0
  0
VERTEX
  5
530
  8
LAYER_1
 10
-23.85101934746987
 20
126.5715992163012
 30
0.0
  0
VERTEX
  5
531
  8
LAYER_1
 10
-23.96727098189943
 20
126.567019647401
 30
0.0
  0
VERTEX
  5
532
  8
LAYER_1
 10
-24.04215658532971
 20
126.5536097803269
 30
0.0
  0
VERTEX
  5
533
  8
LAYER_1
 10
-24.11208720671055
 20
126.5321981906813
 30
0.0
  0
VERTEX
  5
534
  8
LAYER_1
 10
-24.17706284604196
 20
126.5027848784643
 30
0.0
  0
VERTEX
  5
535
  8
LAYER_1
 10
-24.23708350332393
 20
126.4653698436757
 30
0.0
  0
VERTEX
  5
536
  8
LAYER_1
 10
-24.29214917855646
 20
126.4199530863156
 30
0.0
  0
VERTEX
  5
537
  8
LAYER_1
 10
-24.34225987173957
 20
126.366534606384
 30
0.0
  0
VERTEX
  5
538
  8
LAYER_1
 10
-24.38741558287324
 20
126.3051144038809
 30
0.0
  0
VERTEX
  5
539
  8
LAYER_1
 10
-24.42761631195748
 20
126.2356924788063
 30
0.0
  0
VERTEX
  5
53A
  8
LAYER_1
 10
-24.46177895915065
 20
126.1575059466888
 30
0.0
  0
VERTEX
  5
53B
  8
LAYER_1
 10
-24.48882040379492
 20
126.069791950501
 30
0.0
  0
VERTEX
  5
53C
  8
LAYER_1
 10
-24.50874064589029
 20
125.9725504902427
 30
0.0
  0
VERTEX
  5
53D
  8
LAYER_1
 10
-24.52153968543676
 20
125.865781565914
 30
0.0
  0
VERTEX
  5
53E
  8
LAYER_1
 10
-24.52577415688299
 20
125.6236613250456
 30
0.0
  0
VERTEX
  5
53F
  8
LAYER_1
 10
-24.50152381813361
 20
125.3434312278956
 30
0.0
  0
VERTEX
  5
540
  8
LAYER_1
 10
-24.48170124086433
 20
125.2196280266768
 30
0.0
  0
VERTEX
  5
541
  8
LAYER_1
 10
-24.45442633025203
 20
125.0980711780404
 30
0.0
  0
VERTEX
  5
542
  8
LAYER_1
 10
-24.4196990862967
 20
124.9787606819866
 30
0.0
  0
VERTEX
  5
543
  8
LAYER_1
 10
-24.37751950899836
 20
124.8616965385153
 30
0.0
  0
VERTEX
  5
544
  8
LAYER_1
 10
-24.32694148056251
 20
124.751567953862
 30
0.0
  0
VERTEX
  5
545
  8
LAYER_1
 10
-24.26701888319464
 20
124.6530641342621
 30
0.0
  0
VERTEX
  5
546
  8
LAYER_1
 10
-24.19775171689476
 20
124.5661850797158
 30
0.0
  0
VERTEX
  5
547
  8
LAYER_1
 10
-24.11913998166287
 20
124.490930790223
 30
0.0
  0
VERTEX
  5
548
  8
LAYER_1
 10
-24.03023755450041
 20
124.4319904788802
 30
0.0
  0
VERTEX
  5
549
  8
LAYER_1
 10
-23.93009831240885
 20
124.3940533587838
 30
0.0
  0
VERTEX
  5
54A
  8
LAYER_1
 10
-23.81872225538818
 20
124.3771194299339
 30
0.0
  0
SEQEND
  5
667
  8
LAYER_1
  0
POLYLINE
  5
99
  8
LAYER_1
 66
     1
 10
0.0
 20
0.0
 30
0.0
 70
     1
  0
VERTEX
  5
54B
  8
LAYER_1
 10
-23.72974489312042
 20
124.7435230630415
 30
0.0
  0
VERTEX
  5
54C
  8
LAYER_1
 10
-23.77466162923589
 20
124.7448978208234
 30
0.0
  0
VERTEX
  5
54D
  8
LAYER_1
 10
-23.81632388947374
 20
124.7589410739396
 30
0.0
  0
VERTEX
  5
54E
  8
LAYER_1
 10
-23.85473167383398
 20
124.7856528223902
 30
0.0
  0
VERTEX
  5
54F
  8
LAYER_1
 10
-23.8898849823166
 20
124.825033066175
 30
0.0
  0
VERTEX
  5
550
  8
LAYER_1
 10
-23.95129193393729
 20
124.9330852145668
 30
0.0
  0
VERTEX
  5
551
  8
LAYER_1
 10
-24.00140851987952
 20
125.0743837904541
 30
0.0
  0
VERTEX
  5
552
  8
LAYER_1
 10
-24.04109860723641
 20
125.2402150157259
 30
0.0
  0
VERTEX
  5
553
  8
LAYER_1
 10
-24.07122596658089
 20
125.4218651255261
 30
0.0
  0
VERTEX
  5
554
  8
LAYER_1
 10
-24.08994533483234
 20
125.5800946989575
 30
0.0
  0
VERTEX
  5
555
  8
LAYER_1
 10
-24.09932007540653
 20
125.7236673227764
 30
0.0
  0
VERTEX
  5
556
  8
LAYER_1
 10
-24.09935018830346
 20
125.8525829969827
 30
0.0
  0
VERTEX
  5
557
  8
LAYER_1
 10
-24.09003567352315
 20
125.9668417215766
 30
0.0
  0
VERTEX
  5
558
  8
LAYER_1
 10
-24.06977055508948
 20
126.0619046105291
 30
0.0
  0
VERTEX
  5
559
  8
LAYER_1
 10
-24.03694881539397
 20
126.1332328326988
 30
0.0
  0
VERTEX
  5
55A
  8
LAYER_1
 10
-23.99157045443661
 20
126.1808263880857
 30
0.0
  0
VERTEX
  5
55B
  8
LAYER_1
 10
-23.93363547221741
 20
126.20468527669
 30
0.0
  0
VERTEX
  5
55C
  8
LAYER_1
 10
-23.87263095465939
 20
126.2012401938752
 30
0.0
  0
VERTEX
  5
55D
  8
LAYER_1
 10
-23.81597272342172
 20
126.1738544074259
 30
0.0
  0
VERTEX
  5
55E
  8
LAYER_1
 10
-23.76366077850437
 20
126.1225279173423
 30
0.0
  0
VERTEX
  5
55F
  8
LAYER_1
 10
-23.71569511990735
 20
126.0472607236242
 30
0.0
  0
VERTEX
  5
560
  8
LAYER_1
 10
-23.67247723637397
 20
125.9482243330289
 30
0.0
  0
VERTEX
  5
561
  8
LAYER_1
 10
-23.63440861664752
 20
125.8255902523132
 30
0.0
  0
VERTEX
  5
562
  8
LAYER_1
 10
-23.601489260728
 20
125.6793584814772
 30
0.0
  0
VERTEX
  5
563
  8
LAYER_1
 10
-23.5737191686154
 20
125.509529020521
 30
0.0
  0
VERTEX
  5
564
  8
LAYER_1
 10
-23.55562755380134
 20
125.3453209558757
 30
0.0
  0
VERTEX
  5
565
  8
LAYER_1
 10
-23.54837458412326
 20
125.1994933579229
 30
0.0
  0
VERTEX
  5
566
  8
LAYER_1
 10
-23.55196025958117
 20
125.0720462266627
 30
0.0
  0
VERTEX
  5
567
  8
LAYER_1
 10
-23.56638458017507
 20
124.9629795620949
 30
0.0
  0
VERTEX
  5
568
  8
LAYER_1
 10
-23.59147733210558
 20
124.8743562074879
 30
0.0
  0
VERTEX
  5
569
  8
LAYER_1
 10
-23.6270683015733
 20
124.8082390061101
 30
0.0
  0
VERTEX
  5
56A
  8
LAYER_1
 10
-23.67315748857825
 20
124.7646279579612
 30
0.0
  0
SEQEND
  5
668
  8
LAYER_1
  0
POLYLINE
  5
9A
  8
LAYER_1
 66
     1
 10
0.0
 20
0.0
 30
0.0
 70
     1
  0
VERTEX
  5
56B
  8
LAYER_1
 10
-24.62678125205606
 20
126.4710113928444
 30
0.0
  0
VERTEX
  5
56C
  8
LAYER_1
 10
-25.04417172921348
 20
126.4898015902316
 30
0.0
  0
VERTEX
  5
56D
  8
LAYER_1
 10
-25.08279303491647
 20
125.6318986697027
 30
0.0
  0
VERTEX
  5
56E
  8
LAYER_1
 10
-25.14345497711012
 20
125.6346295654229
 30
0.0
  0
VERTEX
  5
56F
  8
LAYER_1
 10
-25.19237699489042
 20
125.6399777107835
 30
0.0
  0
VERTEX
  5
570
  8
LAYER_1
 10
-25.23501810922644
 20
125.6549297773234
 30
0.0
  0
VERTEX
  5
571
  8
LAYER_1
 10
-25.27137832011818
 20
125.6794857650423
 30
0.0
  0
VERTEX
  5
572
  8
LAYER_1
 10
-25.30145762756563
 20
125.7136456739404
 30
0.0
  0
VERTEX
  5
573
  8
LAYER_1
 10
-25.32618251305183
 20
125.7601475820017
 30
0.0
  0
VERTEX
  5
574
  8
LAYER_1
 10
-25.34647945805982
 20
125.8217295672104
 30
0.0
  0
VERTEX
  5
575
  8
LAYER_1
 10
-25.37378952664112
 20
125.9901337690699
 30
0.0
  0
VERTEX
  5
576
  8
LAYER_1
 10
-25.41431406250242
 20
126.3151225642408
 30
0.0
  0
VERTEX
  5
577
  8
LAYER_1
 10
-25.45593277938112
 20
126.5083383605521
 30
0.0
  0
VERTEX
  5
578
  8
LAYER_1
 10
-25.89250691105779
 20
126.5279921728868
 30
0.0
  0
VERTEX
  5
579
  8
LAYER_1
 10
-25.86487431883315
 20
126.4353713054206
 30
0.0
  0
VERTEX
  5
57A
  8
LAYER_1
 10
-25.83559804836544
 20
126.292943487578
 30
0.0
  0
VERTEX
  5
57B
  8
LAYER_1
 10
-25.78171075975455
 20
125.9381924217229
 30
0.0
  0
VERTEX
  5
57C
  8
LAYER_1
 10
-25.75100423415398
 20
125.7814384419638
 30
0.0
  0
VERTEX
  5
57D
  8
LAYER_1
 10
-25.70295742114457
 20
125.6574867982814
 30
0.0
  0
VERTEX
  5
57E
  8
LAYER_1
 10
-25.6714742588246
 20
125.6074654367349
 30
0.0
  0
VERTEX
  5
57F
  8
LAYER_1
 10
-25.63374167772394
 20
125.5649518742127
 30
0.0
  0
VERTEX
  5
580
  8
LAYER_1
 10
-25.58975967784262
 20
125.5299461107147
 30
0.0
  0
VERTEX
  5
581
  8
LAYER_1
 10
-25.53952825918062
 20
125.5024481462409
 30
0.0
  0
VERTEX
  5
582
  8
LAYER_1
 10
-25.53981505151558
 20
125.4960775697607
 30
0.0
  0
VERTEX
  5
583
  8
LAYER_1
 10
-25.61915041429735
 20
125.4560739554481
 30
0.0
  0
VERTEX
  5
584
  8
LAYER_1
 10
-25.68861227980276
 20
125.407673990051
 30
0.0
  0
VERTEX
  5
585
  8
LAYER_1
 10
-25.74820064803181
 20
125.3508776735694
 30
0.0
  0
VERTEX
  5
586
  8
LAYER_1
 10
-25.7979155189845
 20
125.2856850060033
 30
0.0
  0
VERTEX
  5
587
  8
LAYER_1
 10
-25.83759476788344
 20
125.2140361223727
 30
0.0
  0
VERTEX
  5
588
  8
LAYER_1
 10
-25.86707622128743
 20
125.1378711555071
 30
0.0
  0
VERTEX
  5
589
  8
LAYER_1
 10
-25.88635987919647
 20
125.0571901054064
 30
0.0
  0
VERTEX
  5
58A
  8
LAYER_1
 10
-25.89544574161057
 20
124.9719929720706
 30
0.0
  0
VERTEX
  5
58B
  8
LAYER_1
 10
-25.89334000509
 20
124.8403622757231
 30
0.0
  0
VERTEX
  5
58C
  8
LAYER_1
 10
-25.87118370526631
 20
124.7219553597327
 30
0.0
  0
VERTEX
  5
58D
  8
LAYER_1
 10
-25.85133386418451
 20
124.6672806475569
 30
0.0
  0
VERTEX
  5
58E
  8
LAYER_1
 10
-25.82396592241436
 20
124.615051536841
 30
0.0
  0
VERTEX
  5
58F
  8
LAYER_1
 10
-25.74667573680903
 20
124.5179301197893
 30
0.0
  0
VERTEX
  5
590
  8
LAYER_1
 10
-25.6928962656491
 20
124.4723700765141
 30
0.0
  0
VERTEX
  5
591
  8
LAYER_1
 10
-25.63368267070958
 20
124.4340462350831
 30
0.0
  0
VERTEX
  5
592
  8
LAYER_1
 10
-25.56903495199045
 20
124.4029585954964
 30
0.0
  0
VERTEX
  5
593
  8
LAYER_1
 10
-25.49895310949172
 20
124.3791071577539
 30
0.0
  0
VERTEX
  5
594
  8
LAYER_1
 10
-25.34633241032125
 20
124.3473010957123
 30
0.0
  0
VERTEX
  5
595
  8
LAYER_1
 10
-25.17966593036395
 20
124.332816256869
 30
0.0
  0
VERTEX
  5
596
  8
LAYER_1
 10
-24.94052843704879
 20
124.3332211938946
 30
0.0
  0
VERTEX
  5
597
  8
LAYER_1
 10
-24.72209853905773
 20
124.3537091057469
 30
0.0
  0
SEQEND
  5
669
  8
LAYER_1
  0
POLYLINE
  5
9B
  8
LAYER_1
 66
     1
 10
0.0
 20
0.0
 30
0.0
 70
     1
  0
VERTEX
  5
598
  8
LAYER_1
 10
-25.12615193486039
 20
124.6687586045045
 30
0.0
  0
VERTEX
  5
599
  8
LAYER_1
 10
-25.17129914069701
 20
124.6607986113662
 30
0.0
  0
VERTEX
  5
59A
  8
LAYER_1
 10
-25.2257013101215
 20
124.6604499595455
 30
0.0
  0
VERTEX
  5
59B
  8
LAYER_1
 10
-25.29040753952638
 20
124.6718940097077
 30
0.0
  0
VERTEX
  5
59C
  8
LAYER_1
 10
-25.34486338285479
 20
124.6928442883635
 30
0.0
  0
VERTEX
  5
59D
  8
LAYER_1
 10
-25.38906884010675
 20
124.7233007955129
 30
0.0
  0
VERTEX
  5
59E
  8
LAYER_1
 10
-25.42302391128224
 20
124.7632635311559
 30
0.0
  0
VERTEX
  5
59F
  8
LAYER_1
 10
-25.44777872489482
 20
124.8110560311829
 30
0.0
  0
VERTEX
  5
5A0
  8
LAYER_1
 10
-25.46438336079424
 20
124.8650018292936
 30
0.0
  0
VERTEX
  5
5A1
  8
LAYER_1
 10
-25.47283781898049
 20
124.9251009254879
 30
0.0
  0
VERTEX
  5
5A2
  8
LAYER_1
 10
-25.47314209945357
 20
124.9913533197658
 30
0.0
  0
VERTEX
  5
5A3
  8
LAYER_1
 10
-25.46498145797661
 20
125.0601974414026
 30
0.0
  0
VERTEX
  5
5A4
  8
LAYER_1
 10
-25.44790283281721
 20
125.1222697876
 30
0.0
  0
VERTEX
  5
5A5
  8
LAYER_1
 10
-25.42190622397537
 20
125.1775703583583
 30
0.0
  0
VERTEX
  5
5A6
  8
LAYER_1
 10
-25.38699163145109
 20
125.2260991536772
 30
0.0
  0
VERTEX
  5
5A7
  8
LAYER_1
 10
-25.34394379160209
 20
125.2654183019624
 30
0.0
  0
VERTEX
  5
5A8
  8
LAYER_1
 10
-25.29354738993156
 20
125.2930899780927
 30
0.0
  0
VERTEX
  5
5A9
  8
LAYER_1
 10
-25.23580242643948
 20
125.309114182068
 30
0.0
  0
VERTEX
  5
5AA
  8
LAYER_1
 10
-25.17070890112586
 20
125.3134909138882
 30
0.0
  0
VERTEX
  5
5AB
  8
LAYER_1
 10
-25.09727602373355
 20
125.3101850927533
 30
0.0
  0
SEQEND
  5
66A
  8
LAYER_1
  0
POLYLINE
  5
9C
  8
LAYER_1
 66
     1
 10
0.0
 20
0.0
 30
0.0
 70
     1
  0
VERTEX
  5
5AC
  8
LAYER_1
 10
-27.10712297866025
 20
126.9386585069459
 30
0.0
  0
VERTEX
  5
5AD
  8
LAYER_1
 10
-27.46065737180524
 20
127.0589067960335
 30
0.0
  0
VERTEX
  5
5AE
  8
LAYER_1
 10
-28.02953340855256
 20
124.9800427361073
 30
0.0
  0
VERTEX
  5
5AF
  8
LAYER_1
 10
-27.61252954619874
 20
124.838206462287
 30
0.0
  0
VERTEX
  5
5B0
  8
LAYER_1
 10
-27.20158685709873
 20
125.5210620893494
 30
0.0
  0
VERTEX
  5
5B1
  8
LAYER_1
 10
-27.00241515827961
 20
125.8637923725631
 30
0.0
  0
VERTEX
  5
5B2
  8
LAYER_1
 10
-26.82908288284546
 20
126.1900255364992
 30
0.0
  0
VERTEX
  5
5B3
  8
LAYER_1
 10
-26.82303934860844
 20
126.1879699383279
 30
0.0
  0
VERTEX
  5
5B4
  8
LAYER_1
 10
-26.87626413904596
 20
125.8196200772987
 30
0.0
  0
VERTEX
  5
5B5
  8
LAYER_1
 10
-26.92056251507768
 20
125.4254767743836
 30
0.0
  0
VERTEX
  5
5B6
  8
LAYER_1
 10
-27.00817612249755
 20
124.6326466451563
 30
0.0
  0
VERTEX
  5
5B7
  8
LAYER_1
 10
-26.59117226014372
 20
124.4908103713361
 30
0.0
  0
VERTEX
  5
5B8
  8
LAYER_1
 10
-25.75034954245108
 20
126.4771767174874
 30
0.0
  0
VERTEX
  5
5B9
  8
LAYER_1
 10
-26.09180922684225
 20
126.5933180141663
 30
0.0
  0
VERTEX
  5
5BA
  8
LAYER_1
 10
-26.36556099238674
 20
125.897508714986
 30
0.0
  0
VERTEX
  5
5BB
  8
LAYER_1
 10
-26.49631377869544
 20
125.5700842462612
 30
0.0
  0
VERTEX
  5
5BC
  8
LAYER_1
 10
-26.6271269326272
 20
125.2276142848774
 30
0.0
  0
VERTEX
  5
5BD
  8
LAYER_1
 10
-26.63619223398272
 20
125.2306976821344
 30
0.0
  0
VERTEX
  5
5BE
  8
LAYER_1
 10
-26.57895833188755
 20
125.5910105164985
 30
0.0
  0
VERTEX
  5
5BF
  8
LAYER_1
 10
-26.54317272569172
 20
125.9105665864018
 30
0.0
  0
VERTEX
  5
5C0
  8
LAYER_1
 10
-26.468751253817
 20
126.6844351629995
 30
0.0
  0
VERTEX
  5
5C1
  8
LAYER_1
 10
-26.74977559583806
 20
126.7800204779653
 30
0.0
  0
VERTEX
  5
5C2
  8
LAYER_1
 10
-27.17279059399901
 20
126.11123134603
 30
0.0
  0
VERTEX
  5
5C3
  8
LAYER_1
 10
-27.33758150976495
 20
125.8435628128129
 30
0.0
  0
VERTEX
  5
5C4
  8
LAYER_1
 10
-27.51552646546795
 20
125.5297872160596
 30
0.0
  0
VERTEX
  5
5C5
  8
LAYER_1
 10
-27.52459176682347
 20
125.5328706133166
 30
0.0
  0
VERTEX
  5
5C6
  8
LAYER_1
 10
-27.41028310282323
 20
125.8800931461648
 30
0.0
  0
VERTEX
  5
5C7
  8
LAYER_1
 10
-27.31347418505509
 20
126.2130355028925
 30
0.0
  0
SEQEND
  5
66B
  8
LAYER_1
  0
POLYLINE
  5
9D
  8
LAYER_1
 66
     1
 10
0.0
 20
0.0
 30
0.0
 70
     1
  0
VERTEX
  5
5C8
  8
LAYER_1
 10
-30.76903333313155
 20
125.4290930130549
 30
0.0
  0
VERTEX
  5
5C9
  8
LAYER_1
 10
-30.30359979514978
 20
125.5874017595631
 30
0.0
  0
VERTEX
  5
5CA
  8
LAYER_1
 10
-30.14413457240902
 20
125.1185681389175
 30
0.0
  0
VERTEX
  5
5CB
  8
LAYER_1
 10
-30.63374647600024
 20
124.9520355614219
 30
0.0
  0
VERTEX
  5
5CC
  8
LAYER_1
 10
-30.51668538178845
 20
124.60787163845
 30
0.0
  0
VERTEX
  5
5CD
  8
LAYER_1
 10
-29.63153052830525
 20
124.9089409510057
 30
0.0
  0
VERTEX
  5
5CE
  8
LAYER_1
 10
-30.32425979163759
 20
126.9455904666386
 30
0.0
  0
VERTEX
  5
5CF
  8
LAYER_1
 10
-31.24568219353495
 20
126.6321854076017
 30
0.0
  0
VERTEX
  5
5D0
  8
LAYER_1
 10
-31.12862109932317
 20
126.2880214846298
 30
0.0
  0
VERTEX
  5
5D1
  8
LAYER_1
 10
-30.60274164731778
 20
126.4668898086066
 30
0.0
  0
VERTEX
  5
5D2
  8
LAYER_1
 10
-30.41552099499442
 20
125.9164542040291
 30
0.0
  0
VERTEX
  5
5D3
  8
LAYER_1
 10
-30.8809545329762
 20
125.758145457521
 30
0.0
  0
SEQEND
  5
66C
  8
LAYER_1
  0
POLYLINE
  5
9E
  8
LAYER_1
 66
     1
 10
0.0
 20
0.0
 30
0.0
 70
     1
  0
VERTEX
  5
5D4
  8
LAYER_1
 10
-32.57191904097763
 20
126.4277544675216
 30
0.0
  0
VERTEX
  5
5D5
  8
LAYER_1
 10
-32.94185727898113
 20
126.3769497883236
 30
0.0
  0
VERTEX
  5
5D6
  8
LAYER_1
 10
-32.51954102339531
 20
124.2635201497149
 30
0.0
  0
VERTEX
  5
5D7
  8
LAYER_1
 10
-32.08318835991751
 20
124.323445712438
 30
0.0
  0
VERTEX
  5
5D8
  8
LAYER_1
 10
-32.02156154231363
 20
125.1180013307885
 30
0.0
  0
VERTEX
  5
5D9
  8
LAYER_1
 10
-31.99696381078182
 20
125.51362260326
 30
0.0
  0
VERTEX
  5
5DA
  8
LAYER_1
 10
-31.98808110722763
 20
125.8829228606871
 30
0.0
  0
VERTEX
  5
5DB
  8
LAYER_1
 10
-31.98175715558303
 20
125.8837913471033
 30
0.0
  0
VERTEX
  5
5DC
  8
LAYER_1
 10
-31.86439325992921
 20
125.5306207313741
 30
0.0
  0
VERTEX
  5
5DD
  8
LAYER_1
 10
-31.72749779083946
 20
125.1583859491454
 30
0.0
  0
VERTEX
  5
5DE
  8
LAYER_1
 10
-31.45079319545692
 20
124.4102943540657
 30
0.0
  0
VERTEX
  5
5DF
  8
LAYER_1
 10
-31.01444053197911
 20
124.4702199167889
 30
0.0
  0
VERTEX
  5
5E0
  8
LAYER_1
 10
-31.15219189676361
 20
126.6227296679759
 30
0.0
  0
VERTEX
  5
5E1
  8
LAYER_1
 10
-31.50949516468384
 20
126.5736601854562
 30
0.0
  0
VERTEX
  5
5E2
  8
LAYER_1
 10
-31.44266088638219
 20
125.8289585828956
 30
0.0
  0
VERTEX
  5
5E3
  8
LAYER_1
 10
-31.41294044471338
 20
125.4776607896724
 30
0.0
  0
VERTEX
  5
5E4
  8
LAYER_1
 10
-31.37653642985137
 20
125.1128840199966
 30
0.0
  0
VERTEX
  5
5E5
  8
LAYER_1
 10
-31.38602235731828
 20
125.1115812903721
 30
0.0
  0
VERTEX
  5
5E6
  8
LAYER_1
 10
-31.4962026938164
 20
125.4593614513379
 30
0.0
  0
VERTEX
  5
5E7
  8
LAYER_1
 10
-31.60730826703897
 20
125.7610968204175
 30
0.0
  0
VERTEX
  5
5E8
  8
LAYER_1
 10
-31.88731654326701
 20
126.4863275914585
 30
0.0
  0
VERTEX
  5
5E9
  8
LAYER_1
 10
-32.18138029474119
 20
126.4459429731016
 30
0.0
  0
VERTEX
  5
5EA
  8
LAYER_1
 10
-32.26009991828641
 20
125.6585578705826
 30
0.0
  0
VERTEX
  5
5EB
  8
LAYER_1
 10
-32.28757184794321
 20
125.3454442673714
 30
0.0
  0
VERTEX
  5
5EC
  8
LAYER_1
 10
-32.30615732160843
 20
124.9852165168038
 30
0.0
  0
VERTEX
  5
5ED
  8
LAYER_1
 10
-32.31564324907534
 20
124.9839137871794
 30
0.0
  0
VERTEX
  5
5EE
  8
LAYER_1
 10
-32.36893193093115
 20
125.3455488548253
 30
0.0
  0
VERTEX
  5
5EF
  8
LAYER_1
 10
-32.43147203692324
 20
125.68657964676
 30
0.0
  0
SEQEND
  5
66D
  8
LAYER_1
  0
POLYLINE
  5
9F
  8
LAYER_1
 66
     1
 10
0.0
 20
0.0
 30
0.0
 70
     1
  0
VERTEX
  5
5F0
  8
LAYER_1
 10
-34.01898693035464
 20
125.2779402915696
 30
0.0
  0
VERTEX
  5
5F1
  8
LAYER_1
 10
-33.5319386089736
 20
125.2110525487528
 30
0.0
  0
VERTEX
  5
5F2
  8
LAYER_1
 10
-33.59931497978174
 20
124.7204462445046
 30
0.0
  0
VERTEX
  5
5F3
  8
LAYER_1
 10
-34.1116645126631
 20
124.7908086752599
 30
0.0
  0
VERTEX
  5
5F4
  8
LAYER_1
 10
-34.16112452378817
 20
124.4306617428101
 30
0.0
  0
VERTEX
  5
5F5
  8
LAYER_1
 10
-33.23486298401886
 20
124.3034555890603
 30
0.0
  0
VERTEX
  5
5F6
  8
LAYER_1
 10
-32.9421748171964
 20
126.4346873265321
 30
0.0
  0
VERTEX
  5
5F7
  8
LAYER_1
 10
-33.90638817421618
 20
126.5671055121896
 30
0.0
  0
VERTEX
  5
5F8
  8
LAYER_1
 10
-33.95584818534125
 20
126.2069585797399
 30
0.0
  0
VERTEX
  5
5F9
  8
LAYER_1
 10
-33.40554683520942
 20
126.1313841170767
 30
0.0
  0
VERTEX
  5
5FA
  8
LAYER_1
 10
-33.48465027781011
 20
125.5553862240149
 30
0.0
  0
VERTEX
  5
5FB
  8
LAYER_1
 10
-33.97169859919116
 20
125.6222739668317
 30
0.0
  0
SEQEND
  5
66E
  8
LAYER_1
  0
POLYLINE
  5
A0
  8
LAYER_1
 66
     1
 10
0.0
 20
0.0
 30
0.0
 70
     1
  0
VERTEX
  5
5FC
  8
LAYER_1
 10
-33.93987793227442
 20
126.5376113973628
 30
0.0
  0
VERTEX
  5
5FD
  8
LAYER_1
 10
-34.3354208821664
 20
126.6721481324229
 30
0.0
  0
VERTEX
  5
5FE
  8
LAYER_1
 10
-34.61194721480468
 20
125.8591505426888
 30
0.0
  0
VERTEX
  5
5FF
  8
LAYER_1
 10
-34.66943392059841
 20
125.8787035993391
 30
0.0
  0
VERTEX
  5
600
  8
LAYER_1
 10
-34.7149172223675
 20
125.8974931739659
 30
0.0
  0
VERTEX
  5
601
  8
LAYER_1
 10
-34.75168900430976
 20
125.9237516354475
 30
0.0
  0
VERTEX
  5
602
  8
LAYER_1
 10
-34.77974926642518
 20
125.9574789837841
 30
0.0
  0
VERTEX
  5
603
  8
LAYER_1
 10
-34.79909800871378
 20
125.9986752189755
 30
0.0
  0
VERTEX
  5
604
  8
LAYER_1
 10
-34.80986065906629
 20
126.0502280840055
 30
0.0
  0
VERTEX
  5
605
  8
LAYER_1
 10
-34.81216264537342
 20
126.1150253218577
 30
0.0
  0
VERTEX
  5
606
  8
LAYER_1
 10
-34.79138462585161
 20
126.2843529160289
 30
0.0
  0
VERTEX
  5
607
  8
LAYER_1
 10
-34.73959254875067
 20
126.6077245696885
 30
0.0
  0
VERTEX
  5
608
  8
LAYER_1
 10
-34.7256290669413
 20
126.8048703442274
 30
0.0
  0
VERTEX
  5
609
  8
LAYER_1
 10
-35.13935153868037
 20
126.9455905127552
 30
0.0
  0
VERTEX
  5
60A
  8
LAYER_1
 10
-35.13866868070066
 20
126.8489416885731
 30
0.0
  0
VERTEX
  5
60B
  8
LAYER_1
 10
-35.15030868336795
 20
126.7040084083045
 30
0.0
  0
VERTEX
  5
60C
  8
LAYER_1
 10
-35.19757622930483
 20
126.3483288286796
 30
0.0
  0
VERTEX
  5
60D
  8
LAYER_1
 10
-35.21184131239026
 20
126.1892400745717
 30
0.0
  0
VERTEX
  5
60E
  8
LAYER_1
 10
-35.20030072310179
 20
126.0568091418772
 30
0.0
  0
VERTEX
  5
60F
  8
LAYER_1
 10
-35.18403091208091
 20
125.999990582018
 30
0.0
  0
VERTEX
  5
610
  8
LAYER_1
 10
-35.15966484269137
 20
125.9486369548588
 30
0.0
  0
VERTEX
  5
611
  8
LAYER_1
 10
-35.12720251493319
 20
125.9027482603996
 30
0.0
  0
VERTEX
  5
612
  8
LAYER_1
 10
-35.08664392880634
 20
125.8623244986405
 30
0.0
  0
VERTEX
  5
613
  8
LAYER_1
 10
-35.08869734546773
 20
125.8562873781229
 30
0.0
  0
VERTEX
  5
614
  8
LAYER_1
 10
-35.1760419036935
 20
125.8400176048782
 30
0.0
  0
VERTEX
  5
615
  8
LAYER_1
 10
-35.25624914526594
 20
125.8129297746297
 30
0.0
  0
VERTEX
  5
616
  8
LAYER_1
 10
-35.32931907018502
 20
125.7750238873773
 30
0.0
  0
VERTEX
  5
617
  8
LAYER_1
 10
-35.39525167845077
 20
125.7262999431211
 30
0.0
  0
VERTEX
  5
618
  8
LAYER_1
 10
-35.45334980128175
 20
125.6685756520662
 30
0.0
  0
VERTEX
  5
619
  8
LAYER_1
 10
-35.50291622377998
 20
125.6036687087318
 30
0.0
  0
VERTEX
  5
61A
  8
LAYER_1
 10
-35.54395094594547
 20
125.5315791131179
 30
0.0
  0
VERTEX
  5
61B
  8
LAYER_1
 10
-35.5764539677782
 20
125.4523068652247
 30
0.0
  0
VERTEX
  5
61C
  8
LAYER_1
 10
-35.61117021673686
 20
125.3253245287387
 30
0.0
  0
VERTEX
  5
61D
  8
LAYER_1
 10
-35.62294271719609
 20
125.2054438236831
 30
0.0
  0
VERTEX
  5
61E
  8
LAYER_1
 10
-35.61914222479641
 20
125.1474038848906
 30
0.0
  0
VERTEX
  5
61F
  8
LAYER_1
 10
-35.60744012138782
 20
125.0896139578533
 30
0.0
  0
VERTEX
  5
620
  8
LAYER_1
 10
-35.56033108154401
 20
124.9747841390446
 30
0.0
  0
VERTEX
  5
621
  8
LAYER_1
 10
-35.52140671838642
 20
124.9160265169793
 30
0.0
  0
VERTEX
  5
622
  8
LAYER_1
 10
-35.47524476361325
 20
124.8627005835877
 30
0.0
  0
VERTEX
  5
623
  8
LAYER_1
 10
-35.4218452172245
 20
124.81480633887
 30
0.0
  0
VERTEX
  5
624
  8
LAYER_1
 10
-35.3612080792202
 20
124.772343782826
 30
0.0
  0
VERTEX
  5
625
  8
LAYER_1
 10
-35.22353549833747
 20
124.6992063710392
 30
0.0
  0
VERTEX
  5
626
  8
LAYER_1
 10
-35.06754149093766
 20
124.6387809825069
 30
0.0
  0
VERTEX
  5
627
  8
LAYER_1
 10
-34.83780351162039
 20
124.5724263646312
 30
0.0
  0
VERTEX
  5
628
  8
LAYER_1
 10
-34.62234423764234
 20
124.5311353556593
 30
0.0
  0
SEQEND
  5
66F
  8
LAYER_1
  0
POLYLINE
  5
A1
  8
LAYER_1
 66
     1
 10
0.0
 20
0.0
 30
0.0
 70
     1
  0
VERTEX
  5
629
  8
LAYER_1
 10
-34.92239445035208
 20
124.9464242506514
 30
0.0
  0
VERTEX
  5
62A
  8
LAYER_1
 10
-34.96796740762449
 20
124.9513815119064
 30
0.0
  0
VERTEX
  5
62B
  8
LAYER_1
 10
-35.02030284900075
 20
124.9662304137149
 30
0.0
  0
VERTEX
  5
62C
  8
LAYER_1
 10
-35.07924111860437
 20
124.9952787920226
 30
0.0
  0
VERTEX
  5
62D
  8
LAYER_1
 10
-35.1256835519368
 20
125.0305943650991
 30
0.0
  0
VERTEX
  5
62E
  8
LAYER_1
 10
-35.15963014899805
 20
125.0721771329442
 30
0.0
  0
VERTEX
  5
62F
  8
LAYER_1
 10
-35.1810809097881
 20
125.120027095558
 30
0.0
  0
VERTEX
  5
630
  8
LAYER_1
 10
-35.19151209262102
 20
125.1728275676951
 30
0.0
  0
VERTEX
  5
631
  8
LAYER_1
 10
-35.19239990969427
 20
125.2292618484245
 30
0.0
  0
VERTEX
  5
632
  8
LAYER_1
 10
-35.18374436100785
 20
125.2893299377461
 30
0.0
  0
VERTEX
  5
633
  8
LAYER_1
 10
-35.16554544656175
 20
125.3530318356601
 30
0.0
  0
VERTEX
  5
634
  8
LAYER_1
 10
-35.1384949791364
 20
125.4168598000603
 30
0.0
  0
VERTEX
  5
635
  8
LAYER_1
 10
-35.10477127951239
 20
125.471696344444
 30
0.0
  0
VERTEX
  5
636
  8
LAYER_1
 10
-35.06437434768974
 20
125.5175414688112
 30
0.0
  0
VERTEX
  5
637
  8
LAYER_1
 10
-35.01730418366842
 20
125.554395173162
 30
0.0
  0
VERTEX
  5
638
  8
LAYER_1
 10
-34.96499471988911
 20
125.5801355812761
 30
0.0
  0
VERTEX
  5
639
  8
LAYER_1
 10
-34.90887982699013
 20
125.592640847364
 30
0.0
  0
VERTEX
  5
63A
  8
LAYER_1
 10
-34.84895950497152
 20
125.5919109714258
 30
0.0
  0
VERTEX
  5
63B
  8
LAYER_1
 10
-34.78523375383325
 20
125.5779459534615
 30
0.0
  0
VERTEX
  5
63C
  8
LAYER_1
 10
-34.71564458366189
 20
125.5542764638322
 30
0.0
  0
SEQEND
  5
670
  8
LAYER_1
  0
ENDSEC
  0
EOF
