  0
SECTION
  2
HEADER
  9
$ACADVER
  1
AC1009
  9
$DWGCODEPAGE
  3
ansi_1252
  9
$INSBASE
 10
0.0
 20
0.0
 30
0.0
  9
$EXTMIN
 10
-76.52703147633679
 20
132.145357979557
 30
0.0
  9
$EXTMAX
 10
-43.1104197180554
 20
135.0717261543616
 30
0.0
  9
$LIMMIN
 10
0.0
 20
0.0
  9
$LIMMAX
 10
12.0
 20
9.0
  9
$ORTHOMODE
 70
     0
  9
$REGENMODE
 70
     1
  9
$FILLMODE
 70
     1
  9
$QTEXTMODE
 70
     0
  9
$MIRRTEXT
 70
     1
  9
$DRAGMODE
 70
     2
  9
$LTSCALE
 40
1.0
  9
$OSMODE
 70
    37
  9
$ATTMODE
 70
     1
  9
$TEXTSIZE
 40
0.2
  9
$TRACEWID
 40
0.05
  9
$TEXTSTYLE
  7
STANDARD
  9
$CLAYER
  8
0
  9
$CELTYPE
  6
BYLAYER
  9
$CECOLOR
 62
   256
  9
$DIMSCALE
 40
1.0
  9
$DIMASZ
 40
0.18
  9
$DIMEXO
 40
0.0625
  9
$DIMDLI
 40
0.38
  9
$DIMRND
 40
0.0
  9
$DIMDLE
 40
0.0
  9
$DIMEXE
 40
0.18
  9
$DIMTP
 40
0.0
  9
$DIMTM
 40
0.0
  9
$DIMTXT
 40
0.18
  9
$DIMCEN
 40
0.09
  9
$DIMTSZ
 40
0.0
  9
$DIMTOL
 70
     0
  9
$DIMLIM
 70
     0
  9
$DIMTIH
 70
     1
  9
$DIMTOH
 70
     1
  9
$DIMSE1
 70
     0
  9
$DIMSE2
 70
     0
  9
$DIMTAD
 70
     0
  9
$DIMZIN
 70
     0
  9
$DIMBLK
  1

  9
$DIMASO
 70
     1
  9
$DIMSHO
 70
     1
  9
$DIMPOST
  1

  9
$DIMAPOST
  1

  9
$DIMALT
 70
     0
  9
$DIMALTD
 70
     2
  9
$DIMALTF
 40
25.4
  9
$DIMLFAC
 40
1.0
  9
$DIMTOFL
 70
     0
  9
$DIMTVP
 40
0.0
  9
$DIMTIX
 70
     0
  9
$DIMSOXD
 70
     0
  9
$DIMSAH
 70
     0
  9
$DIMBLK1
  1

  9
$DIMBLK2
  1

  9
$DIMSTYLE
  2
STANDARD
  9
$DIMCLRD
 70
     0
  9
$DIMCLRE
 70
     0
  9
$DIMCLRT
 70
     0
  9
$DIMTFAC
 40
1.0
  9
$DIMGAP
 40
0.09
  9
$LUNITS
 70
     2
  9
$LUPREC
 70
     4
  9
$SKETCHINC
 40
0.1
  9
$FILLETRAD
 40
0.5
  9
$AUNITS
 70
     0
  9
$AUPREC
 70
     0
  9
$MENU
  1
.
  9
$ELEVATION
 40
0.0
  9
$PELEVATION
 40
0.0
  9
$THICKNESS
 40
0.0
  9
$LIMCHECK
 70
     0
  9
$CHAMFERA
 40
0.0
  9
$CHAMFERB
 40
0.0
  9
$SKPOLY
 70
     0
  9
$TDCREATE
 40
2454910.5
  9
$TDUPDATE
 40
2458014.86042382
  9
$TDINDWG
 40
0.0000000116
  9
$TDUSRTIMER
 40
0.0000000116
  9
$USRTIMER
 70
     1
  9
$ANGBASE
 50
0.0
  9
$ANGDIR
 70
     0
  9
$PDMODE
 70
     0
  9
$PDSIZE
 40
0.0
  9
$PLINEWID
 40
0.0
  9
$COORDS
 70
     1
  9
$SPLFRAME
 70
     0
  9
$SPLINETYPE
 70
     6
  9
$SPLINESEGS
 70
     8
  9
$ATTDIA
 70
     0
  9
$ATTREQ
 70
     1
  9
$HANDLING
 70
     1
  9
$HANDSEED
  5
369
  9
$SURFTAB1
 70
     6
  9
$SURFTAB2
 70
     6
  9
$SURFTYPE
 70
     6
  9
$SURFU
 70
     6
  9
$SURFV
 70
     6
  9
$UCSNAME
  2

  9
$UCSORG
 10
0.0
 20
0.0
 30
0.0
  9
$UCSXDIR
 10
1.0
 20
0.0
 30
0.0
  9
$UCSYDIR
 10
0.0
 20
1.0
 30
0.0
  9
$PUCSNAME
  2

  9
$PUCSORG
 10
0.0
 20
0.0
 30
0.0
  9
$PUCSXDIR
 10
1.0
 20
0.0
 30
0.0
  9
$PUCSYDIR
 10
0.0
 20
1.0
 30
0.0
  9
$USERI1
 70
     0
  9
$USERI2
 70
     0
  9
$USERI3
 70
     0
  9
$USERI4
 70
     0
  9
$USERI5
 70
     0
  9
$USERR1
 40
0.0
  9
$USERR2
 40
0.0
  9
$USERR3
 40
0.0
  9
$USERR4
 40
0.0
  9
$USERR5
 40
0.0
  9
$WORLDVIEW
 70
     1
  9
$SHADEDGE
 70
     3
  9
$SHADEDIF
 70
    70
  9
$TILEMODE
 70
     1
  9
$MAXACTVP
 70
    64
  9
$PLIMCHECK
 70
     0
  9
$PEXTMIN
 10
1.000000000000000E+20
 20
1.000000000000000E+20
 30
1.000000000000000E+20
  9
$PEXTMAX
 10
-1.000000000000000E+20
 20
-1.000000000000000E+20
 30
-1.000000000000000E+20
  9
$PLIMMIN
 10
0.0
 20
0.0
  9
$PLIMMAX
 10
12.0
 20
9.0
  9
$UNITMODE
 70
     0
  9
$VISRETAIN
 70
     1
  9
$PLINEGEN
 70
     0
  9
$PSLTSCALE
 70
     1
  0
ENDSEC
  0
SECTION
  2
TABLES
  0
TABLE
  2
VPORT
 70
     1
  0
VPORT
  2
*ACTIVE
 70
     0
 10
0.0
 20
0.0
 11
1.0
 21
1.0
 12
10.42990654205607
 22
4.5
 13
0.0
 23
0.0
 14
0.5
 24
0.5
 15
0.5
 25
0.5
 16
0.0
 26
0.0
 36
1.0
 17
0.0
 27
0.0
 37
0.0
 40
9.0
 41
1.972972972850329
 42
50.0
 43
0.0
 44
0.0
 50
0.0
 51
0.0
 71
     0
 72
   100
 73
     1
 74
     3
 75
     0
 76
     0
 77
     0
 78
     0
  0
ENDTAB
  0
TABLE
  2
LTYPE
 70
     2
  0
LTYPE
  2
CONTINUOUS
 70
     0
  3
Solid line
 72
    65
 73
     0
 40
0.0
  0
LTYPE
  2
CONTINUOUS2
 70
     0
  3
Solid Line
 72
    65
 73
     0
 40
0.0
  0
ENDTAB
  0
TABLE
  2
LAYER
 70
     2
  0
LAYER
  2
0
 70
     0
 62
     7
  6
CONTINUOUS
  0
LAYER
  2
LAYER_1
 70
     0
 62
    18
  6
CONTINUOUS
  0
ENDTAB
  0
TABLE
  2
STYLE
 70
     1
  0
STYLE
  2
STANDARD
 70
     0
 40
0.0
 41
1.0
 50
0.0
 71
     0
 42
0.2
  3
txt
  4

  0
ENDTAB
  0
TABLE
  2
VIEW
 70
     0
  0
ENDTAB
  0
TABLE
  2
UCS
 70
     0
  0
ENDTAB
  0
TABLE
  2
APPID
 70
     1
  0
APPID
  2
ACAD
 70
     0
  0
ENDTAB
  0
TABLE
  2
DIMSTYLE
 70
     1
  0
DIMSTYLE
  2
STANDARD
 70
     0
  3

  4

  5

  6

  7

 40
1.0
 41
0.18
 42
0.0625
 43
0.38
 44
0.18
 45
0.0
 46
0.0
 47
0.0
 48
0.0
140
0.18
141
0.09
142
0.0
143
25.4
144
1.0
145
0.0
146
1.0
147
0.09
 71
     0
 72
     0
 73
     1
 74
     1
 75
     0
 76
     0
 77
     0
 78
     0
170
     0
171
     2
172
     0
173
     0
174
     0
175
     0
176
     0
177
     0
178
     0
  0
ENDTAB
  0
ENDSEC
  0
SECTION
  2
BLOCKS
  0
BLOCK
  8
0
  2
$MODEL_SPACE
 70
     0
 10
0.0
 20
0.0
 30
0.0
  3
$MODEL_SPACE
  1

  0
ENDBLK
  5
21
  8
0
  0
BLOCK
 67
     1
  8
0
  2
$PAPER_SPACE
 70
     0
 10
0.0
 20
0.0
 30
0.0
  3
$PAPER_SPACE
  1

  0
ENDBLK
  5
1D
 67
     1
  8
0
  0
ENDSEC
  0
SECTION
  2
ENTITIES
  0
POLYLINE
  5
70
  8
LAYER_1
 66
     1
 10
0.0
 20
0.0
 30
0.0
 70
     1
  0
VERTEX
  5
90
  8
LAYER_1
 10
-49.77060236638409
 20
135.0717261543616
 30
0.0
  0
VERTEX
  5
91
  8
LAYER_1
 10
-50.65937439659711
 20
134.8628118267715
 30
0.0
  0
VERTEX
  5
92
  8
LAYER_1
 10
-50.58314773737356
 20
134.5385251995403
 30
0.0
  0
VERTEX
  5
93
  8
LAYER_1
 10
-50.07715823107375
 20
134.6574628504596
 30
0.0
  0
VERTEX
  5
94
  8
LAYER_1
 10
-49.6900952294414
 20
133.0108033142308
 30
0.0
  0
VERTEX
  5
95
  8
LAYER_1
 10
-49.30731270552819
 20
133.1007799909017
 30
0.0
  0
SEQEND
  5
350
  8
LAYER_1
  0
POLYLINE
  5
71
  8
LAYER_1
 66
     1
 10
0.0
 20
0.0
 30
0.0
 70
     1
  0
VERTEX
  5
96
  8
LAYER_1
 10
-51.06086665283871
 20
132.7548152204485
 30
0.0
  0
VERTEX
  5
97
  8
LAYER_1
 10
-50.95429056427668
 20
132.7700339201456
 30
0.0
  0
VERTEX
  5
98
  8
LAYER_1
 10
-50.85793227184487
 20
132.80191045962
 30
0.0
  0
VERTEX
  5
99
  8
LAYER_1
 10
-50.7717917755433
 20
132.8504448388716
 30
0.0
  0
VERTEX
  5
9A
  8
LAYER_1
 10
-50.69586907537195
 20
132.9156370579005
 30
0.0
  0
VERTEX
  5
9B
  8
LAYER_1
 10
-50.62997319537035
 20
132.9947028618801
 30
0.0
  0
VERTEX
  5
9C
  8
LAYER_1
 10
-50.57391311377924
 20
133.0848579980455
 30
0.0
  0
VERTEX
  5
9D
  8
LAYER_1
 10
-50.52768883059861
 20
133.1861024663969
 30
0.0
  0
VERTEX
  5
9E
  8
LAYER_1
 10
-50.49130034582845
 20
133.2984362669341
 30
0.0
  0
VERTEX
  5
9F
  8
LAYER_1
 10
-50.46455667974384
 20
133.4190751249224
 30
0.0
  0
VERTEX
  5
A0
  8
LAYER_1
 10
-50.44726680888282
 20
133.5452348134878
 30
0.0
  0
VERTEX
  5
A1
  8
LAYER_1
 10
-50.43943073324539
 20
133.6769153326303
 30
0.0
  0
VERTEX
  5
A2
  8
LAYER_1
 10
-50.44104845283156
 20
133.8141166823499
 30
0.0
  0
VERTEX
  5
A3
  8
LAYER_1
 10
-50.45088942181663
 20
133.9518427996686
 30
0.0
  0
VERTEX
  5
A4
  8
LAYER_1
 10
-50.46865655463373
 20
134.0834120821954
 30
0.0
  0
VERTEX
  5
A5
  8
LAYER_1
 10
-50.49434985128287
 20
134.2088245299304
 30
0.0
  0
VERTEX
  5
A6
  8
LAYER_1
 10
-50.52796931176405
 20
134.3280801428735
 30
0.0
  0
VERTEX
  5
A7
  8
LAYER_1
 10
-50.57007470528298
 20
134.4382563106256
 30
0.0
  0
VERTEX
  5
A8
  8
LAYER_1
 10
-50.62122580310716
 20
134.5364304685866
 30
0.0
  0
VERTEX
  5
A9
  8
LAYER_1
 10
-50.68142260523659
 20
134.6226026167564
 30
0.0
  0
VERTEX
  5
AA
  8
LAYER_1
 10
-50.75066511167129
 20
134.6967727551351
 30
0.0
  0
VERTEX
  5
AB
  8
LAYER_1
 10
-50.8295131143875
 20
134.7560182694301
 30
0.0
  0
VERTEX
  5
AC
  8
LAYER_1
 10
-50.91852636162445
 20
134.7974165932099
 30
0.0
  0
VERTEX
  5
AD
  8
LAYER_1
 10
-51.01770485338216
 20
134.8209677264744
 30
0.0
  0
VERTEX
  5
AE
  8
LAYER_1
 10
-51.1270485896606
 20
134.8266716692236
 30
0.0
  0
VERTEX
  5
AF
  8
LAYER_1
 10
-51.19838373334834
 20
134.8205430881319
 30
0.0
  0
VERTEX
  5
B0
  8
LAYER_1
 10
-51.26576313986608
 20
134.8064893131106
 30
0.0
  0
VERTEX
  5
B1
  8
LAYER_1
 10
-51.32918680921382
 20
134.7845103441597
 30
0.0
  0
VERTEX
  5
B2
  8
LAYER_1
 10
-51.38865474139155
 20
134.7546061812793
 30
0.0
  0
VERTEX
  5
B3
  8
LAYER_1
 10
-51.44416693639928
 20
134.7167768244692
 30
0.0
  0
VERTEX
  5
B4
  8
LAYER_1
 10
-51.495723394237
 20
134.6710222737295
 30
0.0
  0
VERTEX
  5
B5
  8
LAYER_1
 10
-51.54332411490473
 20
134.6173425290603
 30
0.0
  0
VERTEX
  5
B6
  8
LAYER_1
 10
-51.58696909840245
 20
134.5557375904614
 30
0.0
  0
VERTEX
  5
B7
  8
LAYER_1
 10
-51.62570886997902
 20
134.4853993595054
 30
0.0
  0
VERTEX
  5
B8
  8
LAYER_1
 10
-51.65859393301478
 20
134.4055197616951
 30
0.0
  0
VERTEX
  5
B9
  8
LAYER_1
 10
-51.68562428750973
 20
134.3160987970303
 30
0.0
  0
VERTEX
  5
BA
  8
LAYER_1
 10
-51.70679993346386
 20
134.2171364655113
 30
0.0
  0
VERTEX
  5
BB
  8
LAYER_1
 10
-51.7315870997497
 20
133.99058770191
 30
0.0
  0
VERTEX
  5
BC
  8
LAYER_1
 10
-51.73295543187229
 20
133.7258734708912
 30
0.0
  0
VERTEX
  5
BD
  8
LAYER_1
 10
-51.70991333211164
 20
133.4918746202421
 30
0.0
  0
VERTEX
  5
BE
  8
LAYER_1
 10
-51.65816159053506
 20
133.2637336642117
 30
0.0
  0
VERTEX
  5
BF
  8
LAYER_1
 10
-51.62022971074384
 20
133.1561732259091
 30
0.0
  0
VERTEX
  5
C0
  8
LAYER_1
 10
-51.57254063385471
 20
133.0587039197224
 30
0.0
  0
VERTEX
  5
C1
  8
LAYER_1
 10
-51.5150943598677
 20
132.9713257456517
 30
0.0
  0
VERTEX
  5
C2
  8
LAYER_1
 10
-51.44789088878277
 20
132.8940387036969
 30
0.0
  0
VERTEX
  5
C3
  8
LAYER_1
 10
-51.36964032181086
 20
132.8311561290713
 30
0.0
  0
VERTEX
  5
C4
  8
LAYER_1
 10
-51.27905276016288
 20
132.786991356988
 30
0.0
  0
VERTEX
  5
C5
  8
LAYER_1
 10
-51.17612820383883
 20
132.7615443874471
 30
0.0
  0
SEQEND
  5
351
  8
LAYER_1
  0
POLYLINE
  5
72
  8
LAYER_1
 66
     1
 10
0.0
 20
0.0
 30
0.0
 70
     1
  0
VERTEX
  5
C6
  8
LAYER_1
 10
-51.06123429773562
 20
133.0972838037738
 30
0.0
  0
VERTEX
  5
C7
  8
LAYER_1
 10
-51.10321164160759
 20
133.102434370345
 30
0.0
  0
VERTEX
  5
C8
  8
LAYER_1
 10
-51.14104962267022
 20
133.1191778988408
 30
0.0
  0
VERTEX
  5
C9
  8
LAYER_1
 10
-51.1747482409235
 20
133.1475143892612
 30
0.0
  0
VERTEX
  5
CA
  8
LAYER_1
 10
-51.20430749636743
 20
133.187443841606
 30
0.0
  0
VERTEX
  5
CB
  8
LAYER_1
 10
-51.25256668534933
 20
133.2939893856434
 30
0.0
  0
VERTEX
  5
CC
  8
LAYER_1
 10
-51.28738596026153
 20
133.4307223761244
 30
0.0
  0
VERTEX
  5
CD
  8
LAYER_1
 10
-51.31032418180094
 20
133.5895506197481
 30
0.0
  0
VERTEX
  5
CE
  8
LAYER_1
 10
-51.32294011906685
 20
133.7623819273368
 30
0.0
  0
VERTEX
  5
CF
  8
LAYER_1
 10
-51.32331926037852
 20
134.0476438380119
 30
0.0
  0
VERTEX
  5
D0
  8
LAYER_1
 10
-51.3122626944621
 20
134.1684650119105
 30
0.0
  0
VERTEX
  5
D1
  8
LAYER_1
 10
-51.29370870416418
 20
134.2747463315164
 30
0.0
  0
VERTEX
  5
D2
  8
LAYER_1
 10
-51.26654245873652
 20
134.3620959050623
 30
0.0
  0
VERTEX
  5
D3
  8
LAYER_1
 10
-51.22964908369389
 20
134.4261218886412
 30
0.0
  0
VERTEX
  5
D4
  8
LAYER_1
 10
-51.18302857903628
 20
134.4668242822532
 30
0.0
  0
VERTEX
  5
D5
  8
LAYER_1
 10
-51.12668094476369
 20
134.4842030858983
 30
0.0
  0
VERTEX
  5
D6
  8
LAYER_1
 10
-51.06980429649842
 20
134.4757289251974
 30
0.0
  0
VERTEX
  5
D7
  8
LAYER_1
 10
-51.01905948423888
 20
134.4451914716809
 30
0.0
  0
VERTEX
  5
D8
  8
LAYER_1
 10
-50.97444650798509
 20
134.3925907253489
 30
0.0
  0
VERTEX
  5
D9
  8
LAYER_1
 10
-50.93596536773705
 20
134.3179266862014
 30
0.0
  0
VERTEX
  5
DA
  8
LAYER_1
 10
-50.90397758808093
 20
134.2213946107204
 30
0.0
  0
VERTEX
  5
DB
  8
LAYER_1
 10
-50.87884469360292
 20
134.1031897553879
 30
0.0
  0
VERTEX
  5
DC
  8
LAYER_1
 10
-50.86056668430302
 20
133.963312120204
 30
0.0
  0
VERTEX
  5
DD
  8
LAYER_1
 10
-50.84914356018123
 20
133.8017617051686
 30
0.0
  0
VERTEX
  5
DE
  8
LAYER_1
 10
-50.84630766140891
 20
133.6463118129327
 30
0.0
  0
VERTEX
  5
DF
  8
LAYER_1
 10
-50.85204920060275
 20
133.5090198837442
 30
0.0
  0
VERTEX
  5
E0
  8
LAYER_1
 10
-50.86636817776274
 20
133.3898859176034
 30
0.0
  0
VERTEX
  5
E1
  8
LAYER_1
 10
-50.88926459288889
 20
133.28890991451
 30
0.0
  0
VERTEX
  5
E2
  8
LAYER_1
 10
-50.92040155002373
 20
133.2080105164118
 30
0.0
  0
VERTEX
  5
E3
  8
LAYER_1
 10
-50.95944215320979
 20
133.1491063652564
 30
0.0
  0
VERTEX
  5
E4
  8
LAYER_1
 10
-51.00638640244709
 20
133.1121974610437
 30
0.0
  0
SEQEND
  5
352
  8
LAYER_1
  0
POLYLINE
  5
73
  8
LAYER_1
 66
     1
 10
0.0
 20
0.0
 30
0.0
 70
     1
  0
VERTEX
  5
E5
  8
LAYER_1
 10
-52.30463137824331
 20
134.8246313901623
 30
0.0
  0
VERTEX
  5
E6
  8
LAYER_1
 10
-52.52843129984668
 20
134.1885491480595
 30
0.0
  0
VERTEX
  5
E7
  8
LAYER_1
 10
-52.6287942228582
 20
133.8827603563762
 30
0.0
  0
VERTEX
  5
E8
  8
LAYER_1
 10
-52.72929202981821
 20
133.5428720901438
 30
0.0
  0
VERTEX
  5
E9
  8
LAYER_1
 10
-52.73524399271471
 20
133.5436894902785
 30
0.0
  0
VERTEX
  5
EA
  8
LAYER_1
 10
-52.72941551801067
 20
133.9007489450191
 30
0.0
  0
VERTEX
  5
EB
  8
LAYER_1
 10
-52.73418280093073
 20
134.213772880811
 30
0.0
  0
VERTEX
  5
EC
  8
LAYER_1
 10
-52.7629325212736
 20
134.88757120053
 30
0.0
  0
VERTEX
  5
ED
  8
LAYER_1
 10
-53.16469001678718
 20
134.9427457096186
 30
0.0
  0
VERTEX
  5
EE
  8
LAYER_1
 10
-53.79431270552818
 20
132.9855454398676
 30
0.0
  0
VERTEX
  5
EF
  8
LAYER_1
 10
-53.41337359074421
 20
132.9332299787112
 30
0.0
  0
VERTEX
  5
F0
  8
LAYER_1
 10
-53.20602162835797
 20
133.7144876175325
 30
0.0
  0
VERTEX
  5
F1
  8
LAYER_1
 10
-53.12022179601039
 20
134.0522244211714
 30
0.0
  0
VERTEX
  5
F2
  8
LAYER_1
 10
-53.03135619583888
 20
134.4122855264882
 30
0.0
  0
VERTEX
  5
F3
  8
LAYER_1
 10
-53.02540423294239
 20
134.4114681263535
 30
0.0
  0
VERTEX
  5
F4
  8
LAYER_1
 10
-53.03294134244012
 20
134.0364470574369
 30
0.0
  0
VERTEX
  5
F5
  8
LAYER_1
 10
-53.02787152261794
 20
133.6869890415994
 30
0.0
  0
VERTEX
  5
F6
  8
LAYER_1
 10
-53.00268815088589
 20
132.8768293694206
 30
0.0
  0
VERTEX
  5
F7
  8
LAYER_1
 10
-52.68723411737154
 20
132.8335071622843
 30
0.0
  0
VERTEX
  5
F8
  8
LAYER_1
 10
-52.43483365210668
 20
133.6116108719895
 30
0.0
  0
VERTEX
  5
F9
  8
LAYER_1
 10
-52.32457604135371
 20
133.953570596231
 30
0.0
  0
VERTEX
  5
FA
  8
LAYER_1
 10
-52.22486522336349
 20
134.3015278082437
 30
0.0
  0
VERTEX
  5
FB
  8
LAYER_1
 10
-52.21593727901875
 20
134.3003017080417
 30
0.0
  0
VERTEX
  5
FC
  8
LAYER_1
 10
-52.23183209796303
 20
133.9389383601342
 30
0.0
  0
VERTEX
  5
FD
  8
LAYER_1
 10
-52.24396205826387
 20
133.5884306395746
 30
0.0
  0
VERTEX
  5
FE
  8
LAYER_1
 10
-52.25571680737548
 20
132.7742456525225
 30
0.0
  0
VERTEX
  5
FF
  8
LAYER_1
 10
-51.85098333041366
 20
132.7186624433666
 30
0.0
  0
VERTEX
  5
100
  8
LAYER_1
 10
-51.91775378997099
 20
134.7715003814103
 30
0.0
  0
SEQEND
  5
353
  8
LAYER_1
  0
POLYLINE
  5
74
  8
LAYER_1
 66
     1
 10
0.0
 20
0.0
 30
0.0
 70
     1
  0
VERTEX
  5
101
  8
LAYER_1
 10
-56.15112818752924
 20
134.833537734563
 30
0.0
  0
VERTEX
  5
102
  8
LAYER_1
 10
-56.22259135451326
 20
134.839990183709
 30
0.0
  0
VERTEX
  5
103
  8
LAYER_1
 10
-56.31809395367423
 20
134.834996959912
 30
0.0
  0
VERTEX
  5
104
  8
LAYER_1
 10
-56.42828679265039
 20
134.8172801075511
 30
0.0
  0
VERTEX
  5
105
  8
LAYER_1
 10
-56.54382070860549
 20
134.7855617578117
 30
0.0
  0
VERTEX
  5
106
  8
LAYER_1
 10
-56.67595485898977
 20
134.7281010752731
 30
0.0
  0
VERTEX
  5
107
  8
LAYER_1
 10
-56.78733623034396
 20
134.6565149416932
 30
0.0
  0
VERTEX
  5
108
  8
LAYER_1
 10
-56.87796482266805
 20
134.5708033570723
 30
0.0
  0
VERTEX
  5
109
  8
LAYER_1
 10
-56.94784063596205
 20
134.4709663214102
 30
0.0
  0
VERTEX
  5
10A
  8
LAYER_1
 10
-56.99452792960031
 20
134.3607206996961
 30
0.0
  0
VERTEX
  5
10B
  8
LAYER_1
 10
-57.01559097771995
 20
134.2437834003219
 30
0.0
  0
VERTEX
  5
10C
  8
LAYER_1
 10
-57.01102978032095
 20
134.1201544232878
 30
0.0
  0
VERTEX
  5
10D
  8
LAYER_1
 10
-56.98084433740333
 20
133.9898337685937
 30
0.0
  0
VERTEX
  5
10E
  8
LAYER_1
 10
-56.95103185607022
 20
133.9157654291705
 30
0.0
  0
VERTEX
  5
10F
  8
LAYER_1
 10
-56.91141760776651
 20
133.8467421868006
 30
0.0
  0
VERTEX
  5
110
  8
LAYER_1
 10
-56.86200159249221
 20
133.7827640414837
 30
0.0
  0
VERTEX
  5
111
  8
LAYER_1
 10
-56.80278381024732
 20
133.7238309932201
 30
0.0
  0
VERTEX
  5
112
  8
LAYER_1
 10
-56.73248189553206
 20
133.6711976155663
 30
0.0
  0
VERTEX
  5
113
  8
LAYER_1
 10
-56.64981348284669
 20
133.6261184820792
 30
0.0
  0
VERTEX
  5
114
  8
LAYER_1
 10
-56.5547785721912
 20
133.5885935927587
 30
0.0
  0
VERTEX
  5
115
  8
LAYER_1
 10
-56.44737716356558
 20
133.5586229476048
 30
0.0
  0
VERTEX
  5
116
  8
LAYER_1
 10
-56.28988784687368
 20
133.5190411641288
 30
0.0
  0
VERTEX
  5
117
  8
LAYER_1
 10
-56.18472321841497
 20
133.476542090874
 30
0.0
  0
VERTEX
  5
118
  8
LAYER_1
 10
-56.14860808113054
 20
133.4521467445483
 30
0.0
  0
VERTEX
  5
119
  8
LAYER_1
 10
-56.11926491021638
 20
133.4229184384783
 30
0.0
  0
VERTEX
  5
11A
  8
LAYER_1
 10
-56.09669370567249
 20
133.3888571726638
 30
0.0
  0
VERTEX
  5
11B
  8
LAYER_1
 10
-56.08089446749889
 20
133.3499629471049
 30
0.0
  0
VERTEX
  5
11C
  8
LAYER_1
 10
-56.07138259069072
 20
133.3102447180249
 30
0.0
  0
VERTEX
  5
11D
  8
LAYER_1
 10
-56.07012213296534
 20
133.2706960437324
 30
0.0
  0
VERTEX
  5
11E
  8
LAYER_1
 10
-56.07711309432273
 20
133.2313169242275
 30
0.0
  0
VERTEX
  5
11F
  8
LAYER_1
 10
-56.09235547476289
 20
133.1921073595102
 30
0.0
  0
VERTEX
  5
120
  8
LAYER_1
 10
-56.11670857839279
 20
133.1551557367031
 30
0.0
  0
VERTEX
  5
121
  8
LAYER_1
 10
-56.15103172408213
 20
133.1225504863316
 30
0.0
  0
VERTEX
  5
122
  8
LAYER_1
 10
-56.19532491183092
 20
133.0942916083958
 30
0.0
  0
VERTEX
  5
123
  8
LAYER_1
 10
-56.24958814163915
 20
133.0703791028957
 30
0.0
  0
VERTEX
  5
124
  8
LAYER_1
 10
-56.32759090124874
 20
133.0498987132513
 30
0.0
  0
VERTEX
  5
125
  8
LAYER_1
 10
-56.39881672564933
 20
133.0418412850925
 30
0.0
  0
VERTEX
  5
126
  8
LAYER_1
 10
-56.46209352119764
 20
133.0436299833981
 30
0.0
  0
VERTEX
  5
127
  8
LAYER_1
 10
-56.51624919425044
 20
133.0526879731466
 30
0.0
  0
VERTEX
  5
128
  8
LAYER_1
 10
-56.46668926838895
 20
132.7112319833661
 30
0.0
  0
VERTEX
  5
129
  8
LAYER_1
 10
-56.40471249041587
 20
132.7043761065959
 30
0.0
  0
VERTEX
  5
12A
  8
LAYER_1
 10
-56.32570616784438
 20
132.7068786757249
 30
0.0
  0
VERTEX
  5
12B
  8
LAYER_1
 10
-56.23608504298308
 20
132.72012427972
 30
0.0
  0
VERTEX
  5
12C
  8
LAYER_1
 10
-56.14226377133458
 20
132.7454975370734
 30
0.0
  0
VERTEX
  5
12D
  8
LAYER_1
 10
-56.00532616127641
 20
132.8063381957297
 30
0.0
  0
VERTEX
  5
12E
  8
LAYER_1
 10
-55.89353768522302
 20
132.8800312084462
 30
0.0
  0
VERTEX
  5
12F
  8
LAYER_1
 10
-55.80689834317438
 20
132.9665765752228
 30
0.0
  0
VERTEX
  5
130
  8
LAYER_1
 10
-55.74540813513052
 20
133.0659742960597
 30
0.0
  0
VERTEX
  5
131
  8
LAYER_1
 10
-55.70762486087221
 20
133.1733739128964
 30
0.0
  0
VERTEX
  5
132
  8
LAYER_1
 10
-55.69210633494298
 20
133.2839250110754
 30
0.0
  0
VERTEX
  5
133
  8
LAYER_1
 10
-55.69885255734285
 20
133.3976275905969
 30
0.0
  0
VERTEX
  5
134
  8
LAYER_1
 10
-55.72786352807181
 20
133.5144816514608
 30
0.0
  0
VERTEX
  5
135
  8
LAYER_1
 10
-55.7549670198031
 20
133.5796753761821
 30
0.0
  0
VERTEX
  5
136
  8
LAYER_1
 10
-55.7932002455662
 20
133.6421995341732
 30
0.0
  0
VERTEX
  5
137
  8
LAYER_1
 10
-55.8425632053611
 20
133.7020541254338
 30
0.0
  0
VERTEX
  5
138
  8
LAYER_1
 10
-55.90305589918781
 20
133.7592391499641
 30
0.0
  0
VERTEX
  5
139
  8
LAYER_1
 10
-55.97557651514465
 20
133.8115890750962
 30
0.0
  0
VERTEX
  5
13A
  8
LAYER_1
 10
-56.06102325609265
 20
133.8569384115651
 30
0.0
  0
VERTEX
  5
13B
  8
LAYER_1
 10
-56.15939612203185
 20
133.895287159371
 30
0.0
  0
VERTEX
  5
13C
  8
LAYER_1
 10
-56.27069511296222
 20
133.9266353185137
 30
0.0
  0
VERTEX
  5
13D
  8
LAYER_1
 10
-56.40298385076379
 20
133.9638765883379
 30
0.0
  0
VERTEX
  5
13E
  8
LAYER_1
 10
-56.50436230945104
 20
134.0074650762373
 30
0.0
  0
VERTEX
  5
13F
  8
LAYER_1
 10
-56.54412146299486
 20
134.0342417767712
 30
0.0
  0
VERTEX
  5
140
  8
LAYER_1
 10
-56.57747561925895
 20
134.0678098248389
 30
0.0
  0
VERTEX
  5
141
  8
LAYER_1
 10
-56.60442477824331
 20
134.1081692204403
 30
0.0
  0
VERTEX
  5
142
  8
LAYER_1
 10
-56.62496893994795
 20
134.1553199635754
 30
0.0
  0
VERTEX
  5
143
  8
LAYER_1
 10
-56.63648428282124
 20
134.2022432886832
 30
0.0
  0
VERTEX
  5
144
  8
LAYER_1
 10
-56.63831298775159
 20
134.2474021440435
 30
0.0
  0
VERTEX
  5
145
  8
LAYER_1
 10
-56.63045505473897
 20
134.2907965296563
 30
0.0
  0
VERTEX
  5
146
  8
LAYER_1
 10
-56.61291048378342
 20
134.3324264455217
 30
0.0
  0
VERTEX
  5
147
  8
LAYER_1
 10
-56.58509324267962
 20
134.3710031967708
 30
0.0
  0
VERTEX
  5
148
  8
LAYER_1
 10
-56.546417313985
 20
134.4052381319381
 30
0.0
  0
VERTEX
  5
149
  8
LAYER_1
 10
-56.49688269769955
 20
134.4351312510236
 30
0.0
  0
VERTEX
  5
14A
  8
LAYER_1
 10
-56.43648939382331
 20
134.4606825540272
 30
0.0
  0
VERTEX
  5
14B
  8
LAYER_1
 10
-56.35054767004037
 20
134.4837140547953
 30
0.0
  0
VERTEX
  5
14C
  8
LAYER_1
 10
-56.25991700286681
 20
134.4973291974399
 30
0.0
  0
VERTEX
  5
14D
  8
LAYER_1
 10
-56.17242548827925
 20
134.5009486092944
 30
0.0
  0
VERTEX
  5
14E
  8
LAYER_1
 10
-56.09590122225432
 20
134.4939929176921
 30
0.0
  0
SEQEND
  5
354
  8
LAYER_1
  0
POLYLINE
  5
75
  8
LAYER_1
 66
     1
 10
0.0
 20
0.0
 30
0.0
 70
     1
  0
VERTEX
  5
14F
  8
LAYER_1
 10
-57.41194181615339
 20
134.5623685944944
 30
0.0
  0
VERTEX
  5
150
  8
LAYER_1
 10
-57.8014984470768
 20
134.5088696651317
 30
0.0
  0
VERTEX
  5
151
  8
LAYER_1
 10
-57.57544374790666
 20
132.8628347245792
 30
0.0
  0
VERTEX
  5
152
  8
LAYER_1
 10
-57.93263034359575
 20
132.8137812649917
 30
0.0
  0
VERTEX
  5
153
  8
LAYER_1
 10
-57.88321920253203
 20
132.453990183709
 30
0.0
  0
VERTEX
  5
154
  8
LAYER_1
 10
-56.78226593519452
 20
132.6051872534169
 30
0.0
  0
VERTEX
  5
155
  8
LAYER_1
 10
-56.83167707625825
 20
132.9649783346996
 30
0.0
  0
VERTEX
  5
156
  8
LAYER_1
 10
-57.18588711698325
 20
132.9163336539419
 30
0.0
  0
SEQEND
  5
355
  8
LAYER_1
  0
POLYLINE
  5
76
  8
LAYER_1
 66
     1
 10
0.0
 20
0.0
 30
0.0
 70
     1
  0
VERTEX
  5
157
  8
LAYER_1
 10
-58.11836164447522
 20
134.4805951166693
 30
0.0
  0
VERTEX
  5
158
  8
LAYER_1
 10
-58.27811029256343
 20
134.5028057736814
 30
0.0
  0
VERTEX
  5
159
  8
LAYER_1
 10
-58.48324227079708
 20
134.5180481444719
 30
0.0
  0
VERTEX
  5
15A
  8
LAYER_1
 10
-58.71384115863032
 20
134.5150998521025
 30
0.0
  0
VERTEX
  5
15B
  8
LAYER_1
 10
-58.81233900692943
 20
134.5031538478751
 30
0.0
  0
VERTEX
  5
15C
  8
LAYER_1
 10
-58.89963579148357
 20
134.4842266049524
 30
0.0
  0
VERTEX
  5
15D
  8
LAYER_1
 10
-58.97692174179852
 20
134.458653317743
 30
0.0
  0
VERTEX
  5
15E
  8
LAYER_1
 10
-59.04538708738012
 20
134.4267691806554
 30
0.0
  0
VERTEX
  5
15F
  8
LAYER_1
 10
-59.10503182822837
 20
134.3885741936894
 30
0.0
  0
VERTEX
  5
160
  8
LAYER_1
 10
-59.15585596434327
 20
134.3440683568452
 30
0.0
  0
VERTEX
  5
161
  8
LAYER_1
 10
-59.22336699409752
 20
134.2669482062115
 30
0.0
  0
VERTEX
  5
162
  8
LAYER_1
 10
-59.27455736513275
 20
134.1769101352141
 30
0.0
  0
VERTEX
  5
163
  8
LAYER_1
 10
-59.30834011268921
 20
134.073076045475
 30
0.0
  0
VERTEX
  5
164
  8
LAYER_1
 10
-59.32362827200716
 20
133.9545678386166
 30
0.0
  0
VERTEX
  5
165
  8
LAYER_1
 10
-59.32136670469777
 20
133.8718358698211
 30
0.0
  0
VERTEX
  5
166
  8
LAYER_1
 10
-59.30749714057801
 20
133.7935305115577
 30
0.0
  0
VERTEX
  5
167
  8
LAYER_1
 10
-59.28201957964789
 20
133.7196517638265
 30
0.0
  0
VERTEX
  5
168
  8
LAYER_1
 10
-59.24493402190738
 20
133.6501996266273
 30
0.0
  0
VERTEX
  5
169
  8
LAYER_1
 10
-59.1965546508962
 20
133.5875802565606
 30
0.0
  0
VERTEX
  5
16A
  8
LAYER_1
 10
-59.13719560229374
 20
133.5341998539633
 30
0.0
  0
VERTEX
  5
16B
  8
LAYER_1
 10
-59.06685687609999
 20
133.4900584188355
 30
0.0
  0
VERTEX
  5
16C
  8
LAYER_1
 10
-58.98553847231496
 20
133.4551559511771
 30
0.0
  0
VERTEX
  5
16D
  8
LAYER_1
 10
-58.9860782605114
 20
133.4431655261576
 30
0.0
  0
VERTEX
  5
16E
  8
LAYER_1
 10
-59.05794840121907
 20
133.4093213412175
 30
0.0
  0
VERTEX
  5
16F
  8
LAYER_1
 10
-59.12033583767532
 20
133.3687626688
 30
0.0
  0
VERTEX
  5
170
  8
LAYER_1
 10
-59.17324056988014
 20
133.3214895089052
 30
0.0
  0
VERTEX
  5
171
  8
LAYER_1
 10
-59.21666259783353
 20
133.267501861533
 30
0.0
  0
VERTEX
  5
172
  8
LAYER_1
 10
-59.25086643399204
 20
133.2087178354972
 30
0.0
  0
VERTEX
  5
173
  8
LAYER_1
 10
-59.27611658875047
 20
133.14705558541
 30
0.0
  0
VERTEX
  5
174
  8
LAYER_1
 10
-59.29241306210878
 20
133.0825151112714
 30
0.0
  0
VERTEX
  5
175
  8
LAYER_1
 10
-59.299755854067
 20
133.0150964130814
 30
0.0
  0
VERTEX
  5
176
  8
LAYER_1
 10
-59.29572807565499
 20
132.9105878040973
 30
0.0
  0
VERTEX
  5
177
  8
LAYER_1
 10
-59.27287844566425
 20
132.8111958632477
 30
0.0
  0
VERTEX
  5
178
  8
LAYER_1
 10
-59.22935630218143
 20
132.7204997058084
 30
0.0
  0
VERTEX
  5
179
  8
LAYER_1
 10
-59.16331098329312
 20
132.6420784470548
 30
0.0
  0
VERTEX
  5
17A
  8
LAYER_1
 10
-59.11015408360333
 20
132.5994172206526
 30
0.0
  0
VERTEX
  5
17B
  8
LAYER_1
 10
-59.0535578465379
 20
132.5639225427079
 30
0.0
  0
VERTEX
  5
17C
  8
LAYER_1
 10
-58.99352227209683
 20
132.5355944132208
 30
0.0
  0
VERTEX
  5
17D
  8
LAYER_1
 10
-58.93004736028011
 20
132.5144328321912
 30
0.0
  0
VERTEX
  5
17E
  8
LAYER_1
 10
-58.79645457575052
 20
132.4870168440764
 30
0.0
  0
VERTEX
  5
17F
  8
LAYER_1
 10
-58.65645445258275
 20
132.4750821028113
 30
0.0
  0
VERTEX
  5
180
  8
LAYER_1
 10
-58.41342224551989
 20
132.4735286581367
 30
0.0
  0
VERTEX
  5
181
  8
LAYER_1
 10
-58.20779768993611
 20
132.4939340443713
 30
0.0
  0
SEQEND
  5
356
  8
LAYER_1
  0
POLYLINE
  5
77
  8
LAYER_1
 66
     1
 10
0.0
 20
0.0
 30
0.0
 70
     1
  0
VERTEX
  5
182
  8
LAYER_1
 10
-58.58860153946051
 20
132.7784285858345
 30
0.0
  0
VERTEX
  5
183
  8
LAYER_1
 10
-58.63334553163924
 20
132.7710378157403
 30
0.0
  0
VERTEX
  5
184
  8
LAYER_1
 10
-58.69130703809473
 20
132.7710137126742
 30
0.0
  0
VERTEX
  5
185
  8
LAYER_1
 10
-58.74743961563158
 20
132.7792189971685
 30
0.0
  0
VERTEX
  5
186
  8
LAYER_1
 10
-58.79500659745501
 20
132.7958558607911
 30
0.0
  0
VERTEX
  5
187
  8
LAYER_1
 10
-58.83400798356497
 20
132.8209243035417
 30
0.0
  0
VERTEX
  5
188
  8
LAYER_1
 10
-58.8644437739615
 20
132.8544243254206
 30
0.0
  0
VERTEX
  5
189
  8
LAYER_1
 10
-58.88696299330289
 20
132.8944806156413
 30
0.0
  0
VERTEX
  5
18A
  8
LAYER_1
 10
-58.90221466418571
 20
132.939217909216
 30
0.0
  0
VERTEX
  5
18B
  8
LAYER_1
 10
-58.91019878660994
 20
132.9886362061448
 30
0.0
  0
VERTEX
  5
18C
  8
LAYER_1
 10
-58.91091536057559
 20
133.0427355064277
 30
0.0
  0
VERTEX
  5
18D
  8
LAYER_1
 10
-58.90284440840395
 20
133.1026229650751
 30
0.0
  0
VERTEX
  5
18E
  8
LAYER_1
 10
-58.88666217333162
 20
133.1561495787346
 30
0.0
  0
VERTEX
  5
18F
  8
LAYER_1
 10
-58.86236865535859
 20
133.2033153474064
 30
0.0
  0
VERTEX
  5
190
  8
LAYER_1
 10
-58.82996385448487
 20
133.2441202710904
 30
0.0
  0
VERTEX
  5
191
  8
LAYER_1
 10
-58.79128762464978
 20
133.2768837410633
 30
0.0
  0
VERTEX
  5
192
  8
LAYER_1
 10
-58.74817977399406
 20
133.2999251465399
 30
0.0
  0
VERTEX
  5
193
  8
LAYER_1
 10
-58.70064030251773
 20
133.3132444875202
 30
0.0
  0
VERTEX
  5
194
  8
LAYER_1
 10
-58.64866921022077
 20
133.3168417640042
 30
0.0
  0
VERTEX
  5
195
  8
LAYER_1
 10
-58.56453362232875
 20
133.3130541253534
 30
0.0
  0
SEQEND
  5
357
  8
LAYER_1
  0
POLYLINE
  5
78
  8
LAYER_1
 66
     1
 10
0.0
 20
0.0
 30
0.0
 70
     1
  0
VERTEX
  5
196
  8
LAYER_1
 10
-58.55144384928317
 20
133.6038199169405
 30
0.0
  0
VERTEX
  5
197
  8
LAYER_1
 10
-58.63556789594229
 20
133.607607036025
 30
0.0
  0
VERTEX
  5
198
  8
LAYER_1
 10
-58.69351147055629
 20
133.6161642518454
 30
0.0
  0
VERTEX
  5
199
  8
LAYER_1
 10
-58.74652378942795
 20
133.6339506705868
 30
0.0
  0
VERTEX
  5
19A
  8
LAYER_1
 10
-58.79460485255728
 20
133.6609662922493
 30
0.0
  0
VERTEX
  5
19B
  8
LAYER_1
 10
-58.83775465994426
 20
133.6972111168328
 30
0.0
  0
VERTEX
  5
19C
  8
LAYER_1
 10
-58.8731629083759
 20
133.7424176051961
 30
0.0
  0
VERTEX
  5
19D
  8
LAYER_1
 10
-58.89801924884067
 20
133.7963182161358
 30
0.0
  0
VERTEX
  5
19E
  8
LAYER_1
 10
-58.91232368133855
 20
133.8589129496521
 30
0.0
  0
VERTEX
  5
19F
  8
LAYER_1
 10
-58.91607620586956
 20
133.9302018057448
 30
0.0
  0
VERTEX
  5
1A0
  8
LAYER_1
 10
-58.90620756682574
 20
134.0023468819025
 30
0.0
  0
VERTEX
  5
1A1
  8
LAYER_1
 10
-58.8868633562427
 20
134.0639792834538
 30
0.0
  0
VERTEX
  5
1A2
  8
LAYER_1
 10
-58.85804357412043
 20
134.1150990103988
 30
0.0
  0
VERTEX
  5
1A3
  8
LAYER_1
 10
-58.81974822045893
 20
134.1557060627376
 30
0.0
  0
VERTEX
  5
1A4
  8
LAYER_1
 10
-58.77442603460639
 20
134.1862633249047
 30
0.0
  0
VERTEX
  5
1A5
  8
LAYER_1
 10
-58.72452575384919
 20
134.2072337271337
 30
0.0
  0
VERTEX
  5
1A6
  8
LAYER_1
 10
-58.67004737818735
 20
134.2186172694244
 30
0.0
  0
VERTEX
  5
1A7
  8
LAYER_1
 10
-58.61099090762086
 20
134.220413951777
 30
0.0
  0
VERTEX
  5
1A8
  8
LAYER_1
 10
-58.56295377869429
 20
134.2174990603484
 30
0.0
  0
VERTEX
  5
1A9
  8
LAYER_1
 10
-58.5241328361414
 20
134.210485007891
 30
0.0
  0
SEQEND
  5
358
  8
LAYER_1
  0
POLYLINE
  5
79
  8
LAYER_1
 66
     1
 10
0.0
 20
0.0
 30
0.0
 70
     1
  0
VERTEX
  5
1AA
  8
LAYER_1
 10
-59.91777424254371
 20
134.7363571762971
 30
0.0
  0
VERTEX
  5
1AB
  8
LAYER_1
 10
-60.09855283596823
 20
133.967281357753
 30
0.0
  0
VERTEX
  5
1AC
  8
LAYER_1
 10
-60.82270278690914
 20
132.8692342195054
 30
0.0
  0
VERTEX
  5
1AD
  8
LAYER_1
 10
-60.42493295185271
 20
132.775734632658
 30
0.0
  0
VERTEX
  5
1AE
  8
LAYER_1
 10
-60.19940583130296
 20
133.2102764241386
 30
0.0
  0
VERTEX
  5
1AF
  8
LAYER_1
 10
-60.09981202473443
 20
133.4109733456905
 30
0.0
  0
VERTEX
  5
1B0
  8
LAYER_1
 10
-60.00846868940158
 20
133.6159239337928
 30
0.0
  0
VERTEX
  5
1B1
  8
LAYER_1
 10
-60.00262475620397
 20
133.6145502616554
 30
0.0
  0
VERTEX
  5
1B2
  8
LAYER_1
 10
-60.00463319089351
 20
133.3862862456866
 30
0.0
  0
VERTEX
  5
1B3
  8
LAYER_1
 10
-59.99864998935104
 20
133.172344299433
 30
0.0
  0
VERTEX
  5
1B4
  8
LAYER_1
 10
-59.97488270649014
 20
132.6699460376128
 30
0.0
  0
VERTEX
  5
1B5
  8
LAYER_1
 10
-59.56541375863793
 20
132.573696462917
 30
0.0
  0
VERTEX
  5
1B6
  8
LAYER_1
 10
-59.71233563379309
 20
133.8919264061167
 30
0.0
  0
VERTEX
  5
1B7
  8
LAYER_1
 10
-59.53499389575686
 20
134.6463810113806
 30
0.0
  0
SEQEND
  5
359
  8
LAYER_1
  0
POLYLINE
  5
7A
  8
LAYER_1
 66
     1
 10
0.0
 20
0.0
 30
0.0
 70
     1
  0
VERTEX
  5
1B8
  8
LAYER_1
 10
-43.64922727959586
 20
132.8001379306667
 30
0.0
  0
VERTEX
  5
1B9
  8
LAYER_1
 10
-43.54448938196602
 20
132.8250296817536
 30
0.0
  0
VERTEX
  5
1BA
  8
LAYER_1
 10
-43.45144824193295
 20
132.8655757671588
 30
0.0
  0
VERTEX
  5
1BB
  8
LAYER_1
 10
-43.37010385949667
 20
132.9217761868824
 30
0.0
  0
VERTEX
  5
1BC
  8
LAYER_1
 10
-43.30045623465717
 20
132.9936309409244
 30
0.0
  0
VERTEX
  5
1BD
  8
LAYER_1
 10
-43.24206081905504
 20
133.0783849204898
 30
0.0
  0
VERTEX
  5
1BE
  8
LAYER_1
 10
-43.19447301891286
 20
133.1732830230213
 30
0.0
  0
VERTEX
  5
1BF
  8
LAYER_1
 10
-43.15769283423063
 20
133.278325248519
 30
0.0
  0
VERTEX
  5
1C0
  8
LAYER_1
 10
-43.13172026500834
 20
133.3935115969827
 30
0.0
  0
VERTEX
  5
1C1
  8
LAYER_1
 10
-43.11611075731911
 20
133.5160869401372
 30
0.0
  0
VERTEX
  5
1C2
  8
LAYER_1
 10
-43.1104197180554
 20
133.6432962013625
 30
0.0
  0
VERTEX
  5
1C3
  8
LAYER_1
 10
-43.11464714721724
 20
133.7751393806586
 30
0.0
  0
VERTEX
  5
1C4
  8
LAYER_1
 10
-43.1287930448046
 20
133.9116164780255
 30
0.0
  0
VERTEX
  5
1C5
  8
LAYER_1
 10
-43.1511755853918
 20
134.0478648465463
 30
0.0
  0
VERTEX
  5
1C6
  8
LAYER_1
 10
-43.18088848778785
 20
134.1772580990261
 30
0.0
  0
VERTEX
  5
1C7
  8
LAYER_1
 10
-43.21793175199275
 20
134.2997962354648
 30
0.0
  0
VERTEX
  5
1C8
  8
LAYER_1
 10
-43.26230537800652
 20
134.4154792558624
 30
0.0
  0
VERTEX
  5
1C9
  8
LAYER_1
 10
-43.31429976793705
 20
134.5213456876568
 30
0.0
  0
VERTEX
  5
1CA
  8
LAYER_1
 10
-43.37420533012964
 20
134.6144341037041
 30
0.0
  0
VERTEX
  5
1CB
  8
LAYER_1
 10
-43.44202206458429
 20
134.694744504004
 30
0.0
  0
VERTEX
  5
1CC
  8
LAYER_1
 10
-43.51774997130101
 20
134.7622768885568
 30
0.0
  0
VERTEX
  5
1CD
  8
LAYER_1
 10
-43.60167947470686
 20
134.8140697788428
 30
0.0
  0
VERTEX
  5
1CE
  8
LAYER_1
 10
-43.6941009600483
 20
134.8471617479983
 30
0.0
  0
VERTEX
  5
1CF
  8
LAYER_1
 10
-43.79501442732534
 20
134.8615527960232
 30
0.0
  0
VERTEX
  5
1D0
  8
LAYER_1
 10
-43.90441987653796
 20
134.8572429229174
 30
0.0
  0
VERTEX
  5
1D1
  8
LAYER_1
 10
-43.97489538531726
 20
134.8446227775033
 30
0.0
  0
VERTEX
  5
1D2
  8
LAYER_1
 10
-44.04070771633033
 20
134.8244721396648
 30
0.0
  0
VERTEX
  5
1D3
  8
LAYER_1
 10
-44.10185686957719
 20
134.7967910094017
 30
0.0
  0
VERTEX
  5
1D4
  8
LAYER_1
 10
-44.15834284505782
 20
134.7615793867141
 30
0.0
  0
VERTEX
  5
1D5
  8
LAYER_1
 10
-44.21016564277223
 20
134.718837271602
 30
0.0
  0
VERTEX
  5
1D6
  8
LAYER_1
 10
-44.25732526272042
 20
134.6685646640653
 30
0.0
  0
VERTEX
  5
1D7
  8
LAYER_1
 10
-44.29982170490239
 20
134.6107615641042
 30
0.0
  0
VERTEX
  5
1D8
  8
LAYER_1
 10
-44.33765496931814
 20
134.5454279717185
 30
0.0
  0
VERTEX
  5
1D9
  8
LAYER_1
 10
-44.36980574105397
 20
134.4718459295333
 30
0.0
  0
VERTEX
  5
1DA
  8
LAYER_1
 10
-44.39525468560585
 20
134.3892975060014
 30
0.0
  0
VERTEX
  5
1DB
  8
LAYER_1
 10
-44.41400180297381
 20
134.2977827011227
 30
0.0
  0
VERTEX
  5
1DC
  8
LAYER_1
 10
-44.42604709315784
 20
134.1973015148973
 30
0.0
  0
VERTEX
  5
1DD
  8
LAYER_1
 10
-44.43003219197409
 20
133.9694399984062
 30
0.0
  0
VERTEX
  5
1DE
  8
LAYER_1
 10
-44.40720998205462
 20
133.7057129565282
 30
0.0
  0
VERTEX
  5
1DF
  8
LAYER_1
 10
-44.3628861164698
 20
133.4748024269261
 30
0.0
  0
VERTEX
  5
1E0
  8
LAYER_1
 10
-44.29050842158354
 20
133.2523481470649
 30
0.0
  0
VERTEX
  5
1E1
  8
LAYER_1
 10
-44.24290898826402
 20
133.1487051545661
 30
0.0
  0
VERTEX
  5
1E2
  8
LAYER_1
 10
-44.18651529784248
 20
133.0560023320608
 30
0.0
  0
VERTEX
  5
1E3
  8
LAYER_1
 10
-44.1213273503189
 20
132.9742396795489
 30
0.0
  0
VERTEX
  5
1E4
  8
LAYER_1
 10
-44.04734514569329
 20
132.9034171970303
 30
0.0
  0
VERTEX
  5
1E5
  8
LAYER_1
 10
-43.96367827917973
 20
132.8479479447412
 30
0.0
  0
VERTEX
  5
1E6
  8
LAYER_1
 10
-43.86943634599231
 20
132.8122449829176
 30
0.0
  0
VERTEX
  5
1E7
  8
LAYER_1
 10
-43.76461934613101
 20
132.7963083115594
 30
0.0
  0
SEQEND
  5
35A
  8
LAYER_1
  0
POLYLINE
  5
7B
  8
LAYER_1
 66
     1
 10
0.0
 20
0.0
 30
0.0
 70
     1
  0
VERTEX
  5
1E8
  8
LAYER_1
 10
-43.68088195752202
 20
133.1411340361178
 30
0.0
  0
VERTEX
  5
1E9
  8
LAYER_1
 10
-43.72315349818458
 20
133.1424278329184
 30
0.0
  0
VERTEX
  5
1EA
  8
LAYER_1
 10
-43.76236222259436
 20
133.1556440635815
 30
0.0
  0
VERTEX
  5
1EB
  8
LAYER_1
 10
-43.79850813075137
 20
133.1807827281072
 30
0.0
  0
VERTEX
  5
1EC
  8
LAYER_1
 10
-43.83159122265561
 20
133.2178438264954
 30
0.0
  0
VERTEX
  5
1ED
  8
LAYER_1
 10
-43.88938185209327
 20
133.3195326663229
 30
0.0
  0
VERTEX
  5
1EE
  8
LAYER_1
 10
-43.93654701776958
 20
133.4525100153633
 30
0.0
  0
VERTEX
  5
1EF
  8
LAYER_1
 10
-43.97389971270481
 20
133.6085752593778
 30
0.0
  0
VERTEX
  5
1F0
  8
LAYER_1
 10
-44.00225283908318
 20
133.7795277966023
 30
0.0
  0
VERTEX
  5
1F1
  8
LAYER_1
 10
-44.02869245527765
 20
134.0635565341382
 30
0.0
  0
VERTEX
  5
1F2
  8
LAYER_1
 10
-44.02872079479332
 20
134.1848802240485
 30
0.0
  0
VERTEX
  5
1F3
  8
LAYER_1
 10
-44.0199548219213
 20
134.2924101280537
 30
0.0
  0
VERTEX
  5
1F4
  8
LAYER_1
 10
-44.00088313835778
 20
134.3818746600607
 30
0.0
  0
VERTEX
  5
1F5
  8
LAYER_1
 10
-43.96999430661836
 20
134.4490022856318
 30
0.0
  0
VERTEX
  5
1F6
  8
LAYER_1
 10
-43.92728832670304
 20
134.493793004767
 30
0.0
  0
VERTEX
  5
1F7
  8
LAYER_1
 10
-43.87276519861181
 20
134.5162468174663
 30
0.0
  0
VERTEX
  5
1F8
  8
LAYER_1
 10
-43.81535330345709
 20
134.5130046193261
 30
0.0
  0
VERTEX
  5
1F9
  8
LAYER_1
 10
-43.76203173709315
 20
134.4872316116328
 30
0.0
  0
VERTEX
  5
1FA
  8
LAYER_1
 10
-43.71280049952
 20
134.4389277943861
 30
0.0
  0
VERTEX
  5
1FB
  8
LAYER_1
 10
-43.66765959073764
 20
134.3680931675862
 30
0.0
  0
VERTEX
  5
1FC
  8
LAYER_1
 10
-43.62698685538049
 20
134.2748891377706
 30
0.0
  0
VERTEX
  5
1FD
  8
LAYER_1
 10
-43.59116013808301
 20
134.1594771114769
 30
0.0
  0
VERTEX
  5
1FE
  8
LAYER_1
 10
-43.56017943884521
 20
134.021857088705
 30
0.0
  0
VERTEX
  5
1FF
  8
LAYER_1
 10
-43.53404475766707
 20
133.8620290694549
 30
0.0
  0
VERTEX
  5
200
  8
LAYER_1
 10
-43.51701857773052
 20
133.7074913963718
 30
0.0
  0
VERTEX
  5
201
  8
LAYER_1
 10
-43.510192743327
 20
133.5702517443023
 30
0.0
  0
VERTEX
  5
202
  8
LAYER_1
 10
-43.51356725445648
 20
133.4503101132465
 30
0.0
  0
VERTEX
  5
203
  8
LAYER_1
 10
-43.52714211111898
 20
133.3476665032043
 30
0.0
  0
VERTEX
  5
204
  8
LAYER_1
 10
-43.55075712359093
 20
133.2642622743598
 30
0.0
  0
VERTEX
  5
205
  8
LAYER_1
 10
-43.58425210214875
 20
133.2020387868972
 30
0.0
  0
VERTEX
  5
206
  8
LAYER_1
 10
-43.62762704679245
 20
133.1609960408165
 30
0.0
  0
SEQEND
  5
35B
  8
LAYER_1
  0
POLYLINE
  5
7C
  8
LAYER_1
 66
     1
 10
0.0
 20
0.0
 30
0.0
 70
     1
  0
VERTEX
  5
207
  8
LAYER_1
 10
-44.55288153309309
 20
134.7411298805562
 30
0.0
  0
VERTEX
  5
208
  8
LAYER_1
 10
-44.94569143098878
 20
134.7588135027782
 30
0.0
  0
VERTEX
  5
209
  8
LAYER_1
 10
-44.98325435169593
 20
133.924420703475
 30
0.0
  0
VERTEX
  5
20A
  8
LAYER_1
 10
-45.43946909461966
 20
133.9449587021588
 30
0.0
  0
VERTEX
  5
20B
  8
LAYER_1
 10
-45.45418011176901
 20
133.6181798854758
 30
0.0
  0
VERTEX
  5
20C
  8
LAYER_1
 10
-44.99796536884528
 20
133.597641886792
 30
0.0
  0
VERTEX
  5
20D
  8
LAYER_1
 10
-45.02135774399091
 20
133.0780222988402
 30
0.0
  0
VERTEX
  5
20E
  8
LAYER_1
 10
-45.50758661473858
 20
133.099911481648
 30
0.0
  0
VERTEX
  5
20F
  8
LAYER_1
 10
-45.52297322394989
 20
132.7581256010529
 30
0.0
  0
VERTEX
  5
210
  8
LAYER_1
 10
-44.64393445530654
 20
132.7185527960232
 30
0.0
  0
SEQEND
  5
35C
  8
LAYER_1
  0
POLYLINE
  5
7D
  8
LAYER_1
 66
     1
 10
0.0
 20
0.0
 30
0.0
 70
     1
  0
VERTEX
  5
211
  8
LAYER_1
 10
-45.51501806261529
 20
134.7690554523328
 30
0.0
  0
VERTEX
  5
212
  8
LAYER_1
 10
-45.89779323797785
 20
134.8590304016568
 30
0.0
  0
VERTEX
  5
213
  8
LAYER_1
 10
-46.08891482181738
 20
134.0459530026771
 30
0.0
  0
VERTEX
  5
214
  8
LAYER_1
 10
-46.53347510189462
 20
134.1504511291126
 30
0.0
  0
VERTEX
  5
215
  8
LAYER_1
 10
-46.60832532239248
 20
133.8320202048139
 30
0.0
  0
VERTEX
  5
216
  8
LAYER_1
 10
-46.16376504231524
 20
133.7275220783783
 30
0.0
  0
VERTEX
  5
217
  8
LAYER_1
 10
-46.28278634586235
 20
133.2211766935864
 30
0.0
  0
VERTEX
  5
218
  8
LAYER_1
 10
-46.75659401278678
 20
133.3325496967612
 30
0.0
  0
VERTEX
  5
219
  8
LAYER_1
 10
-46.83488167165423
 20
132.9994950790388
 30
0.0
  0
VERTEX
  5
21A
  8
LAYER_1
 10
-45.97829882936724
 20
132.79814712654
 30
0.0
  0
SEQEND
  5
35D
  8
LAYER_1
  0
POLYLINE
  5
7E
  8
LAYER_1
 66
     1
 10
0.0
 20
0.0
 30
0.0
 70
     1
  0
VERTEX
  5
21B
  8
LAYER_1
 10
-64.13904917265901
 20
134.6651738000061
 30
0.0
  0
VERTEX
  5
21C
  8
LAYER_1
 10
-63.99200833532678
 20
134.2328683294816
 30
0.0
  0
VERTEX
  5
21D
  8
LAYER_1
 10
-63.81104225082539
 20
133.7276167827197
 30
0.0
  0
VERTEX
  5
21E
  8
LAYER_1
 10
-63.67229327881474
 20
133.3674566679929
 30
0.0
  0
VERTEX
  5
21F
  8
LAYER_1
 10
-63.67797638681773
 20
133.3655236622449
 30
0.0
  0
VERTEX
  5
220
  8
LAYER_1
 10
-63.86690353392251
 20
133.6280978893981
 30
0.0
  0
VERTEX
  5
221
  8
LAYER_1
 10
-64.06789804195628
 20
133.8770482715083
 30
0.0
  0
VERTEX
  5
222
  8
LAYER_1
 10
-64.60875785378053
 20
134.5054109413716
 30
0.0
  0
VERTEX
  5
223
  8
LAYER_1
 10
-64.94977037737858
 20
134.3894217382976
 30
0.0
  0
VERTEX
  5
224
  8
LAYER_1
 10
-64.29776185457483
 20
132.4724926976954
 30
0.0
  0
VERTEX
  5
225
  8
LAYER_1
 10
-63.97098431635673
 20
132.5836401295857
 30
0.0
  0
VERTEX
  5
226
  8
LAYER_1
 10
-64.11512152600639
 20
133.007408827916
 30
0.0
  0
VERTEX
  5
227
  8
LAYER_1
 10
-64.29946613513296
 20
133.502785021268
 30
0.0
  0
VERTEX
  5
228
  8
LAYER_1
 10
-64.45388239412883
 20
133.8822081511044
 30
0.0
  0
VERTEX
  5
229
  8
LAYER_1
 10
-64.44819928612584
 20
133.8841411568523
 30
0.0
  0
VERTEX
  5
22A
  8
LAYER_1
 10
-64.24937042912235
 20
133.6320743542094
 30
0.0
  0
VERTEX
  5
22B
  8
LAYER_1
 10
-64.05271826290206
 20
133.3935463628914
 30
0.0
  0
VERTEX
  5
22C
  8
LAYER_1
 10
-63.50127424625288
 20
132.7434034606573
 30
0.0
  0
VERTEX
  5
22D
  8
LAYER_1
 10
-63.16026311163715
 20
132.8593921912942
 30
0.0
  0
VERTEX
  5
22E
  8
LAYER_1
 10
-63.8122716344409
 20
134.7763212318965
 30
0.0
  0
SEQEND
  5
35E
  8
LAYER_1
  0
POLYLINE
  5
7F
  8
LAYER_1
 66
     1
 10
0.0
 20
0.0
 30
0.0
 70
     1
  0
VERTEX
  5
22F
  8
LAYER_1
 10
-65.30172915215965
 20
132.2561053110526
 30
0.0
  0
VERTEX
  5
230
  8
LAYER_1
 10
-65.19698329331098
 20
132.2809989541832
 30
0.0
  0
VERTEX
  5
231
  8
LAYER_1
 10
-65.10393508113981
 20
132.3215481215317
 30
0.0
  0
VERTEX
  5
232
  8
LAYER_1
 10
-65.02258451564614
 20
132.3777528130981
 30
0.0
  0
VERTEX
  5
233
  8
LAYER_1
 10
-64.95293159683004
 20
132.4496130288825
 30
0.0
  0
VERTEX
  5
234
  8
LAYER_1
 10
-64.8945317425415
 20
132.5343734506718
 30
0.0
  0
VERTEX
  5
235
  8
LAYER_1
 10
-64.84694032520919
 20
132.6292787664908
 30
0.0
  0
VERTEX
  5
236
  8
LAYER_1
 10
-64.81015734483309
 20
132.7343289763394
 30
0.0
  0
VERTEX
  5
237
  8
LAYER_1
 10
-64.7841828014132
 20
132.8495240802179
 30
0.0
  0
VERTEX
  5
238
  8
LAYER_1
 10
-64.76857210723168
 20
132.9721087404309
 30
0.0
  0
VERTEX
  5
239
  8
LAYER_1
 10
-64.76288063538712
 20
133.099327670943
 30
0.0
  0
VERTEX
  5
23A
  8
LAYER_1
 10
-64.76710838587954
 20
133.231180871754
 30
0.0
  0
VERTEX
  5
23B
  8
LAYER_1
 10
-64.78125535870889
 20
133.3676683428639
 30
0.0
  0
VERTEX
  5
23C
  8
LAYER_1
 10
-64.8036396006125
 20
133.5039270677419
 30
0.0
  0
VERTEX
  5
23D
  8
LAYER_1
 10
-64.83335476151214
 20
133.6333301555155
 30
0.0
  0
VERTEX
  5
23E
  8
LAYER_1
 10
-64.87040084140781
 20
133.7558776061847
 30
0.0
  0
VERTEX
  5
23F
  8
LAYER_1
 10
-64.91477784029955
 20
133.8715694197494
 30
0.0
  0
VERTEX
  5
240
  8
LAYER_1
 10
-64.96677618236896
 20
133.9774438985436
 30
0.0
  0
VERTEX
  5
241
  8
LAYER_1
 10
-65.02668629803549
 20
134.0705393903223
 30
0.0
  0
VERTEX
  5
242
  8
LAYER_1
 10
-65.0945081872992
 20
134.1508558950858
 30
0.0
  0
VERTEX
  5
243
  8
LAYER_1
 10
-65.17024185016007
 20
134.2183934128339
 30
0.0
  0
VERTEX
  5
244
  8
LAYER_1
 10
-65.25417773312057
 20
134.2701902399427
 30
0.0
  0
VERTEX
  5
245
  8
LAYER_1
 10
-65.34660624349962
 20
134.3032847244476
 30
0.0
  0
VERTEX
  5
246
  8
LAYER_1
 10
-65.44752738129719
 20
134.3176768663485
 30
0.0
  0
VERTEX
  5
247
  8
LAYER_1
 10
-65.55694114651331
 20
134.3133666656455
 30
0.0
  0
VERTEX
  5
248
  8
LAYER_1
 10
-65.62742201219741
 20
134.3007455609632
 30
0.0
  0
VERTEX
  5
249
  8
LAYER_1
 10
-65.69323934566309
 20
134.2805933914571
 30
0.0
  0
VERTEX
  5
24A
  8
LAYER_1
 10
-65.75439314691033
 20
134.2529101571272
 30
0.0
  0
VERTEX
  5
24B
  8
LAYER_1
 10
-65.81088341593917
 20
134.2176958579735
 30
0.0
  0
VERTEX
  5
24C
  8
LAYER_1
 10
-65.86271015274957
 20
134.174950493996
 30
0.0
  0
VERTEX
  5
24D
  8
LAYER_1
 10
-65.90987335734155
 20
134.1246740651947
 30
0.0
  0
VERTEX
  5
24E
  8
LAYER_1
 10
-65.95237302971512
 20
134.0668665715695
 30
0.0
  0
VERTEX
  5
24F
  8
LAYER_1
 10
-65.99020916987024
 20
134.0015280131206
 30
0.0
  0
VERTEX
  5
250
  8
LAYER_1
 10
-66.02236238541423
 20
133.9279403779003
 30
0.0
  0
VERTEX
  5
251
  8
LAYER_1
 10
-66.04781326436256
 20
133.8453856797908
 30
0.0
  0
VERTEX
  5
252
  8
LAYER_1
 10
-66.06656180671524
 20
133.7538639187921
 30
0.0
  0
VERTEX
  5
253
  8
LAYER_1
 10
-66.07860801247227
 20
133.6533750949042
 30
0.0
  0
VERTEX
  5
254
  8
LAYER_1
 10
-66.08259341419935
 20
133.4254962584608
 30
0.0
  0
VERTEX
  5
255
  8
LAYER_1
 10
-66.05976946954382
 20
133.1617491704606
 30
0.0
  0
VERTEX
  5
256
  8
LAYER_1
 10
-66.01544223486337
 20
132.930821089148
 30
0.0
  0
VERTEX
  5
257
  8
LAYER_1
 10
-65.94305903848549
 20
132.7083499003432
 30
0.0
  0
VERTEX
  5
258
  8
LAYER_1
 10
-65.8954559870916
 20
132.6046990298503
 30
0.0
  0
VERTEX
  5
259
  8
LAYER_1
 10
-65.83905801013651
 20
132.5119891609227
 30
0.0
  0
VERTEX
  5
25A
  8
LAYER_1
 10
-65.77386510762028
 20
132.4302202935604
 30
0.0
  0
VERTEX
  5
25B
  8
LAYER_1
 10
-65.69987727954285
 20
132.3593924277633
 30
0.0
  0
VERTEX
  5
25C
  8
LAYER_1
 10
-65.61620405343788
 20
132.303918959208
 30
0.0
  0
VERTEX
  5
25D
  8
LAYER_1
 10
-65.52195495683904
 20
132.2682132835711
 30
0.0
  0
VERTEX
  5
25E
  8
LAYER_1
 10
-65.41712998974629
 20
132.2522754008526
 30
0.0
  0
SEQEND
  5
35F
  8
LAYER_1
  0
POLYLINE
  5
80
  8
LAYER_1
 66
     1
 10
0.0
 20
0.0
 30
0.0
 70
     1
  0
VERTEX
  5
25F
  8
LAYER_1
 10
-65.33338623618545
 20
132.5971273359146
 30
0.0
  0
VERTEX
  5
260
  8
LAYER_1
 10
-65.37566098994463
 20
132.5984212310579
 30
0.0
  0
VERTEX
  5
261
  8
LAYER_1
 10
-65.41487269464372
 20
132.6116384662982
 30
0.0
  0
VERTEX
  5
262
  8
LAYER_1
 10
-65.45102135028267
 20
132.6367790416357
 30
0.0
  0
VERTEX
  5
263
  8
LAYER_1
 10
-65.48410695686155
 20
132.6738429570703
 30
0.0
  0
VERTEX
  5
264
  8
LAYER_1
 10
-65.54190197901528
 20
132.775539526355
 30
0.0
  0
VERTEX
  5
265
  8
LAYER_1
 10
-65.58907072975693
 20
132.9085269831196
 30
0.0
  0
VERTEX
  5
266
  8
LAYER_1
 10
-65.62642626390303
 20
133.0646040897893
 30
0.0
  0
VERTEX
  5
267
  8
LAYER_1
 10
-65.65478154542723
 20
133.2355696212649
 30
0.0
  0
VERTEX
  5
268
  8
LAYER_1
 10
-65.68122317131997
 20
133.5196199480726
 30
0.0
  0
VERTEX
  5
269
  8
LAYER_1
 10
-65.68125151298975
 20
133.6409528599023
 30
0.0
  0
VERTEX
  5
26A
  8
LAYER_1
 10
-65.67248487380849
 20
133.7484909373491
 30
0.0
  0
VERTEX
  5
26B
  8
LAYER_1
 10
-65.65341174058969
 20
133.8379622696331
 30
0.0
  0
VERTEX
  5
26C
  8
LAYER_1
 10
-65.62252056096324
 20
133.9050949976335
 30
0.0
  0
VERTEX
  5
26D
  8
LAYER_1
 10
-65.57981133492919
 20
133.9498891213502
 30
0.0
  0
VERTEX
  5
26E
  8
LAYER_1
 10
-65.52528406248751
 20
133.9723446407834
 30
0.0
  0
VERTEX
  5
26F
  8
LAYER_1
 10
-65.46786780340463
 20
133.9691021962009
 30
0.0
  0
VERTEX
  5
270
  8
LAYER_1
 10
-65.414542184022
 20
133.9433272294788
 30
0.0
  0
VERTEX
  5
271
  8
LAYER_1
 10
-65.3653072043396
 20
133.8950197406169
 30
0.0
  0
VERTEX
  5
272
  8
LAYER_1
 10
-65.32016286435744
 20
133.8241797296154
 30
0.0
  0
VERTEX
  5
273
  8
LAYER_1
 10
-65.27948703743024
 20
133.7309686152803
 30
0.0
  0
VERTEX
  5
274
  8
LAYER_1
 10
-65.24365759691278
 20
133.6155478164179
 30
0.0
  0
VERTEX
  5
275
  8
LAYER_1
 10
-65.21267454280505
 20
133.4779173330282
 30
0.0
  0
VERTEX
  5
276
  8
LAYER_1
 10
-65.18653787510704
 20
133.3180771651112
 30
0.0
  0
VERTEX
  5
277
  8
LAYER_1
 10
-65.16951040099573
 20
133.163527745485
 30
0.0
  0
VERTEX
  5
278
  8
LAYER_1
 10
-65.16268404775458
 20
133.02627766171
 30
0.0
  0
VERTEX
  5
279
  8
LAYER_1
 10
-65.1660588153836
 20
132.9063269137863
 30
0.0
  0
VERTEX
  5
27A
  8
LAYER_1
 10
-65.17963470388277
 20
132.8036755017139
 30
0.0
  0
VERTEX
  5
27B
  8
LAYER_1
 10
-65.20325151135238
 20
132.7202649332413
 30
0.0
  0
VERTEX
  5
27C
  8
LAYER_1
 10
-65.2367490358927
 20
132.6580367161173
 30
0.0
  0
VERTEX
  5
27D
  8
LAYER_1
 10
-65.28012727750371
 20
132.6169908503417
 30
0.0
  0
SEQEND
  5
360
  8
LAYER_1
  0
POLYLINE
  5
81
  8
LAYER_1
 66
     1
 10
0.0
 20
0.0
 30
0.0
 70
     1
  0
VERTEX
  5
27E
  8
LAYER_1
 10
-66.1776593171491
 20
134.2230055737399
 30
0.0
  0
VERTEX
  5
27F
  8
LAYER_1
 10
-66.57049907286725
 20
134.2406905401094
 30
0.0
  0
VERTEX
  5
280
  8
LAYER_1
 10
-66.60684869061897
 20
133.4332490861843
 30
0.0
  0
VERTEX
  5
281
  8
LAYER_1
 10
-66.6639425244674
 20
133.435819351838
 30
0.0
  0
VERTEX
  5
282
  8
LAYER_1
 10
-66.70998697101287
 20
133.4408529216773
 30
0.0
  0
VERTEX
  5
283
  8
LAYER_1
 10
-66.75011995404925
 20
133.4549255143416
 30
0.0
  0
VERTEX
  5
284
  8
LAYER_1
 10
-66.7843414735766
 20
133.4780371298308
 30
0.0
  0
VERTEX
  5
285
  8
LAYER_1
 10
-66.81265152959489
 20
133.510187768145
 30
0.0
  0
VERTEX
  5
286
  8
LAYER_1
 10
-66.83592210836014
 20
133.5539544547442
 30
0.0
  0
VERTEX
  5
287
  8
LAYER_1
 10
-66.85502519612837
 20
133.6119142150885
 30
0.0
  0
VERTEX
  5
288
  8
LAYER_1
 10
-66.88072889867375
 20
133.7704129570122
 30
0.0
  0
VERTEX
  5
289
  8
LAYER_1
 10
-66.91886979943594
 20
134.0762860564072
 30
0.0
  0
VERTEX
  5
28A
  8
LAYER_1
 10
-66.9580405219768
 20
134.2581369858791
 30
0.0
  0
VERTEX
  5
28B
  8
LAYER_1
 10
-67.36893555822375
 20
134.2766347697506
 30
0.0
  0
VERTEX
  5
28C
  8
LAYER_1
 10
-67.34292830273168
 20
134.1894618203398
 30
0.0
  0
VERTEX
  5
28D
  8
LAYER_1
 10
-67.31537404941668
 20
134.0554115431274
 30
0.0
  0
VERTEX
  5
28E
  8
LAYER_1
 10
-67.26465638705315
 20
133.7215267765166
 30
0.0
  0
VERTEX
  5
28F
  8
LAYER_1
 10
-67.23575600557336
 20
133.5739929958328
 30
0.0
  0
VERTEX
  5
290
  8
LAYER_1
 10
-67.1905352846451
 20
133.4573321324689
 30
0.0
  0
VERTEX
  5
291
  8
LAYER_1
 10
-67.16090394787085
 20
133.4102530050667
 30
0.0
  0
VERTEX
  5
292
  8
LAYER_1
 10
-67.1253907803373
 20
133.3702400713034
 30
0.0
  0
VERTEX
  5
293
  8
LAYER_1
 10
-67.08399578204447
 20
133.337293331179
 30
0.0
  0
VERTEX
  5
294
  8
LAYER_1
 10
-67.03671895299235
 20
133.3114127846936
 30
0.0
  0
VERTEX
  5
295
  8
LAYER_1
 10
-67.03698887633027
 20
133.3054169226766
 30
0.0
  0
VERTEX
  5
296
  8
LAYER_1
 10
-67.1116577685083
 20
133.2677663030902
 30
0.0
  0
VERTEX
  5
297
  8
LAYER_1
 10
-67.17703391810977
 20
133.22221320204
 30
0.0
  0
VERTEX
  5
298
  8
LAYER_1
 10
-67.23311732513469
 20
133.1687576195258
 30
0.0
  0
VERTEX
  5
299
  8
LAYER_1
 10
-67.27990798958304
 20
133.1073995555477
 30
0.0
  0
VERTEX
  5
29A
  8
LAYER_1
 10
-67.31725332278444
 20
133.0399650272504
 30
0.0
  0
VERTEX
  5
29B
  8
LAYER_1
 10
-67.34500069026709
 20
132.9682800497167
 30
0.0
  0
VERTEX
  5
29C
  8
LAYER_1
 10
-67.36315009203093
 20
132.8923446229468
 30
0.0
  0
VERTEX
  5
29D
  8
LAYER_1
 10
-67.37170152807604
 20
132.8121587469406
 30
0.0
  0
VERTEX
  5
29E
  8
LAYER_1
 10
-67.36971965003708
 20
132.6882705093595
 30
0.0
  0
VERTEX
  5
29F
  8
LAYER_1
 10
-67.34886657387293
 20
132.5768282352813
 30
0.0
  0
VERTEX
  5
2A0
  8
LAYER_1
 10
-67.30442611991856
 20
132.4762124475035
 30
0.0
  0
VERTEX
  5
2A1
  8
LAYER_1
 10
-67.23168210850892
 20
132.3848036688236
 30
0.0
  0
VERTEX
  5
2A2
  8
LAYER_1
 10
-67.18106592182205
 20
132.3419234469445
 30
0.0
  0
VERTEX
  5
2A3
  8
LAYER_1
 10
-67.12533524408917
 20
132.3058537967492
 30
0.0
  0
VERTEX
  5
2A4
  8
LAYER_1
 10
-67.06449007531026
 20
132.2765947182377
 30
0.0
  0
VERTEX
  5
2A5
  8
LAYER_1
 10
-66.99853041548529
 20
132.25414621141
 30
0.0
  0
VERTEX
  5
2A6
  8
LAYER_1
 10
-66.8548867976721
 20
132.2242109677315
 30
0.0
  0
VERTEX
  5
2A7
  8
LAYER_1
 10
-66.69802356562444
 20
132.2105781206394
 30
0.0
  0
VERTEX
  5
2A8
  8
LAYER_1
 10
-66.4729520328555
 20
132.21095923945
 30
0.0
  0
VERTEX
  5
2A9
  8
LAYER_1
 10
-66.26737008390272
 20
132.230242061478
 30
0.0
  0
SEQEND
  5
361
  8
LAYER_1
  0
POLYLINE
  5
82
  8
LAYER_1
 66
     1
 10
0.0
 20
0.0
 30
0.0
 70
     1
  0
VERTEX
  5
2AA
  8
LAYER_1
 10
-66.64765723943441
 20
132.5267604894354
 30
0.0
  0
VERTEX
  5
2AB
  8
LAYER_1
 10
-66.69014890678869
 20
132.5192686995381
 30
0.0
  0
VERTEX
  5
2AC
  8
LAYER_1
 10
-66.74135116490632
 20
132.5189405552618
 30
0.0
  0
VERTEX
  5
2AD
  8
LAYER_1
 10
-66.80225140279859
 20
132.5297114715049
 30
0.0
  0
VERTEX
  5
2AE
  8
LAYER_1
 10
-66.85350417774508
 20
132.5494294641276
 30
0.0
  0
VERTEX
  5
2AF
  8
LAYER_1
 10
-66.8951094897458
 20
132.5780945331299
 30
0.0
  0
VERTEX
  5
2B0
  8
LAYER_1
 10
-66.92706733880078
 20
132.6157066785117
 30
0.0
  0
VERTEX
  5
2B1
  8
LAYER_1
 10
-66.9503660853334
 20
132.6606880450336
 30
0.0
  0
VERTEX
  5
2B2
  8
LAYER_1
 10
-66.96599404396565
 20
132.7114607753942
 30
0.0
  0
VERTEX
  5
2B3
  8
LAYER_1
 10
-66.97395121469755
 20
132.7680248695936
 30
0.0
  0
VERTEX
  5
2B4
  8
LAYER_1
 10
-66.97423759752911
 20
132.8303803276316
 30
0.0
  0
VERTEX
  5
2B5
  8
LAYER_1
 10
-66.96655696133888
 20
132.8951750687829
 30
0.0
  0
VERTEX
  5
2B6
  8
LAYER_1
 10
-66.95048289328321
 20
132.9535963473016
 30
0.0
  0
VERTEX
  5
2B7
  8
LAYER_1
 10
-66.92601539336208
 20
133.0056441631878
 30
0.0
  0
VERTEX
  5
2B8
  8
LAYER_1
 10
-66.8931544615755
 20
133.0513185164414
 30
0.0
  0
VERTEX
  5
2B9
  8
LAYER_1
 10
-66.85263867643914
 20
133.0883249299864
 30
0.0
  0
VERTEX
  5
2BA
  8
LAYER_1
 10
-66.80520656860536
 20
133.1143689704862
 30
0.0
  0
VERTEX
  5
2BB
  8
LAYER_1
 10
-66.75085813807414
 20
133.1294506379408
 30
0.0
  0
VERTEX
  5
2BC
  8
LAYER_1
 10
-66.6895933848455
 20
133.1335699323503
 30
0.0
  0
VERTEX
  5
2BD
  8
LAYER_1
 10
-66.62047979650265
 20
133.130458558138
 30
0.0
  0
SEQEND
  5
362
  8
LAYER_1
  0
POLYLINE
  5
83
  8
LAYER_1
 66
     1
 10
0.0
 20
0.0
 30
0.0
 70
     1
  0
VERTEX
  5
2BE
  8
LAYER_1
 10
-68.51210845123718
 20
134.6631458934642
 30
0.0
  0
VERTEX
  5
2BF
  8
LAYER_1
 10
-68.84484810928325
 20
134.7763212318965
 30
0.0
  0
VERTEX
  5
2C0
  8
LAYER_1
 10
-69.38026311163715
 20
132.8197350274521
 30
0.0
  0
VERTEX
  5
2C1
  8
LAYER_1
 10
-68.98778723021252
 20
132.6862414999069
 30
0.0
  0
VERTEX
  5
2C2
  8
LAYER_1
 10
-68.60101600653813
 20
133.3289318639824
 30
0.0
  0
VERTEX
  5
2C3
  8
LAYER_1
 10
-68.41355949808366
 20
133.6515029050177
 30
0.0
  0
VERTEX
  5
2C4
  8
LAYER_1
 10
-68.25042254967181
 20
133.9585471799628
 30
0.0
  0
VERTEX
  5
2C5
  8
LAYER_1
 10
-68.24473449341929
 20
133.9566124911578
 30
0.0
  0
VERTEX
  5
2C6
  8
LAYER_1
 10
-68.29482862545608
 20
133.6099288044312
 30
0.0
  0
VERTEX
  5
2C7
  8
LAYER_1
 10
-68.33652139079544
 20
133.2389688345498
 30
0.0
  0
VERTEX
  5
2C8
  8
LAYER_1
 10
-68.41898160495943
 20
132.4927726194066
 30
0.0
  0
VERTEX
  5
2C9
  8
LAYER_1
 10
-68.0265057235348
 20
132.3592790918614
 30
0.0
  0
VERTEX
  5
2CA
  8
LAYER_1
 10
-67.235139822544
 20
134.2288082567411
 30
0.0
  0
VERTEX
  5
2CB
  8
LAYER_1
 10
-67.556515000812
 20
134.3381181742238
 30
0.0
  0
VERTEX
  5
2CC
  8
LAYER_1
 10
-67.81416480977818
 20
133.6832360672387
 30
0.0
  0
VERTEX
  5
2CD
  8
LAYER_1
 10
-67.93722677559683
 20
133.3750705595203
 30
0.0
  0
VERTEX
  5
2CE
  8
LAYER_1
 10
-68.06034555824192
 20
133.0527445283012
 30
0.0
  0
VERTEX
  5
2CF
  8
LAYER_1
 10
-68.06887764262072
 20
133.0556465615087
 30
0.0
  0
VERTEX
  5
2D0
  8
LAYER_1
 10
-68.0150102130833
 20
133.3947659558889
 30
0.0
  0
VERTEX
  5
2D1
  8
LAYER_1
 10
-67.9813295002603
 20
133.69552588049
 30
0.0
  0
VERTEX
  5
2D2
  8
LAYER_1
 10
-67.91128546612096
 20
134.4238758530601
 30
0.0
  0
VERTEX
  5
2D3
  8
LAYER_1
 10
-68.17578008186365
 20
134.5138388824927
 30
0.0
  0
VERTEX
  5
2D4
  8
LAYER_1
 10
-68.5739135267721
 20
133.8843876285837
 30
0.0
  0
VERTEX
  5
2D5
  8
LAYER_1
 10
-68.72901151447643
 20
133.6324632389364
 30
0.0
  0
VERTEX
  5
2D6
  8
LAYER_1
 10
-68.89648982736395
 20
133.3371437826366
 30
0.0
  0
VERTEX
  5
2D7
  8
LAYER_1
 10
-68.90502191174275
 20
133.3400458158441
 30
0.0
  0
VERTEX
  5
2D8
  8
LAYER_1
 10
-68.79743683230313
 20
133.6668448743968
 30
0.0
  0
VERTEX
  5
2D9
  8
LAYER_1
 10
-68.70632217183848
 20
133.9802037104103
 30
0.0
  0
SEQEND
  5
363
  8
LAYER_1
  0
POLYLINE
  5
84
  8
LAYER_1
 66
     1
 10
0.0
 20
0.0
 30
0.0
 70
     1
  0
VERTEX
  5
2DA
  8
LAYER_1
 10
-71.95862687424797
 20
133.2423723676776
 30
0.0
  0
VERTEX
  5
2DB
  8
LAYER_1
 10
-71.52056992908474
 20
133.3913694644246
 30
0.0
  0
VERTEX
  5
2DC
  8
LAYER_1
 10
-71.37048437952058
 20
132.9501124279412
 30
0.0
  0
VERTEX
  5
2DD
  8
LAYER_1
 10
-71.83129752962735
 20
132.7933752222723
 30
0.0
  0
VERTEX
  5
2DE
  8
LAYER_1
 10
-71.72112191669184
 20
132.469454867529
 30
0.0
  0
VERTEX
  5
2DF
  8
LAYER_1
 10
-70.88803147633678
 20
132.7528154175926
 30
0.0
  0
VERTEX
  5
2E0
  8
LAYER_1
 10
-71.54001471380693
 20
134.6696701183839
 30
0.0
  0
VERTEX
  5
2E1
  8
LAYER_1
 10
-72.4072394615773
 20
134.3746994049375
 30
0.0
  0
VERTEX
  5
2E2
  8
LAYER_1
 10
-72.2970638486418
 20
134.0507790501942
 30
0.0
  0
VERTEX
  5
2E3
  8
LAYER_1
 10
-71.80211639111971
 20
134.2191264192461
 30
0.0
  0
VERTEX
  5
2E4
  8
LAYER_1
 10
-71.62590797394405
 20
133.7010671910782
 30
0.0
  0
VERTEX
  5
2E5
  8
LAYER_1
 10
-72.06396491910728
 20
133.5520700943312
 30
0.0
  0
SEQEND
  5
364
  8
LAYER_1
  0
POLYLINE
  5
85
  8
LAYER_1
 66
     1
 10
0.0
 20
0.0
 30
0.0
 70
     1
  0
VERTEX
  5
2E6
  8
LAYER_1
 10
-73.65546765001608
 20
134.182293001444
 30
0.0
  0
VERTEX
  5
2E7
  8
LAYER_1
 10
-74.00364628609283
 20
134.1344766307845
 30
0.0
  0
VERTEX
  5
2E8
  8
LAYER_1
 10
-73.60617048403334
 20
132.145357979557
 30
0.0
  0
VERTEX
  5
2E9
  8
LAYER_1
 10
-73.19548388932472
 20
132.2017587474464
 30
0.0
  0
VERTEX
  5
2EA
  8
LAYER_1
 10
-73.13748193360674
 20
132.9495789592132
 30
0.0
  0
VERTEX
  5
2EB
  8
LAYER_1
 10
-73.11433102965707
 20
133.3219299651419
 30
0.0
  0
VERTEX
  5
2EC
  8
LAYER_1
 10
-73.10597080275848
 20
133.6695081463748
 30
0.0
  0
VERTEX
  5
2ED
  8
LAYER_1
 10
-73.10001882312503
 20
133.670325548808
 30
0.0
  0
VERTEX
  5
2EE
  8
LAYER_1
 10
-72.98955821939306
 20
133.3379282709525
 30
0.0
  0
VERTEX
  5
2EF
  8
LAYER_1
 10
-72.86071488065092
 20
132.9875881723561
 30
0.0
  0
VERTEX
  5
2F0
  8
LAYER_1
 10
-72.60028592597888
 20
132.2834989907645
 30
0.0
  0
VERTEX
  5
2F1
  8
LAYER_1
 10
-72.18959933127024
 20
132.339899758654
 30
0.0
  0
VERTEX
  5
2F2
  8
LAYER_1
 10
-72.31924822230467
 20
134.365799847693
 30
0.0
  0
VERTEX
  5
2F3
  8
LAYER_1
 10
-72.65553507159507
 20
134.3196166102183
 30
0.0
  0
VERTEX
  5
2F4
  8
LAYER_1
 10
-72.59263195569163
 20
133.6187180232999
 30
0.0
  0
VERTEX
  5
2F5
  8
LAYER_1
 10
-72.56465965712717
 20
133.2880834093672
 30
0.0
  0
VERTEX
  5
2F6
  8
LAYER_1
 10
-72.53039691015951
 20
132.9447626463564
 30
0.0
  0
VERTEX
  5
2F7
  8
LAYER_1
 10
-72.53932487960971
 20
132.9435365427067
 30
0.0
  0
VERTEX
  5
2F8
  8
LAYER_1
 10
-72.64302445792697
 20
133.2708604299401
 30
0.0
  0
VERTEX
  5
2F9
  8
LAYER_1
 10
-72.74759485095781
 20
133.5548478593803
 30
0.0
  0
VERTEX
  5
2FA
  8
LAYER_1
 10
-73.01113316544361
 20
134.2374208803925
 30
0.0
  0
VERTEX
  5
2FB
  8
LAYER_1
 10
-73.28790021839941
 20
134.1994116672496
 30
0.0
  0
VERTEX
  5
2FC
  8
LAYER_1
 10
-73.36198958884778
 20
133.4583402047758
 30
0.0
  0
VERTEX
  5
2FD
  8
LAYER_1
 10
-73.38784563187248
 20
133.1636438038535
 30
0.0
  0
VERTEX
  5
2FE
  8
LAYER_1
 10
-73.4053379162779
 20
132.8246044886789
 30
0.0
  0
VERTEX
  5
2FF
  8
LAYER_1
 10
-73.41426588572808
 20
132.8233783850291
 30
0.0
  0
VERTEX
  5
300
  8
LAYER_1
 10
-73.46442015111847
 20
133.1637422395201
 30
0.0
  0
VERTEX
  5
301
  8
LAYER_1
 10
-73.52328167600962
 20
133.4847137525944
 30
0.0
  0
SEQEND
  5
365
  8
LAYER_1
  0
POLYLINE
  5
86
  8
LAYER_1
 66
     1
 10
0.0
 20
0.0
 30
0.0
 70
     1
  0
VERTEX
  5
302
  8
LAYER_1
 10
-75.01741965247172
 20
133.1001103817578
 30
0.0
  0
VERTEX
  5
303
  8
LAYER_1
 10
-74.55901929581454
 20
133.0371569460982
 30
0.0
  0
VERTEX
  5
304
  8
LAYER_1
 10
-74.62243261858535
 20
132.5754078855368
 30
0.0
  0
VERTEX
  5
305
  8
LAYER_1
 10
-75.10464598078316
 20
132.6416316295424
 30
0.0
  0
VERTEX
  5
306
  8
LAYER_1
 10
-75.15119677614513
 20
132.3026683788
 30
0.0
  0
VERTEX
  5
307
  8
LAYER_1
 10
-74.27941752643103
 20
132.1829444341973
 30
0.0
  0
VERTEX
  5
308
  8
LAYER_1
 10
-74.00394514685213
 20
134.188818072784
 30
0.0
  0
VERTEX
  5
309
  8
LAYER_1
 10
-74.91144390487716
 20
134.3134474799056
 30
0.0
  0
VERTEX
  5
30A
  8
LAYER_1
 10
-74.95799470023914
 20
133.9744842291632
 30
0.0
  0
VERTEX
  5
30B
  8
LAYER_1
 10
-74.44006182973038
 20
133.9033550226387
 30
0.0
  0
VERTEX
  5
30C
  8
LAYER_1
 10
-74.5145124431688
 20
133.3612370683777
 30
0.0
  0
VERTEX
  5
30D
  8
LAYER_1
 10
-74.97291279982596
 20
133.4241905040373
 30
0.0
  0
SEQEND
  5
366
  8
LAYER_1
  0
POLYLINE
  5
87
  8
LAYER_1
 66
     1
 10
0.0
 20
0.0
 30
0.0
 70
     1
  0
VERTEX
  5
30E
  8
LAYER_1
 10
-74.9429638103246
 20
134.2856881957394
 30
0.0
  0
VERTEX
  5
30F
  8
LAYER_1
 10
-75.31524110057289
 20
134.412311540134
 30
0.0
  0
VERTEX
  5
310
  8
LAYER_1
 10
-75.57550227783567
 20
133.6471341055033
 30
0.0
  0
VERTEX
  5
311
  8
LAYER_1
 10
-75.629607641271
 20
133.6655370600947
 30
0.0
  0
VERTEX
  5
312
  8
LAYER_1
 10
-75.67241563554512
 20
133.6832214403344
 30
0.0
  0
VERTEX
  5
313
  8
LAYER_1
 10
-75.70702451769762
 20
133.70793539084
 30
0.0
  0
VERTEX
  5
314
  8
LAYER_1
 10
-75.73343428772851
 20
133.7396789116117
 30
0.0
  0
VERTEX
  5
315
  8
LAYER_1
 10
-75.75164494563779
 20
133.7784520026494
 30
0.0
  0
VERTEX
  5
316
  8
LAYER_1
 10
-75.76177454170369
 20
133.8269725511844
 30
0.0
  0
VERTEX
  5
317
  8
LAYER_1
 10
-75.76394112620443
 20
133.8879584444478
 30
0.0
  0
VERTEX
  5
318
  8
LAYER_1
 10
-75.7443852605104
 20
134.0473262651599
 30
0.0
  0
VERTEX
  5
319
  8
LAYER_1
 10
-75.69563957025164
 20
134.3516773425849
 30
0.0
  0
VERTEX
  5
31A
  8
LAYER_1
 10
-75.68249741420553
 20
134.5372270907204
 30
0.0
  0
VERTEX
  5
31B
  8
LAYER_1
 10
-76.07188491494573
 20
134.6696701617879
 30
0.0
  0
VERTEX
  5
31C
  8
LAYER_1
 10
-76.07124222236739
 20
134.5787061782761
 30
0.0
  0
VERTEX
  5
31D
  8
LAYER_1
 10
-76.08219756527679
 20
134.4422978088186
 30
0.0
  0
VERTEX
  5
31E
  8
LAYER_1
 10
-76.12668485527367
 20
134.1075391432032
 30
0.0
  0
VERTEX
  5
31F
  8
LAYER_1
 10
-76.1401108725435
 20
133.957807918555
 30
0.0
  0
VERTEX
  5
320
  8
LAYER_1
 10
-76.12924909556239
 20
133.8331665141715
 30
0.0
  0
VERTEX
  5
321
  8
LAYER_1
 10
-76.11393626755884
 20
133.7796899966252
 30
0.0
  0
VERTEX
  5
322
  8
LAYER_1
 10
-76.0910033994877
 20
133.7313569668785
 30
0.0
  0
VERTEX
  5
323
  8
LAYER_1
 10
-76.06045049134897
 20
133.6881674249313
 30
0.0
  0
VERTEX
  5
324
  8
LAYER_1
 10
-76.02227754314268
 20
133.6501213707836
 30
0.0
  0
VERTEX
  5
325
  8
LAYER_1
 10
-76.0242101787532
 20
133.6444393509983
 30
0.0
  0
VERTEX
  5
326
  8
LAYER_1
 10
-76.10641716907651
 20
133.629126558549
 30
0.0
  0
VERTEX
  5
327
  8
LAYER_1
 10
-76.18190665652416
 20
133.603632022377
 30
0.0
  0
VERTEX
  5
328
  8
LAYER_1
 10
-76.25067864109614
 20
133.5679557424821
 30
0.0
  0
VERTEX
  5
329
  8
LAYER_1
 10
-76.31273312279244
 20
133.5220977188646
 30
0.0
  0
VERTEX
  5
32A
  8
LAYER_1
 10
-76.36741393998798
 20
133.4677687448269
 30
0.0
  0
VERTEX
  5
32B
  8
LAYER_1
 10
-76.41406488765368
 20
133.4066795989088
 30
0.0
  0
VERTEX
  5
32C
  8
LAYER_1
 10
-76.45268596578951
 20
133.3388302811102
 30
0.0
  0
VERTEX
  5
32D
  8
LAYER_1
 10
-76.4832771743955
 20
133.2642207914312
 30
0.0
  0
VERTEX
  5
32E
  8
LAYER_1
 10
-76.51595142909639
 20
133.1447074992607
 30
0.0
  0
VERTEX
  5
32F
  8
LAYER_1
 10
-76.52703147633679
 20
133.0318781237319
 30
0.0
  0
VERTEX
  5
330
  8
LAYER_1
 10
-76.51244073628973
 20
132.9228613188749
 30
0.0
  0
VERTEX
  5
331
  8
LAYER_1
 10
-76.46810262912832
 20
132.8147857387199
 30
0.0
  0
VERTEX
  5
332
  8
LAYER_1
 10
-76.43146777962612
 20
132.7594842137404
 30
0.0
  0
VERTEX
  5
333
  8
LAYER_1
 10
-76.3880210504145
 20
132.7092948879329
 30
0.0
  0
VERTEX
  5
334
  8
LAYER_1
 10
-76.33776244149348
 20
132.6642177612976
 30
0.0
  0
VERTEX
  5
335
  8
LAYER_1
 10
-76.28069195286305
 20
132.6242528338342
 30
0.0
  0
VERTEX
  5
336
  8
LAYER_1
 10
-76.15111721169652
 20
132.5554173319419
 30
0.0
  0
VERTEX
  5
337
  8
LAYER_1
 10
-76.00429870213735
 20
132.4985461377741
 30
0.0
  0
VERTEX
  5
338
  8
LAYER_1
 10
-75.78807380815122
 20
132.4360944688846
 30
0.0
  0
VERTEX
  5
339
  8
LAYER_1
 10
-75.58528775243383
 20
132.3972321786179
 30
0.0
  0
SEQEND
  5
367
  8
LAYER_1
  0
POLYLINE
  5
88
  8
LAYER_1
 66
     1
 10
0.0
 20
0.0
 30
0.0
 70
     1
  0
VERTEX
  5
33A
  8
LAYER_1
 10
-75.8676891456492
 20
132.788093966295
 30
0.0
  0
VERTEX
  5
33B
  8
LAYER_1
 10
-75.91058152192996
 20
132.7927596436571
 30
0.0
  0
VERTEX
  5
33C
  8
LAYER_1
 10
-75.95983861602005
 20
132.8067351396935
 30
0.0
  0
VERTEX
  5
33D
  8
LAYER_1
 10
-76.01531016293032
 20
132.8340749053637
 30
0.0
  0
VERTEX
  5
33E
  8
LAYER_1
 10
-76.05902087307761
 20
132.8673132322054
 30
0.0
  0
VERTEX
  5
33F
  8
LAYER_1
 10
-76.09097074646195
 20
132.9064501202188
 30
0.0
  0
VERTEX
  5
340
  8
LAYER_1
 10
-76.1111597830833
 20
132.9514855694038
 30
0.0
  0
VERTEX
  5
341
  8
LAYER_1
 10
-76.12097740840106
 20
133.0011803413531
 30
0.0
  0
VERTEX
  5
342
  8
LAYER_1
 10
-76.1218130044706
 20
133.0542951828963
 30
0.0
  0
VERTEX
  5
343
  8
LAYER_1
 10
-76.11366657129193
 20
133.1108300940334
 30
0.0
  0
VERTEX
  5
344
  8
LAYER_1
 10
-76.09653810886502
 20
133.1707850747645
 30
0.0
  0
VERTEX
  5
345
  8
LAYER_1
 10
-76.07107873785156
 20
133.2308587068074
 30
0.0
  0
VERTEX
  5
346
  8
LAYER_1
 10
-76.03933865117676
 20
133.2824697901431
 30
0.0
  0
VERTEX
  5
347
  8
LAYER_1
 10
-76.00131784884066
 20
133.3256183247717
 30
0.0
  0
VERTEX
  5
348
  8
LAYER_1
 10
-75.95701633084322
 20
133.3603043106933
 30
0.0
  0
VERTEX
  5
349
  8
LAYER_1
 10
-75.90778368635941
 20
133.384530679499
 30
0.0
  0
VERTEX
  5
34A
  8
LAYER_1
 10
-75.85496944639709
 20
133.3963003914211
 30
0.0
  0
VERTEX
  5
34B
  8
LAYER_1
 10
-75.79857361095625
 20
133.3956134464596
 30
0.0
  0
VERTEX
  5
34C
  8
LAYER_1
 10
-75.73859618003688
 20
133.3824698446145
 30
0.0
  0
VERTEX
  5
34D
  8
LAYER_1
 10
-75.67310021377304
 20
133.3601925837933
 30
0.0
  0
SEQEND
  5
368
  8
LAYER_1
  0
ENDSEC
  0
EOF
