  0
SECTION
  2
HEADER
  9
$ACADVER
  1
AC1009
  9
$DWGCODEPAGE
  3
ansi_1252
  9
$INSBASE
 10
0.0
 20
0.0
 30
0.0
  9
$EXTMIN
 10
-76.57488816877898
 20
126.4304349612457
 30
0.0
  9
$EXTMAX
 10
-39.30492238787226
 20
129.9975019160761
 30
0.0
  9
$LIMMIN
 10
0.0
 20
0.0
  9
$LIMMAX
 10
12.0
 20
9.0
  9
$ORTHOMODE
 70
     0
  9
$REGENMODE
 70
     1
  9
$FILLMODE
 70
     1
  9
$QTEXTMODE
 70
     0
  9
$MIRRTEXT
 70
     1
  9
$DRAGMODE
 70
     2
  9
$LTSCALE
 40
1.0
  9
$OSMODE
 70
    37
  9
$ATTMODE
 70
     1
  9
$TEXTSIZE
 40
0.2
  9
$TRACEWID
 40
0.05
  9
$TEXTSTYLE
  7
STANDARD
  9
$CLAYER
  8
0
  9
$CELTYPE
  6
BYLAYER
  9
$CECOLOR
 62
   256
  9
$DIMSCALE
 40
1.0
  9
$DIMASZ
 40
0.18
  9
$DIMEXO
 40
0.0625
  9
$DIMDLI
 40
0.38
  9
$DIMRND
 40
0.0
  9
$DIMDLE
 40
0.0
  9
$DIMEXE
 40
0.18
  9
$DIMTP
 40
0.0
  9
$DIMTM
 40
0.0
  9
$DIMTXT
 40
0.18
  9
$DIMCEN
 40
0.09
  9
$DIMTSZ
 40
0.0
  9
$DIMTOL
 70
     0
  9
$DIMLIM
 70
     0
  9
$DIMTIH
 70
     1
  9
$DIMTOH
 70
     1
  9
$DIMSE1
 70
     0
  9
$DIMSE2
 70
     0
  9
$DIMTAD
 70
     0
  9
$DIMZIN
 70
     0
  9
$DIMBLK
  1

  9
$DIMASO
 70
     1
  9
$DIMSHO
 70
     1
  9
$DIMPOST
  1

  9
$DIMAPOST
  1

  9
$DIMALT
 70
     0
  9
$DIMALTD
 70
     2
  9
$DIMALTF
 40
25.4
  9
$DIMLFAC
 40
1.0
  9
$DIMTOFL
 70
     0
  9
$DIMTVP
 40
0.0
  9
$DIMTIX
 70
     0
  9
$DIMSOXD
 70
     0
  9
$DIMSAH
 70
     0
  9
$DIMBLK1
  1

  9
$DIMBLK2
  1

  9
$DIMSTYLE
  2
STANDARD
  9
$DIMCLRD
 70
     0
  9
$DIMCLRE
 70
     0
  9
$DIMCLRT
 70
     0
  9
$DIMTFAC
 40
1.0
  9
$DIMGAP
 40
0.09
  9
$LUNITS
 70
     2
  9
$LUPREC
 70
     4
  9
$SKETCHINC
 40
0.1
  9
$FILLETRAD
 40
0.5
  9
$AUNITS
 70
     0
  9
$AUPREC
 70
     0
  9
$MENU
  1
.
  9
$ELEVATION
 40
0.0
  9
$PELEVATION
 40
0.0
  9
$THICKNESS
 40
0.0
  9
$LIMCHECK
 70
     0
  9
$CHAMFERA
 40
0.0
  9
$CHAMFERB
 40
0.0
  9
$SKPOLY
 70
     0
  9
$TDCREATE
 40
2454910.5
  9
$TDUPDATE
 40
2458014.855743438
  9
$TDINDWG
 40
0.0000000116
  9
$TDUSRTIMER
 40
0.0000000116
  9
$USRTIMER
 70
     1
  9
$ANGBASE
 50
0.0
  9
$ANGDIR
 70
     0
  9
$PDMODE
 70
     0
  9
$PDSIZE
 40
0.0
  9
$PLINEWID
 40
0.0
  9
$COORDS
 70
     1
  9
$SPLFRAME
 70
     0
  9
$SPLINETYPE
 70
     6
  9
$SPLINESEGS
 70
     8
  9
$ATTDIA
 70
     0
  9
$ATTREQ
 70
     1
  9
$HANDLING
 70
     1
  9
$HANDSEED
  5
3B3
  9
$SURFTAB1
 70
     6
  9
$SURFTAB2
 70
     6
  9
$SURFTYPE
 70
     6
  9
$SURFU
 70
     6
  9
$SURFV
 70
     6
  9
$UCSNAME
  2

  9
$UCSORG
 10
0.0
 20
0.0
 30
0.0
  9
$UCSXDIR
 10
1.0
 20
0.0
 30
0.0
  9
$UCSYDIR
 10
0.0
 20
1.0
 30
0.0
  9
$PUCSNAME
  2

  9
$PUCSORG
 10
0.0
 20
0.0
 30
0.0
  9
$PUCSXDIR
 10
1.0
 20
0.0
 30
0.0
  9
$PUCSYDIR
 10
0.0
 20
1.0
 30
0.0
  9
$USERI1
 70
     0
  9
$USERI2
 70
     0
  9
$USERI3
 70
     0
  9
$USERI4
 70
     0
  9
$USERI5
 70
     0
  9
$USERR1
 40
0.0
  9
$USERR2
 40
0.0
  9
$USERR3
 40
0.0
  9
$USERR4
 40
0.0
  9
$USERR5
 40
0.0
  9
$WORLDVIEW
 70
     1
  9
$SHADEDGE
 70
     3
  9
$SHADEDIF
 70
    70
  9
$TILEMODE
 70
     1
  9
$MAXACTVP
 70
    64
  9
$PLIMCHECK
 70
     0
  9
$PEXTMIN
 10
1.000000000000000E+20
 20
1.000000000000000E+20
 30
1.000000000000000E+20
  9
$PEXTMAX
 10
-1.000000000000000E+20
 20
-1.000000000000000E+20
 30
-1.000000000000000E+20
  9
$PLIMMIN
 10
0.0
 20
0.0
  9
$PLIMMAX
 10
12.0
 20
9.0
  9
$UNITMODE
 70
     0
  9
$VISRETAIN
 70
     1
  9
$PLINEGEN
 70
     0
  9
$PSLTSCALE
 70
     1
  0
ENDSEC
  0
SECTION
  2
TABLES
  0
TABLE
  2
VPORT
 70
     1
  0
VPORT
  2
*ACTIVE
 70
     0
 10
0.0
 20
0.0
 11
1.0
 21
1.0
 12
10.42990654205607
 22
4.5
 13
0.0
 23
0.0
 14
0.5
 24
0.5
 15
0.5
 25
0.5
 16
0.0
 26
0.0
 36
1.0
 17
0.0
 27
0.0
 37
0.0
 40
9.0
 41
1.972972972850329
 42
50.0
 43
0.0
 44
0.0
 50
0.0
 51
0.0
 71
     0
 72
   100
 73
     1
 74
     3
 75
     0
 76
     0
 77
     0
 78
     0
  0
ENDTAB
  0
TABLE
  2
LTYPE
 70
     2
  0
LTYPE
  2
CONTINUOUS
 70
     0
  3
Solid line
 72
    65
 73
     0
 40
0.0
  0
LTYPE
  2
CONTINUOUS2
 70
     0
  3
Solid Line
 72
    65
 73
     0
 40
0.0
  0
ENDTAB
  0
TABLE
  2
LAYER
 70
     2
  0
LAYER
  2
0
 70
     0
 62
     7
  6
CONTINUOUS
  0
LAYER
  2
LAYER_1
 70
     0
 62
    18
  6
CONTINUOUS
  0
ENDTAB
  0
TABLE
  2
STYLE
 70
     1
  0
STYLE
  2
STANDARD
 70
     0
 40
0.0
 41
1.0
 50
0.0
 71
     0
 42
0.2
  3
txt
  4

  0
ENDTAB
  0
TABLE
  2
VIEW
 70
     0
  0
ENDTAB
  0
TABLE
  2
UCS
 70
     0
  0
ENDTAB
  0
TABLE
  2
APPID
 70
     1
  0
APPID
  2
ACAD
 70
     0
  0
ENDTAB
  0
TABLE
  2
DIMSTYLE
 70
     1
  0
DIMSTYLE
  2
STANDARD
 70
     0
  3

  4

  5

  6

  7

 40
1.0
 41
0.18
 42
0.0625
 43
0.38
 44
0.18
 45
0.0
 46
0.0
 47
0.0
 48
0.0
140
0.18
141
0.09
142
0.0
143
25.4
144
1.0
145
0.0
146
1.0
147
0.09
 71
     0
 72
     0
 73
     1
 74
     1
 75
     0
 76
     0
 77
     0
 78
     0
170
     0
171
     2
172
     0
173
     0
174
     0
175
     0
176
     0
177
     0
178
     0
  0
ENDTAB
  0
ENDSEC
  0
SECTION
  2
BLOCKS
  0
BLOCK
  8
0
  2
$MODEL_SPACE
 70
     0
 10
0.0
 20
0.0
 30
0.0
  3
$MODEL_SPACE
  1

  0
ENDBLK
  5
21
  8
0
  0
BLOCK
 67
     1
  8
0
  2
$PAPER_SPACE
 70
     0
 10
0.0
 20
0.0
 30
0.0
  3
$PAPER_SPACE
  1

  0
ENDBLK
  5
1D
 67
     1
  8
0
  0
ENDSEC
  0
SECTION
  2
ENTITIES
  0
POLYLINE
  5
70
  8
LAYER_1
 66
     1
 10
0.0
 20
0.0
 30
0.0
 70
     1
  0
VERTEX
  5
90
  8
LAYER_1
 10
-39.89975169694612
 20
129.9975019160761
 30
0.0
  0
VERTEX
  5
91
  8
LAYER_1
 10
-40.90192551031159
 20
129.7619314196717
 30
0.0
  0
VERTEX
  5
92
  8
LAYER_1
 10
-40.84466036387884
 20
129.5183116495842
 30
0.0
  0
VERTEX
  5
93
  8
LAYER_1
 10
-40.13116893703317
 20
129.6860246025279
 30
0.0
  0
VERTEX
  5
94
  8
LAYER_1
 10
-39.59360477439206
 20
127.3990967612857
 30
0.0
  0
VERTEX
  5
95
  8
LAYER_1
 10
-39.30492238787226
 20
127.4669543047464
 30
0.0
  0
SEQEND
  5
39A
  8
LAYER_1
  0
POLYLINE
  5
71
  8
LAYER_1
 66
     1
 10
0.0
 20
0.0
 30
0.0
 70
     1
  0
VERTEX
  5
96
  8
LAYER_1
 10
-41.3219291241071
 20
127.0820836471639
 30
0.0
  0
VERTEX
  5
97
  8
LAYER_1
 10
-41.23782069187645
 20
127.0916932822467
 30
0.0
  0
VERTEX
  5
98
  8
LAYER_1
 10
-41.15857544608518
 20
127.1116009583803
 30
0.0
  0
VERTEX
  5
99
  8
LAYER_1
 10
-41.08419338673328
 20
127.1418066755646
 30
0.0
  0
VERTEX
  5
9A
  8
LAYER_1
 10
-41.01467451382075
 20
127.1823104337997
 30
0.0
  0
VERTEX
  5
9B
  8
LAYER_1
 10
-40.9500188273476
 20
127.2331122330855
 30
0.0
  0
VERTEX
  5
9C
  8
LAYER_1
 10
-40.89022632731381
 20
127.294212073422
 30
0.0
  0
VERTEX
  5
9D
  8
LAYER_1
 10
-40.83529701371939
 20
127.3656099548093
 30
0.0
  0
VERTEX
  5
9E
  8
LAYER_1
 10
-40.78523088656434
 20
127.4473058772474
 30
0.0
  0
VERTEX
  5
9F
  8
LAYER_1
 10
-40.74095014557768
 20
127.5388347646369
 30
0.0
  0
VERTEX
  5
A0
  8
LAYER_1
 10
-40.70337696241087
 20
127.6397315716032
 30
0.0
  0
VERTEX
  5
A1
  8
LAYER_1
 10
-40.67251133706392
 20
127.7499962981463
 30
0.0
  0
VERTEX
  5
A2
  8
LAYER_1
 10
-40.64835326953683
 20
127.8696289442663
 30
0.0
  0
VERTEX
  5
A3
  8
LAYER_1
 10
-40.6309027598296
 20
127.9986295099632
 30
0.0
  0
VERTEX
  5
A4
  8
LAYER_1
 10
-40.62015980794222
 20
128.1369979952368
 30
0.0
  0
VERTEX
  5
A5
  8
LAYER_1
 10
-40.61879657762705
 20
128.4418387245147
 30
0.0
  0
VERTEX
  5
A6
  8
LAYER_1
 10
-40.64679022200033
 20
128.749944798033
 30
0.0
  0
VERTEX
  5
A7
  8
LAYER_1
 10
-40.69662857286968
 20
129.0169398717109
 30
0.0
  0
VERTEX
  5
A8
  8
LAYER_1
 10
-40.72973951324038
 20
129.1350207836096
 30
0.0
  0
VERTEX
  5
A9
  8
LAYER_1
 10
-40.7683116302351
 20
129.2428239455483
 30
0.0
  0
VERTEX
  5
AA
  8
LAYER_1
 10
-40.81234492385384
 20
129.3403493575268
 30
0.0
  0
VERTEX
  5
AB
  8
LAYER_1
 10
-40.86183939409661
 20
129.4275970195453
 30
0.0
  0
VERTEX
  5
AC
  8
LAYER_1
 10
-40.91593254926101
 20
129.5043631818708
 30
0.0
  0
VERTEX
  5
AD
  8
LAYER_1
 10
-40.97376189764469
 20
129.5704440947708
 30
0.0
  0
VERTEX
  5
AE
  8
LAYER_1
 10
-41.03532743924765
 20
129.625839758245
 30
0.0
  0
VERTEX
  5
AF
  8
LAYER_1
 10
-41.10062917406988
 20
129.6705501722937
 30
0.0
  0
VERTEX
  5
B0
  8
LAYER_1
 10
-41.16966710211138
 20
129.7045753369167
 30
0.0
  0
VERTEX
  5
B1
  8
LAYER_1
 10
-41.24244122337215
 20
129.7279152521141
 30
0.0
  0
VERTEX
  5
B2
  8
LAYER_1
 10
-41.31895153785221
 20
129.7405699178859
 30
0.0
  0
VERTEX
  5
B3
  8
LAYER_1
 10
-41.39919804555154
 20
129.742539334232
 30
0.0
  0
VERTEX
  5
B4
  8
LAYER_1
 10
-41.47741163623252
 20
129.7357522401231
 30
0.0
  0
VERTEX
  5
B5
  8
LAYER_1
 10
-41.55177440668664
 20
129.7190288058444
 30
0.0
  0
VERTEX
  5
B6
  8
LAYER_1
 10
-41.62228635691389
 20
129.6923690313959
 30
0.0
  0
VERTEX
  5
B7
  8
LAYER_1
 10
-41.68894748691426
 20
129.6557729167776
 30
0.0
  0
VERTEX
  5
B8
  8
LAYER_1
 10
-41.75175779668776
 20
129.6092404619894
 30
0.0
  0
VERTEX
  5
B9
  8
LAYER_1
 10
-41.81071728623438
 20
129.5527716670314
 30
0.0
  0
VERTEX
  5
BA
  8
LAYER_1
 10
-41.86582595555412
 20
129.4863665319036
 30
0.0
  0
VERTEX
  5
BB
  8
LAYER_1
 10
-41.91708380464699
 20
129.410025056606
 30
0.0
  0
VERTEX
  5
BC
  8
LAYER_1
 10
-41.96294714655666
 20
129.3224751314992
 30
0.0
  0
VERTEX
  5
BD
  8
LAYER_1
 10
-42.00187226624926
 20
129.2224446776687
 30
0.0
  0
VERTEX
  5
BE
  8
LAYER_1
 10
-42.03385916372481
 20
129.1099336951144
 30
0.0
  0
VERTEX
  5
BF
  8
LAYER_1
 10
-42.05890783898332
 20
128.9849421838365
 30
0.0
  0
VERTEX
  5
C0
  8
LAYER_1
 10
-42.07701829202475
 20
128.8474701438347
 30
0.0
  0
VERTEX
  5
C1
  8
LAYER_1
 10
-42.08819052284912
 20
128.6975175751093
 30
0.0
  0
VERTEX
  5
C2
  8
LAYER_1
 10
-42.08972031784669
 20
128.3601708514872
 30
0.0
  0
VERTEX
  5
C3
  8
LAYER_1
 10
-42.06365247442126
 20
128.0657381319749
 30
0.0
  0
VERTEX
  5
C4
  8
LAYER_1
 10
-42.01635698789255
 20
127.8080437976163
 30
0.0
  0
VERTEX
  5
C5
  8
LAYER_1
 10
-41.98474887846447
 20
127.6929735248696
 30
0.0
  0
VERTEX
  5
C6
  8
LAYER_1
 10
-41.94783385826057
 20
127.5870878484114
 30
0.0
  0
VERTEX
  5
C7
  8
LAYER_1
 10
-41.90561192728085
 20
127.4903867682415
 30
0.0
  0
VERTEX
  5
C8
  8
LAYER_1
 10
-41.85808308552532
 20
127.40287028436
 30
0.0
  0
VERTEX
  5
C9
  8
LAYER_1
 10
-41.80579618216156
 20
127.3252993171917
 30
0.0
  0
VERTEX
  5
CA
  8
LAYER_1
 10
-41.74930003827966
 20
127.2584348178859
 30
0.0
  0
VERTEX
  5
CB
  8
LAYER_1
 10
-41.68859465387961
 20
127.2022767864426
 30
0.0
  0
VERTEX
  5
CC
  8
LAYER_1
 10
-41.6236800289614
 20
127.1568252228618
 30
0.0
  0
VERTEX
  5
CD
  8
LAYER_1
 10
-41.55455616352506
 20
127.1220801271435
 30
0.0
  0
VERTEX
  5
CE
  8
LAYER_1
 10
-41.48122305757055
 20
127.0980414992878
 30
0.0
  0
VERTEX
  5
CF
  8
LAYER_1
 10
-41.40368071109791
 20
127.0847093392946
 30
0.0
  0
SEQEND
  5
39B
  8
LAYER_1
  0
POLYLINE
  5
72
  8
LAYER_1
 66
     1
 10
0.0
 20
0.0
 30
0.0
 70
     1
  0
VERTEX
  5
D0
  8
LAYER_1
 10
-41.30671356129466
 20
127.3448661559709
 30
0.0
  0
VERTEX
  5
D1
  8
LAYER_1
 10
-41.38670627367752
 20
127.3540231618837
 30
0.0
  0
VERTEX
  5
D2
  8
LAYER_1
 10
-41.45825070184635
 20
127.3829257318615
 30
0.0
  0
VERTEX
  5
D3
  8
LAYER_1
 10
-41.52134684580118
 20
127.4315738659041
 30
0.0
  0
VERTEX
  5
D4
  8
LAYER_1
 10
-41.57599470554199
 20
127.4999675640118
 30
0.0
  0
VERTEX
  5
D5
  8
LAYER_1
 10
-41.62311168120601
 20
127.5834522301671
 30
0.0
  0
VERTEX
  5
D6
  8
LAYER_1
 10
-41.66361511677539
 20
127.6773733298024
 30
0.0
  0
VERTEX
  5
D7
  8
LAYER_1
 10
-41.69750501225011
 20
127.7817308629177
 30
0.0
  0
VERTEX
  5
D8
  8
LAYER_1
 10
-41.72478136763021
 20
127.896524829513
 30
0.0
  0
VERTEX
  5
D9
  8
LAYER_1
 10
-41.76316298515254
 20
128.1388036823836
 30
0.0
  0
VERTEX
  5
DA
  8
LAYER_1
 10
-41.78242950168281
 20
128.385591625259
 30
0.0
  0
VERTEX
  5
DB
  8
LAYER_1
 10
-41.78584676456727
 20
128.6422845494586
 30
0.0
  0
VERTEX
  5
DC
  8
LAYER_1
 10
-41.76974503698928
 20
128.8921314991769
 30
0.0
  0
VERTEX
  5
DD
  8
LAYER_1
 10
-41.75308146758501
 20
129.0102007642961
 30
0.0
  0
VERTEX
  5
DE
  8
LAYER_1
 10
-41.72895198482856
 20
129.1179846559781
 30
0.0
  0
VERTEX
  5
DF
  8
LAYER_1
 10
-41.69735658871994
 20
129.2154831742231
 30
0.0
  0
VERTEX
  5
E0
  8
LAYER_1
 10
-41.65829527925916
 20
129.3026963190308
 30
0.0
  0
VERTEX
  5
E1
  8
LAYER_1
 10
-41.61047501635602
 20
129.3753371191066
 30
0.0
  0
VERTEX
  5
E2
  8
LAYER_1
 10
-41.55260270376528
 20
129.4291186646049
 30
0.0
  0
VERTEX
  5
E3
  8
LAYER_1
 10
-41.48467834148693
 20
129.4640409555256
 30
0.0
  0
VERTEX
  5
E4
  8
LAYER_1
 10
-41.40670192952098
 20
129.4801039918688
 30
0.0
  0
VERTEX
  5
E5
  8
LAYER_1
 10
-41.3290364185594
 20
129.4718836369411
 30
0.0
  0
VERTEX
  5
E6
  8
LAYER_1
 10
-41.2590264352513
 20
129.4447846918729
 30
0.0
  0
VERTEX
  5
E7
  8
LAYER_1
 10
-41.19667197959666
 20
129.3988071566641
 30
0.0
  0
VERTEX
  5
E8
  8
LAYER_1
 10
-41.14197305159549
 20
129.3339510313148
 30
0.0
  0
VERTEX
  5
E9
  8
LAYER_1
 10
-41.09426465932273
 20
129.253920860777
 30
0.0
  0
VERTEX
  5
EA
  8
LAYER_1
 10
-41.05288181085334
 20
129.1624211900029
 30
0.0
  0
VERTEX
  5
EB
  8
LAYER_1
 10
-41.01782450618732
 20
129.0594520189925
 30
0.0
  0
VERTEX
  5
EC
  8
LAYER_1
 10
-40.98909274532466
 20
128.9450133477458
 30
0.0
  0
VERTEX
  5
ED
  8
LAYER_1
 10
-40.94794594214074
 20
128.6965455935012
 30
0.0
  0
VERTEX
  5
EE
  8
LAYER_1
 10
-40.9267814937272
 20
128.4318361338316
 30
0.0
  0
VERTEX
  5
EF
  8
LAYER_1
 10
-40.92417774653292
 20
128.1689737512535
 30
0.0
  0
VERTEX
  5
F0
  8
LAYER_1
 10
-40.94274099105039
 20
127.9185702478078
 30
0.0
  0
VERTEX
  5
F1
  8
LAYER_1
 10
-40.96093585537113
 20
127.8018320891905
 30
0.0
  0
VERTEX
  5
F2
  8
LAYER_1
 10
-40.98637370795998
 20
127.6957916772179
 30
0.0
  0
VERTEX
  5
F3
  8
LAYER_1
 10
-41.01905454881695
 20
127.60044901189
 30
0.0
  0
VERTEX
  5
F4
  8
LAYER_1
 10
-41.05897837794206
 20
127.515804093207
 30
0.0
  0
VERTEX
  5
F5
  8
LAYER_1
 10
-41.10712081934597
 20
127.4456484381092
 30
0.0
  0
VERTEX
  5
F6
  8
LAYER_1
 10
-41.16445749703938
 20
127.3937735635373
 30
0.0
  0
VERTEX
  5
F7
  8
LAYER_1
 10
-41.23098841102228
 20
127.3601794694912
 30
0.0
  0
SEQEND
  5
39C
  8
LAYER_1
  0
POLYLINE
  5
73
  8
LAYER_1
 66
     1
 10
0.0
 20
0.0
 30
0.0
 70
     1
  0
VERTEX
  5
F8
  8
LAYER_1
 10
-42.70004902026398
 20
129.7043199749187
 30
0.0
  0
VERTEX
  5
F9
  8
LAYER_1
 10
-43.12656069845768
 20
128.4979041189487
 30
0.0
  0
VERTEX
  5
FA
  8
LAYER_1
 10
-43.26447478285586
 20
128.0818757519386
 30
0.0
  0
VERTEX
  5
FB
  8
LAYER_1
 10
-43.38556616257208
 20
127.6607819156179
 30
0.0
  0
VERTEX
  5
FC
  8
LAYER_1
 10
-43.39320803822027
 20
127.6618313963174
 30
0.0
  0
VERTEX
  5
FD
  8
LAYER_1
 10
-43.39239637771625
 20
128.0964931970802
 30
0.0
  0
VERTEX
  5
FE
  8
LAYER_1
 10
-43.40709569492692
 20
128.5245120521938
 30
0.0
  0
VERTEX
  5
FF
  8
LAYER_1
 10
-43.48334127420431
 20
129.8118917466136
 30
0.0
  0
VERTEX
  5
100
  8
LAYER_1
 10
-43.76991161101174
 20
129.8512472728434
 30
0.0
  0
VERTEX
  5
101
  8
LAYER_1
 10
-44.62412102240432
 20
127.3446411400842
 30
0.0
  0
VERTEX
  5
102
  8
LAYER_1
 10
-44.33756368971963
 20
127.3052873997479
 30
0.0
  0
VERTEX
  5
103
  8
LAYER_1
 10
-43.95515170562453
 20
128.5024070618535
 30
0.0
  0
VERTEX
  5
104
  8
LAYER_1
 10
-43.82261045689921
 20
128.9360066686623
 30
0.0
  0
VERTEX
  5
105
  8
LAYER_1
 10
-43.68792575655858
 20
129.427734565573
 30
0.0
  0
VERTEX
  5
106
  8
LAYER_1
 10
-43.67646294308629
 20
129.4261603445238
 30
0.0
  0
VERTEX
  5
107
  8
LAYER_1
 10
-43.68223357474784
 20
129.1635640175276
 30
0.0
  0
VERTEX
  5
108
  8
LAYER_1
 10
-43.67919395787482
 20
128.9172845507704
 30
0.0
  0
VERTEX
  5
109
  8
LAYER_1
 10
-43.65921850979659
 20
128.4461863322861
 30
0.0
  0
VERTEX
  5
10A
  8
LAYER_1
 10
-43.5886598761962
 20
127.2024382912007
 30
0.0
  0
VERTEX
  5
10B
  8
LAYER_1
 10
-43.33647797980565
 20
127.1678054281185
 30
0.0
  0
VERTEX
  5
10C
  8
LAYER_1
 10
-42.92956540292711
 20
128.373244884842
 30
0.0
  0
VERTEX
  5
10D
  8
LAYER_1
 10
-42.77743829114663
 20
128.8289843527546
 30
0.0
  0
VERTEX
  5
10E
  8
LAYER_1
 10
-42.70930191953072
 20
129.0522830492476
 30
0.0
  0
VERTEX
  5
10F
  8
LAYER_1
 10
-42.64863066840361
 20
129.2850051904462
 30
0.0
  0
VERTEX
  5
110
  8
LAYER_1
 10
-42.63334691710722
 20
129.2829062290473
 30
0.0
  0
VERTEX
  5
111
  8
LAYER_1
 10
-42.64229085923856
 20
128.8138321120642
 30
0.0
  0
VERTEX
  5
112
  8
LAYER_1
 10
-42.63482820185853
 20
128.3366626234848
 30
0.0
  0
VERTEX
  5
113
  8
LAYER_1
 10
-42.58757416628222
 20
127.0649563195712
 30
0.0
  0
VERTEX
  5
114
  8
LAYER_1
 10
-42.28189914035428
 20
127.0229770915928
 30
0.0
  0
VERTEX
  5
115
  8
LAYER_1
 10
-42.42494149692884
 20
129.6665386697381
 30
0.0
  0
SEQEND
  5
39D
  8
LAYER_1
  0
POLYLINE
  5
74
  8
LAYER_1
 66
     1
 10
0.0
 20
0.0
 30
0.0
 70
     1
  0
VERTEX
  5
116
  8
LAYER_1
 10
-61.28471270498986
 20
129.5762702935635
 30
0.0
  0
VERTEX
  5
117
  8
LAYER_1
 10
-60.99533479270763
 20
128.7254885869421
 30
0.0
  0
VERTEX
  5
118
  8
LAYER_1
 10
-60.76500343214044
 20
128.0692325294486
 30
0.0
  0
VERTEX
  5
119
  8
LAYER_1
 10
-60.56861563288557
 20
127.5665829301159
 30
0.0
  0
VERTEX
  5
11A
  8
LAYER_1
 10
-60.57590677758628
 20
127.5641029799534
 30
0.0
  0
VERTEX
  5
11B
  8
LAYER_1
 10
-60.72126931047191
 20
127.7658852152553
 30
0.0
  0
VERTEX
  5
11C
  8
LAYER_1
 10
-60.86760666195006
 20
127.955876066747
 30
0.0
  0
VERTEX
  5
11D
  8
LAYER_1
 10
-61.1526620413723
 20
128.3010140038944
 30
0.0
  0
VERTEX
  5
11E
  8
LAYER_1
 10
-62.02288563019839
 20
129.3251942086669
 30
0.0
  0
VERTEX
  5
11F
  8
LAYER_1
 10
-62.28903810169366
 20
129.234667289775
 30
0.0
  0
VERTEX
  5
120
  8
LAYER_1
 10
-61.45195544936486
 20
126.7736135005802
 30
0.0
  0
VERTEX
  5
121
  8
LAYER_1
 10
-61.20041758864495
 20
126.8591695256199
 30
0.0
  0
VERTEX
  5
122
  8
LAYER_1
 10
-61.49963078409951
 20
127.7388673265502
 30
0.0
  0
VERTEX
  5
123
  8
LAYER_1
 10
-61.70563282298302
 20
128.3176160599813
 30
0.0
  0
VERTEX
  5
124
  8
LAYER_1
 10
-61.91767493703903
 20
128.8603129768261
 30
0.0
  0
VERTEX
  5
125
  8
LAYER_1
 10
-61.91038401524435
 20
128.8627928511712
 30
0.0
  0
VERTEX
  5
126
  8
LAYER_1
 10
-61.61373314023228
 20
128.483399582941
 30
0.0
  0
VERTEX
  5
127
  8
LAYER_1
 10
-61.30426177814684
 20
128.1114229212433
 30
0.0
  0
VERTEX
  5
128
  8
LAYER_1
 10
-60.45859299794247
 20
127.1114875958962
 30
0.0
  0
VERTEX
  5
129
  8
LAYER_1
 10
-60.19244008063514
 20
127.202014666423
 30
0.0
  0
VERTEX
  5
12A
  8
LAYER_1
 10
-61.02952273296395
 20
129.6630684556178
 30
0.0
  0
SEQEND
  5
39E
  8
LAYER_1
  0
POLYLINE
  5
75
  8
LAYER_1
 66
     1
 10
0.0
 20
0.0
 30
0.0
 70
     1
  0
VERTEX
  5
12B
  8
LAYER_1
 10
-62.71877275597319
 20
126.5337683147582
 30
0.0
  0
VERTEX
  5
12C
  8
LAYER_1
 10
-62.63589407049531
 20
126.5510222114827
 30
0.0
  0
VERTEX
  5
12D
  8
LAYER_1
 10
-62.55879909822167
 20
126.5780867602446
 30
0.0
  0
VERTEX
  5
12E
  8
LAYER_1
 10
-62.48748783915225
 20
126.6149619610438
 30
0.0
  0
VERTEX
  5
12F
  8
LAYER_1
 10
-62.42196029328707
 20
126.6616478138804
 30
0.0
  0
VERTEX
  5
130
  8
LAYER_1
 10
-62.36221646062613
 20
126.7181443187544
 30
0.0
  0
VERTEX
  5
131
  8
LAYER_1
 10
-62.30825634116943
 20
126.7844514756657
 30
0.0
  0
VERTEX
  5
132
  8
LAYER_1
 10
-62.26007993491694
 20
126.8605692846143
 30
0.0
  0
VERTEX
  5
133
  8
LAYER_1
 10
-62.2176872418687
 20
126.9464977456003
 30
0.0
  0
VERTEX
  5
134
  8
LAYER_1
 10
-62.18195411369367
 20
127.0416894721311
 30
0.0
  0
VERTEX
  5
135
  8
LAYER_1
 10
-62.15375637690787
 20
127.1455971108756
 30
0.0
  0
VERTEX
  5
136
  8
LAYER_1
 10
-62.13309403151131
 20
127.2582206618336
 30
0.0
  0
VERTEX
  5
137
  8
LAYER_1
 10
-62.11996707750396
 20
127.3795601250054
 30
0.0
  0
VERTEX
  5
138
  8
LAYER_1
 10
-62.11437551488584
 20
127.5096155003907
 30
0.0
  0
VERTEX
  5
139
  8
LAYER_1
 10
-62.11631934365694
 20
127.6483867879898
 30
0.0
  0
VERTEX
  5
13A
  8
LAYER_1
 10
-62.14281317536681
 20
127.9520770998288
 30
0.0
  0
VERTEX
  5
13B
  8
LAYER_1
 10
-62.19883943320559
 20
128.2563369478153
 30
0.0
  0
VERTEX
  5
13C
  8
LAYER_1
 10
-62.27286298331745
 20
128.5176619267485
 30
0.0
  0
VERTEX
  5
13D
  8
LAYER_1
 10
-62.31662374297579
 20
128.6322238403201
 30
0.0
  0
VERTEX
  5
13E
  8
LAYER_1
 10
-62.36488382570241
 20
128.7360520366285
 30
0.0
  0
VERTEX
  5
13F
  8
LAYER_1
 10
-62.41764323149729
 20
128.8291465156736
 30
0.0
  0
VERTEX
  5
140
  8
LAYER_1
 10
-62.47490196036046
 20
128.9115072774553
 30
0.0
  0
VERTEX
  5
141
  8
LAYER_1
 10
-62.53578251255995
 20
128.9830102247913
 30
0.0
  0
VERTEX
  5
142
  8
LAYER_1
 10
-62.59940738836386
 20
129.0435312604988
 30
0.0
  0
VERTEX
  5
143
  8
LAYER_1
 10
-62.66577658777216
 20
129.0930703845778
 30
0.0
  0
VERTEX
  5
144
  8
LAYER_1
 10
-62.73489011078487
 20
129.1316275970285
 30
0.0
  0
VERTEX
  5
145
  8
LAYER_1
 10
-62.80674795740199
 20
129.1592028978507
 30
0.0
  0
VERTEX
  5
146
  8
LAYER_1
 10
-62.88135012762351
 20
129.1757962870446
 30
0.0
  0
VERTEX
  5
147
  8
LAYER_1
 10
-62.95869662144943
 20
129.18140776461
 30
0.0
  0
VERTEX
  5
148
  8
LAYER_1
 10
-63.03878743887975
 20
129.1760373305471
 30
0.0
  0
VERTEX
  5
149
  8
LAYER_1
 10
-63.1160538150518
 20
129.1621327440054
 30
0.0
  0
VERTEX
  5
14A
  8
LAYER_1
 10
-63.18857765641868
 20
129.1386852000599
 30
0.0
  0
VERTEX
  5
14B
  8
LAYER_1
 10
-63.25635896298038
 20
129.1056946987106
 30
0.0
  0
VERTEX
  5
14C
  8
LAYER_1
 10
-63.3193977347369
 20
129.0631612399573
 30
0.0
  0
VERTEX
  5
14D
  8
LAYER_1
 10
-63.37769397168825
 20
129.0110848238002
 30
0.0
  0
VERTEX
  5
14E
  8
LAYER_1
 10
-63.43124767383441
 20
128.9494654502392
 30
0.0
  0
VERTEX
  5
14F
  8
LAYER_1
 10
-63.48005884117538
 20
128.8783031192744
 30
0.0
  0
VERTEX
  5
150
  8
LAYER_1
 10
-63.5241274737112
 20
128.7975978309057
 30
0.0
  0
VERTEX
  5
151
  8
LAYER_1
 10
-63.5618001162336
 20
128.706223832839
 30
0.0
  0
VERTEX
  5
152
  8
LAYER_1
 10
-63.59142328838139
 20
128.6030554059414
 30
0.0
  0
VERTEX
  5
153
  8
LAYER_1
 10
-63.61299699015458
 20
128.4880925502129
 30
0.0
  0
VERTEX
  5
154
  8
LAYER_1
 10
-63.62652122155315
 20
128.3613352656537
 30
0.0
  0
VERTEX
  5
155
  8
LAYER_1
 10
-63.63199598257712
 20
128.2227835522636
 30
0.0
  0
VERTEX
  5
156
  8
LAYER_1
 10
-63.62942127322647
 20
128.0724374100427
 30
0.0
  0
VERTEX
  5
157
  8
LAYER_1
 10
-63.60012344340134
 20
127.7363618391083
 30
0.0
  0
VERTEX
  5
158
  8
LAYER_1
 10
-63.54726417950619
 20
127.4455422094395
 30
0.0
  0
VERTEX
  5
159
  8
LAYER_1
 10
-63.47662260790234
 20
127.1932467450177
 30
0.0
  0
VERTEX
  5
15A
  8
LAYER_1
 10
-63.43463345670967
 20
127.0815455747743
 30
0.0
  0
VERTEX
  5
15B
  8
LAYER_1
 10
-63.38819872858983
 20
126.9794754458427
 30
0.0
  0
VERTEX
  5
15C
  8
LAYER_1
 10
-63.33731842354283
 20
126.8870363582228
 30
0.0
  0
VERTEX
  5
15D
  8
LAYER_1
 10
-63.28199254156865
 20
126.8042283119146
 30
0.0
  0
VERTEX
  5
15E
  8
LAYER_1
 10
-63.22283715679011
 20
126.7317589000051
 30
0.0
  0
VERTEX
  5
15F
  8
LAYER_1
 10
-63.16046831817702
 20
126.6703357487428
 30
0.0
  0
VERTEX
  5
160
  8
LAYER_1
 10
-63.09488602572941
 20
126.6199588581275
 30
0.0
  0
VERTEX
  5
161
  8
LAYER_1
 10
-63.02609027944724
 20
126.5806282281594
 30
0.0
  0
VERTEX
  5
162
  8
LAYER_1
 10
-62.95408107933054
 20
126.5523438588384
 30
0.0
  0
VERTEX
  5
163
  8
LAYER_1
 10
-62.87885842537929
 20
126.5351057501646
 30
0.0
  0
VERTEX
  5
164
  8
LAYER_1
 10
-62.80042231759352
 20
126.5289139021378
 30
0.0
  0
SEQEND
  5
39F
  8
LAYER_1
  0
POLYLINE
  5
76
  8
LAYER_1
 66
     1
 10
0.0
 20
0.0
 30
0.0
 70
     1
  0
VERTEX
  5
165
  8
LAYER_1
 10
-62.72762959887651
 20
126.7968419102032
 30
0.0
  0
VERTEX
  5
166
  8
LAYER_1
 10
-62.80812436685299
 20
126.798652191968
 30
0.0
  0
VERTEX
  5
167
  8
LAYER_1
 10
-62.88201021147766
 20
126.820897319916
 30
0.0
  0
VERTEX
  5
168
  8
LAYER_1
 10
-62.94928713275054
 20
126.8635772940473
 30
0.0
  0
VERTEX
  5
169
  8
LAYER_1
 10
-63.00995513067162
 20
126.9266921143618
 30
0.0
  0
VERTEX
  5
16A
  8
LAYER_1
 10
-63.06450250757767
 20
127.0055228352228
 30
0.0
  0
VERTEX
  5
16B
  8
LAYER_1
 10
-63.11341751549951
 20
127.0953505773164
 30
0.0
  0
VERTEX
  5
16C
  8
LAYER_1
 10
-63.15670015443713
 20
127.1961753406426
 30
0.0
  0
VERTEX
  5
16D
  8
LAYER_1
 10
-63.19435042439053
 20
127.3079971252015
 30
0.0
  0
VERTEX
  5
16E
  8
LAYER_1
 10
-63.25470699379868
 20
127.5457559854806
 30
0.0
  0
VERTEX
  5
16F
  8
LAYER_1
 10
-63.29644037619498
 20
127.789751502246
 30
0.0
  0
VERTEX
  5
170
  8
LAYER_1
 10
-63.32329574813598
 20
128.0450586192986
 30
0.0
  0
VERTEX
  5
171
  8
LAYER_1
 10
-63.33008829273289
 20
128.2953317206348
 30
0.0
  0
VERTEX
  5
172
  8
LAYER_1
 10
-63.32428165564015
 20
128.4144296168242
 30
0.0
  0
VERTEX
  5
173
  8
LAYER_1
 10
-63.31010062144559
 20
128.5239672702289
 30
0.0
  0
VERTEX
  5
174
  8
LAYER_1
 10
-63.2875451901492
 20
128.6239446808487
 30
0.0
  0
VERTEX
  5
175
  8
LAYER_1
 10
-63.25661536175097
 20
128.7143618486838
 30
0.0
  0
VERTEX
  5
176
  8
LAYER_1
 10
-63.21563183084961
 20
128.7910678691426
 30
0.0
  0
VERTEX
  5
177
  8
LAYER_1
 10
-63.16291524173784
 20
128.8499119039567
 30
0.0
  0
VERTEX
  5
178
  8
LAYER_1
 10
-63.09846559441566
 20
128.890893953126
 30
0.0
  0
VERTEX
  5
179
  8
LAYER_1
 10
-63.02228288888305
 20
128.9140140166506
 30
0.0
  0
VERTEX
  5
17A
  8
LAYER_1
 10
-62.94419116487992
 20
128.9129238468114
 30
0.0
  0
VERTEX
  5
17B
  8
LAYER_1
 10
-62.87199813319501
 20
128.8923346078077
 30
0.0
  0
VERTEX
  5
17C
  8
LAYER_1
 10
-62.80570379382828
 20
128.8522462996394
 30
0.0
  0
VERTEX
  5
17D
  8
LAYER_1
 10
-62.74530814677976
 20
128.7926589223067
 30
0.0
  0
VERTEX
  5
17E
  8
LAYER_1
 10
-62.6904874421226
 20
128.7173222829441
 30
0.0
  0
VERTEX
  5
17F
  8
LAYER_1
 10
-62.64091792992996
 20
128.6299861886864
 30
0.0
  0
VERTEX
  5
180
  8
LAYER_1
 10
-62.59659961020182
 20
128.5306506395336
 30
0.0
  0
VERTEX
  5
181
  8
LAYER_1
 10
-62.5575324829382
 20
128.4193156354857
 30
0.0
  0
VERTEX
  5
182
  8
LAYER_1
 10
-62.49385685239881
 20
128.1756463957631
 30
0.0
  0
VERTEX
  5
183
  8
LAYER_1
 10
-62.44859610092308
 20
127.913977719206
 30
0.0
  0
VERTEX
  5
184
  8
LAYER_1
 10
-62.4219871780102
 20
127.652452621184
 30
0.0
  0
VERTEX
  5
185
  8
LAYER_1
 10
-62.41759500651645
 20
127.401400400691
 30
0.0
  0
VERTEX
  5
186
  8
LAYER_1
 10
-62.42504814877451
 20
127.2834881390915
 30
0.0
  0
VERTEX
  5
187
  8
LAYER_1
 10
-62.44069137133287
 20
127.1755671360214
 30
0.0
  0
VERTEX
  5
188
  8
LAYER_1
 10
-62.46452467419154
 20
127.0776373914809
 30
0.0
  0
VERTEX
  5
189
  8
LAYER_1
 10
-62.49654805735051
 20
126.9896989054698
 30
0.0
  0
VERTEX
  5
18A
  8
LAYER_1
 10
-62.53807947117772
 20
126.9154382007058
 30
0.0
  0
VERTEX
  5
18B
  8
LAYER_1
 10
-62.59043686604112
 20
126.8585417999067
 30
0.0
  0
VERTEX
  5
18C
  8
LAYER_1
 10
-62.65362024194072
 20
126.8190097030725
 30
0.0
  0
SEQEND
  5
3A0
  8
LAYER_1
  0
POLYLINE
  5
77
  8
LAYER_1
 66
     1
 10
0.0
 20
0.0
 30
0.0
 70
     1
  0
VERTEX
  5
18D
  8
LAYER_1
 10
-63.81392177813566
 20
129.0756636726165
 30
0.0
  0
VERTEX
  5
18E
  8
LAYER_1
 10
-64.11017217803611
 20
129.0890003532425
 30
0.0
  0
VERTEX
  5
18F
  8
LAYER_1
 10
-64.16117685195532
 20
127.9560231553088
 30
0.0
  0
VERTEX
  5
190
  8
LAYER_1
 10
-64.27688025967655
 20
127.9612319226105
 30
0.0
  0
VERTEX
  5
191
  8
LAYER_1
 10
-64.3650302335406
 20
127.9712036669386
 30
0.0
  0
VERTEX
  5
192
  8
LAYER_1
 10
-64.44122234596358
 20
127.9952986221544
 30
0.0
  0
VERTEX
  5
193
  8
LAYER_1
 10
-64.50545659694549
 20
128.0335167882576
 30
0.0
  0
VERTEX
  5
194
  8
LAYER_1
 10
-64.55773298648636
 20
128.0858581652483
 30
0.0
  0
VERTEX
  5
195
  8
LAYER_1
 10
-64.60004110989829
 20
128.1544033973491
 30
0.0
  0
VERTEX
  5
196
  8
LAYER_1
 10
-64.63437056249339
 20
128.2412331287825
 30
0.0
  0
VERTEX
  5
197
  8
LAYER_1
 10
-64.6607213442717
 20
128.3463473595485
 30
0.0
  0
VERTEX
  5
198
  8
LAYER_1
 10
-64.6790934552332
 20
128.4697460896471
 30
0.0
  0
VERTEX
  5
199
  8
LAYER_1
 10
-64.7342063444961
 20
128.8858874926817
 30
0.0
  0
VERTEX
  5
19A
  8
LAYER_1
 10
-64.76189018412705
 20
129.0300686501077
 30
0.0
  0
VERTEX
  5
19B
  8
LAYER_1
 10
-64.78876904504307
 20
129.1195496105333
 30
0.0
  0
VERTEX
  5
19C
  8
LAYER_1
 10
-65.0890027676259
 20
129.1330656134571
 30
0.0
  0
VERTEX
  5
19D
  8
LAYER_1
 10
-65.06352538345361
 20
129.045035462218
 30
0.0
  0
VERTEX
  5
19E
  8
LAYER_1
 10
-65.03462054960107
 20
128.9047211470167
 30
0.0
  0
VERTEX
  5
19F
  8
LAYER_1
 10
-64.9723346074384
 20
128.4675014041639
 30
0.0
  0
VERTEX
  5
1A0
  8
LAYER_1
 10
-64.95429980245726
 20
128.3466120502981
 30
0.0
  0
VERTEX
  5
1A1
  8
LAYER_1
 10
-64.9304960388742
 20
128.2393178721425
 30
0.0
  0
VERTEX
  5
1A2
  8
LAYER_1
 10
-64.90092331668927
 20
128.1456188696971
 30
0.0
  0
VERTEX
  5
1A3
  8
LAYER_1
 10
-64.86558163590247
 20
128.0655150429618
 30
0.0
  0
VERTEX
  5
1A4
  8
LAYER_1
 10
-64.82332076890178
 20
127.9983189406937
 30
0.0
  0
VERTEX
  5
1A5
  8
LAYER_1
 10
-64.772990485428
 20
127.9433431704517
 30
0.0
  0
VERTEX
  5
1A6
  8
LAYER_1
 10
-64.71459078548115
 20
127.9005877322358
 30
0.0
  0
VERTEX
  5
1A7
  8
LAYER_1
 10
-64.64812166906124
 20
127.8700526260462
 30
0.0
  0
VERTEX
  5
1A8
  8
LAYER_1
 10
-64.64846790369938
 20
127.8623616455925
 30
0.0
  0
VERTEX
  5
1A9
  8
LAYER_1
 10
-64.74401281370794
 20
127.81739419995
 30
0.0
  0
VERTEX
  5
1AA
  8
LAYER_1
 10
-64.82878450974005
 20
127.7624140303693
 30
0.0
  0
VERTEX
  5
1AB
  8
LAYER_1
 10
-64.90278299179573
 20
127.6974211368501
 30
0.0
  0
VERTEX
  5
1AC
  8
LAYER_1
 10
-64.96600825987497
 20
127.6224155193926
 30
0.0
  0
VERTEX
  5
1AD
  8
LAYER_1
 10
-65.01740477059457
 20
127.5369037346378
 30
0.0
  0
VERTEX
  5
1AE
  8
LAYER_1
 10
-65.05591692176908
 20
127.4403923365795
 30
0.0
  0
VERTEX
  5
1AF
  8
LAYER_1
 10
-65.0815447133985
 20
127.3328813252178
 30
0.0
  0
VERTEX
  5
1B0
  8
LAYER_1
 10
-65.09428814548284
 20
127.2143707005527
 30
0.0
  0
VERTEX
  5
1B1
  8
LAYER_1
 10
-65.0905186344792
 20
127.0666128798727
 30
0.0
  0
VERTEX
  5
1B2
  8
LAYER_1
 10
-65.06417619612839
 20
126.9305275914103
 30
0.0
  0
VERTEX
  5
1B3
  8
LAYER_1
 10
-65.0134080492137
 20
126.8071301042938
 30
0.0
  0
VERTEX
  5
1B4
  8
LAYER_1
 10
-64.93636128961954
 20
126.6974357999616
 30
0.0
  0
VERTEX
  5
1B5
  8
LAYER_1
 10
-64.88519428103405
 20
126.6497009166288
 30
0.0
  0
VERTEX
  5
1B6
  8
LAYER_1
 10
-64.82810226801446
 20
126.6083830724634
 30
0.0
  0
VERTEX
  5
1B7
  8
LAYER_1
 10
-64.7650852505608
 20
126.5734822674654
 30
0.0
  0
VERTEX
  5
1B8
  8
LAYER_1
 10
-64.69614322867308
 20
126.5449985016347
 30
0.0
  0
VERTEX
  5
1B9
  8
LAYER_1
 10
-64.53988553770395
 20
126.5050873308337
 30
0.0
  0
VERTEX
  5
1BA
  8
LAYER_1
 10
-64.35873055592128
 20
126.4864549210229
 30
0.0
  0
VERTEX
  5
1BB
  8
LAYER_1
 10
-64.13716652934582
 20
126.488523085898
 30
0.0
  0
VERTEX
  5
1BC
  8
LAYER_1
 10
-64.02984546116018
 20
126.4992869377899
 30
0.0
  0
VERTEX
  5
1BD
  8
LAYER_1
 10
-63.92909888240656
 20
126.517211224324
 30
0.0
  0
SEQEND
  5
3A1
  8
LAYER_1
  0
POLYLINE
  5
78
  8
LAYER_1
 66
     1
 10
0.0
 20
0.0
 30
0.0
 70
     1
  0
VERTEX
  5
1BE
  8
LAYER_1
 10
-64.21617117103338
 20
126.7344231578258
 30
0.0
  0
VERTEX
  5
1BF
  8
LAYER_1
 10
-64.28661776736287
 20
126.7255196586705
 30
0.0
  0
VERTEX
  5
1C0
  8
LAYER_1
 10
-64.37113683598608
 20
126.7259421183056
 30
0.0
  0
VERTEX
  5
1C1
  8
LAYER_1
 10
-64.48121361258409
 20
126.7411155407324
 30
0.0
  0
VERTEX
  5
1C2
  8
LAYER_1
 10
-64.57387195563211
 20
126.7709879118967
 30
0.0
  0
VERTEX
  5
1C3
  8
LAYER_1
 10
-64.64911186513014
 20
126.8155592317984
 30
0.0
  0
VERTEX
  5
1C4
  8
LAYER_1
 10
-64.70693334107818
 20
126.8748295004375
 30
0.0
  0
VERTEX
  5
1C5
  8
LAYER_1
 10
-64.74912309817124
 20
126.9473399374905
 30
0.0
  0
VERTEX
  5
1C6
  8
LAYER_1
 10
-64.7774677896549
 20
127.031631818789
 30
0.0
  0
VERTEX
  5
1C7
  8
LAYER_1
 10
-64.79196741552916
 20
127.1277051443331
 30
0.0
  0
VERTEX
  5
1C8
  8
LAYER_1
 10
-64.79262197579402
 20
127.2355599141227
 30
0.0
  0
VERTEX
  5
1C9
  8
LAYER_1
 10
-64.77833119748493
 20
127.3477822476849
 30
0.0
  0
VERTEX
  5
1CA
  8
LAYER_1
 10
-64.74904200440258
 20
127.4471056673478
 30
0.0
  0
VERTEX
  5
1CB
  8
LAYER_1
 10
-64.704754396547
 20
127.5335301731114
 30
0.0
  0
VERTEX
  5
1CC
  8
LAYER_1
 10
-64.64546837391813
 20
127.6070557649756
 30
0.0
  0
VERTEX
  5
1CD
  8
LAYER_1
 10
-64.57346318545257
 20
127.6653403019155
 30
0.0
  0
VERTEX
  5
1CE
  8
LAYER_1
 10
-64.49101802128459
 20
127.7060416402591
 30
0.0
  0
VERTEX
  5
1CF
  8
LAYER_1
 10
-64.39813288141421
 20
127.7291597800063
 30
0.0
  0
VERTEX
  5
1D0
  8
LAYER_1
 10
-64.29480776584143
 20
127.7346947211572
 30
0.0
  0
VERTEX
  5
1D1
  8
LAYER_1
 10
-64.17139079760547
 20
127.7291387027021
 30
0.0
  0
SEQEND
  5
3A2
  8
LAYER_1
  0
POLYLINE
  5
79
  8
LAYER_1
 66
     1
 10
0.0
 20
0.0
 30
0.0
 70
     1
  0
VERTEX
  5
1D2
  8
LAYER_1
 10
-66.6262477635269
 20
129.5151005855049
 30
0.0
  0
VERTEX
  5
1D3
  8
LAYER_1
 10
-66.89655561882647
 20
129.5786390204607
 30
0.0
  0
VERTEX
  5
1D4
  8
LAYER_1
 10
-67.34496901334752
 20
127.0136749544076
 30
0.0
  0
VERTEX
  5
1D5
  8
LAYER_1
 10
-67.02209910715888
 20
126.9377813089535
 30
0.0
  0
VERTEX
  5
1D6
  8
LAYER_1
 10
-66.46501101359864
 20
128.0268503161369
 30
0.0
  0
VERTEX
  5
1D7
  8
LAYER_1
 10
-66.25145538456086
 20
128.4571299551268
 30
0.0
  0
VERTEX
  5
1D8
  8
LAYER_1
 10
-66.0725096093193
 20
128.8539366880225
 30
0.0
  0
VERTEX
  5
1D9
  8
LAYER_1
 10
-66.06124670561503
 20
128.8512892352741
 30
0.0
  0
VERTEX
  5
1DA
  8
LAYER_1
 10
-66.07097237479834
 20
128.411733676563
 30
0.0
  0
VERTEX
  5
1DB
  8
LAYER_1
 10
-66.06330078148022
 20
127.932424501444
 30
0.0
  0
VERTEX
  5
1DC
  8
LAYER_1
 10
-66.03847218365398
 20
126.7065704355934
 30
0.0
  0
VERTEX
  5
1DD
  8
LAYER_1
 10
-65.7268651811696
 20
126.6333242428877
 30
0.0
  0
VERTEX
  5
1DE
  8
LAYER_1
 10
-64.98186382270572
 20
129.1285724842388
 30
0.0
  0
VERTEX
  5
1DF
  8
LAYER_1
 10
-65.24091060790359
 20
129.189463897452
 30
0.0
  0
VERTEX
  5
1E0
  8
LAYER_1
 10
-65.54128595337089
 20
128.1306990524265
 30
0.0
  0
VERTEX
  5
1E1
  8
LAYER_1
 10
-65.68628493777224
 20
127.6065363749728
 30
0.0
  0
VERTEX
  5
1E2
  8
LAYER_1
 10
-65.80876661009599
 20
127.1276052174301
 30
0.0
  0
VERTEX
  5
1E3
  8
LAYER_1
 10
-65.82002951380025
 20
127.1302526701785
 30
0.0
  0
VERTEX
  5
1E4
  8
LAYER_1
 10
-65.80423671093224
 20
127.6040463760385
 30
0.0
  0
VERTEX
  5
1E5
  8
LAYER_1
 10
-65.80848922941585
 20
128.1063282160986
 30
0.0
  0
VERTEX
  5
1E6
  8
LAYER_1
 10
-65.83762100200367
 20
129.3138755367235
 30
0.0
  0
VERTEX
  5
1E7
  8
LAYER_1
 10
-66.0215817625065
 20
129.3571172649473
 30
0.0
  0
VERTEX
  5
1E8
  8
LAYER_1
 10
-66.6121218867288
 20
128.2437145582675
 30
0.0
  0
VERTEX
  5
1E9
  8
LAYER_1
 10
-66.826535118497
 20
127.8245338852949
 30
0.0
  0
VERTEX
  5
1EA
  8
LAYER_1
 10
-67.02140590892074
 20
127.4126476300076
 30
0.0
  0
VERTEX
  5
1EB
  8
LAYER_1
 10
-67.03642311385975
 20
127.4161775670055
 30
0.0
  0
VERTEX
  5
1EC
  8
LAYER_1
 10
-66.97947271377409
 20
127.6437109148214
 30
0.0
  0
VERTEX
  5
1ED
  8
LAYER_1
 10
-66.92608705846152
 20
127.8940009019605
 30
0.0
  0
VERTEX
  5
1EE
  8
LAYER_1
 10
-66.8296704744176
 20
128.4137325755637
 30
0.0
  0
SEQEND
  5
3A3
  8
LAYER_1
  0
POLYLINE
  5
7A
  8
LAYER_1
 66
     1
 10
0.0
 20
0.0
 30
0.0
 70
     1
  0
VERTEX
  5
1EF
  8
LAYER_1
 10
-71.3227591923627
 20
127.8550436826152
 30
0.0
  0
VERTEX
  5
1F0
  8
LAYER_1
 10
-70.7055555849338
 20
128.0649742558525
 30
0.0
  0
VERTEX
  5
1F1
  8
LAYER_1
 10
-70.42963352232829
 20
127.2537532422422
 30
0.0
  0
VERTEX
  5
1F2
  8
LAYER_1
 10
-71.08701014562531
 20
127.0301585488534
 30
0.0
  0
VERTEX
  5
1F3
  8
LAYER_1
 10
-71.00393850606766
 20
126.7859248728367
 30
0.0
  0
VERTEX
  5
1F4
  8
LAYER_1
 10
-70.06580728323752
 20
127.1050131331937
 30
0.0
  0
VERTEX
  5
1F5
  8
LAYER_1
 10
-70.90288991661197
 20
129.566066866662
 30
0.0
  0
VERTEX
  5
1F6
  8
LAYER_1
 10
-71.88484624766191
 20
129.2320722934124
 30
0.0
  0
VERTEX
  5
1F7
  8
LAYER_1
 10
-71.80177460810425
 20
128.9878386173958
 30
0.0
  0
VERTEX
  5
1F8
  8
LAYER_1
 10
-71.10057287658742
 20
129.2263396236772
 30
0.0
  0
VERTEX
  5
1F9
  8
LAYER_1
 10
-70.78614283900937
 20
128.3019037471658
 30
0.0
  0
VERTEX
  5
1FA
  8
LAYER_1
 10
-71.40334644643825
 20
128.0919731739285
 30
0.0
  0
SEQEND
  5
3A4
  8
LAYER_1
  0
POLYLINE
  5
7B
  8
LAYER_1
 66
     1
 10
0.0
 20
0.0
 30
0.0
 70
     1
  0
VERTEX
  5
1FB
  8
LAYER_1
 10
-73.5137985474042
 20
129.023095990941
 30
0.0
  0
VERTEX
  5
1FC
  8
LAYER_1
 10
-73.7888916087553
 20
128.9853166718661
 30
0.0
  0
VERTEX
  5
1FD
  8
LAYER_1
 10
-73.28620415390192
 20
126.4304349612457
 30
0.0
  0
VERTEX
  5
1FE
  8
LAYER_1
 10
-72.95761854615796
 20
126.4755605651319
 30
0.0
  0
VERTEX
  5
1FF
  8
LAYER_1
 10
-72.82882706338707
 20
127.6920436929884
 30
0.0
  0
VERTEX
  5
200
  8
LAYER_1
 10
-72.78405029942611
 20
128.1703130897014
 30
0.0
  0
VERTEX
  5
201
  8
LAYER_1
 10
-72.75955283409598
 20
128.6049129607789
 30
0.0
  0
VERTEX
  5
202
  8
LAYER_1
 10
-72.74809054545375
 20
128.6064871097517
 30
0.0
  0
VERTEX
  5
203
  8
LAYER_1
 10
-72.59930485708514
 20
128.1927643804129
 30
0.0
  0
VERTEX
  5
204
  8
LAYER_1
 10
-72.42000543514747
 20
127.748188339684
 30
0.0
  0
VERTEX
  5
205
  8
LAYER_1
 10
-71.95657867140308
 20
126.6130362420875
 30
0.0
  0
VERTEX
  5
206
  8
LAYER_1
 10
-71.63945535230134
 20
126.6565876970009
 30
0.0
  0
VERTEX
  5
207
  8
LAYER_1
 10
-71.84030440563842
 20
129.252921740966
 30
0.0
  0
VERTEX
  5
208
  8
LAYER_1
 10
-72.10393704440973
 20
129.2167163145922
 30
0.0
  0
VERTEX
  5
209
  8
LAYER_1
 10
-72.00402629072734
 20
128.1207116674648
 30
0.0
  0
VERTEX
  5
20A
  8
LAYER_1
 10
-71.95110302325307
 20
127.5794443160822
 30
0.0
  0
VERTEX
  5
20B
  8
LAYER_1
 10
-71.89340922599452
 20
127.0884776782357
 30
0.0
  0
VERTEX
  5
20C
  8
LAYER_1
 10
-71.90487151463675
 20
127.0869035292629
 30
0.0
  0
VERTEX
  5
20D
  8
LAYER_1
 10
-72.06029117657826
 20
127.5347591053329
 30
0.0
  0
VERTEX
  5
20E
  8
LAYER_1
 10
-72.24465006273395
 20
128.0020030800003
 30
0.0
  0
VERTEX
  5
20F
  8
LAYER_1
 10
-72.70551820172682
 20
129.1185243517116
 30
0.0
  0
VERTEX
  5
210
  8
LAYER_1
 10
-72.89273558288326
 20
129.0928132518229
 30
0.0
  0
VERTEX
  5
211
  8
LAYER_1
 10
-73.04400805258943
 20
127.8416058887263
 30
0.0
  0
VERTEX
  5
212
  8
LAYER_1
 10
-73.09357129832786
 20
127.373386970673
 30
0.0
  0
VERTEX
  5
213
  8
LAYER_1
 10
-73.12751563647477
 20
126.9189943055003
 30
0.0
  0
VERTEX
  5
214
  8
LAYER_1
 10
-73.14279868799775
 20
126.9168954402033
 30
0.0
  0
VERTEX
  5
215
  8
LAYER_1
 10
-73.17136442351301
 20
127.1497017356352
 30
0.0
  0
VERTEX
  5
216
  8
LAYER_1
 10
-73.21142992142993
 20
127.4024661748507
 30
0.0
  0
VERTEX
  5
217
  8
LAYER_1
 10
-73.30810297364116
 20
127.9221502050087
 30
0.0
  0
SEQEND
  5
3A5
  8
LAYER_1
  0
POLYLINE
  5
7C
  8
LAYER_1
 66
     1
 10
0.0
 20
0.0
 30
0.0
 70
     1
  0
VERTEX
  5
218
  8
LAYER_1
 10
-75.00338355793133
 20
127.7220934858526
 30
0.0
  0
VERTEX
  5
219
  8
LAYER_1
 10
-74.357516948808
 20
127.6333947720936
 30
0.0
  0
VERTEX
  5
21A
  8
LAYER_1
 10
-74.4740980245105
 20
126.7845005676467
 30
0.0
  0
VERTEX
  5
21B
  8
LAYER_1
 10
-75.16200328866552
 20
126.878972570467
 30
0.0
  0
VERTEX
  5
21C
  8
LAYER_1
 10
-75.19710226193554
 20
126.6233966563538
 30
0.0
  0
VERTEX
  5
21D
  8
LAYER_1
 10
-74.21540412454766
 20
126.4885772356624
 30
0.0
  0
VERTEX
  5
21E
  8
LAYER_1
 10
-73.86172456398931
 20
129.0639225683427
 30
0.0
  0
VERTEX
  5
21F
  8
LAYER_1
 10
-74.88928305232088
 20
129.2050401225555
 30
0.0
  0
VERTEX
  5
220
  8
LAYER_1
 10
-74.9243820255909
 20
128.9494642084424
 30
0.0
  0
VERTEX
  5
221
  8
LAYER_1
 10
-74.19061641049221
 20
128.8486940721008
 30
0.0
  0
VERTEX
  5
222
  8
LAYER_1
 10
-74.3234676644582
 20
127.8813272943828
 30
0.0
  0
VERTEX
  5
223
  8
LAYER_1
 10
-74.96933427358152
 20
127.9700260081418
 30
0.0
  0
SEQEND
  5
3A6
  8
LAYER_1
  0
POLYLINE
  5
7D
  8
LAYER_1
 66
     1
 10
0.0
 20
0.0
 30
0.0
 70
     1
  0
VERTEX
  5
224
  8
LAYER_1
 10
-74.94898557393952
 20
129.2176465989467
 30
0.0
  0
VERTEX
  5
225
  8
LAYER_1
 10
-75.23766796045932
 20
129.2855041424075
 30
0.0
  0
VERTEX
  5
226
  8
LAYER_1
 10
-75.4971817011148
 20
128.1814699825146
 30
0.0
  0
VERTEX
  5
227
  8
LAYER_1
 10
-75.60992934932273
 20
128.2079723906823
 30
0.0
  0
VERTEX
  5
228
  8
LAYER_1
 10
-75.69471794672616
 20
128.2340635257196
 30
0.0
  0
VERTEX
  5
229
  8
LAYER_1
 10
-75.76514453233011
 20
128.2718246287556
 30
0.0
  0
VERTEX
  5
22A
  8
LAYER_1
 10
-75.82120910613457
 20
128.3212556997902
 30
0.0
  0
VERTEX
  5
22B
  8
LAYER_1
 10
-75.86291166813956
 20
128.3823567388234
 30
0.0
  0
VERTEX
  5
22C
  8
LAYER_1
 10
-75.89182301288079
 20
128.4575402496196
 30
0.0
  0
VERTEX
  5
22D
  8
LAYER_1
 10
-75.909513934894
 20
128.5492187359433
 30
0.0
  0
VERTEX
  5
22E
  8
LAYER_1
 10
-75.91598443417917
 20
128.6573921977944
 30
0.0
  0
VERTEX
  5
22F
  8
LAYER_1
 10
-75.9112345107363
 20
128.782060635173
 30
0.0
  0
VERTEX
  5
230
  8
LAYER_1
 10
-75.88849013367022
 20
129.2012190672656
 30
0.0
  0
VERTEX
  5
231
  8
LAYER_1
 10
-75.8890506941726
 20
129.3480328503561
 30
0.0
  0
VERTEX
  5
232
  8
LAYER_1
 10
-75.89892939037892
 20
129.4409399372983
 30
0.0
  0
VERTEX
  5
233
  8
LAYER_1
 10
-76.19149334161092
 20
129.5097098795006
 30
0.0
  0
VERTEX
  5
234
  8
LAYER_1
 10
-76.18272385337002
 20
129.4184876195667
 30
0.0
  0
VERTEX
  5
235
  8
LAYER_1
 10
-76.18024869311209
 20
129.2752484138578
 30
0.0
  0
VERTEX
  5
236
  8
LAYER_1
 10
-76.19983910913388
 20
128.8340490737275
 30
0.0
  0
VERTEX
  5
237
  8
LAYER_1
 10
-76.20445676548414
 20
128.7119091240033
 30
0.0
  0
VERTEX
  5
238
  8
LAYER_1
 10
-76.20089228946685
 20
128.6020639860247
 30
0.0
  0
VERTEX
  5
239
  8
LAYER_1
 10
-76.189145681082
 20
128.5045136597918
 30
0.0
  0
VERTEX
  5
23A
  8
LAYER_1
 10
-76.16921694032958
 20
128.4192581453045
 30
0.0
  0
VERTEX
  5
23B
  8
LAYER_1
 10
-76.1401027026977
 20
128.3454092576568
 30
0.0
  0
VERTEX
  5
23C
  8
LAYER_1
 10
-76.10079959020554
 20
128.2820788692428
 30
0.0
  0
VERTEX
  5
23D
  8
LAYER_1
 10
-76.05130760285306
 20
128.2292669800623
 30
0.0
  0
VERTEX
  5
23E
  8
LAYER_1
 10
-75.9916267406403
 20
128.1869735901154
 30
0.0
  0
VERTEX
  5
23F
  8
LAYER_1
 10
-75.99338839578262
 20
128.1794790834656
 30
0.0
  0
VERTEX
  5
240
  8
LAYER_1
 10
-76.09559796002671
 20
128.1529440882106
 30
0.0
  0
VERTEX
  5
241
  8
LAYER_1
 10
-76.18907036126225
 20
128.114577830867
 30
0.0
  0
VERTEX
  5
242
  8
LAYER_1
 10
-76.27380559948924
 20
128.0643803114348
 30
0.0
  0
VERTEX
  5
243
  8
LAYER_1
 10
-76.34980367470769
 20
128.0023515299139
 30
0.0
  0
VERTEX
  5
244
  8
LAYER_1
 10
-76.41611842062821
 20
127.9278114660583
 30
0.0
  0
VERTEX
  5
245
  8
LAYER_1
 10
-76.47180361366131
 20
127.8400800861529
 30
0.0
  0
VERTEX
  5
246
  8
LAYER_1
 10
-76.51685925380701
 20
127.7391573901976
 30
0.0
  0
VERTEX
  5
247
  8
LAYER_1
 10
-76.55128534106528
 20
127.6250433781925
 30
0.0
  0
VERTEX
  5
248
  8
LAYER_1
 10
-76.57488816877898
 20
127.4791341964758
 30
0.0
  0
VERTEX
  5
249
  8
LAYER_1
 10
-76.57414968946664
 20
127.3405247291135
 30
0.0
  0
VERTEX
  5
24A
  8
LAYER_1
 10
-76.54706140426222
 20
127.2098703400847
 30
0.0
  0
VERTEX
  5
24B
  8
LAYER_1
 10
-76.4916146727617
 20
127.0878264810307
 30
0.0
  0
VERTEX
  5
24C
  8
LAYER_1
 10
-76.45015104653339
 20
127.0314576105933
 30
0.0
  0
VERTEX
  5
24D
  8
LAYER_1
 10
-76.4016785352762
 20
126.9803002274553
 30
0.0
  0
VERTEX
  5
24E
  8
LAYER_1
 10
-76.34619713899014
 20
126.9343543316167
 30
0.0
  0
VERTEX
  5
24F
  8
LAYER_1
 10
-76.28370685767517
 20
126.8936199230775
 30
0.0
  0
VERTEX
  5
250
  8
LAYER_1
 10
-76.13751693535124
 20
126.8255179836584
 30
0.0
  0
VERTEX
  5
251
  8
LAYER_1
 10
-75.96292603675913
 20
126.7737269395597
 30
0.0
  0
VERTEX
  5
252
  8
LAYER_1
 10
-75.74479647050049
 20
126.7348118075145
 30
0.0
  0
VERTEX
  5
253
  8
LAYER_1
 10
-75.63733483666357
 20
126.7255560289325
 30
0.0
  0
VERTEX
  5
254
  8
LAYER_1
 10
-75.53501110592414
 20
126.7245523826395
 30
0.0
  0
SEQEND
  5
3A7
  8
LAYER_1
  0
POLYLINE
  5
7E
  8
LAYER_1
 66
     1
 10
0.0
 20
0.0
 30
0.0
 70
     1
  0
VERTEX
  5
255
  8
LAYER_1
 10
-75.77699490963278
 20
126.9910769813086
 30
0.0
  0
VERTEX
  5
256
  8
LAYER_1
 10
-75.84787345923723
 20
126.9953462245187
 30
0.0
  0
VERTEX
  5
257
  8
LAYER_1
 10
-75.93085851922497
 20
127.0113815371726
 30
0.0
  0
VERTEX
  5
258
  8
LAYER_1
 10
-76.03623487423494
 20
127.0466370799874
 30
0.0
  0
VERTEX
  5
259
  8
LAYER_1
 10
-76.12177630643129
 20
127.0931192321878
 30
0.0
  0
VERTEX
  5
25A
  8
LAYER_1
 10
-76.18748281581398
 20
127.1508279937738
 30
0.0
  0
VERTEX
  5
25B
  8
LAYER_1
 10
-76.23335440238304
 20
127.2197633647454
 30
0.0
  0
VERTEX
  5
25C
  8
LAYER_1
 10
-76.26141660270086
 20
127.2988219000121
 30
0.0
  0
VERTEX
  5
25D
  8
LAYER_1
 10
-76.27369488256082
 20
127.3869001983144
 30
0.0
  0
VERTEX
  5
25E
  8
LAYER_1
 10
-76.27018924196291
 20
127.4839982596523
 30
0.0
  0
VERTEX
  5
25F
  8
LAYER_1
 10
-76.25089968090715
 20
127.5901160840259
 30
0.0
  0
VERTEX
  5
260
  8
LAYER_1
 10
-76.21611505322677
 20
127.6977641595869
 30
0.0
  0
VERTEX
  5
261
  8
LAYER_1
 10
-76.16897424770323
 20
127.789963633444
 30
0.0
  0
VERTEX
  5
262
  8
LAYER_1
 10
-76.10947726433653
 20
127.8667145055974
 30
0.0
  0
VERTEX
  5
263
  8
LAYER_1
 10
-76.03762410312665
 20
127.928016776047
 30
0.0
  0
VERTEX
  5
264
  8
LAYER_1
 10
-75.95608760601527
 20
127.9719898820447
 30
0.0
  0
VERTEX
  5
265
  8
LAYER_1
 10
-75.86754055764406
 20
127.9967532473731
 30
0.0
  0
VERTEX
  5
266
  8
LAYER_1
 10
-75.77198295801296
 20
128.0023068720322
 30
0.0
  0
VERTEX
  5
267
  8
LAYER_1
 10
-75.669414807122
 20
127.9886507560222
 30
0.0
  0
VERTEX
  5
268
  8
LAYER_1
 10
-75.54915064903354
 20
127.9603815206433
 30
0.0
  0
SEQEND
  5
3A8
  8
LAYER_1
  0
POLYLINE
  5
7F
  8
LAYER_1
 66
     1
 10
0.0
 20
0.0
 30
0.0
 70
     1
  0
VERTEX
  5
269
  8
LAYER_1
 10
-54.45825327394828
 20
127.1564438598127
 30
0.0
  0
VERTEX
  5
26A
  8
LAYER_1
 10
-54.3753745884704
 20
127.1736977565372
 30
0.0
  0
VERTEX
  5
26B
  8
LAYER_1
 10
-54.29827961619675
 20
127.2007623052991
 30
0.0
  0
VERTEX
  5
26C
  8
LAYER_1
 10
-54.22696835712734
 20
127.2376375060984
 30
0.0
  0
VERTEX
  5
26D
  8
LAYER_1
 10
-54.16144081126216
 20
127.284323358935
 30
0.0
  0
VERTEX
  5
26E
  8
LAYER_1
 10
-54.10169697860121
 20
127.3408198638089
 30
0.0
  0
VERTEX
  5
26F
  8
LAYER_1
 10
-54.04773685914451
 20
127.4071270207202
 30
0.0
  0
VERTEX
  5
270
  8
LAYER_1
 10
-53.99956045289203
 20
127.4832448296689
 30
0.0
  0
VERTEX
  5
271
  8
LAYER_1
 10
-53.95716775984378
 20
127.5691732906549
 30
0.0
  0
VERTEX
  5
272
  8
LAYER_1
 10
-53.92143463166876
 20
127.6643650171857
 30
0.0
  0
VERTEX
  5
273
  8
LAYER_1
 10
-53.89323689488296
 20
127.7682726559301
 30
0.0
  0
VERTEX
  5
274
  8
LAYER_1
 10
-53.87257454948639
 20
127.8808962068882
 30
0.0
  0
VERTEX
  5
275
  8
LAYER_1
 10
-53.85944759547904
 20
128.0022356700599
 30
0.0
  0
VERTEX
  5
276
  8
LAYER_1
 10
-53.85385603286092
 20
128.1322910454453
 30
0.0
  0
VERTEX
  5
277
  8
LAYER_1
 10
-53.85579986163202
 20
128.2710623330443
 30
0.0
  0
VERTEX
  5
278
  8
LAYER_1
 10
-53.8822936933419
 20
128.5747526448833
 30
0.0
  0
VERTEX
  5
279
  8
LAYER_1
 10
-53.93831995118067
 20
128.8790124928698
 30
0.0
  0
VERTEX
  5
27A
  8
LAYER_1
 10
-54.01234350129255
 20
129.140337471803
 30
0.0
  0
VERTEX
  5
27B
  8
LAYER_1
 10
-54.05610426095089
 20
129.2548993853747
 30
0.0
  0
VERTEX
  5
27C
  8
LAYER_1
 10
-54.1043643436775
 20
129.3587275816831
 30
0.0
  0
VERTEX
  5
27D
  8
LAYER_1
 10
-54.15712374947239
 20
129.4518220607281
 30
0.0
  0
VERTEX
  5
27E
  8
LAYER_1
 10
-54.21438247833554
 20
129.5341828225099
 30
0.0
  0
VERTEX
  5
27F
  8
LAYER_1
 10
-54.27526303053504
 20
129.6056857698458
 30
0.0
  0
VERTEX
  5
280
  8
LAYER_1
 10
-54.33888790633895
 20
129.6662068055533
 30
0.0
  0
VERTEX
  5
281
  8
LAYER_1
 10
-54.40525710574725
 20
129.7157459296324
 30
0.0
  0
VERTEX
  5
282
  8
LAYER_1
 10
-54.47437062875996
 20
129.754303142083
 30
0.0
  0
VERTEX
  5
283
  8
LAYER_1
 10
-54.54622847537708
 20
129.7818784429053
 30
0.0
  0
VERTEX
  5
284
  8
LAYER_1
 10
-54.62083064559859
 20
129.7984718320992
 30
0.0
  0
VERTEX
  5
285
  8
LAYER_1
 10
-54.69817713942452
 20
129.8040833096646
 30
0.0
  0
VERTEX
  5
286
  8
LAYER_1
 10
-54.77826795685484
 20
129.7987128756016
 30
0.0
  0
VERTEX
  5
287
  8
LAYER_1
 10
-54.8555343330269
 20
129.78480828906
 30
0.0
  0
VERTEX
  5
288
  8
LAYER_1
 10
-54.92805817439377
 20
129.7613607451144
 30
0.0
  0
VERTEX
  5
289
  8
LAYER_1
 10
-54.99583948095547
 20
129.7283702437651
 30
0.0
  0
VERTEX
  5
28A
  8
LAYER_1
 10
-55.05887825271199
 20
129.6858367850118
 30
0.0
  0
VERTEX
  5
28B
  8
LAYER_1
 10
-55.11717448966333
 20
129.6337603688547
 30
0.0
  0
VERTEX
  5
28C
  8
LAYER_1
 10
-55.17072819180949
 20
129.5721409952938
 30
0.0
  0
VERTEX
  5
28D
  8
LAYER_1
 10
-55.21953935915047
 20
129.500978664329
 30
0.0
  0
VERTEX
  5
28E
  8
LAYER_1
 10
-55.26360799168629
 20
129.4202733759603
 30
0.0
  0
VERTEX
  5
28F
  8
LAYER_1
 10
-55.30128063420869
 20
129.3288993778935
 30
0.0
  0
VERTEX
  5
290
  8
LAYER_1
 10
-55.33090380635648
 20
129.2257309509959
 30
0.0
  0
VERTEX
  5
291
  8
LAYER_1
 10
-55.35247750812967
 20
129.1107680952674
 30
0.0
  0
VERTEX
  5
292
  8
LAYER_1
 10
-55.36600173952824
 20
128.9840108107082
 30
0.0
  0
VERTEX
  5
293
  8
LAYER_1
 10
-55.37147650055221
 20
128.8454590973181
 30
0.0
  0
VERTEX
  5
294
  8
LAYER_1
 10
-55.36890179120156
 20
128.6951129550972
 30
0.0
  0
VERTEX
  5
295
  8
LAYER_1
 10
-55.33960396137643
 20
128.3590373841628
 30
0.0
  0
VERTEX
  5
296
  8
LAYER_1
 10
-55.28674469748127
 20
128.0682177544941
 30
0.0
  0
VERTEX
  5
297
  8
LAYER_1
 10
-55.21610312587744
 20
127.8159222900722
 30
0.0
  0
VERTEX
  5
298
  8
LAYER_1
 10
-55.17411397468477
 20
127.7042211198288
 30
0.0
  0
VERTEX
  5
299
  8
LAYER_1
 10
-55.12767924656492
 20
127.6021509908972
 30
0.0
  0
VERTEX
  5
29A
  8
LAYER_1
 10
-55.07679894151791
 20
127.5097119032773
 30
0.0
  0
VERTEX
  5
29B
  8
LAYER_1
 10
-55.02147305954374
 20
127.4269038569692
 30
0.0
  0
VERTEX
  5
29C
  8
LAYER_1
 10
-54.96231767476519
 20
127.3544344450597
 30
0.0
  0
VERTEX
  5
29D
  8
LAYER_1
 10
-54.89994883615211
 20
127.2930112937973
 30
0.0
  0
VERTEX
  5
29E
  8
LAYER_1
 10
-54.83436654370449
 20
127.2426344031821
 30
0.0
  0
VERTEX
  5
29F
  8
LAYER_1
 10
-54.76557079742233
 20
127.203303773214
 30
0.0
  0
VERTEX
  5
2A0
  8
LAYER_1
 10
-54.69356159730562
 20
127.175019403893
 30
0.0
  0
VERTEX
  5
2A1
  8
LAYER_1
 10
-54.61833894335438
 20
127.1577812952191
 30
0.0
  0
VERTEX
  5
2A2
  8
LAYER_1
 10
-54.5399028355686
 20
127.1515894471923
 30
0.0
  0
SEQEND
  5
3A9
  8
LAYER_1
  0
POLYLINE
  5
80
  8
LAYER_1
 66
     1
 10
0.0
 20
0.0
 30
0.0
 70
     1
  0
VERTEX
  5
2A3
  8
LAYER_1
 10
-54.4671101168516
 20
127.4195174552577
 30
0.0
  0
VERTEX
  5
2A4
  8
LAYER_1
 10
-54.54760488482807
 20
127.4213277370225
 30
0.0
  0
VERTEX
  5
2A5
  8
LAYER_1
 10
-54.62149072945274
 20
127.4435728649705
 30
0.0
  0
VERTEX
  5
2A6
  8
LAYER_1
 10
-54.68876765072562
 20
127.4862528391018
 30
0.0
  0
VERTEX
  5
2A7
  8
LAYER_1
 10
-54.74943564864671
 20
127.5493676594163
 30
0.0
  0
VERTEX
  5
2A8
  8
LAYER_1
 10
-54.80398302555277
 20
127.6281983802773
 30
0.0
  0
VERTEX
  5
2A9
  8
LAYER_1
 10
-54.8528980334746
 20
127.7180261223709
 30
0.0
  0
VERTEX
  5
2AA
  8
LAYER_1
 10
-54.89618067241222
 20
127.8188508856972
 30
0.0
  0
VERTEX
  5
2AB
  8
LAYER_1
 10
-54.93383094236562
 20
127.930672670256
 30
0.0
  0
VERTEX
  5
2AC
  8
LAYER_1
 10
-54.99418751177377
 20
128.1684315305351
 30
0.0
  0
VERTEX
  5
2AD
  8
LAYER_1
 10
-55.03592089417007
 20
128.4124270473006
 30
0.0
  0
VERTEX
  5
2AE
  8
LAYER_1
 10
-55.06277626611107
 20
128.6677341643531
 30
0.0
  0
VERTEX
  5
2AF
  8
LAYER_1
 10
-55.06956881070798
 20
128.9180072656893
 30
0.0
  0
VERTEX
  5
2B0
  8
LAYER_1
 10
-55.06376217361525
 20
129.0371051618788
 30
0.0
  0
VERTEX
  5
2B1
  8
LAYER_1
 10
-55.04958113942068
 20
129.1466428152834
 30
0.0
  0
VERTEX
  5
2B2
  8
LAYER_1
 10
-55.02702570812428
 20
129.2466202259033
 30
0.0
  0
VERTEX
  5
2B3
  8
LAYER_1
 10
-54.99609587972606
 20
129.3370373937383
 30
0.0
  0
VERTEX
  5
2B4
  8
LAYER_1
 10
-54.95511234882471
 20
129.4137434141971
 30
0.0
  0
VERTEX
  5
2B5
  8
LAYER_1
 10
-54.90239575971292
 20
129.4725874490112
 30
0.0
  0
VERTEX
  5
2B6
  8
LAYER_1
 10
-54.83794611239074
 20
129.5135694981805
 30
0.0
  0
VERTEX
  5
2B7
  8
LAYER_1
 10
-54.76176340685814
 20
129.5366895617051
 30
0.0
  0
VERTEX
  5
2B8
  8
LAYER_1
 10
-54.68367168285501
 20
129.5355993918659
 30
0.0
  0
VERTEX
  5
2B9
  8
LAYER_1
 10
-54.61147865117009
 20
129.5150101528622
 30
0.0
  0
VERTEX
  5
2BA
  8
LAYER_1
 10
-54.54518431180337
 20
129.474921844694
 30
0.0
  0
VERTEX
  5
2BB
  8
LAYER_1
 10
-54.48478866475485
 20
129.4153344673612
 30
0.0
  0
VERTEX
  5
2BC
  8
LAYER_1
 10
-54.42996796009769
 20
129.3399978279987
 30
0.0
  0
VERTEX
  5
2BD
  8
LAYER_1
 10
-54.38039844790505
 20
129.252661733741
 30
0.0
  0
VERTEX
  5
2BE
  8
LAYER_1
 10
-54.33608012817692
 20
129.1533261845882
 30
0.0
  0
VERTEX
  5
2BF
  8
LAYER_1
 10
-54.29701300091329
 20
129.0419911805402
 30
0.0
  0
VERTEX
  5
2C0
  8
LAYER_1
 10
-54.23333737037389
 20
128.7983219408176
 30
0.0
  0
VERTEX
  5
2C1
  8
LAYER_1
 10
-54.18807661889817
 20
128.5366532642606
 30
0.0
  0
VERTEX
  5
2C2
  8
LAYER_1
 10
-54.16146769598529
 20
128.2751281662385
 30
0.0
  0
VERTEX
  5
2C3
  8
LAYER_1
 10
-54.15707552449154
 20
128.0240759457455
 30
0.0
  0
VERTEX
  5
2C4
  8
LAYER_1
 10
-54.1645286667496
 20
127.906163684146
 30
0.0
  0
VERTEX
  5
2C5
  8
LAYER_1
 10
-54.18017188930796
 20
127.798242681076
 30
0.0
  0
VERTEX
  5
2C6
  8
LAYER_1
 10
-54.20400519216663
 20
127.7003129365354
 30
0.0
  0
VERTEX
  5
2C7
  8
LAYER_1
 10
-54.2360285753256
 20
127.6123744505243
 30
0.0
  0
VERTEX
  5
2C8
  8
LAYER_1
 10
-54.27755998915281
 20
127.5381137457603
 30
0.0
  0
VERTEX
  5
2C9
  8
LAYER_1
 10
-54.32991738401622
 20
127.4812173449613
 30
0.0
  0
VERTEX
  5
2CA
  8
LAYER_1
 10
-54.39310075991582
 20
127.4416852481271
 30
0.0
  0
SEQEND
  5
3AA
  8
LAYER_1
  0
POLYLINE
  5
81
  8
LAYER_1
 66
     1
 10
0.0
 20
0.0
 30
0.0
 70
     1
  0
VERTEX
  5
2CB
  8
LAYER_1
 10
-55.59146849342439
 20
129.6689632085771
 30
0.0
  0
VERTEX
  5
2CC
  8
LAYER_1
 10
-55.88771889332484
 20
129.682299889203
 30
0.0
  0
VERTEX
  5
2CD
  8
LAYER_1
 10
-55.94080539056127
 20
128.5030787264068
 30
0.0
  0
VERTEX
  5
2CE
  8
LAYER_1
 10
-56.5882208986364
 20
128.532224252848
 30
0.0
  0
VERTEX
  5
2CF
  8
LAYER_1
 10
-56.59947575594516
 20
128.28221781781
 30
0.0
  0
VERTEX
  5
2D0
  8
LAYER_1
 10
-55.95206024787002
 20
128.2530722913689
 30
0.0
  0
VERTEX
  5
2D1
  8
LAYER_1
 10
-55.99302445876835
 20
127.3431259411055
 30
0.0
  0
VERTEX
  5
2D2
  8
LAYER_1
 10
-56.68668393170599
 20
127.3743532908639
 30
0.0
  0
VERTEX
  5
2D3
  8
LAYER_1
 10
-56.69828575956762
 20
127.1166395283489
 30
0.0
  0
VERTEX
  5
2D4
  8
LAYER_1
 10
-55.70837588672953
 20
127.0720754979645
 30
0.0
  0
SEQEND
  5
3AB
  8
LAYER_1
  0
POLYLINE
  5
82
  8
LAYER_1
 66
     1
 10
0.0
 20
0.0
 30
0.0
 70
     1
  0
VERTEX
  5
2D5
  8
LAYER_1
 10
-56.68047385589416
 20
129.7314319600279
 30
0.0
  0
VERTEX
  5
2D6
  8
LAYER_1
 10
-56.97426672912702
 20
129.7717793778991
 30
0.0
  0
VERTEX
  5
2D7
  8
LAYER_1
 10
-57.13486914192995
 20
128.6023403705211
 30
0.0
  0
VERTEX
  5
2D8
  8
LAYER_1
 10
-57.7769140551413
 20
128.69051423982
 30
0.0
  0
VERTEX
  5
2D9
  8
LAYER_1
 10
-57.8109633394911
 20
128.4425817175308
 30
0.0
  0
VERTEX
  5
2DA
  8
LAYER_1
 10
-57.16891842627975
 20
128.3544078482319
 30
0.0
  0
VERTEX
  5
2DB
  8
LAYER_1
 10
-57.29284732442383
 20
127.4520099010174
 30
0.0
  0
VERTEX
  5
2DC
  8
LAYER_1
 10
-57.98075258857885
 20
127.5464819038377
 30
0.0
  0
VERTEX
  5
2DD
  8
LAYER_1
 10
-58.01585156184888
 20
127.2909059897245
 30
0.0
  0
VERTEX
  5
2DE
  8
LAYER_1
 10
-57.03415342446098
 20
127.1560865690331
 30
0.0
  0
SEQEND
  5
3AC
  8
LAYER_1
  0
POLYLINE
  5
83
  8
LAYER_1
 66
     1
 10
0.0
 20
0.0
 30
0.0
 70
     1
  0
VERTEX
  5
2DF
  8
LAYER_1
 10
-46.81765290908326
 20
129.6711655477411
 30
0.0
  0
VERTEX
  5
2E0
  8
LAYER_1
 10
-46.89946937664607
 20
129.6932188079246
 30
0.0
  0
VERTEX
  5
2E1
  8
LAYER_1
 10
-47.01088023328952
 20
129.703865744967
 30
0.0
  0
VERTEX
  5
2E2
  8
LAYER_1
 10
-47.13899449493584
 20
129.7002033337783
 30
0.0
  0
VERTEX
  5
2E3
  8
LAYER_1
 10
-47.2709210629071
 20
129.6793285762063
 30
0.0
  0
VERTEX
  5
2E4
  8
LAYER_1
 10
-47.41500930225608
 20
129.6314622618419
 30
0.0
  0
VERTEX
  5
2E5
  8
LAYER_1
 10
-47.53981708804147
 20
129.5638150519524
 30
0.0
  0
VERTEX
  5
2E6
  8
LAYER_1
 10
-47.64534442026329
 20
129.476386946538
 30
0.0
  0
VERTEX
  5
2E7
  8
LAYER_1
 10
-47.7315912989215
 20
129.3691779455985
 30
0.0
  0
VERTEX
  5
2E8
  8
LAYER_1
 10
-47.76639156764205
 20
129.309102718611
 30
0.0
  0
VERTEX
  5
2E9
  8
LAYER_1
 10
-47.79418570001168
 20
129.2459765217349
 30
0.0
  0
VERTEX
  5
2EA
  8
LAYER_1
 10
-47.8149736960304
 20
129.1797993549703
 30
0.0
  0
VERTEX
  5
2EB
  8
LAYER_1
 10
-47.82875555569822
 20
129.1105712183172
 30
0.0
  0
VERTEX
  5
2EC
  8
LAYER_1
 10
-47.83530086598115
 20
128.9629620353453
 30
0.0
  0
VERTEX
  5
2ED
  8
LAYER_1
 10
-47.81382163086042
 20
128.8031489728192
 30
0.0
  0
VERTEX
  5
2EE
  8
LAYER_1
 10
-47.78336231361052
 20
128.7013713010442
 30
0.0
  0
VERTEX
  5
2EF
  8
LAYER_1
 10
-47.74036052087429
 20
128.6066293418788
 30
0.0
  0
VERTEX
  5
2F0
  8
LAYER_1
 10
-47.68481625265174
 20
128.5189230953229
 30
0.0
  0
VERTEX
  5
2F1
  8
LAYER_1
 10
-47.61672950894287
 20
128.4382525613767
 30
0.0
  0
VERTEX
  5
2F2
  8
LAYER_1
 10
-47.53513498253704
 20
128.3641014636598
 30
0.0
  0
VERTEX
  5
2F3
  8
LAYER_1
 10
-47.43906736622367
 20
128.295953525792
 30
0.0
  0
VERTEX
  5
2F4
  8
LAYER_1
 10
-47.32852666000272
 20
128.2338087477734
 30
0.0
  0
VERTEX
  5
2F5
  8
LAYER_1
 10
-47.20351286387422
 20
128.1776671296039
 30
0.0
  0
VERTEX
  5
2F6
  8
LAYER_1
 10
-47.01589911306802
 20
128.0961085985191
 30
0.0
  0
VERTEX
  5
2F7
  8
LAYER_1
 10
-46.87284699678222
 20
128.0111356621028
 30
0.0
  0
VERTEX
  5
2F8
  8
LAYER_1
 10
-46.81729783736425
 20
127.9618745247799
 30
0.0
  0
VERTEX
  5
2F9
  8
LAYER_1
 10
-46.77142165813595
 20
127.9007712518928
 30
0.0
  0
VERTEX
  5
2FA
  8
LAYER_1
 10
-46.7352184590973
 20
127.8278258434418
 30
0.0
  0
VERTEX
  5
2FB
  8
LAYER_1
 10
-46.70868824024834
 20
127.7430382994266
 30
0.0
  0
VERTEX
  5
2FC
  8
LAYER_1
 10
-46.69850943956529
 20
127.6754795597368
 30
0.0
  0
VERTEX
  5
2FD
  8
LAYER_1
 10
-46.70039279791176
 20
127.6086157463377
 30
0.0
  0
VERTEX
  5
2FE
  8
LAYER_1
 10
-46.71433831528775
 20
127.5424468592294
 30
0.0
  0
VERTEX
  5
2FF
  8
LAYER_1
 10
-46.74034599169325
 20
127.4769728984118
 30
0.0
  0
VERTEX
  5
300
  8
LAYER_1
 10
-46.77988561362864
 20
127.4168646652434
 30
0.0
  0
VERTEX
  5
301
  8
LAYER_1
 10
-46.83442691029421
 20
127.3667929745517
 30
0.0
  0
VERTEX
  5
302
  8
LAYER_1
 10
-46.90396988169
 20
127.3267578263367
 30
0.0
  0
VERTEX
  5
303
  8
LAYER_1
 10
-46.98851452781597
 20
127.2967592205983
 30
0.0
  0
VERTEX
  5
304
  8
LAYER_1
 10
-47.08365893822956
 20
127.2819497065994
 30
0.0
  0
VERTEX
  5
305
  8
LAYER_1
 10
-47.17028928395887
 20
127.2817748640522
 30
0.0
  0
VERTEX
  5
306
  8
LAYER_1
 10
-47.24619079825283
 20
127.2930400625
 30
0.0
  0
VERTEX
  5
307
  8
LAYER_1
 10
-47.30914859976022
 20
127.3125506984239
 30
0.0
  0
VERTEX
  5
308
  8
LAYER_1
 10
-47.32218979052236
 20
127.0482413624645
 30
0.0
  0
VERTEX
  5
309
  8
LAYER_1
 10
-47.25546733545049
 20
127.0284499942307
 30
0.0
  0
VERTEX
  5
30A
  8
LAYER_1
 10
-47.16563649764834
 20
127.0177990374524
 30
0.0
  0
VERTEX
  5
30B
  8
LAYER_1
 10
-47.05944380657493
 20
127.0198938505111
 30
0.0
  0
VERTEX
  5
30C
  8
LAYER_1
 10
-46.94363567708918
 20
127.0383398187261
 30
0.0
  0
VERTEX
  5
30D
  8
LAYER_1
 10
-46.80196896923099
 20
127.086287022559
 30
0.0
  0
VERTEX
  5
30E
  8
LAYER_1
 10
-46.68130691110633
 20
127.1526806962901
 30
0.0
  0
VERTEX
  5
30F
  8
LAYER_1
 10
-46.58164950271517
 20
127.2375208399192
 30
0.0
  0
VERTEX
  5
310
  8
LAYER_1
 10
-46.50299674405753
 20
127.3408074534464
 30
0.0
  0
VERTEX
  5
311
  8
LAYER_1
 10
-46.44741434071931
 20
127.4576221556551
 30
0.0
  0
VERTEX
  5
312
  8
LAYER_1
 10
-46.41696801175533
 20
127.5830466226288
 30
0.0
  0
VERTEX
  5
313
  8
LAYER_1
 10
-46.41165775716561
 20
127.7170808543676
 30
0.0
  0
VERTEX
  5
314
  8
LAYER_1
 10
-46.43148357695012
 20
127.8597248508713
 30
0.0
  0
VERTEX
  5
315
  8
LAYER_1
 10
-46.45643892021378
 20
127.9380947794027
 30
0.0
  0
VERTEX
  5
316
  8
LAYER_1
 10
-46.48958882646376
 20
128.010519839069
 30
0.0
  0
VERTEX
  5
317
  8
LAYER_1
 10
-46.53093329570004
 20
128.0770000298703
 30
0.0
  0
VERTEX
  5
318
  8
LAYER_1
 10
-46.58047232792262
 20
128.1375353518067
 30
0.0
  0
VERTEX
  5
319
  8
LAYER_1
 10
-46.69420457752669
 20
128.2428852111433
 30
0.0
  0
VERTEX
  5
31A
  8
LAYER_1
 10
-46.82085607147594
 20
128.3286832391382
 30
0.0
  0
VERTEX
  5
31B
  8
LAYER_1
 10
-46.950497245303
 20
128.3970432569941
 30
0.0
  0
VERTEX
  5
31C
  8
LAYER_1
 10
-47.07319853454056
 20
128.450079085914
 30
0.0
  0
VERTEX
  5
31D
  8
LAYER_1
 10
-47.23602103358151
 20
128.5308383474256
 30
0.0
  0
VERTEX
  5
31E
  8
LAYER_1
 10
-47.36967723021721
 20
128.6251420326074
 30
0.0
  0
VERTEX
  5
31F
  8
LAYER_1
 10
-47.42443228410551
 20
128.6800552816024
 30
0.0
  0
VERTEX
  5
320
  8
LAYER_1
 10
-47.46962435650617
 20
128.7437192023396
 30
0.0
  0
VERTEX
  5
321
  8
LAYER_1
 10
-47.50525344741918
 20
128.816133794819
 30
0.0
  0
VERTEX
  5
322
  8
LAYER_1
 10
-47.53131955684455
 20
128.8972990590406
 30
0.0
  0
VERTEX
  5
323
  8
LAYER_1
 10
-47.54540057058635
 20
128.9913453988666
 30
0.0
  0
VERTEX
  5
324
  8
LAYER_1
 10
-47.543597788132
 20
129.0787209022532
 30
0.0
  0
VERTEX
  5
325
  8
LAYER_1
 10
-47.5259112094815
 20
129.1594255692003
 30
0.0
  0
VERTEX
  5
326
  8
LAYER_1
 10
-47.49234083463485
 20
129.2334593997081
 30
0.0
  0
VERTEX
  5
327
  8
LAYER_1
 10
-47.4436233327744
 20
129.2984196669047
 30
0.0
  0
VERTEX
  5
328
  8
LAYER_1
 10
-47.38049532925133
 20
129.3519037146873
 30
0.0
  0
VERTEX
  5
329
  8
LAYER_1
 10
-47.30295682406565
 20
129.393911543056
 30
0.0
  0
VERTEX
  5
32A
  8
LAYER_1
 10
-47.21100781721734
 20
129.4244431520108
 30
0.0
  0
VERTEX
  5
32B
  8
LAYER_1
 10
-47.11052520627139
 20
129.4397018108196
 30
0.0
  0
VERTEX
  5
32C
  8
LAYER_1
 10
-47.00653431482419
 20
129.4412931585098
 30
0.0
  0
VERTEX
  5
32D
  8
LAYER_1
 10
-46.90784048043452
 20
129.430491719954
 30
0.0
  0
VERTEX
  5
32E
  8
LAYER_1
 10
-46.82324892606096
 20
129.4085720469631
 30
0.0
  0
SEQEND
  5
3AD
  8
LAYER_1
  0
POLYLINE
  5
84
  8
LAYER_1
 66
     1
 10
0.0
 20
0.0
 30
0.0
 70
     1
  0
VERTEX
  5
32F
  8
LAYER_1
 10
-48.37593549427999
 20
129.4419019996628
 30
0.0
  0
VERTEX
  5
330
  8
LAYER_1
 10
-48.66972836751285
 20
129.4015545817917
 30
0.0
  0
VERTEX
  5
331
  8
LAYER_1
 10
-48.35219746113628
 20
127.089428496734
 30
0.0
  0
VERTEX
  5
332
  8
LAYER_1
 10
-48.82226605830888
 20
127.0248726281401
 30
0.0
  0
VERTEX
  5
333
  8
LAYER_1
 10
-48.78611739611863
 20
126.761653322203
 30
0.0
  0
VERTEX
  5
334
  8
LAYER_1
 10
-47.55218732854056
 20
126.9311124772618
 30
0.0
  0
VERTEX
  5
335
  8
LAYER_1
 10
-47.58833599073081
 20
127.1943317831989
 30
0.0
  0
VERTEX
  5
336
  8
LAYER_1
 10
-48.05840458790341
 20
127.1297759146051
 30
0.0
  0
SEQEND
  5
3AE
  8
LAYER_1
  0
POLYLINE
  5
85
  8
LAYER_1
 66
     1
 10
0.0
 20
0.0
 30
0.0
 70
     1
  0
VERTEX
  5
337
  8
LAYER_1
 10
-49.15695755900918
 20
129.3648875738132
 30
0.0
  0
VERTEX
  5
338
  8
LAYER_1
 10
-49.3085732938842
 20
129.3909809433527
 30
0.0
  0
VERTEX
  5
339
  8
LAYER_1
 10
-49.54455171493288
 20
129.4093114402862
 30
0.0
  0
VERTEX
  5
33A
  8
LAYER_1
 10
-49.75707657048005
 20
129.4054516501602
 30
0.0
  0
VERTEX
  5
33B
  8
LAYER_1
 10
-49.85472622688542
 20
129.3924313570577
 30
0.0
  0
VERTEX
  5
33C
  8
LAYER_1
 10
-49.94663403571197
 20
129.3720174652622
 30
0.0
  0
VERTEX
  5
33D
  8
LAYER_1
 10
-50.03182766817338
 20
129.343533968083
 30
0.0
  0
VERTEX
  5
33E
  8
LAYER_1
 10
-50.1093347340339
 20
129.3063049149843
 30
0.0
  0
VERTEX
  5
33F
  8
LAYER_1
 10
-50.17915523329354
 20
129.2603303059662
 30
0.0
  0
VERTEX
  5
340
  8
LAYER_1
 10
-50.24128916595231
 20
129.2056101410287
 30
0.0
  0
VERTEX
  5
341
  8
LAYER_1
 10
-50.32352506795896
 20
129.1050650771568
 30
0.0
  0
VERTEX
  5
342
  8
LAYER_1
 10
-50.38704779020622
 20
128.9866551819791
 30
0.0
  0
VERTEX
  5
343
  8
LAYER_1
 10
-50.42967654997605
 20
128.8506444703573
 30
0.0
  0
VERTEX
  5
344
  8
LAYER_1
 10
-50.44923056455039
 20
128.697296957153
 30
0.0
  0
VERTEX
  5
345
  8
LAYER_1
 10
-50.44605048625907
 20
128.5739436957504
 30
0.0
  0
VERTEX
  5
346
  8
LAYER_1
 10
-50.42687385557099
 20
128.4604749069146
 30
0.0
  0
VERTEX
  5
347
  8
LAYER_1
 10
-50.39170067248616
 20
128.3568905906457
 30
0.0
  0
VERTEX
  5
348
  8
LAYER_1
 10
-50.34053093700458
 20
128.2631907469436
 30
0.0
  0
VERTEX
  5
349
  8
LAYER_1
 10
-50.27472883390558
 20
128.1809749472738
 30
0.0
  0
VERTEX
  5
34A
  8
LAYER_1
 10
-50.19565854532132
 20
128.1118428219037
 30
0.0
  0
VERTEX
  5
34B
  8
LAYER_1
 10
-50.10332007125181
 20
128.0557943708334
 30
0.0
  0
VERTEX
  5
34C
  8
LAYER_1
 10
-49.99771341169703
 20
128.0128295940629
 30
0.0
  0
VERTEX
  5
34D
  8
LAYER_1
 10
-49.99805964633519
 20
128.0051386136091
 30
0.0
  0
VERTEX
  5
34E
  8
LAYER_1
 10
-50.09041543065396
 20
127.9662245334855
 30
0.0
  0
VERTEX
  5
34F
  8
LAYER_1
 10
-50.17216063729573
 20
127.9176702901394
 30
0.0
  0
VERTEX
  5
350
  8
LAYER_1
 10
-50.24329526626047
 20
127.859475883571
 30
0.0
  0
VERTEX
  5
351
  8
LAYER_1
 10
-50.3038193175482
 20
127.7916413137801
 30
0.0
  0
VERTEX
  5
352
  8
LAYER_1
 10
-50.3527768498848
 20
127.715487363073
 30
0.0
  0
VERTEX
  5
353
  8
LAYER_1
 10
-50.38921186054678
 20
127.6323348699111
 30
0.0
  0
VERTEX
  5
354
  8
LAYER_1
 10
-50.41312434953412
 20
127.5421838342942
 30
0.0
  0
VERTEX
  5
355
  8
LAYER_1
 10
-50.42451431684683
 20
127.4450342562225
 30
0.0
  0
VERTEX
  5
356
  8
LAYER_1
 10
-50.4197287030057
 20
127.3118287671159
 30
0.0
  0
VERTEX
  5
357
  8
LAYER_1
 10
-50.39305958664363
 20
127.19105264091
 30
0.0
  0
VERTEX
  5
358
  8
LAYER_1
 10
-50.34478548682775
 20
127.0845422252894
 30
0.0
  0
VERTEX
  5
359
  8
LAYER_1
 10
-50.27518480502074
 20
126.9941338626443
 30
0.0
  0
VERTEX
  5
35A
  8
LAYER_1
 10
-50.22225185249138
 20
126.9465335263338
 30
0.0
  0
VERTEX
  5
35B
  8
LAYER_1
 10
-50.16383612935461
 20
126.9055501721712
 30
0.0
  0
VERTEX
  5
35C
  8
LAYER_1
 10
-50.09993763561041
 20
126.8711838001565
 30
0.0
  0
VERTEX
  5
35D
  8
LAYER_1
 10
-50.03055637125878
 20
126.8434344102897
 30
0.0
  0
VERTEX
  5
35E
  8
LAYER_1
 10
-49.87803563847979
 20
126.805017924471
 30
0.0
  0
VERTEX
  5
35F
  8
LAYER_1
 10
-49.70896403876415
 20
126.7875320621862
 30
0.0
  0
VERTEX
  5
360
  8
LAYER_1
 10
-49.474812738497
 20
126.7904786763538
 30
0.0
  0
VERTEX
  5
361
  8
LAYER_1
 10
-49.27161676462205
 20
126.8179393137705
 30
0.0
  0
SEQEND
  5
3AF
  8
LAYER_1
  0
POLYLINE
  5
86
  8
LAYER_1
 66
     1
 10
0.0
 20
0.0
 30
0.0
 70
     1
  0
VERTEX
  5
362
  8
LAYER_1
 10
-49.55886263647078
 20
127.0312954078507
 30
0.0
  0
VERTEX
  5
363
  8
LAYER_1
 10
-49.62554012334551
 20
127.020293083912
 30
0.0
  0
VERTEX
  5
364
  8
LAYER_1
 10
-49.71786080313565
 20
127.0191383196509
 30
0.0
  0
VERTEX
  5
365
  8
LAYER_1
 10
-49.82610154631881
 20
127.0332171854063
 30
0.0
  0
VERTEX
  5
366
  8
LAYER_1
 10
-49.91670525315507
 20
127.0608092935937
 30
0.0
  0
VERTEX
  5
367
  8
LAYER_1
 10
-49.98967192364444
 20
127.101914644213
 30
0.0
  0
VERTEX
  5
368
  8
LAYER_1
 10
-50.04500155778691
 20
127.1565332372643
 30
0.0
  0
VERTEX
  5
369
  8
LAYER_1
 10
-50.08500202496731
 20
127.2216902883619
 30
0.0
  0
VERTEX
  5
36A
  8
LAYER_1
 10
-50.11198113312102
 20
127.2944110692756
 30
0.0
  0
VERTEX
  5
36B
  8
LAYER_1
 10
-50.12593888224806
 20
127.3746955800051
 30
0.0
  0
VERTEX
  5
36C
  8
LAYER_1
 10
-50.12687527234843
 20
127.4625438205506
 30
0.0
  0
VERTEX
  5
36D
  8
LAYER_1
 10
-50.11198334353865
 20
127.5609534876426
 30
0.0
  0
VERTEX
  5
36E
  8
LAYER_1
 10
-50.08210995700804
 20
127.6480940118926
 30
0.0
  0
VERTEX
  5
36F
  8
LAYER_1
 10
-50.0372551127566
 20
127.7239653933006
 30
0.0
  0
VERTEX
  5
370
  8
LAYER_1
 10
-49.97741881078433
 20
127.7885676318667
 30
0.0
  0
VERTEX
  5
371
  8
LAYER_1
 10
-49.90677050621254
 20
127.8398246096266
 30
0.0
  0
VERTEX
  5
372
  8
LAYER_1
 10
-49.82947959536034
 20
127.8756602059689
 30
0.0
  0
VERTEX
  5
373
  8
LAYER_1
 10
-49.74554607822772
 20
127.8960744208937
 30
0.0
  0
VERTEX
  5
374
  8
LAYER_1
 10
-49.65496995481467
 20
127.901067254401
 30
0.0
  0
VERTEX
  5
375
  8
LAYER_1
 10
-49.51998058772811
 20
127.8949902665646
 30
0.0
  0
SEQEND
  5
3B0
  8
LAYER_1
  0
POLYLINE
  5
87
  8
LAYER_1
 66
     1
 10
0.0
 20
0.0
 30
0.0
 70
     1
  0
VERTEX
  5
376
  8
LAYER_1
 10
-49.50976664207797
 20
128.1218747191713
 30
0.0
  0
VERTEX
  5
377
  8
LAYER_1
 10
-49.64089917010492
 20
128.1277780787838
 30
0.0
  0
VERTEX
  5
378
  8
LAYER_1
 10
-49.74421778682687
 20
128.1415749129141
 30
0.0
  0
VERTEX
  5
379
  8
LAYER_1
 10
-49.83903988981834
 20
128.1711060891728
 30
0.0
  0
VERTEX
  5
37A
  8
LAYER_1
 10
-49.92536547907937
 20
128.2163716075601
 30
0.0
  0
VERTEX
  5
37B
  8
LAYER_1
 10
-50.00319455460995
 20
128.277371468076
 30
0.0
  0
VERTEX
  5
37C
  8
LAYER_1
 10
-50.06726008431268
 20
128.3544118355716
 30
0.0
  0
VERTEX
  5
37D
  8
LAYER_1
 10
-50.11229497464073
 20
128.4477989310531
 30
0.0
  0
VERTEX
  5
37E
  8
LAYER_1
 10
-50.13829922559412
 20
128.5575327545207
 30
0.0
  0
VERTEX
  5
37F
  8
LAYER_1
 10
-50.14527283717285
 20
128.6836133059742
 30
0.0
  0
VERTEX
  5
380
  8
LAYER_1
 10
-50.13016929881395
 20
128.8018336527499
 30
0.0
  0
VERTEX
  5
381
  8
LAYER_1
 10
-50.09911405021624
 20
128.9042149230016
 30
0.0
  0
VERTEX
  5
382
  8
LAYER_1
 10
-50.05210709137972
 20
128.9907571167292
 30
0.0
  0
VERTEX
  5
383
  8
LAYER_1
 10
-49.98914842230441
 20
129.0614602339328
 30
0.0
  0
VERTEX
  5
384
  8
LAYER_1
 10
-49.91243574806612
 20
129.1157893938504
 30
0.0
  0
VERTEX
  5
385
  8
LAYER_1
 10
-49.82416677374067
 20
129.15320971572
 30
0.0
  0
VERTEX
  5
386
  8
LAYER_1
 10
-49.72434149932808
 20
129.1737211995415
 30
0.0
  0
VERTEX
  5
387
  8
LAYER_1
 10
-49.61295992482834
 20
129.1773238453152
 30
0.0
  0
VERTEX
  5
388
  8
LAYER_1
 10
-49.52640593883069
 20
129.16859831229
 30
0.0
  0
VERTEX
  5
389
  8
LAYER_1
 10
-49.46325121999474
 20
129.1551312527989
 30
0.0
  0
SEQEND
  5
3B1
  8
LAYER_1
  0
POLYLINE
  5
88
  8
LAYER_1
 66
     1
 10
0.0
 20
0.0
 30
0.0
 70
     1
  0
VERTEX
  5
38A
  8
LAYER_1
 10
-51.11811792343358
 20
129.6205177539798
 30
0.0
  0
VERTEX
  5
38B
  8
LAYER_1
 10
-51.37228890348636
 20
128.5392129886793
 30
0.0
  0
VERTEX
  5
38C
  8
LAYER_1
 10
-52.29500604156095
 20
127.226788546962
 30
0.0
  0
VERTEX
  5
38D
  8
LAYER_1
 10
-51.99083338064253
 20
127.1552898670228
 30
0.0
  0
VERTEX
  5
38E
  8
LAYER_1
 10
-51.63028599763919
 20
127.7282221887534
 30
0.0
  0
VERTEX
  5
38F
  8
LAYER_1
 10
-51.46432268406592
 20
127.9962642766704
 30
0.0
  0
VERTEX
  5
390
  8
LAYER_1
 10
-51.30968298534373
 20
128.2669682090011
 30
0.0
  0
VERTEX
  5
391
  8
LAYER_1
 10
-51.3021846968886
 20
128.2652056649095
 30
0.0
  0
VERTEX
  5
392
  8
LAYER_1
 10
-51.27999025504589
 20
127.9514494721721
 30
0.0
  0
VERTEX
  5
393
  8
LAYER_1
 10
-51.24883076387913
 20
127.6504434425418
 30
0.0
  0
VERTEX
  5
394
  8
LAYER_1
 10
-51.17266525104252
 20
126.9629716584828
 30
0.0
  0
VERTEX
  5
395
  8
LAYER_1
 10
-50.8684925901241
 20
126.8914729785436
 30
0.0
  0
VERTEX
  5
396
  8
LAYER_1
 10
-51.08095890259101
 20
128.4826190365238
 30
0.0
  0
VERTEX
  5
397
  8
LAYER_1
 10
-50.82943553691378
 20
129.552660210519
 30
0.0
  0
SEQEND
  5
3B2
  8
LAYER_1
  0
ENDSEC
  0
EOF
