  0
SECTION
  2
HEADER
  9
$ACADVER
  1
AC1009
  9
$DWGCODEPAGE
  3
ansi_1252
  9
$INSBASE
 10
0.0
 20
0.0
 30
0.0
  9
$EXTMIN
 10
-50.01536297143576
 20
120.1104591672548
 30
0.0
  9
$EXTMAX
 10
-41.63592054334716
 20
123.5566944137439
 30
0.0
  9
$LIMMIN
 10
0.0
 20
0.0
  9
$LIMMAX
 10
12.0
 20
9.0
  9
$ORTHOMODE
 70
     0
  9
$REGENMODE
 70
     1
  9
$FILLMODE
 70
     1
  9
$QTEXTMODE
 70
     0
  9
$MIRRTEXT
 70
     1
  9
$DRAGMODE
 70
     2
  9
$LTSCALE
 40
1.0
  9
$OSMODE
 70
    37
  9
$ATTMODE
 70
     1
  9
$TEXTSIZE
 40
0.2
  9
$TRACEWID
 40
0.05
  9
$TEXTSTYLE
  7
STANDARD
  9
$CLAYER
  8
0
  9
$CELTYPE
  6
BYLAYER
  9
$CECOLOR
 62
   256
  9
$DIMSCALE
 40
1.0
  9
$DIMASZ
 40
0.18
  9
$DIMEXO
 40
0.0625
  9
$DIMDLI
 40
0.38
  9
$DIMRND
 40
0.0
  9
$DIMDLE
 40
0.0
  9
$DIMEXE
 40
0.18
  9
$DIMTP
 40
0.0
  9
$DIMTM
 40
0.0
  9
$DIMTXT
 40
0.18
  9
$DIMCEN
 40
0.09
  9
$DIMTSZ
 40
0.0
  9
$DIMTOL
 70
     0
  9
$DIMLIM
 70
     0
  9
$DIMTIH
 70
     1
  9
$DIMTOH
 70
     1
  9
$DIMSE1
 70
     0
  9
$DIMSE2
 70
     0
  9
$DIMTAD
 70
     0
  9
$DIMZIN
 70
     0
  9
$DIMBLK
  1

  9
$DIMASO
 70
     1
  9
$DIMSHO
 70
     1
  9
$DIMPOST
  1

  9
$DIMAPOST
  1

  9
$DIMALT
 70
     0
  9
$DIMALTD
 70
     2
  9
$DIMALTF
 40
25.4
  9
$DIMLFAC
 40
1.0
  9
$DIMTOFL
 70
     0
  9
$DIMTVP
 40
0.0
  9
$DIMTIX
 70
     0
  9
$DIMSOXD
 70
     0
  9
$DIMSAH
 70
     0
  9
$DIMBLK1
  1

  9
$DIMBLK2
  1

  9
$DIMSTYLE
  2
STANDARD
  9
$DIMCLRD
 70
     0
  9
$DIMCLRE
 70
     0
  9
$DIMCLRT
 70
     0
  9
$DIMTFAC
 40
1.0
  9
$DIMGAP
 40
0.09
  9
$LUNITS
 70
     2
  9
$LUPREC
 70
     4
  9
$SKETCHINC
 40
0.1
  9
$FILLETRAD
 40
0.5
  9
$AUNITS
 70
     0
  9
$AUPREC
 70
     0
  9
$MENU
  1
.
  9
$ELEVATION
 40
0.0
  9
$PELEVATION
 40
0.0
  9
$THICKNESS
 40
0.0
  9
$LIMCHECK
 70
     0
  9
$CHAMFERA
 40
0.0
  9
$CHAMFERB
 40
0.0
  9
$SKPOLY
 70
     0
  9
$TDCREATE
 40
2454910.5
  9
$TDUPDATE
 40
2458014.694673553
  9
$TDINDWG
 40
0.0000000116
  9
$TDUSRTIMER
 40
0.0000000116
  9
$USRTIMER
 70
     1
  9
$ANGBASE
 50
0.0
  9
$ANGDIR
 70
     0
  9
$PDMODE
 70
     0
  9
$PDSIZE
 40
0.0
  9
$PLINEWID
 40
0.0
  9
$COORDS
 70
     1
  9
$SPLFRAME
 70
     0
  9
$SPLINETYPE
 70
     6
  9
$SPLINESEGS
 70
     8
  9
$ATTDIA
 70
     0
  9
$ATTREQ
 70
     1
  9
$HANDLING
 70
     1
  9
$HANDSEED
  5
12F
  9
$SURFTAB1
 70
     6
  9
$SURFTAB2
 70
     6
  9
$SURFTYPE
 70
     6
  9
$SURFU
 70
     6
  9
$SURFV
 70
     6
  9
$UCSNAME
  2

  9
$UCSORG
 10
0.0
 20
0.0
 30
0.0
  9
$UCSXDIR
 10
1.0
 20
0.0
 30
0.0
  9
$UCSYDIR
 10
0.0
 20
1.0
 30
0.0
  9
$PUCSNAME
  2

  9
$PUCSORG
 10
0.0
 20
0.0
 30
0.0
  9
$PUCSXDIR
 10
1.0
 20
0.0
 30
0.0
  9
$PUCSYDIR
 10
0.0
 20
1.0
 30
0.0
  9
$USERI1
 70
     0
  9
$USERI2
 70
     0
  9
$USERI3
 70
     0
  9
$USERI4
 70
     0
  9
$USERI5
 70
     0
  9
$USERR1
 40
0.0
  9
$USERR2
 40
0.0
  9
$USERR3
 40
0.0
  9
$USERR4
 40
0.0
  9
$USERR5
 40
0.0
  9
$WORLDVIEW
 70
     1
  9
$SHADEDGE
 70
     3
  9
$SHADEDIF
 70
    70
  9
$TILEMODE
 70
     1
  9
$MAXACTVP
 70
    64
  9
$PLIMCHECK
 70
     0
  9
$PEXTMIN
 10
1.000000000000000E+20
 20
1.000000000000000E+20
 30
1.000000000000000E+20
  9
$PEXTMAX
 10
-1.000000000000000E+20
 20
-1.000000000000000E+20
 30
-1.000000000000000E+20
  9
$PLIMMIN
 10
0.0
 20
0.0
  9
$PLIMMAX
 10
12.0
 20
9.0
  9
$UNITMODE
 70
     0
  9
$VISRETAIN
 70
     1
  9
$PLINEGEN
 70
     0
  9
$PSLTSCALE
 70
     1
  0
ENDSEC
  0
SECTION
  2
TABLES
  0
TABLE
  2
VPORT
 70
     1
  0
VPORT
  2
*ACTIVE
 70
     0
 10
0.0
 20
0.0
 11
1.0
 21
1.0
 12
10.42990654205607
 22
4.5
 13
0.0
 23
0.0
 14
0.5
 24
0.5
 15
0.5
 25
0.5
 16
0.0
 26
0.0
 36
1.0
 17
0.0
 27
0.0
 37
0.0
 40
9.0
 41
1.972972972850329
 42
50.0
 43
0.0
 44
0.0
 50
0.0
 51
0.0
 71
     0
 72
   100
 73
     1
 74
     3
 75
     0
 76
     0
 77
     0
 78
     0
  0
ENDTAB
  0
TABLE
  2
LTYPE
 70
     2
  0
LTYPE
  2
CONTINUOUS
 70
     0
  3
Solid line
 72
    65
 73
     0
 40
0.0
  0
LTYPE
  2
CONTINUOUS2
 70
     0
  3
Solid Line
 72
    65
 73
     0
 40
0.0
  0
ENDTAB
  0
TABLE
  2
LAYER
 70
     2
  0
LAYER
  2
0
 70
     0
 62
     7
  6
CONTINUOUS
  0
LAYER
  2
LAYER_1
 70
     0
 62
    18
  6
CONTINUOUS
  0
ENDTAB
  0
TABLE
  2
STYLE
 70
     1
  0
STYLE
  2
STANDARD
 70
     0
 40
0.0
 41
1.0
 50
0.0
 71
     0
 42
0.2
  3
txt
  4

  0
ENDTAB
  0
TABLE
  2
VIEW
 70
     0
  0
ENDTAB
  0
TABLE
  2
UCS
 70
     0
  0
ENDTAB
  0
TABLE
  2
APPID
 70
     1
  0
APPID
  2
ACAD
 70
     0
  0
ENDTAB
  0
TABLE
  2
DIMSTYLE
 70
     1
  0
DIMSTYLE
  2
STANDARD
 70
     0
  3

  4

  5

  6

  7

 40
1.0
 41
0.18
 42
0.0625
 43
0.38
 44
0.18
 45
0.0
 46
0.0
 47
0.0
 48
0.0
140
0.18
141
0.09
142
0.0
143
25.4
144
1.0
145
0.0
146
1.0
147
0.09
 71
     0
 72
     0
 73
     1
 74
     1
 75
     0
 76
     0
 77
     0
 78
     0
170
     0
171
     2
172
     0
173
     0
174
     0
175
     0
176
     0
177
     0
178
     0
  0
ENDTAB
  0
ENDSEC
  0
SECTION
  2
BLOCKS
  0
BLOCK
  8
0
  2
$MODEL_SPACE
 70
     0
 10
0.0
 20
0.0
 30
0.0
  3
$MODEL_SPACE
  1

  0
ENDBLK
  5
21
  8
0
  0
BLOCK
 67
     1
  8
0
  2
$PAPER_SPACE
 70
     0
 10
0.0
 20
0.0
 30
0.0
  3
$PAPER_SPACE
  1

  0
ENDBLK
  5
1D
 67
     1
  8
0
  0
ENDSEC
  0
SECTION
  2
ENTITIES
  0
POLYLINE
  5
70
  8
LAYER_1
 66
     1
 10
0.0
 20
0.0
 30
0.0
 70
     1
  0
VERTEX
  5
7D
  8
LAYER_1
 10
-41.63592054334716
 20
121.0009846517103
 30
0.0
  0
VERTEX
  5
7E
  8
LAYER_1
 10
-42.50519870198737
 20
123.5566944137439
 30
0.0
  0
VERTEX
  5
7F
  8
LAYER_1
 10
-43.00154965722198
 20
123.3878696704905
 30
0.0
  0
VERTEX
  5
80
  8
LAYER_1
 10
-42.63777827098677
 20
122.3183684139489
 30
0.0
  0
VERTEX
  5
81
  8
LAYER_1
 10
-43.1578327102345
 20
122.1414813620396
 30
0.0
  0
VERTEX
  5
82
  8
LAYER_1
 10
-43.5216040964697
 20
123.2109826185812
 30
0.0
  0
VERTEX
  5
83
  8
LAYER_1
 10
-44.01795505170431
 20
123.0421578753277
 30
0.0
  0
VERTEX
  5
84
  8
LAYER_1
 10
-43.14867689306411
 20
120.4864481132941
 30
0.0
  0
VERTEX
  5
85
  8
LAYER_1
 10
-42.6523259378295
 20
120.6552728565475
 30
0.0
  0
VERTEX
  5
86
  8
LAYER_1
 10
-43.00061769144548
 20
121.6792634237839
 30
0.0
  0
VERTEX
  5
87
  8
LAYER_1
 10
-42.48056325219775
 20
121.8561504756932
 30
0.0
  0
VERTEX
  5
88
  8
LAYER_1
 10
-42.13227149858177
 20
120.8321599084568
 30
0.0
  0
SEQEND
  5
129
  8
LAYER_1
  0
POLYLINE
  5
71
  8
LAYER_1
 66
     1
 10
0.0
 20
0.0
 30
0.0
 70
     1
  0
VERTEX
  5
89
  8
LAYER_1
 10
-44.84974876157045
 20
120.1244551486322
 30
0.0
  0
VERTEX
  5
8A
  8
LAYER_1
 10
-44.71009830590827
 20
120.1576441323734
 30
0.0
  0
VERTEX
  5
8B
  8
LAYER_1
 10
-44.58604351872069
 20
120.2117055507358
 30
0.0
  0
VERTEX
  5
8C
  8
LAYER_1
 10
-44.4775844000077
 20
120.2866394037194
 30
0.0
  0
VERTEX
  5
8D
  8
LAYER_1
 10
-44.3847209497693
 20
120.3824456913242
 30
0.0
  0
VERTEX
  5
8E
  8
LAYER_1
 10
-44.30686043717586
 20
120.4954509371171
 30
0.0
  0
VERTEX
  5
8F
  8
LAYER_1
 10
-44.24341007084043
 20
120.6219816729816
 30
0.0
  0
VERTEX
  5
90
  8
LAYER_1
 10
-44.19436985076303
 20
120.7620378989176
 30
0.0
  0
VERTEX
  5
91
  8
LAYER_1
 10
-44.15973977694364
 20
120.9156196149253
 30
0.0
  0
VERTEX
  5
92
  8
LAYER_1
 10
-44.13892711112933
 20
121.0790533185974
 30
0.0
  0
VERTEX
  5
93
  8
LAYER_1
 10
-44.13133906282636
 20
121.2486655764006
 30
0.0
  0
VERTEX
  5
94
  8
LAYER_1
 10
-44.13697563203473
 20
121.4244563883349
 30
0.0
  0
VERTEX
  5
95
  8
LAYER_1
 10
-44.15583681875443
 20
121.6064257544004
 30
0.0
  0
VERTEX
  5
96
  8
LAYER_1
 10
-44.18568019028099
 20
121.7880901488339
 30
0.0
  0
VERTEX
  5
97
  8
LAYER_1
 10
-44.22529737233786
 20
121.9606143934227
 30
0.0
  0
VERTEX
  5
98
  8
LAYER_1
 10
-44.27468836492501
 20
122.1239984881668
 30
0.0
  0
VERTEX
  5
99
  8
LAYER_1
 10
-44.33385316804245
 20
122.2782424330663
 30
0.0
  0
VERTEX
  5
9A
  8
LAYER_1
 10
-44.40317898429414
 20
122.4193976001451
 30
0.0
  0
VERTEX
  5
9B
  8
LAYER_1
 10
-44.48305302460053
 20
122.5435154219846
 30
0.0
  0
VERTEX
  5
9C
  8
LAYER_1
 10
-44.57347528896163
 20
122.6505958985847
 30
0.0
  0
VERTEX
  5
9D
  8
LAYER_1
 10
-44.67444577737744
 20
122.7406390299455
 30
0.0
  0
VERTEX
  5
9E
  8
LAYER_1
 10
-44.7863517222108
 20
122.809696180148
 30
0.0
  0
VERTEX
  5
9F
  8
LAYER_1
 10
-44.90958030358371
 20
122.8538187821469
 30
0.0
  0
VERTEX
  5
A0
  8
LAYER_1
 10
-45.04413152149617
 20
122.8730068359421
 30
0.0
  0
VERTEX
  5
A1
  8
LAYER_1
 10
-45.1900053759482
 20
122.8672603415338
 30
0.0
  0
VERTEX
  5
A2
  8
LAYER_1
 10
-45.2839726708507
 20
122.8504334899598
 30
0.0
  0
VERTEX
  5
A3
  8
LAYER_1
 10
-45.37172239871565
 20
122.823565987177
 30
0.0
  0
VERTEX
  5
A4
  8
LAYER_1
 10
-45.45325455954303
 20
122.7866578331853
 30
0.0
  0
VERTEX
  5
A5
  8
LAYER_1
 10
-45.52856915333286
 20
122.7397090279849
 30
0.0
  0
VERTEX
  5
A6
  8
LAYER_1
 10
-45.59766618008513
 20
122.6827195715756
 30
0.0
  0
VERTEX
  5
A7
  8
LAYER_1
 10
-45.66054563979984
 20
122.6156894639576
 30
0.0
  0
VERTEX
  5
A8
  8
LAYER_1
 10
-45.71720753247699
 20
122.5386187051307
 30
0.0
  0
VERTEX
  5
A9
  8
LAYER_1
 10
-45.76765185811659
 20
122.451507295095
 30
0.0
  0
VERTEX
  5
AA
  8
LAYER_1
 10
-45.81051953089217
 20
122.3533979578613
 30
0.0
  0
VERTEX
  5
AB
  8
LAYER_1
 10
-45.84445143885688
 20
122.2433334518774
 30
0.0
  0
VERTEX
  5
AC
  8
LAYER_1
 10
-45.86944758201072
 20
122.1213137771431
 30
0.0
  0
VERTEX
  5
AD
  8
LAYER_1
 10
-45.88550796035368
 20
121.9873389336586
 30
0.0
  0
VERTEX
  5
AE
  8
LAYER_1
 10
-45.89263257388578
 20
121.8414089214239
 30
0.0
  0
VERTEX
  5
AF
  8
LAYER_1
 10
-45.890821422607
 20
121.6835237404388
 30
0.0
  0
VERTEX
  5
B0
  8
LAYER_1
 10
-45.88007450651737
 20
121.5136833907035
 30
0.0
  0
VERTEX
  5
B1
  8
LAYER_1
 10
-45.86039182561685
 20
121.3318878722179
 30
0.0
  0
VERTEX
  5
B2
  8
LAYER_1
 10
-45.83551823338193
 20
121.1765382270804
 30
0.0
  0
VERTEX
  5
B3
  8
LAYER_1
 10
-45.8012933697026
 20
121.0240073303525
 30
0.0
  0
VERTEX
  5
B4
  8
LAYER_1
 10
-45.75771723457886
 20
120.8742951820343
 30
0.0
  0
VERTEX
  5
B5
  8
LAYER_1
 10
-45.7047898280107
 20
120.7274017821257
 30
0.0
  0
VERTEX
  5
B6
  8
LAYER_1
 10
-45.64132395078045
 20
120.5892111991927
 30
0.0
  0
VERTEX
  5
B7
  8
LAYER_1
 10
-45.56613240367042
 20
120.4656075018015
 30
0.0
  0
VERTEX
  5
B8
  8
LAYER_1
 10
-45.47921518668062
 20
120.3565906899518
 30
0.0
  0
VERTEX
  5
B9
  8
LAYER_1
 10
-45.38057229981104
 20
120.2621607636439
 30
0.0
  0
VERTEX
  5
BA
  8
LAYER_1
 10
-45.2690165373139
 20
120.1882018000528
 30
0.0
  0
VERTEX
  5
BB
  8
LAYER_1
 10
-45.14336069344142
 20
120.1405978763538
 30
0.0
  0
VERTEX
  5
BC
  8
LAYER_1
 10
-45.0036047681936
 20
120.119348992547
 30
0.0
  0
SEQEND
  5
12A
  8
LAYER_1
  0
POLYLINE
  5
72
  8
LAYER_1
 66
     1
 10
0.0
 20
0.0
 30
0.0
 70
     1
  0
VERTEX
  5
BD
  8
LAYER_1
 10
-44.89195497628605
 20
120.5791163799811
 30
0.0
  0
VERTEX
  5
BE
  8
LAYER_1
 10
-44.94831700043065
 20
120.5808414414614
 30
0.0
  0
VERTEX
  5
BF
  8
LAYER_1
 10
-45.00059527175046
 20
120.5984630729435
 30
0.0
  0
VERTEX
  5
C0
  8
LAYER_1
 10
-45.04878979024546
 20
120.6319812744274
 30
0.0
  0
VERTEX
  5
C1
  8
LAYER_1
 10
-45.09290055591566
 20
120.6813960459129
 30
0.0
  0
VERTEX
  5
C2
  8
LAYER_1
 10
-45.1331985313332
 20
120.7439738208739
 30
0.0
  0
VERTEX
  5
C3
  8
LAYER_1
 10
-45.16995468738671
 20
120.8169810933411
 30
0.0
  0
VERTEX
  5
C4
  8
LAYER_1
 10
-45.23284154140165
 20
120.9942841307944
 30
0.0
  0
VERTEX
  5
C5
  8
LAYER_1
 10
-45.28264510807576
 20
121.2023710117882
 30
0.0
  0
VERTEX
  5
C6
  8
LAYER_1
 10
-45.32044925640973
 20
121.4303076064712
 30
0.0
  0
VERTEX
  5
C7
  8
LAYER_1
 10
-45.3439385295984
 20
121.6288558494958
 30
0.0
  0
VERTEX
  5
C8
  8
LAYER_1
 10
-45.35570205919311
 20
121.8090123877933
 30
0.0
  0
VERTEX
  5
C9
  8
LAYER_1
 10
-45.35573984519385
 20
121.9707772213635
 30
0.0
  0
VERTEX
  5
CA
  8
LAYER_1
 10
-45.34405188760063
 20
122.1141503502066
 30
0.0
  0
VERTEX
  5
CB
  8
LAYER_1
 10
-45.31862298975027
 20
122.2334363292372
 30
0.0
  0
VERTEX
  5
CC
  8
LAYER_1
 10
-45.27743790273882
 20
122.3229397822437
 30
0.0
  0
VERTEX
  5
CD
  8
LAYER_1
 10
-45.25093678829768
 20
122.356523061488
 30
0.0
  0
VERTEX
  5
CE
  8
LAYER_1
 10
-45.22049662656626
 20
122.3826607092263
 30
0.0
  0
VERTEX
  5
CF
  8
LAYER_1
 10
-45.18611741754457
 20
122.4013527254587
 30
0.0
  0
VERTEX
  5
D0
  8
LAYER_1
 10
-45.1477991612326
 20
122.412599110185
 30
0.0
  0
VERTEX
  5
D1
  8
LAYER_1
 10
-45.10884286378292
 20
122.4141927788334
 30
0.0
  0
VERTEX
  5
D2
  8
LAYER_1
 10
-45.07125000853603
 20
122.408276181638
 30
0.0
  0
VERTEX
  5
D3
  8
LAYER_1
 10
-45.00015462465062
 20
122.3739121897151
 30
0.0
  0
VERTEX
  5
D4
  8
LAYER_1
 10
-44.93451300957638
 20
122.3095071344165
 30
0.0
  0
VERTEX
  5
D5
  8
LAYER_1
 10
-44.87432516331332
 20
122.215061015742
 30
0.0
  0
VERTEX
  5
D6
  8
LAYER_1
 10
-44.82009487843854
 20
122.0907890422936
 30
0.0
  0
VERTEX
  5
D7
  8
LAYER_1
 10
-44.77232594752918
 20
121.9369064226732
 30
0.0
  0
VERTEX
  5
D8
  8
LAYER_1
 10
-44.73101837058523
 20
121.7534131568808
 30
0.0
  0
VERTEX
  5
D9
  8
LAYER_1
 10
-44.69617214760669
 20
121.5403092449163
 30
0.0
  0
VERTEX
  5
DA
  8
LAYER_1
 10
-44.67347058647046
 20
121.3342591240776
 30
0.0
  0
VERTEX
  5
DB
  8
LAYER_1
 10
-44.66436947878834
 20
121.1512730189511
 30
0.0
  0
VERTEX
  5
DC
  8
LAYER_1
 10
-44.66886882456035
 20
120.9913509295369
 30
0.0
  0
VERTEX
  5
DD
  8
LAYER_1
 10
-44.68696862378648
 20
120.854492855835
 30
0.0
  0
VERTEX
  5
DE
  8
LAYER_1
 10
-44.71845529028259
 20
120.7432872767098
 30
0.0
  0
VERTEX
  5
DF
  8
LAYER_1
 10
-44.76311523786456
 20
120.6603226710258
 30
0.0
  0
VERTEX
  5
E0
  8
LAYER_1
 10
-44.82094846653239
 20
120.6055990387829
 30
0.0
  0
VERTEX
  5
E1
  8
LAYER_1
 10
-44.85480506127348
 20
120.5888275877018
 30
0.0
  0
SEQEND
  5
12B
  8
LAYER_1
  0
POLYLINE
  5
73
  8
LAYER_1
 66
     1
 10
0.0
 20
0.0
 30
0.0
 70
     1
  0
VERTEX
  5
E2
  8
LAYER_1
 10
-46.39172154971242
 20
122.7848563040571
 30
0.0
  0
VERTEX
  5
E3
  8
LAYER_1
 10
-47.59770546593419
 20
122.9504775340014
 30
0.0
  0
VERTEX
  5
E4
  8
LAYER_1
 10
-47.65813575427667
 20
122.5104496715214
 30
0.0
  0
VERTEX
  5
E5
  8
LAYER_1
 10
-46.97155338486041
 20
122.4161593456297
 30
0.0
  0
VERTEX
  5
E6
  8
LAYER_1
 10
-47.27840572541425
 20
120.1817900713073
 30
0.0
  0
VERTEX
  5
E7
  8
LAYER_1
 10
-46.75900417860875
 20
120.1104591672548
 30
0.0
  0
SEQEND
  5
12C
  8
LAYER_1
  0
POLYLINE
  5
74
  8
LAYER_1
 66
     1
 10
0.0
 20
0.0
 30
0.0
 70
     1
  0
VERTEX
  5
E8
  8
LAYER_1
 10
-47.89669312043326
 20
123.0229941699498
 30
0.0
  0
VERTEX
  5
E9
  8
LAYER_1
 10
-48.07402261799871
 20
123.102856362671
 30
0.0
  0
VERTEX
  5
EA
  8
LAYER_1
 10
-48.2968764014715
 20
123.1886936481225
 30
0.0
  0
VERTEX
  5
EB
  8
LAYER_1
 10
-48.42701229777586
 20
123.2288297337088
 30
0.0
  0
VERTEX
  5
EC
  8
LAYER_1
 10
-48.55058604886236
 20
123.2582150841503
 30
0.0
  0
VERTEX
  5
ED
  8
LAYER_1
 10
-48.66759765473102
 20
123.276849699447
 30
0.0
  0
VERTEX
  5
EE
  8
LAYER_1
 10
-48.77804711538182
 20
123.2847335795988
 30
0.0
  0
VERTEX
  5
EF
  8
LAYER_1
 10
-48.88242925193079
 20
123.2818369321685
 30
0.0
  0
VERTEX
  5
F0
  8
LAYER_1
 10
-48.98123888549397
 20
123.268129964719
 30
0.0
  0
VERTEX
  5
F1
  8
LAYER_1
 10
-49.07447601607134
 20
123.2436126772503
 30
0.0
  0
VERTEX
  5
F2
  8
LAYER_1
 10
-49.16214064366292
 20
123.2082850697623
 30
0.0
  0
VERTEX
  5
F3
  8
LAYER_1
 10
-49.26976215099701
 20
123.1534131727121
 30
0.0
  0
VERTEX
  5
F4
  8
LAYER_1
 10
-49.37314867807231
 20
123.0798227982957
 30
0.0
  0
VERTEX
  5
F5
  8
LAYER_1
 10
-49.47230022488884
 20
122.987513946513
 30
0.0
  0
VERTEX
  5
F6
  8
LAYER_1
 10
-49.5672167914466
 20
122.8764866173642
 30
0.0
  0
VERTEX
  5
F7
  8
LAYER_1
 10
-49.65673834063559
 20
122.7469473433892
 30
0.0
  0
VERTEX
  5
F8
  8
LAYER_1
 10
-49.73970483534586
 20
122.5991026571278
 30
0.0
  0
VERTEX
  5
F9
  8
LAYER_1
 10
-49.81611627557742
 20
122.4329525585801
 30
0.0
  0
VERTEX
  5
FA
  8
LAYER_1
 10
-49.88597266133026
 20
122.2484970477461
 30
0.0
  0
VERTEX
  5
FB
  8
LAYER_1
 10
-49.94143577998669
 20
122.0678586225534
 30
0.0
  0
VERTEX
  5
FC
  8
LAYER_1
 10
-49.98148853788976
 20
121.8981539677694
 30
0.0
  0
VERTEX
  5
FD
  8
LAYER_1
 10
-50.00613093503945
 20
121.739383083394
 30
0.0
  0
VERTEX
  5
FE
  8
LAYER_1
 10
-50.01536297143576
 20
121.5915459694272
 30
0.0
  0
VERTEX
  5
FF
  8
LAYER_1
 10
-50.00951154501341
 20
121.4542639814854
 30
0.0
  0
VERTEX
  5
100
  8
LAYER_1
 10
-49.98890349583728
 20
121.3271584555016
 30
0.0
  0
VERTEX
  5
101
  8
LAYER_1
 10
-49.95353882390737
 20
121.2102293914758
 30
0.0
  0
VERTEX
  5
102
  8
LAYER_1
 10
-49.90341752922368
 20
121.1034767894079
 30
0.0
  0
VERTEX
  5
103
  8
LAYER_1
 10
-49.8577253738616
 20
121.0285033619269
 30
0.0
  0
VERTEX
  5
104
  8
LAYER_1
 10
-49.80301478682559
 20
120.958386763998
 30
0.0
  0
VERTEX
  5
105
  8
LAYER_1
 10
-49.73928576811566
 20
120.8931269956213
 30
0.0
  0
VERTEX
  5
106
  8
LAYER_1
 10
-49.66653831773178
 20
120.8327240567968
 30
0.0
  0
VERTEX
  5
107
  8
LAYER_1
 10
-49.5838880931797
 20
120.7768771222387
 30
0.0
  0
VERTEX
  5
108
  8
LAYER_1
 10
-49.49045073228172
 20
120.7252854245311
 30
0.0
  0
VERTEX
  5
109
  8
LAYER_1
 10
-49.38622623503784
 20
120.6779489636741
 30
0.0
  0
VERTEX
  5
10A
  8
LAYER_1
 10
-49.27121460144809
 20
120.6348677396675
 30
0.0
  0
VERTEX
  5
10B
  8
LAYER_1
 10
-48.98773106708423
 20
120.5532378941114
 30
0.0
  0
VERTEX
  5
10C
  8
LAYER_1
 10
-48.86126870110211
 20
120.5275253155293
 30
0.0
  0
VERTEX
  5
10D
  8
LAYER_1
 10
-48.75052221472905
 20
120.5127052253691
 30
0.0
  0
SEQEND
  5
12D
  8
LAYER_1
  0
POLYLINE
  5
75
  8
LAYER_1
 66
     1
 10
0.0
 20
0.0
 30
0.0
 70
     1
  0
VERTEX
  5
10E
  8
LAYER_1
 10
-49.12446234637041
 20
121.041422292761
 30
0.0
  0
VERTEX
  5
10F
  8
LAYER_1
 10
-49.17577628413916
 20
121.0477542540846
 30
0.0
  0
VERTEX
  5
110
  8
LAYER_1
 10
-49.22703099562226
 20
121.0635988658981
 30
0.0
  0
VERTEX
  5
111
  8
LAYER_1
 10
-49.27975622349034
 20
121.0863189454196
 30
0.0
  0
VERTEX
  5
112
  8
LAYER_1
 10
-49.32649806030994
 20
121.1145926231711
 30
0.0
  0
VERTEX
  5
113
  8
LAYER_1
 10
-49.36725650608106
 20
121.1484198991523
 30
0.0
  0
VERTEX
  5
114
  8
LAYER_1
 10
-49.40203156080372
 20
121.1878007733635
 30
0.0
  0
VERTEX
  5
115
  8
LAYER_1
 10
-49.4308232244779
 20
121.2327352458045
 30
0.0
  0
VERTEX
  5
116
  8
LAYER_1
 10
-49.45363149710361
 20
121.2832233164754
 30
0.0
  0
VERTEX
  5
117
  8
LAYER_1
 10
-49.48129786920961
 20
121.4008602525068
 30
0.0
  0
VERTEX
  5
118
  8
LAYER_1
 10
-49.48656085470309
 20
121.5382554863562
 30
0.0
  0
VERTEX
  5
119
  8
LAYER_1
 10
-49.47095061148203
 20
121.6929529807918
 30
0.0
  0
VERTEX
  5
11A
  8
LAYER_1
 10
-49.43446713954645
 20
121.8649527358136
 30
0.0
  0
VERTEX
  5
11B
  8
LAYER_1
 10
-49.37711043889635
 20
122.0542547514216
 30
0.0
  0
VERTEX
  5
11C
  8
LAYER_1
 10
-49.28444083567348
 20
122.2923198337695
 30
0.0
  0
VERTEX
  5
11D
  8
LAYER_1
 10
-49.1895047547897
 20
122.4865624333167
 30
0.0
  0
VERTEX
  5
11E
  8
LAYER_1
 10
-49.09230219624499
 20
122.6369825500632
 30
0.0
  0
VERTEX
  5
11F
  8
LAYER_1
 10
-49.0428509878498
 20
122.6957591773862
 30
0.0
  0
VERTEX
  5
120
  8
LAYER_1
 10
-48.99283316003937
 20
122.7435801840089
 30
0.0
  0
VERTEX
  5
121
  8
LAYER_1
 10
-48.89340416344436
 20
122.8132900452352
 30
0.0
  0
VERTEX
  5
122
  8
LAYER_1
 10
-48.79632170404813
 20
122.853046901693
 30
0.0
  0
VERTEX
  5
123
  8
LAYER_1
 10
-48.70158578185067
 20
122.8628507533823
 30
0.0
  0
VERTEX
  5
124
  8
LAYER_1
 10
-48.60919639685198
 20
122.8427016003032
 30
0.0
  0
VERTEX
  5
125
  8
LAYER_1
 10
-48.56444243780468
 20
122.8264212036216
 30
0.0
  0
VERTEX
  5
126
  8
LAYER_1
 10
-48.52447098532962
 20
122.8054189643746
 30
0.0
  0
SEQEND
  5
12E
  8
LAYER_1
  0
ENDSEC
  0
EOF
