  0
SECTION
  2
HEADER
  9
$ACADVER
  1
AC1009
  9
$DWGCODEPAGE
  3
ansi_1252
  9
$INSBASE
 10
0.0
 20
0.0
 30
0.0
  9
$EXTMIN
 10
-29.55346854507318
 20
124.1100062355551
 30
0.0
  9
$EXTMAX
 10
-21.95339161815192
 20
127.2450295507115
 30
0.0
  9
$LIMMIN
 10
0.0
 20
0.0
  9
$LIMMAX
 10
12.0
 20
9.0
  9
$ORTHOMODE
 70
     0
  9
$REGENMODE
 70
     1
  9
$FILLMODE
 70
     1
  9
$QTEXTMODE
 70
     0
  9
$MIRRTEXT
 70
     1
  9
$DRAGMODE
 70
     2
  9
$LTSCALE
 40
1.0
  9
$OSMODE
 70
    37
  9
$ATTMODE
 70
     1
  9
$TEXTSIZE
 40
0.2
  9
$TRACEWID
 40
0.05
  9
$TEXTSTYLE
  7
STANDARD
  9
$CLAYER
  8
0
  9
$CELTYPE
  6
BYLAYER
  9
$CECOLOR
 62
   256
  9
$DIMSCALE
 40
1.0
  9
$DIMASZ
 40
0.18
  9
$DIMEXO
 40
0.0625
  9
$DIMDLI
 40
0.38
  9
$DIMRND
 40
0.0
  9
$DIMDLE
 40
0.0
  9
$DIMEXE
 40
0.18
  9
$DIMTP
 40
0.0
  9
$DIMTM
 40
0.0
  9
$DIMTXT
 40
0.18
  9
$DIMCEN
 40
0.09
  9
$DIMTSZ
 40
0.0
  9
$DIMTOL
 70
     0
  9
$DIMLIM
 70
     0
  9
$DIMTIH
 70
     1
  9
$DIMTOH
 70
     1
  9
$DIMSE1
 70
     0
  9
$DIMSE2
 70
     0
  9
$DIMTAD
 70
     0
  9
$DIMZIN
 70
     0
  9
$DIMBLK
  1

  9
$DIMASO
 70
     1
  9
$DIMSHO
 70
     1
  9
$DIMPOST
  1

  9
$DIMAPOST
  1

  9
$DIMALT
 70
     0
  9
$DIMALTD
 70
     2
  9
$DIMALTF
 40
25.4
  9
$DIMLFAC
 40
1.0
  9
$DIMTOFL
 70
     0
  9
$DIMTVP
 40
0.0
  9
$DIMTIX
 70
     0
  9
$DIMSOXD
 70
     0
  9
$DIMSAH
 70
     0
  9
$DIMBLK1
  1

  9
$DIMBLK2
  1

  9
$DIMSTYLE
  2
STANDARD
  9
$DIMCLRD
 70
     0
  9
$DIMCLRE
 70
     0
  9
$DIMCLRT
 70
     0
  9
$DIMTFAC
 40
1.0
  9
$DIMGAP
 40
0.09
  9
$LUNITS
 70
     2
  9
$LUPREC
 70
     4
  9
$SKETCHINC
 40
0.1
  9
$FILLETRAD
 40
0.5
  9
$AUNITS
 70
     0
  9
$AUPREC
 70
     0
  9
$MENU
  1
.
  9
$ELEVATION
 40
0.0
  9
$PELEVATION
 40
0.0
  9
$THICKNESS
 40
0.0
  9
$LIMCHECK
 70
     0
  9
$CHAMFERA
 40
0.0
  9
$CHAMFERB
 40
0.0
  9
$SKPOLY
 70
     0
  9
$TDCREATE
 40
2454910.5
  9
$TDUPDATE
 40
2458019.908374283
  9
$TDINDWG
 40
0.0000000116
  9
$TDUSRTIMER
 40
0.0000000116
  9
$USRTIMER
 70
     1
  9
$ANGBASE
 50
0.0
  9
$ANGDIR
 70
     0
  9
$PDMODE
 70
     0
  9
$PDSIZE
 40
0.0
  9
$PLINEWID
 40
0.0
  9
$COORDS
 70
     1
  9
$SPLFRAME
 70
     0
  9
$SPLINETYPE
 70
     6
  9
$SPLINESEGS
 70
     8
  9
$ATTDIA
 70
     0
  9
$ATTREQ
 70
     1
  9
$HANDLING
 70
     1
  9
$HANDSEED
  5
151
  9
$SURFTAB1
 70
     6
  9
$SURFTAB2
 70
     6
  9
$SURFTYPE
 70
     6
  9
$SURFU
 70
     6
  9
$SURFV
 70
     6
  9
$UCSNAME
  2

  9
$UCSORG
 10
0.0
 20
0.0
 30
0.0
  9
$UCSXDIR
 10
1.0
 20
0.0
 30
0.0
  9
$UCSYDIR
 10
0.0
 20
1.0
 30
0.0
  9
$PUCSNAME
  2

  9
$PUCSORG
 10
0.0
 20
0.0
 30
0.0
  9
$PUCSXDIR
 10
1.0
 20
0.0
 30
0.0
  9
$PUCSYDIR
 10
0.0
 20
1.0
 30
0.0
  9
$USERI1
 70
     0
  9
$USERI2
 70
     0
  9
$USERI3
 70
     0
  9
$USERI4
 70
     0
  9
$USERI5
 70
     0
  9
$USERR1
 40
0.0
  9
$USERR2
 40
0.0
  9
$USERR3
 40
0.0
  9
$USERR4
 40
0.0
  9
$USERR5
 40
0.0
  9
$WORLDVIEW
 70
     1
  9
$SHADEDGE
 70
     3
  9
$SHADEDIF
 70
    70
  9
$TILEMODE
 70
     1
  9
$MAXACTVP
 70
    64
  9
$PLIMCHECK
 70
     0
  9
$PEXTMIN
 10
1.000000000000000E+20
 20
1.000000000000000E+20
 30
1.000000000000000E+20
  9
$PEXTMAX
 10
-1.000000000000000E+20
 20
-1.000000000000000E+20
 30
-1.000000000000000E+20
  9
$PLIMMIN
 10
0.0
 20
0.0
  9
$PLIMMAX
 10
12.0
 20
9.0
  9
$UNITMODE
 70
     0
  9
$VISRETAIN
 70
     1
  9
$PLINEGEN
 70
     0
  9
$PSLTSCALE
 70
     1
  0
ENDSEC
  0
SECTION
  2
TABLES
  0
TABLE
  2
VPORT
 70
     1
  0
VPORT
  2
*ACTIVE
 70
     0
 10
0.0
 20
0.0
 11
1.0
 21
1.0
 12
10.42990654205607
 22
4.5
 13
0.0
 23
0.0
 14
0.5
 24
0.5
 15
0.5
 25
0.5
 16
0.0
 26
0.0
 36
1.0
 17
0.0
 27
0.0
 37
0.0
 40
9.0
 41
1.972972972850329
 42
50.0
 43
0.0
 44
0.0
 50
0.0
 51
0.0
 71
     0
 72
   100
 73
     1
 74
     3
 75
     0
 76
     0
 77
     0
 78
     0
  0
ENDTAB
  0
TABLE
  2
LTYPE
 70
     2
  0
LTYPE
  2
CONTINUOUS
 70
     0
  3
Solid line
 72
    65
 73
     0
 40
0.0
  0
LTYPE
  2
CONTINUOUS2
 70
     0
  3
Solid Line
 72
    65
 73
     0
 40
0.0
  0
ENDTAB
  0
TABLE
  2
LAYER
 70
     2
  0
LAYER
  2
0
 70
     0
 62
     7
  6
CONTINUOUS
  0
LAYER
  2
LAYER_1
 70
     0
 62
    18
  6
CONTINUOUS
  0
ENDTAB
  0
TABLE
  2
STYLE
 70
     1
  0
STYLE
  2
STANDARD
 70
     0
 40
0.0
 41
1.0
 50
0.0
 71
     0
 42
0.2
  3
txt
  4

  0
ENDTAB
  0
TABLE
  2
VIEW
 70
     0
  0
ENDTAB
  0
TABLE
  2
UCS
 70
     0
  0
ENDTAB
  0
TABLE
  2
APPID
 70
     1
  0
APPID
  2
ACAD
 70
     0
  0
ENDTAB
  0
TABLE
  2
DIMSTYLE
 70
     1
  0
DIMSTYLE
  2
STANDARD
 70
     0
  3

  4

  5

  6

  7

 40
1.0
 41
0.18
 42
0.0625
 43
0.38
 44
0.18
 45
0.0
 46
0.0
 47
0.0
 48
0.0
140
0.18
141
0.09
142
0.0
143
25.4
144
1.0
145
0.0
146
1.0
147
0.09
 71
     0
 72
     0
 73
     1
 74
     1
 75
     0
 76
     0
 77
     0
 78
     0
170
     0
171
     2
172
     0
173
     0
174
     0
175
     0
176
     0
177
     0
178
     0
  0
ENDTAB
  0
ENDSEC
  0
SECTION
  2
BLOCKS
  0
BLOCK
  8
0
  2
$MODEL_SPACE
 70
     0
 10
0.0
 20
0.0
 30
0.0
  3
$MODEL_SPACE
  1

  0
ENDBLK
  5
21
  8
0
  0
BLOCK
 67
     1
  8
0
  2
$PAPER_SPACE
 70
     0
 10
0.0
 20
0.0
 30
0.0
  3
$PAPER_SPACE
  1

  0
ENDBLK
  5
1D
 67
     1
  8
0
  0
ENDSEC
  0
SECTION
  2
ENTITIES
  0
POLYLINE
  5
70
  8
LAYER_1
 66
     1
 10
0.0
 20
0.0
 30
0.0
 70
     1
  0
VERTEX
  5
7D
  8
LAYER_1
 10
-23.14934810669925
 20
127.1092210245706
 30
0.0
  0
VERTEX
  5
7E
  8
LAYER_1
 10
-22.96968224253143
 20
126.5809967750666
 30
0.0
  0
VERTEX
  5
7F
  8
LAYER_1
 10
-22.74856388829119
 20
125.9636413694659
 30
0.0
  0
VERTEX
  5
80
  8
LAYER_1
 10
-22.57902966629565
 20
125.523569893914
 30
0.0
  0
VERTEX
  5
81
  8
LAYER_1
 10
-22.58597372706844
 20
125.5212079980322
 30
0.0
  0
VERTEX
  5
82
  8
LAYER_1
 10
-22.69259433002159
 20
125.6766219313647
 30
0.0
  0
VERTEX
  5
83
  8
LAYER_1
 10
-22.81681952314241
 20
125.8420414908603
 30
0.0
  0
VERTEX
  5
84
  8
LAYER_1
 10
-23.06241015384103
 20
126.1462283164269
 30
0.0
  0
VERTEX
  5
85
  8
LAYER_1
 10
-23.72327449090605
 20
126.914010411116
 30
0.0
  0
VERTEX
  5
86
  8
LAYER_1
 10
-24.13994995913576
 20
126.77228583458
 30
0.0
  0
VERTEX
  5
87
  8
LAYER_1
 10
-23.3432755330398
 20
124.4300337168908
 30
0.0
  0
VERTEX
  5
88
  8
LAYER_1
 10
-22.94399347058842
 20
124.5658422430317
 30
0.0
  0
VERTEX
  5
89
  8
LAYER_1
 10
-23.12011145794681
 20
125.0836356042105
 30
0.0
  0
VERTEX
  5
8A
  8
LAYER_1
 10
-23.23286644609379
 20
125.3984120889284
 30
0.0
  0
VERTEX
  5
8B
  8
LAYER_1
 10
-23.34535795479973
 20
125.6889245394581
 30
0.0
  0
VERTEX
  5
8C
  8
LAYER_1
 10
-23.53403567941967
 20
126.1525330562763
 30
0.0
  0
VERTEX
  5
8D
  8
LAYER_1
 10
-23.52709161864689
 20
126.1548949521581
 30
0.0
  0
VERTEX
  5
8E
  8
LAYER_1
 10
-23.284147147824
 20
125.8469002430248
 30
0.0
  0
VERTEX
  5
8F
  8
LAYER_1
 10
-23.04386232610055
 20
125.5554483003816
 30
0.0
  0
VERTEX
  5
90
  8
LAYER_1
 10
-22.37006538921563
 20
124.7610534337464
 30
0.0
  0
VERTEX
  5
91
  8
LAYER_1
 10
-21.95339161815192
 20
124.9027774330223
 30
0.0
  0
VERTEX
  5
92
  8
LAYER_1
 10
-22.75006604424787
 20
127.2450295507115
 30
0.0
  0
SEQEND
  5
14B
  8
LAYER_1
  0
POLYLINE
  5
71
  8
LAYER_1
 66
     1
 10
0.0
 20
0.0
 30
0.0
 70
     1
  0
VERTEX
  5
93
  8
LAYER_1
 10
-24.57000040341888
 20
124.1656348769389
 30
0.0
  0
VERTEX
  5
94
  8
LAYER_1
 10
-24.44201381418634
 20
124.1960518548784
 30
0.0
  0
VERTEX
  5
95
  8
LAYER_1
 10
-24.32832031411989
 20
124.2455979627838
 30
0.0
  0
VERTEX
  5
96
  8
LAYER_1
 10
-24.22891990321953
 20
124.314273200655
 30
0.0
  0
VERTEX
  5
97
  8
LAYER_1
 10
-24.14381258148526
 20
124.402077568492
 30
0.0
  0
VERTEX
  5
98
  8
LAYER_1
 10
-24.07245512407146
 20
124.5056444054625
 30
0.0
  0
VERTEX
  5
99
  8
LAYER_1
 10
-24.01430425063307
 20
124.6216070583561
 30
0.0
  0
VERTEX
  5
9A
  8
LAYER_1
 10
-23.96935996117007
 20
124.7499655271727
 30
0.0
  0
VERTEX
  5
9B
  8
LAYER_1
 10
-23.93762225568247
 20
124.8907198119124
 30
0.0
  0
VERTEX
  5
9C
  8
LAYER_1
 10
-23.91854790252136
 20
125.0405032279381
 30
0.0
  0
VERTEX
  5
9D
  8
LAYER_1
 10
-23.91159362216027
 20
125.1959491537343
 30
0.0
  0
VERTEX
  5
9E
  8
LAYER_1
 10
-23.91675941459919
 20
125.3570575893009
 30
0.0
  0
VERTEX
  5
9F
  8
LAYER_1
 10
-23.93404527983813
 20
125.5238285346379
 30
0.0
  0
VERTEX
  5
A0
  8
LAYER_1
 10
-23.96139607733302
 20
125.6903199801423
 30
0.0
  0
VERTEX
  5
A1
  8
LAYER_1
 10
-23.99770435847983
 20
125.8484346781584
 30
0.0
  0
VERTEX
  5
A2
  8
LAYER_1
 10
-24.04297012327855
 20
125.9981726286864
 30
0.0
  0
VERTEX
  5
A3
  8
LAYER_1
 10
-24.0971933717292
 20
126.1395338317261
 30
0.0
  0
VERTEX
  5
A4
  8
LAYER_1
 10
-24.16072896655231
 20
126.2688994560722
 30
0.0
  0
VERTEX
  5
A5
  8
LAYER_1
 10
-24.23393177809034
 20
126.3826507260189
 30
0.0
  0
VERTEX
  5
A6
  8
LAYER_1
 10
-24.31680180634328
 20
126.4807876415661
 30
0.0
  0
VERTEX
  5
A7
  8
LAYER_1
 10
-24.40933905131114
 20
126.5633102027139
 30
0.0
  0
VERTEX
  5
A8
  8
LAYER_1
 10
-24.51189840298781
 20
126.6265995709771
 30
0.0
  0
VERTEX
  5
A9
  8
LAYER_1
 10
-24.62483470348965
 20
126.6670369709922
 30
0.0
  0
VERTEX
  5
AA
  8
LAYER_1
 10
-24.74814795281667
 20
126.6846224027591
 30
0.0
  0
VERTEX
  5
AB
  8
LAYER_1
 10
-24.88183815096886
 20
126.6793558662779
 30
0.0
  0
VERTEX
  5
AC
  8
LAYER_1
 10
-24.96795712220281
 20
126.6639344247203
 30
0.0
  0
VERTEX
  5
AD
  8
LAYER_1
 10
-25.04837782919059
 20
126.6393109458633
 30
0.0
  0
VERTEX
  5
AE
  8
LAYER_1
 10
-25.12310027193219
 20
126.6054854297068
 30
0.0
  0
VERTEX
  5
AF
  8
LAYER_1
 10
-25.19212445042763
 20
126.5624578762509
 30
0.0
  0
VERTEX
  5
B0
  8
LAYER_1
 10
-25.25545036467688
 20
126.5102282854956
 30
0.0
  0
VERTEX
  5
B1
  8
LAYER_1
 10
-25.31307801467996
 20
126.4487966574407
 30
0.0
  0
VERTEX
  5
B2
  8
LAYER_1
 10
-25.36500740043687
 20
126.3781629920864
 30
0.0
  0
VERTEX
  5
B3
  8
LAYER_1
 10
-25.4112385219476
 20
126.2983272894327
 30
0.0
  0
VERTEX
  5
B4
  8
LAYER_1
 10
-25.45052580676789
 20
126.2084122269657
 30
0.0
  0
VERTEX
  5
B5
  8
LAYER_1
 10
-25.48162365851469
 20
126.1075405137325
 30
0.0
  0
VERTEX
  5
B6
  8
LAYER_1
 10
-25.504532077188
 20
125.9957121497329
 30
0.0
  0
VERTEX
  5
B7
  8
LAYER_1
 10
-25.51925106278783
 20
125.872927134967
 30
0.0
  0
VERTEX
  5
B8
  8
LAYER_1
 10
-25.52578061531417
 20
125.7391854694348
 30
0.0
  0
VERTEX
  5
B9
  8
LAYER_1
 10
-25.52412073476702
 20
125.5944871531362
 30
0.0
  0
VERTEX
  5
BA
  8
LAYER_1
 10
-25.49623267445225
 20
125.2722205682403
 30
0.0
  0
VERTEX
  5
BB
  8
LAYER_1
 10
-25.47343657101662
 20
125.1298460151079
 30
0.0
  0
VERTEX
  5
BC
  8
LAYER_1
 10
-25.44207023176268
 20
124.9900547832625
 30
0.0
  0
VERTEX
  5
BD
  8
LAYER_1
 10
-25.40213365669045
 20
124.8528468727042
 30
0.0
  0
VERTEX
  5
BE
  8
LAYER_1
 10
-25.35362684579991
 20
124.7182222834329
 30
0.0
  0
VERTEX
  5
BF
  8
LAYER_1
 10
-25.29546175696554
 20
124.5915736356374
 30
0.0
  0
VERTEX
  5
C0
  8
LAYER_1
 10
-25.2265503480618
 20
124.4782935495064
 30
0.0
  0
VERTEX
  5
C1
  8
LAYER_1
 10
-25.14689261908868
 20
124.37838202504
 30
0.0
  0
VERTEX
  5
C2
  8
LAYER_1
 10
-25.0564885700462
 20
124.2918390622381
 30
0.0
  0
VERTEX
  5
C3
  8
LAYER_1
 10
-24.95425015282411
 20
124.2240572891797
 30
0.0
  0
VERTEX
  5
C4
  8
LAYER_1
 10
-24.8390893193122
 20
124.1804293339437
 30
0.0
  0
VERTEX
  5
C5
  8
LAYER_1
 10
-24.71100606951045
 20
124.1609551965301
 30
0.0
  0
SEQEND
  5
14C
  8
LAYER_1
  0
POLYLINE
  5
72
  8
LAYER_1
 66
     1
 10
0.0
 20
0.0
 30
0.0
 70
     1
  0
VERTEX
  5
C6
  8
LAYER_1
 10
-24.60868147638963
 20
124.5823219545476
 30
0.0
  0
VERTEX
  5
C7
  8
LAYER_1
 10
-24.66033603919291
 20
124.5839029356768
 30
0.0
  0
VERTEX
  5
C8
  8
LAYER_1
 10
-24.70824793182133
 20
124.6000527756427
 30
0.0
  0
VERTEX
  5
C9
  8
LAYER_1
 10
-24.75241715427486
 20
124.6307714744453
 30
0.0
  0
VERTEX
  5
CA
  8
LAYER_1
 10
-24.79284370655352
 20
124.6760590320845
 30
0.0
  0
VERTEX
  5
CB
  8
LAYER_1
 10
-24.82977591993021
 20
124.7334101946069
 30
0.0
  0
VERTEX
  5
CC
  8
LAYER_1
 10
-24.86346213329974
 20
124.8003197635585
 30
0.0
  0
VERTEX
  5
CD
  8
LAYER_1
 10
-24.9210965600173
 20
124.9628141207492
 30
0.0
  0
VERTEX
  5
CE
  8
LAYER_1
 10
-24.96674043994602
 20
125.1535211974727
 30
0.0
  0
VERTEX
  5
CF
  8
LAYER_1
 10
-25.0013871153268
 20
125.362420102789
 30
0.0
  0
VERTEX
  5
D0
  8
LAYER_1
 10
-25.02291452062394
 20
125.5443852263709
 30
0.0
  0
VERTEX
  5
D1
  8
LAYER_1
 10
-25.03369553829426
 20
125.7094947546951
 30
0.0
  0
VERTEX
  5
D2
  8
LAYER_1
 10
-25.03373016833777
 20
125.8577486877614
 30
0.0
  0
VERTEX
  5
D3
  8
LAYER_1
 10
-25.02301841075446
 20
125.98914702557
 30
0.0
  0
VERTEX
  5
D4
  8
LAYER_1
 10
-24.99971338186374
 20
126.098470017228
 30
0.0
  0
VERTEX
  5
D5
  8
LAYER_1
 10
-24.96196815010745
 20
126.1804979749638
 30
0.0
  0
VERTEX
  5
D6
  8
LAYER_1
 10
-24.90978271548557
 20
126.2352308987775
 30
0.0
  0
VERTEX
  5
D7
  8
LAYER_1
 10
-24.87827492210004
 20
126.2523617229636
 30
0.0
  0
VERTEX
  5
D8
  8
LAYER_1
 10
-24.84315707799811
 20
126.2626687886691
 30
0.0
  0
VERTEX
  5
D9
  8
LAYER_1
 10
-24.77300145325761
 20
126.2587069191743
 30
0.0
  0
VERTEX
  5
DA
  8
LAYER_1
 10
-24.70784408838884
 20
126.2272130719272
 30
0.0
  0
VERTEX
  5
DB
  8
LAYER_1
 10
-24.64768498339179
 20
126.1681872469277
 30
0.0
  0
VERTEX
  5
DC
  8
LAYER_1
 10
-24.59252413826646
 20
126.081629444176
 30
0.0
  0
VERTEX
  5
DD
  8
LAYER_1
 10
-24.54282326789464
 20
125.9677368976502
 30
0.0
  0
VERTEX
  5
DE
  8
LAYER_1
 10
-24.4990440871581
 20
125.8267068413285
 30
0.0
  0
VERTEX
  5
DF
  8
LAYER_1
 10
-24.46118659605685
 20
125.6585392752109
 30
0.0
  0
VERTEX
  5
E0
  8
LAYER_1
 10
-24.42925079459088
 20
125.4632341992975
 30
0.0
  0
VERTEX
  5
E1
  8
LAYER_1
 10
-24.4084453101669
 20
125.2743937687235
 30
0.0
  0
VERTEX
  5
E2
  8
LAYER_1
 10
-24.40010434396706
 20
125.1066910042675
 30
0.0
  0
VERTEX
  5
E3
  8
LAYER_1
 10
-24.40422789599133
 20
124.9601259059296
 30
0.0
  0
VERTEX
  5
E4
  8
LAYER_1
 10
-24.42081596623974
 20
124.8346984737098
 30
0.0
  0
VERTEX
  5
E5
  8
LAYER_1
 10
-24.44967280764445
 20
124.7327809918915
 30
0.0
  0
VERTEX
  5
E6
  8
LAYER_1
 10
-24.49060267313767
 20
124.6567457447584
 30
0.0
  0
VERTEX
  5
E7
  8
LAYER_1
 10
-24.5436055627194
 20
124.6065927323104
 30
0.0
  0
SEQEND
  5
14D
  8
LAYER_1
  0
POLYLINE
  5
73
  8
LAYER_1
 66
     1
 10
0.0
 20
0.0
 30
0.0
 70
     1
  0
VERTEX
  5
E8
  8
LAYER_1
 10
-25.64027960543346
 20
126.5689456975185
 30
0.0
  0
VERTEX
  5
E9
  8
LAYER_1
 10
-26.12028159312011
 20
126.5905545568205
 30
0.0
  0
VERTEX
  5
EA
  8
LAYER_1
 10
-26.16469636662127
 20
125.6039601574932
 30
0.0
  0
VERTEX
  5
EB
  8
LAYER_1
 10
-26.23445802728058
 20
125.6071007068004
 30
0.0
  0
VERTEX
  5
EC
  8
LAYER_1
 10
-26.29071869220067
 20
125.6132511116228
 30
0.0
  0
VERTEX
  5
ED
  8
LAYER_1
 10
-26.33975627393434
 20
125.6304460934251
 30
0.0
  0
VERTEX
  5
EE
  8
LAYER_1
 10
-26.3815707724816
 20
125.658685652207
 30
0.0
  0
VERTEX
  5
EF
  8
LAYER_1
 10
-26.41616218784245
 20
125.6979697879686
 30
0.0
  0
VERTEX
  5
F0
  8
LAYER_1
 10
-26.44459598024598
 20
125.7514473096713
 30
0.0
  0
VERTEX
  5
F1
  8
LAYER_1
 10
-26.46793760992126
 20
125.8222670262761
 30
0.0
  0
VERTEX
  5
F2
  8
LAYER_1
 10
-26.4861870768683
 20
125.9104289377833
 30
0.0
  0
VERTEX
  5
F3
  8
LAYER_1
 10
-26.49934438108711
 20
126.0159330441926
 30
0.0
  0
VERTEX
  5
F4
  8
LAYER_1
 10
-26.54594788267146
 20
126.3896724469704
 30
0.0
  0
VERTEX
  5
F5
  8
LAYER_1
 10
-26.57145149467241
 20
126.5272001388301
 30
0.0
  0
VERTEX
  5
F6
  8
LAYER_1
 10
-26.59380970013025
 20
126.6118719732113
 30
0.0
  0
VERTEX
  5
F7
  8
LAYER_1
 10
-27.09587302559117
 20
126.6344739957839
 30
0.0
  0
VERTEX
  5
F8
  8
LAYER_1
 10
-27.06409534996452
 20
126.52795934603
 30
0.0
  0
VERTEX
  5
F9
  8
LAYER_1
 10
-27.03042743278478
 20
126.3641663526395
 30
0.0
  0
VERTEX
  5
FA
  8
LAYER_1
 10
-26.96845667144774
 20
125.956200129011
 30
0.0
  0
VERTEX
  5
FB
  8
LAYER_1
 10
-26.9331439507944
 20
125.7759319485421
 30
0.0
  0
VERTEX
  5
FC
  8
LAYER_1
 10
-26.90800954573611
 20
125.6999439523545
 30
0.0
  0
VERTEX
  5
FD
  8
LAYER_1
 10
-26.87788977752339
 20
125.6333866855314
 30
0.0
  0
VERTEX
  5
FE
  8
LAYER_1
 10
-26.84168391917423
 20
125.5758617675395
 30
0.0
  0
VERTEX
  5
FF
  8
LAYER_1
 10
-26.7982911852235
 20
125.5269708712899
 30
0.0
  0
VERTEX
  5
100
  8
LAYER_1
 10
-26.7477115756712
 20
125.4867139967824
 30
0.0
  0
VERTEX
  5
101
  8
LAYER_1
 10
-26.68994509051733
 20
125.4550911440172
 30
0.0
  0
VERTEX
  5
102
  8
LAYER_1
 10
-26.69027490372192
 20
125.447764936208
 30
0.0
  0
VERTEX
  5
103
  8
LAYER_1
 10
-26.78151112954201
 20
125.4017604980726
 30
0.0
  0
VERTEX
  5
104
  8
LAYER_1
 10
-26.86139276397241
 20
125.3461001970691
 30
0.0
  0
VERTEX
  5
105
  8
LAYER_1
 10
-26.92991980701312
 20
125.2807840331975
 30
0.0
  0
VERTEX
  5
106
  8
LAYER_1
 10
-26.98709225866414
 20
125.2058120064578
 30
0.0
  0
VERTEX
  5
107
  8
LAYER_1
 10
-27.03272367428989
 20
125.1234152857842
 30
0.0
  0
VERTEX
  5
108
  8
LAYER_1
 10
-27.06662755329111
 20
125.0358250375913
 30
0.0
  0
VERTEX
  5
109
  8
LAYER_1
 10
-27.08880389566779
 20
124.943041261879
 30
0.0
  0
VERTEX
  5
10A
  8
LAYER_1
 10
-27.09925270141995
 20
124.8450639586475
 30
0.0
  0
VERTEX
  5
10B
  8
LAYER_1
 10
-27.09683108959425
 20
124.6936877310018
 30
0.0
  0
VERTEX
  5
10C
  8
LAYER_1
 10
-27.07135118878869
 20
124.5575189438787
 30
0.0
  0
VERTEX
  5
10D
  8
LAYER_1
 10
-27.0485237317767
 20
124.4946426398975
 30
0.0
  0
VERTEX
  5
10E
  8
LAYER_1
 10
-27.01705040603618
 20
124.4345787948154
 30
0.0
  0
VERTEX
  5
10F
  8
LAYER_1
 10
-26.97693121156716
 20
124.3773274086324
 30
0.0
  0
VERTEX
  5
110
  8
LAYER_1
 10
-26.92816614836963
 20
124.3228884813486
 30
0.0
  0
VERTEX
  5
111
  8
LAYER_1
 10
-26.86631937786038
 20
124.2704941107819
 30
0.0
  0
VERTEX
  5
112
  8
LAYER_1
 10
-26.79822332674149
 20
124.2264214232881
 30
0.0
  0
VERTEX
  5
113
  8
LAYER_1
 10
-26.72387799501298
 20
124.1906704188672
 30
0.0
  0
VERTEX
  5
114
  8
LAYER_1
 10
-26.64328338267484
 20
124.1632410975191
 30
0.0
  0
VERTEX
  5
115
  8
LAYER_1
 10
-26.46776850398651
 20
124.1266639022164
 30
0.0
  0
VERTEX
  5
116
  8
LAYER_1
 10
-26.27610087849329
 20
124.1100062355551
 30
0.0
  0
VERTEX
  5
117
  8
LAYER_1
 10
-26.00109107735117
 20
124.1104719159859
 30
0.0
  0
VERTEX
  5
118
  8
LAYER_1
 10
-25.74989515663935
 20
124.1340331588768
 30
0.0
  0
SEQEND
  5
14E
  8
LAYER_1
  0
POLYLINE
  5
74
  8
LAYER_1
 66
     1
 10
0.0
 20
0.0
 30
0.0
 70
     1
  0
VERTEX
  5
119
  8
LAYER_1
 10
-26.21455940685815
 20
124.496342300794
 30
0.0
  0
VERTEX
  5
11A
  8
LAYER_1
 10
-26.26647901146356
 20
124.4871882526366
 30
0.0
  0
VERTEX
  5
11B
  8
LAYER_1
 10
-26.32904188936164
 20
124.4867873005878
 30
0.0
  0
VERTEX
  5
11C
  8
LAYER_1
 10
-26.40345450879074
 20
124.4999480388549
 30
0.0
  0
VERTEX
  5
11D
  8
LAYER_1
 10
-26.46607911205626
 20
124.5240410068254
 30
0.0
  0
VERTEX
  5
11E
  8
LAYER_1
 10
-26.51691569915821
 20
124.5590662044995
 30
0.0
  0
VERTEX
  5
11F
  8
LAYER_1
 10
-26.55596427009658
 20
124.605023631877
 30
0.0
  0
VERTEX
  5
120
  8
LAYER_1
 10
-26.58443248005618
 20
124.6599853434276
 30
0.0
  0
VERTEX
  5
121
  8
LAYER_1
 10
-26.60352792825809
 20
124.7220233911013
 30
0.0
  0
VERTEX
  5
122
  8
LAYER_1
 10
-26.61325061470233
 20
124.7911377748982
 30
0.0
  0
VERTEX
  5
123
  8
LAYER_1
 10
-26.61360053938889
 20
124.8673284948183
 30
0.0
  0
VERTEX
  5
124
  8
LAYER_1
 10
-26.60421574422917
 20
124.9464997194501
 30
0.0
  0
VERTEX
  5
125
  8
LAYER_1
 10
-26.58457520504079
 20
125.0178833546448
 30
0.0
  0
VERTEX
  5
126
  8
LAYER_1
 10
-26.55467892182375
 20
125.0814794004026
 30
0.0
  0
VERTEX
  5
127
  8
LAYER_1
 10
-26.51452689457804
 20
125.1372878567233
 30
0.0
  0
VERTEX
  5
128
  8
LAYER_1
 10
-26.46502157564059
 20
125.1825051541077
 30
0.0
  0
VERTEX
  5
129
  8
LAYER_1
 10
-26.40706535886522
 20
125.214327776501
 30
0.0
  0
VERTEX
  5
12A
  8
LAYER_1
 10
-26.34065824425193
 20
125.2327557239032
 30
0.0
  0
VERTEX
  5
12B
  8
LAYER_1
 10
-26.26580023180071
 20
125.2377889963142
 30
0.0
  0
VERTEX
  5
12C
  8
LAYER_1
 10
-26.18135190573944
 20
125.2339872787319
 30
0.0
  0
SEQEND
  5
14F
  8
LAYER_1
  0
POLYLINE
  5
75
  8
LAYER_1
 66
     1
 10
0.0
 20
0.0
 30
0.0
 70
     1
  0
VERTEX
  5
12D
  8
LAYER_1
 10
-28.49269005576371
 20
127.1067431715611
 30
0.0
  0
VERTEX
  5
12E
  8
LAYER_1
 10
-28.89925709720866
 20
127.2450295507115
 30
0.0
  0
VERTEX
  5
12F
  8
LAYER_1
 10
-29.55346854507318
 20
124.8543212439702
 30
0.0
  0
VERTEX
  5
130
  8
LAYER_1
 10
-29.07391116713292
 20
124.6912085303706
 30
0.0
  0
VERTEX
  5
131
  8
LAYER_1
 10
-28.60132418111285
 20
125.4764973096576
 30
0.0
  0
VERTEX
  5
132
  8
LAYER_1
 10
-28.3722753250508
 20
125.870639548607
 30
0.0
  0
VERTEX
  5
133
  8
LAYER_1
 10
-28.17294198782359
 20
126.2458099842266
 30
0.0
  0
VERTEX
  5
134
  8
LAYER_1
 10
-28.16599188089692
 20
126.2434460318556
 30
0.0
  0
VERTEX
  5
135
  8
LAYER_1
 10
-28.22720076466975
 20
125.8198410980242
 30
0.0
  0
VERTEX
  5
136
  8
LAYER_1
 10
-28.27814420902268
 20
125.3665735244057
 30
0.0
  0
VERTEX
  5
137
  8
LAYER_1
 10
-28.37890047446588
 20
124.4548132932698
 30
0.0
  0
VERTEX
  5
138
  8
LAYER_1
 10
-27.89934309652562
 20
124.2917005796702
 30
0.0
  0
VERTEX
  5
139
  8
LAYER_1
 10
-26.9323910507262
 20
126.5760358642697
 30
0.0
  0
VERTEX
  5
13A
  8
LAYER_1
 10
-27.32507209208307
 20
126.7095991732316
 30
0.0
  0
VERTEX
  5
13B
  8
LAYER_1
 10
-27.63988855001709
 20
125.909413579799
 30
0.0
  0
VERTEX
  5
13C
  8
LAYER_1
 10
-27.79025517493669
 20
125.532873135284
 30
0.0
  0
VERTEX
  5
13D
  8
LAYER_1
 10
-27.94069122304787
 20
125.139030268272
 30
0.0
  0
VERTEX
  5
13E
  8
LAYER_1
 10
-27.95111638343788
 20
125.1425761968285
 30
0.0
  0
VERTEX
  5
13F
  8
LAYER_1
 10
-27.88529699302955
 20
125.5569384934042
 30
0.0
  0
VERTEX
  5
140
  8
LAYER_1
 10
-27.84414329392852
 20
125.924430223871
 30
0.0
  0
VERTEX
  5
141
  8
LAYER_1
 10
-27.75855807725154
 20
126.8143845359696
 30
0.0
  0
VERTEX
  5
142
  8
LAYER_1
 10
-28.08173804934171
 20
126.9243083212215
 30
0.0
  0
VERTEX
  5
143
  8
LAYER_1
 10
-28.56820827578615
 20
126.1551961103765
 30
0.0
  0
VERTEX
  5
144
  8
LAYER_1
 10
-28.75771898925295
 20
125.8473754124526
 30
0.0
  0
VERTEX
  5
145
  8
LAYER_1
 10
-28.96235694126843
 20
125.4865312668103
 30
0.0
  0
VERTEX
  5
146
  8
LAYER_1
 10
-28.97278210165844
 20
125.4900771953668
 30
0.0
  0
VERTEX
  5
147
  8
LAYER_1
 10
-28.84132633318093
 20
125.889385553027
 30
0.0
  0
VERTEX
  5
148
  8
LAYER_1
 10
-28.72999539609064
 20
126.2722716075981
 30
0.0
  0
SEQEND
  5
150
  8
LAYER_1
  0
ENDSEC
  0
EOF
