  0
SECTION
  2
HEADER
  9
$ACADVER
  1
AC1009
  9
$DWGCODEPAGE
  3
ansi_1252
  9
$INSBASE
 10
0.0
 20
0.0
 30
0.0
  9
$EXTMIN
 10
-39.66522861378879
 20
120.3761632116259
 30
0.0
  9
$EXTMAX
 10
-34.69928199192086
 20
123.2334950204204
 30
0.0
  9
$LIMMIN
 10
0.0
 20
0.0
  9
$LIMMAX
 10
12.0
 20
9.0
  9
$ORTHOMODE
 70
     0
  9
$REGENMODE
 70
     1
  9
$FILLMODE
 70
     1
  9
$QTEXTMODE
 70
     0
  9
$MIRRTEXT
 70
     1
  9
$DRAGMODE
 70
     2
  9
$LTSCALE
 40
1.0
  9
$OSMODE
 70
    37
  9
$ATTMODE
 70
     1
  9
$TEXTSIZE
 40
0.2
  9
$TRACEWID
 40
0.05
  9
$TEXTSTYLE
  7
STANDARD
  9
$CLAYER
  8
0
  9
$CELTYPE
  6
BYLAYER
  9
$CECOLOR
 62
   256
  9
$DIMSCALE
 40
1.0
  9
$DIMASZ
 40
0.18
  9
$DIMEXO
 40
0.0625
  9
$DIMDLI
 40
0.38
  9
$DIMRND
 40
0.0
  9
$DIMDLE
 40
0.0
  9
$DIMEXE
 40
0.18
  9
$DIMTP
 40
0.0
  9
$DIMTM
 40
0.0
  9
$DIMTXT
 40
0.18
  9
$DIMCEN
 40
0.09
  9
$DIMTSZ
 40
0.0
  9
$DIMTOL
 70
     0
  9
$DIMLIM
 70
     0
  9
$DIMTIH
 70
     1
  9
$DIMTOH
 70
     1
  9
$DIMSE1
 70
     0
  9
$DIMSE2
 70
     0
  9
$DIMTAD
 70
     0
  9
$DIMZIN
 70
     0
  9
$DIMBLK
  1

  9
$DIMASO
 70
     1
  9
$DIMSHO
 70
     1
  9
$DIMPOST
  1

  9
$DIMAPOST
  1

  9
$DIMALT
 70
     0
  9
$DIMALTD
 70
     2
  9
$DIMALTF
 40
25.4
  9
$DIMLFAC
 40
1.0
  9
$DIMTOFL
 70
     0
  9
$DIMTVP
 40
0.0
  9
$DIMTIX
 70
     0
  9
$DIMSOXD
 70
     0
  9
$DIMSAH
 70
     0
  9
$DIMBLK1
  1

  9
$DIMBLK2
  1

  9
$DIMSTYLE
  2
STANDARD
  9
$DIMCLRD
 70
     0
  9
$DIMCLRE
 70
     0
  9
$DIMCLRT
 70
     0
  9
$DIMTFAC
 40
1.0
  9
$DIMGAP
 40
0.09
  9
$LUNITS
 70
     2
  9
$LUPREC
 70
     4
  9
$SKETCHINC
 40
0.1
  9
$FILLETRAD
 40
0.5
  9
$AUNITS
 70
     0
  9
$AUPREC
 70
     0
  9
$MENU
  1
.
  9
$ELEVATION
 40
0.0
  9
$PELEVATION
 40
0.0
  9
$THICKNESS
 40
0.0
  9
$LIMCHECK
 70
     0
  9
$CHAMFERA
 40
0.0
  9
$CHAMFERB
 40
0.0
  9
$SKPOLY
 70
     0
  9
$TDCREATE
 40
2454910.5
  9
$TDUPDATE
 40
2458014.720024016
  9
$TDINDWG
 40
0.0000000116
  9
$TDUSRTIMER
 40
0.0000000116
  9
$USRTIMER
 70
     1
  9
$ANGBASE
 50
0.0
  9
$ANGDIR
 70
     0
  9
$PDMODE
 70
     0
  9
$PDSIZE
 40
0.0
  9
$PLINEWID
 40
0.0
  9
$COORDS
 70
     1
  9
$SPLFRAME
 70
     0
  9
$SPLINETYPE
 70
     6
  9
$SPLINESEGS
 70
     8
  9
$ATTDIA
 70
     0
  9
$ATTREQ
 70
     1
  9
$HANDLING
 70
     1
  9
$HANDSEED
  5
EE
  9
$SURFTAB1
 70
     6
  9
$SURFTAB2
 70
     6
  9
$SURFTYPE
 70
     6
  9
$SURFU
 70
     6
  9
$SURFV
 70
     6
  9
$UCSNAME
  2

  9
$UCSORG
 10
0.0
 20
0.0
 30
0.0
  9
$UCSXDIR
 10
1.0
 20
0.0
 30
0.0
  9
$UCSYDIR
 10
0.0
 20
1.0
 30
0.0
  9
$PUCSNAME
  2

  9
$PUCSORG
 10
0.0
 20
0.0
 30
0.0
  9
$PUCSXDIR
 10
1.0
 20
0.0
 30
0.0
  9
$PUCSYDIR
 10
0.0
 20
1.0
 30
0.0
  9
$USERI1
 70
     0
  9
$USERI2
 70
     0
  9
$USERI3
 70
     0
  9
$USERI4
 70
     0
  9
$USERI5
 70
     0
  9
$USERR1
 40
0.0
  9
$USERR2
 40
0.0
  9
$USERR3
 40
0.0
  9
$USERR4
 40
0.0
  9
$USERR5
 40
0.0
  9
$WORLDVIEW
 70
     1
  9
$SHADEDGE
 70
     3
  9
$SHADEDIF
 70
    70
  9
$TILEMODE
 70
     1
  9
$MAXACTVP
 70
    64
  9
$PLIMCHECK
 70
     0
  9
$PEXTMIN
 10
1.000000000000000E+20
 20
1.000000000000000E+20
 30
1.000000000000000E+20
  9
$PEXTMAX
 10
-1.000000000000000E+20
 20
-1.000000000000000E+20
 30
-1.000000000000000E+20
  9
$PLIMMIN
 10
0.0
 20
0.0
  9
$PLIMMAX
 10
12.0
 20
9.0
  9
$UNITMODE
 70
     0
  9
$VISRETAIN
 70
     1
  9
$PLINEGEN
 70
     0
  9
$PSLTSCALE
 70
     1
  0
ENDSEC
  0
SECTION
  2
TABLES
  0
TABLE
  2
VPORT
 70
     1
  0
VPORT
  2
*ACTIVE
 70
     0
 10
0.0
 20
0.0
 11
1.0
 21
1.0
 12
10.42990654205607
 22
4.5
 13
0.0
 23
0.0
 14
0.5
 24
0.5
 15
0.5
 25
0.5
 16
0.0
 26
0.0
 36
1.0
 17
0.0
 27
0.0
 37
0.0
 40
9.0
 41
1.972972972850329
 42
50.0
 43
0.0
 44
0.0
 50
0.0
 51
0.0
 71
     0
 72
   100
 73
     1
 74
     3
 75
     0
 76
     0
 77
     0
 78
     0
  0
ENDTAB
  0
TABLE
  2
LTYPE
 70
     2
  0
LTYPE
  2
CONTINUOUS
 70
     0
  3
Solid line
 72
    65
 73
     0
 40
0.0
  0
LTYPE
  2
CONTINUOUS2
 70
     0
  3
Solid Line
 72
    65
 73
     0
 40
0.0
  0
ENDTAB
  0
TABLE
  2
LAYER
 70
     2
  0
LAYER
  2
0
 70
     0
 62
     7
  6
CONTINUOUS
  0
LAYER
  2
LAYER_1
 70
     0
 62
    18
  6
CONTINUOUS
  0
ENDTAB
  0
TABLE
  2
STYLE
 70
     1
  0
STYLE
  2
STANDARD
 70
     0
 40
0.0
 41
1.0
 50
0.0
 71
     0
 42
0.2
  3
txt
  4

  0
ENDTAB
  0
TABLE
  2
VIEW
 70
     0
  0
ENDTAB
  0
TABLE
  2
UCS
 70
     0
  0
ENDTAB
  0
TABLE
  2
APPID
 70
     1
  0
APPID
  2
ACAD
 70
     0
  0
ENDTAB
  0
TABLE
  2
DIMSTYLE
 70
     1
  0
DIMSTYLE
  2
STANDARD
 70
     0
  3

  4

  5

  6

  7

 40
1.0
 41
0.18
 42
0.0625
 43
0.38
 44
0.18
 45
0.0
 46
0.0
 47
0.0
 48
0.0
140
0.18
141
0.09
142
0.0
143
25.4
144
1.0
145
0.0
146
1.0
147
0.09
 71
     0
 72
     0
 73
     1
 74
     1
 75
     0
 76
     0
 77
     0
 78
     0
170
     0
171
     2
172
     0
173
     0
174
     0
175
     0
176
     0
177
     0
178
     0
  0
ENDTAB
  0
ENDSEC
  0
SECTION
  2
BLOCKS
  0
BLOCK
  8
0
  2
$MODEL_SPACE
 70
     0
 10
0.0
 20
0.0
 30
0.0
  3
$MODEL_SPACE
  1

  0
ENDBLK
  5
21
  8
0
  0
BLOCK
 67
     1
  8
0
  2
$PAPER_SPACE
 70
     0
 10
0.0
 20
0.0
 30
0.0
  3
$PAPER_SPACE
  1

  0
ENDBLK
  5
1D
 67
     1
  8
0
  0
ENDSEC
  0
SECTION
  2
ENTITIES
  0
POLYLINE
  5
70
  8
LAYER_1
 66
     1
 10
0.0
 20
0.0
 30
0.0
 70
     1
  0
VERTEX
  5
7B
  8
LAYER_1
 10
-35.41769169066495
 20
120.4849433331106
 30
0.0
  0
VERTEX
  5
7C
  8
LAYER_1
 10
-35.27804123500277
 20
120.5181323168517
 30
0.0
  0
VERTEX
  5
7D
  8
LAYER_1
 10
-35.15398644781519
 20
120.5721937352141
 30
0.0
  0
VERTEX
  5
7E
  8
LAYER_1
 10
-35.0455273291022
 20
120.6471275881977
 30
0.0
  0
VERTEX
  5
7F
  8
LAYER_1
 10
-34.9526638788638
 20
120.7429338758025
 30
0.0
  0
VERTEX
  5
80
  8
LAYER_1
 10
-34.87480336627036
 20
120.8559391215954
 30
0.0
  0
VERTEX
  5
81
  8
LAYER_1
 10
-34.81135299993493
 20
120.9824698574599
 30
0.0
  0
VERTEX
  5
82
  8
LAYER_1
 10
-34.76231277985753
 20
121.122526083396
 30
0.0
  0
VERTEX
  5
83
  8
LAYER_1
 10
-34.72768270603814
 20
121.2761077994036
 30
0.0
  0
VERTEX
  5
84
  8
LAYER_1
 10
-34.70687004022383
 20
121.4395415030757
 30
0.0
  0
VERTEX
  5
85
  8
LAYER_1
 10
-34.69928199192086
 20
121.6091537608789
 30
0.0
  0
VERTEX
  5
86
  8
LAYER_1
 10
-34.70491856112923
 20
121.7849445728133
 30
0.0
  0
VERTEX
  5
87
  8
LAYER_1
 10
-34.72377974784893
 20
121.9669139388787
 30
0.0
  0
VERTEX
  5
88
  8
LAYER_1
 10
-34.75362311937549
 20
122.1485783333122
 30
0.0
  0
VERTEX
  5
89
  8
LAYER_1
 10
-34.79324030143236
 20
122.321102577901
 30
0.0
  0
VERTEX
  5
8A
  8
LAYER_1
 10
-34.8426312940195
 20
122.4844866726452
 30
0.0
  0
VERTEX
  5
8B
  8
LAYER_1
 10
-34.90179609713694
 20
122.6387306175446
 30
0.0
  0
VERTEX
  5
8C
  8
LAYER_1
 10
-34.97112191338864
 20
122.7798857846234
 30
0.0
  0
VERTEX
  5
8D
  8
LAYER_1
 10
-35.05099595369503
 20
122.9040036064629
 30
0.0
  0
VERTEX
  5
8E
  8
LAYER_1
 10
-35.14141821805613
 20
123.011084083063
 30
0.0
  0
VERTEX
  5
8F
  8
LAYER_1
 10
-35.24238870647194
 20
123.1011272144239
 30
0.0
  0
VERTEX
  5
90
  8
LAYER_1
 10
-35.3542946513053
 20
123.1701843646263
 30
0.0
  0
VERTEX
  5
91
  8
LAYER_1
 10
-35.47752323267821
 20
123.2143069666252
 30
0.0
  0
VERTEX
  5
92
  8
LAYER_1
 10
-35.61207445059067
 20
123.2334950204204
 30
0.0
  0
VERTEX
  5
93
  8
LAYER_1
 10
-35.7579483050427
 20
123.2277485260121
 30
0.0
  0
VERTEX
  5
94
  8
LAYER_1
 10
-35.8519155999452
 20
123.2109216744381
 30
0.0
  0
VERTEX
  5
95
  8
LAYER_1
 10
-35.93966532781015
 20
123.1840541716553
 30
0.0
  0
VERTEX
  5
96
  8
LAYER_1
 10
-36.02119748863753
 20
123.1471460176636
 30
0.0
  0
VERTEX
  5
97
  8
LAYER_1
 10
-36.09651208242736
 20
123.1001972124632
 30
0.0
  0
VERTEX
  5
98
  8
LAYER_1
 10
-36.16560910917963
 20
123.043207756054
 30
0.0
  0
VERTEX
  5
99
  8
LAYER_1
 10
-36.22848856889433
 20
122.9761776484359
 30
0.0
  0
VERTEX
  5
9A
  8
LAYER_1
 10
-36.28515046157149
 20
122.899106889609
 30
0.0
  0
VERTEX
  5
9B
  8
LAYER_1
 10
-36.33559478721109
 20
122.8119954795733
 30
0.0
  0
VERTEX
  5
9C
  8
LAYER_1
 10
-36.37846245998666
 20
122.7138861423396
 30
0.0
  0
VERTEX
  5
9D
  8
LAYER_1
 10
-36.41239436795138
 20
122.6038216363557
 30
0.0
  0
VERTEX
  5
9E
  8
LAYER_1
 10
-36.43739051110522
 20
122.4818019616214
 30
0.0
  0
VERTEX
  5
9F
  8
LAYER_1
 10
-36.45345088944818
 20
122.3478271181369
 30
0.0
  0
VERTEX
  5
A0
  8
LAYER_1
 10
-36.46057550298028
 20
122.2018971059022
 30
0.0
  0
VERTEX
  5
A1
  8
LAYER_1
 10
-36.4587643517015
 20
122.0440119249171
 30
0.0
  0
VERTEX
  5
A2
  8
LAYER_1
 10
-36.44801743561187
 20
121.8741715751818
 30
0.0
  0
VERTEX
  5
A3
  8
LAYER_1
 10
-36.42833475471135
 20
121.6923760566962
 30
0.0
  0
VERTEX
  5
A4
  8
LAYER_1
 10
-36.40346116247643
 20
121.5370264115587
 30
0.0
  0
VERTEX
  5
A5
  8
LAYER_1
 10
-36.3692362987971
 20
121.3844955148308
 30
0.0
  0
VERTEX
  5
A6
  8
LAYER_1
 10
-36.32566016367335
 20
121.2347833665126
 30
0.0
  0
VERTEX
  5
A7
  8
LAYER_1
 10
-36.2727327571052
 20
121.087889966604
 30
0.0
  0
VERTEX
  5
A8
  8
LAYER_1
 10
-36.20926687987495
 20
120.9496993836711
 30
0.0
  0
VERTEX
  5
A9
  8
LAYER_1
 10
-36.13407533276492
 20
120.8260956862798
 30
0.0
  0
VERTEX
  5
AA
  8
LAYER_1
 10
-36.04715811577512
 20
120.7170788744302
 30
0.0
  0
VERTEX
  5
AB
  8
LAYER_1
 10
-35.94851522890553
 20
120.6226489481222
 30
0.0
  0
VERTEX
  5
AC
  8
LAYER_1
 10
-35.83695946640839
 20
120.5486899845311
 30
0.0
  0
VERTEX
  5
AD
  8
LAYER_1
 10
-35.71130362253592
 20
120.5010860608321
 30
0.0
  0
VERTEX
  5
AE
  8
LAYER_1
 10
-35.5715476972881
 20
120.4798371770253
 30
0.0
  0
SEQEND
  5
EA
  8
LAYER_1
  0
POLYLINE
  5
71
  8
LAYER_1
 66
     1
 10
0.0
 20
0.0
 30
0.0
 70
     1
  0
VERTEX
  5
AF
  8
LAYER_1
 10
-35.45989790538055
 20
120.9396045644594
 30
0.0
  0
VERTEX
  5
B0
  8
LAYER_1
 10
-35.51625992952515
 20
120.9413296259397
 30
0.0
  0
VERTEX
  5
B1
  8
LAYER_1
 10
-35.56853820084496
 20
120.9589512574218
 30
0.0
  0
VERTEX
  5
B2
  8
LAYER_1
 10
-35.61673271933996
 20
120.9924694589057
 30
0.0
  0
VERTEX
  5
B3
  8
LAYER_1
 10
-35.66084348501016
 20
121.0418842303912
 30
0.0
  0
VERTEX
  5
B4
  8
LAYER_1
 10
-35.7011414604277
 20
121.1044620053522
 30
0.0
  0
VERTEX
  5
B5
  8
LAYER_1
 10
-35.73789761648121
 20
121.1774692778194
 30
0.0
  0
VERTEX
  5
B6
  8
LAYER_1
 10
-35.80078447049615
 20
121.3547723152727
 30
0.0
  0
VERTEX
  5
B7
  8
LAYER_1
 10
-35.85058803717026
 20
121.5628591962666
 30
0.0
  0
VERTEX
  5
B8
  8
LAYER_1
 10
-35.88839218550423
 20
121.7907957909495
 30
0.0
  0
VERTEX
  5
B9
  8
LAYER_1
 10
-35.9118814586929
 20
121.9893440339741
 30
0.0
  0
VERTEX
  5
BA
  8
LAYER_1
 10
-35.92364498828761
 20
122.1695005722716
 30
0.0
  0
VERTEX
  5
BB
  8
LAYER_1
 10
-35.92368277428835
 20
122.3312654058419
 30
0.0
  0
VERTEX
  5
BC
  8
LAYER_1
 10
-35.91199481669513
 20
122.4746385346849
 30
0.0
  0
VERTEX
  5
BD
  8
LAYER_1
 10
-35.88656591884477
 20
122.5939245137155
 30
0.0
  0
VERTEX
  5
BE
  8
LAYER_1
 10
-35.84538083183332
 20
122.6834279667221
 30
0.0
  0
VERTEX
  5
BF
  8
LAYER_1
 10
-35.81887971739218
 20
122.7170112459664
 30
0.0
  0
VERTEX
  5
C0
  8
LAYER_1
 10
-35.78843955566076
 20
122.7431488937047
 30
0.0
  0
VERTEX
  5
C1
  8
LAYER_1
 10
-35.75406034663906
 20
122.761840909937
 30
0.0
  0
VERTEX
  5
C2
  8
LAYER_1
 10
-35.7157420903271
 20
122.7730872946633
 30
0.0
  0
VERTEX
  5
C3
  8
LAYER_1
 10
-35.67678579287742
 20
122.7746809633117
 30
0.0
  0
VERTEX
  5
C4
  8
LAYER_1
 10
-35.63919293763053
 20
122.7687643661163
 30
0.0
  0
VERTEX
  5
C5
  8
LAYER_1
 10
-35.56809755374512
 20
122.7344003741935
 30
0.0
  0
VERTEX
  5
C6
  8
LAYER_1
 10
-35.50245593867088
 20
122.6699953188948
 30
0.0
  0
VERTEX
  5
C7
  8
LAYER_1
 10
-35.44226809240782
 20
122.5755492002203
 30
0.0
  0
VERTEX
  5
C8
  8
LAYER_1
 10
-35.38803780753304
 20
122.4512772267719
 30
0.0
  0
VERTEX
  5
C9
  8
LAYER_1
 10
-35.34026887662367
 20
122.2973946071515
 30
0.0
  0
VERTEX
  5
CA
  8
LAYER_1
 10
-35.29896129967972
 20
122.1139013413591
 30
0.0
  0
VERTEX
  5
CB
  8
LAYER_1
 10
-35.26411507670119
 20
121.9007974293946
 30
0.0
  0
VERTEX
  5
CC
  8
LAYER_1
 10
-35.24141351556496
 20
121.6947473085559
 30
0.0
  0
VERTEX
  5
CD
  8
LAYER_1
 10
-35.23231240788284
 20
121.5117612034294
 30
0.0
  0
VERTEX
  5
CE
  8
LAYER_1
 10
-35.23681175365485
 20
121.3518391140152
 30
0.0
  0
VERTEX
  5
CF
  8
LAYER_1
 10
-35.25491155288098
 20
121.2149810403133
 30
0.0
  0
VERTEX
  5
D0
  8
LAYER_1
 10
-35.28639821937709
 20
121.1037754611881
 30
0.0
  0
VERTEX
  5
D1
  8
LAYER_1
 10
-35.33105816695906
 20
121.0208108555041
 30
0.0
  0
VERTEX
  5
D2
  8
LAYER_1
 10
-35.38889139562689
 20
120.9660872232612
 30
0.0
  0
VERTEX
  5
D3
  8
LAYER_1
 10
-35.42274799036798
 20
120.9493157721801
 30
0.0
  0
SEQEND
  5
EB
  8
LAYER_1
  0
POLYLINE
  5
72
  8
LAYER_1
 66
     1
 10
0.0
 20
0.0
 30
0.0
 70
     1
  0
VERTEX
  5
D4
  8
LAYER_1
 10
-36.622563385798
 20
123.0729312188004
 30
0.0
  0
VERTEX
  5
D5
  8
LAYER_1
 10
-37.14630963687903
 20
123.0965093691829
 30
0.0
  0
VERTEX
  5
D6
  8
LAYER_1
 10
-37.19639350443282
 20
121.9839862303691
 30
0.0
  0
VERTEX
  5
D7
  8
LAYER_1
 10
-37.80467950377814
 20
122.0113702140033
 30
0.0
  0
VERTEX
  5
D8
  8
LAYER_1
 10
-37.82429418284512
 20
121.5756653575644
 30
0.0
  0
VERTEX
  5
D9
  8
LAYER_1
 10
-37.21600818349981
 20
121.5482813739301
 30
0.0
  0
VERTEX
  5
DA
  8
LAYER_1
 10
-37.24719800038589
 20
120.8554556263205
 30
0.0
  0
VERTEX
  5
DB
  8
LAYER_1
 10
-37.89550281547761
 20
120.8846411878255
 30
0.0
  0
VERTEX
  5
DC
  8
LAYER_1
 10
-37.91601828347994
 20
120.4289269235133
 30
0.0
  0
VERTEX
  5
DD
  8
LAYER_1
 10
-36.74396721730718
 20
120.3761632116259
 30
0.0
  0
SEQEND
  5
EC
  8
LAYER_1
  0
POLYLINE
  5
73
  8
LAYER_1
 66
     1
 10
0.0
 20
0.0
 30
0.0
 70
     1
  0
VERTEX
  5
DE
  8
LAYER_1
 10
-37.9054114073598
 20
123.1101652946363
 30
0.0
  0
VERTEX
  5
DF
  8
LAYER_1
 10
-38.41577803553542
 20
123.2301318297265
 30
0.0
  0
VERTEX
  5
E0
  8
LAYER_1
 10
-38.67060667802346
 20
122.1460292095133
 30
0.0
  0
VERTEX
  5
E1
  8
LAYER_1
 10
-39.26335340186449
 20
122.2853599704204
 30
0.0
  0
VERTEX
  5
E2
  8
LAYER_1
 10
-39.36315364261289
 20
121.8607856312217
 30
0.0
  0
VERTEX
  5
E3
  8
LAYER_1
 10
-38.77040691877186
 20
121.7214548703147
 30
0.0
  0
VERTEX
  5
E4
  8
LAYER_1
 10
-38.92910190549578
 20
121.0463280508082
 30
0.0
  0
VERTEX
  5
E5
  8
LAYER_1
 10
-39.56084512432634
 20
121.1948253091434
 30
0.0
  0
VERTEX
  5
E6
  8
LAYER_1
 10
-39.66522861378879
 20
120.75075272245
 30
0.0
  0
VERTEX
  5
E7
  8
LAYER_1
 10
-38.5231187667826
 20
120.4822889290246
 30
0.0
  0
SEQEND
  5
ED
  8
LAYER_1
  0
ENDSEC
  0
EOF
