  0
SECTION
  2
HEADER
  9
$ACADVER
  1
AC1009
  9
$DWGCODEPAGE
  3
ansi_1252
  9
$INSBASE
 10
0.0
 20
0.0
 30
0.0
  9
$EXTMIN
 10
-39.66522861378879
 20
120.0711221758993
 30
0.0
  9
$EXTMAX
 10
-17.69758741897061
 20
123.4786488069195
 30
0.0
  9
$LIMMIN
 10
0.0
 20
0.0
  9
$LIMMAX
 10
12.0
 20
9.0
  9
$ORTHOMODE
 70
     0
  9
$REGENMODE
 70
     1
  9
$FILLMODE
 70
     1
  9
$QTEXTMODE
 70
     0
  9
$MIRRTEXT
 70
     1
  9
$DRAGMODE
 70
     2
  9
$LTSCALE
 40
1.0
  9
$OSMODE
 70
    37
  9
$ATTMODE
 70
     1
  9
$TEXTSIZE
 40
0.2
  9
$TRACEWID
 40
0.05
  9
$TEXTSTYLE
  7
STANDARD
  9
$CLAYER
  8
0
  9
$CELTYPE
  6
BYLAYER
  9
$CECOLOR
 62
   256
  9
$DIMSCALE
 40
1.0
  9
$DIMASZ
 40
0.18
  9
$DIMEXO
 40
0.0625
  9
$DIMDLI
 40
0.38
  9
$DIMRND
 40
0.0
  9
$DIMDLE
 40
0.0
  9
$DIMEXE
 40
0.18
  9
$DIMTP
 40
0.0
  9
$DIMTM
 40
0.0
  9
$DIMTXT
 40
0.18
  9
$DIMCEN
 40
0.09
  9
$DIMTSZ
 40
0.0
  9
$DIMTOL
 70
     0
  9
$DIMLIM
 70
     0
  9
$DIMTIH
 70
     1
  9
$DIMTOH
 70
     1
  9
$DIMSE1
 70
     0
  9
$DIMSE2
 70
     0
  9
$DIMTAD
 70
     0
  9
$DIMZIN
 70
     0
  9
$DIMBLK
  1

  9
$DIMASO
 70
     1
  9
$DIMSHO
 70
     1
  9
$DIMPOST
  1

  9
$DIMAPOST
  1

  9
$DIMALT
 70
     0
  9
$DIMALTD
 70
     2
  9
$DIMALTF
 40
25.4
  9
$DIMLFAC
 40
1.0
  9
$DIMTOFL
 70
     0
  9
$DIMTVP
 40
0.0
  9
$DIMTIX
 70
     0
  9
$DIMSOXD
 70
     0
  9
$DIMSAH
 70
     0
  9
$DIMBLK1
  1

  9
$DIMBLK2
  1

  9
$DIMSTYLE
  2
STANDARD
  9
$DIMCLRD
 70
     0
  9
$DIMCLRE
 70
     0
  9
$DIMCLRT
 70
     0
  9
$DIMTFAC
 40
1.0
  9
$DIMGAP
 40
0.09
  9
$LUNITS
 70
     2
  9
$LUPREC
 70
     4
  9
$SKETCHINC
 40
0.1
  9
$FILLETRAD
 40
0.5
  9
$AUNITS
 70
     0
  9
$AUPREC
 70
     0
  9
$MENU
  1
.
  9
$ELEVATION
 40
0.0
  9
$PELEVATION
 40
0.0
  9
$THICKNESS
 40
0.0
  9
$LIMCHECK
 70
     0
  9
$CHAMFERA
 40
0.0
  9
$CHAMFERB
 40
0.0
  9
$SKPOLY
 70
     0
  9
$TDCREATE
 40
2454910.5
  9
$TDUPDATE
 40
2458014.704545926
  9
$TDINDWG
 40
0.0000000116
  9
$TDUSRTIMER
 40
0.0000000116
  9
$USRTIMER
 70
     1
  9
$ANGBASE
 50
0.0
  9
$ANGDIR
 70
     0
  9
$PDMODE
 70
     0
  9
$PDSIZE
 40
0.0
  9
$PLINEWID
 40
0.0
  9
$COORDS
 70
     1
  9
$SPLFRAME
 70
     0
  9
$SPLINETYPE
 70
     6
  9
$SPLINESEGS
 70
     8
  9
$ATTDIA
 70
     0
  9
$ATTREQ
 70
     1
  9
$HANDLING
 70
     1
  9
$HANDSEED
  5
242
  9
$SURFTAB1
 70
     6
  9
$SURFTAB2
 70
     6
  9
$SURFTYPE
 70
     6
  9
$SURFU
 70
     6
  9
$SURFV
 70
     6
  9
$UCSNAME
  2

  9
$UCSORG
 10
0.0
 20
0.0
 30
0.0
  9
$UCSXDIR
 10
1.0
 20
0.0
 30
0.0
  9
$UCSYDIR
 10
0.0
 20
1.0
 30
0.0
  9
$PUCSNAME
  2

  9
$PUCSORG
 10
0.0
 20
0.0
 30
0.0
  9
$PUCSXDIR
 10
1.0
 20
0.0
 30
0.0
  9
$PUCSYDIR
 10
0.0
 20
1.0
 30
0.0
  9
$USERI1
 70
     0
  9
$USERI2
 70
     0
  9
$USERI3
 70
     0
  9
$USERI4
 70
     0
  9
$USERI5
 70
     0
  9
$USERR1
 40
0.0
  9
$USERR2
 40
0.0
  9
$USERR3
 40
0.0
  9
$USERR4
 40
0.0
  9
$USERR5
 40
0.0
  9
$WORLDVIEW
 70
     1
  9
$SHADEDGE
 70
     3
  9
$SHADEDIF
 70
    70
  9
$TILEMODE
 70
     1
  9
$MAXACTVP
 70
    64
  9
$PLIMCHECK
 70
     0
  9
$PEXTMIN
 10
1.000000000000000E+20
 20
1.000000000000000E+20
 30
1.000000000000000E+20
  9
$PEXTMAX
 10
-1.000000000000000E+20
 20
-1.000000000000000E+20
 30
-1.000000000000000E+20
  9
$PLIMMIN
 10
0.0
 20
0.0
  9
$PLIMMAX
 10
12.0
 20
9.0
  9
$UNITMODE
 70
     0
  9
$VISRETAIN
 70
     1
  9
$PLINEGEN
 70
     0
  9
$PSLTSCALE
 70
     1
  0
ENDSEC
  0
SECTION
  2
TABLES
  0
TABLE
  2
VPORT
 70
     1
  0
VPORT
  2
*ACTIVE
 70
     0
 10
0.0
 20
0.0
 11
1.0
 21
1.0
 12
10.42990654205607
 22
4.5
 13
0.0
 23
0.0
 14
0.5
 24
0.5
 15
0.5
 25
0.5
 16
0.0
 26
0.0
 36
1.0
 17
0.0
 27
0.0
 37
0.0
 40
9.0
 41
1.972972972850329
 42
50.0
 43
0.0
 44
0.0
 50
0.0
 51
0.0
 71
     0
 72
   100
 73
     1
 74
     3
 75
     0
 76
     0
 77
     0
 78
     0
  0
ENDTAB
  0
TABLE
  2
LTYPE
 70
     2
  0
LTYPE
  2
CONTINUOUS
 70
     0
  3
Solid line
 72
    65
 73
     0
 40
0.0
  0
LTYPE
  2
CONTINUOUS2
 70
     0
  3
Solid Line
 72
    65
 73
     0
 40
0.0
  0
ENDTAB
  0
TABLE
  2
LAYER
 70
     2
  0
LAYER
  2
0
 70
     0
 62
     7
  6
CONTINUOUS
  0
LAYER
  2
LAYER_1
 70
     0
 62
    18
  6
CONTINUOUS
  0
ENDTAB
  0
TABLE
  2
STYLE
 70
     1
  0
STYLE
  2
STANDARD
 70
     0
 40
0.0
 41
1.0
 50
0.0
 71
     0
 42
0.2
  3
txt
  4

  0
ENDTAB
  0
TABLE
  2
VIEW
 70
     0
  0
ENDTAB
  0
TABLE
  2
UCS
 70
     0
  0
ENDTAB
  0
TABLE
  2
APPID
 70
     1
  0
APPID
  2
ACAD
 70
     0
  0
ENDTAB
  0
TABLE
  2
DIMSTYLE
 70
     1
  0
DIMSTYLE
  2
STANDARD
 70
     0
  3

  4

  5

  6

  7

 40
1.0
 41
0.18
 42
0.0625
 43
0.38
 44
0.18
 45
0.0
 46
0.0
 47
0.0
 48
0.0
140
0.18
141
0.09
142
0.0
143
25.4
144
1.0
145
0.0
146
1.0
147
0.09
 71
     0
 72
     0
 73
     1
 74
     1
 75
     0
 76
     0
 77
     0
 78
     0
170
     0
171
     2
172
     0
173
     0
174
     0
175
     0
176
     0
177
     0
178
     0
  0
ENDTAB
  0
ENDSEC
  0
SECTION
  2
BLOCKS
  0
BLOCK
  8
0
  2
$MODEL_SPACE
 70
     0
 10
0.0
 20
0.0
 30
0.0
  3
$MODEL_SPACE
  1

  0
ENDBLK
  5
21
  8
0
  0
BLOCK
 67
     1
  8
0
  2
$PAPER_SPACE
 70
     0
 10
0.0
 20
0.0
 30
0.0
  3
$PAPER_SPACE
  1

  0
ENDBLK
  5
1D
 67
     1
  8
0
  0
ENDSEC
  0
SECTION
  2
ENTITIES
  0
POLYLINE
  5
70
  8
LAYER_1
 66
     1
 10
0.0
 20
0.0
 30
0.0
 70
     1
  0
VERTEX
  5
85
  8
LAYER_1
 10
-18.31529477839347
 20
123.4786488069195
 30
0.0
  0
VERTEX
  5
86
  8
LAYER_1
 10
-19.50030076988815
 20
123.2001018663232
 30
0.0
  0
VERTEX
  5
87
  8
LAYER_1
 10
-19.39866722965412
 20
122.7677282281267
 30
0.0
  0
VERTEX
  5
88
  8
LAYER_1
 10
-18.72402786633506
 20
122.9263086336328
 30
0.0
  0
VERTEX
  5
89
  8
LAYER_1
 10
-18.20795404714623
 20
120.7308059062177
 30
0.0
  0
VERTEX
  5
8A
  8
LAYER_1
 10
-17.69758741897061
 20
120.8507724413079
 30
0.0
  0
SEQEND
  5
234
  8
LAYER_1
  0
POLYLINE
  5
71
  8
LAYER_1
 66
     1
 10
0.0
 20
0.0
 30
0.0
 70
     1
  0
VERTEX
  5
8B
  8
LAYER_1
 10
-20.03561321561283
 20
120.3894951824648
 30
0.0
  0
VERTEX
  5
8C
  8
LAYER_1
 10
-19.89351456803747
 20
120.4097863816821
 30
0.0
  0
VERTEX
  5
8D
  8
LAYER_1
 10
-19.76503937982243
 20
120.4522875956956
 30
0.0
  0
VERTEX
  5
8E
  8
LAYER_1
 10
-19.6501876509677
 20
120.5169988245051
 30
0.0
  0
VERTEX
  5
8F
  8
LAYER_1
 10
-19.54895938147328
 20
120.6039200681108
 30
0.0
  0
VERTEX
  5
90
  8
LAYER_1
 10
-19.46109994174949
 20
120.709339059993
 30
0.0
  0
VERTEX
  5
91
  8
LAYER_1
 10
-19.38635464114273
 20
120.829543536381
 30
0.0
  0
VERTEX
  5
92
  8
LAYER_1
 10
-19.32472347965301
 20
120.9645334972749
 30
0.0
  0
VERTEX
  5
93
  8
LAYER_1
 10
-19.27620645728033
 20
121.1143089426746
 30
0.0
  0
VERTEX
  5
94
  8
LAYER_1
 10
-19.24054893941582
 20
121.2751575795168
 30
0.0
  0
VERTEX
  5
95
  8
LAYER_1
 10
-19.21749623313571
 20
121.4433671785512
 30
0.0
  0
VERTEX
  5
96
  8
LAYER_1
 10
-19.20704833844001
 20
121.6189377397778
 30
0.0
  0
VERTEX
  5
97
  8
LAYER_1
 10
-19.20920525532871
 20
121.8018692631965
 30
0.0
  0
VERTEX
  5
98
  8
LAYER_1
 10
-19.22232628840918
 20
121.9855004629417
 30
0.0
  0
VERTEX
  5
99
  8
LAYER_1
 10
-19.24601533140809
 20
122.1609227116072
 30
0.0
  0
VERTEX
  5
9A
  8
LAYER_1
 10
-19.28027238432545
 20
122.328136009193
 30
0.0
  0
VERTEX
  5
9B
  8
LAYER_1
 10
-19.32509744716127
 20
122.4871403556991
 30
0.0
  0
VERTEX
  5
9C
  8
LAYER_1
 10
-19.38123686412988
 20
122.6340390141492
 30
0.0
  0
VERTEX
  5
9D
  8
LAYER_1
 10
-19.44943698219465
 20
122.7649353086307
 30
0.0
  0
VERTEX
  5
9E
  8
LAYER_1
 10
-19.52969780135556
 20
122.8798292391437
 30
0.0
  0
VERTEX
  5
9F
  8
LAYER_1
 10
-19.62201932161262
 20
122.9787208056881
 30
0.0
  0
VERTEX
  5
A0
  8
LAYER_1
 10
-19.7271479175403
 20
123.0577132660968
 30
0.0
  0
VERTEX
  5
A1
  8
LAYER_1
 10
-19.8458299053982
 20
123.112909942015
 30
0.0
  0
VERTEX
  5
A2
  8
LAYER_1
 10
-19.97806528518633
 20
123.1443108334429
 30
0.0
  0
VERTEX
  5
A3
  8
LAYER_1
 10
-20.12385405690468
 20
123.1519159403805
 30
0.0
  0
VERTEX
  5
A4
  8
LAYER_1
 10
-20.21896570511198
 20
123.1437446601578
 30
0.0
  0
VERTEX
  5
A5
  8
LAYER_1
 10
-20.30880314116151
 20
123.1250066631943
 30
0.0
  0
VERTEX
  5
A6
  8
LAYER_1
 10
-20.39336636505328
 20
123.0957019494901
 30
0.0
  0
VERTEX
  5
A7
  8
LAYER_1
 10
-20.47265537678728
 20
123.0558305190453
 30
0.0
  0
VERTEX
  5
A8
  8
LAYER_1
 10
-20.54667017636351
 20
123.0053923718597
 30
0.0
  0
VERTEX
  5
A9
  8
LAYER_1
 10
-20.61541076378198
 20
122.9443875079334
 30
0.0
  0
VERTEX
  5
AA
  8
LAYER_1
 10
-20.67887713904268
 20
122.8728159272663
 30
0.0
  0
VERTEX
  5
AB
  8
LAYER_1
 10
-20.73706930214562
 20
122.7906776298586
 30
0.0
  0
VERTEX
  5
AC
  8
LAYER_1
 10
-20.78872131173504
 20
122.6968951723999
 30
0.0
  0
VERTEX
  5
AD
  8
LAYER_1
 10
-20.83256719729774
 20
122.5903911434862
 30
0.0
  0
VERTEX
  5
AE
  8
LAYER_1
 10
-20.86860695883373
 20
122.4711655431176
 30
0.0
  0
VERTEX
  5
AF
  8
LAYER_1
 10
-20.89684059634301
 20
122.3392183712942
 30
0.0
  0
VERTEX
  5
B0
  8
LAYER_1
 10
-20.91726810982558
 20
122.1945496280158
 30
0.0
  0
VERTEX
  5
B1
  8
LAYER_1
 10
-20.92988949928143
 20
122.0371593132826
 30
0.0
  0
VERTEX
  5
B2
  8
LAYER_1
 10
-20.93470476471057
 20
121.8670474270944
 30
0.0
  0
VERTEX
  5
B3
  8
LAYER_1
 10
-20.931713906113
 20
121.6842139694513
 30
0.0
  0
VERTEX
  5
B4
  8
LAYER_1
 10
-20.9211376552621
 20
121.5272415172408
 30
0.0
  0
VERTEX
  5
B5
  8
LAYER_1
 10
-20.90099171263169
 20
121.3722216580421
 30
0.0
  0
VERTEX
  5
B6
  8
LAYER_1
 10
-20.87127607822177
 20
121.2191543918549
 30
0.0
  0
VERTEX
  5
B7
  8
LAYER_1
 10
-20.83199075203234
 20
121.0680397186795
 30
0.0
  0
VERTEX
  5
B8
  8
LAYER_1
 10
-20.78141591023575
 20
120.92462863068
 30
0.0
  0
VERTEX
  5
B9
  8
LAYER_1
 10
-20.71783172900435
 20
120.7946721200207
 30
0.0
  0
VERTEX
  5
BA
  8
LAYER_1
 10
-20.64123820833815
 20
120.6781701867017
 30
0.0
  0
VERTEX
  5
BB
  8
LAYER_1
 10
-20.55163534823714
 20
120.575122830723
 30
0.0
  0
VERTEX
  5
BC
  8
LAYER_1
 10
-20.4473033175843
 20
120.4912810522254
 30
0.0
  0
VERTEX
  5
BD
  8
LAYER_1
 10
-20.32652228526264
 20
120.4323958513498
 30
0.0
  0
VERTEX
  5
BE
  8
LAYER_1
 10
-20.18929225127215
 20
120.3984672280963
 30
0.0
  0
SEQEND
  5
235
  8
LAYER_1
  0
POLYLINE
  5
72
  8
LAYER_1
 66
     1
 10
0.0
 20
0.0
 30
0.0
 70
     1
  0
VERTEX
  5
BF
  8
LAYER_1
 10
-20.03610339913658
 20
120.8461109504496
 30
0.0
  0
VERTEX
  5
C0
  8
LAYER_1
 10
-20.09207208661136
 20
120.8529782370417
 30
0.0
  0
VERTEX
  5
C1
  8
LAYER_1
 10
-20.14252173257347
 20
120.8753025012082
 30
0.0
  0
VERTEX
  5
C2
  8
LAYER_1
 10
-20.18745233702291
 20
120.9130837429491
 30
0.0
  0
VERTEX
  5
C3
  8
LAYER_1
 10
-20.22686389995969
 20
120.9663219622644
 30
0.0
  0
VERTEX
  5
C4
  8
LAYER_1
 10
-20.26127599928509
 20
121.0323197816362
 30
0.0
  0
VERTEX
  5
C5
  8
LAYER_1
 10
-20.29120821564941
 20
121.1083798846104
 30
0.0
  0
VERTEX
  5
C6
  8
LAYER_1
 10
-20.33763299949478
 20
121.2906869413663
 30
0.0
  0
VERTEX
  5
C7
  8
LAYER_1
 10
-20.36821669141398
 20
121.502453754356
 30
0.0
  0
VERTEX
  5
C8
  8
LAYER_1
 10
-20.38503760919741
 20
121.7328909509016
 30
0.0
  0
VERTEX
  5
C9
  8
LAYER_1
 10
-20.39028854938315
 20
121.9327548505691
 30
0.0
  0
VERTEX
  5
CA
  8
LAYER_1
 10
-20.38554312097173
 20
122.1132326603658
 30
0.0
  0
VERTEX
  5
CB
  8
LAYER_1
 10
-20.37080132396314
 20
122.274324380292
 30
0.0
  0
VERTEX
  5
CC
  8
LAYER_1
 10
-20.34606315835738
 20
122.4160300103474
 30
0.0
  0
VERTEX
  5
CD
  8
LAYER_1
 10
-20.30984221248617
 20
122.5324938103857
 30
0.0
  0
VERTEX
  5
CE
  8
LAYER_1
 10
-20.26065201636636
 20
122.6178601040732
 30
0.0
  0
VERTEX
  5
CF
  8
LAYER_1
 10
-20.23119344946323
 20
122.6488816860354
 30
0.0
  0
VERTEX
  5
D0
  8
LAYER_1
 10
-20.19849256999795
 20
122.6721288914098
 30
0.0
  0
VERTEX
  5
D1
  8
LAYER_1
 10
-20.16254937797051
 20
122.6876017201966
 30
0.0
  0
VERTEX
  5
D2
  8
LAYER_1
 10
-20.12336387338092
 20
122.6953001723957
 30
0.0
  0
VERTEX
  5
D3
  8
LAYER_1
 10
-20.08442490353321
 20
122.6933279863121
 30
0.0
  0
VERTEX
  5
D4
  8
LAYER_1
 10
-20.04752983869113
 20
122.6840015144023
 30
0.0
  0
VERTEX
  5
D5
  8
LAYER_1
 10
-19.97987142402387
 20
122.6432857131035
 30
0.0
  0
VERTEX
  5
D6
  8
LAYER_1
 10
-19.92038862937913
 20
122.5731527684995
 30
0.0
  0
VERTEX
  5
D7
  8
LAYER_1
 10
-19.86908145475692
 20
122.4736026805902
 30
0.0
  0
VERTEX
  5
D8
  8
LAYER_1
 10
-19.8264319234277
 20
122.3448957862149
 30
0.0
  0
VERTEX
  5
D9
  8
LAYER_1
 10
-19.79292205866192
 20
122.1872924222126
 30
0.0
  0
VERTEX
  5
DA
  8
LAYER_1
 10
-19.7685518604596
 20
122.0007925885833
 30
0.0
  0
VERTEX
  5
DB
  8
LAYER_1
 10
-19.75332132882071
 20
121.7853962853272
 30
0.0
  0
VERTEX
  5
DC
  8
LAYER_1
 10
-19.74954020506543
 20
121.5781338519756
 30
0.0
  0
VERTEX
  5
DD
  8
LAYER_1
 10
-19.7571954396068
 20
121.3950815583147
 30
0.0
  0
VERTEX
  5
DE
  8
LAYER_1
 10
-19.77628703244484
 20
121.2362394043445
 30
0.0
  0
VERTEX
  5
DF
  8
LAYER_1
 10
-19.80681498357954
 20
121.1016073900651
 30
0.0
  0
VERTEX
  5
E0
  8
LAYER_1
 10
-19.84833010726413
 20
120.9937436542636
 30
0.0
  0
VERTEX
  5
E1
  8
LAYER_1
 10
-19.90038321775183
 20
120.9152063357272
 30
0.0
  0
VERTEX
  5
E2
  8
LAYER_1
 10
-19.96297431504265
 20
120.8659954344558
 30
0.0
  0
VERTEX
  5
E3
  8
LAYER_1
 10
-19.99822160873923
 20
120.8523873902946
 30
0.0
  0
SEQEND
  5
236
  8
LAYER_1
  0
POLYLINE
  5
73
  8
LAYER_1
 66
     1
 10
0.0
 20
0.0
 30
0.0
 70
     1
  0
VERTEX
  5
E4
  8
LAYER_1
 10
-21.69393346142538
 20
123.1491956219752
 30
0.0
  0
VERTEX
  5
E5
  8
LAYER_1
 10
-21.99232746909061
 20
122.3011027001102
 30
0.0
  0
VERTEX
  5
E6
  8
LAYER_1
 10
-22.12614205939006
 20
121.8933923559967
 30
0.0
  0
VERTEX
  5
E7
  8
LAYER_1
 10
-22.2601364914056
 20
121.4402169429186
 30
0.0
  0
VERTEX
  5
E8
  8
LAYER_1
 10
-22.26807228534796
 20
121.4413067882604
 30
0.0
  0
VERTEX
  5
E9
  8
LAYER_1
 10
-22.26030113908011
 20
121.9173766676038
 30
0.0
  0
VERTEX
  5
EA
  8
LAYER_1
 10
-22.26665739088753
 20
122.3347336801842
 30
0.0
  0
VERTEX
  5
EB
  8
LAYER_1
 10
-22.30498959498708
 20
123.2331137132898
 30
0.0
  0
VERTEX
  5
EC
  8
LAYER_1
 10
-22.84065568609637
 20
123.3066782738578
 30
0.0
  0
VERTEX
  5
ED
  8
LAYER_1
 10
-23.68013604008575
 20
120.697129404893
 30
0.0
  0
VERTEX
  5
EE
  8
LAYER_1
 10
-23.17222724225207
 20
120.6273768330177
 30
0.0
  0
VERTEX
  5
EF
  8
LAYER_1
 10
-22.89576341415773
 20
121.6690331311826
 30
0.0
  0
VERTEX
  5
F0
  8
LAYER_1
 10
-22.78136589494603
 20
122.1193399840709
 30
0.0
  0
VERTEX
  5
F1
  8
LAYER_1
 10
-22.6628807659577
 20
122.5994119852143
 30
0.0
  0
VERTEX
  5
F2
  8
LAYER_1
 10
-22.65494497201534
 20
122.5983221398725
 30
0.0
  0
VERTEX
  5
F3
  8
LAYER_1
 10
-22.66499425305675
 20
122.098303914168
 30
0.0
  0
VERTEX
  5
F4
  8
LAYER_1
 10
-22.65823462667244
 20
121.6323690867139
 30
0.0
  0
VERTEX
  5
F5
  8
LAYER_1
 10
-22.62465746022924
 20
120.552177504437
 30
0.0
  0
VERTEX
  5
F6
  8
LAYER_1
 10
-22.20406038128418
 20
120.4944157013244
 30
0.0
  0
VERTEX
  5
F7
  8
LAYER_1
 10
-21.86753306783663
 20
121.5318668436425
 30
0.0
  0
VERTEX
  5
F8
  8
LAYER_1
 10
-21.72052582086146
 20
121.9878041462361
 30
0.0
  0
VERTEX
  5
F9
  8
LAYER_1
 10
-21.58758068676795
 20
122.4517379414074
 30
0.0
  0
VERTEX
  5
FA
  8
LAYER_1
 10
-21.5756769958544
 20
122.4501031733947
 30
0.0
  0
VERTEX
  5
FB
  8
LAYER_1
 10
-21.5968696696137
 20
121.968294883057
 30
0.0
  0
VERTEX
  5
FC
  8
LAYER_1
 10
-21.61304263089562
 20
121.5009604769228
 30
0.0
  0
VERTEX
  5
FD
  8
LAYER_1
 10
-21.62871532046309
 20
120.4154019140476
 30
0.0
  0
VERTEX
  5
FE
  8
LAYER_1
 10
-21.08908133238262
 20
120.3412924308087
 30
0.0
  0
VERTEX
  5
FF
  8
LAYER_1
 10
-21.17810685517199
 20
123.0783556747615
 30
0.0
  0
SEQEND
  5
237
  8
LAYER_1
  0
POLYLINE
  5
74
  8
LAYER_1
 66
     1
 10
0.0
 20
0.0
 30
0.0
 70
     1
  0
VERTEX
  5
100
  8
LAYER_1
 10
-26.38490807896865
 20
123.2438076868125
 30
0.0
  0
VERTEX
  5
101
  8
LAYER_1
 10
-26.48019096347029
 20
123.2524108315187
 30
0.0
  0
VERTEX
  5
102
  8
LAYER_1
 10
-26.60752597407085
 20
123.2457532932871
 30
0.0
  0
VERTEX
  5
103
  8
LAYER_1
 10
-26.75444769601777
 20
123.2221311552197
 30
0.0
  0
VERTEX
  5
104
  8
LAYER_1
 10
-26.90849075392524
 20
123.1798406161581
 30
0.0
  0
VERTEX
  5
105
  8
LAYER_1
 10
-27.08466714689985
 20
123.1032274487212
 30
0.0
  0
VERTEX
  5
106
  8
LAYER_1
 10
-27.16237909959509
 20
123.057858238669
 30
0.0
  0
VERTEX
  5
107
  8
LAYER_1
 10
-27.23317355642895
 20
123.0077806110611
 30
0.0
  0
VERTEX
  5
108
  8
LAYER_1
 10
-27.29705051740142
 20
122.9529945658973
 30
0.0
  0
VERTEX
  5
109
  8
LAYER_1
 10
-27.35400998251251
 20
122.8935001031777
 30
0.0
  0
VERTEX
  5
10A
  8
LAYER_1
 10
-27.40405195176222
 20
122.8292972229023
 30
0.0
  0
VERTEX
  5
10B
  8
LAYER_1
 10
-27.44717642515055
 20
122.7603859250711
 30
0.0
  0
VERTEX
  5
10C
  8
LAYER_1
 10
-27.48257149807748
 20
122.6880051400472
 30
0.0
  0
VERTEX
  5
10D
  8
LAYER_1
 10
-27.50942527578466
 20
122.6133938271286
 30
0.0
  0
VERTEX
  5
10E
  8
LAYER_1
 10
-27.5277377582721
 20
122.5365519863153
 30
0.0
  0
VERTEX
  5
10F
  8
LAYER_1
 10
-27.53750894553979
 20
122.4574796176073
 30
0.0
  0
VERTEX
  5
110
  8
LAYER_1
 10
-27.53873883758775
 20
122.3761767210047
 30
0.0
  0
VERTEX
  5
111
  8
LAYER_1
 10
-27.53142743441597
 20
122.2926432965074
 30
0.0
  0
VERTEX
  5
112
  8
LAYER_1
 10
-27.51557473602444
 20
122.2068793441154
 30
0.0
  0
VERTEX
  5
113
  8
LAYER_1
 10
-27.49118074241317
 20
122.1188848638287
 30
0.0
  0
VERTEX
  5
114
  8
LAYER_1
 10
-27.45143132553937
 20
122.0201284648566
 30
0.0
  0
VERTEX
  5
115
  8
LAYER_1
 10
-27.39861306957563
 20
121.9280987674862
 30
0.0
  0
VERTEX
  5
116
  8
LAYER_1
 10
-27.33272597452197
 20
121.8427957717175
 30
0.0
  0
VERTEX
  5
117
  8
LAYER_1
 10
-27.25377004037837
 20
121.7642194775506
 30
0.0
  0
VERTEX
  5
118
  8
LAYER_1
 10
-27.16003547049071
 20
121.694042626236
 30
0.0
  0
VERTEX
  5
119
  8
LAYER_1
 10
-27.04981246820486
 20
121.633937959024
 30
0.0
  0
VERTEX
  5
11A
  8
LAYER_1
 10
-26.92310103352081
 20
121.5839054759148
 30
0.0
  0
VERTEX
  5
11B
  8
LAYER_1
 10
-26.77990116643858
 20
121.5439451769083
 30
0.0
  0
VERTEX
  5
11C
  8
LAYER_1
 10
-26.56991835982786
 20
121.4911702067735
 30
0.0
  0
VERTEX
  5
11D
  8
LAYER_1
 10
-26.42970082441791
 20
121.4345055715598
 30
0.0
  0
VERTEX
  5
11E
  8
LAYER_1
 10
-26.38154798429256
 20
121.4019788999271
 30
0.0
  0
VERTEX
  5
11F
  8
LAYER_1
 10
-26.34242430585622
 20
121.3630083724653
 30
0.0
  0
VERTEX
  5
120
  8
LAYER_1
 10
-26.31232978910889
 20
121.3175939891746
 30
0.0
  0
VERTEX
  5
121
  8
LAYER_1
 10
-26.29126443405058
 20
121.2657357500549
 30
0.0
  0
VERTEX
  5
122
  8
LAYER_1
 10
-26.27858210974906
 20
121.2127788550031
 30
0.0
  0
VERTEX
  5
123
  8
LAYER_1
 10
-26.27690152305054
 20
121.1600480298265
 30
0.0
  0
VERTEX
  5
124
  8
LAYER_1
 10
-26.28622267395503
 20
121.1075432745251
 30
0.0
  0
VERTEX
  5
125
  8
LAYER_1
 10
-26.30654556246255
 20
121.0552645890989
 30
0.0
  0
VERTEX
  5
126
  8
LAYER_1
 10
-26.33901591129194
 20
121.0059964506064
 30
0.0
  0
VERTEX
  5
127
  8
LAYER_1
 10
-26.38477946284545
 20
120.9625233939759
 30
0.0
  0
VERTEX
  5
128
  8
LAYER_1
 10
-26.44383621712308
 20
120.9248454192074
 30
0.0
  0
VERTEX
  5
129
  8
LAYER_1
 10
-26.51618617412484
 20
120.8929625263008
 30
0.0
  0
VERTEX
  5
12A
  8
LAYER_1
 10
-26.62018839300707
 20
120.8656557236024
 30
0.0
  0
VERTEX
  5
12B
  8
LAYER_1
 10
-26.71515482517502
 20
120.8549126369324
 30
0.0
  0
VERTEX
  5
12C
  8
LAYER_1
 10
-26.79952270105172
 20
120.8572975345132
 30
0.0
  0
VERTEX
  5
12D
  8
LAYER_1
 10
-26.87172925106022
 20
120.8693746845674
 30
0.0
  0
VERTEX
  5
12E
  8
LAYER_1
 10
-26.80565027791836
 20
120.4141064252707
 30
0.0
  0
VERTEX
  5
12F
  8
LAYER_1
 10
-26.72301573446588
 20
120.4049653846197
 30
0.0
  0
VERTEX
  5
130
  8
LAYER_1
 10
-26.61767545042611
 20
120.408302096598
 30
0.0
  0
VERTEX
  5
131
  8
LAYER_1
 10
-26.49818229542817
 20
120.4259626539015
 30
0.0
  0
VERTEX
  5
132
  8
LAYER_1
 10
-26.37308902336146
 20
120.4597931885934
 30
0.0
  0
VERTEX
  5
133
  8
LAYER_1
 10
-26.19050810743285
 20
120.5409129275638
 30
0.0
  0
VERTEX
  5
134
  8
LAYER_1
 10
-26.11179203987739
 20
120.5878988838318
 30
0.0
  0
VERTEX
  5
135
  8
LAYER_1
 10
-26.04145889926116
 20
120.639168897955
 30
0.0
  0
VERTEX
  5
136
  8
LAYER_1
 10
-25.97950868558416
 20
120.6947229699333
 30
0.0
  0
VERTEX
  5
137
  8
LAYER_1
 10
-25.92594139884639
 20
120.7545610997668
 30
0.0
  0
VERTEX
  5
138
  8
LAYER_1
 10
-25.88075703904785
 20
120.8186832874554
 30
0.0
  0
VERTEX
  5
139
  8
LAYER_1
 10
-25.84395560618854
 20
120.8870895329993
 30
0.0
  0
VERTEX
  5
13A
  8
LAYER_1
 10
-25.79357861466711
 20
121.0302870110631
 30
0.0
  0
VERTEX
  5
13B
  8
LAYER_1
 10
-25.77288753734499
 20
121.1776864052389
 30
0.0
  0
VERTEX
  5
13C
  8
LAYER_1
 10
-25.78188237422219
 20
121.3292877155265
 30
0.0
  0
VERTEX
  5
13D
  8
LAYER_1
 10
-25.82056312529869
 20
121.485090941926
 30
0.0
  0
VERTEX
  5
13E
  8
LAYER_1
 10
-25.85670060676242
 20
121.5720146874725
 30
0.0
  0
VERTEX
  5
13F
  8
LAYER_1
 10
-25.90767752519825
 20
121.6553790606992
 30
0.0
  0
VERTEX
  5
140
  8
LAYER_1
 10
-25.97349388060618
 20
121.7351840616063
 30
0.0
  0
VERTEX
  5
141
  8
LAYER_1
 10
-26.05414967298621
 20
121.8114296901937
 30
0.0
  0
VERTEX
  5
142
  8
LAYER_1
 10
-26.15084246965091
 20
121.8812286101204
 30
0.0
  0
VERTEX
  5
143
  8
LAYER_1
 10
-26.26476985759624
 20
121.9416935429152
 30
0.0
  0
VERTEX
  5
144
  8
LAYER_1
 10
-26.39593183682219
 20
121.9928244885782
 30
0.0
  0
VERTEX
  5
145
  8
LAYER_1
 10
-26.54432840732877
 20
122.0346214471094
 30
0.0
  0
VERTEX
  5
146
  8
LAYER_1
 10
-26.72071091396511
 20
122.0842757762009
 30
0.0
  0
VERTEX
  5
147
  8
LAYER_1
 10
-26.85588029390892
 20
122.1423929438749
 30
0.0
  0
VERTEX
  5
148
  8
LAYER_1
 10
-26.90889175414613
 20
122.1780947098613
 30
0.0
  0
VERTEX
  5
149
  8
LAYER_1
 10
-26.95336333794357
 20
122.222851478725
 30
0.0
  0
VERTEX
  5
14A
  8
LAYER_1
 10
-26.98929504530126
 20
122.2766632504662
 30
0.0
  0
VERTEX
  5
14B
  8
LAYER_1
 10
-27.01668687621919
 20
122.3395300250848
 30
0.0
  0
VERTEX
  5
14C
  8
LAYER_1
 10
-27.03204045109277
 20
122.4020935799252
 30
0.0
  0
VERTEX
  5
14D
  8
LAYER_1
 10
-27.03447869009084
 20
122.4623045414753
 30
0.0
  0
VERTEX
  5
14E
  8
LAYER_1
 10
-27.02400159321337
 20
122.520162909735
 30
0.0
  0
VERTEX
  5
14F
  8
LAYER_1
 10
-27.00060916046039
 20
122.5756686847043
 30
0.0
  0
VERTEX
  5
150
  8
LAYER_1
 10
-26.96352002653157
 20
122.627103630689
 30
0.0
  0
VERTEX
  5
151
  8
LAYER_1
 10
-26.91195284580996
 20
122.6727495698649
 30
0.0
  0
VERTEX
  5
152
  8
LAYER_1
 10
-26.84590761829558
 20
122.7126065022319
 30
0.0
  0
VERTEX
  5
153
  8
LAYER_1
 10
-26.76538434398842
 20
122.74667442779
 30
0.0
  0
VERTEX
  5
154
  8
LAYER_1
 10
-26.65079698819838
 20
122.7773826642172
 30
0.0
  0
VERTEX
  5
155
  8
LAYER_1
 10
-26.52995779568771
 20
122.7955359328006
 30
0.0
  0
VERTEX
  5
156
  8
LAYER_1
 10
-26.41330408117793
 20
122.8003617475
 30
0.0
  0
VERTEX
  5
157
  8
LAYER_1
 10
-26.31127315939053
 20
122.7910876222752
 30
0.0
  0
SEQEND
  5
238
  8
LAYER_1
  0
POLYLINE
  5
75
  8
LAYER_1
 66
     1
 10
0.0
 20
0.0
 30
0.0
 70
     1
  0
VERTEX
  5
158
  8
LAYER_1
 10
-28.06596930847087
 20
122.8822539110143
 30
0.0
  0
VERTEX
  5
159
  8
LAYER_1
 10
-28.58537085527637
 20
122.8109230069618
 30
0.0
  0
VERTEX
  5
15A
  8
LAYER_1
 10
-28.28396882257755
 20
120.6162405748022
 30
0.0
  0
VERTEX
  5
15B
  8
LAYER_1
 10
-28.76021092853102
 20
120.5508368805421
 30
0.0
  0
VERTEX
  5
15C
  8
LAYER_1
 10
-28.69433033233353
 20
120.0711221758993
 30
0.0
  0
VERTEX
  5
15D
  8
LAYER_1
 10
-27.22641325783735
 20
120.2727154376867
 30
0.0
  0
VERTEX
  5
15E
  8
LAYER_1
 10
-27.29229385403484
 20
120.7524301423294
 30
0.0
  0
VERTEX
  5
15F
  8
LAYER_1
 10
-27.76456727577203
 20
120.6875714788547
 30
0.0
  0
SEQEND
  5
239
  8
LAYER_1
  0
POLYLINE
  5
76
  8
LAYER_1
 66
     1
 10
0.0
 20
0.0
 30
0.0
 70
     1
  0
VERTEX
  5
160
  8
LAYER_1
 10
-29.00784918522896
 20
122.7732241384512
 30
0.0
  0
VERTEX
  5
161
  8
LAYER_1
 10
-29.22084439139557
 20
122.8028379319074
 30
0.0
  0
VERTEX
  5
162
  8
LAYER_1
 10
-29.49434985462251
 20
122.8231608075489
 30
0.0
  0
VERTEX
  5
163
  8
LAYER_1
 10
-29.65554755849618
 20
122.8258494006744
 30
0.0
  0
VERTEX
  5
164
  8
LAYER_1
 10
-29.80181072044913
 20
122.819229806263
 30
0.0
  0
VERTEX
  5
165
  8
LAYER_1
 10
-29.93313934048137
 20
122.8033020243146
 30
0.0
  0
VERTEX
  5
166
  8
LAYER_1
 10
-30.04953341859289
 20
122.7780660548293
 30
0.0
  0
VERTEX
  5
167
  8
LAYER_1
 10
-30.15257990517114
 20
122.7439688174084
 30
0.0
  0
VERTEX
  5
168
  8
LAYER_1
 10
-30.24386575060359
 20
122.7014572316535
 30
0.0
  0
VERTEX
  5
169
  8
LAYER_1
 10
-30.32339095489021
 20
122.6505312975645
 30
0.0
  0
VERTEX
  5
16A
  8
LAYER_1
 10
-30.39115551803103
 20
122.5911910151415
 30
0.0
  0
VERTEX
  5
16B
  8
LAYER_1
 10
-30.48116896022984
 20
122.4883655917004
 30
0.0
  0
VERTEX
  5
16C
  8
LAYER_1
 10
-30.54942182974004
 20
122.3683165163282
 30
0.0
  0
VERTEX
  5
16D
  8
LAYER_1
 10
-30.59446486056864
 20
122.2298730076303
 30
0.0
  0
VERTEX
  5
16E
  8
LAYER_1
 10
-30.61484878672265
 20
122.0718642842117
 30
0.0
  0
VERTEX
  5
16F
  8
LAYER_1
 10
-30.61183340599118
 20
121.9615565416358
 30
0.0
  0
VERTEX
  5
170
  8
LAYER_1
 10
-30.5933409135383
 20
121.857150863548
 30
0.0
  0
VERTEX
  5
171
  8
LAYER_1
 10
-30.559371309364
 20
121.7586472499483
 30
0.0
  0
VERTEX
  5
172
  8
LAYER_1
 10
-30.50992459346829
 20
121.6660457008368
 30
0.0
  0
VERTEX
  5
173
  8
LAYER_1
 10
-30.44541967135435
 20
121.5825543799587
 30
0.0
  0
VERTEX
  5
174
  8
LAYER_1
 10
-30.36627538471254
 20
121.5113815093739
 30
0.0
  0
VERTEX
  5
175
  8
LAYER_1
 10
-30.27249173354285
 20
121.4525270890827
 30
0.0
  0
VERTEX
  5
176
  8
LAYER_1
 10
-30.16406871784529
 20
121.4059911190849
 30
0.0
  0
VERTEX
  5
177
  8
LAYER_1
 10
-30.16478842533303
 20
121.3900041102456
 30
0.0
  0
VERTEX
  5
178
  8
LAYER_1
 10
-30.26061393384564
 20
121.3448791640558
 30
0.0
  0
VERTEX
  5
179
  8
LAYER_1
 10
-30.34379601425278
 20
121.2908016936247
 30
0.0
  0
VERTEX
  5
17A
  8
LAYER_1
 10
-30.41433466655445
 20
121.2277716989522
 30
0.0
  0
VERTEX
  5
17B
  8
LAYER_1
 10
-30.47222989075064
 20
121.1557891800382
 30
0.0
  0
VERTEX
  5
17C
  8
LAYER_1
 10
-30.51783436516378
 20
121.0774115793847
 30
0.0
  0
VERTEX
  5
17D
  8
LAYER_1
 10
-30.55150076536729
 20
120.9951964005572
 30
0.0
  0
VERTEX
  5
17E
  8
LAYER_1
 10
-30.57322909136118
 20
120.9091436435557
 30
0.0
  0
VERTEX
  5
17F
  8
LAYER_1
 10
-30.58301934314544
 20
120.8192533083803
 30
0.0
  0
VERTEX
  5
180
  8
LAYER_1
 10
-30.57764904734935
 20
120.6799104533193
 30
0.0
  0
VERTEX
  5
181
  8
LAYER_1
 10
-30.54718330188639
 20
120.5473897266283
 30
0.0
  0
VERTEX
  5
182
  8
LAYER_1
 10
-30.52192275688876
 20
120.4848806830922
 30
0.0
  0
VERTEX
  5
183
  8
LAYER_1
 10
-30.48915459219227
 20
120.4264632149896
 30
0.0
  0
VERTEX
  5
184
  8
LAYER_1
 10
-30.44887880779691
 20
120.3721373223205
 30
0.0
  0
VERTEX
  5
185
  8
LAYER_1
 10
-30.40109540370269
 20
120.3219030050851
 30
0.0
  0
VERTEX
  5
186
  8
LAYER_1
 10
-30.33022053280955
 20
120.2650221687111
 30
0.0
  0
VERTEX
  5
187
  8
LAYER_1
 10
-30.25475994315028
 20
120.2176965960873
 30
0.0
  0
VERTEX
  5
188
  8
LAYER_1
 10
-30.1747136347249
 20
120.1799262872138
 30
0.0
  0
VERTEX
  5
189
  8
LAYER_1
 10
-30.09008160753339
 20
120.1517112420905
 30
0.0
  0
VERTEX
  5
18A
  8
LAYER_1
 10
-29.91196039634453
 20
120.1151571046335
 30
0.0
  0
VERTEX
  5
18B
  8
LAYER_1
 10
-29.72529618694851
 20
120.0992443397573
 30
0.0
  0
VERTEX
  5
18C
  8
LAYER_1
 10
-29.40125779496225
 20
120.0971731092794
 30
0.0
  0
VERTEX
  5
18D
  8
LAYER_1
 10
-29.25664595680226
 20
120.1068708929192
 30
0.0
  0
VERTEX
  5
18E
  8
LAYER_1
 10
-29.12709557115862
 20
120.1243799088359
 30
0.0
  0
SEQEND
  5
23A
  8
LAYER_1
  0
POLYLINE
  5
77
  8
LAYER_1
 66
     1
 10
0.0
 20
0.0
 30
0.0
 70
     1
  0
VERTEX
  5
18F
  8
LAYER_1
 10
-29.63482690666077
 20
120.5037006369761
 30
0.0
  0
VERTEX
  5
190
  8
LAYER_1
 10
-29.69448472507038
 20
120.4938464152422
 30
0.0
  0
VERTEX
  5
191
  8
LAYER_1
 10
-29.7717656483518
 20
120.4938142782721
 30
0.0
  0
VERTEX
  5
192
  8
LAYER_1
 10
-29.8466080339883
 20
120.5047545039544
 30
0.0
  0
VERTEX
  5
193
  8
LAYER_1
 10
-29.9100297857305
 20
120.52693667726
 30
0.0
  0
VERTEX
  5
194
  8
LAYER_1
 10
-29.96203090357839
 20
120.5603607981891
 30
0.0
  0
VERTEX
  5
195
  8
LAYER_1
 10
-30.00261138753198
 20
120.6050268667416
 30
0.0
  0
VERTEX
  5
196
  8
LAYER_1
 10
-30.03263659164941
 20
120.6584345036508
 30
0.0
  0
VERTEX
  5
197
  8
LAYER_1
 10
-30.05297186723983
 20
120.7180833907138
 30
0.0
  0
VERTEX
  5
198
  8
LAYER_1
 10
-30.06361721430324
 20
120.7839735279308
 30
0.0
  0
VERTEX
  5
199
  8
LAYER_1
 10
-30.06457263283963
 20
120.8561049153016
 30
0.0
  0
VERTEX
  5
19A
  8
LAYER_1
 10
-30.05381151440556
 20
120.9359537387755
 30
0.0
  0
VERTEX
  5
19B
  8
LAYER_1
 10
-30.03223550398721
 20
121.0073215547055
 30
0.0
  0
VERTEX
  5
19C
  8
LAYER_1
 10
-29.99984460158458
 20
121.0702083630915
 30
0.0
  0
VERTEX
  5
19D
  8
LAYER_1
 10
-29.95663880719768
 20
121.1246141639337
 30
0.0
  0
VERTEX
  5
19E
  8
LAYER_1
 10
-29.90507122496108
 20
121.16829817707
 30
0.0
  0
VERTEX
  5
19F
  8
LAYER_1
 10
-29.84759489794551
 20
121.1990196195898
 30
0.0
  0
VERTEX
  5
1A0
  8
LAYER_1
 10
-29.78420982615095
 20
121.216778491493
 30
0.0
  0
VERTEX
  5
1A1
  8
LAYER_1
 10
-29.71491600957741
 20
121.2215747927796
 30
0.0
  0
VERTEX
  5
1A2
  8
LAYER_1
 10
-29.60273680115547
 20
121.2165246788351
 30
0.0
  0
SEQEND
  5
23B
  8
LAYER_1
  0
POLYLINE
  5
78
  8
LAYER_1
 66
     1
 10
0.0
 20
0.0
 30
0.0
 70
     1
  0
VERTEX
  5
1A3
  8
LAYER_1
 10
-29.5852840155333
 20
121.6042069563784
 30
0.0
  0
VERTEX
  5
1A4
  8
LAYER_1
 10
-29.6974478358608
 20
121.6092563775775
 30
0.0
  0
VERTEX
  5
1A5
  8
LAYER_1
 10
-29.77470485035602
 20
121.6206658384379
 30
0.0
  0
VERTEX
  5
1A6
  8
LAYER_1
 10
-29.84538694953226
 20
121.6443807303768
 30
0.0
  0
VERTEX
  5
1A7
  8
LAYER_1
 10
-29.90949413338952
 20
121.6804010533942
 30
0.0
  0
VERTEX
  5
1A8
  8
LAYER_1
 10
-29.9670264019278
 20
121.72872680749
 30
0.0
  0
VERTEX
  5
1A9
  8
LAYER_1
 10
-30.01423673681922
 20
121.7890012788188
 30
0.0
  0
VERTEX
  5
1AA
  8
LAYER_1
 10
-30.04737805867201
 20
121.8608677507859
 30
0.0
  0
VERTEX
  5
1AB
  8
LAYER_1
 10
-30.06645036748618
 20
121.9443262233914
 30
0.0
  0
VERTEX
  5
1AC
  8
LAYER_1
 10
-30.07145366326172
 20
122.0393766966352
 30
0.0
  0
VERTEX
  5
1AD
  8
LAYER_1
 10
-30.05829566265967
 20
122.1355687805997
 30
0.0
  0
VERTEX
  5
1AE
  8
LAYER_1
 10
-30.03250374410152
 20
122.2177441619383
 30
0.0
  0
VERTEX
  5
1AF
  8
LAYER_1
 10
-29.99407790758727
 20
122.285902840651
 30
0.0
  0
VERTEX
  5
1B0
  8
LAYER_1
 10
-29.94301815311692
 20
122.3400448167379
 30
0.0
  0
VERTEX
  5
1B1
  8
LAYER_1
 10
-29.88258942063554
 20
122.3807872607778
 30
0.0
  0
VERTEX
  5
1B2
  8
LAYER_1
 10
-29.8160566473392
 20
122.4087474044135
 30
0.0
  0
VERTEX
  5
1B3
  8
LAYER_1
 10
-29.74341983322788
 20
122.423925247645
 30
0.0
  0
VERTEX
  5
1B4
  8
LAYER_1
 10
-29.66467897830161
 20
122.4263207904723
 30
0.0
  0
VERTEX
  5
1B5
  8
LAYER_1
 10
-29.60063037255869
 20
122.4224343231487
 30
0.0
  0
VERTEX
  5
1B6
  8
LAYER_1
 10
-29.54886984274143
 20
122.4130823845432
 30
0.0
  0
SEQEND
  5
23C
  8
LAYER_1
  0
POLYLINE
  5
79
  8
LAYER_1
 66
     1
 10
0.0
 20
0.0
 30
0.0
 70
     1
  0
VERTEX
  5
1B7
  8
LAYER_1
 10
-31.40703228875529
 20
123.114235428825
 30
0.0
  0
VERTEX
  5
1B8
  8
LAYER_1
 10
-31.64806702825246
 20
122.0888154050003
 30
0.0
  0
VERTEX
  5
1B9
  8
LAYER_1
 10
-32.61358673650713
 20
120.6247731148737
 30
0.0
  0
VERTEX
  5
1BA
  8
LAYER_1
 10
-32.08323440464937
 20
120.5001087498515
 30
0.0
  0
VERTEX
  5
1BB
  8
LAYER_1
 10
-31.78253580023219
 20
121.0794896683886
 30
0.0
  0
VERTEX
  5
1BC
  8
LAYER_1
 10
-31.64974592302915
 20
121.3470818057528
 30
0.0
  0
VERTEX
  5
1BD
  8
LAYER_1
 10
-31.52795651965078
 20
121.6203454188678
 30
0.0
  0
VERTEX
  5
1BE
  8
LAYER_1
 10
-31.52016471814794
 20
121.6185138817398
 30
0.0
  0
VERTEX
  5
1BF
  8
LAYER_1
 10
-31.5228425934595
 20
121.3141661346789
 30
0.0
  0
VERTEX
  5
1C0
  8
LAYER_1
 10
-31.51486510343798
 20
121.0289142123914
 30
0.0
  0
VERTEX
  5
1C1
  8
LAYER_1
 10
-31.48317583799781
 20
120.3590592706767
 30
0.0
  0
VERTEX
  5
1C2
  8
LAYER_1
 10
-30.93722490814423
 20
120.2307283066834
 30
0.0
  0
VERTEX
  5
1C3
  8
LAYER_1
 10
-31.1331179905807
 20
121.9883435471692
 30
0.0
  0
VERTEX
  5
1C4
  8
LAYER_1
 10
-30.89666566057967
 20
122.9942688937348
 30
0.0
  0
SEQEND
  5
23D
  8
LAYER_1
  0
POLYLINE
  5
7A
  8
LAYER_1
 66
     1
 10
0.0
 20
0.0
 30
0.0
 70
     1
  0
VERTEX
  5
1C5
  8
LAYER_1
 10
-35.41769169066495
 20
120.4849433331106
 30
0.0
  0
VERTEX
  5
1C6
  8
LAYER_1
 10
-35.27804123500277
 20
120.5181323168517
 30
0.0
  0
VERTEX
  5
1C7
  8
LAYER_1
 10
-35.15398644781519
 20
120.5721937352141
 30
0.0
  0
VERTEX
  5
1C8
  8
LAYER_1
 10
-35.0455273291022
 20
120.6471275881977
 30
0.0
  0
VERTEX
  5
1C9
  8
LAYER_1
 10
-34.9526638788638
 20
120.7429338758025
 30
0.0
  0
VERTEX
  5
1CA
  8
LAYER_1
 10
-34.87480336627036
 20
120.8559391215954
 30
0.0
  0
VERTEX
  5
1CB
  8
LAYER_1
 10
-34.81135299993493
 20
120.9824698574599
 30
0.0
  0
VERTEX
  5
1CC
  8
LAYER_1
 10
-34.76231277985753
 20
121.122526083396
 30
0.0
  0
VERTEX
  5
1CD
  8
LAYER_1
 10
-34.72768270603814
 20
121.2761077994036
 30
0.0
  0
VERTEX
  5
1CE
  8
LAYER_1
 10
-34.70687004022383
 20
121.4395415030757
 30
0.0
  0
VERTEX
  5
1CF
  8
LAYER_1
 10
-34.69928199192086
 20
121.6091537608789
 30
0.0
  0
VERTEX
  5
1D0
  8
LAYER_1
 10
-34.70491856112923
 20
121.7849445728133
 30
0.0
  0
VERTEX
  5
1D1
  8
LAYER_1
 10
-34.72377974784893
 20
121.9669139388787
 30
0.0
  0
VERTEX
  5
1D2
  8
LAYER_1
 10
-34.75362311937549
 20
122.1485783333122
 30
0.0
  0
VERTEX
  5
1D3
  8
LAYER_1
 10
-34.79324030143236
 20
122.321102577901
 30
0.0
  0
VERTEX
  5
1D4
  8
LAYER_1
 10
-34.8426312940195
 20
122.4844866726452
 30
0.0
  0
VERTEX
  5
1D5
  8
LAYER_1
 10
-34.90179609713694
 20
122.6387306175446
 30
0.0
  0
VERTEX
  5
1D6
  8
LAYER_1
 10
-34.97112191338864
 20
122.7798857846234
 30
0.0
  0
VERTEX
  5
1D7
  8
LAYER_1
 10
-35.05099595369503
 20
122.9040036064629
 30
0.0
  0
VERTEX
  5
1D8
  8
LAYER_1
 10
-35.14141821805613
 20
123.011084083063
 30
0.0
  0
VERTEX
  5
1D9
  8
LAYER_1
 10
-35.24238870647194
 20
123.1011272144239
 30
0.0
  0
VERTEX
  5
1DA
  8
LAYER_1
 10
-35.3542946513053
 20
123.1701843646263
 30
0.0
  0
VERTEX
  5
1DB
  8
LAYER_1
 10
-35.47752323267821
 20
123.2143069666252
 30
0.0
  0
VERTEX
  5
1DC
  8
LAYER_1
 10
-35.61207445059067
 20
123.2334950204204
 30
0.0
  0
VERTEX
  5
1DD
  8
LAYER_1
 10
-35.7579483050427
 20
123.2277485260121
 30
0.0
  0
VERTEX
  5
1DE
  8
LAYER_1
 10
-35.8519155999452
 20
123.2109216744381
 30
0.0
  0
VERTEX
  5
1DF
  8
LAYER_1
 10
-35.93966532781015
 20
123.1840541716553
 30
0.0
  0
VERTEX
  5
1E0
  8
LAYER_1
 10
-36.02119748863753
 20
123.1471460176636
 30
0.0
  0
VERTEX
  5
1E1
  8
LAYER_1
 10
-36.09651208242736
 20
123.1001972124632
 30
0.0
  0
VERTEX
  5
1E2
  8
LAYER_1
 10
-36.16560910917963
 20
123.043207756054
 30
0.0
  0
VERTEX
  5
1E3
  8
LAYER_1
 10
-36.22848856889433
 20
122.9761776484359
 30
0.0
  0
VERTEX
  5
1E4
  8
LAYER_1
 10
-36.28515046157149
 20
122.899106889609
 30
0.0
  0
VERTEX
  5
1E5
  8
LAYER_1
 10
-36.33559478721109
 20
122.8119954795733
 30
0.0
  0
VERTEX
  5
1E6
  8
LAYER_1
 10
-36.37846245998666
 20
122.7138861423396
 30
0.0
  0
VERTEX
  5
1E7
  8
LAYER_1
 10
-36.41239436795138
 20
122.6038216363557
 30
0.0
  0
VERTEX
  5
1E8
  8
LAYER_1
 10
-36.43739051110522
 20
122.4818019616214
 30
0.0
  0
VERTEX
  5
1E9
  8
LAYER_1
 10
-36.45345088944818
 20
122.3478271181369
 30
0.0
  0
VERTEX
  5
1EA
  8
LAYER_1
 10
-36.46057550298028
 20
122.2018971059022
 30
0.0
  0
VERTEX
  5
1EB
  8
LAYER_1
 10
-36.4587643517015
 20
122.0440119249171
 30
0.0
  0
VERTEX
  5
1EC
  8
LAYER_1
 10
-36.44801743561187
 20
121.8741715751818
 30
0.0
  0
VERTEX
  5
1ED
  8
LAYER_1
 10
-36.42833475471135
 20
121.6923760566962
 30
0.0
  0
VERTEX
  5
1EE
  8
LAYER_1
 10
-36.40346116247643
 20
121.5370264115587
 30
0.0
  0
VERTEX
  5
1EF
  8
LAYER_1
 10
-36.3692362987971
 20
121.3844955148308
 30
0.0
  0
VERTEX
  5
1F0
  8
LAYER_1
 10
-36.32566016367335
 20
121.2347833665126
 30
0.0
  0
VERTEX
  5
1F1
  8
LAYER_1
 10
-36.2727327571052
 20
121.087889966604
 30
0.0
  0
VERTEX
  5
1F2
  8
LAYER_1
 10
-36.20926687987495
 20
120.9496993836711
 30
0.0
  0
VERTEX
  5
1F3
  8
LAYER_1
 10
-36.13407533276492
 20
120.8260956862798
 30
0.0
  0
VERTEX
  5
1F4
  8
LAYER_1
 10
-36.04715811577512
 20
120.7170788744302
 30
0.0
  0
VERTEX
  5
1F5
  8
LAYER_1
 10
-35.94851522890553
 20
120.6226489481222
 30
0.0
  0
VERTEX
  5
1F6
  8
LAYER_1
 10
-35.83695946640839
 20
120.5486899845311
 30
0.0
  0
VERTEX
  5
1F7
  8
LAYER_1
 10
-35.71130362253592
 20
120.5010860608321
 30
0.0
  0
VERTEX
  5
1F8
  8
LAYER_1
 10
-35.5715476972881
 20
120.4798371770253
 30
0.0
  0
SEQEND
  5
23E
  8
LAYER_1
  0
POLYLINE
  5
7B
  8
LAYER_1
 66
     1
 10
0.0
 20
0.0
 30
0.0
 70
     1
  0
VERTEX
  5
1F9
  8
LAYER_1
 10
-35.45989790538055
 20
120.9396045644594
 30
0.0
  0
VERTEX
  5
1FA
  8
LAYER_1
 10
-35.51625992952515
 20
120.9413296259397
 30
0.0
  0
VERTEX
  5
1FB
  8
LAYER_1
 10
-35.56853820084496
 20
120.9589512574218
 30
0.0
  0
VERTEX
  5
1FC
  8
LAYER_1
 10
-35.61673271933996
 20
120.9924694589057
 30
0.0
  0
VERTEX
  5
1FD
  8
LAYER_1
 10
-35.66084348501016
 20
121.0418842303912
 30
0.0
  0
VERTEX
  5
1FE
  8
LAYER_1
 10
-35.7011414604277
 20
121.1044620053522
 30
0.0
  0
VERTEX
  5
1FF
  8
LAYER_1
 10
-35.73789761648121
 20
121.1774692778194
 30
0.0
  0
VERTEX
  5
200
  8
LAYER_1
 10
-35.80078447049615
 20
121.3547723152727
 30
0.0
  0
VERTEX
  5
201
  8
LAYER_1
 10
-35.85058803717026
 20
121.5628591962666
 30
0.0
  0
VERTEX
  5
202
  8
LAYER_1
 10
-35.88839218550423
 20
121.7907957909495
 30
0.0
  0
VERTEX
  5
203
  8
LAYER_1
 10
-35.9118814586929
 20
121.9893440339741
 30
0.0
  0
VERTEX
  5
204
  8
LAYER_1
 10
-35.92364498828761
 20
122.1695005722716
 30
0.0
  0
VERTEX
  5
205
  8
LAYER_1
 10
-35.92368277428835
 20
122.3312654058419
 30
0.0
  0
VERTEX
  5
206
  8
LAYER_1
 10
-35.91199481669513
 20
122.4746385346849
 30
0.0
  0
VERTEX
  5
207
  8
LAYER_1
 10
-35.88656591884477
 20
122.5939245137155
 30
0.0
  0
VERTEX
  5
208
  8
LAYER_1
 10
-35.84538083183332
 20
122.6834279667221
 30
0.0
  0
VERTEX
  5
209
  8
LAYER_1
 10
-35.81887971739218
 20
122.7170112459664
 30
0.0
  0
VERTEX
  5
20A
  8
LAYER_1
 10
-35.78843955566076
 20
122.7431488937047
 30
0.0
  0
VERTEX
  5
20B
  8
LAYER_1
 10
-35.75406034663906
 20
122.761840909937
 30
0.0
  0
VERTEX
  5
20C
  8
LAYER_1
 10
-35.7157420903271
 20
122.7730872946633
 30
0.0
  0
VERTEX
  5
20D
  8
LAYER_1
 10
-35.67678579287742
 20
122.7746809633117
 30
0.0
  0
VERTEX
  5
20E
  8
LAYER_1
 10
-35.63919293763053
 20
122.7687643661163
 30
0.0
  0
VERTEX
  5
20F
  8
LAYER_1
 10
-35.56809755374512
 20
122.7344003741935
 30
0.0
  0
VERTEX
  5
210
  8
LAYER_1
 10
-35.50245593867088
 20
122.6699953188948
 30
0.0
  0
VERTEX
  5
211
  8
LAYER_1
 10
-35.44226809240782
 20
122.5755492002203
 30
0.0
  0
VERTEX
  5
212
  8
LAYER_1
 10
-35.38803780753304
 20
122.4512772267719
 30
0.0
  0
VERTEX
  5
213
  8
LAYER_1
 10
-35.34026887662367
 20
122.2973946071515
 30
0.0
  0
VERTEX
  5
214
  8
LAYER_1
 10
-35.29896129967972
 20
122.1139013413591
 30
0.0
  0
VERTEX
  5
215
  8
LAYER_1
 10
-35.26411507670119
 20
121.9007974293946
 30
0.0
  0
VERTEX
  5
216
  8
LAYER_1
 10
-35.24141351556496
 20
121.6947473085559
 30
0.0
  0
VERTEX
  5
217
  8
LAYER_1
 10
-35.23231240788284
 20
121.5117612034294
 30
0.0
  0
VERTEX
  5
218
  8
LAYER_1
 10
-35.23681175365485
 20
121.3518391140152
 30
0.0
  0
VERTEX
  5
219
  8
LAYER_1
 10
-35.25491155288098
 20
121.2149810403133
 30
0.0
  0
VERTEX
  5
21A
  8
LAYER_1
 10
-35.28639821937709
 20
121.1037754611881
 30
0.0
  0
VERTEX
  5
21B
  8
LAYER_1
 10
-35.33105816695906
 20
121.0208108555041
 30
0.0
  0
VERTEX
  5
21C
  8
LAYER_1
 10
-35.38889139562689
 20
120.9660872232612
 30
0.0
  0
VERTEX
  5
21D
  8
LAYER_1
 10
-35.42274799036798
 20
120.9493157721801
 30
0.0
  0
SEQEND
  5
23F
  8
LAYER_1
  0
POLYLINE
  5
7C
  8
LAYER_1
 66
     1
 10
0.0
 20
0.0
 30
0.0
 70
     1
  0
VERTEX
  5
21E
  8
LAYER_1
 10
-36.622563385798
 20
123.0729312188004
 30
0.0
  0
VERTEX
  5
21F
  8
LAYER_1
 10
-37.14630963687903
 20
123.0965093691829
 30
0.0
  0
VERTEX
  5
220
  8
LAYER_1
 10
-37.19639350443282
 20
121.9839862303691
 30
0.0
  0
VERTEX
  5
221
  8
LAYER_1
 10
-37.80467950377814
 20
122.0113702140033
 30
0.0
  0
VERTEX
  5
222
  8
LAYER_1
 10
-37.82429418284512
 20
121.5756653575644
 30
0.0
  0
VERTEX
  5
223
  8
LAYER_1
 10
-37.21600818349981
 20
121.5482813739301
 30
0.0
  0
VERTEX
  5
224
  8
LAYER_1
 10
-37.24719800038589
 20
120.8554556263205
 30
0.0
  0
VERTEX
  5
225
  8
LAYER_1
 10
-37.89550281547761
 20
120.8846411878255
 30
0.0
  0
VERTEX
  5
226
  8
LAYER_1
 10
-37.91601828347994
 20
120.4289269235133
 30
0.0
  0
VERTEX
  5
227
  8
LAYER_1
 10
-36.74396721730718
 20
120.3761632116259
 30
0.0
  0
SEQEND
  5
240
  8
LAYER_1
  0
POLYLINE
  5
7D
  8
LAYER_1
 66
     1
 10
0.0
 20
0.0
 30
0.0
 70
     1
  0
VERTEX
  5
228
  8
LAYER_1
 10
-37.9054114073598
 20
123.1101652946363
 30
0.0
  0
VERTEX
  5
229
  8
LAYER_1
 10
-38.41577803553542
 20
123.2301318297265
 30
0.0
  0
VERTEX
  5
22A
  8
LAYER_1
 10
-38.67060667802346
 20
122.1460292095133
 30
0.0
  0
VERTEX
  5
22B
  8
LAYER_1
 10
-39.26335340186449
 20
122.2853599704204
 30
0.0
  0
VERTEX
  5
22C
  8
LAYER_1
 10
-39.36315364261289
 20
121.8607856312217
 30
0.0
  0
VERTEX
  5
22D
  8
LAYER_1
 10
-38.77040691877186
 20
121.7214548703147
 30
0.0
  0
VERTEX
  5
22E
  8
LAYER_1
 10
-38.92910190549578
 20
121.0463280508082
 30
0.0
  0
VERTEX
  5
22F
  8
LAYER_1
 10
-39.56084512432634
 20
121.1948253091434
 30
0.0
  0
VERTEX
  5
230
  8
LAYER_1
 10
-39.66522861378879
 20
120.75075272245
 30
0.0
  0
VERTEX
  5
231
  8
LAYER_1
 10
-38.5231187667826
 20
120.4822889290246
 30
0.0
  0
SEQEND
  5
241
  8
LAYER_1
  0
ENDSEC
  0
EOF
