  0
SECTION
  2
HEADER
  9
$ACADVER
  1
AC1009
  9
$DWGCODEPAGE
  3
ansi_1252
  9
$INSBASE
 10
0.0
 20
0.0
 30
0.0
  9
$EXTMIN
 10
-48.67492532862405
 20
93.55471426203302
 30
0.0
  9
$EXTMAX
 10
-36.99072630500262
 20
97.7386792627706
 30
0.0
  9
$LIMMIN
 10
0.0
 20
0.0
  9
$LIMMAX
 10
12.0
 20
9.0
  9
$ORTHOMODE
 70
     0
  9
$REGENMODE
 70
     1
  9
$FILLMODE
 70
     1
  9
$QTEXTMODE
 70
     0
  9
$MIRRTEXT
 70
     1
  9
$DRAGMODE
 70
     2
  9
$LTSCALE
 40
1.0
  9
$OSMODE
 70
    37
  9
$ATTMODE
 70
     1
  9
$TEXTSIZE
 40
0.2
  9
$TRACEWID
 40
0.05
  9
$TEXTSTYLE
  7
STANDARD
  9
$CLAYER
  8
0
  9
$CELTYPE
  6
BYLAYER
  9
$CECOLOR
 62
   256
  9
$DIMSCALE
 40
1.0
  9
$DIMASZ
 40
0.18
  9
$DIMEXO
 40
0.0625
  9
$DIMDLI
 40
0.38
  9
$DIMRND
 40
0.0
  9
$DIMDLE
 40
0.0
  9
$DIMEXE
 40
0.18
  9
$DIMTP
 40
0.0
  9
$DIMTM
 40
0.0
  9
$DIMTXT
 40
0.18
  9
$DIMCEN
 40
0.09
  9
$DIMTSZ
 40
0.0
  9
$DIMTOL
 70
     0
  9
$DIMLIM
 70
     0
  9
$DIMTIH
 70
     1
  9
$DIMTOH
 70
     1
  9
$DIMSE1
 70
     0
  9
$DIMSE2
 70
     0
  9
$DIMTAD
 70
     0
  9
$DIMZIN
 70
     0
  9
$DIMBLK
  1

  9
$DIMASO
 70
     1
  9
$DIMSHO
 70
     1
  9
$DIMPOST
  1

  9
$DIMAPOST
  1

  9
$DIMALT
 70
     0
  9
$DIMALTD
 70
     2
  9
$DIMALTF
 40
25.4
  9
$DIMLFAC
 40
1.0
  9
$DIMTOFL
 70
     0
  9
$DIMTVP
 40
0.0
  9
$DIMTIX
 70
     0
  9
$DIMSOXD
 70
     0
  9
$DIMSAH
 70
     0
  9
$DIMBLK1
  1

  9
$DIMBLK2
  1

  9
$DIMSTYLE
  2
STANDARD
  9
$DIMCLRD
 70
     0
  9
$DIMCLRE
 70
     0
  9
$DIMCLRT
 70
     0
  9
$DIMTFAC
 40
1.0
  9
$DIMGAP
 40
0.09
  9
$LUNITS
 70
     2
  9
$LUPREC
 70
     4
  9
$SKETCHINC
 40
0.1
  9
$FILLETRAD
 40
0.5
  9
$AUNITS
 70
     0
  9
$AUPREC
 70
     0
  9
$MENU
  1
.
  9
$ELEVATION
 40
0.0
  9
$PELEVATION
 40
0.0
  9
$THICKNESS
 40
0.0
  9
$LIMCHECK
 70
     0
  9
$CHAMFERA
 40
0.0
  9
$CHAMFERB
 40
0.0
  9
$SKPOLY
 70
     0
  9
$TDCREATE
 40
2454910.5
  9
$TDUPDATE
 40
2458013.874849016
  9
$TDINDWG
 40
0.0000000116
  9
$TDUSRTIMER
 40
0.0000000116
  9
$USRTIMER
 70
     1
  9
$ANGBASE
 50
0.0
  9
$ANGDIR
 70
     0
  9
$PDMODE
 70
     0
  9
$PDSIZE
 40
0.0
  9
$PLINEWID
 40
0.0
  9
$COORDS
 70
     1
  9
$SPLFRAME
 70
     0
  9
$SPLINETYPE
 70
     6
  9
$SPLINESEGS
 70
     8
  9
$ATTDIA
 70
     0
  9
$ATTREQ
 70
     1
  9
$HANDLING
 70
     1
  9
$HANDSEED
  5
12F
  9
$SURFTAB1
 70
     6
  9
$SURFTAB2
 70
     6
  9
$SURFTYPE
 70
     6
  9
$SURFU
 70
     6
  9
$SURFV
 70
     6
  9
$UCSNAME
  2

  9
$UCSORG
 10
0.0
 20
0.0
 30
0.0
  9
$UCSXDIR
 10
1.0
 20
0.0
 30
0.0
  9
$UCSYDIR
 10
0.0
 20
1.0
 30
0.0
  9
$PUCSNAME
  2

  9
$PUCSORG
 10
0.0
 20
0.0
 30
0.0
  9
$PUCSXDIR
 10
1.0
 20
0.0
 30
0.0
  9
$PUCSYDIR
 10
0.0
 20
1.0
 30
0.0
  9
$USERI1
 70
     0
  9
$USERI2
 70
     0
  9
$USERI3
 70
     0
  9
$USERI4
 70
     0
  9
$USERI5
 70
     0
  9
$USERR1
 40
0.0
  9
$USERR2
 40
0.0
  9
$USERR3
 40
0.0
  9
$USERR4
 40
0.0
  9
$USERR5
 40
0.0
  9
$WORLDVIEW
 70
     1
  9
$SHADEDGE
 70
     3
  9
$SHADEDIF
 70
    70
  9
$TILEMODE
 70
     1
  9
$MAXACTVP
 70
    64
  9
$PLIMCHECK
 70
     0
  9
$PEXTMIN
 10
1.000000000000000E+20
 20
1.000000000000000E+20
 30
1.000000000000000E+20
  9
$PEXTMAX
 10
-1.000000000000000E+20
 20
-1.000000000000000E+20
 30
-1.000000000000000E+20
  9
$PLIMMIN
 10
0.0
 20
0.0
  9
$PLIMMAX
 10
12.0
 20
9.0
  9
$UNITMODE
 70
     0
  9
$VISRETAIN
 70
     1
  9
$PLINEGEN
 70
     0
  9
$PSLTSCALE
 70
     1
  0
ENDSEC
  0
SECTION
  2
TABLES
  0
TABLE
  2
VPORT
 70
     1
  0
VPORT
  2
*ACTIVE
 70
     0
 10
0.0
 20
0.0
 11
1.0
 21
1.0
 12
10.42990654205607
 22
4.5
 13
0.0
 23
0.0
 14
0.5
 24
0.5
 15
0.5
 25
0.5
 16
0.0
 26
0.0
 36
1.0
 17
0.0
 27
0.0
 37
0.0
 40
9.0
 41
1.972972972850329
 42
50.0
 43
0.0
 44
0.0
 50
0.0
 51
0.0
 71
     0
 72
   100
 73
     1
 74
     3
 75
     0
 76
     0
 77
     0
 78
     0
  0
ENDTAB
  0
TABLE
  2
LTYPE
 70
     2
  0
LTYPE
  2
CONTINUOUS
 70
     0
  3
Solid line
 72
    65
 73
     0
 40
0.0
  0
LTYPE
  2
CONTINUOUS2
 70
     0
  3
Solid Line
 72
    65
 73
     0
 40
0.0
  0
ENDTAB
  0
TABLE
  2
LAYER
 70
     2
  0
LAYER
  2
0
 70
     0
 62
     7
  6
CONTINUOUS
  0
LAYER
  2
LAYER_1
 70
     0
 62
    18
  6
CONTINUOUS
  0
ENDTAB
  0
TABLE
  2
STYLE
 70
     1
  0
STYLE
  2
STANDARD
 70
     0
 40
0.0
 41
1.0
 50
0.0
 71
     0
 42
0.2
  3
txt
  4

  0
ENDTAB
  0
TABLE
  2
VIEW
 70
     0
  0
ENDTAB
  0
TABLE
  2
UCS
 70
     0
  0
ENDTAB
  0
TABLE
  2
APPID
 70
     1
  0
APPID
  2
ACAD
 70
     0
  0
ENDTAB
  0
TABLE
  2
DIMSTYLE
 70
     1
  0
DIMSTYLE
  2
STANDARD
 70
     0
  3

  4

  5

  6

  7

 40
1.0
 41
0.18
 42
0.0625
 43
0.38
 44
0.18
 45
0.0
 46
0.0
 47
0.0
 48
0.0
140
0.18
141
0.09
142
0.0
143
25.4
144
1.0
145
0.0
146
1.0
147
0.09
 71
     0
 72
     0
 73
     1
 74
     1
 75
     0
 76
     0
 77
     0
 78
     0
170
     0
171
     2
172
     0
173
     0
174
     0
175
     0
176
     0
177
     0
178
     0
  0
ENDTAB
  0
ENDSEC
  0
SECTION
  2
BLOCKS
  0
BLOCK
  8
0
  2
$MODEL_SPACE
 70
     0
 10
0.0
 20
0.0
 30
0.0
  3
$MODEL_SPACE
  1

  0
ENDBLK
  5
21
  8
0
  0
BLOCK
 67
     1
  8
0
  2
$PAPER_SPACE
 70
     0
 10
0.0
 20
0.0
 30
0.0
  3
$PAPER_SPACE
  1

  0
ENDBLK
  5
1D
 67
     1
  8
0
  0
ENDSEC
  0
SECTION
  2
ENTITIES
  0
POLYLINE
  5
70
  8
LAYER_1
 66
     1
 10
0.0
 20
0.0
 30
0.0
 70
     1
  0
VERTEX
  5
7D
  8
LAYER_1
 10
-36.99072630500262
 20
95.51139548076789
 30
0.0
  0
VERTEX
  5
7E
  8
LAYER_1
 10
-38.87909439396416
 20
94.40974750469354
 30
0.0
  0
VERTEX
  5
7F
  8
LAYER_1
 10
-39.13087509364418
 20
94.84133241114107
 30
0.0
  0
VERTEX
  5
80
  8
LAYER_1
 10
-38.65599603690627
 20
96.81232090695985
 30
0.0
  0
VERTEX
  5
81
  8
LAYER_1
 10
-39.91236105787243
 20
96.0793748300543
 30
0.0
  0
VERTEX
  5
82
  8
LAYER_1
 10
-40.18304679302331
 20
96.54336542913612
 30
0.0
  0
VERTEX
  5
83
  8
LAYER_1
 10
-38.13412322691917
 20
97.7386792627706
 30
0.0
  0
VERTEX
  5
84
  8
LAYER_1
 10
-37.87289000950373
 20
97.29089151000593
 30
0.0
  0
VERTEX
  5
85
  8
LAYER_1
 10
-38.34282145529684
 20
95.34055809479922
 30
0.0
  0
VERTEX
  5
86
  8
LAYER_1
 10
-37.25969340056523
 20
95.97244010779204
 30
0.0
  0
SEQEND
  5
129
  8
LAYER_1
  0
POLYLINE
  5
71
  8
LAYER_1
 66
     1
 10
0.0
 20
0.0
 30
0.0
 70
     1
  0
VERTEX
  5
87
  8
LAYER_1
 10
-39.96342119914577
 20
94.02985873023596
 30
0.0
  0
VERTEX
  5
88
  8
LAYER_1
 10
-41.97875241499275
 20
93.5561359402319
 30
0.0
  0
VERTEX
  5
89
  8
LAYER_1
 10
-42.10089016892296
 20
94.07573945799146
 30
0.0
  0
VERTEX
  5
8A
  8
LAYER_1
 10
-40.83923306509783
 20
94.37230397232679
 30
0.0
  0
VERTEX
  5
8B
  8
LAYER_1
 10
-40.93015350172958
 20
94.75910147915738
 30
0.0
  0
VERTEX
  5
8C
  8
LAYER_1
 10
-42.10050647304105
 20
94.48399887046475
 30
0.0
  0
VERTEX
  5
8D
  8
LAYER_1
 10
-42.21718119644403
 20
94.98036133631173
 30
0.0
  0
VERTEX
  5
8E
  8
LAYER_1
 10
-41.04682822513256
 20
95.25546394500438
 30
0.0
  0
VERTEX
  5
8F
  8
LAYER_1
 10
-41.15960078387324
 20
95.73522565948525
 30
0.0
  0
VERTEX
  5
90
  8
LAYER_1
 10
-42.45777954070383
 20
95.43007638289284
 30
0.0
  0
VERTEX
  5
91
  8
LAYER_1
 10
-42.58733140749242
 20
95.98122132824803
 30
0.0
  0
VERTEX
  5
92
  8
LAYER_1
 10
-40.53547853863997
 20
96.46352888050917
 30
0.0
  0
SEQEND
  5
12A
  8
LAYER_1
  0
POLYLINE
  5
72
  8
LAYER_1
 66
     1
 10
0.0
 20
0.0
 30
0.0
 70
     1
  0
VERTEX
  5
93
  8
LAYER_1
 10
-43.03814264684879
 20
96.0314671895997
 30
0.0
  0
VERTEX
  5
94
  8
LAYER_1
 10
-43.37828222965249
 20
93.55471426203302
 30
0.0
  0
VERTEX
  5
95
  8
LAYER_1
 10
-44.65382688198049
 20
93.72988846736507
 30
0.0
  0
VERTEX
  5
96
  8
LAYER_1
 10
-44.82024491376349
 20
93.75661611853343
 30
0.0
  0
VERTEX
  5
97
  8
LAYER_1
 10
-44.96471175482257
 20
93.78807512088656
 30
0.0
  0
VERTEX
  5
98
  8
LAYER_1
 10
-45.08722740515775
 20
93.82426547442441
 30
0.0
  0
VERTEX
  5
99
  8
LAYER_1
 10
-45.18779186476901
 20
93.86518717914706
 30
0.0
  0
VERTEX
  5
9A
  8
LAYER_1
 10
-45.27194847457477
 20
93.91434488274757
 30
0.0
  0
VERTEX
  5
9B
  8
LAYER_1
 10
-45.34524057549344
 20
93.9752432329191
 30
0.0
  0
VERTEX
  5
9C
  8
LAYER_1
 10
-45.40766816752502
 20
94.04788222966161
 30
0.0
  0
VERTEX
  5
9D
  8
LAYER_1
 10
-45.45923125066952
 20
94.13226187297516
 30
0.0
  0
VERTEX
  5
9E
  8
LAYER_1
 10
-45.4975655611515
 20
94.22601339601141
 30
0.0
  0
VERTEX
  5
9F
  8
LAYER_1
 10
-45.5203068351956
 20
94.32676803192206
 30
0.0
  0
VERTEX
  5
A0
  8
LAYER_1
 10
-45.5274550728018
 20
94.43452578070708
 30
0.0
  0
VERTEX
  5
A1
  8
LAYER_1
 10
-45.5190102739701
 20
94.54928664236654
 30
0.0
  0
VERTEX
  5
A2
  8
LAYER_1
 10
-45.4998488607899
 20
94.64805206471324
 30
0.0
  0
VERTEX
  5
A3
  8
LAYER_1
 10
-45.4706709166804
 20
94.738233831642
 30
0.0
  0
VERTEX
  5
A4
  8
LAYER_1
 10
-45.43147644164165
 20
94.81983194315286
 30
0.0
  0
VERTEX
  5
A5
  8
LAYER_1
 10
-45.38226543567362
 20
94.89284639924581
 30
0.0
  0
VERTEX
  5
A6
  8
LAYER_1
 10
-45.32441223742412
 20
94.95746594178894
 30
0.0
  0
VERTEX
  5
A7
  8
LAYER_1
 10
-45.25929118554095
 20
95.01387931265027
 30
0.0
  0
VERTEX
  5
A8
  8
LAYER_1
 10
-45.1869022800241
 20
95.06208651182985
 30
0.0
  0
VERTEX
  5
A9
  8
LAYER_1
 10
-45.1072455208736
 20
95.10208753932766
 30
0.0
  0
VERTEX
  5
AA
  8
LAYER_1
 10
-44.98360433493829
 20
95.14019000226213
 30
0.0
  0
VERTEX
  5
AB
  8
LAYER_1
 10
-44.82500540704503
 20
95.16316365668591
 30
0.0
  0
VERTEX
  5
AC
  8
LAYER_1
 10
-44.9369111798231
 20
95.22505489191117
 30
0.0
  0
VERTEX
  5
AD
  8
LAYER_1
 10
-45.01169017349528
 20
95.28183395221662
 30
0.0
  0
VERTEX
  5
AE
  8
LAYER_1
 10
-45.05683656145934
 20
95.33670522635079
 30
0.0
  0
VERTEX
  5
AF
  8
LAYER_1
 10
-45.11621529321889
 20
95.42885189070445
 30
0.0
  0
VERTEX
  5
B0
  8
LAYER_1
 10
-45.17097976079215
 20
95.52639623309449
 30
0.0
  0
VERTEX
  5
B1
  8
LAYER_1
 10
-45.20228335619738
 20
95.59746054133772
 30
0.0
  0
VERTEX
  5
B2
  8
LAYER_1
 10
-45.47434845963948
 20
96.36603832084317
 30
0.0
  0
VERTEX
  5
B3
  8
LAYER_1
 10
-44.60958092516901
 20
96.24727731520424
 30
0.0
  0
VERTEX
  5
B4
  8
LAYER_1
 10
-44.30443769955134
 20
95.43421665850767
 30
0.0
  0
VERTEX
  5
B5
  8
LAYER_1
 10
-44.24759340399677
 20
95.30290486150571
 30
0.0
  0
VERTEX
  5
B6
  8
LAYER_1
 10
-44.19211985016276
 20
95.22428178360661
 30
0.0
  0
VERTEX
  5
B7
  8
LAYER_1
 10
-44.15280659492073
 20
95.19327804350615
 30
0.0
  0
VERTEX
  5
B8
  8
LAYER_1
 10
-44.10976188215194
 20
95.16907749107288
 30
0.0
  0
VERTEX
  5
B9
  8
LAYER_1
 10
-44.06298571185641
 20
95.15168012630681
 30
0.0
  0
VERTEX
  5
BA
  8
LAYER_1
 10
-44.01247808403413
 20
95.14108594920792
 30
0.0
  0
VERTEX
  5
BB
  8
LAYER_1
 10
-43.94489955940748
 20
95.13180519660754
 30
0.0
  0
VERTEX
  5
BC
  8
LAYER_1
 10
-43.80684836447692
 20
96.13703575042895
 30
0.0
  0
SEQEND
  5
12B
  8
LAYER_1
  0
POLYLINE
  5
73
  8
LAYER_1
 66
     1
 10
0.0
 20
0.0
 30
0.0
 70
     1
  0
VERTEX
  5
BD
  8
LAYER_1
 10
-44.00916877116507
 20
94.66382391356801
 30
0.0
  0
VERTEX
  5
BE
  8
LAYER_1
 10
-44.33185622625732
 20
94.70813950723479
 30
0.0
  0
VERTEX
  5
BF
  8
LAYER_1
 10
-44.40988689209517
 20
94.71024904773938
 30
0.0
  0
VERTEX
  5
C0
  8
LAYER_1
 10
-44.53923217643745
 20
94.70219250272258
 30
0.0
  0
VERTEX
  5
C1
  8
LAYER_1
 10
-44.61200128233045
 20
94.68464486193542
 30
0.0
  0
VERTEX
  5
C2
  8
LAYER_1
 10
-44.67408058092935
 20
94.64153058230512
 30
0.0
  0
VERTEX
  5
C3
  8
LAYER_1
 10
-44.71941560292333
 20
94.57933382562823
 30
0.0
  0
VERTEX
  5
C4
  8
LAYER_1
 10
-44.74195187900163
 20
94.50453875370127
 30
0.0
  0
VERTEX
  5
C5
  8
LAYER_1
 10
-44.7449583931157
 20
94.44739477785396
 30
0.0
  0
VERTEX
  5
C6
  8
LAYER_1
 10
-44.73750459959222
 20
94.39591473152436
 30
0.0
  0
VERTEX
  5
C7
  8
LAYER_1
 10
-44.71959049843121
 20
94.35009861471244
 30
0.0
  0
VERTEX
  5
C8
  8
LAYER_1
 10
-44.69121608963267
 20
94.30994642741823
 30
0.0
  0
VERTEX
  5
C9
  8
LAYER_1
 10
-44.6487187581961
 20
94.27549308688344
 30
0.0
  0
VERTEX
  5
CA
  8
LAYER_1
 10
-44.58843588912105
 20
94.24677351034987
 30
0.0
  0
VERTEX
  5
CB
  8
LAYER_1
 10
-44.51036748240749
 20
94.2237876978175
 30
0.0
  0
VERTEX
  5
CC
  8
LAYER_1
 10
-44.41451353805543
 20
94.20653564928632
 30
0.0
  0
VERTEX
  5
CD
  8
LAYER_1
 10
-44.07831037803786
 20
94.16036390509947
 30
0.0
  0
SEQEND
  5
12C
  8
LAYER_1
  0
POLYLINE
  5
74
  8
LAYER_1
 66
     1
 10
0.0
 20
0.0
 30
0.0
 70
     1
  0
VERTEX
  5
CE
  8
LAYER_1
 10
-46.21103308458932
 20
95.35514672238313
 30
0.0
  0
VERTEX
  5
CF
  8
LAYER_1
 10
-46.29062524483902
 20
95.22929105031756
 30
0.0
  0
VERTEX
  5
D0
  8
LAYER_1
 10
-46.37515382254183
 20
95.11612502629606
 30
0.0
  0
VERTEX
  5
D1
  8
LAYER_1
 10
-46.46461881769776
 20
95.01564865031862
 30
0.0
  0
VERTEX
  5
D2
  8
LAYER_1
 10
-46.55902023030681
 20
94.92786192238526
 30
0.0
  0
VERTEX
  5
D3
  8
LAYER_1
 10
-46.65835806036896
 20
94.85276484249596
 30
0.0
  0
VERTEX
  5
D4
  8
LAYER_1
 10
-46.76263230788422
 20
94.79035741065073
 30
0.0
  0
VERTEX
  5
D5
  8
LAYER_1
 10
-46.87184297285259
 20
94.74063962684956
 30
0.0
  0
VERTEX
  5
D6
  8
LAYER_1
 10
-46.98599005527409
 20
94.70361149109246
 30
0.0
  0
VERTEX
  5
D7
  8
LAYER_1
 10
-47.10353339091745
 20
94.67963927956747
 30
0.0
  0
VERTEX
  5
D8
  8
LAYER_1
 10
-47.22293281555146
 20
94.66908926846261
 30
0.0
  0
VERTEX
  5
D9
  8
LAYER_1
 10
-47.34418832917611
 20
94.67196145777791
 30
0.0
  0
VERTEX
  5
DA
  8
LAYER_1
 10
-47.4672999317914
 20
94.68825584751333
 30
0.0
  0
VERTEX
  5
DB
  8
LAYER_1
 10
-47.59226762339733
 20
94.7179724376689
 30
0.0
  0
VERTEX
  5
DC
  8
LAYER_1
 10
-47.71909140399391
 20
94.76111122824463
 30
0.0
  0
VERTEX
  5
DD
  8
LAYER_1
 10
-47.84777127358113
 20
94.81767221924048
 30
0.0
  0
VERTEX
  5
DE
  8
LAYER_1
 10
-47.97830723215899
 20
94.88765541065649
 30
0.0
  0
VERTEX
  5
DF
  8
LAYER_1
 10
-48.10658048516594
 20
94.96854998477642
 30
0.0
  0
VERTEX
  5
E0
  8
LAYER_1
 10
-48.2218438009107
 20
95.05397818481046
 30
0.0
  0
VERTEX
  5
E1
  8
LAYER_1
 10
-48.32409717939328
 20
95.1439400107586
 30
0.0
  0
VERTEX
  5
E2
  8
LAYER_1
 10
-48.41334062061365
 20
95.23843546262086
 30
0.0
  0
VERTEX
  5
E3
  8
LAYER_1
 10
-48.48957412457185
 20
95.33746454039722
 30
0.0
  0
VERTEX
  5
E4
  8
LAYER_1
 10
-48.55279769126784
 20
95.4410272440877
 30
0.0
  0
VERTEX
  5
E5
  8
LAYER_1
 10
-48.60301132070165
 20
95.54912357369228
 30
0.0
  0
VERTEX
  5
E6
  8
LAYER_1
 10
-48.64021501287326
 20
95.661753529211
 30
0.0
  0
VERTEX
  5
E7
  8
LAYER_1
 10
-48.66424195358121
 20
95.777616703629
 30
0.0
  0
VERTEX
  5
E8
  8
LAYER_1
 10
-48.67492532862405
 20
95.89541268993145
 30
0.0
  0
VERTEX
  5
E9
  8
LAYER_1
 10
-48.67226513800175
 20
96.01514148811839
 30
0.0
  0
VERTEX
  5
EA
  8
LAYER_1
 10
-48.65626138171433
 20
96.1368030981898
 30
0.0
  0
VERTEX
  5
EB
  8
LAYER_1
 10
-48.62691405976178
 20
96.2603975201457
 30
0.0
  0
VERTEX
  5
EC
  8
LAYER_1
 10
-48.58422317214411
 20
96.38592475398607
 30
0.0
  0
VERTEX
  5
ED
  8
LAYER_1
 10
-48.52818871886132
 20
96.51338479971092
 30
0.0
  0
VERTEX
  5
EE
  8
LAYER_1
 10
-48.4588106999134
 20
96.64277765732024
 30
0.0
  0
VERTEX
  5
EF
  8
LAYER_1
 10
-48.34539271820917
 20
96.81889496390885
 30
0.0
  0
VERTEX
  5
F0
  8
LAYER_1
 10
-48.22598396018783
 20
96.96868947426508
 30
0.0
  0
VERTEX
  5
F1
  8
LAYER_1
 10
-48.10058442584938
 20
97.0921611883889
 30
0.0
  0
VERTEX
  5
F2
  8
LAYER_1
 10
-47.96919411519382
 20
97.18931010628035
 30
0.0
  0
VERTEX
  5
F3
  8
LAYER_1
 10
-47.83164031767667
 20
97.2624416507898
 30
0.0
  0
VERTEX
  5
F4
  8
LAYER_1
 10
-47.68775032275344
 20
97.31386124476768
 30
0.0
  0
VERTEX
  5
F5
  8
LAYER_1
 10
-47.53752413042416
 20
97.34356888821397
 30
0.0
  0
VERTEX
  5
F6
  8
LAYER_1
 10
-47.38096174068881
 20
97.35156458112868
 30
0.0
  0
VERTEX
  5
F7
  8
LAYER_1
 10
-47.21873452636555
 20
97.33595720721101
 30
0.0
  0
VERTEX
  5
F8
  8
LAYER_1
 10
-47.05151386027254
 20
97.29485565016014
 30
0.0
  0
VERTEX
  5
F9
  8
LAYER_1
 10
-46.87929974240977
 20
97.22825990997609
 30
0.0
  0
VERTEX
  5
FA
  8
LAYER_1
 10
-46.70209217277725
 20
97.13616998665886
 30
0.0
  0
VERTEX
  5
FB
  8
LAYER_1
 10
-46.53155606577727
 20
97.02693345381928
 30
0.0
  0
VERTEX
  5
FC
  8
LAYER_1
 10
-46.38524827992745
 20
96.91233516424478
 30
0.0
  0
VERTEX
  5
FD
  8
LAYER_1
 10
-46.2631688152278
 20
96.79237511793534
 30
0.0
  0
VERTEX
  5
FE
  8
LAYER_1
 10
-46.16531767167831
 20
96.66705331489094
 30
0.0
  0
VERTEX
  5
FF
  8
LAYER_1
 10
-46.09018356756847
 20
96.53388397427196
 30
0.0
  0
VERTEX
  5
100
  8
LAYER_1
 10
-46.03625522118776
 20
96.39038131523881
 30
0.0
  0
VERTEX
  5
101
  8
LAYER_1
 10
-46.00353263253618
 20
96.23654533779148
 30
0.0
  0
VERTEX
  5
102
  8
LAYER_1
 10
-45.99201580161374
 20
96.07237604192996
 30
0.0
  0
VERTEX
  5
103
  8
LAYER_1
 10
-46.00501891775631
 20
95.90054724315682
 30
0.0
  0
VERTEX
  5
104
  8
LAYER_1
 10
-46.04585617029976
 20
95.72373275697464
 30
0.0
  0
VERTEX
  5
105
  8
LAYER_1
 10
-46.1145275592441
 20
95.54193258338341
 30
0.0
  0
SEQEND
  5
12D
  8
LAYER_1
  0
POLYLINE
  5
75
  8
LAYER_1
 66
     1
 10
0.0
 20
0.0
 30
0.0
 70
     1
  0
VERTEX
  5
106
  8
LAYER_1
 10
-46.87657711606158
 20
95.74736456118156
 30
0.0
  0
VERTEX
  5
107
  8
LAYER_1
 10
-46.79550113901598
 20
95.90378917472006
 30
0.0
  0
VERTEX
  5
108
  8
LAYER_1
 10
-46.74304220217597
 20
96.04606011693502
 30
0.0
  0
VERTEX
  5
109
  8
LAYER_1
 10
-46.71920030554156
 20
96.17417738782649
 30
0.0
  0
VERTEX
  5
10A
  8
LAYER_1
 10
-46.72397544911276
 20
96.2881409873944
 30
0.0
  0
VERTEX
  5
10B
  8
LAYER_1
 10
-46.75374640583338
 20
96.3892933689852
 30
0.0
  0
VERTEX
  5
10C
  8
LAYER_1
 10
-46.80489194864725
 20
96.47897698594525
 30
0.0
  0
VERTEX
  5
10D
  8
LAYER_1
 10
-46.87741207755438
 20
96.55719183827458
 30
0.0
  0
VERTEX
  5
10E
  8
LAYER_1
 10
-46.97130679255476
 20
96.62393792597315
 30
0.0
  0
VERTEX
  5
10F
  8
LAYER_1
 10
-47.07786091656816
 20
96.67437772224766
 30
0.0
  0
VERTEX
  5
110
  8
LAYER_1
 10
-47.18246732839898
 20
96.70023642112821
 30
0.0
  0
VERTEX
  5
111
  8
LAYER_1
 10
-47.28512602804724
 20
96.70151402261483
 30
0.0
  0
VERTEX
  5
112
  8
LAYER_1
 10
-47.38583701551293
 20
96.67821052670752
 30
0.0
  0
VERTEX
  5
113
  8
LAYER_1
 10
-47.43589180630337
 20
96.65586402825093
 30
0.0
  0
VERTEX
  5
114
  8
LAYER_1
 10
-47.48631904730028
 20
96.62441857748549
 30
0.0
  0
VERTEX
  5
115
  8
LAYER_1
 10
-47.58829087991353
 20
96.53423081902797
 30
0.0
  0
VERTEX
  5
116
  8
LAYER_1
 10
-47.69175251335265
 20
96.40764725133496
 30
0.0
  0
VERTEX
  5
117
  8
LAYER_1
 10
-47.79670394761767
 20
96.24466787440647
 30
0.0
  0
VERTEX
  5
118
  8
LAYER_1
 10
-47.87196801565679
 20
96.09799411663525
 30
0.0
  0
VERTEX
  5
119
  8
LAYER_1
 10
-47.9198810223893
 20
95.96288095128963
 30
0.0
  0
VERTEX
  5
11A
  8
LAYER_1
 10
-47.94044296781522
 20
95.83932837836963
 30
0.0
  0
VERTEX
  5
11B
  8
LAYER_1
 10
-47.93365385193452
 20
95.72733639787522
 30
0.0
  0
VERTEX
  5
11C
  8
LAYER_1
 10
-47.90258247358459
 20
95.62672100346879
 30
0.0
  0
VERTEX
  5
11D
  8
LAYER_1
 10
-47.8502976316028
 20
95.53729818881267
 30
0.0
  0
VERTEX
  5
11E
  8
LAYER_1
 10
-47.77679932598916
 20
95.4590679539069
 30
0.0
  0
VERTEX
  5
11F
  8
LAYER_1
 10
-47.68208755674365
 20
95.39203029875145
 30
0.0
  0
VERTEX
  5
120
  8
LAYER_1
 10
-47.58094971536411
 20
95.34499707495854
 30
0.0
  0
VERTEX
  5
121
  8
LAYER_1
 10
-47.47933527717537
 20
95.32162421537558
 30
0.0
  0
VERTEX
  5
122
  8
LAYER_1
 10
-47.3772442421774
 20
95.32191172000257
 30
0.0
  0
VERTEX
  5
123
  8
LAYER_1
 10
-47.27467661037021
 20
95.34585958883953
 30
0.0
  0
VERTEX
  5
124
  8
LAYER_1
 10
-47.17269094431708
 20
95.39778718781736
 30
0.0
  0
VERTEX
  5
125
  8
LAYER_1
 10
-47.07234580658127
 20
95.48201388286697
 30
0.0
  0
VERTEX
  5
126
  8
LAYER_1
 10
-46.97364119716276
 20
95.59853967398836
 30
0.0
  0
SEQEND
  5
12E
  8
LAYER_1
  0
ENDSEC
  0
EOF
