  0
SECTION
  2
HEADER
  9
$ACADVER
  1
AC1009
  9
$DWGCODEPAGE
  3
ansi_1252
  9
$INSBASE
 10
0.0
 20
0.0
 30
0.0
  9
$EXTMIN
 10
-46.47518257953375
 20
94.32914768829181
 30
0.0
  9
$EXTMAX
 10
-39.27183396862831
 20
97.59922493510403
 30
0.0
  9
$LIMMIN
 10
0.0
 20
0.0
  9
$LIMMAX
 10
12.0
 20
9.0
  9
$ORTHOMODE
 70
     0
  9
$REGENMODE
 70
     1
  9
$FILLMODE
 70
     1
  9
$QTEXTMODE
 70
     0
  9
$MIRRTEXT
 70
     1
  9
$DRAGMODE
 70
     2
  9
$LTSCALE
 40
1.0
  9
$OSMODE
 70
    37
  9
$ATTMODE
 70
     1
  9
$TEXTSIZE
 40
0.2
  9
$TRACEWID
 40
0.05
  9
$TEXTSTYLE
  7
STANDARD
  9
$CLAYER
  8
0
  9
$CELTYPE
  6
BYLAYER
  9
$CECOLOR
 62
   256
  9
$DIMSCALE
 40
1.0
  9
$DIMASZ
 40
0.18
  9
$DIMEXO
 40
0.0625
  9
$DIMDLI
 40
0.38
  9
$DIMRND
 40
0.0
  9
$DIMDLE
 40
0.0
  9
$DIMEXE
 40
0.18
  9
$DIMTP
 40
0.0
  9
$DIMTM
 40
0.0
  9
$DIMTXT
 40
0.18
  9
$DIMCEN
 40
0.09
  9
$DIMTSZ
 40
0.0
  9
$DIMTOL
 70
     0
  9
$DIMLIM
 70
     0
  9
$DIMTIH
 70
     1
  9
$DIMTOH
 70
     1
  9
$DIMSE1
 70
     0
  9
$DIMSE2
 70
     0
  9
$DIMTAD
 70
     0
  9
$DIMZIN
 70
     0
  9
$DIMBLK
  1

  9
$DIMASO
 70
     1
  9
$DIMSHO
 70
     1
  9
$DIMPOST
  1

  9
$DIMAPOST
  1

  9
$DIMALT
 70
     0
  9
$DIMALTD
 70
     2
  9
$DIMALTF
 40
25.4
  9
$DIMLFAC
 40
1.0
  9
$DIMTOFL
 70
     0
  9
$DIMTVP
 40
0.0
  9
$DIMTIX
 70
     0
  9
$DIMSOXD
 70
     0
  9
$DIMSAH
 70
     0
  9
$DIMBLK1
  1

  9
$DIMBLK2
  1

  9
$DIMSTYLE
  2
STANDARD
  9
$DIMCLRD
 70
     0
  9
$DIMCLRE
 70
     0
  9
$DIMCLRT
 70
     0
  9
$DIMTFAC
 40
1.0
  9
$DIMGAP
 40
0.09
  9
$LUNITS
 70
     2
  9
$LUPREC
 70
     4
  9
$SKETCHINC
 40
0.1
  9
$FILLETRAD
 40
0.5
  9
$AUNITS
 70
     0
  9
$AUPREC
 70
     0
  9
$MENU
  1
.
  9
$ELEVATION
 40
0.0
  9
$PELEVATION
 40
0.0
  9
$THICKNESS
 40
0.0
  9
$LIMCHECK
 70
     0
  9
$CHAMFERA
 40
0.0
  9
$CHAMFERB
 40
0.0
  9
$SKPOLY
 70
     0
  9
$TDCREATE
 40
2454910.5
  9
$TDUPDATE
 40
2458014.495586366
  9
$TDINDWG
 40
0.0000000116
  9
$TDUSRTIMER
 40
0.0000000116
  9
$USRTIMER
 70
     1
  9
$ANGBASE
 50
0.0
  9
$ANGDIR
 70
     0
  9
$PDMODE
 70
     0
  9
$PDSIZE
 40
0.0
  9
$PLINEWID
 40
0.0
  9
$COORDS
 70
     1
  9
$SPLFRAME
 70
     0
  9
$SPLINETYPE
 70
     6
  9
$SPLINESEGS
 70
     8
  9
$ATTDIA
 70
     0
  9
$ATTREQ
 70
     1
  9
$HANDLING
 70
     1
  9
$HANDSEED
  5
13B
  9
$SURFTAB1
 70
     6
  9
$SURFTAB2
 70
     6
  9
$SURFTYPE
 70
     6
  9
$SURFU
 70
     6
  9
$SURFV
 70
     6
  9
$UCSNAME
  2

  9
$UCSORG
 10
0.0
 20
0.0
 30
0.0
  9
$UCSXDIR
 10
1.0
 20
0.0
 30
0.0
  9
$UCSYDIR
 10
0.0
 20
1.0
 30
0.0
  9
$PUCSNAME
  2

  9
$PUCSORG
 10
0.0
 20
0.0
 30
0.0
  9
$PUCSXDIR
 10
1.0
 20
0.0
 30
0.0
  9
$PUCSYDIR
 10
0.0
 20
1.0
 30
0.0
  9
$USERI1
 70
     0
  9
$USERI2
 70
     0
  9
$USERI3
 70
     0
  9
$USERI4
 70
     0
  9
$USERI5
 70
     0
  9
$USERR1
 40
0.0
  9
$USERR2
 40
0.0
  9
$USERR3
 40
0.0
  9
$USERR4
 40
0.0
  9
$USERR5
 40
0.0
  9
$WORLDVIEW
 70
     1
  9
$SHADEDGE
 70
     3
  9
$SHADEDIF
 70
    70
  9
$TILEMODE
 70
     1
  9
$MAXACTVP
 70
    64
  9
$PLIMCHECK
 70
     0
  9
$PEXTMIN
 10
1.000000000000000E+20
 20
1.000000000000000E+20
 30
1.000000000000000E+20
  9
$PEXTMAX
 10
-1.000000000000000E+20
 20
-1.000000000000000E+20
 30
-1.000000000000000E+20
  9
$PLIMMIN
 10
0.0
 20
0.0
  9
$PLIMMAX
 10
12.0
 20
9.0
  9
$UNITMODE
 70
     0
  9
$VISRETAIN
 70
     1
  9
$PLINEGEN
 70
     0
  9
$PSLTSCALE
 70
     1
  0
ENDSEC
  0
SECTION
  2
TABLES
  0
TABLE
  2
VPORT
 70
     1
  0
VPORT
  2
*ACTIVE
 70
     0
 10
0.0
 20
0.0
 11
1.0
 21
1.0
 12
10.42990654205607
 22
4.5
 13
0.0
 23
0.0
 14
0.5
 24
0.5
 15
0.5
 25
0.5
 16
0.0
 26
0.0
 36
1.0
 17
0.0
 27
0.0
 37
0.0
 40
9.0
 41
1.972972972850329
 42
50.0
 43
0.0
 44
0.0
 50
0.0
 51
0.0
 71
     0
 72
   100
 73
     1
 74
     3
 75
     0
 76
     0
 77
     0
 78
     0
  0
ENDTAB
  0
TABLE
  2
LTYPE
 70
     2
  0
LTYPE
  2
CONTINUOUS
 70
     0
  3
Solid line
 72
    65
 73
     0
 40
0.0
  0
LTYPE
  2
CONTINUOUS2
 70
     0
  3
Solid Line
 72
    65
 73
     0
 40
0.0
  0
ENDTAB
  0
TABLE
  2
LAYER
 70
     2
  0
LAYER
  2
0
 70
     0
 62
     7
  6
CONTINUOUS
  0
LAYER
  2
LAYER_1
 70
     0
 62
    18
  6
CONTINUOUS
  0
ENDTAB
  0
TABLE
  2
STYLE
 70
     1
  0
STYLE
  2
STANDARD
 70
     0
 40
0.0
 41
1.0
 50
0.0
 71
     0
 42
0.2
  3
txt
  4

  0
ENDTAB
  0
TABLE
  2
VIEW
 70
     0
  0
ENDTAB
  0
TABLE
  2
UCS
 70
     0
  0
ENDTAB
  0
TABLE
  2
APPID
 70
     1
  0
APPID
  2
ACAD
 70
     0
  0
ENDTAB
  0
TABLE
  2
DIMSTYLE
 70
     1
  0
DIMSTYLE
  2
STANDARD
 70
     0
  3

  4

  5

  6

  7

 40
1.0
 41
0.18
 42
0.0625
 43
0.38
 44
0.18
 45
0.0
 46
0.0
 47
0.0
 48
0.0
140
0.18
141
0.09
142
0.0
143
25.4
144
1.0
145
0.0
146
1.0
147
0.09
 71
     0
 72
     0
 73
     1
 74
     1
 75
     0
 76
     0
 77
     0
 78
     0
170
     0
171
     2
172
     0
173
     0
174
     0
175
     0
176
     0
177
     0
178
     0
  0
ENDTAB
  0
ENDSEC
  0
SECTION
  2
BLOCKS
  0
BLOCK
  8
0
  2
$MODEL_SPACE
 70
     0
 10
0.0
 20
0.0
 30
0.0
  3
$MODEL_SPACE
  1

  0
ENDBLK
  5
21
  8
0
  0
BLOCK
 67
     1
  8
0
  2
$PAPER_SPACE
 70
     0
 10
0.0
 20
0.0
 30
0.0
  3
$PAPER_SPACE
  1

  0
ENDBLK
  5
1D
 67
     1
  8
0
  0
ENDSEC
  0
SECTION
  2
ENTITIES
  0
POLYLINE
  5
70
  8
LAYER_1
 66
     1
 10
0.0
 20
0.0
 30
0.0
 70
     1
  0
VERTEX
  5
7D
  8
LAYER_1
 10
-40.06526093905981
 20
97.59922493510403
 30
0.0
  0
VERTEX
  5
7E
  8
LAYER_1
 10
-41.43010245598953
 20
97.13499893483696
 30
0.0
  0
VERTEX
  5
7F
  8
LAYER_1
 10
-41.28320719228
 20
96.70312145611803
 30
0.0
  0
VERTEX
  5
80
  8
LAYER_1
 10
-40.51358822578906
 20
96.96489333960194
 30
0.0
  0
VERTEX
  5
81
  8
LAYER_1
 10
-40.50971725473224
 20
96.95351254230462
 30
0.0
  0
VERTEX
  5
82
  8
LAYER_1
 10
-40.68961186331498
 20
94.94547242190153
 30
0.0
  0
VERTEX
  5
83
  8
LAYER_1
 10
-40.56462198670356
 20
94.57799758702143
 30
0.0
  0
VERTEX
  5
84
  8
LAYER_1
 10
-39.27183396862831
 20
95.01771590111134
 30
0.0
  0
VERTEX
  5
85
  8
LAYER_1
 10
-39.41872923233785
 20
95.44959337983029
 30
0.0
  0
VERTEX
  5
86
  8
LAYER_1
 10
-40.15069281866282
 20
95.20062928853771
 30
0.0
  0
VERTEX
  5
87
  8
LAYER_1
 10
-40.15456701779244
 20
95.21201957648783
 30
0.0
  0
VERTEX
  5
88
  8
LAYER_1
 10
-39.96604242102716
 20
97.30751884242224
 30
0.0
  0
SEQEND
  5
135
  8
LAYER_1
  0
POLYLINE
  5
71
  8
LAYER_1
 66
     1
 10
0.0
 20
0.0
 30
0.0
 70
     1
  0
VERTEX
  5
89
  8
LAYER_1
 10
-42.39129863950672
 20
95.40241811278605
 30
0.0
  0
VERTEX
  5
8A
  8
LAYER_1
 10
-41.78012127019976
 20
95.48635285375329
 30
0.0
  0
VERTEX
  5
8B
  8
LAYER_1
 10
-41.69557336959884
 20
94.87071071470301
 30
0.0
  0
VERTEX
  5
8C
  8
LAYER_1
 10
-42.33850021263603
 20
94.78241572745178
 30
0.0
  0
VERTEX
  5
8D
  8
LAYER_1
 10
-42.27643483193705
 20
94.330481812323
 30
0.0
  0
VERTEX
  5
8E
  8
LAYER_1
 10
-41.11410644209435
 20
94.49010770362675
 30
0.0
  0
VERTEX
  5
8F
  8
LAYER_1
 10
-41.48138906267417
 20
97.16450477987173
 30
0.0
  0
VERTEX
  5
90
  8
LAYER_1
 10
-42.69134166311221
 20
96.99833851914197
 30
0.0
  0
VERTEX
  5
91
  8
LAYER_1
 10
-42.62927628241323
 20
96.5464046040132
 30
0.0
  0
VERTEX
  5
92
  8
LAYER_1
 10
-41.93872522878069
 20
96.64123996069046
 30
0.0
  0
VERTEX
  5
93
  8
LAYER_1
 10
-41.83946149697123
 20
95.91844334780066
 30
0.0
  0
VERTEX
  5
94
  8
LAYER_1
 10
-42.45063886627819
 20
95.83450860683342
 30
0.0
  0
SEQEND
  5
136
  8
LAYER_1
  0
POLYLINE
  5
72
  8
LAYER_1
 66
     1
 10
0.0
 20
0.0
 30
0.0
 70
     1
  0
VERTEX
  5
95
  8
LAYER_1
 10
-42.77309347461488
 20
97.01217892123593
 30
0.0
  0
VERTEX
  5
96
  8
LAYER_1
 10
-43.29683972569592
 20
97.0357570716184
 30
0.0
  0
VERTEX
  5
97
  8
LAYER_1
 10
-43.3453021731661
 20
95.95925086697632
 30
0.0
  0
VERTEX
  5
98
  8
LAYER_1
 10
-43.42142145845405
 20
95.96267762554847
 30
0.0
  0
VERTEX
  5
99
  8
LAYER_1
 10
-43.48280935494429
 20
95.96938853831766
 30
0.0
  0
VERTEX
  5
9A
  8
LAYER_1
 10
-43.53631590336271
 20
95.9881505590745
 30
0.0
  0
VERTEX
  5
9B
  8
LAYER_1
 10
-43.58194110370928
 20
96.01896368781902
 30
0.0
  0
VERTEX
  5
9C
  8
LAYER_1
 10
-43.61968495598404
 20
96.06182792455122
 30
0.0
  0
VERTEX
  5
9D
  8
LAYER_1
 10
-43.65071001954082
 20
96.12017904022858
 30
0.0
  0
VERTEX
  5
9E
  8
LAYER_1
 10
-43.67617885373352
 20
96.19745280580855
 30
0.0
  0
VERTEX
  5
9F
  8
LAYER_1
 10
-43.69609145856211
 20
96.29364922129118
 30
0.0
  0
VERTEX
  5
A0
  8
LAYER_1
 10
-43.7104478340266
 20
96.40876828667642
 30
0.0
  0
VERTEX
  5
A1
  8
LAYER_1
 10
-43.76129847604099
 20
96.81656787106877
 30
0.0
  0
VERTEX
  5
A2
  8
LAYER_1
 10
-43.78912632158574
 20
96.9666289434791
 30
0.0
  0
VERTEX
  5
A3
  8
LAYER_1
 10
-43.81352210866547
 20
97.05901721887575
 30
0.0
  0
VERTEX
  5
A4
  8
LAYER_1
 10
-44.36134022455022
 20
97.08367904297839
 30
0.0
  0
VERTEX
  5
A5
  8
LAYER_1
 10
-44.32666653797291
 20
96.96745733989192
 30
0.0
  0
VERTEX
  5
A6
  8
LAYER_1
 10
-44.28993034550509
 20
96.78873731697068
 30
0.0
  0
VERTEX
  5
A7
  8
LAYER_1
 10
-44.22231197149932
 20
96.34359170158915
 30
0.0
  0
VERTEX
  5
A8
  8
LAYER_1
 10
-44.18378107885282
 20
96.14689505005072
 30
0.0
  0
VERTEX
  5
A9
  8
LAYER_1
 10
-44.15635608737335
 20
96.06398200145641
 30
0.0
  0
VERTEX
  5
AA
  8
LAYER_1
 10
-44.12349139912307
 20
95.99135913764536
 30
0.0
  0
VERTEX
  5
AB
  8
LAYER_1
 10
-44.08398597401236
 20
95.92859177227007
 30
0.0
  0
VERTEX
  5
AC
  8
LAYER_1
 10
-44.03663870813877
 20
95.87524527729792
 30
0.0
  0
VERTEX
  5
AD
  8
LAYER_1
 10
-43.98144960150229
 20
95.83131965272888
 30
0.0
  0
VERTEX
  5
AE
  8
LAYER_1
 10
-43.91841865410294
 20
95.79681489856299
 30
0.0
  0
VERTEX
  5
AF
  8
LAYER_1
 10
-43.91877852434074
 20
95.78882102776012
 30
0.0
  0
VERTEX
  5
B0
  8
LAYER_1
 10
-44.01832942717419
 20
95.73862404394629
 30
0.0
  0
VERTEX
  5
B1
  8
LAYER_1
 10
-44.10549095491032
 20
95.6778912246404
 30
0.0
  0
VERTEX
  5
B2
  8
LAYER_1
 10
-44.18026310754914
 20
95.60662256984253
 30
0.0
  0
VERTEX
  5
B3
  8
LAYER_1
 10
-44.24264588509064
 20
95.52481807955262
 30
0.0
  0
VERTEX
  5
B4
  8
LAYER_1
 10
-44.29243585154617
 20
95.4349122569493
 30
0.0
  0
VERTEX
  5
B5
  8
LAYER_1
 10
-44.32942950986325
 20
95.33933960246218
 30
0.0
  0
VERTEX
  5
B6
  8
LAYER_1
 10
-44.35362686004184
 20
95.23810011609125
 30
0.0
  0
VERTEX
  5
B7
  8
LAYER_1
 10
-44.36502790208198
 20
95.13119379783652
 30
0.0
  0
VERTEX
  5
B8
  8
LAYER_1
 10
-44.3623856002836
 20
94.96602212403917
 30
0.0
  0
VERTEX
  5
B9
  8
LAYER_1
 10
-44.33458362681858
 20
94.8174437981167
 30
0.0
  0
VERTEX
  5
BA
  8
LAYER_1
 10
-44.309675823646
 20
94.7488373561919
 30
0.0
  0
VERTEX
  5
BB
  8
LAYER_1
 10
-44.27533422342661
 20
94.6832996824025
 30
0.0
  0
VERTEX
  5
BC
  8
LAYER_1
 10
-44.23155882616043
 20
94.62083077674853
 30
0.0
  0
VERTEX
  5
BD
  8
LAYER_1
 10
-44.17834963184744
 20
94.56143063922997
 30
0.0
  0
VERTEX
  5
BE
  8
LAYER_1
 10
-44.11086654838814
 20
94.5042613860477
 30
0.0
  0
VERTEX
  5
BF
  8
LAYER_1
 10
-44.03656466547548
 20
94.45617220008162
 30
0.0
  0
VERTEX
  5
C0
  8
LAYER_1
 10
-43.95544398310947
 20
94.41716308133172
 30
0.0
  0
VERTEX
  5
C1
  8
LAYER_1
 10
-43.8675045012901
 20
94.38723402979801
 30
0.0
  0
VERTEX
  5
C2
  8
LAYER_1
 10
-43.67599433658226
 20
94.34732342649582
 30
0.0
  0
VERTEX
  5
C3
  8
LAYER_1
 10
-43.46685936864291
 20
94.32914768829181
 30
0.0
  0
VERTEX
  5
C4
  8
LAYER_1
 10
-43.16678696049956
 20
94.32965580781227
 30
0.0
  0
VERTEX
  5
C5
  8
LAYER_1
 10
-42.89269867517032
 20
94.35536426934257
 30
0.0
  0
SEQEND
  5
137
  8
LAYER_1
  0
POLYLINE
  5
73
  8
LAYER_1
 66
     1
 10
0.0
 20
0.0
 30
0.0
 70
     1
  0
VERTEX
  5
C6
  8
LAYER_1
 10
-43.39970940701409
 20
94.75069191314272
 30
0.0
  0
VERTEX
  5
C7
  8
LAYER_1
 10
-43.45636062714912
 20
94.74070362449461
 30
0.0
  0
VERTEX
  5
C8
  8
LAYER_1
 10
-43.52462507937334
 20
94.74026613228044
 30
0.0
  0
VERTEX
  5
C9
  8
LAYER_1
 10
-43.60581918160392
 20
94.75462625475004
 30
0.0
  0
VERTEX
  5
CA
  8
LAYER_1
 10
-43.67415098444463
 20
94.78091489933006
 30
0.0
  0
VERTEX
  5
CB
  8
LAYER_1
 10
-43.72962048789548
 20
94.8191320660205
 30
0.0
  0
VERTEX
  5
CC
  8
LAYER_1
 10
-43.77222769195647
 20
94.86927775482134
 30
0.0
  0
VERTEX
  5
CD
  8
LAYER_1
 10
-43.80329030966183
 20
94.9292483197691
 30
0.0
  0
VERTEX
  5
CE
  8
LAYER_1
 10
-43.82412599298195
 20
94.99694011215124
 30
0.0
  0
VERTEX
  5
CF
  8
LAYER_1
 10
-43.83473474191681
 20
95.07235313196777
 30
0.0
  0
VERTEX
  5
D0
  8
LAYER_1
 10
-43.83511655646644
 20
95.15548737921871
 30
0.0
  0
VERTEX
  5
D1
  8
LAYER_1
 10
-43.82487649203305
 20
95.24187375502152
 30
0.0
  0
VERTEX
  5
D2
  8
LAYER_1
 10
-43.8034460416745
 20
95.31976283106884
 30
0.0
  0
VERTEX
  5
D3
  8
LAYER_1
 10
-43.77082520539079
 20
95.38915460736068
 30
0.0
  0
VERTEX
  5
D4
  8
LAYER_1
 10
-43.72701398318191
 20
95.45004908389704
 30
0.0
  0
VERTEX
  5
D5
  8
LAYER_1
 10
-43.67299707102906
 20
95.4993871920646
 30
0.0
  0
VERTEX
  5
D6
  8
LAYER_1
 10
-43.60975910110058
 20
95.53410992156495
 30
0.0
  0
VERTEX
  5
D7
  8
LAYER_1
 10
-43.53730007339645
 20
95.55421727239805
 30
0.0
  0
VERTEX
  5
D8
  8
LAYER_1
 10
-43.45561998791669
 20
95.55970924456393
 30
0.0
  0
VERTEX
  5
D9
  8
LAYER_1
 10
-43.36347558993655
 20
95.55556106313448
 30
0.0
  0
SEQEND
  5
138
  8
LAYER_1
  0
POLYLINE
  5
74
  8
LAYER_1
 66
     1
 10
0.0
 20
0.0
 30
0.0
 70
     1
  0
VERTEX
  5
DA
  8
LAYER_1
 10
-45.97555122379241
 20
94.74365925185569
 30
0.0
  0
VERTEX
  5
DB
  8
LAYER_1
 10
-45.83582407737716
 20
94.71079463618663
 30
0.0
  0
VERTEX
  5
DC
  8
LAYER_1
 10
-45.70069403640515
 20
94.70357665818665
 30
0.0
  0
VERTEX
  5
DD
  8
LAYER_1
 10
-45.57016110087635
 20
94.72200531785577
 30
0.0
  0
VERTEX
  5
DE
  8
LAYER_1
 10
-45.4442252707908
 20
94.76608061519401
 30
0.0
  0
VERTEX
  5
DF
  8
LAYER_1
 10
-45.32400166340035
 20
94.83225258225004
 30
0.0
  0
VERTEX
  5
E0
  8
LAYER_1
 10
-45.21060533808708
 20
94.91697123138918
 30
0.0
  0
VERTEX
  5
E1
  8
LAYER_1
 10
-45.104036294851
 20
95.02023656261143
 30
0.0
  0
VERTEX
  5
E2
  8
LAYER_1
 10
-45.0042945336921
 20
95.1420485759168
 30
0.0
  0
VERTEX
  5
E3
  8
LAYER_1
 10
-44.91249517685688
 20
95.27885727680571
 30
0.0
  0
VERTEX
  5
E4
  8
LAYER_1
 10
-44.82975326903863
 20
95.42711270896503
 30
0.0
  0
VERTEX
  5
E5
  8
LAYER_1
 10
-44.75606881023738
 20
95.58681487239478
 30
0.0
  0
VERTEX
  5
E6
  8
LAYER_1
 10
-44.69144180045311
 20
95.75796376709498
 30
0.0
  0
VERTEX
  5
E7
  8
LAYER_1
 10
-44.63677074836239
 20
95.9337581216467
 30
0.0
  0
VERTEX
  5
E8
  8
LAYER_1
 10
-44.59493187232758
 20
96.10575708832152
 30
0.0
  0
VERTEX
  5
E9
  8
LAYER_1
 10
-44.56592517234864
 20
96.27396066711947
 30
0.0
  0
VERTEX
  5
EA
  8
LAYER_1
 10
-44.5497506484256
 20
96.4383688580405
 30
0.0
  0
VERTEX
  5
EB
  8
LAYER_1
 10
-44.54852281597166
 20
96.59562451746001
 30
0.0
  0
VERTEX
  5
EC
  8
LAYER_1
 10
-44.56435617071666
 20
96.7423705596232
 30
0.0
  0
VERTEX
  5
ED
  8
LAYER_1
 10
-44.5972507126606
 20
96.87860698453007
 30
0.0
  0
VERTEX
  5
EE
  8
LAYER_1
 10
-44.64720644180349
 20
97.00433379218062
 30
0.0
  0
VERTEX
  5
EF
  8
LAYER_1
 10
-44.71633790372366
 20
97.116193845175
 30
0.0
  0
VERTEX
  5
F0
  8
LAYER_1
 10
-44.80675956644626
 20
97.21083004429993
 30
0.0
  0
VERTEX
  5
F1
  8
LAYER_1
 10
-44.91847142997128
 20
97.28824238955535
 30
0.0
  0
VERTEX
  5
F2
  8
LAYER_1
 10
-45.05147349429873
 20
97.3484308809413
 30
0.0
  0
VERTEX
  5
F3
  8
LAYER_1
 10
-45.14302701118476
 20
97.37546694927576
 30
0.0
  0
VERTEX
  5
F4
  8
LAYER_1
 10
-45.23351777665863
 20
97.39074107151276
 30
0.0
  0
VERTEX
  5
F5
  8
LAYER_1
 10
-45.32294579072031
 20
97.3942532476523
 30
0.0
  0
VERTEX
  5
F6
  8
LAYER_1
 10
-45.41131105336983
 20
97.38600347769439
 30
0.0
  0
VERTEX
  5
F7
  8
LAYER_1
 10
-45.49861356460716
 20
97.36599176163904
 30
0.0
  0
VERTEX
  5
F8
  8
LAYER_1
 10
-45.58485332443232
 20
97.33421809948621
 30
0.0
  0
VERTEX
  5
F9
  8
LAYER_1
 10
-45.67003033284531
 20
97.29068249123591
 30
0.0
  0
VERTEX
  5
FA
  8
LAYER_1
 10
-45.75414458984611
 20
97.23538493688817
 30
0.0
  0
VERTEX
  5
FB
  8
LAYER_1
 10
-45.83640960662075
 20
97.16686087953093
 30
0.0
  0
VERTEX
  5
FC
  8
LAYER_1
 10
-45.91603885557859
 20
97.0836457813454
 30
0.0
  0
VERTEX
  5
FD
  8
LAYER_1
 10
-45.99303233671966
 20
96.98573964233158
 30
0.0
  0
VERTEX
  5
FE
  8
LAYER_1
 10
-46.06739005004395
 20
96.87314246248945
 30
0.0
  0
VERTEX
  5
FF
  8
LAYER_1
 10
-46.13911199555146
 20
96.74585424181905
 30
0.0
  0
VERTEX
  5
100
  8
LAYER_1
 10
-46.20819817324218
 20
96.60387498032031
 30
0.0
  0
VERTEX
  5
101
  8
LAYER_1
 10
-46.27464858311612
 20
96.44720467799331
 30
0.0
  0
VERTEX
  5
102
  8
LAYER_1
 10
-46.33846322517328
 20
96.27584333483802
 30
0.0
  0
VERTEX
  5
103
  8
LAYER_1
 10
-46.38579334457786
 20
96.12580311478962
 30
0.0
  0
VERTEX
  5
104
  8
LAYER_1
 10
-46.42349999513521
 20
95.97409542133201
 30
0.0
  0
VERTEX
  5
105
  8
LAYER_1
 10
-46.45158317684534
 20
95.82072025446521
 30
0.0
  0
VERTEX
  5
106
  8
LAYER_1
 10
-46.47004288970823
 20
95.6656776141892
 30
0.0
  0
VERTEX
  5
107
  8
LAYER_1
 10
-46.47518257953375
 20
95.5136968970819
 30
0.0
  0
VERTEX
  5
108
  8
LAYER_1
 10
-46.46330569213173
 20
95.36950749972124
 30
0.0
  0
VERTEX
  5
109
  8
LAYER_1
 10
-46.43441222750216
 20
95.23310942210718
 30
0.0
  0
VERTEX
  5
10A
  8
LAYER_1
 10
-46.38850218564506
 20
95.10450266423975
 30
0.0
  0
VERTEX
  5
10B
  8
LAYER_1
 10
-46.32187900267612
 20
94.98841662747014
 30
0.0
  0
VERTEX
  5
10C
  8
LAYER_1
 10
-46.23084611471103
 20
94.8895807131496
 30
0.0
  0
VERTEX
  5
10D
  8
LAYER_1
 10
-46.11540352174979
 20
94.80799492127811
 30
0.0
  0
SEQEND
  5
139
  8
LAYER_1
  0
POLYLINE
  5
75
  8
LAYER_1
 66
     1
 10
0.0
 20
0.0
 30
0.0
 70
     1
  0
VERTEX
  5
10E
  8
LAYER_1
 10
-45.80967812671553
 20
95.16908176597356
 30
0.0
  0
VERTEX
  5
10F
  8
LAYER_1
 10
-45.85929996342156
 20
95.19586472556932
 30
0.0
  0
VERTEX
  5
110
  8
LAYER_1
 10
-45.89815149316028
 20
95.23503229104432
 30
0.0
  0
VERTEX
  5
111
  8
LAYER_1
 10
-45.92623271593173
 20
95.28658446239857
 30
0.0
  0
VERTEX
  5
112
  8
LAYER_1
 10
-45.94354363173586
 20
95.35052123963204
 30
0.0
  0
VERTEX
  5
113
  8
LAYER_1
 10
-45.95155068378385
 20
95.42451983326269
 30
0.0
  0
VERTEX
  5
114
  8
LAYER_1
 10
-45.95172029560348
 20
95.50625751167823
 30
0.0
  0
VERTEX
  5
115
  8
LAYER_1
 10
-45.9285471985576
 20
95.692950122864
 30
0.0
  0
VERTEX
  5
116
  8
LAYER_1
 10
-45.87989018489491
 20
95.90130808483488
 30
0.0
  0
VERTEX
  5
117
  8
LAYER_1
 10
-45.81161498317243
 20
96.12204036986961
 30
0.0
  0
VERTEX
  5
118
  8
LAYER_1
 10
-45.74370153256272
 20
96.31008534850342
 30
0.0
  0
VERTEX
  5
119
  8
LAYER_1
 10
-45.67354020794913
 20
96.47643482234784
 30
0.0
  0
VERTEX
  5
11A
  8
LAYER_1
 10
-45.60113100933168
 20
96.62108879140287
 30
0.0
  0
VERTEX
  5
11B
  8
LAYER_1
 10
-45.52647393671035
 20
96.74404725566852
 30
0.0
  0
VERTEX
  5
11C
  8
LAYER_1
 10
-45.45031774949194
 20
96.839315344699
 30
0.0
  0
VERTEX
  5
11D
  8
LAYER_1
 10
-45.37341112953001
 20
96.90089822623497
 30
0.0
  0
VERTEX
  5
11E
  8
LAYER_1
 10
-45.33467640727023
 20
96.91905771419252
 30
0.0
  0
VERTEX
  5
11F
  8
LAYER_1
 10
-45.29575407682457
 20
96.92879590027644
 30
0.0
  0
VERTEX
  5
120
  8
LAYER_1
 10
-45.25664413819302
 20
96.93011278448674
 30
0.0
  0
VERTEX
  5
121
  8
LAYER_1
 10
-45.21734659137561
 20
96.92300836682342
 30
0.0
  0
VERTEX
  5
122
  8
LAYER_1
 10
-45.18180132590917
 20
96.90698753683026
 30
0.0
  0
VERTEX
  5
123
  8
LAYER_1
 10
-45.15083845517623
 20
96.88486222273166
 30
0.0
  0
VERTEX
  5
124
  8
LAYER_1
 10
-45.10265989791083
 20
96.82229814221809
 30
0.0
  0
VERTEX
  5
125
  8
LAYER_1
 10
-45.07281091957938
 20
96.73531612528271
 30
0.0
  0
VERTEX
  5
126
  8
LAYER_1
 10
-45.06129152018193
 20
96.62391617192553
 30
0.0
  0
VERTEX
  5
127
  8
LAYER_1
 10
-45.06845577369315
 20
96.4885163172211
 30
0.0
  0
VERTEX
  5
128
  8
LAYER_1
 10
-45.09465775408773
 20
96.32953459624389
 30
0.0
  0
VERTEX
  5
129
  8
LAYER_1
 10
-45.13989746136568
 20
96.14697100899397
 30
0.0
  0
VERTEX
  5
12A
  8
LAYER_1
 10
-45.20417489552698
 20
95.94082555547132
 30
0.0
  0
VERTEX
  5
12B
  8
LAYER_1
 10
-45.27615221307215
 20
95.74642576397275
 30
0.0
  0
VERTEX
  5
12C
  8
LAYER_1
 10
-45.34996122238513
 20
95.57873862977745
 30
0.0
  0
VERTEX
  5
12D
  8
LAYER_1
 10
-45.4256019234659
 20
95.43776415288544
 30
0.0
  0
VERTEX
  5
12E
  8
LAYER_1
 10
-45.50307431631448
 20
95.32350233329667
 30
0.0
  0
VERTEX
  5
12F
  8
LAYER_1
 10
-45.5810282335139
 20
95.23817192963614
 30
0.0
  0
VERTEX
  5
130
  8
LAYER_1
 10
-45.65811350764723
 20
95.18399170052876
 30
0.0
  0
VERTEX
  5
131
  8
LAYER_1
 10
-45.73433013871443
 20
95.16096164597458
 30
0.0
  0
VERTEX
  5
132
  8
LAYER_1
 10
-45.77211271309825
 20
95.16112793415492
 30
0.0
  0
SEQEND
  5
13A
  8
LAYER_1
  0
ENDSEC
  0
EOF
