  0
SECTION
  2
HEADER
  9
$ACADVER
  1
AC1009
  9
$DWGCODEPAGE
  3
ansi_1252
  9
$INSBASE
 10
0.0
 20
0.0
 30
0.0
  9
$EXTMIN
 10
-46.86467822883723
 20
94.3137071898221
 30
0.0
  9
$EXTMAX
 10
-38.88233831932482
 20
97.73170479093692
 30
0.0
  9
$LIMMIN
 10
0.0
 20
0.0
  9
$LIMMAX
 10
12.0
 20
9.0
  9
$ORTHOMODE
 70
     0
  9
$REGENMODE
 70
     1
  9
$FILLMODE
 70
     1
  9
$QTEXTMODE
 70
     0
  9
$MIRRTEXT
 70
     1
  9
$DRAGMODE
 70
     2
  9
$LTSCALE
 40
1.0
  9
$OSMODE
 70
    37
  9
$ATTMODE
 70
     1
  9
$TEXTSIZE
 40
0.2
  9
$TRACEWID
 40
0.05
  9
$TEXTSTYLE
  7
STANDARD
  9
$CLAYER
  8
0
  9
$CELTYPE
  6
BYLAYER
  9
$CECOLOR
 62
   256
  9
$DIMSCALE
 40
1.0
  9
$DIMASZ
 40
0.18
  9
$DIMEXO
 40
0.0625
  9
$DIMDLI
 40
0.38
  9
$DIMRND
 40
0.0
  9
$DIMDLE
 40
0.0
  9
$DIMEXE
 40
0.18
  9
$DIMTP
 40
0.0
  9
$DIMTM
 40
0.0
  9
$DIMTXT
 40
0.18
  9
$DIMCEN
 40
0.09
  9
$DIMTSZ
 40
0.0
  9
$DIMTOL
 70
     0
  9
$DIMLIM
 70
     0
  9
$DIMTIH
 70
     1
  9
$DIMTOH
 70
     1
  9
$DIMSE1
 70
     0
  9
$DIMSE2
 70
     0
  9
$DIMTAD
 70
     0
  9
$DIMZIN
 70
     0
  9
$DIMBLK
  1

  9
$DIMASO
 70
     1
  9
$DIMSHO
 70
     1
  9
$DIMPOST
  1

  9
$DIMAPOST
  1

  9
$DIMALT
 70
     0
  9
$DIMALTD
 70
     2
  9
$DIMALTF
 40
25.4
  9
$DIMLFAC
 40
1.0
  9
$DIMTOFL
 70
     0
  9
$DIMTVP
 40
0.0
  9
$DIMTIX
 70
     0
  9
$DIMSOXD
 70
     0
  9
$DIMSAH
 70
     0
  9
$DIMBLK1
  1

  9
$DIMBLK2
  1

  9
$DIMSTYLE
  2
STANDARD
  9
$DIMCLRD
 70
     0
  9
$DIMCLRE
 70
     0
  9
$DIMCLRT
 70
     0
  9
$DIMTFAC
 40
1.0
  9
$DIMGAP
 40
0.09
  9
$LUNITS
 70
     2
  9
$LUPREC
 70
     4
  9
$SKETCHINC
 40
0.1
  9
$FILLETRAD
 40
0.5
  9
$AUNITS
 70
     0
  9
$AUPREC
 70
     0
  9
$MENU
  1
.
  9
$ELEVATION
 40
0.0
  9
$PELEVATION
 40
0.0
  9
$THICKNESS
 40
0.0
  9
$LIMCHECK
 70
     0
  9
$CHAMFERA
 40
0.0
  9
$CHAMFERB
 40
0.0
  9
$SKPOLY
 70
     0
  9
$TDCREATE
 40
2454910.5
  9
$TDUPDATE
 40
2458014.502552523
  9
$TDINDWG
 40
0.0000000116
  9
$TDUSRTIMER
 40
0.0000000116
  9
$USRTIMER
 70
     1
  9
$ANGBASE
 50
0.0
  9
$ANGDIR
 70
     0
  9
$PDMODE
 70
     0
  9
$PDSIZE
 40
0.0
  9
$PLINEWID
 40
0.0
  9
$COORDS
 70
     1
  9
$SPLFRAME
 70
     0
  9
$SPLINETYPE
 70
     6
  9
$SPLINESEGS
 70
     8
  9
$ATTDIA
 70
     0
  9
$ATTREQ
 70
     1
  9
$HANDLING
 70
     1
  9
$HANDSEED
  5
13B
  9
$SURFTAB1
 70
     6
  9
$SURFTAB2
 70
     6
  9
$SURFTYPE
 70
     6
  9
$SURFU
 70
     6
  9
$SURFV
 70
     6
  9
$UCSNAME
  2

  9
$UCSORG
 10
0.0
 20
0.0
 30
0.0
  9
$UCSXDIR
 10
1.0
 20
0.0
 30
0.0
  9
$UCSYDIR
 10
0.0
 20
1.0
 30
0.0
  9
$PUCSNAME
  2

  9
$PUCSORG
 10
0.0
 20
0.0
 30
0.0
  9
$PUCSXDIR
 10
1.0
 20
0.0
 30
0.0
  9
$PUCSYDIR
 10
0.0
 20
1.0
 30
0.0
  9
$USERI1
 70
     0
  9
$USERI2
 70
     0
  9
$USERI3
 70
     0
  9
$USERI4
 70
     0
  9
$USERI5
 70
     0
  9
$USERR1
 40
0.0
  9
$USERR2
 40
0.0
  9
$USERR3
 40
0.0
  9
$USERR4
 40
0.0
  9
$USERR5
 40
0.0
  9
$WORLDVIEW
 70
     1
  9
$SHADEDGE
 70
     3
  9
$SHADEDIF
 70
    70
  9
$TILEMODE
 70
     1
  9
$MAXACTVP
 70
    64
  9
$PLIMCHECK
 70
     0
  9
$PEXTMIN
 10
1.000000000000000E+20
 20
1.000000000000000E+20
 30
1.000000000000000E+20
  9
$PEXTMAX
 10
-1.000000000000000E+20
 20
-1.000000000000000E+20
 30
-1.000000000000000E+20
  9
$PLIMMIN
 10
0.0
 20
0.0
  9
$PLIMMAX
 10
12.0
 20
9.0
  9
$UNITMODE
 70
     0
  9
$VISRETAIN
 70
     1
  9
$PLINEGEN
 70
     0
  9
$PSLTSCALE
 70
     1
  0
ENDSEC
  0
SECTION
  2
TABLES
  0
TABLE
  2
VPORT
 70
     1
  0
VPORT
  2
*ACTIVE
 70
     0
 10
0.0
 20
0.0
 11
1.0
 21
1.0
 12
10.42990654205607
 22
4.5
 13
0.0
 23
0.0
 14
0.5
 24
0.5
 15
0.5
 25
0.5
 16
0.0
 26
0.0
 36
1.0
 17
0.0
 27
0.0
 37
0.0
 40
9.0
 41
1.972972972850329
 42
50.0
 43
0.0
 44
0.0
 50
0.0
 51
0.0
 71
     0
 72
   100
 73
     1
 74
     3
 75
     0
 76
     0
 77
     0
 78
     0
  0
ENDTAB
  0
TABLE
  2
LTYPE
 70
     2
  0
LTYPE
  2
CONTINUOUS
 70
     0
  3
Solid line
 72
    65
 73
     0
 40
0.0
  0
LTYPE
  2
CONTINUOUS2
 70
     0
  3
Solid Line
 72
    65
 73
     0
 40
0.0
  0
ENDTAB
  0
TABLE
  2
LAYER
 70
     2
  0
LAYER
  2
0
 70
     0
 62
     7
  6
CONTINUOUS
  0
LAYER
  2
LAYER_1
 70
     0
 62
    18
  6
CONTINUOUS
  0
ENDTAB
  0
TABLE
  2
STYLE
 70
     1
  0
STYLE
  2
STANDARD
 70
     0
 40
0.0
 41
1.0
 50
0.0
 71
     0
 42
0.2
  3
txt
  4

  0
ENDTAB
  0
TABLE
  2
VIEW
 70
     0
  0
ENDTAB
  0
TABLE
  2
UCS
 70
     0
  0
ENDTAB
  0
TABLE
  2
APPID
 70
     1
  0
APPID
  2
ACAD
 70
     0
  0
ENDTAB
  0
TABLE
  2
DIMSTYLE
 70
     1
  0
DIMSTYLE
  2
STANDARD
 70
     0
  3

  4

  5

  6

  7

 40
1.0
 41
0.18
 42
0.0625
 43
0.38
 44
0.18
 45
0.0
 46
0.0
 47
0.0
 48
0.0
140
0.18
141
0.09
142
0.0
143
25.4
144
1.0
145
0.0
146
1.0
147
0.09
 71
     0
 72
     0
 73
     1
 74
     1
 75
     0
 76
     0
 77
     0
 78
     0
170
     0
171
     2
172
     0
173
     0
174
     0
175
     0
176
     0
177
     0
178
     0
  0
ENDTAB
  0
ENDSEC
  0
SECTION
  2
BLOCKS
  0
BLOCK
  8
0
  2
$MODEL_SPACE
 70
     0
 10
0.0
 20
0.0
 30
0.0
  3
$MODEL_SPACE
  1

  0
ENDBLK
  5
21
  8
0
  0
BLOCK
 67
     1
  8
0
  2
$PAPER_SPACE
 70
     0
 10
0.0
 20
0.0
 30
0.0
  3
$PAPER_SPACE
  1

  0
ENDBLK
  5
1D
 67
     1
  8
0
  0
ENDSEC
  0
SECTION
  2
ENTITIES
  0
POLYLINE
  5
70
  8
LAYER_1
 66
     1
 10
0.0
 20
0.0
 30
0.0
 70
     1
  0
VERTEX
  5
7D
  8
LAYER_1
 10
-39.67576528975632
 20
97.73170479093692
 30
0.0
  0
VERTEX
  5
7E
  8
LAYER_1
 10
-41.04060680668604
 20
97.26747879066984
 30
0.0
  0
VERTEX
  5
7F
  8
LAYER_1
 10
-40.8937115429765
 20
96.83560131195091
 30
0.0
  0
VERTEX
  5
80
  8
LAYER_1
 10
-40.12409257648557
 20
97.09737319543483
 30
0.0
  0
VERTEX
  5
81
  8
LAYER_1
 10
-40.12022160542875
 20
97.0859923981375
 30
0.0
  0
VERTEX
  5
82
  8
LAYER_1
 10
-40.30011621401149
 20
95.07795227773441
 30
0.0
  0
VERTEX
  5
83
  8
LAYER_1
 10
-40.17512633740007
 20
94.71047744285431
 30
0.0
  0
VERTEX
  5
84
  8
LAYER_1
 10
-38.88233831932482
 20
95.15019575694423
 30
0.0
  0
VERTEX
  5
85
  8
LAYER_1
 10
-39.02923358303436
 20
95.58207323566317
 30
0.0
  0
VERTEX
  5
86
  8
LAYER_1
 10
-39.76119716935933
 20
95.3331091443706
 30
0.0
  0
VERTEX
  5
87
  8
LAYER_1
 10
-39.76507136848895
 20
95.34449943232072
 30
0.0
  0
VERTEX
  5
88
  8
LAYER_1
 10
-39.57654677172367
 20
97.43999869825512
 30
0.0
  0
SEQEND
  5
135
  8
LAYER_1
  0
POLYLINE
  5
71
  8
LAYER_1
 66
     1
 10
0.0
 20
0.0
 30
0.0
 70
     1
  0
VERTEX
  5
89
  8
LAYER_1
 10
-42.23829792560073
 20
95.4234301396287
 30
0.0
  0
VERTEX
  5
8A
  8
LAYER_1
 10
-41.62712055629378
 20
95.50736488059594
 30
0.0
  0
VERTEX
  5
8B
  8
LAYER_1
 10
-41.54257265569285
 20
94.89172274154566
 30
0.0
  0
VERTEX
  5
8C
  8
LAYER_1
 10
-42.18549949873005
 20
94.80342775429443
 30
0.0
  0
VERTEX
  5
8D
  8
LAYER_1
 10
-42.12343411803106
 20
94.35149383916566
 30
0.0
  0
VERTEX
  5
8E
  8
LAYER_1
 10
-40.96110572818836
 20
94.5111197304694
 30
0.0
  0
VERTEX
  5
8F
  8
LAYER_1
 10
-41.32838834876818
 20
97.18551680671439
 30
0.0
  0
VERTEX
  5
90
  8
LAYER_1
 10
-42.53834094920622
 20
97.01935054598462
 30
0.0
  0
VERTEX
  5
91
  8
LAYER_1
 10
-42.47627556850724
 20
96.56741663085586
 30
0.0
  0
VERTEX
  5
92
  8
LAYER_1
 10
-41.7857245148747
 20
96.66225198753311
 30
0.0
  0
VERTEX
  5
93
  8
LAYER_1
 10
-41.68646078306524
 20
95.93945537464332
 30
0.0
  0
VERTEX
  5
94
  8
LAYER_1
 10
-42.2976381523722
 20
95.85552063367608
 30
0.0
  0
SEQEND
  5
136
  8
LAYER_1
  0
POLYLINE
  5
72
  8
LAYER_1
 66
     1
 10
0.0
 20
0.0
 30
0.0
 70
     1
  0
VERTEX
  5
95
  8
LAYER_1
 10
-42.90329877857732
 20
96.94904163521225
 30
0.0
  0
VERTEX
  5
96
  8
LAYER_1
 10
-43.42270032538283
 20
97.02037253926476
 30
0.0
  0
VERTEX
  5
97
  8
LAYER_1
 10
-43.56931361499924
 20
95.9527964245284
 30
0.0
  0
VERTEX
  5
98
  8
LAYER_1
 10
-43.64480145751588
 20
95.96316338643832
 30
0.0
  0
VERTEX
  5
99
  8
LAYER_1
 10
-43.70531947155531
 20
95.97545485349545
 30
0.0
  0
VERTEX
  5
9A
  8
LAYER_1
 10
-43.75688806734291
 20
95.99902695724177
 30
0.0
  0
VERTEX
  5
9B
  8
LAYER_1
 10
-43.79950724487871
 20
96.03387969767728
 30
0.0
  0
VERTEX
  5
9C
  8
LAYER_1
 10
-43.83317700416266
 20
96.08001307480201
 30
0.0
  0
VERTEX
  5
9D
  8
LAYER_1
 10
-43.85874113769445
 20
96.14095470545186
 30
0.0
  0
VERTEX
  5
9E
  8
LAYER_1
 10
-43.87704343797374
 20
96.22023220646275
 30
0.0
  0
VERTEX
  5
9F
  8
LAYER_1
 10
-43.88808390500051
 20
96.31784557783467
 30
0.0
  0
VERTEX
  5
A0
  8
LAYER_1
 10
-43.89186253877478
 20
96.43379481956764
 30
0.0
  0
VERTEX
  5
A1
  8
LAYER_1
 10
-43.90524244602746
 20
96.84453472133731
 30
0.0
  0
VERTEX
  5
A2
  8
LAYER_1
 10
-43.91924377759285
 20
96.99651063112236
 30
0.0
  0
VERTEX
  5
A3
  8
LAYER_1
 10
-43.93509660195306
 20
97.09074138946492
 30
0.0
  0
VERTEX
  5
A4
  8
LAYER_1
 10
-44.47837032691303
 20
97.16535072820815
 30
0.0
  0
VERTEX
  5
A5
  8
LAYER_1
 10
-44.45446009823272
 20
97.04644719683236
 30
0.0
  0
VERTEX
  5
A6
  8
LAYER_1
 10
-44.43420606425764
 20
96.86511830079607
 30
0.0
  0
VERTEX
  5
A7
  8
LAYER_1
 10
-44.40754062399642
 20
96.41565660310397
 30
0.0
  0
VERTEX
  5
A8
  8
LAYER_1
 10
-44.38714180633557
 20
96.21626229362498
 30
0.0
  0
VERTEX
  5
A9
  8
LAYER_1
 10
-44.36740675566629
 20
96.13119037369876
 30
0.0
  0
VERTEX
  5
AA
  8
LAYER_1
 10
-44.34131461043778
 20
96.05586861031472
 30
0.0
  0
VERTEX
  5
AB
  8
LAYER_1
 10
-44.307709068325
 20
95.98975440375787
 30
0.0
  0
VERTEX
  5
AC
  8
LAYER_1
 10
-44.26543375812912
 20
95.93230520655408
 30
0.0
  0
VERTEX
  5
AD
  8
LAYER_1
 10
-44.21448867985013
 20
95.88352101870332
 30
0.0
  0
VERTEX
  5
AE
  8
LAYER_1
 10
-44.15487383348803
 20
95.84340184020559
 30
0.0
  0
VERTEX
  5
AF
  8
LAYER_1
 10
-44.15596254778445
 20
95.83547428205812
 30
0.0
  0
VERTEX
  5
B0
  8
LAYER_1
 10
-44.25968326796324
 20
95.79458257575286
 30
0.0
  0
VERTEX
  5
B1
  8
LAYER_1
 10
-44.35202902276164
 20
95.74206716059837
 30
0.0
  0
VERTEX
  5
B2
  8
LAYER_1
 10
-44.43299981217965
 20
95.67792803659462
 30
0.0
  0
VERTEX
  5
B3
  8
LAYER_1
 10
-44.50259563621728
 20
95.60216520374165
 30
0.0
  0
VERTEX
  5
B4
  8
LAYER_1
 10
-44.56039148465103
 20
95.51718439648822
 30
0.0
  0
VERTEX
  5
B5
  8
LAYER_1
 10
-44.60596228670018
 20
95.42539134096661
 30
0.0
  0
VERTEX
  5
B6
  8
LAYER_1
 10
-44.63930804236466
 20
95.32678603717682
 30
0.0
  0
VERTEX
  5
B7
  8
LAYER_1
 10
-44.66042875164453
 20
95.22136848511883
 30
0.0
  0
VERTEX
  5
B8
  8
LAYER_1
 10
-44.67288818733731
 20
95.05664621568926
 30
0.0
  0
VERTEX
  5
B9
  8
LAYER_1
 10
-44.65877715051907
 20
94.90614921471453
 30
0.0
  0
VERTEX
  5
BA
  8
LAYER_1
 10
-44.64024165651212
 20
94.83555404494788
 30
0.0
  0
VERTEX
  5
BB
  8
LAYER_1
 10
-44.61203144756499
 20
94.7671529023952
 30
0.0
  0
VERTEX
  5
BC
  8
LAYER_1
 10
-44.5741465236777
 20
94.7009457870565
 30
0.0
  0
VERTEX
  5
BD
  8
LAYER_1
 10
-44.52658688485025
 20
94.63693269893176
 30
0.0
  0
VERTEX
  5
BE
  8
LAYER_1
 10
-44.4646092343231
 20
94.57383705012991
 30
0.0
  0
VERTEX
  5
BF
  8
LAYER_1
 10
-44.39501171527186
 20
94.51916050165474
 30
0.0
  0
VERTEX
  5
C0
  8
LAYER_1
 10
-44.31779432769652
 20
94.47290305350624
 30
0.0
  0
VERTEX
  5
C1
  8
LAYER_1
 10
-44.23295707159708
 20
94.43506470568443
 30
0.0
  0
VERTEX
  5
C2
  8
LAYER_1
 10
-44.04589425802417
 20
94.37782395778088
 30
0.0
  0
VERTEX
  5
C3
  8
LAYER_1
 10
-43.83929457875143
 20
94.34061690470409
 30
0.0
  0
VERTEX
  5
C4
  8
LAYER_1
 10
-43.54043077104069
 20
94.3137071898221
 30
0.0
  0
VERTEX
  5
C5
  8
LAYER_1
 10
-43.26514001491712
 20
94.31426642313073
 30
0.0
  0
SEQEND
  5
137
  8
LAYER_1
  0
POLYLINE
  5
73
  8
LAYER_1
 66
     1
 10
0.0
 20
0.0
 30
0.0
 70
     1
  0
VERTEX
  5
C6
  8
LAYER_1
 10
-43.7339116481112
 20
94.75426299592408
 30
0.0
  0
VERTEX
  5
C7
  8
LAYER_1
 10
-43.79123849641532
 20
94.74949234435195
 30
0.0
  0
VERTEX
  5
C8
  8
LAYER_1
 10
-43.85925740999512
 20
94.75529357114743
 30
0.0
  0
VERTEX
  5
C9
  8
LAYER_1
 10
-43.93879993253136
 20
94.77701182298642
 30
0.0
  0
VERTEX
  5
CA
  8
LAYER_1
 10
-44.00444411774189
 20
94.80943356046859
 30
0.0
  0
VERTEX
  5
CB
  8
LAYER_1
 10
-44.0561899656267
 20
94.8525587835939
 30
0.0
  0
VERTEX
  5
CC
  8
LAYER_1
 10
-44.09403747618579
 20
94.90638749236244
 30
0.0
  0
VERTEX
  5
CD
  8
LAYER_1
 10
-44.11949104800985
 20
94.96894523017528
 30
0.0
  0
VERTEX
  5
CE
  8
LAYER_1
 10
-44.13405501913223
 20
95.03825753211707
 30
0.0
  0
VERTEX
  5
CF
  8
LAYER_1
 10
-44.13772938955296
 20
95.11432439818782
 30
0.0
  0
VERTEX
  5
D0
  8
LAYER_1
 10
-44.13051415927202
 20
95.19714582838752
 30
0.0
  0
VERTEX
  5
D1
  8
LAYER_1
 10
-44.11242434867737
 20
95.28223533183296
 30
0.0
  0
VERTEX
  5
D2
  8
LAYER_1
 10
-44.08396729916001
 20
95.35784068020754
 30
0.0
  0
VERTEX
  5
D3
  8
LAYER_1
 10
-44.04514301071994
 20
95.42396187351127
 30
0.0
  0
VERTEX
  5
D4
  8
LAYER_1
 10
-43.99595148335717
 20
95.48059891174414
 30
0.0
  0
VERTEX
  5
D5
  8
LAYER_1
 10
-43.93765278231791
 20
95.52479548596902
 30
0.0
  0
VERTEX
  5
D6
  8
LAYER_1
 10
-43.87150690397449
 20
95.55359533948963
 30
0.0
  0
VERTEX
  5
D7
  8
LAYER_1
 10
-43.79751384832696
 20
95.56699847230595
 30
0.0
  0
VERTEX
  5
D8
  8
LAYER_1
 10
-43.71567361537527
 20
95.565004884418
 30
0.0
  0
VERTEX
  5
D9
  8
LAYER_1
 10
-43.6242935954867
 20
95.55245540421126
 30
0.0
  0
SEQEND
  5
138
  8
LAYER_1
  0
POLYLINE
  5
74
  8
LAYER_1
 66
     1
 10
0.0
 20
0.0
 30
0.0
 70
     1
  0
VERTEX
  5
DA
  8
LAYER_1
 10
-46.3650468730959
 20
94.87613910768857
 30
0.0
  0
VERTEX
  5
DB
  8
LAYER_1
 10
-46.22531972668065
 20
94.84327449201952
 30
0.0
  0
VERTEX
  5
DC
  8
LAYER_1
 10
-46.09018968570864
 20
94.83605651401953
 30
0.0
  0
VERTEX
  5
DD
  8
LAYER_1
 10
-45.95965675017985
 20
94.85448517368866
 30
0.0
  0
VERTEX
  5
DE
  8
LAYER_1
 10
-45.83372092009429
 20
94.8985604710269
 30
0.0
  0
VERTEX
  5
DF
  8
LAYER_1
 10
-45.71349731270384
 20
94.96473243808292
 30
0.0
  0
VERTEX
  5
E0
  8
LAYER_1
 10
-45.60010098739058
 20
95.04945108722207
 30
0.0
  0
VERTEX
  5
E1
  8
LAYER_1
 10
-45.49353194415448
 20
95.15271641844431
 30
0.0
  0
VERTEX
  5
E2
  8
LAYER_1
 10
-45.39379018299559
 20
95.27452843174969
 30
0.0
  0
VERTEX
  5
E3
  8
LAYER_1
 10
-45.30199082616036
 20
95.4113371326386
 30
0.0
  0
VERTEX
  5
E4
  8
LAYER_1
 10
-45.21924891834212
 20
95.55959256479791
 30
0.0
  0
VERTEX
  5
E5
  8
LAYER_1
 10
-45.14556445954087
 20
95.71929472822767
 30
0.0
  0
VERTEX
  5
E6
  8
LAYER_1
 10
-45.0809374497566
 20
95.89044362292786
 30
0.0
  0
VERTEX
  5
E7
  8
LAYER_1
 10
-45.02626639766589
 20
96.06623797747959
 30
0.0
  0
VERTEX
  5
E8
  8
LAYER_1
 10
-44.98442752163107
 20
96.23823694415441
 30
0.0
  0
VERTEX
  5
E9
  8
LAYER_1
 10
-44.95542082165214
 20
96.40644052295235
 30
0.0
  0
VERTEX
  5
EA
  8
LAYER_1
 10
-44.93924629772909
 20
96.57084871387339
 30
0.0
  0
VERTEX
  5
EB
  8
LAYER_1
 10
-44.93801846527515
 20
96.7281043732929
 30
0.0
  0
VERTEX
  5
EC
  8
LAYER_1
 10
-44.95385182002015
 20
96.87485041545608
 30
0.0
  0
VERTEX
  5
ED
  8
LAYER_1
 10
-44.98674636196409
 20
97.01108684036295
 30
0.0
  0
VERTEX
  5
EE
  8
LAYER_1
 10
-45.03670209110698
 20
97.1368136480135
 30
0.0
  0
VERTEX
  5
EF
  8
LAYER_1
 10
-45.10583355302715
 20
97.24867370100789
 30
0.0
  0
VERTEX
  5
F0
  8
LAYER_1
 10
-45.19625521574976
 20
97.34330990013281
 30
0.0
  0
VERTEX
  5
F1
  8
LAYER_1
 10
-45.30796707927477
 20
97.42072224538823
 30
0.0
  0
VERTEX
  5
F2
  8
LAYER_1
 10
-45.44096914360222
 20
97.48091073677418
 30
0.0
  0
VERTEX
  5
F3
  8
LAYER_1
 10
-45.53252266048825
 20
97.50794680510865
 30
0.0
  0
VERTEX
  5
F4
  8
LAYER_1
 10
-45.62301342596211
 20
97.52322092734565
 30
0.0
  0
VERTEX
  5
F5
  8
LAYER_1
 10
-45.7124414400238
 20
97.52673310348518
 30
0.0
  0
VERTEX
  5
F6
  8
LAYER_1
 10
-45.80080670267331
 20
97.51848333352727
 30
0.0
  0
VERTEX
  5
F7
  8
LAYER_1
 10
-45.88810921391065
 20
97.49847161747192
 30
0.0
  0
VERTEX
  5
F8
  8
LAYER_1
 10
-45.97434897373581
 20
97.46669795531909
 30
0.0
  0
VERTEX
  5
F9
  8
LAYER_1
 10
-46.05952598214879
 20
97.4231623470688
 30
0.0
  0
VERTEX
  5
FA
  8
LAYER_1
 10
-46.1436402391496
 20
97.36786479272105
 30
0.0
  0
VERTEX
  5
FB
  8
LAYER_1
 10
-46.22590525592424
 20
97.29934073536381
 30
0.0
  0
VERTEX
  5
FC
  8
LAYER_1
 10
-46.30553450488209
 20
97.21612563717828
 30
0.0
  0
VERTEX
  5
FD
  8
LAYER_1
 10
-46.38252798602316
 20
97.11821949816446
 30
0.0
  0
VERTEX
  5
FE
  8
LAYER_1
 10
-46.45688569934744
 20
97.00562231832234
 30
0.0
  0
VERTEX
  5
FF
  8
LAYER_1
 10
-46.52860764485494
 20
96.87833409765193
 30
0.0
  0
VERTEX
  5
100
  8
LAYER_1
 10
-46.59769382254566
 20
96.7363548361532
 30
0.0
  0
VERTEX
  5
101
  8
LAYER_1
 10
-46.66414423241961
 20
96.5796845338262
 30
0.0
  0
VERTEX
  5
102
  8
LAYER_1
 10
-46.72795887447677
 20
96.4083231906709
 30
0.0
  0
VERTEX
  5
103
  8
LAYER_1
 10
-46.77528899388135
 20
96.2582829706225
 30
0.0
  0
VERTEX
  5
104
  8
LAYER_1
 10
-46.81299564443871
 20
96.1065752771649
 30
0.0
  0
VERTEX
  5
105
  8
LAYER_1
 10
-46.84107882614883
 20
95.9532001102981
 30
0.0
  0
VERTEX
  5
106
  8
LAYER_1
 10
-46.85953853901172
 20
95.79815747002209
 30
0.0
  0
VERTEX
  5
107
  8
LAYER_1
 10
-46.86467822883723
 20
95.64617675291478
 30
0.0
  0
VERTEX
  5
108
  8
LAYER_1
 10
-46.85280134143521
 20
95.50198735555412
 30
0.0
  0
VERTEX
  5
109
  8
LAYER_1
 10
-46.82390787680565
 20
95.36558927794006
 30
0.0
  0
VERTEX
  5
10A
  8
LAYER_1
 10
-46.77799783494855
 20
95.23698252007263
 30
0.0
  0
VERTEX
  5
10B
  8
LAYER_1
 10
-46.7113746519796
 20
95.12089648330303
 30
0.0
  0
VERTEX
  5
10C
  8
LAYER_1
 10
-46.62034176401451
 20
95.02206056898248
 30
0.0
  0
VERTEX
  5
10D
  8
LAYER_1
 10
-46.50489917105328
 20
94.94047477711099
 30
0.0
  0
SEQEND
  5
139
  8
LAYER_1
  0
POLYLINE
  5
75
  8
LAYER_1
 66
     1
 10
0.0
 20
0.0
 30
0.0
 70
     1
  0
VERTEX
  5
10E
  8
LAYER_1
 10
-46.19917377601902
 20
95.30156162180644
 30
0.0
  0
VERTEX
  5
10F
  8
LAYER_1
 10
-46.24879561272505
 20
95.3283445814022
 30
0.0
  0
VERTEX
  5
110
  8
LAYER_1
 10
-46.28764714246378
 20
95.3675121468772
 30
0.0
  0
VERTEX
  5
111
  8
LAYER_1
 10
-46.31572836523522
 20
95.41906431823145
 30
0.0
  0
VERTEX
  5
112
  8
LAYER_1
 10
-46.33303928103935
 20
95.48300109546493
 30
0.0
  0
VERTEX
  5
113
  8
LAYER_1
 10
-46.34104633308735
 20
95.55699968909558
 30
0.0
  0
VERTEX
  5
114
  8
LAYER_1
 10
-46.34121594490697
 20
95.63873736751111
 30
0.0
  0
VERTEX
  5
115
  8
LAYER_1
 10
-46.31804284786109
 20
95.82542997869689
 30
0.0
  0
VERTEX
  5
116
  8
LAYER_1
 10
-46.26938583419841
 20
96.03378794066776
 30
0.0
  0
VERTEX
  5
117
  8
LAYER_1
 10
-46.20111063247592
 20
96.25452022570249
 30
0.0
  0
VERTEX
  5
118
  8
LAYER_1
 10
-46.13319718186621
 20
96.4425652043363
 30
0.0
  0
VERTEX
  5
119
  8
LAYER_1
 10
-46.06303585725263
 20
96.60891467818072
 30
0.0
  0
VERTEX
  5
11A
  8
LAYER_1
 10
-45.99062665863518
 20
96.75356864723575
 30
0.0
  0
VERTEX
  5
11B
  8
LAYER_1
 10
-45.91596958601384
 20
96.8765271115014
 30
0.0
  0
VERTEX
  5
11C
  8
LAYER_1
 10
-45.83981339879542
 20
96.97179520053189
 30
0.0
  0
VERTEX
  5
11D
  8
LAYER_1
 10
-45.7629067788335
 20
97.03337808206786
 30
0.0
  0
VERTEX
  5
11E
  8
LAYER_1
 10
-45.72417205657371
 20
97.0515375700254
 30
0.0
  0
VERTEX
  5
11F
  8
LAYER_1
 10
-45.68524972612805
 20
97.06127575610932
 30
0.0
  0
VERTEX
  5
120
  8
LAYER_1
 10
-45.64613978749651
 20
97.06259264031962
 30
0.0
  0
VERTEX
  5
121
  8
LAYER_1
 10
-45.6068422406791
 20
97.05548822265631
 30
0.0
  0
VERTEX
  5
122
  8
LAYER_1
 10
-45.57129697521266
 20
97.03946739266314
 30
0.0
  0
VERTEX
  5
123
  8
LAYER_1
 10
-45.54033410447971
 20
97.01734207856454
 30
0.0
  0
VERTEX
  5
124
  8
LAYER_1
 10
-45.49215554721431
 20
96.95477799805097
 30
0.0
  0
VERTEX
  5
125
  8
LAYER_1
 10
-45.46230656888288
 20
96.86779598111559
 30
0.0
  0
VERTEX
  5
126
  8
LAYER_1
 10
-45.45078716948542
 20
96.75639602775841
 30
0.0
  0
VERTEX
  5
127
  8
LAYER_1
 10
-45.45795142299664
 20
96.62099617305398
 30
0.0
  0
VERTEX
  5
128
  8
LAYER_1
 10
-45.48415340339122
 20
96.46201445207677
 30
0.0
  0
VERTEX
  5
129
  8
LAYER_1
 10
-45.52939311066916
 20
96.27945086482686
 30
0.0
  0
VERTEX
  5
12A
  8
LAYER_1
 10
-45.59367054483047
 20
96.0733054113042
 30
0.0
  0
VERTEX
  5
12B
  8
LAYER_1
 10
-45.66564786237564
 20
95.87890561980564
 30
0.0
  0
VERTEX
  5
12C
  8
LAYER_1
 10
-45.73945687168861
 20
95.71121848561033
 30
0.0
  0
VERTEX
  5
12D
  8
LAYER_1
 10
-45.81509757276939
 20
95.57024400871832
 30
0.0
  0
VERTEX
  5
12E
  8
LAYER_1
 10
-45.89256996561797
 20
95.45598218912956
 30
0.0
  0
VERTEX
  5
12F
  8
LAYER_1
 10
-45.97052388281739
 20
95.37065178546902
 30
0.0
  0
VERTEX
  5
130
  8
LAYER_1
 10
-46.04760915695071
 20
95.31647155636165
 30
0.0
  0
VERTEX
  5
131
  8
LAYER_1
 10
-46.12382578801791
 20
95.29344150180746
 30
0.0
  0
VERTEX
  5
132
  8
LAYER_1
 10
-46.16160836240173
 20
95.2936077899878
 30
0.0
  0
SEQEND
  5
13A
  8
LAYER_1
  0
ENDSEC
  0
EOF
