  0
SECTION
  2
HEADER
  9
$ACADVER
  1
AC1009
  9
$DWGCODEPAGE
  3
ansi_1252
  9
$INSBASE
 10
0.0
 20
0.0
 30
0.0
  9
$EXTMIN
 10
-1.557535164099129
 20
-17.067
 30
0.0
  9
$EXTMAX
 10
1.557535164099129
 20
23.533
 30
0.0
  9
$LIMMIN
 10
0.0
 20
0.0
  9
$LIMMAX
 10
12.0
 20
9.0
  9
$ORTHOMODE
 70
     0
  9
$REGENMODE
 70
     1
  9
$FILLMODE
 70
     1
  9
$QTEXTMODE
 70
     0
  9
$MIRRTEXT
 70
     1
  9
$DRAGMODE
 70
     2
  9
$LTSCALE
 40
1.0
  9
$OSMODE
 70
    37
  9
$ATTMODE
 70
     1
  9
$TEXTSIZE
 40
0.2
  9
$TRACEWID
 40
0.05
  9
$TEXTSTYLE
  7
STANDARD
  9
$CLAYER
  8
0
  9
$CELTYPE
  6
BYLAYER
  9
$CECOLOR
 62
   256
  9
$DIMSCALE
 40
1.0
  9
$DIMASZ
 40
0.18
  9
$DIMEXO
 40
0.0625
  9
$DIMDLI
 40
0.38
  9
$DIMRND
 40
0.0
  9
$DIMDLE
 40
0.0
  9
$DIMEXE
 40
0.18
  9
$DIMTP
 40
0.0
  9
$DIMTM
 40
0.0
  9
$DIMTXT
 40
0.18
  9
$DIMCEN
 40
0.09
  9
$DIMTSZ
 40
0.0
  9
$DIMTOL
 70
     0
  9
$DIMLIM
 70
     0
  9
$DIMTIH
 70
     1
  9
$DIMTOH
 70
     1
  9
$DIMSE1
 70
     0
  9
$DIMSE2
 70
     0
  9
$DIMTAD
 70
     0
  9
$DIMZIN
 70
     0
  9
$DIMBLK
  1

  9
$DIMASO
 70
     1
  9
$DIMSHO
 70
     1
  9
$DIMPOST
  1

  9
$DIMAPOST
  1

  9
$DIMALT
 70
     0
  9
$DIMALTD
 70
     2
  9
$DIMALTF
 40
25.4
  9
$DIMLFAC
 40
1.0
  9
$DIMTOFL
 70
     0
  9
$DIMTVP
 40
0.0
  9
$DIMTIX
 70
     0
  9
$DIMSOXD
 70
     0
  9
$DIMSAH
 70
     0
  9
$DIMBLK1
  1

  9
$DIMBLK2
  1

  9
$DIMSTYLE
  2
STANDARD
  9
$DIMCLRD
 70
     0
  9
$DIMCLRE
 70
     0
  9
$DIMCLRT
 70
     0
  9
$DIMTFAC
 40
1.0
  9
$DIMGAP
 40
0.09
  9
$LUNITS
 70
     2
  9
$LUPREC
 70
     4
  9
$SKETCHINC
 40
0.1
  9
$FILLETRAD
 40
0.5
  9
$AUNITS
 70
     0
  9
$AUPREC
 70
     0
  9
$MENU
  1
.
  9
$ELEVATION
 40
0.0
  9
$PELEVATION
 40
0.0
  9
$THICKNESS
 40
0.0
  9
$LIMCHECK
 70
     0
  9
$CHAMFERA
 40
0.0
  9
$CHAMFERB
 40
0.0
  9
$SKPOLY
 70
     0
  9
$TDCREATE
 40
2454910.5
  9
$TDUPDATE
 40
2459029.559827303
  9
$TDINDWG
 40
0.0000000116
  9
$TDUSRTIMER
 40
0.0000000116
  9
$USRTIMER
 70
     1
  9
$ANGBASE
 50
0.0
  9
$ANGDIR
 70
     0
  9
$PDMODE
 70
     0
  9
$PDSIZE
 40
0.0
  9
$PLINEWID
 40
0.0
  9
$COORDS
 70
     1
  9
$SPLFRAME
 70
     0
  9
$SPLINETYPE
 70
     6
  9
$SPLINESEGS
 70
     8
  9
$ATTDIA
 70
     0
  9
$ATTREQ
 70
     1
  9
$HANDLING
 70
     1
  9
$HANDSEED
  5
1B2
  9
$SURFTAB1
 70
     6
  9
$SURFTAB2
 70
     6
  9
$SURFTYPE
 70
     6
  9
$SURFU
 70
     6
  9
$SURFV
 70
     6
  9
$UCSNAME
  2

  9
$UCSORG
 10
0.0
 20
0.0
 30
0.0
  9
$UCSXDIR
 10
1.0
 20
0.0
 30
0.0
  9
$UCSYDIR
 10
0.0
 20
1.0
 30
0.0
  9
$PUCSNAME
  2

  9
$PUCSORG
 10
0.0
 20
0.0
 30
0.0
  9
$PUCSXDIR
 10
1.0
 20
0.0
 30
0.0
  9
$PUCSYDIR
 10
0.0
 20
1.0
 30
0.0
  9
$USERI1
 70
     0
  9
$USERI2
 70
     0
  9
$USERI3
 70
     0
  9
$USERI4
 70
     0
  9
$USERI5
 70
     0
  9
$USERR1
 40
0.0
  9
$USERR2
 40
0.0
  9
$USERR3
 40
0.0
  9
$USERR4
 40
0.0
  9
$USERR5
 40
0.0
  9
$WORLDVIEW
 70
     1
  9
$SHADEDGE
 70
     3
  9
$SHADEDIF
 70
    70
  9
$TILEMODE
 70
     1
  9
$MAXACTVP
 70
    64
  9
$PLIMCHECK
 70
     0
  9
$PEXTMIN
 10
1.000000000000000E+20
 20
1.000000000000000E+20
 30
1.000000000000000E+20
  9
$PEXTMAX
 10
-1.000000000000000E+20
 20
-1.000000000000000E+20
 30
-1.000000000000000E+20
  9
$PLIMMIN
 10
0.0
 20
0.0
  9
$PLIMMAX
 10
12.0
 20
9.0
  9
$UNITMODE
 70
     0
  9
$VISRETAIN
 70
     1
  9
$PLINEGEN
 70
     0
  9
$PSLTSCALE
 70
     1
  0
ENDSEC
  0
SECTION
  2
TABLES
  0
TABLE
  2
VPORT
 70
     1
  0
VPORT
  2
*ACTIVE
 70
     0
 10
0.0
 20
0.0
 11
1.0
 21
1.0
 12
10.42990654205607
 22
4.5
 13
0.0
 23
0.0
 14
0.5
 24
0.5
 15
0.5
 25
0.5
 16
0.0
 26
0.0
 36
1.0
 17
0.0
 27
0.0
 37
0.0
 40
9.0
 41
1.972972972850329
 42
50.0
 43
0.0
 44
0.0
 50
0.0
 51
0.0
 71
     0
 72
   100
 73
     1
 74
     3
 75
     0
 76
     0
 77
     0
 78
     0
  0
ENDTAB
  0
TABLE
  2
LTYPE
 70
     2
  0
LTYPE
  2
CONTINUOUS
 70
     0
  3
Solid line
 72
    65
 73
     0
 40
0.0
  0
LTYPE
  2
CONTINUOUS2
 70
     0
  3
Solid Line
 72
    65
 73
     0
 40
0.0
  0
ENDTAB
  0
TABLE
  2
LAYER
 70
     2
  0
LAYER
  2
0
 70
     0
 62
     7
  6
CONTINUOUS
  0
LAYER
  2
HASH
 70
     0
 62
    18
  6
CONTINUOUS
  0
ENDTAB
  0
TABLE
  2
STYLE
 70
     1
  0
STYLE
  2
STANDARD
 70
     0
 40
0.0
 41
1.0
 50
0.0
 71
     0
 42
0.2
  3
txt
  4

  0
ENDTAB
  0
TABLE
  2
VIEW
 70
     0
  0
ENDTAB
  0
TABLE
  2
UCS
 70
     0
  0
ENDTAB
  0
TABLE
  2
APPID
 70
     1
  0
APPID
  2
ACAD
 70
     0
  0
ENDTAB
  0
TABLE
  2
DIMSTYLE
 70
     1
  0
DIMSTYLE
  2
STANDARD
 70
     0
  3

  4

  5

  6

  7

 40
1.0
 41
0.18
 42
0.0625
 43
0.38
 44
0.18
 45
0.0
 46
0.0
 47
0.0
 48
0.0
140
0.18
141
0.09
142
0.0
143
25.4
144
1.0
145
0.0
146
1.0
147
0.09
 71
     0
 72
     0
 73
     1
 74
     1
 75
     0
 76
     0
 77
     0
 78
     0
170
     0
171
     2
172
     0
173
     0
174
     0
175
     0
176
     0
177
     0
178
     0
  0
ENDTAB
  0
ENDSEC
  0
SECTION
  2
BLOCKS
  0
BLOCK
  8
0
  2
$MODEL_SPACE
 70
     0
 10
0.0
 20
0.0
 30
0.0
  3
$MODEL_SPACE
  1

  0
ENDBLK
  5
21
  8
0
  0
BLOCK
 67
     1
  8
0
  2
$PAPER_SPACE
 70
     0
 10
0.0
 20
0.0
 30
0.0
  3
$PAPER_SPACE
  1

  0
ENDBLK
  5
1D
 67
     1
  8
0
  0
ENDSEC
  0
SECTION
  2
ENTITIES
  0
POLYLINE
  5
70
  8
HASH
 66
     1
 10
0.0
 20
0.0
 30
0.0
 70
     1
  0
VERTEX
  5
85
  8
HASH
 10
-0.9949095780308107
 20
23.533
 30
0.0
  0
VERTEX
  5
86
  8
HASH
 10
0.9536503683858
 20
23.533
 30
0.0
  0
VERTEX
  5
87
  8
HASH
 10
0.9536503683858
 20
22.98725318151373
 30
0.0
  0
VERTEX
  5
88
  8
HASH
 10
-0.2728734092431348
 20
22.98725318151373
 30
0.0
  0
VERTEX
  5
89
  8
HASH
 10
-0.2728734092431348
 20
22.46588680509042
 30
0.0
  0
VERTEX
  5
8A
  8
HASH
 10
0.8805090421969187
 20
22.46588680509042
 30
0.0
  0
VERTEX
  5
8B
  8
HASH
 10
0.8805090421969187
 20
21.92013998660415
 30
0.0
  0
VERTEX
  5
8C
  8
HASH
 10
-0.2728734092431348
 20
21.92013998660415
 30
0.0
  0
VERTEX
  5
8D
  8
HASH
 10
-0.2728734092431348
 20
21.27874681848627
 30
0.0
  0
VERTEX
  5
8E
  8
HASH
 10
0.9949095780308103
 20
21.27874681848627
 30
0.0
  0
VERTEX
  5
8F
  8
HASH
 10
0.9949095780308103
 20
20.733
 30
0.0
  0
VERTEX
  5
90
  8
HASH
 10
-0.9949095780308107
 20
20.733
 30
0.0
  0
SEQEND
  5
1A4
  8
HASH
  0
POLYLINE
  5
71
  8
HASH
 66
     1
 10
0.0
 20
0.0
 30
0.0
 70
     1
  0
VERTEX
  5
91
  8
HASH
 10
-1.557535164099129
 20
19.333
 30
0.0
  0
VERTEX
  5
92
  8
HASH
 10
-0.6385800401875416
 20
19.333
 30
0.0
  0
VERTEX
  5
93
  8
HASH
 10
-0.0009377093101135
 20
17.83454052243805
 30
0.0
  0
VERTEX
  5
94
  8
HASH
 10
0.6404554588077698
 20
19.333
 30
0.0
  0
VERTEX
  5
95
  8
HASH
 10
1.557535164099129
 20
19.333
 30
0.0
  0
VERTEX
  5
96
  8
HASH
 10
1.557535164099129
 20
16.533
 30
0.0
  0
VERTEX
  5
97
  8
HASH
 10
0.8748827863362358
 20
16.533
 30
0.0
  0
VERTEX
  5
98
  8
HASH
 10
0.8748827863362358
 20
18.58095713328868
 30
0.0
  0
VERTEX
  5
99
  8
HASH
 10
0.2297387809778971
 20
17.07124514400536
 30
0.0
  0
VERTEX
  5
9A
  8
HASH
 10
-0.2278633623576688
 20
17.07124514400536
 30
0.0
  0
VERTEX
  5
9B
  8
HASH
 10
-0.8730073677160078
 20
18.58095713328868
 30
0.0
  0
VERTEX
  5
9C
  8
HASH
 10
-0.8730073677160078
 20
16.533
 30
0.0
  0
VERTEX
  5
9D
  8
HASH
 10
-1.557535164099129
 20
16.533
 30
0.0
  0
SEQEND
  5
1A5
  8
HASH
  0
POLYLINE
  5
72
  8
HASH
 66
     1
 10
0.0
 20
0.0
 30
0.0
 70
     1
  0
VERTEX
  5
9E
  8
HASH
 10
-0.9949095780308107
 20
15.133
 30
0.0
  0
VERTEX
  5
9F
  8
HASH
 10
0.9536503683858
 20
15.133
 30
0.0
  0
VERTEX
  5
A0
  8
HASH
 10
0.9536503683858
 20
14.58725318151373
 30
0.0
  0
VERTEX
  5
A1
  8
HASH
 10
-0.2728734092431348
 20
14.58725318151373
 30
0.0
  0
VERTEX
  5
A2
  8
HASH
 10
-0.2728734092431348
 20
14.06588680509042
 30
0.0
  0
VERTEX
  5
A3
  8
HASH
 10
0.8805090421969187
 20
14.06588680509042
 30
0.0
  0
VERTEX
  5
A4
  8
HASH
 10
0.8805090421969187
 20
13.52013998660416
 30
0.0
  0
VERTEX
  5
A5
  8
HASH
 10
-0.2728734092431348
 20
13.52013998660416
 30
0.0
  0
VERTEX
  5
A6
  8
HASH
 10
-0.2728734092431348
 20
12.87874681848627
 30
0.0
  0
VERTEX
  5
A7
  8
HASH
 10
0.9949095780308103
 20
12.87874681848627
 30
0.0
  0
VERTEX
  5
A8
  8
HASH
 10
0.9949095780308103
 20
12.333
 30
0.0
  0
VERTEX
  5
A9
  8
HASH
 10
-0.9949095780308107
 20
12.333
 30
0.0
  0
SEQEND
  5
1A6
  8
HASH
  0
POLYLINE
  5
73
  8
HASH
 66
     1
 10
0.0
 20
0.0
 30
0.0
 70
     1
  0
VERTEX
  5
AA
  8
HASH
 10
-0.5419959812458136
 20
9.19261152042867
 30
0.0
  0
VERTEX
  5
AB
  8
HASH
 10
-0.5419959812458136
 20
8.133000000000003
 30
0.0
  0
VERTEX
  5
AC
  8
HASH
 10
-1.264032150033489
 20
8.133000000000003
 30
0.0
  0
VERTEX
  5
AD
  8
HASH
 10
-1.264032150033489
 20
10.933
 30
0.0
  0
VERTEX
  5
AE
  8
HASH
 10
-0.1612860013395845
 20
10.933
 30
0.0
  0
VERTEX
  5
AF
  8
HASH
 10
0.0968770931011387
 20
10.92139584728734
 30
0.0
  0
VERTEX
  5
B0
  8
HASH
 10
0.3181178834561286
 20
10.88658338914937
 30
0.0
  0
VERTEX
  5
B1
  8
HASH
 10
0.4148924146014736
 20
10.86047404554589
 30
0.0
  0
VERTEX
  5
B2
  8
HASH
 10
0.5024363697253852
 20
10.82856262558607
 30
0.0
  0
VERTEX
  5
B3
  8
HASH
 10
0.5807497488278635
 20
10.79084912926993
 30
0.0
  0
VERTEX
  5
B4
  8
HASH
 10
0.6498325519089083
 20
10.74733355659746
 30
0.0
  0
VERTEX
  5
B5
  8
HASH
 10
0.7102708472873411
 20
10.6975470529136
 30
0.0
  0
VERTEX
  5
B6
  8
HASH
 10
0.7626507032819828
 20
10.6410207635633
 30
0.0
  0
VERTEX
  5
B7
  8
HASH
 10
0.8069721198928335
 20
10.57775468854655
 30
0.0
  0
VERTEX
  5
B8
  8
HASH
 10
0.843235097119893
 20
10.50774882786336
 30
0.0
  0
VERTEX
  5
B9
  8
HASH
 10
0.8714396349631615
 20
10.43100318151373
 30
0.0
  0
VERTEX
  5
BA
  8
HASH
 10
0.891585733422639
 20
10.34751774949766
 30
0.0
  0
VERTEX
  5
BB
  8
HASH
 10
0.9036733924983256
 20
10.25729253181514
 30
0.0
  0
VERTEX
  5
BC
  8
HASH
 10
0.9077026121902211
 20
10.16032752846618
 30
0.0
  0
VERTEX
  5
BD
  8
HASH
 10
0.8993218352310783
 20
10.02775887474883
 30
0.0
  0
VERTEX
  5
BE
  8
HASH
 10
0.8741795043536504
 20
9.907614869390493
 30
0.0
  0
VERTEX
  5
BF
  8
HASH
 10
0.8322756195579372
 20
9.799895512391162
 30
0.0
  0
VERTEX
  5
C0
  8
HASH
 10
0.7736101808439383
 20
9.70460080375084
 30
0.0
  0
VERTEX
  5
C1
  8
HASH
 10
0.6980659745478901
 20
9.621379102478233
 30
0.0
  0
VERTEX
  5
C2
  8
HASH
 10
0.6055257870060282
 20
9.549878767582051
 30
0.0
  0
VERTEX
  5
C3
  8
HASH
 10
0.4959896182183524
 20
9.490099799062294
 30
0.0
  0
VERTEX
  5
C4
  8
HASH
 10
0.3694574681848627
 20
9.442042196918958
 30
0.0
  0
VERTEX
  5
C5
  8
HASH
 10
0.4416024782317483
 20
9.419830207635636
 30
0.0
  0
VERTEX
  5
C6
  8
HASH
 10
0.509879437374414
 20
9.386951774949768
 30
0.0
  0
VERTEX
  5
C7
  8
HASH
 10
0.57428834561286
 20
9.343406898861355
 30
0.0
  0
VERTEX
  5
C8
  8
HASH
 10
0.6348292029470866
 20
9.289195579370398
 30
0.0
  0
VERTEX
  5
C9
  8
HASH
 10
0.6936118553248496
 20
9.22197354320161
 30
0.0
  0
VERTEX
  5
CA
  8
HASH
 10
0.7527461486939051
 20
9.139396517079707
 30
0.0
  0
VERTEX
  5
CB
  8
HASH
 10
0.8720696584058942
 20
8.928177494976559
 30
0.0
  0
VERTEX
  5
CC
  8
HASH
 10
1.264032150033489
 20
8.133000000000003
 30
0.0
  0
VERTEX
  5
CD
  8
HASH
 10
0.4951105157401207
 20
8.133000000000003
 30
0.0
  0
VERTEX
  5
CE
  8
HASH
 10
0.153784326858674
 20
8.82878030810449
 30
0.0
  0
VERTEX
  5
CF
  8
HASH
 10
0.1020344943067651
 20
8.925481580709985
 30
0.0
  0
VERTEX
  5
D0
  8
HASH
 10
0.0499330207635635
 20
9.005538513060955
 30
0.0
  0
VERTEX
  5
D1
  8
HASH
 10
-0.0025200937709309
 20
9.068951105157407
 30
0.0
  0
VERTEX
  5
D2
  8
HASH
 10
-0.055324849296718
 20
9.115719356999334
 30
0.0
  0
VERTEX
  5
D3
  8
HASH
 10
-0.1127009377093101
 20
9.149359678499668
 30
0.0
  0
VERTEX
  5
D4
  8
HASH
 10
-0.1788680509042196
 20
9.173388479571335
 30
0.0
  0
VERTEX
  5
D5
  8
HASH
 10
-0.2538261888814466
 20
9.187805760214337
 30
0.0
  0
VERTEX
  5
D6
  8
HASH
 10
-0.3375753516409912
 20
9.19261152042867
 30
0.0
  0
SEQEND
  5
1A7
  8
HASH
  0
POLYLINE
  5
74
  8
HASH
 66
     1
 10
0.0
 20
0.0
 30
0.0
 70
     1
  0
VERTEX
  5
D7
  8
HASH
 10
-0.2381781647689215
 20
9.691472873409246
 30
0.0
  0
VERTEX
  5
D8
  8
HASH
 10
-0.1327444742129939
 20
9.696747488278636
 30
0.0
  0
VERTEX
  5
D9
  8
HASH
 10
-0.0433690555927662
 20
9.712571332886808
 30
0.0
  0
VERTEX
  5
DA
  8
HASH
 10
0.0299480910917616
 20
9.73894440723376
 30
0.0
  0
VERTEX
  5
DB
  8
HASH
 10
0.0872069658405894
 20
9.775866711319493
 30
0.0
  0
VERTEX
  5
DC
  8
HASH
 10
0.1302829872739452
 20
9.824862022772942
 30
0.0
  0
VERTEX
  5
DD
  8
HASH
 10
0.1610515740120564
 20
9.887454119223042
 30
0.0
  0
VERTEX
  5
DE
  8
HASH
 10
0.1795127260549231
 20
9.963643000669794
 30
0.0
  0
VERTEX
  5
DF
  8
HASH
 10
0.1856664434025453
 20
10.0534286671132
 30
0.0
  0
VERTEX
  5
E0
  8
HASH
 10
0.1795127260549231
 20
10.14227662424648
 30
0.0
  0
VERTEX
  5
E1
  8
HASH
 10
0.1610515740120564
 20
10.21752779638312
 30
0.0
  0
VERTEX
  5
E2
  8
HASH
 10
0.1302829872739452
 20
10.27918218352311
 30
0.0
  0
VERTEX
  5
E3
  8
HASH
 10
0.0872069658405894
 20
10.32723978566645
 30
0.0
  0
VERTEX
  5
E4
  8
HASH
 10
0.0299480910917616
 20
10.36334159410583
 30
0.0
  0
VERTEX
  5
E5
  8
HASH
 10
-0.0433690555927662
 20
10.38912860013396
 30
0.0
  0
VERTEX
  5
E6
  8
HASH
 10
-0.1327444742129939
 20
10.40460080375084
 30
0.0
  0
VERTEX
  5
E7
  8
HASH
 10
-0.2381781647689215
 20
10.40975820495647
 30
0.0
  0
VERTEX
  5
E8
  8
HASH
 10
-0.5419959812458136
 20
10.40975820495647
 30
0.0
  0
VERTEX
  5
E9
  8
HASH
 10
-0.5419959812458136
 20
9.691472873409246
 30
0.0
  0
SEQEND
  5
1A8
  8
HASH
  0
POLYLINE
  5
75
  8
HASH
 66
     1
 10
0.0
 20
0.0
 30
0.0
 70
     1
  0
VERTEX
  5
EA
  8
HASH
 10
0.66483590087073
 20
1.23145947756196
 30
0.0
  0
VERTEX
  5
EB
  8
HASH
 10
0.7745478901540521
 20
1.190551908908243
 30
0.0
  0
VERTEX
  5
EC
  8
HASH
 10
0.8711319490957803
 20
1.135344273275289
 30
0.0
  0
VERTEX
  5
ED
  8
HASH
 10
0.9545880776959141
 20
1.065836570663099
 30
0.0
  0
VERTEX
  5
EE
  8
HASH
 10
1.024916275954454
 20
0.9820288010716718
 30
0.0
  0
VERTEX
  5
EF
  8
HASH
 10
1.080709979906229
 20
0.8859135967850007
 30
0.0
  0
VERTEX
  5
F0
  8
HASH
 10
1.120562625586068
 20
0.779483590087077
 30
0.0
  0
VERTEX
  5
F1
  8
HASH
 10
1.144474212993972
 20
0.6627387809779008
 30
0.0
  0
VERTEX
  5
F2
  8
HASH
 10
1.15244474212994
 20
0.5356791694574722
 30
0.0
  0
VERTEX
  5
F3
  8
HASH
 10
1.148166443402545
 20
0.4376299397186912
 30
0.0
  0
VERTEX
  5
F4
  8
HASH
 10
1.135331547220362
 20
0.3460274614869431
 30
0.0
  0
VERTEX
  5
F5
  8
HASH
 10
1.113940053583389
 20
0.2608717347622278
 30
0.0
  0
VERTEX
  5
F6
  8
HASH
 10
1.083991962491627
 20
0.1821627595445452
 30
0.0
  0
VERTEX
  5
F7
  8
HASH
 10
1.045487273945077
 20
0.1099005358338955
 30
0.0
  0
VERTEX
  5
F8
  8
HASH
 10
0.998425987943737
 20
0.0440850636302787
 30
0.0
  0
VERTEX
  5
F9
  8
HASH
 10
0.9428081044876084
 20
-0.0152836570663054
 30
0.0
  0
VERTEX
  5
FA
  8
HASH
 10
0.878633623576691
 20
-0.0682056262558566
 30
0.0
  0
VERTEX
  5
FB
  8
HASH
 10
0.805726724715338
 20
-0.1147980576021393
 30
0.0
  0
VERTEX
  5
FC
  8
HASH
 10
0.7239115874079034
 20
-0.1551781647689176
 30
0.0
  0
VERTEX
  5
FD
  8
HASH
 10
0.633188211654387
 20
-0.1893459477561915
 30
0.0
  0
VERTEX
  5
FE
  8
HASH
 10
0.533556597454789
 20
-0.2173014065639611
 30
0.0
  0
VERTEX
  5
FF
  8
HASH
 10
0.4250167448091092
 20
-0.2390445411922263
 30
0.0
  0
VERTEX
  5
100
  8
HASH
 10
0.3075686537173476
 20
-0.2545753516409872
 30
0.0
  0
VERTEX
  5
101
  8
HASH
 10
0.0459477561955792
 20
-0.2669999999999959
 30
0.0
  0
VERTEX
  5
102
  8
HASH
 10
-1.15244474212994
 20
-0.2669999999999959
 30
0.0
  0
VERTEX
  5
103
  8
HASH
 10
-1.15244474212994
 20
2.533000000000004
 30
0.0
  0
VERTEX
  5
104
  8
HASH
 10
-0.0684527796383123
 20
2.533000000000004
 30
0.0
  0
VERTEX
  5
105
  8
HASH
 10
0.2030726724715337
 20
2.521981915606166
 30
0.0
  0
VERTEX
  5
106
  8
HASH
 10
0.4343938379102478
 20
2.488927662424652
 30
0.0
  0
VERTEX
  5
107
  8
HASH
 10
0.5349778131279304
 20
2.464136972538517
 30
0.0
  0
VERTEX
  5
108
  8
HASH
 10
0.6255107166778299
 20
2.433837240455463
 30
0.0
  0
VERTEX
  5
109
  8
HASH
 10
0.7059925485599463
 20
2.39802846617549
 30
0.0
  0
VERTEX
  5
10A
  8
HASH
 10
0.7764233087742799
 20
2.356710649698597
 30
0.0
  0
VERTEX
  5
10B
  8
HASH
 10
0.8377407066309444
 20
2.309327026121906
 30
0.0
  0
VERTEX
  5
10C
  8
HASH
 10
0.8908824514400535
 20
2.255320830542535
 30
0.0
  0
VERTEX
  5
10D
  8
HASH
 10
0.9358485432016073
 20
2.194692062960486
 30
0.0
  0
VERTEX
  5
10E
  8
HASH
 10
0.9726389819156059
 20
2.127440723375757
 30
0.0
  0
VERTEX
  5
10F
  8
HASH
 10
1.001253767582049
 20
2.053566811788349
 30
0.0
  0
VERTEX
  5
110
  8
HASH
 10
1.021692900200938
 20
1.973070328198262
 30
0.0
  0
VERTEX
  5
111
  8
HASH
 10
1.03395637977227
 20
1.885951272605496
 30
0.0
  0
VERTEX
  5
112
  8
HASH
 10
1.038044206296048
 20
1.792209645010051
 30
0.0
  0
VERTEX
  5
113
  8
HASH
 10
1.032066309444072
 20
1.693808774279977
 30
0.0
  0
VERTEX
  5
114
  8
HASH
 10
1.014132618888145
 20
1.603026791694579
 30
0.0
  0
VERTEX
  5
115
  8
HASH
 10
0.984243134628265
 20
1.519863697253855
 30
0.0
  0
VERTEX
  5
116
  8
HASH
 10
0.9423978566644337
 20
1.444319490957807
 30
0.0
  0
VERTEX
  5
117
  8
HASH
 10
0.8891828533154719
 20
1.377214668452784
 30
0.0
  0
VERTEX
  5
118
  8
HASH
 10
0.8251841929002006
 20
1.319369725385135
 30
0.0
  0
VERTEX
  5
119
  8
HASH
 10
0.7504018754186199
 20
1.27078466175486
 30
0.0
  0
SEQEND
  5
1A9
  8
HASH
  0
POLYLINE
  5
76
  8
HASH
 66
     1
 10
0.0
 20
0.0
 30
0.0
 70
     1
  0
VERTEX
  5
11A
  8
HASH
 10
-0.0065639651707973
 20
0.2243596784996692
 30
0.0
  0
VERTEX
  5
11B
  8
HASH
 10
0.0954705291359677
 20
0.2301031480241166
 30
0.0
  0
VERTEX
  5
11C
  8
HASH
 10
0.1840254521098458
 20
0.2473335565974588
 30
0.0
  0
VERTEX
  5
11D
  8
HASH
 10
0.2591008037508371
 20
0.2760509042196959
 30
0.0
  0
VERTEX
  5
11E
  8
HASH
 10
0.3206965840589416
 20
0.3162551908908279
 30
0.0
  0
VERTEX
  5
11F
  8
HASH
 10
0.368695579370395
 20
0.3680636302746189
 30
0.0
  0
VERTEX
  5
120
  8
HASH
 10
0.4029805760214332
 20
0.4315934360348332
 30
0.0
  0
VERTEX
  5
121
  8
HASH
 10
0.4235515740120561
 20
0.5068446081714708
 30
0.0
  0
VERTEX
  5
122
  8
HASH
 10
0.4304085733422638
 20
0.5938171466845318
 30
0.0
  0
VERTEX
  5
123
  8
HASH
 10
0.4236101808439383
 20
0.6790900870730113
 30
0.0
  0
VERTEX
  5
124
  8
HASH
 10
0.4032150033489617
 20
0.7529933020763602
 30
0.0
  0
VERTEX
  5
125
  8
HASH
 10
0.369223040857334
 20
0.8155267916945785
 30
0.0
  0
VERTEX
  5
126
  8
HASH
 10
0.3216342933690555
 20
0.8666905559276663
 30
0.0
  0
VERTEX
  5
127
  8
HASH
 10
0.2603315472203615
 20
0.9064845947756237
 30
0.0
  0
VERTEX
  5
128
  8
HASH
 10
0.185197588747488
 20
0.9349089082384501
 30
0.0
  0
VERTEX
  5
129
  8
HASH
 10
0.0962324179504351
 20
0.9519634963161461
 30
0.0
  0
VERTEX
  5
12A
  8
HASH
 10
-0.0065639651707973
 20
0.9576483590087113
 30
0.0
  0
VERTEX
  5
12B
  8
HASH
 10
-0.430408573342264
 20
0.9576483590087113
 30
0.0
  0
VERTEX
  5
12C
  8
HASH
 10
-0.430408573342264
 20
0.2243596784996692
 30
0.0
  0
SEQEND
  5
1AA
  8
HASH
  0
POLYLINE
  5
77
  8
HASH
 66
     1
 10
0.0
 20
0.0
 30
0.0
 70
     1
  0
VERTEX
  5
12D
  8
HASH
 10
-0.0309444072337578
 20
1.449008037508376
 30
0.0
  0
VERTEX
  5
12E
  8
HASH
 10
0.0492297387809776
 20
1.453696584058946
 30
0.0
  0
VERTEX
  5
12F
  8
HASH
 10
0.1190890823844605
 20
1.467762223710654
 30
0.0
  0
VERTEX
  5
130
  8
HASH
 10
0.1786336235766909
 20
1.4912049564635
 30
0.0
  0
VERTEX
  5
131
  8
HASH
 10
0.2278633623576688
 20
1.524024782317485
 30
0.0
  0
VERTEX
  5
132
  8
HASH
 10
0.2664266577361017
 20
1.565987273945081
 30
0.0
  0
VERTEX
  5
133
  8
HASH
 10
0.2939718687206965
 20
1.616858004018758
 30
0.0
  0
VERTEX
  5
134
  8
HASH
 10
0.3104989953114534
 20
1.676636972538517
 30
0.0
  0
VERTEX
  5
135
  8
HASH
 10
0.3160080375083724
 20
1.745324179504358
 30
0.0
  0
VERTEX
  5
136
  8
HASH
 10
0.3104989953114534
 20
1.813249497655731
 30
0.0
  0
VERTEX
  5
137
  8
HASH
 10
0.2939718687206965
 20
1.872618218352315
 30
0.0
  0
VERTEX
  5
138
  8
HASH
 10
0.2664266577361017
 20
1.92343034159411
 30
0.0
  0
VERTEX
  5
139
  8
HASH
 10
0.2278633623576688
 20
1.965685867381116
 30
0.0
  0
VERTEX
  5
13A
  8
HASH
 10
0.1786336235766909
 20
1.998915941058276
 30
0.0
  0
VERTEX
  5
13B
  8
HASH
 10
0.1190890823844605
 20
2.022651707970533
 30
0.0
  0
VERTEX
  5
13C
  8
HASH
 10
0.0492297387809776
 20
2.036893168117887
 30
0.0
  0
VERTEX
  5
13D
  8
HASH
 10
-0.0309444072337578
 20
2.041640321500339
 30
0.0
  0
VERTEX
  5
13E
  8
HASH
 10
-0.430408573342264
 20
2.041640321500339
 30
0.0
  0
VERTEX
  5
13F
  8
HASH
 10
-0.430408573342264
 20
1.449008037508376
 30
0.0
  0
SEQEND
  5
1AB
  8
HASH
  0
POLYLINE
  5
78
  8
HASH
 66
     1
 10
0.0
 20
0.0
 30
0.0
 70
     1
  0
VERTEX
  5
140
  8
HASH
 10
-0.2381781647689215
 20
-2.908527126590752
 30
0.0
  0
VERTEX
  5
141
  8
HASH
 10
-0.1327444742129939
 20
-2.903252511721362
 30
0.0
  0
VERTEX
  5
142
  8
HASH
 10
-0.0433690555927662
 20
-2.88742866711319
 30
0.0
  0
VERTEX
  5
143
  8
HASH
 10
0.0299480910917616
 20
-2.861055592766238
 30
0.0
  0
VERTEX
  5
144
  8
HASH
 10
0.0872069658405894
 20
-2.824133288680504
 30
0.0
  0
VERTEX
  5
145
  8
HASH
 10
0.1302829872739452
 20
-2.775137977227055
 30
0.0
  0
VERTEX
  5
146
  8
HASH
 10
0.1610515740120564
 20
-2.712545880776955
 30
0.0
  0
VERTEX
  5
147
  8
HASH
 10
0.1795127260549231
 20
-2.636356999330203
 30
0.0
  0
VERTEX
  5
148
  8
HASH
 10
0.1856664434025453
 20
-2.5465713328868
 30
0.0
  0
VERTEX
  5
149
  8
HASH
 10
0.1795127260549231
 20
-2.457723375753512
 30
0.0
  0
VERTEX
  5
14A
  8
HASH
 10
0.1610515740120564
 20
-2.382472203616874
 30
0.0
  0
VERTEX
  5
14B
  8
HASH
 10
0.1302829872739452
 20
-2.320817816476888
 30
0.0
  0
VERTEX
  5
14C
  8
HASH
 10
0.0872069658405894
 20
-2.272760214333552
 30
0.0
  0
VERTEX
  5
14D
  8
HASH
 10
0.0299480910917616
 20
-2.236658405894168
 30
0.0
  0
VERTEX
  5
14E
  8
HASH
 10
-0.0433690555927662
 20
-2.210871399866037
 30
0.0
  0
VERTEX
  5
14F
  8
HASH
 10
-0.1327444742129939
 20
-2.195399196249158
 30
0.0
  0
VERTEX
  5
150
  8
HASH
 10
-0.2381781647689215
 20
-2.190241795043532
 30
0.0
  0
VERTEX
  5
151
  8
HASH
 10
-0.5419959812458136
 20
-2.190241795043532
 30
0.0
  0
VERTEX
  5
152
  8
HASH
 10
-0.5419959812458136
 20
-2.908527126590752
 30
0.0
  0
SEQEND
  5
1AC
  8
HASH
  0
POLYLINE
  5
79
  8
HASH
 66
     1
 10
0.0
 20
0.0
 30
0.0
 70
     1
  0
VERTEX
  5
153
  8
HASH
 10
-0.5419959812458136
 20
-3.407388479571329
 30
0.0
  0
VERTEX
  5
154
  8
HASH
 10
-0.5419959812458136
 20
-4.466999999999995
 30
0.0
  0
VERTEX
  5
155
  8
HASH
 10
-1.264032150033489
 20
-4.466999999999995
 30
0.0
  0
VERTEX
  5
156
  8
HASH
 10
-1.264032150033489
 20
-1.666999999999995
 30
0.0
  0
VERTEX
  5
157
  8
HASH
 10
-0.1612860013395845
 20
-1.666999999999995
 30
0.0
  0
VERTEX
  5
158
  8
HASH
 10
0.0968770931011387
 20
-1.678604152712655
 30
0.0
  0
VERTEX
  5
159
  8
HASH
 10
0.3181178834561286
 20
-1.713416610850632
 30
0.0
  0
VERTEX
  5
15A
  8
HASH
 10
0.4148924146014736
 20
-1.739525954454115
 30
0.0
  0
VERTEX
  5
15B
  8
HASH
 10
0.5024363697253852
 20
-1.771437374413927
 30
0.0
  0
VERTEX
  5
15C
  8
HASH
 10
0.5807497488278635
 20
-1.809150870730069
 30
0.0
  0
VERTEX
  5
15D
  8
HASH
 10
0.6498325519089083
 20
-1.852666443402541
 30
0.0
  0
VERTEX
  5
15E
  8
HASH
 10
0.7102708472873411
 20
-1.902452947086399
 30
0.0
  0
VERTEX
  5
15F
  8
HASH
 10
0.7626507032819828
 20
-1.9589792364367
 30
0.0
  0
VERTEX
  5
160
  8
HASH
 10
0.8069721198928335
 20
-2.022245311453445
 30
0.0
  0
VERTEX
  5
161
  8
HASH
 10
0.843235097119893
 20
-2.092251172136633
 30
0.0
  0
VERTEX
  5
162
  8
HASH
 10
0.8714396349631615
 20
-2.168996818486264
 30
0.0
  0
VERTEX
  5
163
  8
HASH
 10
0.891585733422639
 20
-2.252482250502339
 30
0.0
  0
VERTEX
  5
164
  8
HASH
 10
0.9036733924983256
 20
-2.342707468184858
 30
0.0
  0
VERTEX
  5
165
  8
HASH
 10
0.9077026121902211
 20
-2.43967247153382
 30
0.0
  0
VERTEX
  5
166
  8
HASH
 10
0.8993218352310783
 20
-2.572241125251168
 30
0.0
  0
VERTEX
  5
167
  8
HASH
 10
0.8741795043536504
 20
-2.692385130609507
 30
0.0
  0
VERTEX
  5
168
  8
HASH
 10
0.8322756195579372
 20
-2.800104487608837
 30
0.0
  0
VERTEX
  5
169
  8
HASH
 10
0.7736101808439383
 20
-2.895399196249158
 30
0.0
  0
VERTEX
  5
16A
  8
HASH
 10
0.6980659745478901
 20
-2.978620897521764
 30
0.0
  0
VERTEX
  5
16B
  8
HASH
 10
0.6055257870060282
 20
-3.050121232417946
 30
0.0
  0
VERTEX
  5
16C
  8
HASH
 10
0.4959896182183524
 20
-3.109900200937705
 30
0.0
  0
VERTEX
  5
16D
  8
HASH
 10
0.3694574681848627
 20
-3.15795780308104
 30
0.0
  0
VERTEX
  5
16E
  8
HASH
 10
0.4416024782317483
 20
-3.180169792364363
 30
0.0
  0
VERTEX
  5
16F
  8
HASH
 10
0.509879437374414
 20
-3.21304822505023
 30
0.0
  0
VERTEX
  5
170
  8
HASH
 10
0.57428834561286
 20
-3.256593101138642
 30
0.0
  0
VERTEX
  5
171
  8
HASH
 10
0.6348292029470866
 20
-3.3108044206296
 30
0.0
  0
VERTEX
  5
172
  8
HASH
 10
0.6936118553248496
 20
-3.378026456798388
 30
0.0
  0
VERTEX
  5
173
  8
HASH
 10
0.7527461486939051
 20
-3.46060348292029
 30
0.0
  0
VERTEX
  5
174
  8
HASH
 10
0.8720696584058942
 20
-3.671822505023438
 30
0.0
  0
VERTEX
  5
175
  8
HASH
 10
1.264032150033489
 20
-4.466999999999995
 30
0.0
  0
VERTEX
  5
176
  8
HASH
 10
0.4951105157401207
 20
-4.466999999999995
 30
0.0
  0
VERTEX
  5
177
  8
HASH
 10
0.153784326858674
 20
-3.771219691895507
 30
0.0
  0
VERTEX
  5
178
  8
HASH
 10
0.1020344943067651
 20
-3.674518419290015
 30
0.0
  0
VERTEX
  5
179
  8
HASH
 10
0.0499330207635635
 20
-3.594461486939044
 30
0.0
  0
VERTEX
  5
17A
  8
HASH
 10
-0.0025200937709309
 20
-3.531048894842594
 30
0.0
  0
VERTEX
  5
17B
  8
HASH
 10
-0.055324849296718
 20
-3.484280643000665
 30
0.0
  0
VERTEX
  5
17C
  8
HASH
 10
-0.1127009377093101
 20
-3.45064032150033
 30
0.0
  0
VERTEX
  5
17D
  8
HASH
 10
-0.1788680509042196
 20
-3.426611520428663
 30
0.0
  0
VERTEX
  5
17E
  8
HASH
 10
-0.2538261888814466
 20
-3.412194239785662
 30
0.0
  0
VERTEX
  5
17F
  8
HASH
 10
-0.3375753516409912
 20
-3.407388479571329
 30
0.0
  0
SEQEND
  5
1AD
  8
HASH
  0
POLYLINE
  5
7A
  8
HASH
 66
     1
 10
0.0
 20
0.0
 30
0.0
 70
     1
  0
VERTEX
  5
180
  8
HASH
 10
-0.3835231078365707
 20
-7.637395177494971
 30
0.0
  0
VERTEX
  5
181
  8
HASH
 10
0.3835231078365705
 20
-7.637395177494971
 30
0.0
  0
VERTEX
  5
182
  8
HASH
 10
0.0009377093101139
 20
-6.5233965170797
 30
0.0
  0
SEQEND
  5
1AE
  8
HASH
  0
POLYLINE
  5
7B
  8
HASH
 66
     1
 10
0.0
 20
0.0
 30
0.0
 70
     1
  0
VERTEX
  5
183
  8
HASH
 10
0.5654387139986604
 20
-8.156886135298052
 30
0.0
  0
VERTEX
  5
184
  8
HASH
 10
-0.5635632953784327
 20
-8.156886135298052
 30
0.0
  0
VERTEX
  5
185
  8
HASH
 10
-0.741728064300067
 20
-8.666999999999994
 30
0.0
  0
VERTEX
  5
186
  8
HASH
 10
-1.467515070328198
 20
-8.666999999999994
 30
0.0
  0
VERTEX
  5
187
  8
HASH
 10
-0.4304085733422638
 20
-5.866999999999995
 30
0.0
  0
VERTEX
  5
188
  8
HASH
 10
0.4304085733422638
 20
-5.866999999999995
 30
0.0
  0
VERTEX
  5
189
  8
HASH
 10
1.467515070328198
 20
-8.666999999999994
 30
0.0
  0
VERTEX
  5
18A
  8
HASH
 10
0.741728064300067
 20
-8.666999999999994
 30
0.0
  0
SEQEND
  5
1AF
  8
HASH
  0
POLYLINE
  5
7C
  8
HASH
 66
     1
 10
0.0
 20
0.0
 30
0.0
 70
     1
  0
VERTEX
  5
18B
  8
HASH
 10
-1.369993302076356
 20
-10.06699999999999
 30
0.0
  0
VERTEX
  5
18C
  8
HASH
 10
-0.6479571332886804
 20
-10.06699999999999
 30
0.0
  0
VERTEX
  5
18D
  8
HASH
 10
-0.6479571332886804
 20
-11.08910314802411
 30
0.0
  0
VERTEX
  5
18E
  8
HASH
 10
0.3929002009377094
 20
-10.06699999999999
 30
0.0
  0
VERTEX
  5
18F
  8
HASH
 10
1.231212324179505
 20
-10.06699999999999
 30
0.0
  0
VERTEX
  5
190
  8
HASH
 10
-0.117213663764233
 20
-11.392920964501
 30
0.0
  0
VERTEX
  5
191
  8
HASH
 10
1.369993302076356
 20
-12.86699999999999
 30
0.0
  0
VERTEX
  5
192
  8
HASH
 10
0.4660415271265906
 20
-12.86699999999999
 30
0.0
  0
VERTEX
  5
193
  8
HASH
 10
-0.6479571332886804
 20
-11.76425385130609
 30
0.0
  0
VERTEX
  5
194
  8
HASH
 10
-0.6479571332886804
 20
-12.86699999999999
 30
0.0
  0
VERTEX
  5
195
  8
HASH
 10
-1.369993302076356
 20
-12.86699999999999
 30
0.0
  0
SEQEND
  5
1B0
  8
HASH
  0
POLYLINE
  5
7D
  8
HASH
 66
     1
 10
0.0
 20
0.0
 30
0.0
 70
     1
  0
VERTEX
  5
196
  8
HASH
 10
-0.9949095780308107
 20
-14.267
 30
0.0
  0
VERTEX
  5
197
  8
HASH
 10
0.9536503683858
 20
-14.267
 30
0.0
  0
VERTEX
  5
198
  8
HASH
 10
0.9536503683858
 20
-14.81274681848627
 30
0.0
  0
VERTEX
  5
199
  8
HASH
 10
-0.2728734092431348
 20
-14.81274681848627
 30
0.0
  0
VERTEX
  5
19A
  8
HASH
 10
-0.2728734092431348
 20
-15.33411319490958
 30
0.0
  0
VERTEX
  5
19B
  8
HASH
 10
0.8805090421969187
 20
-15.33411319490958
 30
0.0
  0
VERTEX
  5
19C
  8
HASH
 10
0.8805090421969187
 20
-15.87986001339584
 30
0.0
  0
VERTEX
  5
19D
  8
HASH
 10
-0.2728734092431348
 20
-15.87986001339584
 30
0.0
  0
VERTEX
  5
19E
  8
HASH
 10
-0.2728734092431348
 20
-16.52125318151373
 30
0.0
  0
VERTEX
  5
19F
  8
HASH
 10
0.9949095780308103
 20
-16.52125318151373
 30
0.0
  0
VERTEX
  5
1A0
  8
HASH
 10
0.9949095780308103
 20
-17.067
 30
0.0
  0
VERTEX
  5
1A1
  8
HASH
 10
-0.9949095780308107
 20
-17.067
 30
0.0
  0
SEQEND
  5
1B1
  8
HASH
  0
ENDSEC
  0
EOF
