  0
SECTION
  2
HEADER
  9
$ACADVER
  1
AC1009
  9
$DWGCODEPAGE
  3
ansi_1252
  9
$INSBASE
 10
0.0
 20
0.0
 30
0.0
  9
$EXTMIN
 10
-1.315264191789609
 20
-16.902
 30
0.0
  9
$EXTMAX
 10
1.315264191789608
 20
23.698
 30
0.0
  9
$LIMMIN
 10
0.0
 20
0.0
  9
$LIMMAX
 10
12.0
 20
9.0
  9
$ORTHOMODE
 70
     0
  9
$REGENMODE
 70
     1
  9
$FILLMODE
 70
     1
  9
$QTEXTMODE
 70
     0
  9
$MIRRTEXT
 70
     1
  9
$DRAGMODE
 70
     2
  9
$LTSCALE
 40
1.0
  9
$OSMODE
 70
    37
  9
$ATTMODE
 70
     1
  9
$TEXTSIZE
 40
0.2
  9
$TRACEWID
 40
0.05
  9
$TEXTSTYLE
  7
STANDARD
  9
$CLAYER
  8
0
  9
$CELTYPE
  6
BYLAYER
  9
$CECOLOR
 62
   256
  9
$DIMSCALE
 40
1.0
  9
$DIMASZ
 40
0.18
  9
$DIMEXO
 40
0.0625
  9
$DIMDLI
 40
0.38
  9
$DIMRND
 40
0.0
  9
$DIMDLE
 40
0.0
  9
$DIMEXE
 40
0.18
  9
$DIMTP
 40
0.0
  9
$DIMTM
 40
0.0
  9
$DIMTXT
 40
0.18
  9
$DIMCEN
 40
0.09
  9
$DIMTSZ
 40
0.0
  9
$DIMTOL
 70
     0
  9
$DIMLIM
 70
     0
  9
$DIMTIH
 70
     1
  9
$DIMTOH
 70
     1
  9
$DIMSE1
 70
     0
  9
$DIMSE2
 70
     0
  9
$DIMTAD
 70
     0
  9
$DIMZIN
 70
     0
  9
$DIMBLK
  1

  9
$DIMASO
 70
     1
  9
$DIMSHO
 70
     1
  9
$DIMPOST
  1

  9
$DIMAPOST
  1

  9
$DIMALT
 70
     0
  9
$DIMALTD
 70
     2
  9
$DIMALTF
 40
25.4
  9
$DIMLFAC
 40
1.0
  9
$DIMTOFL
 70
     0
  9
$DIMTVP
 40
0.0
  9
$DIMTIX
 70
     0
  9
$DIMSOXD
 70
     0
  9
$DIMSAH
 70
     0
  9
$DIMBLK1
  1

  9
$DIMBLK2
  1

  9
$DIMSTYLE
  2
STANDARD
  9
$DIMCLRD
 70
     0
  9
$DIMCLRE
 70
     0
  9
$DIMCLRT
 70
     0
  9
$DIMTFAC
 40
1.0
  9
$DIMGAP
 40
0.09
  9
$LUNITS
 70
     2
  9
$LUPREC
 70
     4
  9
$SKETCHINC
 40
0.1
  9
$FILLETRAD
 40
0.5
  9
$AUNITS
 70
     0
  9
$AUPREC
 70
     0
  9
$MENU
  1
.
  9
$ELEVATION
 40
0.0
  9
$PELEVATION
 40
0.0
  9
$THICKNESS
 40
0.0
  9
$LIMCHECK
 70
     0
  9
$CHAMFERA
 40
0.0
  9
$CHAMFERB
 40
0.0
  9
$SKPOLY
 70
     0
  9
$TDCREATE
 40
2454910.5
  9
$TDUPDATE
 40
2459029.536520579
  9
$TDINDWG
 40
0.0000000116
  9
$TDUSRTIMER
 40
0.0000000116
  9
$USRTIMER
 70
     1
  9
$ANGBASE
 50
0.0
  9
$ANGDIR
 70
     0
  9
$PDMODE
 70
     0
  9
$PDSIZE
 40
0.0
  9
$PLINEWID
 40
0.0
  9
$COORDS
 70
     1
  9
$SPLFRAME
 70
     0
  9
$SPLINETYPE
 70
     6
  9
$SPLINESEGS
 70
     8
  9
$ATTDIA
 70
     0
  9
$ATTREQ
 70
     1
  9
$HANDLING
 70
     1
  9
$HANDSEED
  5
1B6
  9
$SURFTAB1
 70
     6
  9
$SURFTAB2
 70
     6
  9
$SURFTYPE
 70
     6
  9
$SURFU
 70
     6
  9
$SURFV
 70
     6
  9
$UCSNAME
  2

  9
$UCSORG
 10
0.0
 20
0.0
 30
0.0
  9
$UCSXDIR
 10
1.0
 20
0.0
 30
0.0
  9
$UCSYDIR
 10
0.0
 20
1.0
 30
0.0
  9
$PUCSNAME
  2

  9
$PUCSORG
 10
0.0
 20
0.0
 30
0.0
  9
$PUCSXDIR
 10
1.0
 20
0.0
 30
0.0
  9
$PUCSYDIR
 10
0.0
 20
1.0
 30
0.0
  9
$USERI1
 70
     0
  9
$USERI2
 70
     0
  9
$USERI3
 70
     0
  9
$USERI4
 70
     0
  9
$USERI5
 70
     0
  9
$USERR1
 40
0.0
  9
$USERR2
 40
0.0
  9
$USERR3
 40
0.0
  9
$USERR4
 40
0.0
  9
$USERR5
 40
0.0
  9
$WORLDVIEW
 70
     1
  9
$SHADEDGE
 70
     3
  9
$SHADEDIF
 70
    70
  9
$TILEMODE
 70
     1
  9
$MAXACTVP
 70
    64
  9
$PLIMCHECK
 70
     0
  9
$PEXTMIN
 10
1.000000000000000E+20
 20
1.000000000000000E+20
 30
1.000000000000000E+20
  9
$PEXTMAX
 10
-1.000000000000000E+20
 20
-1.000000000000000E+20
 30
-1.000000000000000E+20
  9
$PLIMMIN
 10
0.0
 20
0.0
  9
$PLIMMAX
 10
12.0
 20
9.0
  9
$UNITMODE
 70
     0
  9
$VISRETAIN
 70
     1
  9
$PLINEGEN
 70
     0
  9
$PSLTSCALE
 70
     1
  0
ENDSEC
  0
SECTION
  2
TABLES
  0
TABLE
  2
VPORT
 70
     1
  0
VPORT
  2
*ACTIVE
 70
     0
 10
0.0
 20
0.0
 11
1.0
 21
1.0
 12
10.42990654205607
 22
4.5
 13
0.0
 23
0.0
 14
0.5
 24
0.5
 15
0.5
 25
0.5
 16
0.0
 26
0.0
 36
1.0
 17
0.0
 27
0.0
 37
0.0
 40
9.0
 41
1.972972972850329
 42
50.0
 43
0.0
 44
0.0
 50
0.0
 51
0.0
 71
     0
 72
   100
 73
     1
 74
     3
 75
     0
 76
     0
 77
     0
 78
     0
  0
ENDTAB
  0
TABLE
  2
LTYPE
 70
     2
  0
LTYPE
  2
CONTINUOUS
 70
     0
  3
Solid line
 72
    65
 73
     0
 40
0.0
  0
LTYPE
  2
CONTINUOUS2
 70
     0
  3
Solid Line
 72
    65
 73
     0
 40
0.0
  0
ENDTAB
  0
TABLE
  2
LAYER
 70
     2
  0
LAYER
  2
0
 70
     0
 62
     7
  6
CONTINUOUS
  0
LAYER
  2
TEXT
 70
     0
 62
    18
  6
CONTINUOUS
  0
ENDTAB
  0
TABLE
  2
STYLE
 70
     1
  0
STYLE
  2
STANDARD
 70
     0
 40
0.0
 41
1.0
 50
0.0
 71
     0
 42
0.2
  3
txt
  4

  0
ENDTAB
  0
TABLE
  2
VIEW
 70
     0
  0
ENDTAB
  0
TABLE
  2
UCS
 70
     0
  0
ENDTAB
  0
TABLE
  2
APPID
 70
     1
  0
APPID
  2
ACAD
 70
     0
  0
ENDTAB
  0
TABLE
  2
DIMSTYLE
 70
     1
  0
DIMSTYLE
  2
STANDARD
 70
     0
  3

  4

  5

  6

  7

 40
1.0
 41
0.18
 42
0.0625
 43
0.38
 44
0.18
 45
0.0
 46
0.0
 47
0.0
 48
0.0
140
0.18
141
0.09
142
0.0
143
25.4
144
1.0
145
0.0
146
1.0
147
0.09
 71
     0
 72
     0
 73
     1
 74
     1
 75
     0
 76
     0
 77
     0
 78
     0
170
     0
171
     2
172
     0
173
     0
174
     0
175
     0
176
     0
177
     0
178
     0
  0
ENDTAB
  0
ENDSEC
  0
SECTION
  2
BLOCKS
  0
BLOCK
  8
0
  2
$MODEL_SPACE
 70
     0
 10
0.0
 20
0.0
 30
0.0
  3
$MODEL_SPACE
  1

  0
ENDBLK
  5
21
  8
0
  0
BLOCK
 67
     1
  8
0
  2
$PAPER_SPACE
 70
     0
 10
0.0
 20
0.0
 30
0.0
  3
$PAPER_SPACE
  1

  0
ENDBLK
  5
1D
 67
     1
  8
0
  0
ENDSEC
  0
SECTION
  2
ENTITIES
  0
POLYLINE
  5
70
  8
TEXT
 66
     1
 10
0.0
 20
0.0
 30
0.0
 70
     1
  0
VERTEX
  5
85
  8
TEXT
 10
-0.7077453495830659
 20
20.898
 30
0.0
  0
VERTEX
  5
86
  8
TEXT
 10
-0.7077453495830659
 20
23.698
 30
0.0
  0
VERTEX
  5
87
  8
TEXT
 10
0.646119307248236
 20
23.698
 30
0.0
  0
VERTEX
  5
88
  8
TEXT
 10
0.646119307248236
 20
23.44655676715843
 30
0.0
  0
VERTEX
  5
89
  8
TEXT
 10
-0.4386225144323282
 20
23.44655676715843
 30
0.0
  0
VERTEX
  5
8A
  8
TEXT
 10
-0.4386225144323282
 20
22.435395766517
 30
0.0
  0
VERTEX
  5
8B
  8
TEXT
 10
0.56686978832585
 20
22.435395766517
 30
0.0
  0
VERTEX
  5
8C
  8
TEXT
 10
0.56686978832585
 20
22.18574855676716
 30
0.0
  0
VERTEX
  5
8D
  8
TEXT
 10
-0.4386225144323282
 20
22.18574855676716
 30
0.0
  0
VERTEX
  5
8E
  8
TEXT
 10
-0.4386225144323282
 20
21.14585118665811
 30
0.0
  0
VERTEX
  5
8F
  8
TEXT
 10
0.707745349583066
 20
21.14585118665811
 30
0.0
  0
VERTEX
  5
90
  8
TEXT
 10
0.707745349583066
 20
20.898
 30
0.0
  0
SEQEND
  5
1A8
  8
TEXT
  0
POLYLINE
  5
71
  8
TEXT
 66
     1
 10
0.0
 20
0.0
 30
0.0
 70
     1
  0
VERTEX
  5
91
  8
TEXT
 10
1.05321319756254
 20
16.698
 30
0.0
  0
VERTEX
  5
92
  8
TEXT
 10
1.05321319756254
 20
18.66596423989737
 30
0.0
  0
VERTEX
  5
93
  8
TEXT
 10
1.074344531751122
 20
19.03698332264272
 30
0.0
  0
VERTEX
  5
94
  8
TEXT
 10
1.12926355035279
 20
19.03698332264272
 30
0.0
  0
VERTEX
  5
95
  8
TEXT
 10
1.03878888710712
 20
18.81820525978191
 30
0.0
  0
VERTEX
  5
96
  8
TEXT
 10
0.062453896728672
 20
16.698
 30
0.0
  0
VERTEX
  5
97
  8
TEXT
 10
-0.052519644002566
 20
16.698
 30
0.0
  0
VERTEX
  5
98
  8
TEXT
 10
-1.034214640795382
 20
18.80768168697883
 30
0.0
  0
VERTEX
  5
99
  8
TEXT
 10
-1.077157833547146
 20
18.91213165490699
 30
0.0
  0
VERTEX
  5
9A
  8
TEXT
 10
-1.117028143040411
 20
19.04402710070558
 30
0.0
  0
VERTEX
  5
9B
  8
TEXT
 10
-1.06199687299551
 20
19.04402710070558
 30
0.0
  0
VERTEX
  5
9C
  8
TEXT
 10
-1.051431205901219
 20
18.90456169820398
 30
0.0
  0
VERTEX
  5
9D
  8
TEXT
 10
-1.047909316869788
 20
18.70831109685696
 30
0.0
  0
VERTEX
  5
9E
  8
TEXT
 10
-1.047909316869788
 20
16.698
 30
0.0
  0
VERTEX
  5
9F
  8
TEXT
 10
-1.315264191789609
 20
16.698
 30
0.0
  0
VERTEX
  5
A0
  8
TEXT
 10
-1.315264191789609
 20
19.498
 30
0.0
  0
VERTEX
  5
A1
  8
TEXT
 10
-1.066571119307248
 20
19.498
 30
0.0
  0
VERTEX
  5
A2
  8
TEXT
 10
-0.0548488614496475
 20
17.30617831943553
 30
0.0
  0
VERTEX
  5
A3
  8
TEXT
 10
0.0311357440667092
 20
17.08330307889673
 30
0.0
  0
VERTEX
  5
A4
  8
TEXT
 10
-0.0110427357280311
 20
17.08330307889673
 30
0.0
  0
VERTEX
  5
A5
  8
TEXT
 10
0.0681225946119304
 20
17.30151988454137
 30
0.0
  0
VERTEX
  5
A6
  8
TEXT
 10
1.074597097498396
 20
19.498
 30
0.0
  0
VERTEX
  5
A7
  8
TEXT
 10
1.315264191789608
 20
19.498
 30
0.0
  0
VERTEX
  5
A8
  8
TEXT
 10
1.315264191789608
 20
16.698
 30
0.0
  0
SEQEND
  5
1A9
  8
TEXT
  0
POLYLINE
  5
72
  8
TEXT
 66
     1
 10
0.0
 20
0.0
 30
0.0
 70
     1
  0
VERTEX
  5
A9
  8
TEXT
 10
-0.7077453495830659
 20
12.498
 30
0.0
  0
VERTEX
  5
AA
  8
TEXT
 10
-0.7077453495830659
 20
15.298
 30
0.0
  0
VERTEX
  5
AB
  8
TEXT
 10
0.646119307248236
 20
15.298
 30
0.0
  0
VERTEX
  5
AC
  8
TEXT
 10
0.646119307248236
 20
15.04655676715844
 30
0.0
  0
VERTEX
  5
AD
  8
TEXT
 10
-0.4386225144323282
 20
15.04655676715844
 30
0.0
  0
VERTEX
  5
AE
  8
TEXT
 10
-0.4386225144323282
 20
14.035395766517
 30
0.0
  0
VERTEX
  5
AF
  8
TEXT
 10
0.56686978832585
 20
14.035395766517
 30
0.0
  0
VERTEX
  5
B0
  8
TEXT
 10
0.56686978832585
 20
13.78574855676716
 30
0.0
  0
VERTEX
  5
B1
  8
TEXT
 10
-0.4386225144323282
 20
13.78574855676716
 30
0.0
  0
VERTEX
  5
B2
  8
TEXT
 10
-0.4386225144323282
 20
12.74585118665811
 30
0.0
  0
VERTEX
  5
B3
  8
TEXT
 10
0.707745349583066
 20
12.74585118665811
 30
0.0
  0
VERTEX
  5
B4
  8
TEXT
 10
0.707745349583066
 20
12.498
 30
0.0
  0
SEQEND
  5
1AA
  8
TEXT
  0
POLYLINE
  5
73
  8
TEXT
 66
     1
 10
0.0
 20
0.0
 30
0.0
 70
     1
  0
VERTEX
  5
B5
  8
TEXT
 10
-0.5812520044900576
 20
10.84655676715844
 30
0.0
  0
VERTEX
  5
B6
  8
TEXT
 10
-0.5812520044900576
 20
9.75996279666453
 30
0.0
  0
VERTEX
  5
B7
  8
TEXT
 10
-0.1505712796664528
 20
9.75996279666453
 30
0.0
  0
VERTEX
  5
B8
  8
TEXT
 10
-0.0124353551956382
 20
9.769569064704939
 30
0.0
  0
VERTEX
  5
B9
  8
TEXT
 10
0.1107921744708146
 20
9.798387868826172
 30
0.0
  0
VERTEX
  5
BA
  8
TEXT
 10
0.2191113093329057
 20
9.846419209028223
 30
0.0
  0
VERTEX
  5
BB
  8
TEXT
 10
0.3125220493906351
 20
9.913663085311098
 30
0.0
  0
VERTEX
  5
BC
  8
TEXT
 10
0.38773402421424
 20
9.997411431606801
 30
0.0
  0
VERTEX
  5
BD
  8
TEXT
 10
0.4414568633739576
 20
10.09495618184734
 30
0.0
  0
VERTEX
  5
BE
  8
TEXT
 10
0.4736905668697882
 20
10.20629733603272
 30
0.0
  0
VERTEX
  5
BF
  8
TEXT
 10
0.4844351347017317
 20
10.33143489416293
 30
0.0
  0
VERTEX
  5
C0
  8
TEXT
 10
0.4748823614897368
 20
10.44599889251925
 30
0.0
  0
VERTEX
  5
C1
  8
TEXT
 10
0.4462240418537523
 20
10.54731195878769
 30
0.0
  0
VERTEX
  5
C2
  8
TEXT
 10
0.3984601757937779
 20
10.63537409296825
 30
0.0
  0
VERTEX
  5
C3
  8
TEXT
 10
0.3315907633098139
 20
10.71018529506094
 30
0.0
  0
VERTEX
  5
C4
  8
TEXT
 10
0.2464506745109044
 20
10.7698478141036
 30
0.0
  0
VERTEX
  5
C5
  8
TEXT
 10
0.1438747795060936
 20
10.81246389913406
 30
0.0
  0
VERTEX
  5
C6
  8
TEXT
 10
0.0238630782953816
 20
10.83803355015234
 30
0.0
  0
VERTEX
  5
C7
  8
TEXT
 10
-0.1135844291212316
 20
10.84655676715844
 30
0.0
  0
SEQEND
  5
1AB
  8
TEXT
  0
POLYLINE
  5
74
  8
TEXT
 66
     1
 10
0.0
 20
0.0
 30
0.0
 70
     1
  0
VERTEX
  5
C8
  8
TEXT
 10
0.567304762668377
 20
8.298000000000002
 30
0.0
  0
VERTEX
  5
C9
  8
TEXT
 10
0.1878668216805644
 20
9.116986529826814
 30
0.0
  0
VERTEX
  5
CA
  8
TEXT
 10
0.1382130973380371
 20
9.218852083667416
 30
0.0
  0
VERTEX
  5
CB
  8
TEXT
 10
0.088313822963438
 20
9.303958847819116
 30
0.0
  0
VERTEX
  5
CC
  8
TEXT
 10
0.0381689985567671
 20
9.372306822281914
 30
0.0
  0
VERTEX
  5
CD
  8
TEXT
 10
-0.0122213758819757
 20
9.423896007055806
 30
0.0
  0
VERTEX
  5
CE
  8
TEXT
 10
-0.0671175934092367
 20
9.461704573244068
 30
0.0
  0
VERTEX
  5
CF
  8
TEXT
 10
-0.1307799470814625
 20
9.48871069194997
 30
0.0
  0
VERTEX
  5
D0
  8
TEXT
 10
-0.203208436898653
 20
9.504914363173512
 30
0.0
  0
VERTEX
  5
D1
  8
TEXT
 10
-0.2844030628608082
 20
9.510315586914691
 30
0.0
  0
VERTEX
  5
D2
  8
TEXT
 10
-0.5812520044900576
 20
9.510315586914691
 30
0.0
  0
VERTEX
  5
D3
  8
TEXT
 10
-0.5812520044900576
 20
8.298000000000002
 30
0.0
  0
VERTEX
  5
D4
  8
TEXT
 10
-0.8503748396407953
 20
8.298000000000002
 30
0.0
  0
VERTEX
  5
D5
  8
TEXT
 10
-0.8503748396407953
 20
11.098
 30
0.0
  0
VERTEX
  5
D6
  8
TEXT
 10
-0.0537263470173189
 20
11.098
 30
0.0
  0
VERTEX
  5
D7
  8
TEXT
 10
0.1201002746151379
 20
11.08518842707665
 30
0.0
  0
VERTEX
  5
D8
  8
TEXT
 10
0.2762016917896087
 20
11.04675370830661
 30
0.0
  0
VERTEX
  5
D9
  8
TEXT
 10
0.3476054487050994
 20
11.01792766922907
 30
0.0
  0
VERTEX
  5
DA
  8
TEXT
 10
0.4145779045060936
 20
10.98269584368987
 30
0.0
  0
VERTEX
  5
DB
  8
TEXT
 10
0.4771190591925913
 20
10.94105823168898
 30
0.0
  0
VERTEX
  5
DC
  8
TEXT
 10
0.5352289127645926
 20
10.89301483322643
 30
0.0
  0
VERTEX
  5
DD
  8
TEXT
 10
0.5876297280909235
 20
10.83970219416493
 30
0.0
  0
VERTEX
  5
DE
  8
TEXT
 10
0.6330437680404104
 20
10.78225686036722
 30
0.0
  0
VERTEX
  5
DF
  8
TEXT
 10
0.6714710326130531
 20
10.72067883183331
 30
0.0
  0
VERTEX
  5
E0
  8
TEXT
 10
0.7029115218088516
 20
10.65496810856318
 30
0.0
  0
VERTEX
  5
E1
  8
TEXT
 10
0.7273652356278062
 20
10.58512469055685
 30
0.0
  0
VERTEX
  5
E2
  8
TEXT
 10
0.7448321740699165
 20
10.51114857781431
 30
0.0
  0
VERTEX
  5
E3
  8
TEXT
 10
0.7588057248236049
 20
10.35079826812059
 30
0.0
  0
VERTEX
  5
E4
  8
TEXT
 10
0.7474902531670942
 20
10.20185901920302
 30
0.0
  0
VERTEX
  5
E5
  8
TEXT
 10
0.7135438381975625
 20
10.06592164448364
 30
0.0
  0
VERTEX
  5
E6
  8
TEXT
 10
0.6569664799150094
 20
9.942986143962477
 30
0.0
  0
VERTEX
  5
E7
  8
TEXT
 10
0.5777581783194355
 20
9.833052517639514
 30
0.0
  0
VERTEX
  5
E8
  8
TEXT
 10
0.4811193323043617
 20
9.739332209148493
 30
0.0
  0
VERTEX
  5
E9
  8
TEXT
 10
0.3722503407633097
 20
9.665036662123157
 30
0.0
  0
VERTEX
  5
EA
  8
TEXT
 10
0.2511512036962796
 20
9.610165876563503
 30
0.0
  0
VERTEX
  5
EB
  8
TEXT
 10
0.1178219211032714
 20
9.574719852469533
 30
0.0
  0
VERTEX
  5
EC
  8
TEXT
 10
0.1178219211032714
 20
9.620714881334191
 30
0.0
  0
VERTEX
  5
ED
  8
TEXT
 10
0.1967118846215522
 20
9.571183932007699
 30
0.0
  0
VERTEX
  5
EE
  8
TEXT
 10
0.2760333146247593
 20
9.487219852469533
 30
0.0
  0
VERTEX
  5
EF
  8
TEXT
 10
0.3557862111128927
 20
9.368822642719694
 30
0.0
  0
VERTEX
  5
F0
  8
TEXT
 10
0.4359705740859523
 20
9.21599230275818
 30
0.0
  0
VERTEX
  5
F1
  8
TEXT
 10
0.8503748396407952
 20
8.298000000000002
 30
0.0
  0
SEQEND
  5
1AC
  8
TEXT
  0
POLYLINE
  5
75
  8
TEXT
 66
     1
 10
0.0
 20
0.0
 30
0.0
 70
     1
  0
VERTEX
  5
F2
  8
TEXT
 10
-0.5460331141757536
 20
1.221669018601671
 30
0.0
  0
VERTEX
  5
F3
  8
TEXT
 10
-0.5460331141757536
 20
0.1458511866581174
 30
0.0
  0
VERTEX
  5
F4
  8
TEXT
 10
-0.081901459268762
 20
0.1458511866581174
 30
0.0
  0
VERTEX
  5
F5
  8
TEXT
 10
0.0622679802758178
 20
0.1547374669259173
 30
0.0
  0
VERTEX
  5
F6
  8
TEXT
 10
0.1877966645285439
 20
0.1813963077293169
 30
0.0
  0
VERTEX
  5
F7
  8
TEXT
 10
0.2946845934894163
 20
0.2258277090683162
 30
0.0
  0
VERTEX
  5
F8
  8
TEXT
 10
0.3829317671584349
 20
0.2880316709429153
 30
0.0
  0
VERTEX
  5
F9
  8
TEXT
 10
0.4519927136786402
 20
0.3669628517880083
 30
0.0
  0
VERTEX
  5
FA
  8
TEXT
 10
0.5013219611930725
 20
0.4615759100384894
 30
0.0
  0
VERTEX
  5
FB
  8
TEXT
 10
0.5309195097017319
 20
0.5718708456943586
 30
0.0
  0
VERTEX
  5
FC
  8
TEXT
 10
0.5407853592046183
 20
0.6978476587556158
 30
0.0
  0
VERTEX
  5
FD
  8
TEXT
 10
0.5294602409397049
 20
0.8206182899695349
 30
0.0
  0
VERTEX
  5
FE
  8
TEXT
 10
0.4954848861449647
 20
0.9270195036882649
 30
0.0
  0
VERTEX
  5
FF
  8
TEXT
 10
0.4388592948203976
 20
1.017051299911806
 30
0.0
  0
VERTEX
  5
100
  8
TEXT
 10
0.3595834669660039
 20
1.090713678640157
 30
0.0
  0
VERTEX
  5
101
  8
TEXT
 10
0.2576574025817832
 20
1.148006639873319
 30
0.0
  0
VERTEX
  5
102
  8
TEXT
 10
0.1330811016677357
 20
1.188930183611292
 30
0.0
  0
VERTEX
  5
103
  8
TEXT
 10
-0.0141454357761385
 20
1.213484309854076
 30
0.0
  0
VERTEX
  5
104
  8
TEXT
 10
-0.1840222097498396
 20
1.221669018601671
 30
0.0
  0
SEQEND
  5
1AD
  8
TEXT
  0
POLYLINE
  5
76
  8
TEXT
 66
     1
 10
0.0
 20
0.0
 30
0.0
 70
     1
  0
VERTEX
  5
105
  8
TEXT
 10
-0.5460331141757536
 20
2.446556767158438
 30
0.0
  0
VERTEX
  5
106
  8
TEXT
 10
-0.5460331141757536
 20
1.47131622835151
 30
0.0
  0
VERTEX
  5
107
  8
TEXT
 10
-0.2069215041693392
 20
1.47131622835151
 30
0.0
  0
VERTEX
  5
108
  8
TEXT
 10
-0.0721934633579217
 20
1.480231448444519
 30
0.0
  0
VERTEX
  5
109
  8
TEXT
 10
0.0475735647851187
 20
1.506977108723544
 30
0.0
  0
VERTEX
  5
10A
  8
TEXT
 10
0.1523795802597819
 20
1.551553209188586
 30
0.0
  0
VERTEX
  5
10B
  8
TEXT
 10
0.242224583066068
 20
1.613959749839644
 30
0.0
  0
VERTEX
  5
10C
  8
TEXT
 10
0.3142935174791534
 20
1.691325549230279
 30
0.0
  0
VERTEX
  5
10D
  8
TEXT
 10
0.3657713277742143
 20
1.78077942591405
 30
0.0
  0
VERTEX
  5
10E
  8
TEXT
 10
0.3966580139512508
 20
1.882321379890959
 30
0.0
  0
VERTEX
  5
10F
  8
TEXT
 10
0.4069535760102629
 20
1.995951411161003
 30
0.0
  0
VERTEX
  5
110
  8
TEXT
 10
0.3984899925833867
 20
2.101562041472902
 30
0.0
  0
VERTEX
  5
111
  8
TEXT
 10
0.3730992423027581
 20
2.193091254409881
 30
0.0
  0
VERTEX
  5
112
  8
TEXT
 10
0.3307813251683772
 20
2.27053904997194
 30
0.0
  0
VERTEX
  5
113
  8
TEXT
 10
0.2715362411802438
 20
2.333905428159079
 30
0.0
  0
VERTEX
  5
114
  8
TEXT
 10
0.1953639903383579
 20
2.383190388971299
 30
0.0
  0
VERTEX
  5
115
  8
TEXT
 10
0.1022645726427197
 20
2.418393932408598
 30
0.0
  0
VERTEX
  5
116
  8
TEXT
 10
-0.0077620119066709
 20
2.439516058470978
 30
0.0
  0
VERTEX
  5
117
  8
TEXT
 10
-0.1347157633098139
 20
2.446556767158438
 30
0.0
  0
SEQEND
  5
1AE
  8
TEXT
  0
POLYLINE
  5
77
  8
TEXT
 66
     1
 10
0.0
 20
0.0
 30
0.0
 70
     1
  0
VERTEX
  5
118
  8
TEXT
 10
-0.8151559493264913
 20
-0.1019999999999968
 30
0.0
  0
VERTEX
  5
119
  8
TEXT
 10
-0.8151559493264913
 20
2.698000000000003
 30
0.0
  0
VERTEX
  5
11A
  8
TEXT
 10
-0.0590021648492623
 20
2.698000000000003
 30
0.0
  0
VERTEX
  5
11B
  8
TEXT
 10
0.0987014662844772
 20
2.686547721897052
 30
0.0
  0
VERTEX
  5
11C
  8
TEXT
 10
0.2408389793136625
 20
2.6521908875882
 30
0.0
  0
VERTEX
  5
11D
  8
TEXT
 10
0.3674103742382937
 20
2.594929497073448
 30
0.0
  0
VERTEX
  5
11E
  8
TEXT
 10
0.4784156510583708
 20
2.514763550352793
 30
0.0
  0
VERTEX
  5
11F
  8
TEXT
 10
0.5687350916051956
 20
2.415714806165814
 30
0.0
  0
VERTEX
  5
120
  8
TEXT
 10
0.6332489777100705
 20
2.301805023252087
 30
0.0
  0
VERTEX
  5
121
  8
TEXT
 10
0.6719573093729954
 20
2.173034201611613
 30
0.0
  0
VERTEX
  5
122
  8
TEXT
 10
0.6848600865939704
 20
2.02940234124439
 30
0.0
  0
VERTEX
  5
123
  8
TEXT
 10
0.676546464079538
 20
1.908476843128611
 30
0.0
  0
VERTEX
  5
124
  8
TEXT
 10
0.6516055965362411
 20
1.796301695798592
 30
0.0
  0
VERTEX
  5
125
  8
TEXT
 10
0.6100374839640794
 20
1.692876899254333
 30
0.0
  0
VERTEX
  5
126
  8
TEXT
 10
0.5518421263630532
 20
1.598202453495833
 30
0.0
  0
VERTEX
  5
127
  8
TEXT
 10
0.4803379570237331
 20
1.514853126002248
 30
0.0
  0
VERTEX
  5
128
  8
TEXT
 10
0.3988434092366901
 20
1.445403684252729
 30
0.0
  0
VERTEX
  5
129
  8
TEXT
 10
0.3073584830019243
 20
1.389854128247277
 30
0.0
  0
VERTEX
  5
12A
  8
TEXT
 10
0.2058831783194356
 20
1.348204457985891
 30
0.0
  0
VERTEX
  5
12B
  8
TEXT
 10
0.2058831783194356
 20
1.396949647209753
 30
0.0
  0
VERTEX
  5
12C
  8
TEXT
 10
0.3324072171664528
 20
1.373746046143364
 30
0.0
  0
VERTEX
  5
12D
  8
TEXT
 10
0.4474026820076972
 20
1.330430143521491
 30
0.0
  0
VERTEX
  5
12E
  8
TEXT
 10
0.5508695728431687
 20
1.267001939344134
 30
0.0
  0
VERTEX
  5
12F
  8
TEXT
 10
0.6428078896728672
 20
1.183461433611292
 30
0.0
  0
VERTEX
  5
130
  8
TEXT
 10
0.7182101657713278
 20
1.083904050072165
 30
0.0
  0
VERTEX
  5
131
  8
TEXT
 10
0.7720689344130853
 20
0.9724252124759492
 30
0.0
  0
VERTEX
  5
132
  8
TEXT
 10
0.8043841955981399
 20
0.8490249208226458
 30
0.0
  0
VERTEX
  5
133
  8
TEXT
 10
0.8151559493264914
 20
0.7137031751122546
 30
0.0
  0
VERTEX
  5
134
  8
TEXT
 10
0.8085111900657473
 20
0.5996785098620943
 30
0.0
  0
VERTEX
  5
135
  8
TEXT
 10
0.7885769122835151
 20
0.4915645846696632
 30
0.0
  0
VERTEX
  5
136
  8
TEXT
 10
0.7553531159797947
 20
0.3893613995349615
 30
0.0
  0
VERTEX
  5
137
  8
TEXT
 10
0.7088398011545861
 20
0.2930689544579891
 30
0.0
  0
VERTEX
  5
138
  8
TEXT
 10
0.6500454768681847
 20
0.2048866761545895
 30
0.0
  0
VERTEX
  5
139
  8
TEXT
 10
0.5799786521808852
 20
0.1270139913406061
 30
0.0
  0
VERTEX
  5
13A
  8
TEXT
 10
0.4986393270926875
 20
0.0594509000160391
 30
0.0
  0
VERTEX
  5
13B
  8
TEXT
 10
0.406027501603592
 20
0.0021974021808884
 30
0.0
  0
VERTEX
  5
13C
  8
TEXT
 10
0.3042680604554201
 20
-0.0433889612732489
 30
0.0
  0
VERTEX
  5
13D
  8
TEXT
 10
0.1954858883899935
 20
-0.0759506494547755
 30
0.0
  0
VERTEX
  5
13E
  8
TEXT
 10
0.0796809854073123
 20
-0.0954876623636914
 30
0.0
  0
VERTEX
  5
13F
  8
TEXT
 10
-0.0431466484926234
 20
-0.1019999999999968
 30
0.0
  0
SEQEND
  5
1AF
  8
TEXT
  0
POLYLINE
  5
78
  8
TEXT
 66
     1
 10
0.0
 20
0.0
 30
0.0
 70
     1
  0
VERTEX
  5
140
  8
TEXT
 10
0.567304762668377
 20
-4.301999999999996
 30
0.0
  0
VERTEX
  5
141
  8
TEXT
 10
0.1878668216805644
 20
-3.483013470173184
 30
0.0
  0
VERTEX
  5
142
  8
TEXT
 10
0.1382130973380371
 20
-3.381147916332581
 30
0.0
  0
VERTEX
  5
143
  8
TEXT
 10
0.088313822963438
 20
-3.296041152180881
 30
0.0
  0
VERTEX
  5
144
  8
TEXT
 10
0.0381689985567671
 20
-3.227693177718085
 30
0.0
  0
VERTEX
  5
145
  8
TEXT
 10
-0.0122213758819757
 20
-3.176103992944191
 30
0.0
  0
VERTEX
  5
146
  8
TEXT
 10
-0.0671175934092367
 20
-3.13829542675593
 30
0.0
  0
VERTEX
  5
147
  8
TEXT
 10
-0.1307799470814625
 20
-3.111289308050028
 30
0.0
  0
VERTEX
  5
148
  8
TEXT
 10
-0.203208436898653
 20
-3.095085636826488
 30
0.0
  0
VERTEX
  5
149
  8
TEXT
 10
-0.2844030628608082
 20
-3.089684413085307
 30
0.0
  0
VERTEX
  5
14A
  8
TEXT
 10
-0.5812520044900576
 20
-3.089684413085307
 30
0.0
  0
VERTEX
  5
14B
  8
TEXT
 10
-0.5812520044900576
 20
-4.301999999999996
 30
0.0
  0
VERTEX
  5
14C
  8
TEXT
 10
-0.8503748396407953
 20
-4.301999999999996
 30
0.0
  0
VERTEX
  5
14D
  8
TEXT
 10
-0.8503748396407953
 20
-1.501999999999997
 30
0.0
  0
VERTEX
  5
14E
  8
TEXT
 10
-0.0537263470173189
 20
-1.501999999999997
 30
0.0
  0
VERTEX
  5
14F
  8
TEXT
 10
0.1201002746151379
 20
-1.514811572923345
 30
0.0
  0
VERTEX
  5
150
  8
TEXT
 10
0.2762016917896087
 20
-1.55324629169339
 30
0.0
  0
VERTEX
  5
151
  8
TEXT
 10
0.3476054487050994
 20
-1.582072330770923
 30
0.0
  0
VERTEX
  5
152
  8
TEXT
 10
0.4145779045060936
 20
-1.617304156310131
 30
0.0
  0
VERTEX
  5
153
  8
TEXT
 10
0.4771190591925913
 20
-1.658941768311013
 30
0.0
  0
VERTEX
  5
154
  8
TEXT
 10
0.5352289127645926
 20
-1.706985166773569
 30
0.0
  0
VERTEX
  5
155
  8
TEXT
 10
0.5876297280909235
 20
-1.760297805835067
 30
0.0
  0
VERTEX
  5
156
  8
TEXT
 10
0.6330437680404104
 20
-1.817743139632774
 30
0.0
  0
VERTEX
  5
157
  8
TEXT
 10
0.6714710326130531
 20
-1.87932116816669
 30
0.0
  0
VERTEX
  5
158
  8
TEXT
 10
0.7029115218088516
 20
-1.945031891436815
 30
0.0
  0
VERTEX
  5
159
  8
TEXT
 10
0.7273652356278062
 20
-2.014875309443149
 30
0.0
  0
VERTEX
  5
15A
  8
TEXT
 10
0.7448321740699165
 20
-2.088851422185693
 30
0.0
  0
VERTEX
  5
15B
  8
TEXT
 10
0.7588057248236049
 20
-2.249201731879406
 30
0.0
  0
VERTEX
  5
15C
  8
TEXT
 10
0.7474902531670942
 20
-2.398140980796981
 30
0.0
  0
VERTEX
  5
15D
  8
TEXT
 10
0.7135438381975625
 20
-2.534078355516353
 30
0.0
  0
VERTEX
  5
15E
  8
TEXT
 10
0.6569664799150094
 20
-2.65701385603752
 30
0.0
  0
VERTEX
  5
15F
  8
TEXT
 10
0.5777581783194355
 20
-2.766947482360484
 30
0.0
  0
VERTEX
  5
160
  8
TEXT
 10
0.4811193323043617
 20
-2.860667790851504
 30
0.0
  0
VERTEX
  5
161
  8
TEXT
 10
0.3722503407633097
 20
-2.93496333787684
 30
0.0
  0
VERTEX
  5
162
  8
TEXT
 10
0.2511512036962796
 20
-2.989834123436494
 30
0.0
  0
VERTEX
  5
163
  8
TEXT
 10
0.1178219211032714
 20
-3.025280147530465
 30
0.0
  0
VERTEX
  5
164
  8
TEXT
 10
0.1178219211032714
 20
-2.979285118665808
 30
0.0
  0
VERTEX
  5
165
  8
TEXT
 10
0.1967118846215522
 20
-3.028816067992299
 30
0.0
  0
VERTEX
  5
166
  8
TEXT
 10
0.2760333146247593
 20
-3.112780147530465
 30
0.0
  0
VERTEX
  5
167
  8
TEXT
 10
0.3557862111128927
 20
-3.231177357280304
 30
0.0
  0
VERTEX
  5
168
  8
TEXT
 10
0.4359705740859523
 20
-3.384007697241818
 30
0.0
  0
VERTEX
  5
169
  8
TEXT
 10
0.8503748396407952
 20
-4.301999999999996
 30
0.0
  0
SEQEND
  5
1B0
  8
TEXT
  0
POLYLINE
  5
79
  8
TEXT
 66
     1
 10
0.0
 20
0.0
 30
0.0
 70
     1
  0
VERTEX
  5
16A
  8
TEXT
 10
-0.5812520044900576
 20
-1.753443232841561
 30
0.0
  0
VERTEX
  5
16B
  8
TEXT
 10
-0.5812520044900576
 20
-2.840037203335467
 30
0.0
  0
VERTEX
  5
16C
  8
TEXT
 10
-0.1505712796664528
 20
-2.840037203335467
 30
0.0
  0
VERTEX
  5
16D
  8
TEXT
 10
-0.0124353551956382
 20
-2.830430935295057
 30
0.0
  0
VERTEX
  5
16E
  8
TEXT
 10
0.1107921744708146
 20
-2.801612131173826
 30
0.0
  0
VERTEX
  5
16F
  8
TEXT
 10
0.2191113093329057
 20
-2.753580790971773
 30
0.0
  0
VERTEX
  5
170
  8
TEXT
 10
0.3125220493906351
 20
-2.6863369146889
 30
0.0
  0
VERTEX
  5
171
  8
TEXT
 10
0.38773402421424
 20
-2.602588568393197
 30
0.0
  0
VERTEX
  5
172
  8
TEXT
 10
0.4414568633739576
 20
-2.505043818152658
 30
0.0
  0
VERTEX
  5
173
  8
TEXT
 10
0.4736905668697882
 20
-2.393702663967283
 30
0.0
  0
VERTEX
  5
174
  8
TEXT
 10
0.4844351347017317
 20
-2.268565105837071
 30
0.0
  0
VERTEX
  5
175
  8
TEXT
 10
0.4748823614897368
 20
-2.154001107480753
 30
0.0
  0
VERTEX
  5
176
  8
TEXT
 10
0.4462240418537523
 20
-2.052688041212312
 30
0.0
  0
VERTEX
  5
177
  8
TEXT
 10
0.3984601757937779
 20
-1.964625907031747
 30
0.0
  0
VERTEX
  5
178
  8
TEXT
 10
0.3315907633098139
 20
-1.88981470493906
 30
0.0
  0
VERTEX
  5
179
  8
TEXT
 10
0.2464506745109044
 20
-1.830152185896404
 30
0.0
  0
VERTEX
  5
17A
  8
TEXT
 10
0.1438747795060936
 20
-1.787536100865936
 30
0.0
  0
VERTEX
  5
17B
  8
TEXT
 10
0.0238630782953816
 20
-1.761966449847655
 30
0.0
  0
VERTEX
  5
17C
  8
TEXT
 10
-0.1135844291212316
 20
-1.753443232841561
 30
0.0
  0
SEQEND
  5
1B1
  8
TEXT
  0
POLYLINE
  5
7A
  8
TEXT
 66
     1
 10
0.0
 20
0.0
 30
0.0
 70
     1
  0
VERTEX
  5
17D
  8
TEXT
 10
-0.0254670461834509
 20
-6.018100064143677
 30
0.0
  0
VERTEX
  5
17E
  8
TEXT
 10
0.0219591885824247
 20
-6.018100064143677
 30
0.0
  0
VERTEX
  5
17F
  8
TEXT
 10
-0.0309673669018601
 20
-6.188273252084665
 30
0.0
  0
VERTEX
  5
180
  8
TEXT
 10
-0.4870730436177035
 20
-7.406425914047462
 30
0.0
  0
VERTEX
  5
181
  8
TEXT
 10
0.4853050833867863
 20
-7.406425914047462
 30
0.0
  0
VERTEX
  5
182
  8
TEXT
 10
0.0278243264913407
 20
-6.200059653624114
 30
0.0
  0
SEQEND
  5
1B2
  8
TEXT
  0
POLYLINE
  5
7B
  8
TEXT
 66
     1
 10
0.0
 20
0.0
 30
0.0
 70
     1
  0
VERTEX
  5
183
  8
TEXT
 10
0.8722919339320075
 20
-8.501999999999995
 30
0.0
  0
VERTEX
  5
184
  8
TEXT
 10
0.560625801796023
 20
-7.656073123797301
 30
0.0
  0
VERTEX
  5
185
  8
TEXT
 10
-0.566519002565747
 20
-7.656073123797301
 30
0.0
  0
VERTEX
  5
186
  8
TEXT
 10
-0.8764452373316226
 20
-8.501999999999995
 30
0.0
  0
VERTEX
  5
187
  8
TEXT
 10
-1.154127245028864
 20
-8.501999999999995
 30
0.0
  0
VERTEX
  5
188
  8
TEXT
 10
-0.112854794740218
 20
-5.701999999999996
 30
0.0
  0
VERTEX
  5
189
  8
TEXT
 10
0.1245850705580501
 20
-5.701999999999996
 30
0.0
  0
VERTEX
  5
18A
  8
TEXT
 10
1.154127245028864
 20
-8.501999999999995
 30
0.0
  0
SEQEND
  5
1B3
  8
TEXT
  0
POLYLINE
  5
7C
  8
TEXT
 66
     1
 10
0.0
 20
0.0
 30
0.0
 70
     1
  0
VERTEX
  5
18B
  8
TEXT
 10
0.5505792976266837
 20
-12.70199999999999
 30
0.0
  0
VERTEX
  5
18C
  8
TEXT
 10
-0.6197823123797305
 20
-11.38733915971776
 30
0.0
  0
VERTEX
  5
18D
  8
TEXT
 10
-0.656123717126363
 20
-11.33702245028864
 30
0.0
  0
VERTEX
  5
18E
  8
TEXT
 10
-0.606789207825529
 20
-11.33702245028864
 30
0.0
  0
VERTEX
  5
18F
  8
TEXT
 10
-0.606789207825529
 20
-12.70199999999999
 30
0.0
  0
VERTEX
  5
190
  8
TEXT
 10
-0.8759120429762667
 20
-12.70199999999999
 30
0.0
  0
VERTEX
  5
191
  8
TEXT
 10
-0.8759120429762667
 20
-9.901999999999996
 30
0.0
  0
VERTEX
  5
192
  8
TEXT
 10
-0.606789207825529
 20
-9.901999999999996
 30
0.0
  0
VERTEX
  5
193
  8
TEXT
 10
-0.606789207825529
 20
-11.18795253367543
 30
0.0
  0
VERTEX
  5
194
  8
TEXT
 10
-0.6584248717126362
 20
-11.18795253367543
 30
0.0
  0
VERTEX
  5
195
  8
TEXT
 10
-0.6159377004490056
 20
-11.13252838357921
 30
0.0
  0
VERTEX
  5
196
  8
TEXT
 10
0.4966424791533034
 20
-9.901999999999996
 30
0.0
  0
VERTEX
  5
197
  8
TEXT
 10
0.8019664047466324
 20
-9.901999999999996
 30
0.0
  0
VERTEX
  5
198
  8
TEXT
 10
-0.3919680083386785
 20
-11.26091597177678
 30
0.0
  0
VERTEX
  5
199
  8
TEXT
 10
0.8759120429762669
 20
-12.70199999999999
 30
0.0
  0
SEQEND
  5
1B4
  8
TEXT
  0
POLYLINE
  5
7D
  8
TEXT
 66
     1
 10
0.0
 20
0.0
 30
0.0
 70
     1
  0
VERTEX
  5
19A
  8
TEXT
 10
-0.7077453495830659
 20
-16.902
 30
0.0
  0
VERTEX
  5
19B
  8
TEXT
 10
-0.7077453495830659
 20
-14.102
 30
0.0
  0
VERTEX
  5
19C
  8
TEXT
 10
0.646119307248236
 20
-14.102
 30
0.0
  0
VERTEX
  5
19D
  8
TEXT
 10
0.646119307248236
 20
-14.35344323284156
 30
0.0
  0
VERTEX
  5
19E
  8
TEXT
 10
-0.4386225144323282
 20
-14.35344323284156
 30
0.0
  0
VERTEX
  5
19F
  8
TEXT
 10
-0.4386225144323282
 20
-15.364604233483
 30
0.0
  0
VERTEX
  5
1A0
  8
TEXT
 10
0.56686978832585
 20
-15.364604233483
 30
0.0
  0
VERTEX
  5
1A1
  8
TEXT
 10
0.56686978832585
 20
-15.61425144323284
 30
0.0
  0
VERTEX
  5
1A2
  8
TEXT
 10
-0.4386225144323282
 20
-15.61425144323284
 30
0.0
  0
VERTEX
  5
1A3
  8
TEXT
 10
-0.4386225144323282
 20
-16.65414881334188
 30
0.0
  0
VERTEX
  5
1A4
  8
TEXT
 10
0.707745349583066
 20
-16.65414881334188
 30
0.0
  0
VERTEX
  5
1A5
  8
TEXT
 10
0.707745349583066
 20
-16.902
 30
0.0
  0
SEQEND
  5
1B5
  8
TEXT
  0
ENDSEC
  0
EOF
